%TF.GenerationSoftware,KiCad,Pcbnew,9.0.0-9.0.0-2~ubuntu24.04.1*%
%TF.CreationDate,2025-04-10T08:20:29-04:00*%
%TF.ProjectId,PSU,5053552e-6b69-4636-9164-5f7063625858,0*%
%TF.SameCoordinates,Original*%
%TF.FileFunction,Paste,Bot*%
%TF.FilePolarity,Positive*%
%FSLAX46Y46*%
G04 Gerber Fmt 4.6, Leading zero omitted, Abs format (unit mm)*
G04 Created by KiCad (PCBNEW 9.0.0-9.0.0-2~ubuntu24.04.1) date 2025-04-10 08:20:29*
%MOMM*%
%LPD*%
G01*
G04 APERTURE LIST*
G04 Aperture macros list*
%AMRoundRect*
0 Rectangle with rounded corners*
0 $1 Rounding radius*
0 $2 $3 $4 $5 $6 $7 $8 $9 X,Y pos of 4 corners*
0 Add a 4 corners polygon primitive as box body*
4,1,4,$2,$3,$4,$5,$6,$7,$8,$9,$2,$3,0*
0 Add four circle primitives for the rounded corners*
1,1,$1+$1,$2,$3*
1,1,$1+$1,$4,$5*
1,1,$1+$1,$6,$7*
1,1,$1+$1,$8,$9*
0 Add four rect primitives between the rounded corners*
20,1,$1+$1,$2,$3,$4,$5,0*
20,1,$1+$1,$4,$5,$6,$7,0*
20,1,$1+$1,$6,$7,$8,$9,0*
20,1,$1+$1,$8,$9,$2,$3,0*%
G04 Aperture macros list end*
%ADD10C,0.000000*%
%ADD11RoundRect,0.225000X-0.250000X0.225000X-0.250000X-0.225000X0.250000X-0.225000X0.250000X0.225000X0*%
%ADD12RoundRect,0.249999X-0.395001X0.395001X-0.395001X-0.395001X0.395001X-0.395001X0.395001X0.395001X0*%
%ADD13RoundRect,0.050000X-0.050000X0.387500X-0.050000X-0.387500X0.050000X-0.387500X0.050000X0.387500X0*%
%ADD14RoundRect,0.050000X-0.387500X0.050000X-0.387500X-0.050000X0.387500X-0.050000X0.387500X0.050000X0*%
%ADD15RoundRect,0.200000X0.200000X0.275000X-0.200000X0.275000X-0.200000X-0.275000X0.200000X-0.275000X0*%
%ADD16RoundRect,0.200000X0.275000X-0.200000X0.275000X0.200000X-0.275000X0.200000X-0.275000X-0.200000X0*%
%ADD17RoundRect,0.250000X-1.075000X0.362500X-1.075000X-0.362500X1.075000X-0.362500X1.075000X0.362500X0*%
%ADD18R,1.333500X0.279400*%
%ADD19RoundRect,0.250000X1.000000X0.900000X-1.000000X0.900000X-1.000000X-0.900000X1.000000X-0.900000X0*%
%ADD20RoundRect,0.200000X-0.200000X-0.275000X0.200000X-0.275000X0.200000X0.275000X-0.200000X0.275000X0*%
%ADD21RoundRect,0.225000X-0.225000X-0.250000X0.225000X-0.250000X0.225000X0.250000X-0.225000X0.250000X0*%
%ADD22R,0.457200X0.889000*%
%ADD23R,0.812800X0.339000*%
%ADD24R,4.267200X2.143998*%
%ADD25RoundRect,0.225000X0.375000X-0.225000X0.375000X0.225000X-0.375000X0.225000X-0.375000X-0.225000X0*%
%ADD26R,1.400000X1.200000*%
%ADD27RoundRect,0.225000X0.225000X0.250000X-0.225000X0.250000X-0.225000X-0.250000X0.225000X-0.250000X0*%
%ADD28R,1.900000X0.900000*%
%ADD29RoundRect,0.152500X0.152500X-0.262500X0.152500X0.262500X-0.152500X0.262500X-0.152500X-0.262500X0*%
%ADD30R,4.420000X0.540000*%
%ADD31RoundRect,0.250000X0.900000X-1.000000X0.900000X1.000000X-0.900000X1.000000X-0.900000X-1.000000X0*%
%ADD32RoundRect,0.200000X-0.275000X0.200000X-0.275000X-0.200000X0.275000X-0.200000X0.275000X0.200000X0*%
%ADD33RoundRect,0.250000X-0.650000X1.000000X-0.650000X-1.000000X0.650000X-1.000000X0.650000X1.000000X0*%
%ADD34RoundRect,0.225000X-0.375000X0.225000X-0.375000X-0.225000X0.375000X-0.225000X0.375000X0.225000X0*%
%ADD35RoundRect,0.250000X-0.625000X0.312500X-0.625000X-0.312500X0.625000X-0.312500X0.625000X0.312500X0*%
%ADD36RoundRect,0.250000X-1.450000X0.312500X-1.450000X-0.312500X1.450000X-0.312500X1.450000X0.312500X0*%
%ADD37RoundRect,0.150000X-0.150000X0.825000X-0.150000X-0.825000X0.150000X-0.825000X0.150000X0.825000X0*%
%ADD38R,2.400000X4.400000*%
%ADD39RoundRect,0.225000X0.250000X-0.225000X0.250000X0.225000X-0.250000X0.225000X-0.250000X-0.225000X0*%
%ADD40RoundRect,0.250000X0.312500X0.625000X-0.312500X0.625000X-0.312500X-0.625000X0.312500X-0.625000X0*%
%ADD41RoundRect,0.250000X0.325000X0.650000X-0.325000X0.650000X-0.325000X-0.650000X0.325000X-0.650000X0*%
G04 APERTURE END LIST*
D10*
%TO.C,U1*%
G36*
X141276300Y-111900000D02*
G01*
X139723700Y-111900000D01*
X139723700Y-110626800D01*
X141276300Y-110626800D01*
X141276300Y-111900000D01*
G37*
G36*
X141276300Y-113373200D02*
G01*
X139723700Y-113373200D01*
X139723700Y-112100000D01*
X141276300Y-112100000D01*
X141276300Y-113373200D01*
G37*
%TD*%
D11*
%TO.C,C26*%
X150700000Y-124673838D03*
X150700000Y-126223838D03*
%TD*%
D12*
%TO.C,U7*%
X145800000Y-123700000D03*
X144200000Y-123700000D03*
X145800000Y-125300000D03*
X144200000Y-125300000D03*
D13*
X142400000Y-121062500D03*
X142800001Y-121062500D03*
X143200000Y-121062500D03*
X143600000Y-121062500D03*
X144000000Y-121062500D03*
X144399999Y-121062500D03*
X144800000Y-121062500D03*
X145200000Y-121062500D03*
X145600001Y-121062500D03*
X146000000Y-121062500D03*
X146400000Y-121062500D03*
X146800000Y-121062500D03*
X147199999Y-121062500D03*
X147600000Y-121062500D03*
D14*
X148437500Y-121900000D03*
X148437500Y-122300001D03*
X148437500Y-122700000D03*
X148437500Y-123100000D03*
X148437500Y-123500000D03*
X148437500Y-123899999D03*
X148437500Y-124300000D03*
X148437500Y-124700000D03*
X148437500Y-125100001D03*
X148437500Y-125500000D03*
X148437500Y-125900000D03*
X148437500Y-126300000D03*
X148437500Y-126699999D03*
X148437500Y-127100000D03*
D13*
X147600000Y-127937500D03*
X147199999Y-127937500D03*
X146800000Y-127937500D03*
X146400000Y-127937500D03*
X146000000Y-127937500D03*
X145600001Y-127937500D03*
X145200000Y-127937500D03*
X144800000Y-127937500D03*
X144399999Y-127937500D03*
X144000000Y-127937500D03*
X143600000Y-127937500D03*
X143200000Y-127937500D03*
X142800001Y-127937500D03*
X142400000Y-127937500D03*
D14*
X141562500Y-127100000D03*
X141562500Y-126699999D03*
X141562500Y-126300000D03*
X141562500Y-125900000D03*
X141562500Y-125500000D03*
X141562500Y-125100001D03*
X141562500Y-124700000D03*
X141562500Y-124300000D03*
X141562500Y-123899999D03*
X141562500Y-123500000D03*
X141562500Y-123100000D03*
X141562500Y-122700000D03*
X141562500Y-122300001D03*
X141562500Y-121900000D03*
%TD*%
D15*
%TO.C,R23*%
X139325000Y-102000000D03*
X137675000Y-102000000D03*
%TD*%
D16*
%TO.C,R25*%
X145000000Y-111825000D03*
X145000000Y-110175000D03*
%TD*%
D17*
%TO.C,R32*%
X155500000Y-87687500D03*
X155500000Y-92312500D03*
%TD*%
D18*
%TO.C,U1*%
X138283850Y-113751330D03*
X138283850Y-113250950D03*
X138283850Y-112750570D03*
X138283850Y-112250190D03*
X138283850Y-111749810D03*
X138283850Y-111249430D03*
X138283850Y-110749050D03*
X138283850Y-110248670D03*
X142716150Y-110248670D03*
X142716150Y-110749050D03*
X142716150Y-111249430D03*
X142716150Y-111749810D03*
X142716150Y-112250190D03*
X142716150Y-112750570D03*
X142716150Y-113250950D03*
X142716150Y-113751330D03*
%TD*%
D19*
%TO.C,D9*%
X186150000Y-99000000D03*
X181850000Y-99000000D03*
%TD*%
D20*
%TO.C,R36*%
X143675000Y-119500000D03*
X145325000Y-119500000D03*
%TD*%
%TO.C,R37*%
X143675000Y-118000000D03*
X145325000Y-118000000D03*
%TD*%
D21*
%TO.C,C37*%
X146725000Y-118000000D03*
X148275000Y-118000000D03*
%TD*%
%TO.C,C8*%
X139225000Y-115500000D03*
X140775000Y-115500000D03*
%TD*%
D20*
%TO.C,R18*%
X134096168Y-114436498D03*
X135746168Y-114436498D03*
%TD*%
D17*
%TO.C,R1*%
X143500000Y-87187500D03*
X143500000Y-91812500D03*
%TD*%
D22*
%TO.C,U2*%
X178905000Y-88849999D03*
X177635000Y-88849999D03*
X176365000Y-88849999D03*
D23*
X175730000Y-88570000D03*
D22*
X175095000Y-88849999D03*
X175095000Y-85150001D03*
X176365000Y-85150001D03*
X177635000Y-85150001D03*
D24*
X177000000Y-86327502D03*
D22*
X178905000Y-85150001D03*
%TD*%
D20*
%TO.C,R3*%
X141675000Y-108000000D03*
X143325000Y-108000000D03*
%TD*%
%TO.C,R4*%
X137675000Y-106000000D03*
X139325000Y-106000000D03*
%TD*%
D25*
%TO.C,D8*%
X143000000Y-97150000D03*
X143000000Y-93850000D03*
%TD*%
D26*
%TO.C,Y1*%
X152500000Y-124598838D03*
X154700000Y-124598838D03*
X154700000Y-126298838D03*
X152500000Y-126298838D03*
%TD*%
D21*
%TO.C,C4*%
X176225000Y-90500000D03*
X177775000Y-90500000D03*
%TD*%
D15*
%TO.C,R29*%
X151825000Y-128000000D03*
X150175000Y-128000000D03*
%TD*%
D27*
%TO.C,C7*%
X135775000Y-112000000D03*
X134225000Y-112000000D03*
%TD*%
D28*
%TO.C,Q1*%
X151950000Y-107100000D03*
X154050000Y-107100000D03*
X151950000Y-106000000D03*
X154050000Y-106000000D03*
D29*
X154905000Y-108690000D03*
X153640000Y-108690000D03*
X152370000Y-108690000D03*
X151100000Y-108690000D03*
X151095000Y-103010000D03*
X152365000Y-103010000D03*
X153635000Y-103010000D03*
D30*
X153000000Y-103280000D03*
D29*
X154905000Y-103010000D03*
%TD*%
D15*
%TO.C,R6*%
X193825000Y-105000000D03*
X192175000Y-105000000D03*
%TD*%
D20*
%TO.C,R26*%
X134175000Y-118500000D03*
X135825000Y-118500000D03*
%TD*%
D31*
%TO.C,D3*%
X151000000Y-91650000D03*
X151000000Y-87350000D03*
%TD*%
D20*
%TO.C,R7*%
X137675000Y-104000000D03*
X139325000Y-104000000D03*
%TD*%
D32*
%TO.C,R2*%
X181000000Y-86175000D03*
X181000000Y-87825000D03*
%TD*%
%TO.C,R38*%
X125045000Y-127175000D03*
X125045000Y-128825000D03*
%TD*%
D21*
%TO.C,C21*%
X141725000Y-106000000D03*
X143275000Y-106000000D03*
%TD*%
D33*
%TO.C,D4*%
X153000000Y-95000000D03*
X153000000Y-99000000D03*
%TD*%
D21*
%TO.C,C9*%
X137725000Y-108000000D03*
X139275000Y-108000000D03*
%TD*%
D34*
%TO.C,D5*%
X143000000Y-98850000D03*
X143000000Y-102150000D03*
%TD*%
D35*
%TO.C,R8*%
X153000000Y-110537500D03*
X153000000Y-113462500D03*
%TD*%
D15*
%TO.C,R12*%
X193825000Y-95000000D03*
X192175000Y-95000000D03*
%TD*%
D36*
%TO.C,R10*%
X138500000Y-91362500D03*
X138500000Y-95637500D03*
%TD*%
D37*
%TO.C,U9*%
X134595000Y-122025000D03*
X135865000Y-122025000D03*
X137135000Y-122025000D03*
X138405000Y-122025000D03*
X138405000Y-126975000D03*
X137135000Y-126975000D03*
X135865000Y-126975000D03*
X134595000Y-126975000D03*
%TD*%
D20*
%TO.C,R5*%
X141675000Y-104000000D03*
X143325000Y-104000000D03*
%TD*%
D27*
%TO.C,C6*%
X135775000Y-110000000D03*
X134225000Y-110000000D03*
%TD*%
D38*
%TO.C,D1*%
X133100000Y-87150000D03*
X133100000Y-94850000D03*
X127900000Y-94850000D03*
X127900000Y-87150000D03*
%TD*%
D21*
%TO.C,C36*%
X146725000Y-119500000D03*
X148275000Y-119500000D03*
%TD*%
D20*
%TO.C,R28*%
X150675000Y-119000000D03*
X152325000Y-119000000D03*
%TD*%
D39*
%TO.C,C35*%
X156488368Y-126223838D03*
X156488368Y-124673838D03*
%TD*%
D40*
%TO.C,R27*%
X185462500Y-95000000D03*
X182537500Y-95000000D03*
%TD*%
D41*
%TO.C,C23*%
X185475000Y-103000000D03*
X182525000Y-103000000D03*
%TD*%
M02*
