%TF.GenerationSoftware,KiCad,Pcbnew,9.0.0-9.0.0-2~ubuntu24.04.1*%
%TF.CreationDate,2025-04-09T05:40:01-04:00*%
%TF.ProjectId,PSU,5053552e-6b69-4636-9164-5f7063625858,rev?*%
%TF.SameCoordinates,Original*%
%TF.FileFunction,Soldermask,Top*%
%TF.FilePolarity,Negative*%
%FSLAX46Y46*%
G04 Gerber Fmt 4.6, Leading zero omitted, Abs format (unit mm)*
G04 Created by KiCad (PCBNEW 9.0.0-9.0.0-2~ubuntu24.04.1) date 2025-04-09 05:40:01*
%MOMM*%
%LPD*%
G01*
G04 APERTURE LIST*
G04 Aperture macros list*
%AMRoundRect*
0 Rectangle with rounded corners*
0 $1 Rounding radius*
0 $2 $3 $4 $5 $6 $7 $8 $9 X,Y pos of 4 corners*
0 Add a 4 corners polygon primitive as box body*
4,1,4,$2,$3,$4,$5,$6,$7,$8,$9,$2,$3,0*
0 Add four circle primitives for the rounded corners*
1,1,$1+$1,$2,$3*
1,1,$1+$1,$4,$5*
1,1,$1+$1,$6,$7*
1,1,$1+$1,$8,$9*
0 Add four rect primitives between the rounded corners*
20,1,$1+$1,$2,$3,$4,$5,0*
20,1,$1+$1,$4,$5,$6,$7,0*
20,1,$1+$1,$6,$7,$8,$9,0*
20,1,$1+$1,$8,$9,$2,$3,0*%
G04 Aperture macros list end*
%ADD10C,2.604000*%
%ADD11RoundRect,0.200000X0.275000X-0.200000X0.275000X0.200000X-0.275000X0.200000X-0.275000X-0.200000X0*%
%ADD12C,1.800000*%
%ADD13C,3.000000*%
%ADD14RoundRect,0.225000X-0.225000X-0.250000X0.225000X-0.250000X0.225000X0.250000X-0.225000X0.250000X0*%
%ADD15RoundRect,0.250000X0.475000X-0.250000X0.475000X0.250000X-0.475000X0.250000X-0.475000X-0.250000X0*%
%ADD16RoundRect,0.225000X0.250000X-0.225000X0.250000X0.225000X-0.250000X0.225000X-0.250000X-0.225000X0*%
%ADD17RoundRect,0.200000X0.200000X0.275000X-0.200000X0.275000X-0.200000X-0.275000X0.200000X-0.275000X0*%
%ADD18C,0.990600*%
%ADD19C,0.787400*%
%ADD20RoundRect,0.250000X-0.650000X0.325000X-0.650000X-0.325000X0.650000X-0.325000X0.650000X0.325000X0*%
%ADD21RoundRect,0.218750X0.218750X0.256250X-0.218750X0.256250X-0.218750X-0.256250X0.218750X-0.256250X0*%
%ADD22RoundRect,0.225000X0.225000X0.250000X-0.225000X0.250000X-0.225000X-0.250000X0.225000X-0.250000X0*%
%ADD23RoundRect,0.102000X-0.300000X0.325000X-0.300000X-0.325000X0.300000X-0.325000X0.300000X0.325000X0*%
%ADD24RoundRect,0.102000X-0.350000X0.175000X-0.350000X-0.175000X0.350000X-0.175000X0.350000X0.175000X0*%
%ADD25C,2.400000*%
%ADD26R,1.600000X1.600000*%
%ADD27C,1.600000*%
%ADD28RoundRect,0.218750X-0.218750X-0.256250X0.218750X-0.256250X0.218750X0.256250X-0.218750X0.256250X0*%
%ADD29R,2.400000X2.400000*%
%ADD30RoundRect,0.200000X-0.200000X-0.275000X0.200000X-0.275000X0.200000X0.275000X-0.200000X0.275000X0*%
%ADD31RoundRect,0.200000X-0.275000X0.200000X-0.275000X-0.200000X0.275000X-0.200000X0.275000X0.200000X0*%
%ADD32R,3.400000X1.300000*%
%ADD33R,1.700000X1.700000*%
%ADD34C,1.700000*%
%ADD35C,2.000000*%
%ADD36RoundRect,0.218750X0.256250X-0.218750X0.256250X0.218750X-0.256250X0.218750X-0.256250X-0.218750X0*%
%ADD37RoundRect,0.150000X-0.662500X-0.150000X0.662500X-0.150000X0.662500X0.150000X-0.662500X0.150000X0*%
%ADD38RoundRect,0.218750X-0.256250X0.218750X-0.256250X-0.218750X0.256250X-0.218750X0.256250X0.218750X0*%
%ADD39RoundRect,0.150000X-0.150000X-0.625000X0.150000X-0.625000X0.150000X0.625000X-0.150000X0.625000X0*%
%ADD40RoundRect,0.250000X-0.350000X-0.650000X0.350000X-0.650000X0.350000X0.650000X-0.350000X0.650000X0*%
%ADD41RoundRect,0.249999X1.025001X-1.025001X1.025001X1.025001X-1.025001X1.025001X-1.025001X-1.025001X0*%
%ADD42C,2.550000*%
%ADD43C,2.004000*%
%ADD44C,1.371600*%
%ADD45RoundRect,0.102000X0.200000X-0.325000X0.200000X0.325000X-0.200000X0.325000X-0.200000X-0.325000X0*%
%ADD46RoundRect,0.102000X1.050000X-0.500000X1.050000X0.500000X-1.050000X0.500000X-1.050000X-0.500000X0*%
%ADD47R,0.599999X0.249999*%
%ADD48R,0.249999X0.599999*%
%ADD49R,0.249999X1.825000*%
G04 APERTURE END LIST*
D10*
%TO.C,T1*%
X147500000Y-87500000D03*
X147500000Y-92500000D03*
X147500000Y-97500000D03*
X147500000Y-102500000D03*
X147500000Y-107500000D03*
X147500000Y-112500000D03*
X172500000Y-112500000D03*
X172500000Y-107500000D03*
X172500000Y-102500000D03*
X172500000Y-97500000D03*
X172500000Y-92500000D03*
X172500000Y-87500000D03*
%TD*%
D11*
%TO.C,R13*%
X191000000Y-92825000D03*
X191000000Y-91175000D03*
%TD*%
D12*
%TO.C,RV1*%
X106750000Y-124500000D03*
X99250000Y-120500000D03*
%TD*%
D13*
%TO.C,J1*%
X108500000Y-100150000D03*
X108500000Y-113850000D03*
X108500000Y-107000000D03*
%TD*%
D14*
%TO.C,C22*%
X142725000Y-126500000D03*
X144275000Y-126500000D03*
%TD*%
%TO.C,C30*%
X139225000Y-108000000D03*
X140775000Y-108000000D03*
%TD*%
D15*
%TO.C,C27*%
X141000000Y-111950000D03*
X141000000Y-110050000D03*
%TD*%
D16*
%TO.C,C31*%
X138000000Y-105775000D03*
X138000000Y-104225000D03*
%TD*%
D15*
%TO.C,C28*%
X135000000Y-111950000D03*
X135000000Y-110050000D03*
%TD*%
D17*
%TO.C,R30*%
X150325000Y-125446104D03*
X148675000Y-125446104D03*
%TD*%
D18*
%TO.C,J3*%
X153000000Y-128040000D03*
X151984000Y-122960000D03*
X154016000Y-122960000D03*
D19*
X153635000Y-126770000D03*
X152365000Y-126770000D03*
X153635000Y-125500000D03*
X152365000Y-125500000D03*
X153635000Y-124230000D03*
X152365000Y-124230000D03*
%TD*%
D20*
%TO.C,C32*%
X141500000Y-117025000D03*
X141500000Y-119975000D03*
%TD*%
D21*
%TO.C,D7*%
X195787500Y-105000000D03*
X194212500Y-105000000D03*
%TD*%
D22*
%TO.C,C5*%
X147275000Y-125000000D03*
X145725000Y-125000000D03*
%TD*%
D23*
%TO.C,S1*%
X138050000Y-124425000D03*
X138050000Y-127575000D03*
X136350000Y-124425000D03*
X136350000Y-127575000D03*
D24*
X137200000Y-124275000D03*
X137200000Y-127725000D03*
%TD*%
D25*
%TO.C,C2*%
X139500000Y-89000000D03*
X124500000Y-89000000D03*
%TD*%
D14*
%TO.C,C24*%
X142725000Y-123500000D03*
X144275000Y-123500000D03*
%TD*%
D26*
%TO.C,C3*%
X140455113Y-98000000D03*
D27*
X138455113Y-98000000D03*
%TD*%
D28*
%TO.C,D6*%
X190212500Y-105000000D03*
X191787500Y-105000000D03*
%TD*%
D14*
%TO.C,C15*%
X142725000Y-128000000D03*
X144275000Y-128000000D03*
%TD*%
D29*
%TO.C,C11*%
X186323959Y-109000000D03*
D25*
X181323959Y-109000000D03*
%TD*%
D30*
%TO.C,R15*%
X148675000Y-122000000D03*
X150325000Y-122000000D03*
%TD*%
D17*
%TO.C,R39*%
X141325000Y-125000000D03*
X139675000Y-125000000D03*
%TD*%
D29*
%TO.C,C10*%
X186323959Y-91000000D03*
D25*
X181323959Y-91000000D03*
%TD*%
D16*
%TO.C,C25*%
X134200000Y-127275000D03*
X134200000Y-125725000D03*
%TD*%
D21*
%TO.C,D11*%
X195787500Y-95000000D03*
X194212500Y-95000000D03*
%TD*%
D31*
%TO.C,R9*%
X191000000Y-107175000D03*
X191000000Y-108825000D03*
%TD*%
D17*
%TO.C,R33*%
X138325000Y-123000000D03*
X136675000Y-123000000D03*
%TD*%
D32*
%TO.C,L2*%
X138000000Y-113950000D03*
X138000000Y-116050000D03*
%TD*%
D22*
%TO.C,C29*%
X137775000Y-108000000D03*
X136225000Y-108000000D03*
%TD*%
D17*
%TO.C,R40*%
X141325000Y-123500000D03*
X139675000Y-123500000D03*
%TD*%
D33*
%TO.C,J4*%
X120725000Y-128000000D03*
D34*
X123265000Y-128000000D03*
%TD*%
D20*
%TO.C,C33*%
X134500000Y-117025000D03*
X134500000Y-119975000D03*
%TD*%
D17*
%TO.C,R31*%
X150325000Y-126946104D03*
X148675000Y-126946104D03*
%TD*%
D35*
%TO.C,C1*%
X113500000Y-100000000D03*
X123500000Y-100000000D03*
%TD*%
D30*
%TO.C,R35*%
X139675000Y-128000000D03*
X141325000Y-128000000D03*
%TD*%
D22*
%TO.C,C17*%
X147275000Y-123500000D03*
X145725000Y-123500000D03*
%TD*%
D36*
%TO.C,D12*%
X193000000Y-108787500D03*
X193000000Y-107212500D03*
%TD*%
D37*
%TO.C,U6*%
X156625000Y-123365000D03*
X156625000Y-124635000D03*
X163000000Y-124635000D03*
X163000000Y-123365000D03*
%TD*%
D31*
%TO.C,R14*%
X195000000Y-91175000D03*
X195000000Y-92825000D03*
%TD*%
D22*
%TO.C,C16*%
X147275000Y-126500000D03*
X145725000Y-126500000D03*
%TD*%
D11*
%TO.C,R11*%
X195000000Y-108825000D03*
X195000000Y-107175000D03*
%TD*%
D15*
%TO.C,C34*%
X137000000Y-119950000D03*
X137000000Y-118050000D03*
%TD*%
D38*
%TO.C,D13*%
X193000000Y-91212500D03*
X193000000Y-92787500D03*
%TD*%
D28*
%TO.C,D10*%
X190212500Y-95000000D03*
X191787500Y-95000000D03*
%TD*%
D39*
%TO.C,J5*%
X128070000Y-124630000D03*
X129070000Y-124630000D03*
X130070000Y-124630000D03*
X131070000Y-124630000D03*
D40*
X126770000Y-128505000D03*
X132370000Y-128505000D03*
%TD*%
D37*
%TO.C,U5*%
X156625000Y-127365000D03*
X156625000Y-128635000D03*
X163000000Y-128635000D03*
X163000000Y-127365000D03*
%TD*%
D31*
%TO.C,R19*%
X136000000Y-104175000D03*
X136000000Y-105825000D03*
%TD*%
D17*
%TO.C,R34*%
X141325000Y-126500000D03*
X139675000Y-126500000D03*
%TD*%
D41*
%TO.C,J6*%
X198000000Y-102400000D03*
D42*
X198000000Y-97600000D03*
%TD*%
D43*
%TO.C,L1*%
X133500000Y-99500000D03*
X128500000Y-99500000D03*
%TD*%
D11*
%TO.C,R20*%
X140000000Y-105825000D03*
X140000000Y-104175000D03*
%TD*%
D44*
%TO.C,FL1*%
X128500000Y-118000000D03*
X116000000Y-118000000D03*
X116000000Y-108000000D03*
X128500000Y-108000000D03*
%TD*%
D45*
%TO.C,U4*%
X191000000Y-102075000D03*
X191800000Y-102075000D03*
X192600000Y-102075000D03*
X193400000Y-102075000D03*
X194200000Y-102075000D03*
X195000000Y-102075000D03*
X195000000Y-97925000D03*
X194200000Y-97925000D03*
X193400000Y-97925000D03*
X192600000Y-97925000D03*
X191800000Y-97925000D03*
X191000000Y-97925000D03*
D46*
X191825000Y-100750000D03*
X194175000Y-100750000D03*
X194175000Y-99250000D03*
X191825000Y-99250000D03*
%TD*%
D17*
%TO.C,R16*%
X150325000Y-123500000D03*
X148675000Y-123500000D03*
%TD*%
D47*
%TO.C,U3*%
X138900001Y-112124999D03*
X138900001Y-111475000D03*
X138900001Y-110824999D03*
X138900001Y-110325000D03*
D48*
X138499999Y-109600000D03*
X138000000Y-109600000D03*
X137500001Y-109600000D03*
D47*
X137099999Y-110325000D03*
X137099999Y-110824999D03*
X137099999Y-111475000D03*
X137099999Y-112124999D03*
D49*
X138000000Y-111787999D03*
%TD*%
D38*
%TO.C,D2*%
X139000000Y-118212500D03*
X139000000Y-119787500D03*
%TD*%
D14*
%TO.C,C12*%
X142725000Y-125000000D03*
X144275000Y-125000000D03*
%TD*%
D35*
%TO.C,C20*%
X155000000Y-119000000D03*
X165000000Y-119000000D03*
%TD*%
M02*
