%TF.GenerationSoftware,KiCad,Pcbnew,9.0.0-9.0.0-2~ubuntu24.04.1*%
%TF.CreationDate,2025-04-10T13:45:38-04:00*%
%TF.ProjectId,PSU,5053552e-6b69-4636-9164-5f7063625858,0*%
%TF.SameCoordinates,Original*%
%TF.FileFunction,Copper,L1,Top*%
%TF.FilePolarity,Positive*%
%FSLAX46Y46*%
G04 Gerber Fmt 4.6, Leading zero omitted, Abs format (unit mm)*
G04 Created by KiCad (PCBNEW 9.0.0-9.0.0-2~ubuntu24.04.1) date 2025-04-10 13:45:38*
%MOMM*%
%LPD*%
G01*
G04 APERTURE LIST*
G04 Aperture macros list*
%AMRoundRect*
0 Rectangle with rounded corners*
0 $1 Rounding radius*
0 $2 $3 $4 $5 $6 $7 $8 $9 X,Y pos of 4 corners*
0 Add a 4 corners polygon primitive as box body*
4,1,4,$2,$3,$4,$5,$6,$7,$8,$9,$2,$3,0*
0 Add four circle primitives for the rounded corners*
1,1,$1+$1,$2,$3*
1,1,$1+$1,$4,$5*
1,1,$1+$1,$6,$7*
1,1,$1+$1,$8,$9*
0 Add four rect primitives between the rounded corners*
20,1,$1+$1,$2,$3,$4,$5,0*
20,1,$1+$1,$4,$5,$6,$7,0*
20,1,$1+$1,$6,$7,$8,$9,0*
20,1,$1+$1,$8,$9,$2,$3,0*%
G04 Aperture macros list end*
%TA.AperFunction,ComponentPad*%
%ADD10R,2.400000X2.400000*%
%TD*%
%TA.AperFunction,ComponentPad*%
%ADD11C,2.400000*%
%TD*%
%TA.AperFunction,ComponentPad*%
%ADD12C,2.000000*%
%TD*%
%TA.AperFunction,SMDPad,CuDef*%
%ADD13RoundRect,0.150000X-0.150000X-0.625000X0.150000X-0.625000X0.150000X0.625000X-0.150000X0.625000X0*%
%TD*%
%TA.AperFunction,SMDPad,CuDef*%
%ADD14RoundRect,0.250000X-0.350000X-0.650000X0.350000X-0.650000X0.350000X0.650000X-0.350000X0.650000X0*%
%TD*%
%TA.AperFunction,ComponentPad*%
%ADD15R,1.700000X1.700000*%
%TD*%
%TA.AperFunction,ComponentPad*%
%ADD16C,1.700000*%
%TD*%
%TA.AperFunction,SMDPad,CuDef*%
%ADD17R,3.400000X1.300000*%
%TD*%
%TA.AperFunction,SMDPad,CuDef*%
%ADD18RoundRect,0.150000X-0.662500X-0.150000X0.662500X-0.150000X0.662500X0.150000X-0.662500X0.150000X0*%
%TD*%
%TA.AperFunction,ComponentPad*%
%ADD19C,1.371600*%
%TD*%
%TA.AperFunction,SMDPad,CuDef*%
%ADD20RoundRect,0.250000X0.475000X-0.250000X0.475000X0.250000X-0.475000X0.250000X-0.475000X-0.250000X0*%
%TD*%
%TA.AperFunction,SMDPad,CuDef*%
%ADD21RoundRect,0.200000X-0.200000X-0.275000X0.200000X-0.275000X0.200000X0.275000X-0.200000X0.275000X0*%
%TD*%
%TA.AperFunction,SMDPad,CuDef*%
%ADD22RoundRect,0.200000X0.200000X0.275000X-0.200000X0.275000X-0.200000X-0.275000X0.200000X-0.275000X0*%
%TD*%
%TA.AperFunction,SMDPad,CuDef*%
%ADD23RoundRect,0.225000X-0.225000X-0.250000X0.225000X-0.250000X0.225000X0.250000X-0.225000X0.250000X0*%
%TD*%
%TA.AperFunction,ComponentPad*%
%ADD24C,1.800000*%
%TD*%
%TA.AperFunction,SMDPad,CuDef*%
%ADD25RoundRect,0.225000X0.225000X0.250000X-0.225000X0.250000X-0.225000X-0.250000X0.225000X-0.250000X0*%
%TD*%
%TA.AperFunction,SMDPad,CuDef*%
%ADD26RoundRect,0.200000X-0.275000X0.200000X-0.275000X-0.200000X0.275000X-0.200000X0.275000X0.200000X0*%
%TD*%
%TA.AperFunction,SMDPad,CuDef*%
%ADD27RoundRect,0.225000X0.250000X-0.225000X0.250000X0.225000X-0.250000X0.225000X-0.250000X-0.225000X0*%
%TD*%
%TA.AperFunction,SMDPad,CuDef*%
%ADD28RoundRect,0.250000X-0.650000X0.325000X-0.650000X-0.325000X0.650000X-0.325000X0.650000X0.325000X0*%
%TD*%
%TA.AperFunction,SMDPad,CuDef*%
%ADD29R,0.600000X0.650000*%
%TD*%
%TA.AperFunction,SMDPad,CuDef*%
%ADD30R,0.700000X0.350000*%
%TD*%
%TA.AperFunction,ComponentPad*%
%ADD31C,6.400000*%
%TD*%
%TA.AperFunction,ComponentPad*%
%ADD32R,1.600000X1.600000*%
%TD*%
%TA.AperFunction,ComponentPad*%
%ADD33C,1.600000*%
%TD*%
%TA.AperFunction,SMDPad,CuDef*%
%ADD34R,0.599999X0.249999*%
%TD*%
%TA.AperFunction,SMDPad,CuDef*%
%ADD35R,0.249999X0.599999*%
%TD*%
%TA.AperFunction,SMDPad,CuDef*%
%ADD36R,0.249999X1.825000*%
%TD*%
%TA.AperFunction,ConnectorPad*%
%ADD37C,0.787400*%
%TD*%
%TA.AperFunction,ComponentPad*%
%ADD38C,3.000000*%
%TD*%
%TA.AperFunction,SMDPad,CuDef*%
%ADD39RoundRect,0.218750X-0.256250X0.218750X-0.256250X-0.218750X0.256250X-0.218750X0.256250X0.218750X0*%
%TD*%
%TA.AperFunction,SMDPad,CuDef*%
%ADD40RoundRect,0.200000X0.275000X-0.200000X0.275000X0.200000X-0.275000X0.200000X-0.275000X-0.200000X0*%
%TD*%
%TA.AperFunction,ComponentPad*%
%ADD41C,1.905000*%
%TD*%
%TA.AperFunction,ComponentPad*%
%ADD42R,1.800000X1.800000*%
%TD*%
%TA.AperFunction,ViaPad*%
%ADD43C,0.600000*%
%TD*%
%TA.AperFunction,ViaPad*%
%ADD44C,0.508000*%
%TD*%
%TA.AperFunction,Conductor*%
%ADD45C,2.000000*%
%TD*%
%TA.AperFunction,Conductor*%
%ADD46C,0.152400*%
%TD*%
%TA.AperFunction,Conductor*%
%ADD47C,0.500000*%
%TD*%
%TA.AperFunction,Conductor*%
%ADD48C,0.200000*%
%TD*%
G04 APERTURE END LIST*
D10*
%TO.P,C11,1*%
%TO.N,/DC+*%
X185500000Y-109000000D03*
D11*
%TO.P,C11,2*%
%TO.N,/DC-*%
X180500000Y-109000000D03*
%TD*%
D12*
%TO.P,C1,1*%
%TO.N,/LED_Driver_AC-DC/AC_EMI+*%
X113500000Y-100000000D03*
%TO.P,C1,2*%
%TO.N,/LED_Driver_AC-DC/AC_EMI-*%
X123500000Y-100000000D03*
%TD*%
D13*
%TO.P,J5,1,Pin_1*%
%TO.N,GND*%
X128070000Y-124630000D03*
%TO.P,J5,2,Pin_2*%
%TO.N,+3V3*%
X129070000Y-124630000D03*
%TO.P,J5,3,Pin_3*%
%TO.N,/Microcontroller/SDA*%
X130070000Y-124630000D03*
%TO.P,J5,4,Pin_4*%
%TO.N,/Microcontroller/SCL*%
X131070000Y-124630000D03*
D14*
%TO.P,J5,MP,MountPin*%
%TO.N,GND*%
X126770000Y-128505000D03*
X132370000Y-128505000D03*
%TD*%
D15*
%TO.P,J4,1,Pin_1*%
%TO.N,/Microcontroller/TEMP_SENSE*%
X120725000Y-128000000D03*
D16*
%TO.P,J4,2,Pin_2*%
%TO.N,GND*%
X123265000Y-128000000D03*
%TD*%
D17*
%TO.P,L2,1,1*%
%TO.N,/LED_Driver_AC-DC/SW*%
X138000000Y-113950000D03*
%TO.P,L2,2,2*%
%TO.N,+3V3*%
X138000000Y-116050000D03*
%TD*%
D18*
%TO.P,U5,1*%
%TO.N,Net-(R15-Pad2)*%
X156625000Y-123365000D03*
%TO.P,U5,2*%
%TO.N,GND*%
X156625000Y-124635000D03*
%TO.P,U5,3*%
%TO.N,/DC-*%
X163000000Y-124635000D03*
%TO.P,U5,4*%
%TO.N,Net-(D6-K)*%
X163000000Y-123365000D03*
%TD*%
D19*
%TO.P,FL1,1,1*%
%TO.N,/AC-*%
X128500000Y-118000000D03*
%TO.P,FL1,2,2*%
%TO.N,/AC+*%
X116000000Y-118000000D03*
%TO.P,FL1,3,3*%
%TO.N,/LED_Driver_AC-DC/AC_EMI+*%
X116000000Y-108000000D03*
%TO.P,FL1,4,4*%
%TO.N,/LED_Driver_AC-DC/AC_EMI-*%
X128500000Y-108000000D03*
%TD*%
D20*
%TO.P,C27,1*%
%TO.N,GNDPWR*%
X141000000Y-111950000D03*
%TO.P,C27,2*%
%TO.N,/LED_Driver_AC-DC/VIN*%
X141000000Y-110050000D03*
%TD*%
D10*
%TO.P,C10,1*%
%TO.N,/DC+*%
X185500000Y-91000000D03*
D11*
%TO.P,C10,2*%
%TO.N,/DC-*%
X180500000Y-91000000D03*
%TD*%
D21*
%TO.P,R35,1*%
%TO.N,/Microcontroller/USB_DM*%
X139675000Y-128000000D03*
%TO.P,R35,2*%
%TO.N,/Microcontroller/USB_DM_in*%
X141325000Y-128000000D03*
%TD*%
D11*
%TO.P,T1,1*%
%TO.N,/LED_Driver_AC-DC/VHV*%
X147500000Y-87500000D03*
%TO.P,T1,2*%
%TO.N,/LED_Driver_AC-DC/PRIMARY_TIE*%
X147500000Y-92500000D03*
%TO.P,T1,3*%
X147500000Y-97500000D03*
%TO.P,T1,4*%
%TO.N,/LED_Driver_AC-DC/DRAIN*%
X147500000Y-102500000D03*
%TO.P,T1,5*%
%TO.N,Net-(C21-Pad2)*%
X147500000Y-107500000D03*
%TO.P,T1,6*%
%TO.N,GNDPWR*%
X147500000Y-112500000D03*
%TO.P,T1,7*%
%TO.N,N/C*%
X172500000Y-112500000D03*
%TO.P,T1,8*%
%TO.N,/DC-*%
X172500000Y-107500000D03*
%TO.P,T1,9*%
%TO.N,Net-(T1-Pad10)*%
X172500000Y-102500000D03*
%TO.P,T1,10*%
X172500000Y-97500000D03*
%TO.P,T1,11*%
%TO.N,Net-(C4-Pad1)*%
X172500000Y-92500000D03*
%TO.P,T1,12*%
%TO.N,N/C*%
X172500000Y-87500000D03*
%TD*%
D22*
%TO.P,R31,1*%
%TO.N,/Microcontroller/SWDIO_in*%
X150325000Y-126946104D03*
%TO.P,R31,2*%
%TO.N,/Microcontroller/SWDIO*%
X148675000Y-126946104D03*
%TD*%
%TO.P,R40,1*%
%TO.N,+3V3*%
X141325000Y-123500000D03*
%TO.P,R40,2*%
%TO.N,/Microcontroller/SCL*%
X139675000Y-123500000D03*
%TD*%
D23*
%TO.P,C15,1*%
%TO.N,+3V3*%
X142725000Y-128000000D03*
%TO.P,C15,2*%
%TO.N,GND*%
X144275000Y-128000000D03*
%TD*%
D24*
%TO.P,RV1,1*%
%TO.N,/AC+*%
X106750000Y-124500000D03*
%TO.P,RV1,2*%
%TO.N,/AC-*%
X99250000Y-120500000D03*
%TD*%
D25*
%TO.P,C5,1*%
%TO.N,+1V1*%
X147275000Y-125000000D03*
%TO.P,C5,2*%
%TO.N,GND*%
X145725000Y-125000000D03*
%TD*%
%TO.P,C16,1*%
%TO.N,+3V3*%
X147275000Y-126500000D03*
%TO.P,C16,2*%
%TO.N,GND*%
X145725000Y-126500000D03*
%TD*%
D22*
%TO.P,R39,1*%
%TO.N,+3V3*%
X141325000Y-125000000D03*
%TO.P,R39,2*%
%TO.N,/Microcontroller/SDA*%
X139675000Y-125000000D03*
%TD*%
D26*
%TO.P,R19,1*%
%TO.N,+3V3*%
X136000000Y-104175000D03*
%TO.P,R19,2*%
%TO.N,/LED_Driver_AC-DC/3V3_FB*%
X136000000Y-105825000D03*
%TD*%
D12*
%TO.P,C20,1*%
%TO.N,GNDPWR*%
X155000000Y-119000000D03*
%TO.P,C20,2*%
%TO.N,/DC-*%
X165000000Y-119000000D03*
%TD*%
D25*
%TO.P,C17,1*%
%TO.N,+3V3*%
X147275000Y-123500000D03*
%TO.P,C17,2*%
%TO.N,GND*%
X145725000Y-123500000D03*
%TD*%
D27*
%TO.P,C25,1*%
%TO.N,+3V3*%
X134200000Y-127275000D03*
%TO.P,C25,2*%
%TO.N,GND*%
X134200000Y-125725000D03*
%TD*%
D28*
%TO.P,C32,1*%
%TO.N,+3V3*%
X141500000Y-117025000D03*
%TO.P,C32,2*%
%TO.N,GNDPWR*%
X141500000Y-119975000D03*
%TD*%
D24*
%TO.P,L1,1*%
%TO.N,/LED_Driver_AC-DC/AC_Filter+*%
X133500000Y-99500000D03*
%TO.P,L1,2*%
%TO.N,/LED_Driver_AC-DC/AC_EMI+*%
X128500000Y-99500000D03*
%TD*%
D20*
%TO.P,C28,1*%
%TO.N,GNDPWR*%
X135000000Y-111950000D03*
%TO.P,C28,2*%
%TO.N,/LED_Driver_AC-DC/VIN*%
X135000000Y-110050000D03*
%TD*%
D21*
%TO.P,R15,1*%
%TO.N,/DIR_A*%
X148675000Y-122000000D03*
%TO.P,R15,2*%
%TO.N,Net-(R15-Pad2)*%
X150325000Y-122000000D03*
%TD*%
D29*
%TO.P,S1,1*%
%TO.N,Net-(R33-Pad1)*%
X138050000Y-124425000D03*
%TO.P,S1,2*%
X138050000Y-127575000D03*
%TO.P,S1,3*%
%TO.N,GND*%
X136350000Y-124425000D03*
%TO.P,S1,4*%
X136350000Y-127575000D03*
D30*
%TO.P,S1,5*%
X137200000Y-124275000D03*
%TO.P,S1,6*%
X137200000Y-127725000D03*
%TD*%
D23*
%TO.P,C24,1*%
%TO.N,+3V3*%
X142725000Y-123500000D03*
%TO.P,C24,2*%
%TO.N,GND*%
X144275000Y-123500000D03*
%TD*%
D22*
%TO.P,R34,1*%
%TO.N,/Microcontroller/USB_DP_in*%
X141325000Y-126500000D03*
%TO.P,R34,2*%
%TO.N,/Microcontroller/USB_DP*%
X139675000Y-126500000D03*
%TD*%
D27*
%TO.P,C31,1*%
%TO.N,/LED_Driver_AC-DC/3V3_FB*%
X138000000Y-105775000D03*
%TO.P,C31,2*%
%TO.N,GNDPWR*%
X138000000Y-104225000D03*
%TD*%
D23*
%TO.P,C12,1*%
%TO.N,+1V1*%
X142725000Y-125000000D03*
%TO.P,C12,2*%
%TO.N,GND*%
X144275000Y-125000000D03*
%TD*%
%TO.P,C30,1*%
%TO.N,/LED_Driver_AC-DC/BST*%
X139225000Y-108000000D03*
%TO.P,C30,2*%
%TO.N,/LED_Driver_AC-DC/SW*%
X140775000Y-108000000D03*
%TD*%
D31*
%TO.P,H1,1,1*%
%TO.N,GNDPWR*%
X105000000Y-90000000D03*
%TD*%
D22*
%TO.P,R30,1*%
%TO.N,/Microcontroller/SWCLK_in*%
X150325000Y-125446104D03*
%TO.P,R30,2*%
%TO.N,/Microcontroller/SWCLK*%
X148675000Y-125446104D03*
%TD*%
D32*
%TO.P,C3,1*%
%TO.N,/LED_Driver_AC-DC/VIN*%
X140455113Y-98000000D03*
D33*
%TO.P,C3,2*%
%TO.N,GNDPWR*%
X138455113Y-98000000D03*
%TD*%
D22*
%TO.P,R16,1*%
%TO.N,Net-(R16-Pad1)*%
X150325000Y-123500000D03*
%TO.P,R16,2*%
%TO.N,/DIR_B*%
X148675000Y-123500000D03*
%TD*%
D34*
%TO.P,U3,1,PGND*%
%TO.N,GNDPWR*%
X138900001Y-112124999D03*
%TO.P,U3,2,VIN*%
%TO.N,/LED_Driver_AC-DC/VIN*%
X138900001Y-111475000D03*
%TO.P,U3,3,NC*%
%TO.N,/LED_Driver_AC-DC/SW*%
X138900001Y-110824999D03*
%TO.P,U3,4,BST*%
%TO.N,/LED_Driver_AC-DC/BST*%
X138900001Y-110325000D03*
D35*
%TO.P,U3,5,VCC*%
%TO.N,/LED_Driver_AC-DC/VCC*%
X138499999Y-109600000D03*
%TO.P,U3,6,AGND*%
%TO.N,GNDPWR*%
X138000000Y-109600000D03*
%TO.P,U3,7,FB*%
%TO.N,/LED_Driver_AC-DC/3V3_FB*%
X137500001Y-109600000D03*
D34*
%TO.P,U3,8,PG*%
%TO.N,/LED_Driver_AC-DC/CTRL2*%
X137099999Y-110325000D03*
%TO.P,U3,9,EN*%
%TO.N,/LED_Driver_AC-DC/VIN*%
X137099999Y-110824999D03*
%TO.P,U3,10,VIN*%
X137099999Y-111475000D03*
%TO.P,U3,11,PGND*%
%TO.N,GNDPWR*%
X137099999Y-112124999D03*
D36*
%TO.P,U3,12,SW*%
%TO.N,/LED_Driver_AC-DC/SW*%
X138000000Y-111787999D03*
%TD*%
D37*
%TO.P,J3,1,VCC*%
%TO.N,+3V3*%
X153635000Y-126770000D03*
%TO.P,J3,2,SWDIO*%
%TO.N,/Microcontroller/SWDIO_in*%
X152365000Y-126770000D03*
%TO.P,J3,3,~{RESET}*%
%TO.N,unconnected-(J3-~{RESET}-Pad3)*%
X153635000Y-125500000D03*
%TO.P,J3,4,SWCLK*%
%TO.N,/Microcontroller/SWCLK_in*%
X152365000Y-125500000D03*
%TO.P,J3,5,GND*%
%TO.N,GND*%
X153635000Y-124230000D03*
%TO.P,J3,6,SWO*%
%TO.N,unconnected-(J3-SWO-Pad6)*%
X152365000Y-124230000D03*
%TD*%
D11*
%TO.P,C2,1*%
%TO.N,/LED_Driver_AC-DC/VHV*%
X139500000Y-89000000D03*
%TO.P,C2,2*%
%TO.N,GNDPWR*%
X124500000Y-89000000D03*
%TD*%
D25*
%TO.P,C29,1*%
%TO.N,/LED_Driver_AC-DC/VCC*%
X137775000Y-108000000D03*
%TO.P,C29,2*%
%TO.N,GNDPWR*%
X136225000Y-108000000D03*
%TD*%
D38*
%TO.P,J1,1,L*%
%TO.N,/AC_Input/AC+_in*%
X108500000Y-100150000D03*
%TO.P,J1,2,N*%
%TO.N,/AC-*%
X108500000Y-113850000D03*
%TO.P,J1,3,PE*%
%TO.N,GNDPWR*%
X108500000Y-107000000D03*
%TD*%
D20*
%TO.P,C34,1*%
%TO.N,GNDPWR*%
X137000000Y-119950000D03*
%TO.P,C34,2*%
%TO.N,+3V3*%
X137000000Y-118050000D03*
%TD*%
D18*
%TO.P,U6,1*%
%TO.N,Net-(R16-Pad1)*%
X156625000Y-127365000D03*
%TO.P,U6,2*%
%TO.N,GND*%
X156625000Y-128635000D03*
%TO.P,U6,3*%
%TO.N,/DC-*%
X163000000Y-128635000D03*
%TO.P,U6,4*%
%TO.N,Net-(D10-K)*%
X163000000Y-127365000D03*
%TD*%
D39*
%TO.P,D2,1,K*%
%TO.N,+3V3*%
X139000000Y-118212500D03*
%TO.P,D2,2,A*%
%TO.N,GNDPWR*%
X139000000Y-119787500D03*
%TD*%
D22*
%TO.P,R33,1*%
%TO.N,Net-(R33-Pad1)*%
X138325000Y-123000000D03*
%TO.P,R33,2*%
%TO.N,/Microcontroller/QSPI_~{CS}*%
X136675000Y-123000000D03*
%TD*%
D23*
%TO.P,C22,1*%
%TO.N,+3V3*%
X142725000Y-126500000D03*
%TO.P,C22,2*%
%TO.N,GND*%
X144275000Y-126500000D03*
%TD*%
D28*
%TO.P,C33,1*%
%TO.N,+3V3*%
X134500000Y-117025000D03*
%TO.P,C33,2*%
%TO.N,GNDPWR*%
X134500000Y-119975000D03*
%TD*%
D40*
%TO.P,R20,1*%
%TO.N,/LED_Driver_AC-DC/3V3_FB*%
X140000000Y-105825000D03*
%TO.P,R20,2*%
%TO.N,GNDPWR*%
X140000000Y-104175000D03*
%TD*%
D41*
%TO.P,J8,1,Pin_1*%
%TO.N,/AC+*%
X117500000Y-92540000D03*
X117500000Y-87460000D03*
%TD*%
D42*
%TO.P,J6,1,1.1*%
%TO.N,/LED_A*%
X193575000Y-99350000D03*
D24*
%TO.P,J6,2,1.2*%
X193575000Y-104350000D03*
%TO.P,J6,3,2.1*%
%TO.N,/LED_B*%
X197075000Y-99350000D03*
%TO.P,J6,4,2.2*%
X197075000Y-104350000D03*
%TD*%
D41*
%TO.P,J7,1,Pin_1*%
%TO.N,/AC_Input/AC+_in*%
X112500000Y-92540000D03*
X112500000Y-87460000D03*
%TD*%
D43*
%TO.N,GND*%
X127000000Y-125000000D03*
X145000000Y-123500000D03*
D44*
%TO.N,/DC+*%
X185000000Y-115000000D03*
D43*
%TO.N,GND*%
X136000000Y-124500000D03*
%TO.N,/DC+*%
X186500000Y-95000000D03*
%TO.N,/DC-*%
X181500000Y-95000000D03*
%TO.N,GND*%
X146000000Y-129000000D03*
%TO.N,/DC+*%
X185500000Y-101500000D03*
X188000000Y-99500000D03*
%TO.N,/DC-*%
X182500000Y-96500000D03*
X181000000Y-97500000D03*
%TO.N,/DC+*%
X185500000Y-104500000D03*
X185500000Y-100500000D03*
%TO.N,/DC-*%
X181500000Y-103000000D03*
X180000000Y-98500000D03*
X182500000Y-100500000D03*
%TO.N,/DC+*%
X185500000Y-97500000D03*
%TO.N,/DC-*%
X180000000Y-99500000D03*
%TO.N,Net-(D10-K)*%
X191000000Y-119000000D03*
%TO.N,/DC+*%
X186500000Y-103000000D03*
%TO.N,GND*%
X126000000Y-126000000D03*
%TO.N,Net-(D6-K)*%
X184000000Y-119000000D03*
%TO.N,/Microcontroller/USB_DM_in*%
X133225000Y-127294589D03*
%TO.N,/Microcontroller/USB_DP_in*%
X133876200Y-128723800D03*
%TO.N,/Microcontroller/SWCLK*%
X149325096Y-125472184D03*
%TO.N,/Microcontroller/SWDIO*%
X149367694Y-126440091D03*
%TO.N,/Microcontroller/USB_DM*%
X139911800Y-128000000D03*
%TO.N,/Microcontroller/USB_DP*%
X139911800Y-126500000D03*
%TO.N,/Microcontroller/SDA*%
X142827600Y-122308200D03*
%TO.N,/Microcontroller/SCL*%
X143893388Y-122219200D03*
%TO.N,/Microcontroller/QSPI_~{CS}*%
X135500000Y-123500000D03*
%TO.N,+1V1*%
X142725000Y-125000000D03*
X147275000Y-125000000D03*
D44*
%TO.N,GNDPWR*%
X153700000Y-114600000D03*
X145000000Y-105000000D03*
D43*
X95000000Y-95000000D03*
D44*
X133800000Y-112000000D03*
D43*
X105000000Y-95000000D03*
D44*
X145000000Y-106000000D03*
D43*
X120000000Y-90000000D03*
D44*
X144000000Y-101000000D03*
X144500000Y-105500000D03*
D43*
X105000000Y-105000000D03*
D44*
X152300000Y-112500000D03*
D43*
X120000000Y-120000000D03*
D44*
X143300000Y-114500000D03*
D43*
X152500000Y-120000000D03*
D44*
X145500000Y-105500000D03*
D43*
X95000000Y-105000000D03*
D44*
X137000000Y-107000000D03*
X143300000Y-115900000D03*
X136000000Y-107000000D03*
X152300000Y-114600000D03*
D43*
X110000000Y-110000000D03*
D44*
X143500000Y-100500000D03*
X151600000Y-112500000D03*
X153700000Y-112500000D03*
X144500000Y-101481651D03*
X144500000Y-103500000D03*
X143000000Y-99950000D03*
X145000000Y-104000000D03*
D43*
X95000000Y-125000000D03*
D44*
X151600000Y-113200000D03*
D43*
X100000000Y-110000000D03*
D44*
X154400000Y-113900000D03*
X145000000Y-103000000D03*
D43*
X152500000Y-118000000D03*
D44*
X141000000Y-113765300D03*
X154400000Y-112500000D03*
D43*
X125000000Y-85000000D03*
D44*
X154400000Y-113200000D03*
D43*
X110000000Y-90000000D03*
X95000000Y-115000000D03*
X95000000Y-85000000D03*
D44*
X144000000Y-100000000D03*
D43*
X100000000Y-100000000D03*
X153500000Y-119000000D03*
D44*
X133800000Y-112700000D03*
X153000000Y-112500000D03*
X151600000Y-114600000D03*
X133800000Y-111300000D03*
X144500000Y-102500000D03*
D43*
X115000000Y-85000000D03*
D44*
X145000000Y-101000000D03*
D43*
X100000000Y-90000000D03*
D44*
X146000000Y-106000000D03*
X145000000Y-100000000D03*
X145000000Y-102000000D03*
X151600000Y-113900000D03*
X144500000Y-104500000D03*
X154400000Y-114600000D03*
X153000000Y-114600000D03*
X143000000Y-101000000D03*
X140800000Y-109000000D03*
D43*
X105000000Y-85000000D03*
%TO.N,/DIR_B*%
X145726047Y-122219200D03*
%TO.N,/DIR_A*%
X144705757Y-122219200D03*
D44*
%TO.N,/DC-*%
X184000000Y-118200000D03*
X192000000Y-118200000D03*
X185000000Y-118200000D03*
X181000000Y-118000000D03*
X191000000Y-118200000D03*
%TO.N,/DC+*%
X192000000Y-115000000D03*
X191000000Y-115000000D03*
X184000000Y-115000000D03*
D43*
%TO.N,+3V3*%
X142725000Y-123500000D03*
X137000000Y-118997600D03*
X130060424Y-123402600D03*
X142177029Y-128540238D03*
X142400000Y-126900000D03*
X134626572Y-128446410D03*
X147275000Y-123500000D03*
D44*
%TO.N,GNDPWR*%
X144500000Y-99500000D03*
X140300000Y-113765300D03*
X142500000Y-100500000D03*
X144500000Y-100500000D03*
X138000000Y-109000000D03*
X143300000Y-115200000D03*
X138000000Y-107000000D03*
X145500000Y-106500000D03*
D43*
%TO.N,/LED_Driver_AC-DC/CTRL2*%
X136725000Y-109802936D03*
D44*
%TO.N,/LED_Driver_AC-DC/VINSENSE*%
X144000000Y-113804950D03*
X141000000Y-96000000D03*
X141000000Y-102000000D03*
D43*
%TO.N,+3V3*%
X142595529Y-118652025D03*
X140575000Y-124913547D03*
X147275000Y-126900000D03*
D44*
%TO.N,/LED_Driver_AC-DC/VIN*%
X142964760Y-108909939D03*
D43*
%TO.N,GND*%
X130000000Y-128000000D03*
X132000000Y-124000000D03*
X151000000Y-129000000D03*
X145000000Y-129000000D03*
X137000000Y-124500000D03*
X149500000Y-119000000D03*
X148500000Y-121000000D03*
X145000000Y-125500000D03*
X129000000Y-127000000D03*
X133000000Y-124000000D03*
X145000000Y-124500000D03*
X149000000Y-129000000D03*
X136000000Y-125500000D03*
X153000000Y-123498836D03*
X144000000Y-125500000D03*
X144000000Y-123500000D03*
X139400000Y-122400000D03*
X133000000Y-123000000D03*
X150000000Y-129000000D03*
X147000000Y-129000000D03*
X150500000Y-118000000D03*
X146000000Y-125500000D03*
X137000000Y-125500000D03*
X146000000Y-123500000D03*
X148000000Y-129000000D03*
X154605700Y-124598838D03*
X130000000Y-127000000D03*
X150500000Y-120000000D03*
X134000000Y-124000000D03*
X144000000Y-124500000D03*
X133300000Y-125700000D03*
%TO.N,/DC+*%
X177000000Y-85500000D03*
X185500000Y-93500000D03*
%TO.N,GND*%
X146000000Y-124500000D03*
%TO.N,/DC+*%
X177000000Y-87000000D03*
%TO.N,/DC-*%
X181000000Y-100500000D03*
X182500000Y-104500000D03*
%TO.N,/DC+*%
X178500000Y-85500000D03*
X188000000Y-98500000D03*
X178500000Y-87000000D03*
X175500000Y-87000000D03*
X187000000Y-100500000D03*
X175500000Y-85500000D03*
%TO.N,/DC-*%
X182500000Y-101500000D03*
X182500000Y-93500000D03*
%TO.N,/DC+*%
X187000000Y-97500000D03*
%TO.N,/DC-*%
X182500000Y-97500000D03*
%TO.N,/DC+*%
X185500000Y-96500000D03*
%TD*%
D45*
%TO.N,/AC+*%
X117500000Y-87460000D02*
X117500000Y-92540000D01*
X117500000Y-98000000D02*
X119500000Y-100000000D01*
D46*
%TO.N,+3V3*%
X148000000Y-124225000D02*
X147275000Y-123500000D01*
D45*
%TO.N,/AC+*%
X119500000Y-114500000D02*
X116000000Y-118000000D01*
D46*
%TO.N,Net-(R15-Pad2)*%
X154483358Y-121831700D02*
X150493300Y-121831700D01*
%TO.N,+3V3*%
X148000000Y-124500000D02*
X148000000Y-125775000D01*
%TO.N,Net-(R15-Pad2)*%
X150493300Y-121831700D02*
X150325000Y-122000000D01*
X156625000Y-123365000D02*
X156016658Y-123365000D01*
%TO.N,GND*%
X133300000Y-125700000D02*
X133325000Y-125725000D01*
%TO.N,Net-(R15-Pad2)*%
X156016658Y-123365000D02*
X154483358Y-121831700D01*
D45*
%TO.N,/AC+*%
X116000000Y-118000000D02*
X109500000Y-124500000D01*
D47*
%TO.N,Net-(D10-K)*%
X185000000Y-119000000D02*
X191000000Y-119000000D01*
D45*
%TO.N,/AC+*%
X119500000Y-100000000D02*
X119500000Y-114500000D01*
D46*
%TO.N,+3V3*%
X148000000Y-124500000D02*
X148000000Y-124225000D01*
X150466984Y-124500000D02*
X148000000Y-124500000D01*
D45*
%TO.N,/AC+*%
X117500000Y-92540000D02*
X117500000Y-98000000D01*
D46*
%TO.N,Net-(R16-Pad1)*%
X154356691Y-122137500D02*
X151643309Y-122137500D01*
%TO.N,/Microcontroller/USB_DM_in*%
X133247200Y-127316789D02*
X133247200Y-128911085D01*
X133247200Y-128911085D02*
X133758915Y-129422800D01*
X139907388Y-129422800D02*
X141325000Y-128005188D01*
X133758915Y-129422800D02*
X139907388Y-129422800D01*
X133225000Y-127294589D02*
X133247200Y-127316789D01*
X141325000Y-128005188D02*
X141325000Y-128000000D01*
%TO.N,/Microcontroller/USB_DP_in*%
X133923800Y-128723800D02*
X134269400Y-129069400D01*
X140489000Y-128341404D02*
X140489000Y-127336000D01*
X134269400Y-129069400D02*
X139761004Y-129069400D01*
X140489000Y-127336000D02*
X141325000Y-126500000D01*
X139761004Y-129069400D02*
X140489000Y-128341404D01*
X133876200Y-128723800D02*
X133923800Y-128723800D01*
%TO.N,Net-(R33-Pad1)*%
X138050000Y-124425000D02*
X138050000Y-127575000D01*
X138325000Y-124150000D02*
X138050000Y-124425000D01*
X138325000Y-123000000D02*
X138325000Y-124150000D01*
%TO.N,/Microcontroller/SWCLK*%
X148675000Y-125446104D02*
X149299016Y-125446104D01*
X149299016Y-125446104D02*
X149325096Y-125472184D01*
%TO.N,/Microcontroller/SWDIO*%
X148675000Y-126500000D02*
X148675000Y-126946104D01*
X149367694Y-126440091D02*
X148734909Y-126440091D01*
X148734909Y-126440091D02*
X148675000Y-126500000D01*
%TO.N,/Microcontroller/SDA*%
X134904600Y-127975470D02*
X134904600Y-125305464D01*
X135597530Y-128668400D02*
X134904600Y-127975470D01*
X140304600Y-123432312D02*
X140304600Y-124370400D01*
X132221915Y-125045400D02*
X131519715Y-125747600D01*
X139675000Y-125000000D02*
X138950200Y-125724800D01*
X134904600Y-125305464D02*
X134644536Y-125045400D01*
X138950200Y-128182267D02*
X138464067Y-128668400D01*
X134644536Y-125045400D02*
X132221915Y-125045400D01*
X138950200Y-125724800D02*
X138950200Y-128182267D01*
X138464067Y-128668400D02*
X135597530Y-128668400D01*
X142827600Y-122308200D02*
X141428712Y-122308200D01*
X131519715Y-125747600D02*
X130427882Y-125747600D01*
X141428712Y-122308200D02*
X140304600Y-123432312D01*
X140304600Y-124370400D02*
X139675000Y-125000000D01*
X130427882Y-125747600D02*
X130070000Y-125389718D01*
X130070000Y-125389718D02*
X130070000Y-124630000D01*
%TO.N,/Microcontroller/SCL*%
X139675000Y-123500000D02*
X141395400Y-121779600D01*
X138644400Y-124530600D02*
X139675000Y-123500000D01*
X143893388Y-122219200D02*
X143684043Y-122219200D01*
X138337400Y-128362600D02*
X138644400Y-128055600D01*
X141395400Y-121779600D02*
X143244443Y-121779600D01*
X134796237Y-124630000D02*
X135400000Y-125233763D01*
X131070000Y-124630000D02*
X134796237Y-124630000D01*
X135862600Y-128362600D02*
X138337400Y-128362600D01*
X135400000Y-127900000D02*
X135862600Y-128362600D01*
X135400000Y-125233763D02*
X135400000Y-127900000D01*
X138644400Y-128055600D02*
X138644400Y-124530600D01*
X143684043Y-122219200D02*
X143244443Y-121779600D01*
%TO.N,/Microcontroller/SWCLK_in*%
X152365000Y-125500000D02*
X150825000Y-125500000D01*
X150825000Y-125500000D02*
X150771104Y-125446104D01*
X150771104Y-125446104D02*
X150325000Y-125446104D01*
%TO.N,/Microcontroller/SWDIO_in*%
X152365000Y-126770000D02*
X150595000Y-126770000D01*
X150595000Y-126770000D02*
X150418896Y-126946104D01*
X150418896Y-126946104D02*
X150325000Y-126946104D01*
%TO.N,/Microcontroller/QSPI_~{CS}*%
X136175000Y-123500000D02*
X135500000Y-123500000D01*
X136675000Y-123000000D02*
X136175000Y-123500000D01*
D48*
%TO.N,GNDPWR*%
X135000000Y-111950000D02*
X135000000Y-112154000D01*
D45*
X129455113Y-89000000D02*
X138455113Y-98000000D01*
X124500000Y-89000000D02*
X129455113Y-89000000D01*
D48*
X138000000Y-109600000D02*
X138000000Y-109000000D01*
%TO.N,/LED_Driver_AC-DC/SW*%
X139427000Y-110824999D02*
X139974000Y-110277999D01*
X138900001Y-110824999D02*
X138000000Y-110824999D01*
X138000000Y-113950000D02*
X138000000Y-111787999D01*
X138000000Y-110824999D02*
X138000000Y-111787999D01*
X138900001Y-110824999D02*
X139427000Y-110824999D01*
X139974000Y-108801000D02*
X140775000Y-108000000D01*
X139974000Y-110277999D02*
X139974000Y-108801000D01*
D46*
%TO.N,/DIR_B*%
X147175000Y-122000000D02*
X148675000Y-123500000D01*
X145726047Y-122219200D02*
X145945247Y-122000000D01*
X145945247Y-122000000D02*
X147175000Y-122000000D01*
%TO.N,/DIR_A*%
X147249467Y-121642000D02*
X147301667Y-121694200D01*
X147607466Y-122000000D02*
X148675000Y-122000000D01*
X147301666Y-121694200D02*
X147480800Y-121873333D01*
X144705757Y-122219200D02*
X144705757Y-121902289D01*
X144966046Y-121642000D02*
X147249467Y-121642000D01*
X144705757Y-121902289D02*
X144966046Y-121642000D01*
X147480800Y-121873333D02*
X147607466Y-122000000D01*
X147301667Y-121694200D02*
X147301666Y-121694200D01*
D48*
%TO.N,/LED_Driver_AC-DC/3V3_FB*%
X137200001Y-109300000D02*
X137072007Y-109300000D01*
X135000000Y-108700000D02*
X135000000Y-106825000D01*
X137072007Y-109300000D02*
X136973943Y-109201936D01*
X137500001Y-109600000D02*
X137200001Y-109300000D01*
X136900000Y-109200000D02*
X135500000Y-109200000D01*
X136973943Y-109201936D02*
X136901936Y-109201936D01*
X136000000Y-105825000D02*
X140000000Y-105825000D01*
X136901936Y-109201936D02*
X136900000Y-109200000D01*
X135000000Y-106825000D02*
X136000000Y-105825000D01*
X135500000Y-109200000D02*
X135000000Y-108700000D01*
%TO.N,+3V3*%
X136000000Y-104175000D02*
X132400000Y-107775000D01*
D46*
X131646383Y-126053400D02*
X131353616Y-126053400D01*
X142725000Y-123500000D02*
X141325000Y-123500000D01*
X131699784Y-126000000D02*
X131646384Y-126053400D01*
X129597400Y-123402600D02*
X130060424Y-123402600D01*
X130153616Y-126053400D02*
X130100216Y-126000000D01*
X130056692Y-126000000D02*
X129738892Y-125682200D01*
X142725000Y-128000000D02*
X142725000Y-126500000D01*
X129070000Y-125013308D02*
X129070000Y-124630000D01*
D47*
X142595529Y-118652025D02*
X141500000Y-117556497D01*
D46*
X134200000Y-128019838D02*
X134626572Y-128446410D01*
D47*
X137000000Y-118050000D02*
X137000000Y-118997600D01*
D46*
X142692267Y-128025000D02*
X142700000Y-128025000D01*
X142700000Y-128025000D02*
X142725000Y-128000000D01*
X143477200Y-122747800D02*
X146522800Y-122747800D01*
X141325000Y-125100000D02*
X142725000Y-126500000D01*
X142725000Y-123500000D02*
X143477200Y-122747800D01*
X142177029Y-128540238D02*
X142692267Y-128025000D01*
X129492800Y-125436108D02*
X129070000Y-125013308D01*
X129738892Y-125682200D02*
X129492800Y-125436108D01*
X131353616Y-126053400D02*
X130446384Y-126053400D01*
X132783715Y-126000000D02*
X131699784Y-126000000D01*
X141325000Y-125000000D02*
X141325000Y-125100000D01*
X130153617Y-126053400D02*
X130153616Y-126053400D01*
D47*
X141500000Y-117556497D02*
X141500000Y-117025000D01*
D46*
X133439329Y-126277200D02*
X133060915Y-126277200D01*
X141238547Y-124913547D02*
X141325000Y-125000000D01*
X131646384Y-126053400D02*
X131646383Y-126053400D01*
X130446384Y-126053400D02*
X130153617Y-126053400D01*
X141325000Y-125000000D02*
X141325000Y-123500000D01*
X133060915Y-126277200D02*
X132783715Y-126000000D01*
X146522800Y-122747800D02*
X147275000Y-123500000D01*
D48*
X132400000Y-114925000D02*
X134500000Y-117025000D01*
D46*
X134200000Y-127275000D02*
X134200000Y-128019838D01*
X134200000Y-127037871D02*
X133439329Y-126277200D01*
X129070000Y-123930000D02*
X129597400Y-123402600D01*
D48*
X132400000Y-107775000D02*
X132400000Y-114925000D01*
D46*
X140575000Y-124913547D02*
X141238547Y-124913547D01*
D48*
%TO.N,/LED_Driver_AC-DC/BST*%
X138900001Y-110325000D02*
X139225000Y-110000001D01*
X139225000Y-110000001D02*
X139225000Y-108000000D01*
%TO.N,/LED_Driver_AC-DC/VCC*%
X137784889Y-108000000D02*
X137775000Y-108000000D01*
X138555000Y-108770111D02*
X137784889Y-108000000D01*
X138499999Y-109600000D02*
X138555000Y-109544999D01*
X138555000Y-109544999D02*
X138555000Y-108770111D01*
D45*
%TO.N,/LED_Driver_AC-DC/VHV*%
X141000000Y-87500000D02*
X139500000Y-89000000D01*
X147500000Y-87500000D02*
X141000000Y-87500000D01*
%TO.N,/LED_Driver_AC-DC/AC_EMI-*%
X123500000Y-100000000D02*
X123500000Y-103000000D01*
X123500000Y-103000000D02*
X128500000Y-108000000D01*
%TO.N,/LED_Driver_AC-DC/AC_EMI+*%
X116000000Y-108000000D02*
X116000000Y-102500000D01*
X116000000Y-102500000D02*
X113500000Y-100000000D01*
D48*
%TO.N,/LED_Driver_AC-DC/CTRL2*%
X137099999Y-110325000D02*
X137099999Y-110177935D01*
X137099999Y-110177935D02*
X136725000Y-109802936D01*
%TO.N,/LED_Driver_AC-DC/VINSENSE*%
X143515760Y-108398125D02*
X143515760Y-107941661D01*
X143192992Y-107618893D02*
X143000000Y-107425901D01*
X141556113Y-105956113D02*
X141556113Y-102200000D01*
X143000000Y-107400000D02*
X141556113Y-105956113D01*
X144000000Y-113804950D02*
X143109063Y-112914013D01*
X141556113Y-102000000D02*
X141556113Y-102200000D01*
X141400000Y-102000000D02*
X141556113Y-102000000D01*
X143519760Y-109139828D02*
X143519760Y-108680050D01*
X143109063Y-112763894D02*
X143109063Y-110278232D01*
X143188992Y-109464939D02*
X143194649Y-109464939D01*
X143109063Y-109544868D02*
X143188992Y-109464939D01*
X141556113Y-101800000D02*
X141556113Y-101843887D01*
X143000000Y-107425901D02*
X143000000Y-107400000D01*
X143515760Y-108676050D02*
X143515760Y-108398125D01*
X143109063Y-109821768D02*
X143109063Y-109544868D01*
X143194649Y-109464939D02*
X143519760Y-109139828D01*
X143515760Y-107941661D02*
X143192992Y-107618893D01*
X143519760Y-108680050D02*
X143515760Y-108676050D01*
X141000000Y-102000000D02*
X141400000Y-102000000D01*
X141556113Y-101800000D02*
X141556113Y-102000000D01*
X141556113Y-96556113D02*
X141556113Y-101800000D01*
X143109063Y-110278232D02*
X143109063Y-109821768D01*
X143109063Y-112914013D02*
X143109063Y-112763894D01*
X141000000Y-96000000D02*
X141556113Y-96556113D01*
X141556113Y-102156113D02*
X141400000Y-102000000D01*
X141556113Y-101843887D02*
X141400000Y-102000000D01*
X141556113Y-102200000D02*
X141556113Y-102156113D01*
D46*
%TO.N,+3V3*%
X134200000Y-127275000D02*
X134200000Y-127037871D01*
X130100216Y-126000000D02*
X130056692Y-126000000D01*
X129070000Y-124630000D02*
X129070000Y-123930000D01*
D48*
%TO.N,/LED_Driver_AC-DC/VIN*%
X135300000Y-115000000D02*
X140550189Y-115000000D01*
D47*
X142558063Y-110050000D02*
X142558063Y-109316636D01*
X142558063Y-109316636D02*
X142964760Y-108909939D01*
X140550189Y-115000000D02*
X140700000Y-115000000D01*
X140200000Y-102197021D02*
X140200000Y-99800000D01*
X140926000Y-106131133D02*
X140926000Y-102923021D01*
X133000000Y-111035376D02*
X133000000Y-112904351D01*
X142558063Y-113141937D02*
X142558063Y-110050000D01*
X135095649Y-115000000D02*
X135300000Y-115000000D01*
X140700000Y-115000000D02*
X142558063Y-113141937D01*
X135000000Y-110050000D02*
X133985376Y-110050000D01*
X142558063Y-110050000D02*
X141000000Y-110050000D01*
X140926000Y-102923021D02*
X140200000Y-102197021D01*
X140200000Y-99800000D02*
X140455113Y-99544887D01*
X142964760Y-108169893D02*
X140926000Y-106131133D01*
X140455113Y-99544887D02*
X140455113Y-98000000D01*
X133000000Y-112904351D02*
X135095649Y-115000000D01*
X133985376Y-110050000D02*
X133000000Y-111035376D01*
X142964760Y-108909939D02*
X142964760Y-108169893D01*
%TO.N,GND*%
X140024238Y-122400000D02*
X141124238Y-121300000D01*
X144355968Y-121300000D02*
X144655968Y-121000000D01*
X141124238Y-121300000D02*
X144355968Y-121300000D01*
X144655968Y-121000000D02*
X148500000Y-121000000D01*
X139400000Y-122400000D02*
X140024238Y-122400000D01*
D46*
X133325000Y-125725000D02*
X134200000Y-125725000D01*
D47*
%TO.N,/DC-*%
X161635000Y-128635000D02*
X161500000Y-128500000D01*
D46*
%TO.N,+3V3*%
X152623180Y-124853300D02*
X150820284Y-124853300D01*
D47*
%TO.N,/DC-*%
X161500000Y-128500000D02*
X161500000Y-124500000D01*
D45*
%TO.N,/AC+*%
X109500000Y-124500000D02*
X106750000Y-124500000D01*
%TO.N,/AC_Input/AC+_in*%
X112500000Y-87460000D02*
X112500000Y-92540000D01*
D47*
%TO.N,Net-(D6-K)*%
X163000000Y-123365000D02*
X179635000Y-123365000D01*
D46*
%TO.N,Net-(R16-Pad1)*%
X156625000Y-127365000D02*
X155135300Y-125875300D01*
%TO.N,+3V3*%
X150820284Y-124853300D02*
X150466984Y-124500000D01*
D47*
%TO.N,Net-(D6-K)*%
X179635000Y-123365000D02*
X184000000Y-119000000D01*
D46*
%TO.N,+3V3*%
X153635000Y-126770000D02*
X153011700Y-126146700D01*
D47*
%TO.N,/DC-*%
X163000000Y-124635000D02*
X161635000Y-124635000D01*
%TO.N,Net-(D10-K)*%
X163000000Y-127365000D02*
X176635000Y-127365000D01*
%TO.N,/DC-*%
X161500000Y-124500000D02*
X161500000Y-122500000D01*
X161500000Y-122500000D02*
X165000000Y-119000000D01*
D46*
%TO.N,Net-(R16-Pad1)*%
X150325000Y-123455809D02*
X150325000Y-123500000D01*
X155135300Y-125875300D02*
X155135300Y-122916109D01*
%TO.N,+3V3*%
X148000000Y-125775000D02*
X147275000Y-126500000D01*
X153011700Y-126146700D02*
X153011700Y-125241820D01*
D47*
%TO.N,/DC-*%
X163000000Y-128635000D02*
X161635000Y-128635000D01*
D46*
%TO.N,Net-(R16-Pad1)*%
X155135300Y-122916109D02*
X154356691Y-122137500D01*
D47*
%TO.N,/DC-*%
X161635000Y-124635000D02*
X161500000Y-124500000D01*
D45*
%TO.N,/AC_Input/AC+_in*%
X112500000Y-96150000D02*
X112500000Y-92540000D01*
D47*
%TO.N,Net-(D10-K)*%
X176635000Y-127365000D02*
X185000000Y-119000000D01*
D46*
%TO.N,Net-(R16-Pad1)*%
X151643309Y-122137500D02*
X150325000Y-123455809D01*
%TO.N,+3V3*%
X153011700Y-125241820D02*
X152623180Y-124853300D01*
D45*
%TO.N,/AC_Input/AC+_in*%
X108500000Y-100150000D02*
X112500000Y-96150000D01*
%TD*%
%TA.AperFunction,Conductor*%
%TO.N,/DC-*%
G36*
X174687539Y-84520185D02*
G01*
X174733294Y-84572989D01*
X174744500Y-84624500D01*
X174744500Y-87876002D01*
X174750338Y-87930312D01*
X174761543Y-87981818D01*
X174761546Y-87981827D01*
X174768779Y-88008192D01*
X174768783Y-88008203D01*
X174818105Y-88094818D01*
X174818110Y-88094825D01*
X174818112Y-88094828D01*
X174844580Y-88125374D01*
X174863863Y-88147628D01*
X174863866Y-88147631D01*
X174863867Y-88147632D01*
X174896641Y-88179257D01*
X174984976Y-88225465D01*
X174984977Y-88225465D01*
X174984977Y-88225466D01*
X175035105Y-88240184D01*
X175052015Y-88245150D01*
X175052019Y-88245150D01*
X175052021Y-88245151D01*
X175063652Y-88246823D01*
X175124000Y-88255500D01*
X182842806Y-88255500D01*
X182909845Y-88275185D01*
X182930487Y-88291819D01*
X183708181Y-89069513D01*
X183741666Y-89130836D01*
X183744500Y-89157194D01*
X183744500Y-113842806D01*
X183724815Y-113909845D01*
X183708181Y-113930487D01*
X182855666Y-114783001D01*
X182855638Y-114783031D01*
X182837361Y-114803379D01*
X182820744Y-114824000D01*
X182820740Y-114824005D01*
X182820740Y-114824007D01*
X182811727Y-114841238D01*
X182774534Y-114912340D01*
X182754850Y-114979375D01*
X182754848Y-114979383D01*
X182744500Y-115051360D01*
X182744500Y-116876002D01*
X182750338Y-116930312D01*
X182761543Y-116981818D01*
X182761546Y-116981827D01*
X182768779Y-117008192D01*
X182768783Y-117008203D01*
X182818105Y-117094818D01*
X182818110Y-117094825D01*
X182818112Y-117094828D01*
X182843390Y-117124000D01*
X182863863Y-117147628D01*
X182863866Y-117147631D01*
X182863867Y-117147632D01*
X182896641Y-117179257D01*
X182984976Y-117225465D01*
X182984977Y-117225465D01*
X182984977Y-117225466D01*
X183029218Y-117238456D01*
X183052015Y-117245150D01*
X183052019Y-117245150D01*
X183052021Y-117245151D01*
X183063652Y-117246823D01*
X183124000Y-117255500D01*
X183124001Y-117255500D01*
X192876000Y-117255500D01*
X192930313Y-117249661D01*
X192981824Y-117238455D01*
X193008198Y-117231219D01*
X193037074Y-117214775D01*
X193094818Y-117181894D01*
X193094819Y-117181892D01*
X193094828Y-117181888D01*
X193147632Y-117136133D01*
X193179257Y-117103359D01*
X193225465Y-117015024D01*
X193227470Y-117008198D01*
X193235215Y-116981818D01*
X193245150Y-116947985D01*
X193255500Y-116876000D01*
X193255500Y-115051362D01*
X193254036Y-115024048D01*
X193251202Y-114997690D01*
X193221413Y-114902556D01*
X193187928Y-114841233D01*
X193144347Y-114783015D01*
X193144342Y-114783010D01*
X193144334Y-114783001D01*
X192216998Y-113855666D01*
X192216985Y-113855653D01*
X192196635Y-113837374D01*
X192196629Y-113837369D01*
X192196620Y-113837361D01*
X192175999Y-113820744D01*
X192175996Y-113820742D01*
X192175993Y-113820740D01*
X192087662Y-113774535D01*
X192087659Y-113774534D01*
X192020624Y-113754850D01*
X192020616Y-113754848D01*
X191948639Y-113744500D01*
X191948638Y-113744500D01*
X191157194Y-113744500D01*
X191090155Y-113724815D01*
X191069513Y-113708181D01*
X190291819Y-112930487D01*
X190258334Y-112869164D01*
X190255500Y-112842806D01*
X190255500Y-104259448D01*
X192424500Y-104259448D01*
X192424500Y-104440551D01*
X192452829Y-104619410D01*
X192508787Y-104791636D01*
X192508788Y-104791639D01*
X192591006Y-104952997D01*
X192697441Y-105099494D01*
X192697445Y-105099499D01*
X192825500Y-105227554D01*
X192825505Y-105227558D01*
X192953287Y-105320396D01*
X192972006Y-105333996D01*
X193077484Y-105387740D01*
X193133360Y-105416211D01*
X193133363Y-105416212D01*
X193219476Y-105444191D01*
X193305591Y-105472171D01*
X193388429Y-105485291D01*
X193484449Y-105500500D01*
X193484454Y-105500500D01*
X193665551Y-105500500D01*
X193752259Y-105486765D01*
X193844409Y-105472171D01*
X194016639Y-105416211D01*
X194177994Y-105333996D01*
X194324501Y-105227553D01*
X194452553Y-105099501D01*
X194558996Y-104952994D01*
X194641211Y-104791639D01*
X194697171Y-104619409D01*
X194711765Y-104527259D01*
X194725500Y-104440551D01*
X194725500Y-104259448D01*
X195924500Y-104259448D01*
X195924500Y-104440551D01*
X195952829Y-104619410D01*
X196008787Y-104791636D01*
X196008788Y-104791639D01*
X196091006Y-104952997D01*
X196197441Y-105099494D01*
X196197445Y-105099499D01*
X196325500Y-105227554D01*
X196325505Y-105227558D01*
X196453287Y-105320396D01*
X196472006Y-105333996D01*
X196577484Y-105387740D01*
X196633360Y-105416211D01*
X196633363Y-105416212D01*
X196719476Y-105444191D01*
X196805591Y-105472171D01*
X196888429Y-105485291D01*
X196984449Y-105500500D01*
X196984454Y-105500500D01*
X197165551Y-105500500D01*
X197252259Y-105486765D01*
X197344409Y-105472171D01*
X197516639Y-105416211D01*
X197677994Y-105333996D01*
X197824501Y-105227553D01*
X197952553Y-105099501D01*
X198058996Y-104952994D01*
X198141211Y-104791639D01*
X198197171Y-104619409D01*
X198211765Y-104527259D01*
X198225500Y-104440551D01*
X198225500Y-104259448D01*
X198209019Y-104155397D01*
X198197171Y-104080591D01*
X198146723Y-103925325D01*
X198141212Y-103908363D01*
X198141211Y-103908360D01*
X198112740Y-103852484D01*
X198058996Y-103747006D01*
X198038774Y-103719172D01*
X197952558Y-103600505D01*
X197952554Y-103600500D01*
X197824499Y-103472445D01*
X197824494Y-103472441D01*
X197677997Y-103366006D01*
X197677996Y-103366005D01*
X197677994Y-103366004D01*
X197626300Y-103339664D01*
X197516639Y-103283788D01*
X197516636Y-103283787D01*
X197344410Y-103227829D01*
X197165551Y-103199500D01*
X197165546Y-103199500D01*
X196984454Y-103199500D01*
X196984449Y-103199500D01*
X196805589Y-103227829D01*
X196633363Y-103283787D01*
X196633360Y-103283788D01*
X196472002Y-103366006D01*
X196325505Y-103472441D01*
X196325500Y-103472445D01*
X196197445Y-103600500D01*
X196197441Y-103600505D01*
X196091006Y-103747002D01*
X196008788Y-103908360D01*
X196008787Y-103908363D01*
X195952829Y-104080589D01*
X195924500Y-104259448D01*
X194725500Y-104259448D01*
X194709019Y-104155397D01*
X194697171Y-104080591D01*
X194646723Y-103925325D01*
X194641212Y-103908363D01*
X194641211Y-103908360D01*
X194612740Y-103852484D01*
X194558996Y-103747006D01*
X194538774Y-103719172D01*
X194452558Y-103600505D01*
X194452554Y-103600500D01*
X194324499Y-103472445D01*
X194324494Y-103472441D01*
X194177997Y-103366006D01*
X194177996Y-103366005D01*
X194177994Y-103366004D01*
X194126300Y-103339664D01*
X194016639Y-103283788D01*
X194016636Y-103283787D01*
X193844410Y-103227829D01*
X193665551Y-103199500D01*
X193665546Y-103199500D01*
X193484454Y-103199500D01*
X193484449Y-103199500D01*
X193305589Y-103227829D01*
X193133363Y-103283787D01*
X193133360Y-103283788D01*
X192972002Y-103366006D01*
X192825505Y-103472441D01*
X192825500Y-103472445D01*
X192697445Y-103600500D01*
X192697441Y-103600505D01*
X192591006Y-103747002D01*
X192508788Y-103908360D01*
X192508787Y-103908363D01*
X192452829Y-104080589D01*
X192424500Y-104259448D01*
X190255500Y-104259448D01*
X190255500Y-98425321D01*
X192424500Y-98425321D01*
X192424500Y-100274678D01*
X192439032Y-100347735D01*
X192439033Y-100347739D01*
X192439034Y-100347740D01*
X192494399Y-100430601D01*
X192556614Y-100472171D01*
X192577260Y-100485966D01*
X192577264Y-100485967D01*
X192650321Y-100500499D01*
X192650324Y-100500500D01*
X192650326Y-100500500D01*
X194499676Y-100500500D01*
X194499677Y-100500499D01*
X194572740Y-100485966D01*
X194655601Y-100430601D01*
X194710966Y-100347740D01*
X194725500Y-100274674D01*
X194725500Y-99259448D01*
X195924500Y-99259448D01*
X195924500Y-99440551D01*
X195952829Y-99619410D01*
X196008787Y-99791636D01*
X196008788Y-99791639D01*
X196091006Y-99952997D01*
X196197441Y-100099494D01*
X196197445Y-100099499D01*
X196325500Y-100227554D01*
X196325505Y-100227558D01*
X196390361Y-100274678D01*
X196472006Y-100333996D01*
X196577484Y-100387740D01*
X196633360Y-100416211D01*
X196633363Y-100416212D01*
X196719476Y-100444191D01*
X196805591Y-100472171D01*
X196888429Y-100485291D01*
X196984449Y-100500500D01*
X196984454Y-100500500D01*
X197165551Y-100500500D01*
X197257310Y-100485966D01*
X197344409Y-100472171D01*
X197516639Y-100416211D01*
X197677994Y-100333996D01*
X197824501Y-100227553D01*
X197952553Y-100099501D01*
X198058996Y-99952994D01*
X198141211Y-99791639D01*
X198197171Y-99619409D01*
X198211765Y-99527259D01*
X198225500Y-99440551D01*
X198225500Y-99259448D01*
X198209019Y-99155397D01*
X198197171Y-99080591D01*
X198141211Y-98908361D01*
X198141211Y-98908360D01*
X198112740Y-98852484D01*
X198058996Y-98747006D01*
X198045396Y-98728287D01*
X197952558Y-98600505D01*
X197952554Y-98600500D01*
X197824499Y-98472445D01*
X197824494Y-98472441D01*
X197677997Y-98366006D01*
X197677996Y-98366005D01*
X197677994Y-98366004D01*
X197626300Y-98339664D01*
X197516639Y-98283788D01*
X197516636Y-98283787D01*
X197344410Y-98227829D01*
X197165551Y-98199500D01*
X197165546Y-98199500D01*
X196984454Y-98199500D01*
X196984449Y-98199500D01*
X196805589Y-98227829D01*
X196633363Y-98283787D01*
X196633360Y-98283788D01*
X196472002Y-98366006D01*
X196325505Y-98472441D01*
X196325500Y-98472445D01*
X196197445Y-98600500D01*
X196197441Y-98600505D01*
X196091006Y-98747002D01*
X196008788Y-98908360D01*
X196008787Y-98908363D01*
X195952829Y-99080589D01*
X195924500Y-99259448D01*
X194725500Y-99259448D01*
X194725500Y-98425326D01*
X194725500Y-98425323D01*
X194725499Y-98425321D01*
X194710967Y-98352264D01*
X194710966Y-98352260D01*
X194655601Y-98269399D01*
X194572740Y-98214034D01*
X194572739Y-98214033D01*
X194572735Y-98214032D01*
X194499677Y-98199500D01*
X194499674Y-98199500D01*
X192650326Y-98199500D01*
X192650323Y-98199500D01*
X192577264Y-98214032D01*
X192577260Y-98214033D01*
X192494399Y-98269399D01*
X192439033Y-98352260D01*
X192439032Y-98352264D01*
X192424500Y-98425321D01*
X190255500Y-98425321D01*
X190255500Y-84624500D01*
X190275185Y-84557461D01*
X190327989Y-84511706D01*
X190379500Y-84500500D01*
X199375500Y-84500500D01*
X199442539Y-84520185D01*
X199488294Y-84572989D01*
X199499500Y-84624500D01*
X199499500Y-120876000D01*
X199479815Y-120943039D01*
X199427011Y-120988794D01*
X199375500Y-121000000D01*
X184007176Y-121000000D01*
X183940137Y-120980315D01*
X183894382Y-120927511D01*
X183884438Y-120858353D01*
X183913463Y-120794797D01*
X183919495Y-120788319D01*
X185170995Y-119536819D01*
X185232318Y-119503334D01*
X185258676Y-119500500D01*
X190732711Y-119500500D01*
X190780162Y-119509938D01*
X190787513Y-119512983D01*
X190787515Y-119512984D01*
X190927525Y-119550500D01*
X190927528Y-119550500D01*
X191072472Y-119550500D01*
X191072475Y-119550500D01*
X191212485Y-119512984D01*
X191338015Y-119440509D01*
X191440509Y-119338015D01*
X191512984Y-119212485D01*
X191550500Y-119072475D01*
X191550500Y-118927525D01*
X191512984Y-118787515D01*
X191440509Y-118661985D01*
X191338015Y-118559491D01*
X191338013Y-118559490D01*
X191338011Y-118559488D01*
X191212488Y-118487017D01*
X191212489Y-118487017D01*
X191201006Y-118483940D01*
X191072475Y-118449500D01*
X190927525Y-118449500D01*
X190843519Y-118472009D01*
X190787513Y-118487016D01*
X190780162Y-118490062D01*
X190732711Y-118499500D01*
X184934107Y-118499500D01*
X184806812Y-118533608D01*
X184692686Y-118599500D01*
X184692685Y-118599501D01*
X184630204Y-118661982D01*
X184622849Y-118669337D01*
X184561525Y-118702821D01*
X184491834Y-118697836D01*
X184448320Y-118665667D01*
X184446256Y-118667732D01*
X184338017Y-118559493D01*
X184338011Y-118559488D01*
X184212488Y-118487017D01*
X184212489Y-118487017D01*
X184201006Y-118483940D01*
X184072475Y-118449500D01*
X183927525Y-118449500D01*
X183798993Y-118483940D01*
X183787511Y-118487017D01*
X183661988Y-118559488D01*
X183661982Y-118559493D01*
X183559493Y-118661982D01*
X183559489Y-118661988D01*
X183487015Y-118787516D01*
X183483964Y-118794881D01*
X183457089Y-118835096D01*
X181328505Y-120963681D01*
X181267182Y-120997166D01*
X181240824Y-121000000D01*
X163124000Y-121000000D01*
X163056961Y-120980315D01*
X163011206Y-120927511D01*
X163000000Y-120876000D01*
X163000000Y-117124000D01*
X163019685Y-117056961D01*
X163072489Y-117011206D01*
X163124000Y-117000000D01*
X170000000Y-117000000D01*
X170000000Y-112385837D01*
X171049500Y-112385837D01*
X171049500Y-112614162D01*
X171085215Y-112839660D01*
X171155770Y-113056803D01*
X171259421Y-113260228D01*
X171393621Y-113444937D01*
X171555063Y-113606379D01*
X171739772Y-113740579D01*
X171806413Y-113774534D01*
X171943196Y-113844229D01*
X171943198Y-113844229D01*
X171943201Y-113844231D01*
X172059592Y-113882049D01*
X172160339Y-113914784D01*
X172385838Y-113950500D01*
X172385843Y-113950500D01*
X172614162Y-113950500D01*
X172839660Y-113914784D01*
X173056799Y-113844231D01*
X173260228Y-113740579D01*
X173444937Y-113606379D01*
X173606379Y-113444937D01*
X173740579Y-113260228D01*
X173844231Y-113056799D01*
X173914784Y-112839660D01*
X173950500Y-112614162D01*
X173950500Y-112385837D01*
X173914784Y-112160339D01*
X173844229Y-111943196D01*
X173740578Y-111739771D01*
X173606379Y-111555063D01*
X173444937Y-111393621D01*
X173260228Y-111259421D01*
X173056803Y-111155770D01*
X172839660Y-111085215D01*
X172614162Y-111049500D01*
X172614157Y-111049500D01*
X172385843Y-111049500D01*
X172385838Y-111049500D01*
X172160339Y-111085215D01*
X171943196Y-111155770D01*
X171739771Y-111259421D01*
X171555061Y-111393622D01*
X171393622Y-111555061D01*
X171259421Y-111739771D01*
X171155770Y-111943196D01*
X171085215Y-112160339D01*
X171049500Y-112385837D01*
X170000000Y-112385837D01*
X170000000Y-97504874D01*
X170744500Y-97504874D01*
X170744500Y-102495124D01*
X170744696Y-102505134D01*
X170745078Y-102514866D01*
X170745671Y-102524910D01*
X170762989Y-102744977D01*
X170765345Y-102764884D01*
X170768389Y-102784107D01*
X170772302Y-102803776D01*
X170822699Y-103013696D01*
X170828140Y-103032988D01*
X170834154Y-103051496D01*
X170841098Y-103070314D01*
X170923702Y-103269740D01*
X170930179Y-103283789D01*
X170932106Y-103287969D01*
X170940940Y-103305306D01*
X170947476Y-103316977D01*
X170950748Y-103322820D01*
X171063523Y-103506850D01*
X171063526Y-103506854D01*
X171074674Y-103523538D01*
X171086111Y-103539279D01*
X171098528Y-103555030D01*
X171238718Y-103719172D01*
X171252336Y-103733904D01*
X171266095Y-103747663D01*
X171280827Y-103761281D01*
X171444969Y-103901471D01*
X171460720Y-103913888D01*
X171460727Y-103913893D01*
X171476461Y-103925325D01*
X171493148Y-103936475D01*
X171677178Y-104049250D01*
X171677188Y-104049256D01*
X171677192Y-104049258D01*
X171694693Y-104059059D01*
X171712030Y-104067893D01*
X171729227Y-104075821D01*
X171730254Y-104076295D01*
X171871267Y-104134704D01*
X171929682Y-104158901D01*
X171948504Y-104165845D01*
X171967010Y-104171858D01*
X171986319Y-104177303D01*
X172196212Y-104227694D01*
X172215886Y-104231608D01*
X172235104Y-104234652D01*
X172255029Y-104237010D01*
X172470225Y-104253946D01*
X172470227Y-104253946D01*
X172470239Y-104253947D01*
X172490261Y-104254734D01*
X172490271Y-104254734D01*
X172509739Y-104254734D01*
X172529760Y-104253947D01*
X172529770Y-104253946D01*
X172529775Y-104253946D01*
X172744970Y-104237010D01*
X172764895Y-104234652D01*
X172784113Y-104231608D01*
X172803787Y-104227694D01*
X173013680Y-104177303D01*
X173032989Y-104171858D01*
X173051495Y-104165845D01*
X173070317Y-104158901D01*
X173269747Y-104076294D01*
X173287969Y-104067893D01*
X173305306Y-104059059D01*
X173322807Y-104049258D01*
X173506854Y-103936473D01*
X173523538Y-103925325D01*
X173539279Y-103913888D01*
X173555030Y-103901471D01*
X173719172Y-103761281D01*
X173733904Y-103747663D01*
X173747663Y-103733904D01*
X173761281Y-103719172D01*
X173901471Y-103555030D01*
X173913888Y-103539279D01*
X173925325Y-103523538D01*
X173936473Y-103506854D01*
X174049258Y-103322807D01*
X174059059Y-103305306D01*
X174067893Y-103287969D01*
X174076294Y-103269747D01*
X174158901Y-103070317D01*
X174165845Y-103051495D01*
X174171858Y-103032989D01*
X174177303Y-103013680D01*
X174227694Y-102803787D01*
X174231608Y-102784113D01*
X174234652Y-102764895D01*
X174237010Y-102744970D01*
X174254330Y-102524899D01*
X174254921Y-102514877D01*
X174255303Y-102505148D01*
X174255500Y-102495124D01*
X174255500Y-97504875D01*
X174255303Y-97494851D01*
X174254921Y-97485122D01*
X174254330Y-97475100D01*
X174237010Y-97255029D01*
X174234652Y-97235104D01*
X174231608Y-97215886D01*
X174227694Y-97196212D01*
X174177303Y-96986319D01*
X174171858Y-96967010D01*
X174165845Y-96948504D01*
X174158901Y-96929682D01*
X174076294Y-96730252D01*
X174067893Y-96712030D01*
X174059059Y-96694693D01*
X174049258Y-96677192D01*
X174049251Y-96677180D01*
X174049250Y-96677178D01*
X173936475Y-96493148D01*
X173925325Y-96476461D01*
X173913893Y-96460727D01*
X173913888Y-96460720D01*
X173901471Y-96444969D01*
X173761281Y-96280827D01*
X173747663Y-96266095D01*
X173733904Y-96252336D01*
X173719172Y-96238718D01*
X173555030Y-96098528D01*
X173539279Y-96086111D01*
X173523538Y-96074674D01*
X173506854Y-96063526D01*
X173506850Y-96063523D01*
X173322820Y-95950748D01*
X173316977Y-95947476D01*
X173305306Y-95940940D01*
X173287969Y-95932106D01*
X173287967Y-95932105D01*
X173269740Y-95923702D01*
X173070314Y-95841098D01*
X173070303Y-95841094D01*
X173064744Y-95839042D01*
X173051496Y-95834154D01*
X173032988Y-95828140D01*
X173013696Y-95822699D01*
X172803782Y-95772303D01*
X172784107Y-95768389D01*
X172764926Y-95765350D01*
X172744966Y-95762988D01*
X172529752Y-95746051D01*
X172509731Y-95745265D01*
X172509721Y-95745265D01*
X172490279Y-95745265D01*
X172478029Y-95745745D01*
X172470227Y-95746052D01*
X172255016Y-95762988D01*
X172235091Y-95765347D01*
X172215882Y-95768389D01*
X172196235Y-95772298D01*
X171986305Y-95822699D01*
X171966987Y-95828148D01*
X171948519Y-95834148D01*
X171929690Y-95841095D01*
X171730252Y-95923704D01*
X171712029Y-95932105D01*
X171694686Y-95940942D01*
X171677187Y-95950743D01*
X171493148Y-96063523D01*
X171476461Y-96074673D01*
X171460727Y-96086105D01*
X171444962Y-96098533D01*
X171280822Y-96238722D01*
X171266093Y-96252337D01*
X171252337Y-96266093D01*
X171238722Y-96280822D01*
X171098533Y-96444962D01*
X171086105Y-96460727D01*
X171074673Y-96476461D01*
X171063523Y-96493148D01*
X170950748Y-96677180D01*
X170940944Y-96694683D01*
X170932103Y-96712031D01*
X170923711Y-96730235D01*
X170841091Y-96929699D01*
X170834148Y-96948519D01*
X170828148Y-96966987D01*
X170828144Y-96966999D01*
X170828144Y-96967001D01*
X170828140Y-96967014D01*
X170822699Y-96986305D01*
X170772302Y-97196222D01*
X170768384Y-97215915D01*
X170765345Y-97235111D01*
X170762989Y-97255021D01*
X170745671Y-97475088D01*
X170745078Y-97485132D01*
X170744696Y-97494864D01*
X170744500Y-97504874D01*
X170000000Y-97504874D01*
X170000000Y-92385837D01*
X171049500Y-92385837D01*
X171049500Y-92614162D01*
X171085215Y-92839660D01*
X171155770Y-93056803D01*
X171259421Y-93260228D01*
X171393621Y-93444937D01*
X171555063Y-93606379D01*
X171739772Y-93740579D01*
X171835884Y-93789550D01*
X171943196Y-93844229D01*
X171943198Y-93844229D01*
X171943201Y-93844231D01*
X172059592Y-93882049D01*
X172160339Y-93914784D01*
X172385838Y-93950500D01*
X172385843Y-93950500D01*
X172614162Y-93950500D01*
X172839660Y-93914784D01*
X173056799Y-93844231D01*
X173260228Y-93740579D01*
X173444937Y-93606379D01*
X173606379Y-93444937D01*
X173740579Y-93260228D01*
X173844231Y-93056799D01*
X173914784Y-92839660D01*
X173950500Y-92614162D01*
X173950500Y-92385837D01*
X173914784Y-92160339D01*
X173844229Y-91943196D01*
X173740578Y-91739771D01*
X173606379Y-91555063D01*
X173444937Y-91393621D01*
X173260228Y-91259421D01*
X173056803Y-91155770D01*
X172839660Y-91085215D01*
X172614162Y-91049500D01*
X172614157Y-91049500D01*
X172385843Y-91049500D01*
X172385838Y-91049500D01*
X172160339Y-91085215D01*
X171943196Y-91155770D01*
X171739771Y-91259421D01*
X171555061Y-91393622D01*
X171393622Y-91555061D01*
X171259421Y-91739771D01*
X171155770Y-91943196D01*
X171085215Y-92160339D01*
X171049500Y-92385837D01*
X170000000Y-92385837D01*
X170000000Y-87385837D01*
X171049500Y-87385837D01*
X171049500Y-87614162D01*
X171085215Y-87839660D01*
X171155770Y-88056803D01*
X171218164Y-88179257D01*
X171259421Y-88260228D01*
X171393621Y-88444937D01*
X171555063Y-88606379D01*
X171739772Y-88740579D01*
X171835884Y-88789550D01*
X171943196Y-88844229D01*
X171943198Y-88844229D01*
X171943201Y-88844231D01*
X172059592Y-88882049D01*
X172160339Y-88914784D01*
X172385838Y-88950500D01*
X172385843Y-88950500D01*
X172614162Y-88950500D01*
X172839660Y-88914784D01*
X173056799Y-88844231D01*
X173260228Y-88740579D01*
X173444937Y-88606379D01*
X173606379Y-88444937D01*
X173740579Y-88260228D01*
X173844231Y-88056799D01*
X173914784Y-87839660D01*
X173950500Y-87614162D01*
X173950500Y-87385837D01*
X173914784Y-87160339D01*
X173844229Y-86943196D01*
X173740578Y-86739771D01*
X173606379Y-86555063D01*
X173444937Y-86393621D01*
X173260228Y-86259421D01*
X173056803Y-86155770D01*
X172839660Y-86085215D01*
X172614162Y-86049500D01*
X172614157Y-86049500D01*
X172385843Y-86049500D01*
X172385838Y-86049500D01*
X172160339Y-86085215D01*
X171943196Y-86155770D01*
X171739771Y-86259421D01*
X171555061Y-86393622D01*
X171393622Y-86555061D01*
X171259421Y-86739771D01*
X171155770Y-86943196D01*
X171085215Y-87160339D01*
X171049500Y-87385837D01*
X170000000Y-87385837D01*
X170000000Y-84624500D01*
X170019685Y-84557461D01*
X170072489Y-84511706D01*
X170124000Y-84500500D01*
X174620500Y-84500500D01*
X174687539Y-84520185D01*
G37*
%TD.AperFunction*%
%TD*%
%TA.AperFunction,Conductor*%
%TO.N,/DC+*%
G36*
X189943039Y-84520185D02*
G01*
X189988794Y-84572989D01*
X190000000Y-84624500D01*
X190000000Y-113000000D01*
X191000000Y-114000000D01*
X191948638Y-114000000D01*
X192015677Y-114019685D01*
X192036319Y-114036319D01*
X192963681Y-114963681D01*
X192997166Y-115025004D01*
X193000000Y-115051362D01*
X193000000Y-116876000D01*
X192980315Y-116943039D01*
X192927511Y-116988794D01*
X192876000Y-117000000D01*
X183124000Y-117000000D01*
X183056961Y-116980315D01*
X183011206Y-116927511D01*
X183000000Y-116876000D01*
X183000000Y-115051362D01*
X183019685Y-114984323D01*
X183036319Y-114963681D01*
X184000000Y-114000000D01*
X184000000Y-89000000D01*
X183000000Y-88000000D01*
X175124000Y-88000000D01*
X175056961Y-87980315D01*
X175011206Y-87927511D01*
X175000000Y-87876000D01*
X175000000Y-84624500D01*
X175019685Y-84557461D01*
X175072489Y-84511706D01*
X175124000Y-84500500D01*
X189876000Y-84500500D01*
X189943039Y-84520185D01*
G37*
%TD.AperFunction*%
%TD*%
%TA.AperFunction,Conductor*%
%TO.N,GND*%
G36*
X129510352Y-123017593D02*
G01*
X129536072Y-123062142D01*
X129527139Y-123112800D01*
X129494410Y-123141503D01*
X129494866Y-123142292D01*
X129490903Y-123144579D01*
X129490796Y-123144674D01*
X129490598Y-123144755D01*
X129440029Y-123173952D01*
X129440028Y-123173951D01*
X129427506Y-123181181D01*
X129427497Y-123181188D01*
X128976213Y-123632474D01*
X128929593Y-123654214D01*
X128923039Y-123654500D01*
X128886731Y-123654500D01*
X128818606Y-123664427D01*
X128713514Y-123715803D01*
X128626395Y-123802923D01*
X128625539Y-123802067D01*
X128588478Y-123827510D01*
X128537278Y-123822552D01*
X128513668Y-123802741D01*
X128513193Y-123803217D01*
X128426191Y-123716215D01*
X128321248Y-123664911D01*
X128320000Y-123664729D01*
X128320000Y-125595268D01*
X128321250Y-125595087D01*
X128426189Y-125543786D01*
X128426191Y-125543784D01*
X128513193Y-125456783D01*
X128514138Y-125457728D01*
X128550892Y-125432491D01*
X128602093Y-125437444D01*
X128625982Y-125457489D01*
X128626395Y-125457077D01*
X128713514Y-125544196D01*
X128713515Y-125544196D01*
X128713517Y-125544198D01*
X128818607Y-125595573D01*
X128868536Y-125602847D01*
X128886731Y-125605499D01*
X128886736Y-125605499D01*
X128886740Y-125605500D01*
X128886742Y-125605500D01*
X129239731Y-125605500D01*
X129288069Y-125623093D01*
X129292905Y-125627526D01*
X129517477Y-125852098D01*
X129886794Y-126221415D01*
X129949889Y-126257844D01*
X129952986Y-126258673D01*
X129953453Y-126258799D01*
X129978640Y-126273340D01*
X129979810Y-126271816D01*
X129983714Y-126274811D01*
X129983718Y-126274815D01*
X130046813Y-126311244D01*
X130117188Y-126330100D01*
X130117189Y-126330100D01*
X131682811Y-126330100D01*
X131682812Y-126330100D01*
X131753187Y-126311244D01*
X131774868Y-126298726D01*
X131795568Y-126286775D01*
X131833168Y-126276700D01*
X132637954Y-126276700D01*
X132686292Y-126294293D01*
X132691128Y-126298726D01*
X132891017Y-126498615D01*
X132954112Y-126535044D01*
X133024487Y-126553900D01*
X133097343Y-126553900D01*
X133293568Y-126553900D01*
X133341906Y-126571493D01*
X133346742Y-126575926D01*
X133466751Y-126695935D01*
X133488491Y-126742555D01*
X133475177Y-126792242D01*
X133433040Y-126821747D01*
X133394114Y-126821747D01*
X133290892Y-126794089D01*
X133159108Y-126794089D01*
X133095461Y-126811143D01*
X133031811Y-126828197D01*
X132917685Y-126894088D01*
X132824499Y-126987274D01*
X132758608Y-127101400D01*
X132738888Y-127174998D01*
X132724500Y-127228697D01*
X132724500Y-127228699D01*
X132724500Y-127329800D01*
X132706907Y-127378138D01*
X132662358Y-127403858D01*
X132649300Y-127405000D01*
X132620000Y-127405000D01*
X132620000Y-128429800D01*
X132602407Y-128478138D01*
X132557858Y-128503858D01*
X132544800Y-128505000D01*
X132370000Y-128505000D01*
X132370000Y-128679800D01*
X132352407Y-128728138D01*
X132307858Y-128753858D01*
X132294800Y-128755000D01*
X131570001Y-128755000D01*
X131570001Y-129209202D01*
X131572850Y-129239605D01*
X131617652Y-129367643D01*
X131617654Y-129367646D01*
X131626510Y-129379645D01*
X131641058Y-129428984D01*
X131620488Y-129476132D01*
X131574424Y-129499027D01*
X131566004Y-129499500D01*
X127573996Y-129499500D01*
X127525658Y-129481907D01*
X127499938Y-129437358D01*
X127508871Y-129386700D01*
X127513490Y-129379645D01*
X127522345Y-129367646D01*
X127522347Y-129367643D01*
X127567147Y-129239607D01*
X127567149Y-129239598D01*
X127570000Y-129209210D01*
X127570000Y-128755000D01*
X125970001Y-128755000D01*
X125970001Y-129209202D01*
X125972850Y-129239605D01*
X126017652Y-129367643D01*
X126017654Y-129367646D01*
X126026510Y-129379645D01*
X126041058Y-129428984D01*
X126020488Y-129476132D01*
X125974424Y-129499027D01*
X125966004Y-129499500D01*
X119075200Y-129499500D01*
X119026862Y-129481907D01*
X119001142Y-129437358D01*
X119000000Y-129424300D01*
X119000000Y-127130251D01*
X119674500Y-127130251D01*
X119674500Y-128869748D01*
X119686132Y-128928229D01*
X119686133Y-128928231D01*
X119730448Y-128994552D01*
X119796769Y-129038867D01*
X119826010Y-129044683D01*
X119855251Y-129050500D01*
X119855252Y-129050500D01*
X121594749Y-129050500D01*
X121614242Y-129046622D01*
X121653231Y-129038867D01*
X121719552Y-128994552D01*
X121763867Y-128928231D01*
X121775500Y-128869748D01*
X121775500Y-127896583D01*
X122215000Y-127896583D01*
X122215000Y-128103416D01*
X122255349Y-128306271D01*
X122255350Y-128306273D01*
X122334503Y-128497364D01*
X122366378Y-128545066D01*
X122366378Y-128545067D01*
X122782037Y-128129408D01*
X122799075Y-128192993D01*
X122864901Y-128307007D01*
X122957993Y-128400099D01*
X123072007Y-128465925D01*
X123135590Y-128482962D01*
X122719931Y-128898620D01*
X122719932Y-128898621D01*
X122767635Y-128930496D01*
X122958726Y-129009649D01*
X122958728Y-129009650D01*
X123161583Y-129050000D01*
X123368417Y-129050000D01*
X123571271Y-129009650D01*
X123571273Y-129009649D01*
X123762360Y-128930498D01*
X123810066Y-128898620D01*
X123810067Y-128898620D01*
X123394409Y-128482962D01*
X123457993Y-128465925D01*
X123572007Y-128400099D01*
X123665099Y-128307007D01*
X123730925Y-128192993D01*
X123747962Y-128129409D01*
X124163620Y-128545067D01*
X124163620Y-128545066D01*
X124195498Y-128497360D01*
X124274649Y-128306273D01*
X124274650Y-128306271D01*
X124315000Y-128103416D01*
X124315000Y-127896582D01*
X124314999Y-127896581D01*
X124298516Y-127813709D01*
X124295946Y-127800789D01*
X125970000Y-127800789D01*
X125970000Y-128255000D01*
X126520000Y-128255000D01*
X127020000Y-128255000D01*
X127569999Y-128255000D01*
X127569999Y-127800797D01*
X127569998Y-127800789D01*
X131570000Y-127800789D01*
X131570000Y-128255000D01*
X132120000Y-128255000D01*
X132120000Y-127405000D01*
X131965797Y-127405000D01*
X131935394Y-127407850D01*
X131807356Y-127452652D01*
X131807353Y-127452654D01*
X131698208Y-127533208D01*
X131617654Y-127642353D01*
X131617652Y-127642356D01*
X131572852Y-127770392D01*
X131572850Y-127770401D01*
X131570000Y-127800789D01*
X127569998Y-127800789D01*
X127567149Y-127770394D01*
X127522347Y-127642356D01*
X127522345Y-127642353D01*
X127441791Y-127533208D01*
X127332646Y-127452654D01*
X127332643Y-127452652D01*
X127204607Y-127407852D01*
X127204598Y-127407850D01*
X127174210Y-127405000D01*
X127020000Y-127405000D01*
X127020000Y-128255000D01*
X126520000Y-128255000D01*
X126520000Y-127405000D01*
X126365797Y-127405000D01*
X126335394Y-127407850D01*
X126207356Y-127452652D01*
X126207353Y-127452654D01*
X126098208Y-127533208D01*
X126017654Y-127642353D01*
X126017652Y-127642356D01*
X125972852Y-127770392D01*
X125972850Y-127770401D01*
X125970000Y-127800789D01*
X124295946Y-127800789D01*
X124274650Y-127693728D01*
X124274649Y-127693726D01*
X124195496Y-127502635D01*
X124163621Y-127454932D01*
X124163620Y-127454931D01*
X123747962Y-127870589D01*
X123730925Y-127807007D01*
X123665099Y-127692993D01*
X123572007Y-127599901D01*
X123457993Y-127534075D01*
X123394409Y-127517037D01*
X123810067Y-127101378D01*
X123762364Y-127069503D01*
X123571273Y-126990350D01*
X123571271Y-126990349D01*
X123368417Y-126950000D01*
X123161583Y-126950000D01*
X122958728Y-126990349D01*
X122958726Y-126990350D01*
X122767636Y-127069502D01*
X122719931Y-127101377D01*
X122719931Y-127101378D01*
X123135590Y-127517037D01*
X123072007Y-127534075D01*
X122957993Y-127599901D01*
X122864901Y-127692993D01*
X122799075Y-127807007D01*
X122782037Y-127870590D01*
X122366378Y-127454931D01*
X122366377Y-127454931D01*
X122334502Y-127502636D01*
X122255350Y-127693726D01*
X122255349Y-127693728D01*
X122215000Y-127896583D01*
X121775500Y-127896583D01*
X121775500Y-127130252D01*
X121775168Y-127128585D01*
X121769190Y-127098528D01*
X121763867Y-127071769D01*
X121719552Y-127005448D01*
X121653231Y-126961133D01*
X121653229Y-126961132D01*
X121594749Y-126949500D01*
X121594748Y-126949500D01*
X119855252Y-126949500D01*
X119855251Y-126949500D01*
X119796770Y-126961132D01*
X119796768Y-126961133D01*
X119730448Y-127005448D01*
X119686133Y-127071768D01*
X119686132Y-127071770D01*
X119674500Y-127130251D01*
X119000000Y-127130251D01*
X119000000Y-126075200D01*
X119017593Y-126026862D01*
X119062142Y-126001142D01*
X119075200Y-126000000D01*
X124999999Y-126000000D01*
X125000000Y-126000000D01*
X125830413Y-125288217D01*
X127570001Y-125288217D01*
X127579911Y-125356248D01*
X127579912Y-125356249D01*
X127631215Y-125461191D01*
X127713810Y-125543786D01*
X127818749Y-125595087D01*
X127820000Y-125595268D01*
X127820000Y-124880000D01*
X127570001Y-124880000D01*
X127570001Y-125288217D01*
X125830413Y-125288217D01*
X127446809Y-123902734D01*
X127494957Y-123884636D01*
X127543476Y-123901721D01*
X127569662Y-123945997D01*
X127570129Y-123969057D01*
X127570197Y-123969062D01*
X127570144Y-123969789D01*
X127570162Y-123970662D01*
X127570001Y-123971767D01*
X127570000Y-123971782D01*
X127570000Y-124380000D01*
X127820000Y-124380000D01*
X127820000Y-123647540D01*
X127813464Y-123635820D01*
X127823150Y-123585300D01*
X127838767Y-123566770D01*
X128032982Y-123400301D01*
X128478880Y-123018104D01*
X128527030Y-123000004D01*
X128527819Y-123000000D01*
X129462014Y-123000000D01*
X129510352Y-123017593D01*
G37*
%TD.AperFunction*%
%TA.AperFunction,Conductor*%
G36*
X158473138Y-121517593D02*
G01*
X158498858Y-121562142D01*
X158500000Y-121575200D01*
X158500000Y-129424300D01*
X158482407Y-129472638D01*
X158437858Y-129498358D01*
X158424800Y-129499500D01*
X140403549Y-129499500D01*
X140355211Y-129481907D01*
X140329491Y-129437358D01*
X140338424Y-129386700D01*
X140350371Y-129371129D01*
X141025400Y-128696099D01*
X141072018Y-128674361D01*
X141090334Y-128675001D01*
X141093481Y-128675500D01*
X141556518Y-128675499D01*
X141622599Y-128665033D01*
X141673091Y-128674848D01*
X141705463Y-128714824D01*
X141706997Y-128719842D01*
X141710635Y-128733419D01*
X141710640Y-128733431D01*
X141776528Y-128847552D01*
X141869714Y-128940738D01*
X141983840Y-129006629D01*
X141983842Y-129006629D01*
X141983843Y-129006630D01*
X142111137Y-129040738D01*
X142111140Y-129040738D01*
X142242918Y-129040738D01*
X142242921Y-129040738D01*
X142370215Y-129006630D01*
X142391137Y-128994551D01*
X142484343Y-128940738D01*
X142540081Y-128885000D01*
X155622230Y-128885000D01*
X155622411Y-128886248D01*
X155673715Y-128991191D01*
X155756308Y-129073784D01*
X155861251Y-129125087D01*
X155861250Y-129125087D01*
X155929277Y-129134999D01*
X156375000Y-129134999D01*
X156875000Y-129134999D01*
X157320715Y-129134999D01*
X157320717Y-129134998D01*
X157388748Y-129125088D01*
X157388749Y-129125087D01*
X157493691Y-129073784D01*
X157576284Y-128991191D01*
X157627588Y-128886248D01*
X157627770Y-128885000D01*
X156875000Y-128885000D01*
X156875000Y-129134999D01*
X156375000Y-129134999D01*
X156375000Y-128885000D01*
X155622230Y-128885000D01*
X142540081Y-128885000D01*
X142577529Y-128847552D01*
X142590522Y-128825047D01*
X142643421Y-128733424D01*
X142646323Y-128722590D01*
X142650604Y-128714732D01*
X142663584Y-128703278D01*
X142673514Y-128689098D01*
X142683067Y-128686085D01*
X142689175Y-128680697D01*
X142701102Y-128680400D01*
X142716645Y-128675500D01*
X142983484Y-128675500D01*
X142983488Y-128675500D01*
X142986651Y-128674999D01*
X144525000Y-128674999D01*
X144533445Y-128674999D01*
X144533456Y-128674998D01*
X144632967Y-128659239D01*
X144752924Y-128598117D01*
X144848117Y-128502924D01*
X144909237Y-128382970D01*
X144924999Y-128283453D01*
X144925000Y-128283446D01*
X144925000Y-128250000D01*
X144525000Y-128250000D01*
X144525000Y-128674999D01*
X142986651Y-128674999D01*
X143083126Y-128659719D01*
X143203220Y-128598528D01*
X143298528Y-128503220D01*
X143359719Y-128383126D01*
X143375500Y-128283488D01*
X143375500Y-128283456D01*
X143625001Y-128283456D01*
X143640760Y-128382967D01*
X143701882Y-128502924D01*
X143797075Y-128598117D01*
X143917030Y-128659237D01*
X143917028Y-128659237D01*
X144016544Y-128674998D01*
X144025000Y-128674998D01*
X144025000Y-128250000D01*
X143625001Y-128250000D01*
X143625001Y-128283456D01*
X143375500Y-128283456D01*
X143375500Y-127716546D01*
X143625000Y-127716546D01*
X143625000Y-127750000D01*
X144025000Y-127750000D01*
X144525000Y-127750000D01*
X144924999Y-127750000D01*
X144924999Y-127716555D01*
X144924998Y-127716543D01*
X144909239Y-127617032D01*
X144848117Y-127497075D01*
X144752924Y-127401882D01*
X144632969Y-127340762D01*
X144632971Y-127340762D01*
X144534706Y-127325199D01*
X144525000Y-127325199D01*
X144525000Y-127750000D01*
X144025000Y-127750000D01*
X144025000Y-127325200D01*
X144015291Y-127325200D01*
X143917032Y-127340760D01*
X143797075Y-127401882D01*
X143701882Y-127497075D01*
X143640762Y-127617029D01*
X143625000Y-127716546D01*
X143375500Y-127716546D01*
X143375500Y-127716512D01*
X143359719Y-127616874D01*
X143298528Y-127496780D01*
X143298527Y-127496779D01*
X143298526Y-127496777D01*
X143203222Y-127401473D01*
X143083129Y-127340282D01*
X143083126Y-127340281D01*
X143076335Y-127339205D01*
X143065134Y-127337431D01*
X143052982Y-127330694D01*
X143039300Y-127328282D01*
X143031185Y-127318611D01*
X143020144Y-127312491D01*
X143015165Y-127299519D01*
X143006235Y-127288877D01*
X143002117Y-127265527D01*
X143001711Y-127264467D01*
X143001700Y-127263157D01*
X143001700Y-127236841D01*
X143019293Y-127188503D01*
X143042683Y-127174999D01*
X145975000Y-127174999D01*
X145983445Y-127174999D01*
X145983456Y-127174998D01*
X146082967Y-127159239D01*
X146202924Y-127098117D01*
X146298117Y-127002924D01*
X146359237Y-126882970D01*
X146374999Y-126783453D01*
X146375000Y-126783446D01*
X146375000Y-126750000D01*
X145975000Y-126750000D01*
X145975000Y-127174999D01*
X143042683Y-127174999D01*
X143063842Y-127162783D01*
X143064945Y-127162598D01*
X143083126Y-127159719D01*
X143203220Y-127098528D01*
X143298528Y-127003220D01*
X143359719Y-126883126D01*
X143375500Y-126783488D01*
X143375500Y-126783456D01*
X143625001Y-126783456D01*
X143640760Y-126882967D01*
X143701882Y-127002924D01*
X143797075Y-127098117D01*
X143917030Y-127159237D01*
X143917028Y-127159237D01*
X144015284Y-127174800D01*
X144025000Y-127174800D01*
X144025000Y-127174799D01*
X144525000Y-127174799D01*
X144534713Y-127174799D01*
X144632967Y-127159239D01*
X144752924Y-127098117D01*
X144848117Y-127002924D01*
X144909237Y-126882970D01*
X144924800Y-126784712D01*
X144924800Y-126784706D01*
X145075200Y-126784706D01*
X145090760Y-126882967D01*
X145151882Y-127002924D01*
X145247075Y-127098117D01*
X145367030Y-127159237D01*
X145367028Y-127159237D01*
X145466544Y-127174998D01*
X145475000Y-127174998D01*
X145475000Y-126750000D01*
X145075200Y-126750000D01*
X145075200Y-126784706D01*
X144924800Y-126784706D01*
X144924800Y-126750000D01*
X144525000Y-126750000D01*
X144525000Y-127174799D01*
X144025000Y-127174799D01*
X144025000Y-126750000D01*
X143625001Y-126750000D01*
X143625001Y-126783456D01*
X143375500Y-126783456D01*
X143375500Y-126216546D01*
X143625000Y-126216546D01*
X143625000Y-126250000D01*
X144025000Y-126250000D01*
X144525000Y-126250000D01*
X144924799Y-126250000D01*
X144924799Y-126215293D01*
X145075199Y-126215293D01*
X145075199Y-126250000D01*
X145475000Y-126250000D01*
X145975000Y-126250000D01*
X146374999Y-126250000D01*
X146374999Y-126216555D01*
X146374998Y-126216543D01*
X146359239Y-126117032D01*
X146298117Y-125997075D01*
X146202924Y-125901882D01*
X146082969Y-125840762D01*
X146082971Y-125840762D01*
X145984706Y-125825199D01*
X145975000Y-125825199D01*
X145975000Y-126250000D01*
X145475000Y-126250000D01*
X145475000Y-125825200D01*
X145465291Y-125825200D01*
X145367032Y-125840760D01*
X145247075Y-125901882D01*
X145151882Y-125997075D01*
X145090762Y-126117029D01*
X145075199Y-126215293D01*
X144924799Y-126215293D01*
X144924799Y-126215286D01*
X144909239Y-126117032D01*
X144848117Y-125997075D01*
X144752924Y-125901882D01*
X144632969Y-125840762D01*
X144632971Y-125840762D01*
X144534706Y-125825199D01*
X144525000Y-125825199D01*
X144525000Y-126250000D01*
X144025000Y-126250000D01*
X144025000Y-125825200D01*
X144015291Y-125825200D01*
X143917032Y-125840760D01*
X143797075Y-125901882D01*
X143701882Y-125997075D01*
X143640762Y-126117029D01*
X143625000Y-126216546D01*
X143375500Y-126216546D01*
X143375500Y-126216512D01*
X143359719Y-126116874D01*
X143298528Y-125996780D01*
X143298527Y-125996779D01*
X143298526Y-125996777D01*
X143203222Y-125901473D01*
X143083126Y-125840281D01*
X143083128Y-125840281D01*
X143005668Y-125828013D01*
X142983488Y-125824500D01*
X142983487Y-125824500D01*
X142982060Y-125824274D01*
X142937070Y-125799336D01*
X142918635Y-125751312D01*
X142935383Y-125702675D01*
X142979475Y-125676182D01*
X142982060Y-125675726D01*
X142983487Y-125675500D01*
X142983488Y-125675500D01*
X143083126Y-125659719D01*
X143203220Y-125598528D01*
X143298528Y-125503220D01*
X143359719Y-125383126D01*
X143375500Y-125283488D01*
X143375500Y-125283456D01*
X143625001Y-125283456D01*
X143640760Y-125382967D01*
X143701882Y-125502924D01*
X143797075Y-125598117D01*
X143917030Y-125659237D01*
X143917028Y-125659237D01*
X144015284Y-125674800D01*
X144025000Y-125674800D01*
X144025000Y-125674799D01*
X144525000Y-125674799D01*
X144534713Y-125674799D01*
X144632967Y-125659239D01*
X144752924Y-125598117D01*
X144848117Y-125502924D01*
X144909237Y-125382970D01*
X144924800Y-125284712D01*
X144924800Y-125284706D01*
X145075200Y-125284706D01*
X145090760Y-125382967D01*
X145151882Y-125502924D01*
X145247075Y-125598117D01*
X145367030Y-125659237D01*
X145367028Y-125659237D01*
X145465284Y-125674800D01*
X145475000Y-125674800D01*
X145475000Y-125674799D01*
X145975000Y-125674799D01*
X145984713Y-125674799D01*
X146082967Y-125659239D01*
X146202924Y-125598117D01*
X146298117Y-125502924D01*
X146359237Y-125382970D01*
X146374999Y-125283453D01*
X146375000Y-125283446D01*
X146375000Y-125250000D01*
X145975000Y-125250000D01*
X145975000Y-125674799D01*
X145475000Y-125674799D01*
X145475000Y-125250000D01*
X145075200Y-125250000D01*
X145075200Y-125284706D01*
X144924800Y-125284706D01*
X144924800Y-125250000D01*
X144525000Y-125250000D01*
X144525000Y-125674799D01*
X144025000Y-125674799D01*
X144025000Y-125250000D01*
X143625001Y-125250000D01*
X143625001Y-125283456D01*
X143375500Y-125283456D01*
X143375500Y-124716546D01*
X143625000Y-124716546D01*
X143625000Y-124750000D01*
X144025000Y-124750000D01*
X144525000Y-124750000D01*
X144924799Y-124750000D01*
X144924799Y-124715293D01*
X145075199Y-124715293D01*
X145075199Y-124750000D01*
X145475000Y-124750000D01*
X145975000Y-124750000D01*
X146374999Y-124750000D01*
X146374999Y-124716555D01*
X146374998Y-124716543D01*
X146359239Y-124617032D01*
X146298117Y-124497075D01*
X146202924Y-124401882D01*
X146082969Y-124340762D01*
X146082971Y-124340762D01*
X145984706Y-124325199D01*
X145975000Y-124325199D01*
X145975000Y-124750000D01*
X145475000Y-124750000D01*
X145475000Y-124325200D01*
X145465291Y-124325200D01*
X145367032Y-124340760D01*
X145247075Y-124401882D01*
X145151882Y-124497075D01*
X145090762Y-124617029D01*
X145075199Y-124715293D01*
X144924799Y-124715293D01*
X144924799Y-124715286D01*
X144909239Y-124617032D01*
X144848117Y-124497075D01*
X144752924Y-124401882D01*
X144632969Y-124340762D01*
X144632971Y-124340762D01*
X144534706Y-124325199D01*
X144525000Y-124325199D01*
X144525000Y-124750000D01*
X144025000Y-124750000D01*
X144025000Y-124325200D01*
X144015291Y-124325200D01*
X143917032Y-124340760D01*
X143797075Y-124401882D01*
X143701882Y-124497075D01*
X143640762Y-124617029D01*
X143625000Y-124716546D01*
X143375500Y-124716546D01*
X143375500Y-124716512D01*
X143359719Y-124616874D01*
X143298528Y-124496780D01*
X143298527Y-124496779D01*
X143298526Y-124496777D01*
X143203222Y-124401473D01*
X143083126Y-124340281D01*
X143083128Y-124340281D01*
X143017548Y-124329894D01*
X142983488Y-124324500D01*
X142983487Y-124324500D01*
X142982060Y-124324274D01*
X142937070Y-124299336D01*
X142918635Y-124251312D01*
X142935383Y-124202675D01*
X142979475Y-124176182D01*
X142982060Y-124175726D01*
X142983487Y-124175500D01*
X142983488Y-124175500D01*
X143083126Y-124159719D01*
X143203220Y-124098528D01*
X143298528Y-124003220D01*
X143359719Y-123883126D01*
X143375500Y-123783488D01*
X143375500Y-123783456D01*
X143625001Y-123783456D01*
X143640760Y-123882967D01*
X143701882Y-124002924D01*
X143797075Y-124098117D01*
X143917030Y-124159237D01*
X143917028Y-124159237D01*
X144015284Y-124174800D01*
X144025000Y-124174800D01*
X144025000Y-124174799D01*
X144525000Y-124174799D01*
X144534713Y-124174799D01*
X144632967Y-124159239D01*
X144752924Y-124098117D01*
X144848117Y-124002924D01*
X144909237Y-123882970D01*
X144924800Y-123784712D01*
X144924800Y-123750000D01*
X145075314Y-123750000D01*
X145075444Y-123786249D01*
X145090760Y-123882967D01*
X145151882Y-124002924D01*
X145247075Y-124098117D01*
X145367030Y-124159237D01*
X145367028Y-124159237D01*
X145465284Y-124174800D01*
X145475000Y-124174800D01*
X145475000Y-124174799D01*
X145975000Y-124174799D01*
X145984713Y-124174799D01*
X146082967Y-124159239D01*
X146202924Y-124098117D01*
X146298117Y-124002924D01*
X146359237Y-123882970D01*
X146374999Y-123783453D01*
X146375000Y-123783446D01*
X146375000Y-123750000D01*
X145975000Y-123750000D01*
X145975000Y-124174799D01*
X145475000Y-124174799D01*
X145475000Y-123750000D01*
X145075314Y-123750000D01*
X144924800Y-123750000D01*
X144525000Y-123750000D01*
X144525000Y-124174799D01*
X144025000Y-124174799D01*
X144025000Y-123750000D01*
X143625001Y-123750000D01*
X143625001Y-123783456D01*
X143375500Y-123783456D01*
X143375500Y-123271961D01*
X143381115Y-123256533D01*
X143382546Y-123240180D01*
X143391960Y-123226733D01*
X143393093Y-123223623D01*
X143397514Y-123218798D01*
X143503736Y-123112576D01*
X143550354Y-123090838D01*
X143600041Y-123104152D01*
X143629546Y-123146288D01*
X143631182Y-123177515D01*
X143625000Y-123216544D01*
X143625000Y-123250000D01*
X144924998Y-123250000D01*
X144946824Y-123228174D01*
X144993444Y-123206434D01*
X145043131Y-123219747D01*
X145053173Y-123228174D01*
X145074999Y-123250000D01*
X146374999Y-123250000D01*
X146374999Y-123216555D01*
X146374998Y-123216546D01*
X146368817Y-123177515D01*
X146369343Y-123174807D01*
X146368177Y-123172306D01*
X146374196Y-123149840D01*
X146378633Y-123127020D01*
X146380776Y-123125283D01*
X146381491Y-123122619D01*
X146400539Y-123109280D01*
X146418609Y-123094649D01*
X146421367Y-123094697D01*
X146423628Y-123093114D01*
X146446794Y-123095141D01*
X146470041Y-123095547D01*
X146472938Y-123097428D01*
X146474872Y-123097598D01*
X146496265Y-123112578D01*
X146602474Y-123218787D01*
X146624214Y-123265407D01*
X146624500Y-123271961D01*
X146624500Y-123783490D01*
X146640281Y-123883127D01*
X146701473Y-124003222D01*
X146796777Y-124098526D01*
X146796779Y-124098527D01*
X146796780Y-124098528D01*
X146916872Y-124159718D01*
X146916874Y-124159719D01*
X147016512Y-124175500D01*
X147017939Y-124175726D01*
X147062929Y-124200664D01*
X147081364Y-124248688D01*
X147064616Y-124297325D01*
X147020524Y-124323818D01*
X147017939Y-124324274D01*
X146916872Y-124340281D01*
X146796777Y-124401473D01*
X146701473Y-124496777D01*
X146640281Y-124616872D01*
X146624500Y-124716509D01*
X146624500Y-125283490D01*
X146640281Y-125383127D01*
X146701473Y-125503222D01*
X146796777Y-125598526D01*
X146796779Y-125598527D01*
X146796780Y-125598528D01*
X146916872Y-125659718D01*
X146916874Y-125659719D01*
X147016512Y-125675500D01*
X147017939Y-125675726D01*
X147062929Y-125700664D01*
X147081364Y-125748688D01*
X147064616Y-125797325D01*
X147020524Y-125823818D01*
X147017939Y-125824274D01*
X146916872Y-125840281D01*
X146796777Y-125901473D01*
X146701473Y-125996777D01*
X146640281Y-126116872D01*
X146624500Y-126216509D01*
X146624500Y-126783490D01*
X146640281Y-126883127D01*
X146701473Y-127003222D01*
X146796778Y-127098527D01*
X146798057Y-127099179D01*
X146799304Y-127100362D01*
X146801569Y-127102008D01*
X146801352Y-127102306D01*
X146829045Y-127128584D01*
X146874499Y-127207314D01*
X146967685Y-127300500D01*
X147081811Y-127366391D01*
X147081813Y-127366391D01*
X147081814Y-127366392D01*
X147209108Y-127400500D01*
X147209111Y-127400500D01*
X147340889Y-127400500D01*
X147340892Y-127400500D01*
X147468186Y-127366392D01*
X147502798Y-127346409D01*
X147582314Y-127300500D01*
X147675496Y-127207318D01*
X147675500Y-127207314D01*
X147720955Y-127128582D01*
X147748649Y-127102303D01*
X147748433Y-127102005D01*
X147750700Y-127100357D01*
X147751943Y-127099178D01*
X147753220Y-127098528D01*
X147848528Y-127003220D01*
X147909719Y-126883126D01*
X147925026Y-126786476D01*
X147949964Y-126741488D01*
X147997987Y-126723053D01*
X148046625Y-126739800D01*
X148073118Y-126783893D01*
X148074500Y-126798242D01*
X148074500Y-127252616D01*
X148074501Y-127252628D01*
X148089352Y-127346405D01*
X148146951Y-127459448D01*
X148236655Y-127549152D01*
X148236657Y-127549153D01*
X148236658Y-127549154D01*
X148349694Y-127606749D01*
X148349696Y-127606750D01*
X148443481Y-127621604D01*
X148906518Y-127621603D01*
X148935400Y-127617029D01*
X149000301Y-127606751D01*
X149000302Y-127606750D01*
X149000304Y-127606750D01*
X149113342Y-127549154D01*
X149203050Y-127459446D01*
X149260646Y-127346408D01*
X149275500Y-127252623D01*
X149275499Y-127015790D01*
X149293092Y-126967454D01*
X149337640Y-126941734D01*
X149350699Y-126940591D01*
X149433583Y-126940591D01*
X149433586Y-126940591D01*
X149560880Y-126906483D01*
X149611700Y-126877142D01*
X149662358Y-126868209D01*
X149706906Y-126893929D01*
X149724500Y-126942267D01*
X149724500Y-127252616D01*
X149724501Y-127252628D01*
X149739352Y-127346405D01*
X149796951Y-127459448D01*
X149886655Y-127549152D01*
X149886657Y-127549153D01*
X149886658Y-127549154D01*
X149999694Y-127606749D01*
X149999696Y-127606750D01*
X150093481Y-127621604D01*
X150556518Y-127621603D01*
X150585400Y-127617029D01*
X150650301Y-127606751D01*
X150650302Y-127606750D01*
X150650304Y-127606750D01*
X150763342Y-127549154D01*
X150853050Y-127459446D01*
X150910646Y-127346408D01*
X150925500Y-127252623D01*
X150925500Y-127121900D01*
X150943093Y-127073562D01*
X150987642Y-127047842D01*
X151000700Y-127046700D01*
X151795213Y-127046700D01*
X151843551Y-127064293D01*
X151860338Y-127084300D01*
X151889521Y-127134847D01*
X152000152Y-127245478D01*
X152050940Y-127274800D01*
X152135647Y-127323706D01*
X152286772Y-127364200D01*
X152286775Y-127364200D01*
X152439530Y-127364200D01*
X152487868Y-127381793D01*
X152513588Y-127426342D01*
X152504655Y-127477000D01*
X152492704Y-127492574D01*
X152420703Y-127564574D01*
X152420701Y-127564577D01*
X152339079Y-127686732D01*
X152282861Y-127822454D01*
X152282860Y-127822455D01*
X152254200Y-127966544D01*
X152254200Y-128113455D01*
X152282860Y-128257544D01*
X152282861Y-128257545D01*
X152335655Y-128385000D01*
X152339080Y-128393269D01*
X152420699Y-128515420D01*
X152420701Y-128515422D01*
X152420703Y-128515425D01*
X152524574Y-128619296D01*
X152524577Y-128619298D01*
X152524580Y-128619301D01*
X152646731Y-128700920D01*
X152782454Y-128757138D01*
X152782455Y-128757139D01*
X152782456Y-128757139D01*
X152782458Y-128757140D01*
X152878949Y-128776332D01*
X152926544Y-128785800D01*
X152926545Y-128785800D01*
X153073456Y-128785800D01*
X153109232Y-128778683D01*
X153217542Y-128757140D01*
X153353269Y-128700920D01*
X153475420Y-128619301D01*
X153579301Y-128515420D01*
X153660920Y-128393269D01*
X153664345Y-128385000D01*
X155622229Y-128385000D01*
X156375000Y-128385000D01*
X156875000Y-128385000D01*
X157627770Y-128385000D01*
X157627588Y-128383751D01*
X157576284Y-128278808D01*
X157493691Y-128196215D01*
X157388748Y-128144912D01*
X157388749Y-128144912D01*
X157320727Y-128135000D01*
X156875000Y-128135000D01*
X156875000Y-128385000D01*
X156375000Y-128385000D01*
X156375000Y-128135000D01*
X155929283Y-128135000D01*
X155929268Y-128135002D01*
X155861258Y-128144910D01*
X155861250Y-128144912D01*
X155756308Y-128196215D01*
X155673715Y-128278808D01*
X155622411Y-128383751D01*
X155622229Y-128385000D01*
X153664345Y-128385000D01*
X153717140Y-128257542D01*
X153745800Y-128113455D01*
X153745800Y-127966545D01*
X153740329Y-127939042D01*
X153732564Y-127900000D01*
X153717140Y-127822458D01*
X153660920Y-127686731D01*
X153579301Y-127564580D01*
X153579298Y-127564577D01*
X153579296Y-127564574D01*
X153507296Y-127492574D01*
X153485556Y-127445954D01*
X153498870Y-127396267D01*
X153541007Y-127366762D01*
X153560470Y-127364200D01*
X153713225Y-127364200D01*
X153713228Y-127364200D01*
X153864353Y-127323706D01*
X153999847Y-127245478D01*
X154110478Y-127134847D01*
X154188706Y-126999353D01*
X154229200Y-126848228D01*
X154229200Y-126691772D01*
X154188706Y-126540647D01*
X154185471Y-126535044D01*
X154110478Y-126405152D01*
X153999847Y-126294521D01*
X153864353Y-126216294D01*
X153860591Y-126215286D01*
X153832046Y-126207637D01*
X153789910Y-126178133D01*
X153776596Y-126128446D01*
X153798335Y-126081826D01*
X153832045Y-126062362D01*
X153864353Y-126053706D01*
X153999847Y-125975478D01*
X154110478Y-125864847D01*
X154188706Y-125729353D01*
X154229200Y-125578228D01*
X154229200Y-125421772D01*
X154188706Y-125270647D01*
X154180221Y-125255951D01*
X154110478Y-125135152D01*
X153999847Y-125024521D01*
X153864354Y-124946294D01*
X153864347Y-124946291D01*
X153831078Y-124937377D01*
X153788941Y-124907872D01*
X153775628Y-124858185D01*
X153797368Y-124811565D01*
X153831080Y-124792102D01*
X153840914Y-124789466D01*
X153657026Y-124605578D01*
X153635286Y-124558958D01*
X153635000Y-124552404D01*
X153635000Y-124230000D01*
X153312595Y-124230000D01*
X153312592Y-124229999D01*
X153988553Y-124229999D01*
X153988553Y-124230001D01*
X154194467Y-124435915D01*
X154228700Y-124308159D01*
X154228700Y-124151840D01*
X154194467Y-124024084D01*
X153988553Y-124229999D01*
X153312592Y-124229999D01*
X153264257Y-124212407D01*
X153259420Y-124207974D01*
X153075531Y-124024084D01*
X153072896Y-124033918D01*
X153043391Y-124076054D01*
X152993704Y-124089368D01*
X152947083Y-124067628D01*
X152927621Y-124033918D01*
X152918706Y-124000647D01*
X152902017Y-123971741D01*
X152840478Y-123865152D01*
X152729847Y-123754521D01*
X152594353Y-123676294D01*
X152584493Y-123673652D01*
X152505701Y-123652539D01*
X152463566Y-123623036D01*
X152450252Y-123573349D01*
X152471990Y-123526730D01*
X152563301Y-123435420D01*
X152644920Y-123313269D01*
X152701140Y-123177542D01*
X152729800Y-123033455D01*
X152729800Y-122886545D01*
X152701140Y-122742458D01*
X152644920Y-122606731D01*
X152594438Y-122531179D01*
X152582211Y-122481213D01*
X152604962Y-122435078D01*
X152652046Y-122414361D01*
X152656964Y-122414200D01*
X153343036Y-122414200D01*
X153391374Y-122431793D01*
X153417094Y-122476342D01*
X153408161Y-122527000D01*
X153405562Y-122531179D01*
X153355081Y-122606728D01*
X153355081Y-122606729D01*
X153298861Y-122742454D01*
X153298860Y-122742455D01*
X153270200Y-122886544D01*
X153270200Y-123033455D01*
X153298860Y-123177544D01*
X153298861Y-123177545D01*
X153352284Y-123306519D01*
X153355080Y-123313269D01*
X153436699Y-123435420D01*
X153436701Y-123435422D01*
X153436703Y-123435425D01*
X153528414Y-123527136D01*
X153550154Y-123573756D01*
X153536840Y-123623443D01*
X153494703Y-123652948D01*
X153429083Y-123670530D01*
X153634999Y-123876445D01*
X153799935Y-123711509D01*
X153846555Y-123689769D01*
X153867774Y-123690927D01*
X153919937Y-123701303D01*
X153942544Y-123705800D01*
X153942545Y-123705800D01*
X154089456Y-123705800D01*
X154130781Y-123697580D01*
X154233542Y-123677140D01*
X154369269Y-123620920D01*
X154491420Y-123539301D01*
X154595301Y-123435420D01*
X154676920Y-123313269D01*
X154713924Y-123223932D01*
X154748677Y-123186008D01*
X154799676Y-123179294D01*
X154843060Y-123206932D01*
X154858600Y-123252711D01*
X154858600Y-125838872D01*
X154858600Y-125911728D01*
X154877456Y-125982103D01*
X154907455Y-126034061D01*
X154913886Y-126045199D01*
X155722078Y-126853391D01*
X155743818Y-126900011D01*
X155730504Y-126949698D01*
X155722079Y-126959739D01*
X155673302Y-127008516D01*
X155621927Y-127113606D01*
X155612000Y-127181731D01*
X155612000Y-127548268D01*
X155621927Y-127616393D01*
X155673303Y-127721485D01*
X155756014Y-127804196D01*
X155756015Y-127804196D01*
X155756017Y-127804198D01*
X155861107Y-127855573D01*
X155911036Y-127862847D01*
X155929231Y-127865499D01*
X155929236Y-127865499D01*
X155929240Y-127865500D01*
X155929242Y-127865500D01*
X157320758Y-127865500D01*
X157320760Y-127865500D01*
X157320764Y-127865499D01*
X157320768Y-127865499D01*
X157330446Y-127864088D01*
X157388893Y-127855573D01*
X157493983Y-127804198D01*
X157576698Y-127721483D01*
X157628073Y-127616393D01*
X157636588Y-127557946D01*
X157637999Y-127548268D01*
X157638000Y-127548258D01*
X157638000Y-127181741D01*
X157637999Y-127181731D01*
X157634927Y-127160646D01*
X157628073Y-127113607D01*
X157576698Y-127008517D01*
X157576696Y-127008515D01*
X157576696Y-127008514D01*
X157493985Y-126925803D01*
X157486572Y-126922179D01*
X157388893Y-126874427D01*
X157320768Y-126864500D01*
X157320760Y-126864500D01*
X156546961Y-126864500D01*
X156498623Y-126846907D01*
X156493787Y-126842474D01*
X155434026Y-125782713D01*
X155412286Y-125736093D01*
X155412000Y-125729539D01*
X155412000Y-124885000D01*
X155622230Y-124885000D01*
X155622411Y-124886248D01*
X155673715Y-124991191D01*
X155756308Y-125073784D01*
X155861251Y-125125087D01*
X155861250Y-125125087D01*
X155929277Y-125134999D01*
X156375000Y-125134999D01*
X156875000Y-125134999D01*
X157320715Y-125134999D01*
X157320717Y-125134998D01*
X157388748Y-125125088D01*
X157388749Y-125125087D01*
X157493691Y-125073784D01*
X157576284Y-124991191D01*
X157627588Y-124886248D01*
X157627770Y-124885000D01*
X156875000Y-124885000D01*
X156875000Y-125134999D01*
X156375000Y-125134999D01*
X156375000Y-124885000D01*
X155622230Y-124885000D01*
X155412000Y-124885000D01*
X155412000Y-124385000D01*
X155622229Y-124385000D01*
X156375000Y-124385000D01*
X156875000Y-124385000D01*
X157627770Y-124385000D01*
X157627588Y-124383751D01*
X157576284Y-124278808D01*
X157493691Y-124196215D01*
X157388748Y-124144912D01*
X157388749Y-124144912D01*
X157320727Y-124135000D01*
X156875000Y-124135000D01*
X156875000Y-124385000D01*
X156375000Y-124385000D01*
X156375000Y-124135000D01*
X155929283Y-124135000D01*
X155929268Y-124135002D01*
X155861258Y-124144910D01*
X155861250Y-124144912D01*
X155756308Y-124196215D01*
X155673715Y-124278808D01*
X155622411Y-124383751D01*
X155622229Y-124385000D01*
X155412000Y-124385000D01*
X155412000Y-123333203D01*
X155429593Y-123284865D01*
X155474142Y-123259145D01*
X155524800Y-123268078D01*
X155540374Y-123280029D01*
X155589974Y-123329629D01*
X155611714Y-123376249D01*
X155612000Y-123382803D01*
X155612000Y-123548268D01*
X155621927Y-123616393D01*
X155673303Y-123721485D01*
X155756014Y-123804196D01*
X155756015Y-123804196D01*
X155756017Y-123804198D01*
X155861107Y-123855573D01*
X155911036Y-123862847D01*
X155929231Y-123865499D01*
X155929236Y-123865499D01*
X155929240Y-123865500D01*
X155929242Y-123865500D01*
X157320758Y-123865500D01*
X157320760Y-123865500D01*
X157320764Y-123865499D01*
X157320768Y-123865499D01*
X157330446Y-123864088D01*
X157388893Y-123855573D01*
X157493983Y-123804198D01*
X157576698Y-123721483D01*
X157628073Y-123616393D01*
X157638000Y-123548260D01*
X157638000Y-123181740D01*
X157637388Y-123177542D01*
X157634812Y-123159862D01*
X157628073Y-123113607D01*
X157576698Y-123008517D01*
X157576696Y-123008515D01*
X157576696Y-123008514D01*
X157493985Y-122925803D01*
X157445499Y-122902100D01*
X157388893Y-122874427D01*
X157320768Y-122864500D01*
X157320760Y-122864500D01*
X155938619Y-122864500D01*
X155890281Y-122846907D01*
X155885445Y-122842474D01*
X154671345Y-121628374D01*
X154649605Y-121581754D01*
X154662919Y-121532067D01*
X154705056Y-121502562D01*
X154724519Y-121500000D01*
X158424800Y-121500000D01*
X158473138Y-121517593D01*
G37*
%TD.AperFunction*%
%TA.AperFunction,Conductor*%
G36*
X141150476Y-121517593D02*
G01*
X141176196Y-121562142D01*
X141167263Y-121612800D01*
X141155312Y-121628374D01*
X139979078Y-122804607D01*
X139932458Y-122826347D01*
X139914147Y-122825708D01*
X139906519Y-122824500D01*
X139906514Y-122824500D01*
X139443487Y-122824500D01*
X139443475Y-122824501D01*
X139349698Y-122839352D01*
X139236655Y-122896951D01*
X139146951Y-122986655D01*
X139089354Y-123099694D01*
X139075840Y-123185013D01*
X139075839Y-123185021D01*
X139074500Y-123193481D01*
X139074500Y-123321604D01*
X139074500Y-123678038D01*
X139056907Y-123726376D01*
X139052474Y-123731212D01*
X138730074Y-124053612D01*
X138683454Y-124075352D01*
X138633767Y-124062038D01*
X138604262Y-124019901D01*
X138601700Y-124000438D01*
X138601700Y-123731074D01*
X138619293Y-123682736D01*
X138645808Y-123664858D01*
X138645031Y-123663333D01*
X138676026Y-123647540D01*
X138763342Y-123603050D01*
X138853050Y-123513342D01*
X138910646Y-123400304D01*
X138925500Y-123306519D01*
X138925499Y-122693482D01*
X138920299Y-122660645D01*
X138910647Y-122599698D01*
X138903107Y-122584900D01*
X138853050Y-122486658D01*
X138853049Y-122486657D01*
X138853048Y-122486655D01*
X138763344Y-122396951D01*
X138650304Y-122339354D01*
X138650306Y-122339354D01*
X138603241Y-122331900D01*
X138556519Y-122324500D01*
X138556517Y-122324500D01*
X138093487Y-122324500D01*
X138093475Y-122324501D01*
X137999698Y-122339352D01*
X137886655Y-122396951D01*
X137796951Y-122486655D01*
X137739354Y-122599694D01*
X137724500Y-122693478D01*
X137724500Y-123306512D01*
X137724501Y-123306524D01*
X137739352Y-123400301D01*
X137796951Y-123513344D01*
X137886655Y-123603048D01*
X137886657Y-123603049D01*
X137886658Y-123603050D01*
X137962903Y-123641899D01*
X138004969Y-123663333D01*
X138004218Y-123664806D01*
X138010700Y-123665949D01*
X138022449Y-123679950D01*
X138036859Y-123691201D01*
X138039441Y-123700201D01*
X138043765Y-123705354D01*
X138048300Y-123731074D01*
X138048300Y-123824300D01*
X138030707Y-123872638D01*
X137986158Y-123898358D01*
X137973100Y-123899500D01*
X137730251Y-123899500D01*
X137686436Y-123908215D01*
X137677556Y-123909982D01*
X137664505Y-123912578D01*
X137663988Y-123909982D01*
X137634440Y-123912877D01*
X137569700Y-123900000D01*
X137375000Y-123900000D01*
X137375000Y-124650000D01*
X137474300Y-124650000D01*
X137522638Y-124667593D01*
X137548358Y-124712142D01*
X137549500Y-124725200D01*
X137549500Y-124769748D01*
X137561132Y-124828229D01*
X137561133Y-124828231D01*
X137605448Y-124894552D01*
X137671769Y-124938867D01*
X137712771Y-124947022D01*
X137756747Y-124973707D01*
X137773300Y-125020777D01*
X137773300Y-126979222D01*
X137755707Y-127027560D01*
X137712771Y-127052977D01*
X137671771Y-127061132D01*
X137671768Y-127061133D01*
X137605448Y-127105448D01*
X137561133Y-127171768D01*
X137561132Y-127171770D01*
X137549500Y-127230251D01*
X137549500Y-127274800D01*
X137531907Y-127323138D01*
X137487358Y-127348858D01*
X137474300Y-127350000D01*
X137375000Y-127350000D01*
X137375000Y-127649800D01*
X137357407Y-127698138D01*
X137312858Y-127723858D01*
X137299800Y-127725000D01*
X137200000Y-127725000D01*
X137200000Y-127824800D01*
X137182407Y-127873138D01*
X137137858Y-127898858D01*
X137124800Y-127900000D01*
X136644000Y-127900000D01*
X136595662Y-127882407D01*
X136569942Y-127837858D01*
X136568819Y-127825018D01*
X136568801Y-127825000D01*
X135849999Y-127825000D01*
X135836330Y-127838669D01*
X135818625Y-127846925D01*
X135802619Y-127858133D01*
X135795859Y-127857541D01*
X135789710Y-127860409D01*
X135770837Y-127855352D01*
X135751375Y-127853649D01*
X135743250Y-127847959D01*
X135740023Y-127847095D01*
X135729982Y-127838669D01*
X135698726Y-127807413D01*
X135676986Y-127760793D01*
X135676700Y-127754239D01*
X135676700Y-127419571D01*
X136931200Y-127419571D01*
X136931200Y-127550000D01*
X137025000Y-127550000D01*
X137025000Y-127350000D01*
X136969592Y-127350000D01*
X136931200Y-127419571D01*
X135676700Y-127419571D01*
X135676700Y-127230301D01*
X135850000Y-127230301D01*
X135850000Y-127325000D01*
X136100000Y-127325000D01*
X136600000Y-127325000D01*
X136811608Y-127325000D01*
X136850000Y-127255428D01*
X136850000Y-127230301D01*
X136838396Y-127171965D01*
X136838395Y-127171964D01*
X136794191Y-127105808D01*
X136728035Y-127061604D01*
X136728034Y-127061603D01*
X136669699Y-127050000D01*
X136600000Y-127050000D01*
X136600000Y-127325000D01*
X136100000Y-127325000D01*
X136100000Y-127050000D01*
X136030301Y-127050000D01*
X135971965Y-127061603D01*
X135971964Y-127061604D01*
X135905808Y-127105808D01*
X135861604Y-127171964D01*
X135861603Y-127171965D01*
X135850000Y-127230301D01*
X135676700Y-127230301D01*
X135676700Y-125197336D01*
X135665246Y-125154587D01*
X135657844Y-125126960D01*
X135621415Y-125063865D01*
X135327248Y-124769698D01*
X135850000Y-124769698D01*
X135861603Y-124828034D01*
X135861604Y-124828035D01*
X135905808Y-124894191D01*
X135971964Y-124938395D01*
X135971965Y-124938396D01*
X136030301Y-124950000D01*
X136100000Y-124950000D01*
X136600000Y-124950000D01*
X136669699Y-124950000D01*
X136728034Y-124938396D01*
X136728035Y-124938395D01*
X136794191Y-124894191D01*
X136838395Y-124828035D01*
X136838396Y-124828034D01*
X136850000Y-124769698D01*
X136850000Y-124744571D01*
X136811608Y-124675000D01*
X136600000Y-124675000D01*
X136600000Y-124950000D01*
X136100000Y-124950000D01*
X136100000Y-124675000D01*
X135850000Y-124675000D01*
X135850000Y-124769698D01*
X135327248Y-124769698D01*
X135137978Y-124580428D01*
X136931200Y-124580428D01*
X136969592Y-124650000D01*
X137025000Y-124650000D01*
X137025000Y-124450000D01*
X136931200Y-124450000D01*
X136931200Y-124580428D01*
X135137978Y-124580428D01*
X134966135Y-124408585D01*
X134903040Y-124372156D01*
X134903037Y-124372155D01*
X134903038Y-124372155D01*
X134858420Y-124360200D01*
X134832665Y-124353300D01*
X134832664Y-124353300D01*
X131645700Y-124353300D01*
X131597362Y-124335707D01*
X131571642Y-124291158D01*
X131570500Y-124278100D01*
X131570500Y-123971741D01*
X131570499Y-123971731D01*
X131564694Y-123931892D01*
X131560573Y-123903607D01*
X131509198Y-123798517D01*
X131509196Y-123798515D01*
X131509196Y-123798514D01*
X131426485Y-123715803D01*
X131414439Y-123709914D01*
X131321393Y-123664427D01*
X131253268Y-123654500D01*
X131253260Y-123654500D01*
X130886740Y-123654500D01*
X130886731Y-123654500D01*
X130818606Y-123664427D01*
X130713514Y-123715803D01*
X130626395Y-123802923D01*
X130625407Y-123801935D01*
X130588793Y-123827074D01*
X130537592Y-123822119D01*
X130515714Y-123806299D01*
X130510180Y-123800526D01*
X130509198Y-123798517D01*
X130486384Y-123775703D01*
X130485852Y-123775148D01*
X130475774Y-123752288D01*
X130465224Y-123729665D01*
X130465417Y-123728793D01*
X130465102Y-123728079D01*
X130467095Y-123721221D01*
X130475011Y-123685513D01*
X130526816Y-123595786D01*
X130560924Y-123468492D01*
X130560924Y-123434108D01*
X134999500Y-123434108D01*
X134999500Y-123565892D01*
X135018232Y-123635800D01*
X135033608Y-123693188D01*
X135099499Y-123807314D01*
X135192685Y-123900500D01*
X135306811Y-123966391D01*
X135306813Y-123966391D01*
X135306814Y-123966392D01*
X135434108Y-124000500D01*
X135434111Y-124000500D01*
X135565889Y-124000500D01*
X135565892Y-124000500D01*
X135693186Y-123966392D01*
X135752942Y-123931891D01*
X135803599Y-123922959D01*
X135848147Y-123948679D01*
X135865741Y-123997016D01*
X135862256Y-124014542D01*
X135863049Y-124014700D01*
X135850000Y-124080301D01*
X135850000Y-124175000D01*
X136100000Y-124175000D01*
X136100000Y-124100000D01*
X136600000Y-124100000D01*
X137025000Y-124100000D01*
X137025000Y-123900000D01*
X136830301Y-123900000D01*
X136764701Y-123913049D01*
X136764007Y-123909564D01*
X136735815Y-123910451D01*
X136735299Y-123913049D01*
X136669699Y-123900000D01*
X136600000Y-123900000D01*
X136600000Y-124100000D01*
X136100000Y-124100000D01*
X136100000Y-123894190D01*
X136083335Y-123858454D01*
X136096649Y-123808767D01*
X136138786Y-123779262D01*
X136158249Y-123776700D01*
X136211427Y-123776700D01*
X136211428Y-123776700D01*
X136281803Y-123757844D01*
X136344898Y-123721415D01*
X136370920Y-123695391D01*
X136417537Y-123673652D01*
X136435853Y-123674291D01*
X136443481Y-123675500D01*
X136906518Y-123675499D01*
X136914646Y-123674211D01*
X137000301Y-123660647D01*
X137000302Y-123660646D01*
X137000304Y-123660646D01*
X137113342Y-123603050D01*
X137203050Y-123513342D01*
X137260646Y-123400304D01*
X137275500Y-123306519D01*
X137275499Y-122693482D01*
X137270299Y-122660645D01*
X137260647Y-122599698D01*
X137253107Y-122584900D01*
X137203050Y-122486658D01*
X137203049Y-122486657D01*
X137203048Y-122486655D01*
X137113344Y-122396951D01*
X137000304Y-122339354D01*
X137000306Y-122339354D01*
X136953241Y-122331900D01*
X136906519Y-122324500D01*
X136906517Y-122324500D01*
X136443487Y-122324500D01*
X136443475Y-122324501D01*
X136349698Y-122339352D01*
X136236655Y-122396951D01*
X136146951Y-122486655D01*
X136089354Y-122599694D01*
X136074500Y-122693478D01*
X136074500Y-123148100D01*
X136067817Y-123166459D01*
X136064425Y-123185700D01*
X136059228Y-123190060D01*
X136056907Y-123196438D01*
X136039984Y-123206207D01*
X136025020Y-123218765D01*
X136015251Y-123220487D01*
X136012358Y-123222158D01*
X135999300Y-123223300D01*
X135961076Y-123223300D01*
X135912738Y-123205707D01*
X135901418Y-123193881D01*
X135900500Y-123192685D01*
X135807314Y-123099499D01*
X135693188Y-123033608D01*
X135642268Y-123019964D01*
X135565892Y-122999500D01*
X135434108Y-122999500D01*
X135370461Y-123016554D01*
X135306811Y-123033608D01*
X135192685Y-123099499D01*
X135099499Y-123192685D01*
X135033608Y-123306811D01*
X135026537Y-123333203D01*
X134999500Y-123434108D01*
X130560924Y-123434108D01*
X130560924Y-123336708D01*
X130526816Y-123209414D01*
X130526815Y-123209412D01*
X130471036Y-123112800D01*
X130462103Y-123062142D01*
X130487823Y-123017594D01*
X130536161Y-123000000D01*
X132500000Y-123000000D01*
X133977974Y-121522026D01*
X134024594Y-121500286D01*
X134031148Y-121500000D01*
X141102138Y-121500000D01*
X141150476Y-121517593D01*
G37*
%TD.AperFunction*%
%TA.AperFunction,Conductor*%
G36*
X133508169Y-125339693D02*
G01*
X133533889Y-125384242D01*
X133534105Y-125409064D01*
X133525000Y-125466546D01*
X133525000Y-125475000D01*
X134124800Y-125475000D01*
X134173138Y-125492593D01*
X134198858Y-125537142D01*
X134200000Y-125550200D01*
X134200000Y-125725000D01*
X134374800Y-125725000D01*
X134423138Y-125742593D01*
X134448858Y-125787142D01*
X134450000Y-125800200D01*
X134450000Y-126374999D01*
X134483445Y-126374999D01*
X134483451Y-126374998D01*
X134540936Y-126365894D01*
X134565563Y-126370680D01*
X134590300Y-126375043D01*
X134590747Y-126375576D01*
X134591431Y-126375709D01*
X134607221Y-126395209D01*
X134623365Y-126414448D01*
X134623522Y-126415339D01*
X134623803Y-126415686D01*
X134627900Y-126440168D01*
X134627900Y-126559325D01*
X134610307Y-126607663D01*
X134565758Y-126633383D01*
X134540937Y-126633598D01*
X134519155Y-126630149D01*
X134483490Y-126624500D01*
X134483488Y-126624500D01*
X134209090Y-126624500D01*
X134160752Y-126606907D01*
X134155916Y-126602474D01*
X133972026Y-126418584D01*
X133950286Y-126371964D01*
X133950000Y-126365410D01*
X133950000Y-125975000D01*
X133525000Y-125975000D01*
X133521526Y-125978474D01*
X133474906Y-126000214D01*
X133468352Y-126000500D01*
X133206676Y-126000500D01*
X133158338Y-125982907D01*
X133153502Y-125978474D01*
X132953614Y-125778586D01*
X132953613Y-125778585D01*
X132890518Y-125742156D01*
X132890515Y-125742155D01*
X132890516Y-125742155D01*
X132842730Y-125729352D01*
X132820143Y-125723300D01*
X132820142Y-125723300D01*
X132116876Y-125723300D01*
X132068538Y-125705707D01*
X132042818Y-125661158D01*
X132051751Y-125610500D01*
X132063702Y-125594926D01*
X132314502Y-125344126D01*
X132361122Y-125322386D01*
X132367676Y-125322100D01*
X133459831Y-125322100D01*
X133508169Y-125339693D01*
G37*
%TD.AperFunction*%
%TA.AperFunction,Conductor*%
G36*
X151017190Y-117517593D02*
G01*
X151022026Y-117522026D01*
X151477974Y-117977974D01*
X151499714Y-118024594D01*
X151500000Y-118031148D01*
X151500000Y-120000000D01*
X152926626Y-121426626D01*
X152948366Y-121473246D01*
X152935052Y-121522933D01*
X152892915Y-121552438D01*
X152873452Y-121555000D01*
X150933955Y-121555000D01*
X150885617Y-121537407D01*
X150866952Y-121513941D01*
X150853050Y-121486657D01*
X150763344Y-121396951D01*
X150650304Y-121339354D01*
X150650306Y-121339354D01*
X150603411Y-121331927D01*
X150556519Y-121324500D01*
X150556517Y-121324500D01*
X150093487Y-121324500D01*
X150093475Y-121324501D01*
X149999698Y-121339352D01*
X149886655Y-121396951D01*
X149796951Y-121486655D01*
X149739354Y-121599694D01*
X149724500Y-121693478D01*
X149724500Y-122306512D01*
X149724501Y-122306524D01*
X149739352Y-122400301D01*
X149796951Y-122513344D01*
X149886655Y-122603048D01*
X149886657Y-122603049D01*
X149886658Y-122603050D01*
X149999696Y-122660646D01*
X150093481Y-122675500D01*
X150093485Y-122675499D01*
X150094912Y-122675726D01*
X150139903Y-122700664D01*
X150158338Y-122748687D01*
X150141591Y-122797325D01*
X150097498Y-122823818D01*
X150094912Y-122824274D01*
X149999697Y-122839352D01*
X149886655Y-122896951D01*
X149796951Y-122986655D01*
X149739354Y-123099694D01*
X149724500Y-123193478D01*
X149724500Y-123806512D01*
X149724501Y-123806524D01*
X149739352Y-123900301D01*
X149796951Y-124013344D01*
X149878533Y-124094926D01*
X149900273Y-124141546D01*
X149886959Y-124191233D01*
X149844822Y-124220738D01*
X149825359Y-124223300D01*
X149174641Y-124223300D01*
X149126303Y-124205707D01*
X149100583Y-124161158D01*
X149109516Y-124110500D01*
X149121467Y-124094926D01*
X149203048Y-124013344D01*
X149203050Y-124013342D01*
X149260646Y-123900304D01*
X149275500Y-123806519D01*
X149275499Y-123193482D01*
X149273640Y-123181741D01*
X149260647Y-123099698D01*
X149225502Y-123030722D01*
X149203050Y-122986658D01*
X149203049Y-122986657D01*
X149203048Y-122986655D01*
X149113344Y-122896951D01*
X149000304Y-122839354D01*
X149000306Y-122839354D01*
X148905086Y-122824273D01*
X148860096Y-122799335D01*
X148841661Y-122751311D01*
X148858409Y-122702674D01*
X148902501Y-122676181D01*
X148905088Y-122675725D01*
X148906515Y-122675499D01*
X148906518Y-122675499D01*
X148943930Y-122669573D01*
X149000302Y-122660647D01*
X149000306Y-122660645D01*
X149113342Y-122603050D01*
X149203050Y-122513342D01*
X149260646Y-122400304D01*
X149275500Y-122306519D01*
X149275499Y-121693482D01*
X149265188Y-121628374D01*
X149260647Y-121599698D01*
X149251504Y-121581754D01*
X149203050Y-121486658D01*
X149203049Y-121486657D01*
X149203048Y-121486655D01*
X149113344Y-121396951D01*
X149000304Y-121339354D01*
X149000306Y-121339354D01*
X148953411Y-121331927D01*
X148906519Y-121324500D01*
X148906517Y-121324500D01*
X148443487Y-121324500D01*
X148443475Y-121324501D01*
X148349698Y-121339352D01*
X148236655Y-121396951D01*
X148146951Y-121486655D01*
X148089354Y-121599694D01*
X148079825Y-121659863D01*
X148054887Y-121704854D01*
X148006864Y-121723289D01*
X148005551Y-121723300D01*
X147753229Y-121723300D01*
X147704891Y-121705707D01*
X147700055Y-121701275D01*
X147525713Y-121526934D01*
X147525709Y-121526929D01*
X147485435Y-121486655D01*
X147419365Y-121420585D01*
X147356270Y-121384156D01*
X147356267Y-121384155D01*
X147356268Y-121384155D01*
X147311650Y-121372200D01*
X147285895Y-121365300D01*
X146316248Y-121365300D01*
X146267910Y-121347707D01*
X146242190Y-121303158D01*
X146251123Y-121252500D01*
X146263074Y-121236926D01*
X147500000Y-120000000D01*
X147500000Y-118031148D01*
X147517593Y-117982810D01*
X147522026Y-117977974D01*
X147977974Y-117522026D01*
X148024594Y-117500286D01*
X148031148Y-117500000D01*
X150968852Y-117500000D01*
X151017190Y-117517593D01*
G37*
%TD.AperFunction*%
%TA.AperFunction,Conductor*%
G36*
X144583523Y-121517593D02*
G01*
X144609243Y-121562142D01*
X144600310Y-121612800D01*
X144588359Y-121628374D01*
X144484341Y-121732391D01*
X144462618Y-121770015D01*
X144444642Y-121790997D01*
X144440116Y-121794639D01*
X144398443Y-121818700D01*
X144349886Y-121867256D01*
X144346720Y-121869805D01*
X144325983Y-121876875D01*
X144306125Y-121886135D01*
X144302037Y-121885039D01*
X144298033Y-121886405D01*
X144277605Y-121878492D01*
X144256438Y-121872821D01*
X144250847Y-121868128D01*
X144250065Y-121867826D01*
X144249703Y-121867169D01*
X144246398Y-121864395D01*
X144200702Y-121818699D01*
X144086576Y-121752808D01*
X144035656Y-121739164D01*
X143959280Y-121718700D01*
X143827496Y-121718700D01*
X143763849Y-121735754D01*
X143700199Y-121752808D01*
X143692331Y-121757352D01*
X143641673Y-121766285D01*
X143601557Y-121745401D01*
X143484530Y-121628374D01*
X143462790Y-121581754D01*
X143476104Y-121532067D01*
X143518241Y-121502562D01*
X143537704Y-121500000D01*
X144535185Y-121500000D01*
X144583523Y-121517593D01*
G37*
%TD.AperFunction*%
%TD*%
%TA.AperFunction,Conductor*%
%TO.N,GNDPWR*%
G36*
X133771492Y-111074209D02*
G01*
X133816971Y-111103856D01*
X133878592Y-111167099D01*
X133878595Y-111167101D01*
X133882017Y-111170613D01*
X133885089Y-111172824D01*
X133896253Y-111180038D01*
X133899194Y-111182193D01*
X133899772Y-111182949D01*
X133906226Y-111187746D01*
X133908456Y-111189642D01*
X133911034Y-111191498D01*
X133913397Y-111193199D01*
X133984248Y-111229004D01*
X133984250Y-111229005D01*
X133995489Y-111232628D01*
X134028178Y-111243170D01*
X134106592Y-111255500D01*
X135266879Y-111255500D01*
X135333918Y-111275185D01*
X135344340Y-111282671D01*
X136219791Y-111983033D01*
X136294827Y-112024617D01*
X136341804Y-112041096D01*
X136426378Y-112055500D01*
X137500500Y-112055500D01*
X137567539Y-112075185D01*
X137613294Y-112127989D01*
X137624500Y-112179500D01*
X137624500Y-112725177D01*
X137639032Y-112798236D01*
X137640059Y-112800714D01*
X137641686Y-112808893D01*
X137644477Y-112813236D01*
X137649500Y-112848171D01*
X137649500Y-112925500D01*
X137629815Y-112992539D01*
X137577011Y-113038294D01*
X137525500Y-113049500D01*
X136275323Y-113049500D01*
X136202264Y-113064032D01*
X136202260Y-113064033D01*
X136119399Y-113119399D01*
X136064033Y-113202260D01*
X136064032Y-113202264D01*
X136049500Y-113275321D01*
X136049500Y-114525500D01*
X136046949Y-114534185D01*
X136048238Y-114543147D01*
X136037259Y-114567187D01*
X136029815Y-114592539D01*
X136022974Y-114598466D01*
X136019213Y-114606703D01*
X135996978Y-114620992D01*
X135977011Y-114638294D01*
X135966496Y-114640581D01*
X135960435Y-114644477D01*
X135925500Y-114649500D01*
X135708676Y-114649500D01*
X135641637Y-114629815D01*
X135620995Y-114613181D01*
X135607316Y-114599502D01*
X135607314Y-114599500D01*
X135550250Y-114566554D01*
X135493187Y-114533608D01*
X135429539Y-114516554D01*
X135365892Y-114499500D01*
X135365891Y-114499500D01*
X135354324Y-114499500D01*
X135287285Y-114479815D01*
X135266643Y-114463181D01*
X133536819Y-112733356D01*
X133503334Y-112672033D01*
X133500500Y-112645675D01*
X133500500Y-111294051D01*
X133509145Y-111264607D01*
X133515668Y-111234625D01*
X133519422Y-111229609D01*
X133520185Y-111227012D01*
X133536810Y-111206379D01*
X133640482Y-111102707D01*
X133701800Y-111069225D01*
X133771492Y-111074209D01*
G37*
%TD.AperFunction*%
%TA.AperFunction,Conductor*%
G36*
X141995979Y-111272089D02*
G01*
X142043998Y-111322843D01*
X142057563Y-111379235D01*
X142057563Y-112883261D01*
X142037878Y-112950300D01*
X142021244Y-112970942D01*
X140519250Y-114472935D01*
X140463663Y-114505028D01*
X140357003Y-114533608D01*
X140357001Y-114533608D01*
X140357001Y-114533609D01*
X140242875Y-114599500D01*
X140242872Y-114599502D01*
X140229194Y-114613181D01*
X140202266Y-114627884D01*
X140176448Y-114644477D01*
X140170247Y-114645368D01*
X140167871Y-114646666D01*
X140141513Y-114649500D01*
X140074500Y-114649500D01*
X140007461Y-114629815D01*
X139961706Y-114577011D01*
X139950500Y-114525500D01*
X139950500Y-113275323D01*
X139950499Y-113275321D01*
X139935967Y-113202264D01*
X139935966Y-113202260D01*
X139905504Y-113156670D01*
X139880601Y-113119399D01*
X139797740Y-113064034D01*
X139797739Y-113064033D01*
X139797735Y-113064032D01*
X139724677Y-113049500D01*
X139724674Y-113049500D01*
X138474500Y-113049500D01*
X138465814Y-113046949D01*
X138456853Y-113048238D01*
X138432812Y-113037259D01*
X138407461Y-113029815D01*
X138401533Y-113022974D01*
X138393297Y-113019213D01*
X138379007Y-112996978D01*
X138361706Y-112977011D01*
X138359418Y-112966496D01*
X138355523Y-112960435D01*
X138350500Y-112925500D01*
X138350500Y-112848171D01*
X138359941Y-112800714D01*
X138360967Y-112798236D01*
X138375499Y-112725177D01*
X138375500Y-112725175D01*
X138375500Y-112179500D01*
X138395185Y-112112461D01*
X138447989Y-112066706D01*
X138499500Y-112055500D01*
X139668828Y-112055500D01*
X139668852Y-112055500D01*
X139679991Y-112055257D01*
X139683841Y-112055089D01*
X139685958Y-112055042D01*
X139686547Y-112054971D01*
X139686554Y-112054971D01*
X139783388Y-112031274D01*
X139830008Y-112009534D01*
X139902692Y-111958640D01*
X140569513Y-111291819D01*
X140630836Y-111258334D01*
X140657194Y-111255500D01*
X141924806Y-111255500D01*
X141927848Y-111255366D01*
X141928143Y-111255354D01*
X141995979Y-111272089D01*
G37*
%TD.AperFunction*%
%TA.AperFunction,Conductor*%
G36*
X137229716Y-106176786D02*
G01*
X137234180Y-106175816D01*
X137262932Y-106186540D01*
X137292373Y-106195185D01*
X137296559Y-106199082D01*
X137299644Y-106200233D01*
X137324601Y-106225189D01*
X137334103Y-106237882D01*
X137410313Y-106339687D01*
X137519774Y-106421628D01*
X137647886Y-106469412D01*
X137704515Y-106475500D01*
X138295484Y-106475499D01*
X138352114Y-106469412D01*
X138480226Y-106421628D01*
X138589687Y-106339687D01*
X138665897Y-106237882D01*
X138675399Y-106225189D01*
X138731333Y-106183318D01*
X138774666Y-106175500D01*
X139214520Y-106175500D01*
X139281559Y-106195185D01*
X139315031Y-106231628D01*
X139316689Y-106230405D01*
X139322206Y-106237881D01*
X139322207Y-106237882D01*
X139402850Y-106347150D01*
X139512118Y-106427793D01*
X139554845Y-106442744D01*
X139640299Y-106472646D01*
X139670730Y-106475500D01*
X139670734Y-106475500D01*
X140329270Y-106475500D01*
X140353612Y-106473216D01*
X140359699Y-106472646D01*
X140434314Y-106446536D01*
X140504090Y-106442974D01*
X140562949Y-106475897D01*
X141151082Y-107064030D01*
X141184567Y-107125353D01*
X141179583Y-107195045D01*
X141137711Y-107250978D01*
X141072247Y-107275395D01*
X141050148Y-107275001D01*
X141045487Y-107274500D01*
X140504518Y-107274500D01*
X140504509Y-107274501D01*
X140447885Y-107280587D01*
X140319773Y-107328372D01*
X140210313Y-107410313D01*
X140128372Y-107519773D01*
X140116181Y-107552459D01*
X140074310Y-107608392D01*
X140008845Y-107632808D01*
X139940572Y-107617956D01*
X139891167Y-107568550D01*
X139883819Y-107552459D01*
X139876834Y-107533732D01*
X139871628Y-107519774D01*
X139789687Y-107410313D01*
X139693653Y-107338423D01*
X139680228Y-107328373D01*
X139680226Y-107328372D01*
X139552114Y-107280588D01*
X139552112Y-107280587D01*
X139552110Y-107280587D01*
X139495493Y-107274500D01*
X138954518Y-107274500D01*
X138954509Y-107274501D01*
X138897885Y-107280587D01*
X138769773Y-107328372D01*
X138660313Y-107410313D01*
X138599267Y-107491861D01*
X138543333Y-107533732D01*
X138473641Y-107538716D01*
X138412318Y-107505231D01*
X138400733Y-107491861D01*
X138387078Y-107473620D01*
X138339687Y-107410313D01*
X138243653Y-107338423D01*
X138230228Y-107328373D01*
X138230226Y-107328372D01*
X138102114Y-107280588D01*
X138102112Y-107280587D01*
X138102110Y-107280587D01*
X138045493Y-107274500D01*
X137504518Y-107274500D01*
X137504509Y-107274501D01*
X137447885Y-107280587D01*
X137319773Y-107328372D01*
X137210313Y-107410313D01*
X137128373Y-107519771D01*
X137110179Y-107568550D01*
X137091752Y-107617956D01*
X137080587Y-107647889D01*
X137074500Y-107704498D01*
X137074500Y-108295481D01*
X137074501Y-108295490D01*
X137080587Y-108352114D01*
X137115210Y-108444938D01*
X137128372Y-108480226D01*
X137210313Y-108589687D01*
X137319774Y-108671628D01*
X137447886Y-108719412D01*
X137504515Y-108725500D01*
X137963344Y-108725499D01*
X137992793Y-108734145D01*
X138022770Y-108740667D01*
X138027783Y-108744419D01*
X138030383Y-108745183D01*
X138051020Y-108761813D01*
X138168182Y-108878974D01*
X138201666Y-108940295D01*
X138204500Y-108966654D01*
X138204500Y-109066664D01*
X138184815Y-109133703D01*
X138183603Y-109135553D01*
X138139034Y-109202257D01*
X138139031Y-109202264D01*
X138124499Y-109275321D01*
X138124499Y-109673399D01*
X138121948Y-109682084D01*
X138123237Y-109691046D01*
X138112258Y-109715086D01*
X138104814Y-109740438D01*
X138097973Y-109746365D01*
X138094212Y-109754602D01*
X138071977Y-109768891D01*
X138052010Y-109786193D01*
X138041495Y-109788480D01*
X138035434Y-109792376D01*
X138000499Y-109797399D01*
X137999501Y-109797399D01*
X137932462Y-109777714D01*
X137886707Y-109724910D01*
X137875501Y-109673399D01*
X137875501Y-109275323D01*
X137875500Y-109275321D01*
X137860968Y-109202264D01*
X137860967Y-109202260D01*
X137854097Y-109191978D01*
X137805602Y-109119399D01*
X137750236Y-109082405D01*
X137722740Y-109064033D01*
X137722736Y-109064032D01*
X137649678Y-109049500D01*
X137649675Y-109049500D01*
X137496363Y-109049500D01*
X137447061Y-109039278D01*
X137425708Y-109030025D01*
X137415213Y-109019530D01*
X137335289Y-108973386D01*
X137246145Y-108949500D01*
X137239873Y-108949500D01*
X137221330Y-108941465D01*
X137214004Y-108935362D01*
X137195144Y-108926062D01*
X137189151Y-108921463D01*
X137109233Y-108875323D01*
X137109232Y-108875322D01*
X137109231Y-108875322D01*
X137020087Y-108851436D01*
X137020086Y-108851436D01*
X136968975Y-108851436D01*
X136952787Y-108850375D01*
X136946145Y-108849500D01*
X136946144Y-108849500D01*
X136946142Y-108849500D01*
X135696544Y-108849500D01*
X135629505Y-108829815D01*
X135608863Y-108813181D01*
X135386819Y-108591137D01*
X135353334Y-108529814D01*
X135350500Y-108503456D01*
X135350500Y-107021544D01*
X135370185Y-106954505D01*
X135386819Y-106933863D01*
X135808863Y-106511819D01*
X135870186Y-106478334D01*
X135896544Y-106475500D01*
X136329270Y-106475500D01*
X136359699Y-106472646D01*
X136359701Y-106472646D01*
X136423790Y-106450219D01*
X136487882Y-106427793D01*
X136597150Y-106347150D01*
X136677793Y-106237882D01*
X136677793Y-106237881D01*
X136683311Y-106230405D01*
X136685285Y-106231862D01*
X136724580Y-106191485D01*
X136785480Y-106175500D01*
X137225334Y-106175500D01*
X137229716Y-106176786D01*
G37*
%TD.AperFunction*%
%TA.AperFunction,Conductor*%
G36*
X141669004Y-107584738D02*
G01*
X141685968Y-107598915D01*
X142427941Y-108340888D01*
X142461426Y-108402211D01*
X142464260Y-108428569D01*
X142464260Y-108651263D01*
X142444575Y-108718302D01*
X142427941Y-108738944D01*
X142157565Y-109009319D01*
X142157563Y-109009322D01*
X142091670Y-109123450D01*
X142091670Y-109123451D01*
X142082578Y-109157383D01*
X142046213Y-109217043D01*
X141983365Y-109247571D01*
X141941275Y-109247405D01*
X141924800Y-109244500D01*
X141924797Y-109244500D01*
X140448500Y-109244500D01*
X140439814Y-109241949D01*
X140430853Y-109243238D01*
X140406812Y-109232259D01*
X140381461Y-109224815D01*
X140375533Y-109217974D01*
X140367297Y-109214213D01*
X140353007Y-109191978D01*
X140335706Y-109172011D01*
X140333418Y-109161496D01*
X140329523Y-109155435D01*
X140324500Y-109120500D01*
X140324500Y-108997543D01*
X140344185Y-108930504D01*
X140360815Y-108909866D01*
X140508863Y-108761817D01*
X140570186Y-108728333D01*
X140596544Y-108725499D01*
X141045481Y-108725499D01*
X141045484Y-108725499D01*
X141102114Y-108719412D01*
X141230226Y-108671628D01*
X141339687Y-108589687D01*
X141421628Y-108480226D01*
X141469412Y-108352114D01*
X141471687Y-108330944D01*
X141475499Y-108295501D01*
X141475499Y-108295490D01*
X141475500Y-108295485D01*
X141475499Y-107704516D01*
X141474998Y-107699854D01*
X141487401Y-107631095D01*
X141535010Y-107579956D01*
X141602709Y-107562675D01*
X141669004Y-107584738D01*
G37*
%TD.AperFunction*%
%TA.AperFunction,Conductor*%
G36*
X156943039Y-84520185D02*
G01*
X156988794Y-84572989D01*
X157000000Y-84624500D01*
X157000000Y-121120500D01*
X156980315Y-121187539D01*
X156927511Y-121233294D01*
X156876000Y-121244500D01*
X154724519Y-121244500D01*
X154709071Y-121245512D01*
X154691180Y-121246684D01*
X154679208Y-121248260D01*
X154671711Y-121249247D01*
X154664392Y-121250537D01*
X154649752Y-121253119D01*
X154558502Y-121293270D01*
X154516380Y-121322764D01*
X154516371Y-121322772D01*
X154460217Y-121376528D01*
X154430965Y-121435845D01*
X154383659Y-121487264D01*
X154319753Y-121505000D01*
X153311436Y-121505000D01*
X153244397Y-121485315D01*
X153198642Y-121432511D01*
X153190990Y-121410475D01*
X153179927Y-121365268D01*
X153179926Y-121365267D01*
X153179926Y-121365264D01*
X153158186Y-121318644D01*
X153158185Y-121318643D01*
X153158184Y-121318640D01*
X153121153Y-121265755D01*
X153107292Y-121245960D01*
X151791819Y-119930487D01*
X151758334Y-119869164D01*
X151755500Y-119842806D01*
X151755500Y-118031171D01*
X151755500Y-118031148D01*
X151755257Y-118020009D01*
X151755089Y-118016159D01*
X151755042Y-118014041D01*
X151754971Y-118013452D01*
X151754971Y-118013446D01*
X151731274Y-117916612D01*
X151709534Y-117869992D01*
X151709533Y-117869991D01*
X151709532Y-117869988D01*
X151658639Y-117797307D01*
X151202702Y-117341369D01*
X151194659Y-117333668D01*
X151189875Y-117329283D01*
X151189801Y-117329217D01*
X151104574Y-117277501D01*
X151104572Y-117277500D01*
X151104570Y-117277499D01*
X151056238Y-117259908D01*
X150968854Y-117244500D01*
X150968852Y-117244500D01*
X148031148Y-117244500D01*
X148020009Y-117244743D01*
X148019989Y-117244743D01*
X148019983Y-117244744D01*
X148016159Y-117244911D01*
X148014041Y-117244957D01*
X148013444Y-117245029D01*
X147916614Y-117268725D01*
X147916612Y-117268726D01*
X147869988Y-117290467D01*
X147797307Y-117341360D01*
X147341369Y-117797297D01*
X147333668Y-117805340D01*
X147329283Y-117810124D01*
X147329217Y-117810198D01*
X147277499Y-117895429D01*
X147259908Y-117943761D01*
X147244500Y-118031145D01*
X147244500Y-119842806D01*
X147224815Y-119909845D01*
X147208181Y-119930487D01*
X146675487Y-120463181D01*
X146614164Y-120496666D01*
X146587806Y-120499500D01*
X144590075Y-120499500D01*
X144462780Y-120533608D01*
X144348654Y-120599500D01*
X144348651Y-120599502D01*
X144184973Y-120763181D01*
X144123650Y-120796666D01*
X144097292Y-120799500D01*
X141058346Y-120799500D01*
X140931050Y-120833608D01*
X140816924Y-120899500D01*
X140816921Y-120899502D01*
X140508243Y-121208181D01*
X140446920Y-121241666D01*
X140420562Y-121244500D01*
X134031148Y-121244500D01*
X134020009Y-121244743D01*
X134019989Y-121244743D01*
X134019983Y-121244744D01*
X134016159Y-121244911D01*
X134014041Y-121244957D01*
X134013444Y-121245029D01*
X133916614Y-121268725D01*
X133916612Y-121268726D01*
X133869988Y-121290467D01*
X133797307Y-121341360D01*
X132430487Y-122708181D01*
X132369164Y-122741666D01*
X132342806Y-122744500D01*
X130536158Y-122744500D01*
X130448775Y-122759908D01*
X130448774Y-122759908D01*
X130400436Y-122777502D01*
X130332284Y-122814892D01*
X130332282Y-122814894D01*
X130318763Y-122830309D01*
X130259761Y-122867732D01*
X130193444Y-122868323D01*
X130132899Y-122852100D01*
X129987949Y-122852100D01*
X129889532Y-122878470D01*
X129847934Y-122889617D01*
X129846437Y-122890238D01*
X129845072Y-122890384D01*
X129840089Y-122891720D01*
X129839880Y-122890942D01*
X129776968Y-122897704D01*
X129714490Y-122866427D01*
X129702283Y-122853289D01*
X129682963Y-122829217D01*
X129659359Y-122814894D01*
X129597736Y-122777501D01*
X129597734Y-122777500D01*
X129597732Y-122777499D01*
X129549400Y-122759908D01*
X129462016Y-122744500D01*
X129462014Y-122744500D01*
X128527819Y-122744500D01*
X128526524Y-122744503D01*
X128526373Y-122744503D01*
X128525736Y-122744506D01*
X128525735Y-122744506D01*
X128437125Y-122760843D01*
X128388978Y-122778942D01*
X128312602Y-122824114D01*
X128312599Y-122824116D01*
X127672500Y-123372771D01*
X127672474Y-123372794D01*
X127643418Y-123402093D01*
X127643397Y-123402116D01*
X127627772Y-123420656D01*
X127609733Y-123444824D01*
X127609729Y-123444830D01*
X127572222Y-123537181D01*
X127570492Y-123543032D01*
X127568951Y-123542576D01*
X127540544Y-123597783D01*
X127480061Y-123632764D01*
X127470884Y-123634633D01*
X127405066Y-123645471D01*
X127405061Y-123645472D01*
X127356916Y-123663569D01*
X127356907Y-123663573D01*
X127280534Y-123708742D01*
X125664136Y-125094227D01*
X124940312Y-125714648D01*
X124876601Y-125743331D01*
X124859614Y-125744500D01*
X119075200Y-125744500D01*
X119052940Y-125745472D01*
X119051132Y-125745630D01*
X119039881Y-125746613D01*
X119028793Y-125747828D01*
X118934395Y-125779870D01*
X118889846Y-125805590D01*
X118829216Y-125854251D01*
X118777499Y-125939481D01*
X118759908Y-125987813D01*
X118744500Y-126075197D01*
X118744500Y-129375500D01*
X118724815Y-129442539D01*
X118672011Y-129488294D01*
X118620500Y-129499500D01*
X94624500Y-129499500D01*
X94557461Y-129479815D01*
X94511706Y-129427011D01*
X94500500Y-129375500D01*
X94500500Y-124368872D01*
X104749500Y-124368872D01*
X104749500Y-124631127D01*
X104776123Y-124833339D01*
X104783730Y-124891116D01*
X104821577Y-125032363D01*
X104851602Y-125144418D01*
X104851605Y-125144428D01*
X104951953Y-125386690D01*
X104951958Y-125386700D01*
X105083075Y-125613803D01*
X105242718Y-125821851D01*
X105242726Y-125821860D01*
X105428140Y-126007274D01*
X105428145Y-126007278D01*
X105428149Y-126007282D01*
X105428152Y-126007284D01*
X105636196Y-126166924D01*
X105863299Y-126298041D01*
X105863309Y-126298046D01*
X106105571Y-126398394D01*
X106105581Y-126398398D01*
X106358884Y-126466270D01*
X106618880Y-126500500D01*
X106618887Y-126500500D01*
X109631113Y-126500500D01*
X109631120Y-126500500D01*
X109763268Y-126483102D01*
X109891116Y-126466271D01*
X110144419Y-126398398D01*
X110386697Y-126298043D01*
X110386704Y-126298038D01*
X110386708Y-126298037D01*
X110421460Y-126277973D01*
X110421461Y-126277972D01*
X110449952Y-126261523D01*
X110613803Y-126166924D01*
X110705697Y-126096411D01*
X110821851Y-126007283D01*
X117507283Y-119321851D01*
X117565842Y-119263292D01*
X117565855Y-119263277D01*
X118939654Y-117889480D01*
X126813700Y-117889480D01*
X126813700Y-118110519D01*
X126813701Y-118110535D01*
X126842552Y-118329683D01*
X126899766Y-118543206D01*
X126984354Y-118747423D01*
X126984362Y-118747439D01*
X127094880Y-118938860D01*
X127094891Y-118938876D01*
X127229450Y-119114238D01*
X127229456Y-119114245D01*
X127385754Y-119270543D01*
X127385760Y-119270548D01*
X127561132Y-119405115D01*
X127561139Y-119405119D01*
X127752560Y-119515637D01*
X127752576Y-119515645D01*
X127830931Y-119548100D01*
X127956794Y-119600234D01*
X128170313Y-119657447D01*
X128389474Y-119686300D01*
X128389481Y-119686300D01*
X128610519Y-119686300D01*
X128610526Y-119686300D01*
X128829687Y-119657447D01*
X129043206Y-119600234D01*
X129203743Y-119533737D01*
X129247423Y-119515645D01*
X129247426Y-119515643D01*
X129247432Y-119515641D01*
X129438868Y-119405115D01*
X129614240Y-119270548D01*
X129770548Y-119114240D01*
X129905115Y-118938868D01*
X130015641Y-118747432D01*
X130100234Y-118543206D01*
X130157447Y-118329687D01*
X130186300Y-118110526D01*
X130186300Y-117889474D01*
X130157447Y-117670313D01*
X130100234Y-117456794D01*
X130049234Y-117333668D01*
X130015645Y-117252576D01*
X130015637Y-117252560D01*
X129905119Y-117061139D01*
X129905115Y-117061132D01*
X129770548Y-116885760D01*
X129770543Y-116885754D01*
X129614245Y-116729456D01*
X129614238Y-116729450D01*
X129438876Y-116594891D01*
X129438874Y-116594889D01*
X129438868Y-116594885D01*
X129438863Y-116594882D01*
X129438860Y-116594880D01*
X129247439Y-116484362D01*
X129247423Y-116484354D01*
X129043206Y-116399766D01*
X128829683Y-116342552D01*
X128610535Y-116313701D01*
X128610532Y-116313700D01*
X128610526Y-116313700D01*
X128389474Y-116313700D01*
X128389468Y-116313700D01*
X128389464Y-116313701D01*
X128170316Y-116342552D01*
X127956793Y-116399766D01*
X127752576Y-116484354D01*
X127752560Y-116484362D01*
X127561139Y-116594880D01*
X127561123Y-116594891D01*
X127385761Y-116729450D01*
X127385754Y-116729456D01*
X127229456Y-116885754D01*
X127229450Y-116885761D01*
X127094891Y-117061123D01*
X127094880Y-117061139D01*
X126984362Y-117252560D01*
X126984354Y-117252576D01*
X126899766Y-117456793D01*
X126842552Y-117670316D01*
X126813701Y-117889464D01*
X126813700Y-117889480D01*
X118939654Y-117889480D01*
X120099679Y-116729456D01*
X121007276Y-115821859D01*
X121007276Y-115821858D01*
X121007283Y-115821852D01*
X121087418Y-115717416D01*
X121166924Y-115613803D01*
X121298043Y-115386697D01*
X121398398Y-115144419D01*
X121444827Y-114971144D01*
X121466271Y-114891116D01*
X121492394Y-114692686D01*
X121500500Y-114631120D01*
X121500500Y-104000537D01*
X121520185Y-103933498D01*
X121572989Y-103887743D01*
X121642147Y-103877799D01*
X121705703Y-103906824D01*
X121731887Y-103938538D01*
X121740816Y-103954004D01*
X121833076Y-104113803D01*
X121902388Y-104204131D01*
X121992715Y-104321849D01*
X121992721Y-104321856D01*
X127178143Y-109507278D01*
X127178150Y-109507284D01*
X127386198Y-109666924D01*
X127613299Y-109798041D01*
X127613314Y-109798048D01*
X127717721Y-109841294D01*
X127855581Y-109898398D01*
X128108885Y-109966271D01*
X128303882Y-109991942D01*
X128368880Y-110000499D01*
X128368881Y-110000499D01*
X128631121Y-110000499D01*
X128683119Y-109993653D01*
X128891116Y-109966271D01*
X129144419Y-109898398D01*
X129386697Y-109798043D01*
X129613802Y-109666924D01*
X129821851Y-109507283D01*
X130007283Y-109321851D01*
X130166924Y-109113802D01*
X130298043Y-108886697D01*
X130398398Y-108644419D01*
X130466271Y-108391116D01*
X130500499Y-108131120D01*
X130500499Y-107868881D01*
X130492270Y-107806370D01*
X130483126Y-107736914D01*
X130482065Y-107728856D01*
X132049500Y-107728856D01*
X132049500Y-114971144D01*
X132069595Y-115046142D01*
X132073385Y-115060286D01*
X132073387Y-115060291D01*
X132119527Y-115140208D01*
X132119531Y-115140213D01*
X133120637Y-116141319D01*
X133154122Y-116202642D01*
X133154123Y-116247435D01*
X133155480Y-116247630D01*
X133144500Y-116323998D01*
X133144500Y-118476002D01*
X133150338Y-118530312D01*
X133161543Y-118581818D01*
X133161546Y-118581827D01*
X133168779Y-118608192D01*
X133168783Y-118608203D01*
X133218105Y-118694818D01*
X133218110Y-118694825D01*
X133218112Y-118694828D01*
X133243820Y-118724497D01*
X133263863Y-118747628D01*
X133263866Y-118747631D01*
X133263867Y-118747632D01*
X133296641Y-118779257D01*
X133384976Y-118825465D01*
X133384977Y-118825465D01*
X133384977Y-118825466D01*
X133435105Y-118840184D01*
X133452015Y-118845150D01*
X133452019Y-118845150D01*
X133452021Y-118845151D01*
X133463652Y-118846823D01*
X133524000Y-118855500D01*
X136325500Y-118855500D01*
X136392539Y-118875185D01*
X136438294Y-118927989D01*
X136449500Y-118979500D01*
X136449500Y-119070075D01*
X136487016Y-119210085D01*
X136487017Y-119210088D01*
X136559488Y-119335611D01*
X136559490Y-119335613D01*
X136559491Y-119335615D01*
X136661985Y-119438109D01*
X136661986Y-119438110D01*
X136661988Y-119438111D01*
X136787511Y-119510582D01*
X136787512Y-119510582D01*
X136787515Y-119510584D01*
X136927525Y-119548100D01*
X136927528Y-119548100D01*
X137072472Y-119548100D01*
X137072475Y-119548100D01*
X137212485Y-119510584D01*
X137338015Y-119438109D01*
X137440509Y-119335615D01*
X137512984Y-119210085D01*
X137550500Y-119070075D01*
X137550500Y-118979500D01*
X137570185Y-118912461D01*
X137622989Y-118866706D01*
X137674500Y-118855500D01*
X138516066Y-118855500D01*
X138559399Y-118863317D01*
X138642978Y-118894491D01*
X138676110Y-118898053D01*
X138698855Y-118900499D01*
X138698870Y-118900500D01*
X139301130Y-118900500D01*
X139301144Y-118900499D01*
X139319897Y-118898482D01*
X139357022Y-118894491D01*
X139440600Y-118863317D01*
X139483934Y-118855500D01*
X142005752Y-118855500D01*
X142072791Y-118875185D01*
X142113138Y-118917499D01*
X142155020Y-118990040D01*
X142257514Y-119092534D01*
X142257515Y-119092535D01*
X142257517Y-119092536D01*
X142383040Y-119165007D01*
X142383041Y-119165007D01*
X142383044Y-119165009D01*
X142523054Y-119202525D01*
X142523057Y-119202525D01*
X142668001Y-119202525D01*
X142668004Y-119202525D01*
X142808014Y-119165009D01*
X142933544Y-119092534D01*
X143036038Y-118990040D01*
X143108513Y-118864510D01*
X143146029Y-118724500D01*
X143146029Y-118579550D01*
X143108513Y-118439540D01*
X143036038Y-118314010D01*
X142933544Y-118211516D01*
X142928234Y-118208450D01*
X142917496Y-118202250D01*
X142869283Y-118151681D01*
X142855500Y-118094865D01*
X142855500Y-116324000D01*
X142849661Y-116269687D01*
X142838455Y-116218176D01*
X142831219Y-116191802D01*
X142831216Y-116191796D01*
X142781894Y-116105181D01*
X142781890Y-116105176D01*
X142781888Y-116105172D01*
X142736133Y-116052368D01*
X142703359Y-116020743D01*
X142615024Y-115974535D01*
X142615023Y-115974534D01*
X142615022Y-115974534D01*
X142615022Y-115974533D01*
X142547990Y-115954851D01*
X142547978Y-115954848D01*
X142476001Y-115944500D01*
X142476000Y-115944500D01*
X140074500Y-115944500D01*
X140007461Y-115924815D01*
X139961706Y-115872011D01*
X139950500Y-115820500D01*
X139950500Y-115474500D01*
X139953050Y-115465814D01*
X139951762Y-115456853D01*
X139962740Y-115432812D01*
X139970185Y-115407461D01*
X139977025Y-115401533D01*
X139980787Y-115393297D01*
X140003021Y-115379007D01*
X140022989Y-115361706D01*
X140033503Y-115359418D01*
X140039565Y-115355523D01*
X140074500Y-115350500D01*
X140141513Y-115350500D01*
X140208552Y-115370185D01*
X140229194Y-115386819D01*
X140242875Y-115400500D01*
X140357003Y-115466392D01*
X140484297Y-115500500D01*
X140484299Y-115500500D01*
X140765890Y-115500500D01*
X140765892Y-115500500D01*
X140893186Y-115466392D01*
X141007314Y-115400500D01*
X142958563Y-113449251D01*
X142958563Y-113449250D01*
X142964310Y-113443504D01*
X142966387Y-113445581D01*
X143011407Y-113412694D01*
X143081152Y-113408524D01*
X143141061Y-113441693D01*
X143459181Y-113759813D01*
X143492666Y-113821136D01*
X143495500Y-113847494D01*
X143495500Y-113871369D01*
X143529881Y-113999680D01*
X143596300Y-114114720D01*
X143690230Y-114208650D01*
X143805270Y-114275069D01*
X143933581Y-114309450D01*
X143933584Y-114309450D01*
X144066416Y-114309450D01*
X144066419Y-114309450D01*
X144194730Y-114275069D01*
X144309770Y-114208650D01*
X144403700Y-114114720D01*
X144470119Y-113999680D01*
X144504500Y-113871369D01*
X144504500Y-113738531D01*
X144470119Y-113610220D01*
X144403700Y-113495180D01*
X144309770Y-113401250D01*
X144194730Y-113334831D01*
X144066419Y-113300450D01*
X144066416Y-113300450D01*
X144042544Y-113300450D01*
X143975505Y-113280765D01*
X143954863Y-113264131D01*
X143495882Y-112805150D01*
X143462397Y-112743827D01*
X143459563Y-112717469D01*
X143459563Y-109747068D01*
X143479248Y-109680029D01*
X143495882Y-109659387D01*
X143647995Y-109507274D01*
X143800229Y-109355040D01*
X143846374Y-109275116D01*
X143849211Y-109264529D01*
X143850450Y-109259908D01*
X143861685Y-109217974D01*
X143870260Y-109185972D01*
X143870260Y-108633906D01*
X143869199Y-108625845D01*
X143869311Y-108625830D01*
X143866260Y-108602651D01*
X143866260Y-107895519D01*
X143866260Y-107895517D01*
X143842374Y-107806373D01*
X143829912Y-107784788D01*
X143796230Y-107726449D01*
X143455618Y-107385837D01*
X146049500Y-107385837D01*
X146049500Y-107614162D01*
X146085215Y-107839660D01*
X146155770Y-108056803D01*
X146251117Y-108243930D01*
X146259421Y-108260228D01*
X146393621Y-108444937D01*
X146555063Y-108606379D01*
X146739772Y-108740579D01*
X146835884Y-108789550D01*
X146943196Y-108844229D01*
X146943198Y-108844229D01*
X146943201Y-108844231D01*
X147059592Y-108882049D01*
X147160339Y-108914784D01*
X147385838Y-108950500D01*
X147385843Y-108950500D01*
X147614162Y-108950500D01*
X147839660Y-108914784D01*
X147854808Y-108909862D01*
X148056799Y-108844231D01*
X148260228Y-108740579D01*
X148444937Y-108606379D01*
X148606379Y-108444937D01*
X148740579Y-108260228D01*
X148844231Y-108056799D01*
X148914784Y-107839660D01*
X148923475Y-107784788D01*
X148950500Y-107614162D01*
X148950500Y-107385837D01*
X148914784Y-107160339D01*
X148869686Y-107021544D01*
X148844231Y-106943201D01*
X148844229Y-106943198D01*
X148844229Y-106943196D01*
X148740578Y-106739771D01*
X148704208Y-106689712D01*
X148606379Y-106555063D01*
X148444937Y-106393621D01*
X148260228Y-106259421D01*
X148056803Y-106155770D01*
X147839660Y-106085215D01*
X147614162Y-106049500D01*
X147614157Y-106049500D01*
X147385843Y-106049500D01*
X147385838Y-106049500D01*
X147160339Y-106085215D01*
X146943196Y-106155770D01*
X146739771Y-106259421D01*
X146555061Y-106393622D01*
X146393622Y-106555061D01*
X146259421Y-106739771D01*
X146155770Y-106943196D01*
X146085215Y-107160339D01*
X146049500Y-107385837D01*
X143455618Y-107385837D01*
X143408204Y-107338423D01*
X143327395Y-107257614D01*
X143307688Y-107231932D01*
X143280470Y-107184788D01*
X141942932Y-105847250D01*
X141909447Y-105785927D01*
X141906613Y-105759569D01*
X141906613Y-102355778D01*
X145299500Y-102355778D01*
X145299500Y-102644221D01*
X145299501Y-102644238D01*
X145337149Y-102930206D01*
X145337150Y-102930211D01*
X145337151Y-102930217D01*
X145393018Y-103138715D01*
X145411809Y-103208844D01*
X145411814Y-103208860D01*
X145522191Y-103475336D01*
X145522199Y-103475352D01*
X145666420Y-103725148D01*
X145666431Y-103725164D01*
X145842024Y-103954002D01*
X145842030Y-103954009D01*
X146045990Y-104157969D01*
X146045996Y-104157974D01*
X146274844Y-104333575D01*
X146274851Y-104333579D01*
X146524647Y-104477800D01*
X146524663Y-104477808D01*
X146791139Y-104588185D01*
X146791145Y-104588186D01*
X146791155Y-104588191D01*
X147069783Y-104662849D01*
X147355772Y-104700500D01*
X147355779Y-104700500D01*
X147644221Y-104700500D01*
X147644228Y-104700500D01*
X147930217Y-104662849D01*
X148208845Y-104588191D01*
X148208857Y-104588185D01*
X148208860Y-104588185D01*
X148475336Y-104477808D01*
X148475339Y-104477806D01*
X148475345Y-104477804D01*
X148725156Y-104333575D01*
X148954004Y-104157974D01*
X149157974Y-103954004D01*
X149333575Y-103725156D01*
X149477804Y-103475345D01*
X149528217Y-103353638D01*
X149588185Y-103208860D01*
X149588185Y-103208857D01*
X149588191Y-103208845D01*
X149662849Y-102930217D01*
X149700500Y-102644228D01*
X149700500Y-102355772D01*
X149662849Y-102069783D01*
X149588191Y-101791155D01*
X149588186Y-101791145D01*
X149588185Y-101791139D01*
X149477808Y-101524663D01*
X149477800Y-101524647D01*
X149333579Y-101274851D01*
X149333575Y-101274844D01*
X149253406Y-101170366D01*
X149157975Y-101045997D01*
X149157969Y-101045990D01*
X148954009Y-100842030D01*
X148954002Y-100842024D01*
X148725164Y-100666431D01*
X148725162Y-100666429D01*
X148725156Y-100666425D01*
X148725151Y-100666422D01*
X148725148Y-100666420D01*
X148475352Y-100522199D01*
X148475336Y-100522191D01*
X148208860Y-100411814D01*
X148208848Y-100411810D01*
X148208845Y-100411809D01*
X147930217Y-100337151D01*
X147930211Y-100337150D01*
X147930206Y-100337149D01*
X147644238Y-100299501D01*
X147644233Y-100299500D01*
X147644228Y-100299500D01*
X147355772Y-100299500D01*
X147355766Y-100299500D01*
X147355761Y-100299501D01*
X147069793Y-100337149D01*
X147069786Y-100337150D01*
X147069783Y-100337151D01*
X146791155Y-100411809D01*
X146791139Y-100411814D01*
X146524663Y-100522191D01*
X146524647Y-100522199D01*
X146274851Y-100666420D01*
X146274835Y-100666431D01*
X146045997Y-100842024D01*
X146045990Y-100842030D01*
X145842030Y-101045990D01*
X145842024Y-101045997D01*
X145666431Y-101274835D01*
X145666420Y-101274851D01*
X145522199Y-101524647D01*
X145522191Y-101524663D01*
X145411814Y-101791139D01*
X145411809Y-101791155D01*
X145368214Y-101953856D01*
X145337152Y-102069780D01*
X145337149Y-102069793D01*
X145299501Y-102355761D01*
X145299500Y-102355778D01*
X141906613Y-102355778D01*
X141906613Y-96509971D01*
X141906613Y-96509969D01*
X141882727Y-96420825D01*
X141857713Y-96377500D01*
X141857713Y-96377499D01*
X141836585Y-96340904D01*
X141836581Y-96340899D01*
X141540819Y-96045137D01*
X141507334Y-95983814D01*
X141504500Y-95957456D01*
X141504500Y-95933583D01*
X141504500Y-95933581D01*
X141470119Y-95805270D01*
X141403700Y-95690230D01*
X141309770Y-95596300D01*
X141194730Y-95529881D01*
X141066419Y-95495500D01*
X140933581Y-95495500D01*
X140805270Y-95529881D01*
X140805268Y-95529881D01*
X140805268Y-95529882D01*
X140690230Y-95596300D01*
X140690227Y-95596302D01*
X140596302Y-95690227D01*
X140596300Y-95690230D01*
X140529881Y-95805270D01*
X140495500Y-95933581D01*
X140495500Y-96066419D01*
X140529881Y-96194730D01*
X140596300Y-96309770D01*
X140690230Y-96403700D01*
X140805270Y-96470119D01*
X140933581Y-96504500D01*
X140957456Y-96504500D01*
X140986896Y-96513144D01*
X141016883Y-96519668D01*
X141021898Y-96523422D01*
X141024495Y-96524185D01*
X141045137Y-96540819D01*
X141169294Y-96664976D01*
X141202779Y-96726299D01*
X141205613Y-96752657D01*
X141205613Y-96825500D01*
X141185928Y-96892539D01*
X141133124Y-96938294D01*
X141081613Y-96949500D01*
X139630436Y-96949500D01*
X139557377Y-96964032D01*
X139557373Y-96964033D01*
X139474512Y-97019399D01*
X139419146Y-97102260D01*
X139419145Y-97102264D01*
X139404613Y-97175321D01*
X139404613Y-98824678D01*
X139419145Y-98897735D01*
X139419146Y-98897739D01*
X139419147Y-98897740D01*
X139474512Y-98980601D01*
X139557373Y-99035966D01*
X139557377Y-99035967D01*
X139630434Y-99050499D01*
X139630437Y-99050500D01*
X139630439Y-99050500D01*
X139830613Y-99050500D01*
X139839298Y-99053050D01*
X139848260Y-99051762D01*
X139872300Y-99062740D01*
X139897652Y-99070185D01*
X139903579Y-99077025D01*
X139911816Y-99080787D01*
X139926105Y-99103021D01*
X139943407Y-99122989D01*
X139945694Y-99133503D01*
X139949590Y-99139565D01*
X139954613Y-99174500D01*
X139954613Y-99286209D01*
X139934928Y-99353248D01*
X139918294Y-99373890D01*
X139875253Y-99416930D01*
X139875244Y-99416942D01*
X139799500Y-99492686D01*
X139733608Y-99606812D01*
X139699500Y-99734108D01*
X139699500Y-102262912D01*
X139733608Y-102390208D01*
X139766554Y-102447271D01*
X139799500Y-102504335D01*
X139799502Y-102504337D01*
X140389181Y-103094016D01*
X140422666Y-103155339D01*
X140425500Y-103181697D01*
X140425500Y-105050500D01*
X140405815Y-105117539D01*
X140353011Y-105163294D01*
X140301500Y-105174500D01*
X139670730Y-105174500D01*
X139640300Y-105177353D01*
X139640298Y-105177353D01*
X139512119Y-105222206D01*
X139512117Y-105222207D01*
X139402850Y-105302850D01*
X139335701Y-105393835D01*
X139316689Y-105419595D01*
X139314714Y-105418137D01*
X139275420Y-105458515D01*
X139214520Y-105474500D01*
X138815433Y-105474500D01*
X138748394Y-105454815D01*
X138702639Y-105402011D01*
X138699252Y-105393835D01*
X138690857Y-105371329D01*
X138671628Y-105319774D01*
X138589687Y-105210313D01*
X138493196Y-105138081D01*
X138480228Y-105128373D01*
X138480226Y-105128372D01*
X138352114Y-105080588D01*
X138352112Y-105080587D01*
X138352110Y-105080587D01*
X138295493Y-105074500D01*
X137704518Y-105074500D01*
X137704509Y-105074501D01*
X137647885Y-105080587D01*
X137519773Y-105128372D01*
X137410313Y-105210313D01*
X137328372Y-105319773D01*
X137300748Y-105393835D01*
X137258876Y-105449768D01*
X137193412Y-105474184D01*
X137184567Y-105474500D01*
X136785480Y-105474500D01*
X136718441Y-105454815D01*
X136684968Y-105418371D01*
X136683311Y-105419595D01*
X136677793Y-105412118D01*
X136597150Y-105302850D01*
X136487882Y-105222207D01*
X136487880Y-105222206D01*
X136359700Y-105177353D01*
X136329270Y-105174500D01*
X136329266Y-105174500D01*
X135795544Y-105174500D01*
X135774298Y-105168261D01*
X135752210Y-105166682D01*
X135741426Y-105158609D01*
X135728505Y-105154815D01*
X135714005Y-105138081D01*
X135696277Y-105124810D01*
X135691569Y-105112189D01*
X135682750Y-105102011D01*
X135679598Y-105080093D01*
X135671860Y-105059346D01*
X135674722Y-105046185D01*
X135672806Y-105032853D01*
X135682005Y-105012709D01*
X135686712Y-104991073D01*
X135699980Y-104973347D01*
X135701831Y-104969297D01*
X135707863Y-104962819D01*
X135808863Y-104861819D01*
X135870186Y-104828334D01*
X135896544Y-104825500D01*
X136329270Y-104825500D01*
X136359699Y-104822646D01*
X136359701Y-104822646D01*
X136423790Y-104800219D01*
X136487882Y-104777793D01*
X136597150Y-104697150D01*
X136677793Y-104587882D01*
X136700219Y-104523790D01*
X136722646Y-104459701D01*
X136722646Y-104459699D01*
X136725500Y-104429269D01*
X136725500Y-103920730D01*
X136722646Y-103890300D01*
X136722646Y-103890298D01*
X136677793Y-103762119D01*
X136677792Y-103762117D01*
X136597150Y-103652850D01*
X136487882Y-103572207D01*
X136487880Y-103572206D01*
X136359700Y-103527353D01*
X136329270Y-103524500D01*
X136329266Y-103524500D01*
X135670734Y-103524500D01*
X135670730Y-103524500D01*
X135640300Y-103527353D01*
X135640298Y-103527353D01*
X135512119Y-103572206D01*
X135512117Y-103572207D01*
X135402850Y-103652850D01*
X135322207Y-103762117D01*
X135322206Y-103762119D01*
X135277353Y-103890298D01*
X135277353Y-103890300D01*
X135274500Y-103920730D01*
X135274500Y-104353456D01*
X135254815Y-104420495D01*
X135238181Y-104441137D01*
X132119532Y-107559785D01*
X132119530Y-107559787D01*
X132119530Y-107559788D01*
X132087531Y-107615212D01*
X132087530Y-107615212D01*
X132073387Y-107639709D01*
X132073386Y-107639712D01*
X132049500Y-107728856D01*
X130482065Y-107728856D01*
X130467104Y-107615212D01*
X130466271Y-107608885D01*
X130398398Y-107355581D01*
X130327652Y-107184786D01*
X130298048Y-107113314D01*
X130298041Y-107113299D01*
X130166924Y-106886198D01*
X130007284Y-106678150D01*
X130007278Y-106678143D01*
X125536819Y-102207684D01*
X125503334Y-102146361D01*
X125500500Y-102120003D01*
X125500500Y-99868886D01*
X125500499Y-99868872D01*
X125498253Y-99851810D01*
X125466270Y-99608884D01*
X125403719Y-99375441D01*
X126599500Y-99375441D01*
X126599500Y-99624558D01*
X126599501Y-99624575D01*
X126631664Y-99868880D01*
X126632018Y-99871565D01*
X126659845Y-99975417D01*
X126696498Y-100112207D01*
X126791830Y-100342361D01*
X126791837Y-100342376D01*
X126916400Y-100558126D01*
X127068060Y-100755774D01*
X127068066Y-100755781D01*
X127244218Y-100931933D01*
X127244225Y-100931939D01*
X127441873Y-101083599D01*
X127657623Y-101208162D01*
X127657638Y-101208169D01*
X127756825Y-101249253D01*
X127887793Y-101303502D01*
X128128435Y-101367982D01*
X128375435Y-101400500D01*
X128375442Y-101400500D01*
X128624558Y-101400500D01*
X128624565Y-101400500D01*
X128871565Y-101367982D01*
X129112207Y-101303502D01*
X129342373Y-101208164D01*
X129558127Y-101083599D01*
X129755776Y-100931938D01*
X129931938Y-100755776D01*
X130083599Y-100558127D01*
X130208164Y-100342373D01*
X130303502Y-100112207D01*
X130367982Y-99871565D01*
X130400500Y-99624565D01*
X130400500Y-99375441D01*
X131599500Y-99375441D01*
X131599500Y-99624558D01*
X131599501Y-99624575D01*
X131631664Y-99868880D01*
X131632018Y-99871565D01*
X131659845Y-99975417D01*
X131696498Y-100112207D01*
X131791830Y-100342361D01*
X131791837Y-100342376D01*
X131916400Y-100558126D01*
X132068060Y-100755774D01*
X132068066Y-100755781D01*
X132244218Y-100931933D01*
X132244225Y-100931939D01*
X132441873Y-101083599D01*
X132657623Y-101208162D01*
X132657638Y-101208169D01*
X132756825Y-101249253D01*
X132887793Y-101303502D01*
X133128435Y-101367982D01*
X133375435Y-101400500D01*
X133375442Y-101400500D01*
X133624558Y-101400500D01*
X133624565Y-101400500D01*
X133871565Y-101367982D01*
X134112207Y-101303502D01*
X134342373Y-101208164D01*
X134558127Y-101083599D01*
X134755776Y-100931938D01*
X134931938Y-100755776D01*
X135083599Y-100558127D01*
X135208164Y-100342373D01*
X135303502Y-100112207D01*
X135367982Y-99871565D01*
X135400500Y-99624565D01*
X135400500Y-99375435D01*
X135367982Y-99128435D01*
X135303502Y-98887793D01*
X135231800Y-98714689D01*
X135208169Y-98657638D01*
X135208162Y-98657623D01*
X135083599Y-98441873D01*
X134931939Y-98244225D01*
X134931933Y-98244218D01*
X134755781Y-98068066D01*
X134755774Y-98068060D01*
X134558126Y-97916400D01*
X134342376Y-97791837D01*
X134342361Y-97791830D01*
X134112207Y-97696498D01*
X133871561Y-97632017D01*
X133624575Y-97599501D01*
X133624570Y-97599500D01*
X133624565Y-97599500D01*
X133375435Y-97599500D01*
X133375429Y-97599500D01*
X133375424Y-97599501D01*
X133128438Y-97632017D01*
X132887792Y-97696498D01*
X132657638Y-97791830D01*
X132657623Y-97791837D01*
X132441873Y-97916400D01*
X132244225Y-98068060D01*
X132244218Y-98068066D01*
X132068066Y-98244218D01*
X132068060Y-98244225D01*
X131916400Y-98441873D01*
X131791837Y-98657623D01*
X131791830Y-98657638D01*
X131696498Y-98887792D01*
X131632017Y-99128438D01*
X131599501Y-99375424D01*
X131599500Y-99375441D01*
X130400500Y-99375441D01*
X130400500Y-99375435D01*
X130367982Y-99128435D01*
X130303502Y-98887793D01*
X130231800Y-98714689D01*
X130208169Y-98657638D01*
X130208162Y-98657623D01*
X130083599Y-98441873D01*
X129931939Y-98244225D01*
X129931933Y-98244218D01*
X129755781Y-98068066D01*
X129755774Y-98068060D01*
X129558126Y-97916400D01*
X129342376Y-97791837D01*
X129342361Y-97791830D01*
X129112207Y-97696498D01*
X128871561Y-97632017D01*
X128624575Y-97599501D01*
X128624570Y-97599500D01*
X128624565Y-97599500D01*
X128375435Y-97599500D01*
X128375429Y-97599500D01*
X128375424Y-97599501D01*
X128128438Y-97632017D01*
X127887792Y-97696498D01*
X127657638Y-97791830D01*
X127657623Y-97791837D01*
X127441873Y-97916400D01*
X127244225Y-98068060D01*
X127244218Y-98068066D01*
X127068066Y-98244218D01*
X127068060Y-98244225D01*
X126916400Y-98441873D01*
X126791837Y-98657623D01*
X126791830Y-98657638D01*
X126696498Y-98887792D01*
X126632017Y-99128438D01*
X126599501Y-99375424D01*
X126599500Y-99375441D01*
X125403719Y-99375441D01*
X125398398Y-99355581D01*
X125385439Y-99324295D01*
X125298046Y-99113309D01*
X125298041Y-99113299D01*
X125166924Y-98886196D01*
X125007281Y-98678148D01*
X125007274Y-98678140D01*
X124821860Y-98492726D01*
X124821851Y-98492718D01*
X124613803Y-98333075D01*
X124386700Y-98201958D01*
X124386690Y-98201953D01*
X124144428Y-98101605D01*
X124144421Y-98101603D01*
X124144419Y-98101602D01*
X123891116Y-98033730D01*
X123833339Y-98026123D01*
X123631127Y-97999500D01*
X123631120Y-97999500D01*
X123368880Y-97999500D01*
X123368872Y-97999500D01*
X123137772Y-98029926D01*
X123108884Y-98033730D01*
X122980755Y-98068062D01*
X122855581Y-98101602D01*
X122855571Y-98101605D01*
X122613309Y-98201953D01*
X122613299Y-98201958D01*
X122386196Y-98333075D01*
X122178148Y-98492718D01*
X121992718Y-98678148D01*
X121833075Y-98886196D01*
X121701958Y-99113299D01*
X121701953Y-99113309D01*
X121614560Y-99324295D01*
X121570719Y-99378698D01*
X121504424Y-99400763D01*
X121436725Y-99383484D01*
X121389115Y-99332346D01*
X121385443Y-99324305D01*
X121336546Y-99206257D01*
X121298048Y-99113314D01*
X121298041Y-99113299D01*
X121261784Y-99050500D01*
X121228782Y-98993339D01*
X121166924Y-98886197D01*
X121155973Y-98871926D01*
X121097611Y-98795868D01*
X121007283Y-98678149D01*
X121007280Y-98678146D01*
X121007277Y-98678142D01*
X119536819Y-97207684D01*
X119503334Y-97146361D01*
X119500500Y-97120003D01*
X119500500Y-92504869D01*
X144994500Y-92504869D01*
X144994500Y-97495129D01*
X144995273Y-97534559D01*
X144995656Y-97544316D01*
X144997316Y-97572471D01*
X144997981Y-97583738D01*
X145001781Y-97632018D01*
X145015301Y-97803824D01*
X145024578Y-97882201D01*
X145027622Y-97901430D01*
X145043023Y-97978854D01*
X145043026Y-97978867D01*
X145072492Y-98101602D01*
X145093419Y-98188768D01*
X145114859Y-98264784D01*
X145120874Y-98283295D01*
X145148179Y-98357306D01*
X145230791Y-98556751D01*
X145230793Y-98556755D01*
X145230794Y-98556757D01*
X145263856Y-98628473D01*
X145272690Y-98645810D01*
X145298216Y-98691389D01*
X145311265Y-98714689D01*
X145382365Y-98830711D01*
X145423440Y-98897740D01*
X145424048Y-98898731D01*
X145467921Y-98964391D01*
X145479344Y-98980113D01*
X145479355Y-98980127D01*
X145479358Y-98980131D01*
X145523376Y-99035967D01*
X145528231Y-99042125D01*
X145668416Y-99206261D01*
X145722008Y-99264236D01*
X145735762Y-99277990D01*
X145793737Y-99331582D01*
X145901078Y-99423260D01*
X145957884Y-99471776D01*
X146019868Y-99520641D01*
X146019874Y-99520645D01*
X146019885Y-99520654D01*
X146035607Y-99532077D01*
X146057695Y-99546835D01*
X146101269Y-99575952D01*
X146285316Y-99688737D01*
X146354189Y-99727309D01*
X146371526Y-99736143D01*
X146443238Y-99769203D01*
X146642668Y-99851810D01*
X146716740Y-99879137D01*
X146735246Y-99885150D01*
X146811234Y-99906581D01*
X147021127Y-99956972D01*
X147098554Y-99972373D01*
X147117772Y-99975417D01*
X147196186Y-99984698D01*
X147411382Y-100001634D01*
X147411386Y-100001634D01*
X147411397Y-100001635D01*
X147490262Y-100004734D01*
X147490271Y-100004734D01*
X147509739Y-100004734D01*
X147588602Y-100001635D01*
X147588610Y-100001634D01*
X147588619Y-100001634D01*
X147803814Y-99984698D01*
X147882227Y-99975417D01*
X147901445Y-99972373D01*
X147978872Y-99956972D01*
X148188765Y-99906581D01*
X148264753Y-99885150D01*
X148283259Y-99879137D01*
X148357331Y-99851810D01*
X148556761Y-99769203D01*
X148628473Y-99736143D01*
X148645810Y-99727309D01*
X148714683Y-99688737D01*
X148898730Y-99575952D01*
X148964390Y-99532078D01*
X148980131Y-99520641D01*
X149042115Y-99471776D01*
X149206257Y-99331586D01*
X149264234Y-99277993D01*
X149277993Y-99264234D01*
X149331586Y-99206257D01*
X149471776Y-99042115D01*
X149520641Y-98980131D01*
X149532078Y-98964390D01*
X149575952Y-98898730D01*
X149688737Y-98714683D01*
X149727309Y-98645810D01*
X149736143Y-98628473D01*
X149769203Y-98556761D01*
X149851810Y-98357331D01*
X149879137Y-98283259D01*
X149885150Y-98264753D01*
X149906581Y-98188765D01*
X149956972Y-97978872D01*
X149972373Y-97901445D01*
X149975417Y-97882227D01*
X149984698Y-97803815D01*
X150002018Y-97583744D01*
X150004344Y-97544303D01*
X150004726Y-97534574D01*
X150005500Y-97495124D01*
X150005500Y-92504875D01*
X150004726Y-92465425D01*
X150004344Y-92455696D01*
X150002018Y-92416255D01*
X149984698Y-92196184D01*
X149975417Y-92117772D01*
X149972373Y-92098554D01*
X149956972Y-92021127D01*
X149906581Y-91811234D01*
X149885150Y-91735246D01*
X149879137Y-91716740D01*
X149851810Y-91642668D01*
X149769203Y-91443238D01*
X149736143Y-91371526D01*
X149727309Y-91354189D01*
X149688737Y-91285316D01*
X149575952Y-91101269D01*
X149532078Y-91035609D01*
X149532077Y-91035607D01*
X149520654Y-91019885D01*
X149487476Y-90977800D01*
X149471776Y-90957884D01*
X149365606Y-90833575D01*
X149331582Y-90793737D01*
X149277990Y-90735762D01*
X149264236Y-90722008D01*
X149206261Y-90668416D01*
X149042125Y-90528231D01*
X148980113Y-90479344D01*
X148964391Y-90467921D01*
X148920517Y-90438605D01*
X148898730Y-90424047D01*
X148831758Y-90383006D01*
X148714689Y-90311265D01*
X148692535Y-90298858D01*
X148645810Y-90272690D01*
X148628473Y-90263856D01*
X148628471Y-90263855D01*
X148556751Y-90230791D01*
X148357306Y-90148179D01*
X148283295Y-90120874D01*
X148264784Y-90114859D01*
X148188768Y-90093419D01*
X147978869Y-90043026D01*
X147901473Y-90027629D01*
X147882249Y-90024584D01*
X147803823Y-90015300D01*
X147588590Y-89998362D01*
X147509733Y-89995265D01*
X147509721Y-89995265D01*
X147490279Y-89995265D01*
X147490267Y-89995265D01*
X147411410Y-89998362D01*
X147196168Y-90015301D01*
X147117764Y-90024581D01*
X147098549Y-90027625D01*
X147021138Y-90043024D01*
X146901296Y-90071796D01*
X146811220Y-90093422D01*
X146792225Y-90098779D01*
X146735240Y-90114850D01*
X146716745Y-90120860D01*
X146642679Y-90148183D01*
X146443248Y-90230789D01*
X146371499Y-90263869D01*
X146354153Y-90272707D01*
X146285332Y-90311251D01*
X146101255Y-90424055D01*
X146035628Y-90467907D01*
X146019867Y-90479358D01*
X145957873Y-90528231D01*
X145793737Y-90668416D01*
X145735762Y-90722008D01*
X145722008Y-90735762D01*
X145668416Y-90793737D01*
X145528231Y-90957873D01*
X145479344Y-91019885D01*
X145467921Y-91035607D01*
X145424048Y-91101267D01*
X145311261Y-91285315D01*
X145272718Y-91354134D01*
X145263871Y-91371493D01*
X145230798Y-91443229D01*
X145148180Y-91642688D01*
X145120860Y-91716745D01*
X145114850Y-91735240D01*
X145093422Y-91811221D01*
X145043024Y-92021139D01*
X145027618Y-92098598D01*
X145024574Y-92117818D01*
X145015299Y-92196192D01*
X145002069Y-92364307D01*
X144997982Y-92416255D01*
X144997981Y-92416264D01*
X144995656Y-92455682D01*
X144995273Y-92465439D01*
X144994500Y-92504869D01*
X119500500Y-92504869D01*
X119500500Y-88855778D01*
X137299500Y-88855778D01*
X137299500Y-89144221D01*
X137299501Y-89144238D01*
X137337149Y-89430206D01*
X137337150Y-89430211D01*
X137337151Y-89430217D01*
X137409573Y-89700500D01*
X137411809Y-89708844D01*
X137411814Y-89708860D01*
X137522191Y-89975336D01*
X137522199Y-89975352D01*
X137666420Y-90225148D01*
X137666431Y-90225164D01*
X137842024Y-90454002D01*
X137842030Y-90454009D01*
X138045990Y-90657969D01*
X138045996Y-90657974D01*
X138274844Y-90833575D01*
X138274851Y-90833579D01*
X138524647Y-90977800D01*
X138524663Y-90977808D01*
X138791139Y-91088185D01*
X138791145Y-91088186D01*
X138791155Y-91088191D01*
X139069783Y-91162849D01*
X139355772Y-91200500D01*
X139355779Y-91200500D01*
X139644221Y-91200500D01*
X139644228Y-91200500D01*
X139930217Y-91162849D01*
X140208845Y-91088191D01*
X140208857Y-91088185D01*
X140208860Y-91088185D01*
X140475336Y-90977808D01*
X140475339Y-90977806D01*
X140475345Y-90977804D01*
X140725156Y-90833575D01*
X140954004Y-90657974D01*
X141157974Y-90454004D01*
X141333575Y-90225156D01*
X141477804Y-89975345D01*
X141556057Y-89786421D01*
X141582930Y-89746203D01*
X141792317Y-89536816D01*
X141853639Y-89503334D01*
X141879997Y-89500500D01*
X146554784Y-89500500D01*
X146602235Y-89509938D01*
X146742948Y-89568223D01*
X146791140Y-89588185D01*
X146791155Y-89588191D01*
X147069783Y-89662849D01*
X147355772Y-89700500D01*
X147355779Y-89700500D01*
X147644221Y-89700500D01*
X147644228Y-89700500D01*
X147930217Y-89662849D01*
X148208845Y-89588191D01*
X148208857Y-89588185D01*
X148208860Y-89588185D01*
X148475336Y-89477808D01*
X148475339Y-89477806D01*
X148475345Y-89477804D01*
X148725156Y-89333575D01*
X148954004Y-89157974D01*
X149157974Y-88954004D01*
X149333575Y-88725156D01*
X149477804Y-88475345D01*
X149554098Y-88291155D01*
X149588185Y-88208860D01*
X149588185Y-88208857D01*
X149588191Y-88208845D01*
X149662849Y-87930217D01*
X149700500Y-87644228D01*
X149700500Y-87355772D01*
X149662849Y-87069783D01*
X149588191Y-86791155D01*
X149588186Y-86791145D01*
X149588185Y-86791139D01*
X149477808Y-86524663D01*
X149477800Y-86524647D01*
X149333579Y-86274851D01*
X149333575Y-86274844D01*
X149228685Y-86138148D01*
X149157975Y-86045997D01*
X149157969Y-86045990D01*
X148954009Y-85842030D01*
X148954002Y-85842024D01*
X148725164Y-85666431D01*
X148725162Y-85666429D01*
X148725156Y-85666425D01*
X148725151Y-85666422D01*
X148725148Y-85666420D01*
X148475352Y-85522199D01*
X148475336Y-85522191D01*
X148208860Y-85411814D01*
X148208848Y-85411810D01*
X148208845Y-85411809D01*
X147930217Y-85337151D01*
X147930211Y-85337150D01*
X147930206Y-85337149D01*
X147644238Y-85299501D01*
X147644233Y-85299500D01*
X147644228Y-85299500D01*
X147355772Y-85299500D01*
X147355766Y-85299500D01*
X147355761Y-85299501D01*
X147069793Y-85337149D01*
X147069786Y-85337150D01*
X147069783Y-85337151D01*
X146791155Y-85411809D01*
X146791145Y-85411812D01*
X146652571Y-85469211D01*
X146602235Y-85490061D01*
X146554784Y-85499500D01*
X140868872Y-85499500D01*
X140738882Y-85516615D01*
X140738881Y-85516615D01*
X140608887Y-85533728D01*
X140355580Y-85601602D01*
X140113309Y-85701954D01*
X140113300Y-85701958D01*
X139886191Y-85833079D01*
X139822810Y-85881715D01*
X139822809Y-85881716D01*
X139678145Y-85992719D01*
X139678140Y-85992723D01*
X138753800Y-86917063D01*
X138713572Y-86943943D01*
X138524659Y-87022193D01*
X138524647Y-87022199D01*
X138274851Y-87166420D01*
X138274835Y-87166431D01*
X138045997Y-87342024D01*
X138045990Y-87342030D01*
X137842030Y-87545990D01*
X137842024Y-87545997D01*
X137666431Y-87774835D01*
X137666420Y-87774851D01*
X137522199Y-88024647D01*
X137522191Y-88024663D01*
X137411814Y-88291139D01*
X137411809Y-88291155D01*
X137337152Y-88569780D01*
X137337149Y-88569793D01*
X137299501Y-88855761D01*
X137299500Y-88855778D01*
X119500500Y-88855778D01*
X119500500Y-87328886D01*
X119500499Y-87328872D01*
X119479210Y-87167173D01*
X119466270Y-87068884D01*
X119398398Y-86815581D01*
X119398394Y-86815571D01*
X119298046Y-86573309D01*
X119298041Y-86573299D01*
X119166924Y-86346196D01*
X119007281Y-86138148D01*
X119007274Y-86138140D01*
X118821860Y-85952726D01*
X118821851Y-85952718D01*
X118613803Y-85793075D01*
X118386700Y-85661958D01*
X118386690Y-85661953D01*
X118144428Y-85561605D01*
X118144421Y-85561603D01*
X118144419Y-85561602D01*
X117891116Y-85493730D01*
X117833339Y-85486123D01*
X117631127Y-85459500D01*
X117631120Y-85459500D01*
X117368880Y-85459500D01*
X117368872Y-85459500D01*
X117137772Y-85489926D01*
X117108884Y-85493730D01*
X117023476Y-85516615D01*
X116855581Y-85561602D01*
X116855571Y-85561605D01*
X116613309Y-85661953D01*
X116613299Y-85661958D01*
X116386196Y-85793075D01*
X116178148Y-85952718D01*
X115992718Y-86138148D01*
X115833075Y-86346196D01*
X115701958Y-86573299D01*
X115701953Y-86573309D01*
X115601605Y-86815571D01*
X115601602Y-86815581D01*
X115533730Y-87068885D01*
X115499500Y-87328872D01*
X115499500Y-98131127D01*
X115509733Y-98208845D01*
X115509733Y-98208846D01*
X115533728Y-98391112D01*
X115572671Y-98536447D01*
X115601602Y-98644419D01*
X115701951Y-98886685D01*
X115701958Y-98886700D01*
X115833075Y-99113802D01*
X115833076Y-99113803D01*
X115841833Y-99125215D01*
X115880332Y-99175388D01*
X115968005Y-99289646D01*
X115993199Y-99354815D01*
X115979161Y-99423260D01*
X115930346Y-99473249D01*
X115862255Y-99488913D01*
X115796505Y-99465276D01*
X115781948Y-99452813D01*
X114821856Y-98492721D01*
X114821849Y-98492715D01*
X114700368Y-98399500D01*
X114700366Y-98399498D01*
X114613802Y-98333075D01*
X114386700Y-98201958D01*
X114386690Y-98201954D01*
X114144419Y-98101602D01*
X114019240Y-98068060D01*
X113891116Y-98033729D01*
X113891115Y-98033728D01*
X113891112Y-98033728D01*
X113761118Y-98016615D01*
X113631127Y-97999500D01*
X113631120Y-97999500D01*
X113368880Y-97999500D01*
X113368872Y-97999500D01*
X113238882Y-98016615D01*
X113238881Y-98016615D01*
X113108887Y-98033728D01*
X112855580Y-98101602D01*
X112613309Y-98201954D01*
X112613304Y-98201956D01*
X112490182Y-98273040D01*
X112422282Y-98289512D01*
X112356255Y-98266659D01*
X112313065Y-98211737D01*
X112306424Y-98142184D01*
X112338441Y-98080081D01*
X112340459Y-98078014D01*
X113453828Y-96964646D01*
X113569524Y-96805405D01*
X113622236Y-96701951D01*
X113658884Y-96630025D01*
X113719709Y-96442826D01*
X113737092Y-96333076D01*
X113740783Y-96309769D01*
X113750500Y-96248421D01*
X113750500Y-87361577D01*
X113719709Y-87167173D01*
X113672603Y-87022199D01*
X113658884Y-86979975D01*
X113658882Y-86979972D01*
X113658882Y-86979970D01*
X113611743Y-86887455D01*
X113569524Y-86804595D01*
X113453828Y-86645354D01*
X113314646Y-86506172D01*
X113155405Y-86390476D01*
X112980029Y-86301117D01*
X112792826Y-86240290D01*
X112598422Y-86209500D01*
X112598417Y-86209500D01*
X112401583Y-86209500D01*
X112401578Y-86209500D01*
X112207173Y-86240290D01*
X112019970Y-86301117D01*
X111844594Y-86390476D01*
X111753741Y-86456485D01*
X111685354Y-86506172D01*
X111685352Y-86506174D01*
X111685351Y-86506174D01*
X111546174Y-86645351D01*
X111546174Y-86645352D01*
X111546172Y-86645354D01*
X111496485Y-86713741D01*
X111430476Y-86804594D01*
X111341117Y-86979970D01*
X111280290Y-87167173D01*
X111249500Y-87361577D01*
X111249500Y-95580664D01*
X111229815Y-95647703D01*
X111213181Y-95668345D01*
X108518345Y-98363181D01*
X108457022Y-98396666D01*
X108430664Y-98399500D01*
X108385258Y-98399500D01*
X108168715Y-98428009D01*
X108157762Y-98429452D01*
X108111406Y-98441873D01*
X107936112Y-98488842D01*
X107724123Y-98576650D01*
X107724109Y-98576657D01*
X107525382Y-98691392D01*
X107343338Y-98831081D01*
X107181081Y-98993338D01*
X107041392Y-99175382D01*
X106926657Y-99374109D01*
X106926650Y-99374123D01*
X106838842Y-99586112D01*
X106779453Y-99807759D01*
X106779451Y-99807770D01*
X106749500Y-100035258D01*
X106749500Y-100264741D01*
X106768863Y-100411809D01*
X106779452Y-100492238D01*
X106797107Y-100558127D01*
X106838842Y-100713887D01*
X106926650Y-100925876D01*
X106926657Y-100925890D01*
X106992896Y-101040620D01*
X107035148Y-101113803D01*
X107041392Y-101124617D01*
X107181081Y-101306661D01*
X107181089Y-101306670D01*
X107343330Y-101468911D01*
X107343338Y-101468918D01*
X107525382Y-101608607D01*
X107525385Y-101608608D01*
X107525388Y-101608611D01*
X107724112Y-101723344D01*
X107724117Y-101723346D01*
X107724123Y-101723349D01*
X107797774Y-101753856D01*
X107936113Y-101811158D01*
X108157762Y-101870548D01*
X108385266Y-101900500D01*
X108385273Y-101900500D01*
X108614727Y-101900500D01*
X108614734Y-101900500D01*
X108842238Y-101870548D01*
X109063887Y-101811158D01*
X109275888Y-101723344D01*
X109474612Y-101608611D01*
X109656661Y-101468919D01*
X109656665Y-101468914D01*
X109656670Y-101468911D01*
X109818911Y-101306670D01*
X109818914Y-101306665D01*
X109818919Y-101306661D01*
X109958611Y-101124612D01*
X110073344Y-100925888D01*
X110161158Y-100713887D01*
X110220548Y-100492238D01*
X110250500Y-100264734D01*
X110250500Y-100219336D01*
X110270185Y-100152297D01*
X110286819Y-100131655D01*
X110929561Y-99488913D01*
X111577973Y-98840500D01*
X111594881Y-98831267D01*
X111608830Y-98817968D01*
X111624917Y-98814867D01*
X111639294Y-98807017D01*
X111658513Y-98808391D01*
X111677437Y-98804744D01*
X111692645Y-98810832D01*
X111708986Y-98812001D01*
X111724412Y-98823549D01*
X111742302Y-98830711D01*
X111751805Y-98844055D01*
X111764919Y-98853873D01*
X111771652Y-98871926D01*
X111782832Y-98887625D01*
X111783611Y-98903989D01*
X111789336Y-98919337D01*
X111785239Y-98938166D01*
X111786157Y-98957416D01*
X111774977Y-98985343D01*
X111774484Y-98987610D01*
X111773040Y-98990182D01*
X111754639Y-99022053D01*
X111743052Y-99042125D01*
X111738217Y-99050499D01*
X111738216Y-99050500D01*
X111701958Y-99113299D01*
X111701954Y-99113309D01*
X111601602Y-99355580D01*
X111533729Y-99608884D01*
X111533728Y-99608889D01*
X111516976Y-99736142D01*
X111516976Y-99736143D01*
X111499500Y-99868879D01*
X111499500Y-100131120D01*
X111513907Y-100240546D01*
X111513907Y-100240547D01*
X111527312Y-100342376D01*
X111533729Y-100391116D01*
X111568851Y-100522191D01*
X111578480Y-100558127D01*
X111601602Y-100644419D01*
X111701951Y-100886685D01*
X111701958Y-100886700D01*
X111833076Y-101113803D01*
X111848567Y-101133992D01*
X111848572Y-101133997D01*
X111992715Y-101321849D01*
X111992721Y-101321856D01*
X113963181Y-103292315D01*
X113996666Y-103353638D01*
X113999500Y-103379996D01*
X113999500Y-108131127D01*
X114021140Y-108295490D01*
X114033730Y-108391116D01*
X114094785Y-108618977D01*
X114101602Y-108644418D01*
X114101605Y-108644428D01*
X114201953Y-108886690D01*
X114201958Y-108886700D01*
X114333075Y-109113803D01*
X114492718Y-109321851D01*
X114492726Y-109321860D01*
X114678140Y-109507274D01*
X114678145Y-109507278D01*
X114678149Y-109507282D01*
X114678152Y-109507284D01*
X114886196Y-109666924D01*
X115113299Y-109798041D01*
X115113309Y-109798046D01*
X115355571Y-109898394D01*
X115355581Y-109898398D01*
X115608884Y-109966270D01*
X115868880Y-110000500D01*
X115868887Y-110000500D01*
X116131113Y-110000500D01*
X116131120Y-110000500D01*
X116391116Y-109966270D01*
X116644419Y-109898398D01*
X116886697Y-109798043D01*
X117113803Y-109666924D01*
X117300015Y-109524036D01*
X117365182Y-109498843D01*
X117433627Y-109512881D01*
X117483617Y-109561694D01*
X117499500Y-109622413D01*
X117499500Y-113620003D01*
X117479815Y-113687042D01*
X117463181Y-113707684D01*
X114678149Y-116492717D01*
X108707685Y-122463181D01*
X108646362Y-122496666D01*
X108620004Y-122499500D01*
X106618872Y-122499500D01*
X106387772Y-122529926D01*
X106358884Y-122533730D01*
X106105581Y-122601602D01*
X106105571Y-122601605D01*
X105863309Y-122701953D01*
X105863299Y-122701958D01*
X105636196Y-122833075D01*
X105428148Y-122992718D01*
X105242718Y-123178148D01*
X105083075Y-123386196D01*
X104951958Y-123613299D01*
X104951953Y-123613309D01*
X104851605Y-123855571D01*
X104851602Y-123855581D01*
X104783730Y-124108885D01*
X104749500Y-124368872D01*
X94500500Y-124368872D01*
X94500500Y-120375441D01*
X97349500Y-120375441D01*
X97349500Y-120624558D01*
X97349501Y-120624575D01*
X97382017Y-120871561D01*
X97446498Y-121112207D01*
X97541830Y-121342361D01*
X97541837Y-121342376D01*
X97666400Y-121558126D01*
X97818060Y-121755774D01*
X97818066Y-121755781D01*
X97994218Y-121931933D01*
X97994225Y-121931939D01*
X98191873Y-122083599D01*
X98407623Y-122208162D01*
X98407638Y-122208169D01*
X98506825Y-122249253D01*
X98637793Y-122303502D01*
X98878435Y-122367982D01*
X99125435Y-122400500D01*
X99125442Y-122400500D01*
X99374558Y-122400500D01*
X99374565Y-122400500D01*
X99621565Y-122367982D01*
X99862207Y-122303502D01*
X100092373Y-122208164D01*
X100308127Y-122083599D01*
X100505776Y-121931938D01*
X100681938Y-121755776D01*
X100833599Y-121558127D01*
X100958164Y-121342373D01*
X101053502Y-121112207D01*
X101117982Y-120871565D01*
X101150500Y-120624565D01*
X101150500Y-120375435D01*
X101117982Y-120128435D01*
X101053502Y-119887793D01*
X100958164Y-119657627D01*
X100925028Y-119600234D01*
X100833599Y-119441873D01*
X100681939Y-119244225D01*
X100681933Y-119244218D01*
X100505781Y-119068066D01*
X100505774Y-119068060D01*
X100308126Y-118916400D01*
X100092376Y-118791837D01*
X100092361Y-118791830D01*
X99862207Y-118696498D01*
X99621561Y-118632017D01*
X99374575Y-118599501D01*
X99374570Y-118599500D01*
X99374565Y-118599500D01*
X99125435Y-118599500D01*
X99125429Y-118599500D01*
X99125424Y-118599501D01*
X98878438Y-118632017D01*
X98637792Y-118696498D01*
X98407638Y-118791830D01*
X98407623Y-118791837D01*
X98191873Y-118916400D01*
X97994225Y-119068060D01*
X97994218Y-119068066D01*
X97818066Y-119244218D01*
X97818060Y-119244225D01*
X97666400Y-119441873D01*
X97541837Y-119657623D01*
X97541830Y-119657638D01*
X97446498Y-119887792D01*
X97382017Y-120128438D01*
X97349501Y-120375424D01*
X97349500Y-120375441D01*
X94500500Y-120375441D01*
X94500500Y-113709568D01*
X105999500Y-113709568D01*
X105999500Y-113990431D01*
X106030942Y-114269494D01*
X106030945Y-114269512D01*
X106093439Y-114543317D01*
X106093443Y-114543329D01*
X106186200Y-114808411D01*
X106308053Y-115061442D01*
X106308055Y-115061445D01*
X106457477Y-115299248D01*
X106632584Y-115518825D01*
X106831175Y-115717416D01*
X107050752Y-115892523D01*
X107288555Y-116041945D01*
X107541592Y-116163801D01*
X107696987Y-116218176D01*
X107806670Y-116256556D01*
X107806682Y-116256560D01*
X108080491Y-116319055D01*
X108080497Y-116319055D01*
X108080505Y-116319057D01*
X108266547Y-116340018D01*
X108359569Y-116350499D01*
X108359572Y-116350500D01*
X108359575Y-116350500D01*
X108640428Y-116350500D01*
X108640429Y-116350499D01*
X108783055Y-116334429D01*
X108919494Y-116319057D01*
X108919499Y-116319056D01*
X108919509Y-116319055D01*
X109193318Y-116256560D01*
X109458408Y-116163801D01*
X109711445Y-116041945D01*
X109949248Y-115892523D01*
X110168825Y-115717416D01*
X110367416Y-115518825D01*
X110542523Y-115299248D01*
X110691945Y-115061445D01*
X110813801Y-114808408D01*
X110906560Y-114543318D01*
X110969055Y-114269509D01*
X110975913Y-114208647D01*
X110986495Y-114114720D01*
X111000500Y-113990425D01*
X111000500Y-113709575D01*
X110982434Y-113549232D01*
X110969057Y-113430505D01*
X110969054Y-113430487D01*
X110933638Y-113275321D01*
X110906560Y-113156682D01*
X110813801Y-112891592D01*
X110691945Y-112638555D01*
X110542523Y-112400752D01*
X110367416Y-112181175D01*
X110168825Y-111982584D01*
X109949248Y-111807477D01*
X109711445Y-111658055D01*
X109711442Y-111658053D01*
X109458411Y-111536200D01*
X109193329Y-111443443D01*
X109193317Y-111443439D01*
X108919512Y-111380945D01*
X108919494Y-111380942D01*
X108640431Y-111349500D01*
X108640425Y-111349500D01*
X108359575Y-111349500D01*
X108359568Y-111349500D01*
X108080505Y-111380942D01*
X108080487Y-111380945D01*
X107806682Y-111443439D01*
X107806670Y-111443443D01*
X107541588Y-111536200D01*
X107288557Y-111658053D01*
X107050753Y-111807476D01*
X106831175Y-111982583D01*
X106632583Y-112181175D01*
X106457476Y-112400753D01*
X106308053Y-112638557D01*
X106186200Y-112891588D01*
X106093443Y-113156670D01*
X106093439Y-113156682D01*
X106030945Y-113430487D01*
X106030942Y-113430505D01*
X105999500Y-113709568D01*
X94500500Y-113709568D01*
X94500500Y-84624500D01*
X94520185Y-84557461D01*
X94572989Y-84511706D01*
X94624500Y-84500500D01*
X156876000Y-84500500D01*
X156943039Y-84520185D01*
G37*
%TD.AperFunction*%
%TD*%
%TA.AperFunction,Conductor*%
%TO.N,Net-(T1-Pad10)*%
G36*
X172724929Y-96017701D02*
G01*
X172744137Y-96020744D01*
X172954042Y-96071138D01*
X172972534Y-96077147D01*
X173134813Y-96144364D01*
X173171971Y-96159756D01*
X173189308Y-96168590D01*
X173373355Y-96281375D01*
X173389096Y-96292812D01*
X173553238Y-96433002D01*
X173566997Y-96446761D01*
X173707187Y-96610903D01*
X173718624Y-96626644D01*
X173831409Y-96810691D01*
X173840243Y-96828028D01*
X173922850Y-97027458D01*
X173928863Y-97045964D01*
X173979254Y-97255857D01*
X173982298Y-97275075D01*
X173999618Y-97495146D01*
X174000000Y-97504875D01*
X174000000Y-102495124D01*
X173999618Y-102504852D01*
X173999618Y-102504853D01*
X173982298Y-102724924D01*
X173979254Y-102744142D01*
X173928863Y-102954035D01*
X173922850Y-102972541D01*
X173840243Y-103171971D01*
X173831409Y-103189308D01*
X173718624Y-103373355D01*
X173707187Y-103389096D01*
X173566997Y-103553238D01*
X173553238Y-103566997D01*
X173389096Y-103707187D01*
X173373355Y-103718624D01*
X173189308Y-103831409D01*
X173171971Y-103840243D01*
X172972541Y-103922850D01*
X172954035Y-103928863D01*
X172744142Y-103979254D01*
X172724924Y-103982298D01*
X172509729Y-103999234D01*
X172490271Y-103999234D01*
X172275075Y-103982298D01*
X172255857Y-103979254D01*
X172045964Y-103928863D01*
X172027458Y-103922850D01*
X171828028Y-103840243D01*
X171810691Y-103831409D01*
X171626644Y-103718624D01*
X171610903Y-103707187D01*
X171446761Y-103566997D01*
X171433002Y-103553238D01*
X171292812Y-103389096D01*
X171281375Y-103373355D01*
X171168590Y-103189308D01*
X171159756Y-103171971D01*
X171144364Y-103134813D01*
X171077147Y-102972534D01*
X171071138Y-102954042D01*
X171020744Y-102744137D01*
X171017701Y-102724923D01*
X171000382Y-102504852D01*
X171000000Y-102495124D01*
X171000000Y-97504875D01*
X171000382Y-97495147D01*
X171017701Y-97275076D01*
X171017701Y-97275075D01*
X171020743Y-97255864D01*
X171071139Y-97045953D01*
X171077145Y-97027468D01*
X171159757Y-96828024D01*
X171168590Y-96810691D01*
X171281375Y-96626644D01*
X171292812Y-96610903D01*
X171433002Y-96446761D01*
X171446761Y-96433002D01*
X171610903Y-96292812D01*
X171626644Y-96281375D01*
X171810694Y-96168588D01*
X171828024Y-96159757D01*
X172027468Y-96077145D01*
X172045953Y-96071139D01*
X172255864Y-96020743D01*
X172275068Y-96017701D01*
X172490279Y-96000765D01*
X172509721Y-96000765D01*
X172724929Y-96017701D01*
G37*
%TD.AperFunction*%
%TD*%
%TA.AperFunction,Conductor*%
%TO.N,/LED_Driver_AC-DC/PRIMARY_TIE*%
G36*
X147724929Y-91017701D02*
G01*
X147744137Y-91020744D01*
X147954042Y-91071138D01*
X147972534Y-91077147D01*
X148134813Y-91144364D01*
X148171971Y-91159756D01*
X148189308Y-91168590D01*
X148373355Y-91281375D01*
X148389096Y-91292812D01*
X148553238Y-91433002D01*
X148566997Y-91446761D01*
X148707187Y-91610903D01*
X148718624Y-91626644D01*
X148831409Y-91810691D01*
X148840243Y-91828028D01*
X148922850Y-92027458D01*
X148928863Y-92045964D01*
X148979254Y-92255857D01*
X148982298Y-92275075D01*
X148999618Y-92495146D01*
X149000000Y-92504875D01*
X149000000Y-97495124D01*
X148999618Y-97504852D01*
X148999618Y-97504853D01*
X148982298Y-97724924D01*
X148979254Y-97744142D01*
X148928863Y-97954035D01*
X148922850Y-97972541D01*
X148840243Y-98171971D01*
X148831409Y-98189308D01*
X148718624Y-98373355D01*
X148707187Y-98389096D01*
X148566997Y-98553238D01*
X148553238Y-98566997D01*
X148389096Y-98707187D01*
X148373355Y-98718624D01*
X148189308Y-98831409D01*
X148171971Y-98840243D01*
X147972541Y-98922850D01*
X147954035Y-98928863D01*
X147744142Y-98979254D01*
X147724924Y-98982298D01*
X147509729Y-98999234D01*
X147490271Y-98999234D01*
X147275075Y-98982298D01*
X147255857Y-98979254D01*
X147045964Y-98928863D01*
X147027458Y-98922850D01*
X146828028Y-98840243D01*
X146810691Y-98831409D01*
X146626644Y-98718624D01*
X146610903Y-98707187D01*
X146446761Y-98566997D01*
X146433002Y-98553238D01*
X146292812Y-98389096D01*
X146281375Y-98373355D01*
X146168590Y-98189308D01*
X146159756Y-98171971D01*
X146144364Y-98134813D01*
X146077147Y-97972534D01*
X146071138Y-97954042D01*
X146020744Y-97744137D01*
X146017701Y-97724923D01*
X146000382Y-97504852D01*
X146000000Y-97495124D01*
X146000000Y-92504875D01*
X146000382Y-92495147D01*
X146017701Y-92275076D01*
X146017701Y-92275075D01*
X146020743Y-92255864D01*
X146071139Y-92045953D01*
X146077145Y-92027468D01*
X146159757Y-91828024D01*
X146168590Y-91810691D01*
X146281375Y-91626644D01*
X146292812Y-91610903D01*
X146433002Y-91446761D01*
X146446761Y-91433002D01*
X146610903Y-91292812D01*
X146626644Y-91281375D01*
X146810694Y-91168588D01*
X146828024Y-91159757D01*
X147027468Y-91077145D01*
X147045953Y-91071139D01*
X147255864Y-91020743D01*
X147275068Y-91017701D01*
X147490279Y-91000765D01*
X147509721Y-91000765D01*
X147724929Y-91017701D01*
G37*
%TD.AperFunction*%
%TD*%
%TA.AperFunction,Conductor*%
%TO.N,/LED_Driver_AC-DC/VIN*%
G36*
X136295024Y-109517593D02*
G01*
X136320744Y-109562142D01*
X136311811Y-109612800D01*
X136302966Y-109628119D01*
X136302964Y-109628122D01*
X136302964Y-109628123D01*
X136272100Y-109743311D01*
X136272100Y-109862561D01*
X136298117Y-109959658D01*
X136302964Y-109977749D01*
X136302964Y-109977750D01*
X136362589Y-110081023D01*
X136446912Y-110165346D01*
X136544390Y-110221625D01*
X136550187Y-110224972D01*
X136591361Y-110236004D01*
X136633499Y-110265508D01*
X136647099Y-110308642D01*
X136647099Y-110465055D01*
X136647100Y-110465057D01*
X136655971Y-110509659D01*
X136689763Y-110560232D01*
X136689764Y-110560232D01*
X136689765Y-110560234D01*
X136740341Y-110594028D01*
X136784942Y-110602900D01*
X137415055Y-110602899D01*
X137459657Y-110594028D01*
X137510233Y-110560234D01*
X137544027Y-110509658D01*
X137552899Y-110465057D01*
X137552898Y-110184944D01*
X137544510Y-110142768D01*
X137552336Y-110091927D01*
X137591011Y-110058011D01*
X137597784Y-110055742D01*
X137607828Y-110052899D01*
X137640057Y-110052899D01*
X137684659Y-110044028D01*
X137718094Y-110021686D01*
X137729519Y-110018453D01*
X137744041Y-110019518D01*
X137758185Y-110016057D01*
X137773664Y-110021691D01*
X137780821Y-110022216D01*
X137784239Y-110025539D01*
X137791779Y-110028284D01*
X137815338Y-110044026D01*
X137815340Y-110044027D01*
X137815342Y-110044028D01*
X137859943Y-110052900D01*
X138140056Y-110052899D01*
X138184658Y-110044028D01*
X138184659Y-110044027D01*
X138184660Y-110044027D01*
X138208219Y-110028285D01*
X138258184Y-110016057D01*
X138270480Y-110018453D01*
X138281905Y-110021687D01*
X138315341Y-110044028D01*
X138359942Y-110052900D01*
X138392174Y-110052899D01*
X138402215Y-110055742D01*
X138415119Y-110065050D01*
X138430069Y-110070491D01*
X138435356Y-110079647D01*
X138443934Y-110085835D01*
X138447835Y-110101260D01*
X138455791Y-110115038D01*
X138455606Y-110131982D01*
X138456548Y-110135705D01*
X138455543Y-110137782D01*
X138455489Y-110142769D01*
X138447101Y-110184940D01*
X138447101Y-110465054D01*
X138447102Y-110465057D01*
X138450517Y-110482229D01*
X138442693Y-110533069D01*
X138404019Y-110566986D01*
X138376763Y-110572099D01*
X137949695Y-110572099D01*
X137856741Y-110610600D01*
X137785601Y-110681740D01*
X137747100Y-110774693D01*
X137745655Y-110781959D01*
X137743279Y-110781486D01*
X137734428Y-110810668D01*
X137730973Y-110815838D01*
X137730972Y-110815841D01*
X137722100Y-110860442D01*
X137722100Y-111724801D01*
X137704508Y-111773138D01*
X137659959Y-111798858D01*
X137646901Y-111800000D01*
X136426378Y-111800000D01*
X136379401Y-111783521D01*
X136372467Y-111777974D01*
X136183521Y-111626816D01*
X135400001Y-111000000D01*
X135400000Y-111000000D01*
X134106592Y-111000000D01*
X134062662Y-110985834D01*
X134057719Y-110982276D01*
X134049842Y-110974399D01*
X134034342Y-110965450D01*
X134031270Y-110963239D01*
X134018787Y-110944909D01*
X134004534Y-110927921D01*
X134003596Y-110922603D01*
X134002315Y-110920722D01*
X134002660Y-110917292D01*
X134000000Y-110902205D01*
X134000000Y-109575200D01*
X134017593Y-109526862D01*
X134062142Y-109501142D01*
X134075200Y-109500000D01*
X136246686Y-109500000D01*
X136295024Y-109517593D01*
G37*
%TD.AperFunction*%
%TA.AperFunction,Conductor*%
G36*
X141973138Y-109517593D02*
G01*
X141998858Y-109562142D01*
X142000000Y-109575200D01*
X142000000Y-110924800D01*
X141982407Y-110973138D01*
X141937858Y-110998858D01*
X141924800Y-111000000D01*
X140500000Y-111000000D01*
X139722026Y-111777974D01*
X139675406Y-111799714D01*
X139668852Y-111800000D01*
X138353099Y-111800000D01*
X138304761Y-111782407D01*
X138279041Y-111737858D01*
X138277899Y-111724800D01*
X138277899Y-111153099D01*
X138284581Y-111134739D01*
X138287974Y-111115499D01*
X138293170Y-111111138D01*
X138295492Y-111104761D01*
X138312414Y-111094991D01*
X138327379Y-111082434D01*
X138337147Y-111080711D01*
X138340041Y-111079041D01*
X138353099Y-111077899D01*
X138493394Y-111077899D01*
X138535172Y-111090572D01*
X138540343Y-111094027D01*
X138584944Y-111102899D01*
X139215057Y-111102898D01*
X139259659Y-111094027D01*
X139264830Y-111090572D01*
X139274790Y-111087550D01*
X139280888Y-111082434D01*
X139306608Y-111077899D01*
X139367935Y-111077899D01*
X139367943Y-111077900D01*
X139376695Y-111077900D01*
X139477306Y-111077900D01*
X139515806Y-111061951D01*
X139570257Y-111039398D01*
X139641399Y-110968256D01*
X139648620Y-110961035D01*
X139648629Y-110961022D01*
X140110023Y-110499628D01*
X140110036Y-110499619D01*
X140188398Y-110421257D01*
X140188399Y-110421256D01*
X140210952Y-110366805D01*
X140226901Y-110328304D01*
X140226901Y-110227694D01*
X140226901Y-110221639D01*
X140226900Y-110221625D01*
X140226900Y-109575200D01*
X140244493Y-109526862D01*
X140289042Y-109501142D01*
X140302100Y-109500000D01*
X141924800Y-109500000D01*
X141973138Y-109517593D01*
G37*
%TD.AperFunction*%
%TD*%
%TA.AperFunction,Conductor*%
%TO.N,+3V3*%
G36*
X142543039Y-116219685D02*
G01*
X142588794Y-116272489D01*
X142600000Y-116324000D01*
X142600000Y-118476000D01*
X142580315Y-118543039D01*
X142527511Y-118588794D01*
X142476000Y-118600000D01*
X133524000Y-118600000D01*
X133456961Y-118580315D01*
X133411206Y-118527511D01*
X133400000Y-118476000D01*
X133400000Y-116324000D01*
X133419685Y-116256961D01*
X133472489Y-116211206D01*
X133524000Y-116200000D01*
X142476000Y-116200000D01*
X142543039Y-116219685D01*
G37*
%TD.AperFunction*%
%TD*%
M02*
