%TF.GenerationSoftware,KiCad,Pcbnew,9.0.0-9.0.0-2~ubuntu24.04.1*%
%TF.CreationDate,2025-04-10T13:45:38-04:00*%
%TF.ProjectId,PSU,5053552e-6b69-4636-9164-5f7063625858,0*%
%TF.SameCoordinates,Original*%
%TF.FileFunction,Soldermask,Top*%
%TF.FilePolarity,Negative*%
%FSLAX46Y46*%
G04 Gerber Fmt 4.6, Leading zero omitted, Abs format (unit mm)*
G04 Created by KiCad (PCBNEW 9.0.0-9.0.0-2~ubuntu24.04.1) date 2025-04-10 13:45:38*
%MOMM*%
%LPD*%
G01*
G04 APERTURE LIST*
G04 Aperture macros list*
%AMRoundRect*
0 Rectangle with rounded corners*
0 $1 Rounding radius*
0 $2 $3 $4 $5 $6 $7 $8 $9 X,Y pos of 4 corners*
0 Add a 4 corners polygon primitive as box body*
4,1,4,$2,$3,$4,$5,$6,$7,$8,$9,$2,$3,0*
0 Add four circle primitives for the rounded corners*
1,1,$1+$1,$2,$3*
1,1,$1+$1,$4,$5*
1,1,$1+$1,$6,$7*
1,1,$1+$1,$8,$9*
0 Add four rect primitives between the rounded corners*
20,1,$1+$1,$2,$3,$4,$5,0*
20,1,$1+$1,$4,$5,$6,$7,0*
20,1,$1+$1,$6,$7,$8,$9,0*
20,1,$1+$1,$8,$9,$2,$3,0*%
G04 Aperture macros list end*
%ADD10R,2.400000X2.400000*%
%ADD11C,2.400000*%
%ADD12C,2.000000*%
%ADD13RoundRect,0.150000X-0.150000X-0.625000X0.150000X-0.625000X0.150000X0.625000X-0.150000X0.625000X0*%
%ADD14RoundRect,0.250000X-0.350000X-0.650000X0.350000X-0.650000X0.350000X0.650000X-0.350000X0.650000X0*%
%ADD15R,1.700000X1.700000*%
%ADD16C,1.700000*%
%ADD17R,3.400000X1.300000*%
%ADD18RoundRect,0.150000X-0.662500X-0.150000X0.662500X-0.150000X0.662500X0.150000X-0.662500X0.150000X0*%
%ADD19C,1.371600*%
%ADD20RoundRect,0.250000X0.475000X-0.250000X0.475000X0.250000X-0.475000X0.250000X-0.475000X-0.250000X0*%
%ADD21RoundRect,0.200000X-0.200000X-0.275000X0.200000X-0.275000X0.200000X0.275000X-0.200000X0.275000X0*%
%ADD22C,2.604000*%
%ADD23RoundRect,0.200000X0.200000X0.275000X-0.200000X0.275000X-0.200000X-0.275000X0.200000X-0.275000X0*%
%ADD24RoundRect,0.225000X-0.225000X-0.250000X0.225000X-0.250000X0.225000X0.250000X-0.225000X0.250000X0*%
%ADD25C,1.800000*%
%ADD26RoundRect,0.225000X0.225000X0.250000X-0.225000X0.250000X-0.225000X-0.250000X0.225000X-0.250000X0*%
%ADD27RoundRect,0.200000X-0.275000X0.200000X-0.275000X-0.200000X0.275000X-0.200000X0.275000X0.200000X0*%
%ADD28RoundRect,0.225000X0.250000X-0.225000X0.250000X0.225000X-0.250000X0.225000X-0.250000X-0.225000X0*%
%ADD29RoundRect,0.250000X-0.650000X0.325000X-0.650000X-0.325000X0.650000X-0.325000X0.650000X0.325000X0*%
%ADD30C,2.004000*%
%ADD31RoundRect,0.102000X-0.300000X0.325000X-0.300000X-0.325000X0.300000X-0.325000X0.300000X0.325000X0*%
%ADD32RoundRect,0.102000X-0.350000X0.175000X-0.350000X-0.175000X0.350000X-0.175000X0.350000X0.175000X0*%
%ADD33C,3.200000*%
%ADD34C,6.400000*%
%ADD35R,1.600000X1.600000*%
%ADD36C,1.600000*%
%ADD37R,0.599999X0.249999*%
%ADD38R,0.249999X0.599999*%
%ADD39R,0.249999X1.825000*%
%ADD40C,0.990600*%
%ADD41C,0.787400*%
%ADD42C,3.000000*%
%ADD43RoundRect,0.218750X-0.256250X0.218750X-0.256250X-0.218750X0.256250X-0.218750X0.256250X0.218750X0*%
%ADD44RoundRect,0.200000X0.275000X-0.200000X0.275000X0.200000X-0.275000X0.200000X-0.275000X-0.200000X0*%
%ADD45C,1.905000*%
%ADD46R,1.800000X1.800000*%
G04 APERTURE END LIST*
D10*
%TO.C,C11*%
X185500000Y-109000000D03*
D11*
X180500000Y-109000000D03*
%TD*%
D12*
%TO.C,C1*%
X113500000Y-100000000D03*
X123500000Y-100000000D03*
%TD*%
D13*
%TO.C,J5*%
X128070000Y-124630000D03*
X129070000Y-124630000D03*
X130070000Y-124630000D03*
X131070000Y-124630000D03*
D14*
X126770000Y-128505000D03*
X132370000Y-128505000D03*
%TD*%
D15*
%TO.C,J4*%
X120725000Y-128000000D03*
D16*
X123265000Y-128000000D03*
%TD*%
D17*
%TO.C,L2*%
X138000000Y-113950000D03*
X138000000Y-116050000D03*
%TD*%
D18*
%TO.C,U5*%
X156625000Y-123365000D03*
X156625000Y-124635000D03*
X163000000Y-124635000D03*
X163000000Y-123365000D03*
%TD*%
D19*
%TO.C,FL1*%
X128500000Y-118000000D03*
X116000000Y-118000000D03*
X116000000Y-108000000D03*
X128500000Y-108000000D03*
%TD*%
D20*
%TO.C,C27*%
X141000000Y-111950000D03*
X141000000Y-110050000D03*
%TD*%
D10*
%TO.C,C10*%
X185500000Y-91000000D03*
D11*
X180500000Y-91000000D03*
%TD*%
D21*
%TO.C,R35*%
X139675000Y-128000000D03*
X141325000Y-128000000D03*
%TD*%
D22*
%TO.C,T1*%
X147500000Y-87500000D03*
X147500000Y-92500000D03*
X147500000Y-97500000D03*
X147500000Y-102500000D03*
X147500000Y-107500000D03*
X147500000Y-112500000D03*
X172500000Y-112500000D03*
X172500000Y-107500000D03*
X172500000Y-102500000D03*
X172500000Y-97500000D03*
X172500000Y-92500000D03*
X172500000Y-87500000D03*
%TD*%
D23*
%TO.C,R31*%
X150325000Y-126946104D03*
X148675000Y-126946104D03*
%TD*%
%TO.C,R40*%
X141325000Y-123500000D03*
X139675000Y-123500000D03*
%TD*%
D24*
%TO.C,C15*%
X142725000Y-128000000D03*
X144275000Y-128000000D03*
%TD*%
D25*
%TO.C,RV1*%
X106750000Y-124500000D03*
X99250000Y-120500000D03*
%TD*%
D26*
%TO.C,C5*%
X147275000Y-125000000D03*
X145725000Y-125000000D03*
%TD*%
%TO.C,C16*%
X147275000Y-126500000D03*
X145725000Y-126500000D03*
%TD*%
D23*
%TO.C,R39*%
X141325000Y-125000000D03*
X139675000Y-125000000D03*
%TD*%
D27*
%TO.C,R19*%
X136000000Y-104175000D03*
X136000000Y-105825000D03*
%TD*%
D12*
%TO.C,C20*%
X155000000Y-119000000D03*
X165000000Y-119000000D03*
%TD*%
D26*
%TO.C,C17*%
X147275000Y-123500000D03*
X145725000Y-123500000D03*
%TD*%
D28*
%TO.C,C25*%
X134200000Y-127275000D03*
X134200000Y-125725000D03*
%TD*%
D29*
%TO.C,C32*%
X141500000Y-117025000D03*
X141500000Y-119975000D03*
%TD*%
D30*
%TO.C,L1*%
X133500000Y-99500000D03*
X128500000Y-99500000D03*
%TD*%
D20*
%TO.C,C28*%
X135000000Y-111950000D03*
X135000000Y-110050000D03*
%TD*%
D21*
%TO.C,R15*%
X148675000Y-122000000D03*
X150325000Y-122000000D03*
%TD*%
D31*
%TO.C,S1*%
X138050000Y-124425000D03*
X138050000Y-127575000D03*
X136350000Y-124425000D03*
X136350000Y-127575000D03*
D32*
X137200000Y-124275000D03*
X137200000Y-127725000D03*
%TD*%
D24*
%TO.C,C24*%
X142725000Y-123500000D03*
X144275000Y-123500000D03*
%TD*%
D33*
%TO.C,H2*%
X189000000Y-124000000D03*
%TD*%
D23*
%TO.C,R34*%
X141325000Y-126500000D03*
X139675000Y-126500000D03*
%TD*%
D28*
%TO.C,C31*%
X138000000Y-105775000D03*
X138000000Y-104225000D03*
%TD*%
D24*
%TO.C,C12*%
X142725000Y-125000000D03*
X144275000Y-125000000D03*
%TD*%
%TO.C,C30*%
X139225000Y-108000000D03*
X140775000Y-108000000D03*
%TD*%
D34*
%TO.C,H1*%
X105000000Y-90000000D03*
%TD*%
D23*
%TO.C,R30*%
X150325000Y-125446104D03*
X148675000Y-125446104D03*
%TD*%
D35*
%TO.C,C3*%
X140455113Y-98000000D03*
D36*
X138455113Y-98000000D03*
%TD*%
D23*
%TO.C,R16*%
X150325000Y-123500000D03*
X148675000Y-123500000D03*
%TD*%
D37*
%TO.C,U3*%
X138900001Y-112124999D03*
X138900001Y-111475000D03*
X138900001Y-110824999D03*
X138900001Y-110325000D03*
D38*
X138499999Y-109600000D03*
X138000000Y-109600000D03*
X137500001Y-109600000D03*
D37*
X137099999Y-110325000D03*
X137099999Y-110824999D03*
X137099999Y-111475000D03*
X137099999Y-112124999D03*
D39*
X138000000Y-111787999D03*
%TD*%
D40*
%TO.C,J3*%
X153000000Y-128040000D03*
X151984000Y-122960000D03*
X154016000Y-122960000D03*
D41*
X153635000Y-126770000D03*
X152365000Y-126770000D03*
X153635000Y-125500000D03*
X152365000Y-125500000D03*
X153635000Y-124230000D03*
X152365000Y-124230000D03*
%TD*%
D11*
%TO.C,C2*%
X139500000Y-89000000D03*
X124500000Y-89000000D03*
%TD*%
D26*
%TO.C,C29*%
X137775000Y-108000000D03*
X136225000Y-108000000D03*
%TD*%
D42*
%TO.C,J1*%
X108500000Y-100150000D03*
X108500000Y-113850000D03*
X108500000Y-107000000D03*
%TD*%
D20*
%TO.C,C34*%
X137000000Y-119950000D03*
X137000000Y-118050000D03*
%TD*%
D18*
%TO.C,U6*%
X156625000Y-127365000D03*
X156625000Y-128635000D03*
X163000000Y-128635000D03*
X163000000Y-127365000D03*
%TD*%
D43*
%TO.C,D2*%
X139000000Y-118212500D03*
X139000000Y-119787500D03*
%TD*%
D23*
%TO.C,R33*%
X138325000Y-123000000D03*
X136675000Y-123000000D03*
%TD*%
D24*
%TO.C,C22*%
X142725000Y-126500000D03*
X144275000Y-126500000D03*
%TD*%
D29*
%TO.C,C33*%
X134500000Y-117025000D03*
X134500000Y-119975000D03*
%TD*%
D44*
%TO.C,R20*%
X140000000Y-105825000D03*
X140000000Y-104175000D03*
%TD*%
D45*
%TO.C,J8*%
X117500000Y-92540000D03*
X117500000Y-87460000D03*
%TD*%
D46*
%TO.C,J6*%
X193575000Y-99350000D03*
D25*
X193575000Y-104350000D03*
X197075000Y-99350000D03*
X197075000Y-104350000D03*
%TD*%
D45*
%TO.C,J7*%
X112500000Y-92540000D03*
X112500000Y-87460000D03*
%TD*%
M02*
