%TF.GenerationSoftware,KiCad,Pcbnew,9.0.0-9.0.0-2~ubuntu24.04.1*%
%TF.CreationDate,2025-04-10T08:20:29-04:00*%
%TF.ProjectId,PSU,5053552e-6b69-4636-9164-5f7063625858,0*%
%TF.SameCoordinates,Original*%
%TF.FileFunction,Paste,Top*%
%TF.FilePolarity,Positive*%
%FSLAX46Y46*%
G04 Gerber Fmt 4.6, Leading zero omitted, Abs format (unit mm)*
G04 Created by KiCad (PCBNEW 9.0.0-9.0.0-2~ubuntu24.04.1) date 2025-04-10 08:20:29*
%MOMM*%
%LPD*%
G01*
G04 APERTURE LIST*
G04 Aperture macros list*
%AMRoundRect*
0 Rectangle with rounded corners*
0 $1 Rounding radius*
0 $2 $3 $4 $5 $6 $7 $8 $9 X,Y pos of 4 corners*
0 Add a 4 corners polygon primitive as box body*
4,1,4,$2,$3,$4,$5,$6,$7,$8,$9,$2,$3,0*
0 Add four circle primitives for the rounded corners*
1,1,$1+$1,$2,$3*
1,1,$1+$1,$4,$5*
1,1,$1+$1,$6,$7*
1,1,$1+$1,$8,$9*
0 Add four rect primitives between the rounded corners*
20,1,$1+$1,$2,$3,$4,$5,0*
20,1,$1+$1,$4,$5,$6,$7,0*
20,1,$1+$1,$6,$7,$8,$9,0*
20,1,$1+$1,$8,$9,$2,$3,0*%
G04 Aperture macros list end*
%ADD10C,0.010000*%
%ADD11C,0.000000*%
%ADD12RoundRect,0.200000X-0.200000X-0.275000X0.200000X-0.275000X0.200000X0.275000X-0.200000X0.275000X0*%
%ADD13RoundRect,0.200000X0.200000X0.275000X-0.200000X0.275000X-0.200000X-0.275000X0.200000X-0.275000X0*%
%ADD14RoundRect,0.225000X-0.225000X-0.250000X0.225000X-0.250000X0.225000X0.250000X-0.225000X0.250000X0*%
%ADD15RoundRect,0.200000X-0.275000X0.200000X-0.275000X-0.200000X0.275000X-0.200000X0.275000X0.200000X0*%
%ADD16RoundRect,0.218750X0.218750X0.256250X-0.218750X0.256250X-0.218750X-0.256250X0.218750X-0.256250X0*%
%ADD17RoundRect,0.250000X0.475000X-0.250000X0.475000X0.250000X-0.475000X0.250000X-0.475000X-0.250000X0*%
%ADD18R,0.600000X0.650000*%
%ADD19R,0.700000X0.350000*%
%ADD20RoundRect,0.218750X-0.218750X-0.256250X0.218750X-0.256250X0.218750X0.256250X-0.218750X0.256250X0*%
%ADD21RoundRect,0.200000X0.275000X-0.200000X0.275000X0.200000X-0.275000X0.200000X-0.275000X-0.200000X0*%
%ADD22RoundRect,0.225000X0.250000X-0.225000X0.250000X0.225000X-0.250000X0.225000X-0.250000X-0.225000X0*%
%ADD23RoundRect,0.250000X-0.650000X0.325000X-0.650000X-0.325000X0.650000X-0.325000X0.650000X0.325000X0*%
%ADD24RoundRect,0.218750X-0.256250X0.218750X-0.256250X-0.218750X0.256250X-0.218750X0.256250X0.218750X0*%
%ADD25RoundRect,0.150000X-0.662500X-0.150000X0.662500X-0.150000X0.662500X0.150000X-0.662500X0.150000X0*%
%ADD26RoundRect,0.225000X0.225000X0.250000X-0.225000X0.250000X-0.225000X-0.250000X0.225000X-0.250000X0*%
%ADD27R,0.400000X0.650000*%
%ADD28RoundRect,0.150000X-0.150000X-0.625000X0.150000X-0.625000X0.150000X0.625000X-0.150000X0.625000X0*%
%ADD29RoundRect,0.250000X-0.350000X-0.650000X0.350000X-0.650000X0.350000X0.650000X-0.350000X0.650000X0*%
%ADD30R,3.400000X1.300000*%
%ADD31R,0.599999X0.249999*%
%ADD32R,0.249999X0.599999*%
%ADD33RoundRect,0.218750X0.256250X-0.218750X0.256250X0.218750X-0.256250X0.218750X-0.256250X-0.218750X0*%
G04 APERTURE END LIST*
D10*
%TO.C,U4*%
X192490000Y-99566000D02*
X191160000Y-99566000D01*
X191160000Y-98934000D01*
X192490000Y-98934000D01*
X192490000Y-99566000D01*
G36*
X192490000Y-99566000D02*
G01*
X191160000Y-99566000D01*
X191160000Y-98934000D01*
X192490000Y-98934000D01*
X192490000Y-99566000D01*
G37*
X192490000Y-101066000D02*
X191160000Y-101066000D01*
X191160000Y-100434000D01*
X192490000Y-100434000D01*
X192490000Y-101066000D01*
G36*
X192490000Y-101066000D02*
G01*
X191160000Y-101066000D01*
X191160000Y-100434000D01*
X192490000Y-100434000D01*
X192490000Y-101066000D01*
G37*
X194840000Y-99566000D02*
X193510000Y-99566000D01*
X193510000Y-98934000D01*
X194840000Y-98934000D01*
X194840000Y-99566000D01*
G36*
X194840000Y-99566000D02*
G01*
X193510000Y-99566000D01*
X193510000Y-98934000D01*
X194840000Y-98934000D01*
X194840000Y-99566000D01*
G37*
X194840000Y-101066000D02*
X193510000Y-101066000D01*
X193510000Y-100434000D01*
X194840000Y-100434000D01*
X194840000Y-101066000D01*
G36*
X194840000Y-101066000D02*
G01*
X193510000Y-101066000D01*
X193510000Y-100434000D01*
X194840000Y-100434000D01*
X194840000Y-101066000D01*
G37*
D11*
%TO.C,U3*%
G36*
X138084755Y-110874961D02*
G01*
X138094135Y-110877806D01*
X138102779Y-110882426D01*
X138110355Y-110888644D01*
X138116573Y-110896221D01*
X138121194Y-110904864D01*
X138124038Y-110914245D01*
X138124998Y-110923998D01*
X138124998Y-111635998D01*
X138124038Y-111645754D01*
X138121194Y-111655135D01*
X138116573Y-111663778D01*
X138110355Y-111671355D01*
X138102779Y-111677573D01*
X138094135Y-111682193D01*
X138084755Y-111685038D01*
X138074999Y-111685998D01*
X137925001Y-111685998D01*
X137915245Y-111685038D01*
X137905865Y-111682193D01*
X137897221Y-111677573D01*
X137889645Y-111671355D01*
X137883427Y-111663778D01*
X137878806Y-111655135D01*
X137875962Y-111645754D01*
X137875002Y-111635998D01*
X137875002Y-110923998D01*
X137875962Y-110914245D01*
X137878806Y-110904864D01*
X137883427Y-110896221D01*
X137889645Y-110888644D01*
X137897221Y-110882426D01*
X137905865Y-110877806D01*
X137915245Y-110874961D01*
X137925001Y-110873998D01*
X138074999Y-110873998D01*
X138084755Y-110874961D01*
G37*
G36*
X138084755Y-111889963D02*
G01*
X138094135Y-111892807D01*
X138102779Y-111897428D01*
X138110355Y-111903646D01*
X138116573Y-111911222D01*
X138121194Y-111919866D01*
X138124038Y-111929246D01*
X138124998Y-111939002D01*
X138124998Y-112651003D01*
X138124038Y-112660756D01*
X138121194Y-112670136D01*
X138116573Y-112678780D01*
X138110355Y-112686357D01*
X138102779Y-112692575D01*
X138094135Y-112697195D01*
X138084755Y-112700040D01*
X138074999Y-112701002D01*
X137925001Y-112701002D01*
X137915245Y-112700040D01*
X137905865Y-112697195D01*
X137897221Y-112692575D01*
X137889645Y-112686357D01*
X137883427Y-112678780D01*
X137878806Y-112670136D01*
X137875962Y-112660756D01*
X137875002Y-112651003D01*
X137875002Y-111939002D01*
X137875962Y-111929246D01*
X137878806Y-111919866D01*
X137883427Y-111911222D01*
X137889645Y-111903646D01*
X137897221Y-111897428D01*
X137905865Y-111892807D01*
X137915245Y-111889963D01*
X137925001Y-111889003D01*
X138074999Y-111889003D01*
X138084755Y-111889963D01*
G37*
%TD*%
D12*
%TO.C,R35*%
X139675000Y-128000000D03*
X141325000Y-128000000D03*
%TD*%
D13*
%TO.C,R31*%
X150325000Y-126946104D03*
X148675000Y-126946104D03*
%TD*%
%TO.C,R40*%
X141325000Y-123500000D03*
X139675000Y-123500000D03*
%TD*%
D14*
%TO.C,C15*%
X142725000Y-128000000D03*
X144275000Y-128000000D03*
%TD*%
D15*
%TO.C,R9*%
X191000000Y-107175000D03*
X191000000Y-108825000D03*
%TD*%
D16*
%TO.C,D11*%
X195787500Y-95000000D03*
X194212500Y-95000000D03*
%TD*%
D17*
%TO.C,C28*%
X135000000Y-111950000D03*
X135000000Y-110050000D03*
%TD*%
D12*
%TO.C,R15*%
X148675000Y-122000000D03*
X150325000Y-122000000D03*
%TD*%
D18*
%TO.C,S1*%
X138050000Y-124425000D03*
X138050000Y-127575000D03*
X136350000Y-124425000D03*
X136350000Y-127575000D03*
D19*
X137200000Y-124275000D03*
X137200000Y-127725000D03*
%TD*%
D20*
%TO.C,D6*%
X190212500Y-105000000D03*
X191787500Y-105000000D03*
%TD*%
D16*
%TO.C,D7*%
X195787500Y-105000000D03*
X194212500Y-105000000D03*
%TD*%
D21*
%TO.C,R11*%
X195000000Y-108825000D03*
X195000000Y-107175000D03*
%TD*%
D14*
%TO.C,C24*%
X142725000Y-123500000D03*
X144275000Y-123500000D03*
%TD*%
D13*
%TO.C,R34*%
X141325000Y-126500000D03*
X139675000Y-126500000D03*
%TD*%
D22*
%TO.C,C31*%
X138000000Y-105775000D03*
X138000000Y-104225000D03*
%TD*%
D14*
%TO.C,C12*%
X142725000Y-125000000D03*
X144275000Y-125000000D03*
%TD*%
%TO.C,C30*%
X139225000Y-108000000D03*
X140775000Y-108000000D03*
%TD*%
D13*
%TO.C,R30*%
X150325000Y-125446104D03*
X148675000Y-125446104D03*
%TD*%
D23*
%TO.C,C33*%
X134500000Y-117025000D03*
X134500000Y-119975000D03*
%TD*%
D21*
%TO.C,R20*%
X140000000Y-105825000D03*
X140000000Y-104175000D03*
%TD*%
D24*
%TO.C,D2*%
X139000000Y-118212500D03*
X139000000Y-119787500D03*
%TD*%
D13*
%TO.C,R33*%
X138325000Y-123000000D03*
X136675000Y-123000000D03*
%TD*%
D25*
%TO.C,U6*%
X156625000Y-123365000D03*
X156625000Y-124635000D03*
X163000000Y-124635000D03*
X163000000Y-123365000D03*
%TD*%
D17*
%TO.C,C34*%
X137000000Y-119950000D03*
X137000000Y-118050000D03*
%TD*%
D15*
%TO.C,R19*%
X136000000Y-104175000D03*
X136000000Y-105825000D03*
%TD*%
D24*
%TO.C,D13*%
X193000000Y-91212500D03*
X193000000Y-92787500D03*
%TD*%
D26*
%TO.C,C5*%
X147275000Y-125000000D03*
X145725000Y-125000000D03*
%TD*%
D27*
%TO.C,U4*%
X191000000Y-102075000D03*
X191800000Y-102075000D03*
X192600000Y-102075000D03*
X193400000Y-102075000D03*
X194200000Y-102075000D03*
X195000000Y-102075000D03*
X195000000Y-97925000D03*
X194200000Y-97925000D03*
X193400000Y-97925000D03*
X192600000Y-97925000D03*
X191800000Y-97925000D03*
X191000000Y-97925000D03*
%TD*%
D22*
%TO.C,C25*%
X134200000Y-127275000D03*
X134200000Y-125725000D03*
%TD*%
D26*
%TO.C,C16*%
X147275000Y-126500000D03*
X145725000Y-126500000D03*
%TD*%
D13*
%TO.C,R39*%
X141325000Y-125000000D03*
X139675000Y-125000000D03*
%TD*%
D23*
%TO.C,C32*%
X141500000Y-117025000D03*
X141500000Y-119975000D03*
%TD*%
D15*
%TO.C,R14*%
X195000000Y-91175000D03*
X195000000Y-92825000D03*
%TD*%
D14*
%TO.C,C22*%
X142725000Y-126500000D03*
X144275000Y-126500000D03*
%TD*%
D28*
%TO.C,J5*%
X128070000Y-124630000D03*
X129070000Y-124630000D03*
X130070000Y-124630000D03*
X131070000Y-124630000D03*
D29*
X126770000Y-128505000D03*
X132370000Y-128505000D03*
%TD*%
D30*
%TO.C,L2*%
X138000000Y-113950000D03*
X138000000Y-116050000D03*
%TD*%
D25*
%TO.C,U5*%
X156625000Y-127365000D03*
X156625000Y-128635000D03*
X163000000Y-128635000D03*
X163000000Y-127365000D03*
%TD*%
D17*
%TO.C,C27*%
X141000000Y-111950000D03*
X141000000Y-110050000D03*
%TD*%
D13*
%TO.C,R16*%
X150325000Y-123500000D03*
X148675000Y-123500000D03*
%TD*%
D26*
%TO.C,C17*%
X147275000Y-123500000D03*
X145725000Y-123500000D03*
%TD*%
D20*
%TO.C,D10*%
X190212500Y-95000000D03*
X191787500Y-95000000D03*
%TD*%
D26*
%TO.C,C29*%
X137775000Y-108000000D03*
X136225000Y-108000000D03*
%TD*%
D31*
%TO.C,U3*%
X138900001Y-112124999D03*
X138900001Y-111475000D03*
X138900001Y-110824999D03*
X138900001Y-110325000D03*
D32*
X138499999Y-109600000D03*
X138000000Y-109600000D03*
X137500001Y-109600000D03*
D31*
X137099999Y-110325000D03*
X137099999Y-110824999D03*
X137099999Y-111475000D03*
X137099999Y-112124999D03*
%TD*%
D21*
%TO.C,R13*%
X191000000Y-92825000D03*
X191000000Y-91175000D03*
%TD*%
D33*
%TO.C,D12*%
X193000000Y-108787500D03*
X193000000Y-107212500D03*
%TD*%
M02*
