%TF.GenerationSoftware,KiCad,Pcbnew,9.0.0-9.0.0-2~ubuntu24.04.1*%
%TF.CreationDate,2025-04-10T13:45:38-04:00*%
%TF.ProjectId,PSU,5053552e-6b69-4636-9164-5f7063625858,0*%
%TF.SameCoordinates,Original*%
%TF.FileFunction,Legend,Top*%
%TF.FilePolarity,Positive*%
%FSLAX46Y46*%
G04 Gerber Fmt 4.6, Leading zero omitted, Abs format (unit mm)*
G04 Created by KiCad (PCBNEW 9.0.0-9.0.0-2~ubuntu24.04.1) date 2025-04-10 13:45:38*
%MOMM*%
%LPD*%
G01*
G04 APERTURE LIST*
%ADD10C,0.150000*%
%ADD11C,0.120000*%
%ADD12C,0.000000*%
%ADD13C,0.152400*%
%ADD14C,0.508000*%
%ADD15C,0.200000*%
%ADD16C,0.400000*%
%ADD17C,0.100000*%
%ADD18C,1.000000*%
G04 APERTURE END LIST*
D10*
X176170112Y-125126121D02*
X176312969Y-125173740D01*
X176312969Y-125173740D02*
X176360588Y-125221359D01*
X176360588Y-125221359D02*
X176408207Y-125316597D01*
X176408207Y-125316597D02*
X176408207Y-125459454D01*
X176408207Y-125459454D02*
X176360588Y-125554692D01*
X176360588Y-125554692D02*
X176312969Y-125602312D01*
X176312969Y-125602312D02*
X176217731Y-125649931D01*
X176217731Y-125649931D02*
X175836779Y-125649931D01*
X175836779Y-125649931D02*
X175836779Y-124649931D01*
X175836779Y-124649931D02*
X176170112Y-124649931D01*
X176170112Y-124649931D02*
X176265350Y-124697550D01*
X176265350Y-124697550D02*
X176312969Y-124745169D01*
X176312969Y-124745169D02*
X176360588Y-124840407D01*
X176360588Y-124840407D02*
X176360588Y-124935645D01*
X176360588Y-124935645D02*
X176312969Y-125030883D01*
X176312969Y-125030883D02*
X176265350Y-125078502D01*
X176265350Y-125078502D02*
X176170112Y-125126121D01*
X176170112Y-125126121D02*
X175836779Y-125126121D01*
X176836779Y-125649931D02*
X176836779Y-124983264D01*
X176836779Y-125173740D02*
X176884398Y-125078502D01*
X176884398Y-125078502D02*
X176932017Y-125030883D01*
X176932017Y-125030883D02*
X177027255Y-124983264D01*
X177027255Y-124983264D02*
X177122493Y-124983264D01*
X177360589Y-124983264D02*
X177598684Y-125649931D01*
X177836779Y-124983264D02*
X177598684Y-125649931D01*
X177598684Y-125649931D02*
X177503446Y-125888026D01*
X177503446Y-125888026D02*
X177455827Y-125935645D01*
X177455827Y-125935645D02*
X177360589Y-125983264D01*
X178646303Y-125649931D02*
X178646303Y-125126121D01*
X178646303Y-125126121D02*
X178598684Y-125030883D01*
X178598684Y-125030883D02*
X178503446Y-124983264D01*
X178503446Y-124983264D02*
X178312970Y-124983264D01*
X178312970Y-124983264D02*
X178217732Y-125030883D01*
X178646303Y-125602312D02*
X178551065Y-125649931D01*
X178551065Y-125649931D02*
X178312970Y-125649931D01*
X178312970Y-125649931D02*
X178217732Y-125602312D01*
X178217732Y-125602312D02*
X178170113Y-125507073D01*
X178170113Y-125507073D02*
X178170113Y-125411835D01*
X178170113Y-125411835D02*
X178217732Y-125316597D01*
X178217732Y-125316597D02*
X178312970Y-125268978D01*
X178312970Y-125268978D02*
X178551065Y-125268978D01*
X178551065Y-125268978D02*
X178646303Y-125221359D01*
X179122494Y-124983264D02*
X179122494Y-125649931D01*
X179122494Y-125078502D02*
X179170113Y-125030883D01*
X179170113Y-125030883D02*
X179265351Y-124983264D01*
X179265351Y-124983264D02*
X179408208Y-124983264D01*
X179408208Y-124983264D02*
X179503446Y-125030883D01*
X179503446Y-125030883D02*
X179551065Y-125126121D01*
X179551065Y-125126121D02*
X179551065Y-125649931D01*
X180074875Y-125602312D02*
X180074875Y-125649931D01*
X180074875Y-125649931D02*
X180027256Y-125745169D01*
X180027256Y-125745169D02*
X179979637Y-125792788D01*
X181122494Y-124649931D02*
X181693922Y-124649931D01*
X181408208Y-125649931D02*
X181408208Y-124649931D01*
X182455827Y-125649931D02*
X182455827Y-125126121D01*
X182455827Y-125126121D02*
X182408208Y-125030883D01*
X182408208Y-125030883D02*
X182312970Y-124983264D01*
X182312970Y-124983264D02*
X182122494Y-124983264D01*
X182122494Y-124983264D02*
X182027256Y-125030883D01*
X182455827Y-125602312D02*
X182360589Y-125649931D01*
X182360589Y-125649931D02*
X182122494Y-125649931D01*
X182122494Y-125649931D02*
X182027256Y-125602312D01*
X182027256Y-125602312D02*
X181979637Y-125507073D01*
X181979637Y-125507073D02*
X181979637Y-125411835D01*
X181979637Y-125411835D02*
X182027256Y-125316597D01*
X182027256Y-125316597D02*
X182122494Y-125268978D01*
X182122494Y-125268978D02*
X182360589Y-125268978D01*
X182360589Y-125268978D02*
X182455827Y-125221359D01*
X182932018Y-125649931D02*
X182932018Y-124649931D01*
X183360589Y-125649931D02*
X183360589Y-125126121D01*
X183360589Y-125126121D02*
X183312970Y-125030883D01*
X183312970Y-125030883D02*
X183217732Y-124983264D01*
X183217732Y-124983264D02*
X183074875Y-124983264D01*
X183074875Y-124983264D02*
X182979637Y-125030883D01*
X182979637Y-125030883D02*
X182932018Y-125078502D01*
X183836780Y-124983264D02*
X183836780Y-125840407D01*
X183836780Y-125840407D02*
X183789161Y-125935645D01*
X183789161Y-125935645D02*
X183693923Y-125983264D01*
X183693923Y-125983264D02*
X183646304Y-125983264D01*
X183836780Y-124649931D02*
X183789161Y-124697550D01*
X183789161Y-124697550D02*
X183836780Y-124745169D01*
X183836780Y-124745169D02*
X183884399Y-124697550D01*
X183884399Y-124697550D02*
X183836780Y-124649931D01*
X183836780Y-124649931D02*
X183836780Y-124745169D01*
X184693922Y-125602312D02*
X184598684Y-125649931D01*
X184598684Y-125649931D02*
X184408208Y-125649931D01*
X184408208Y-125649931D02*
X184312970Y-125602312D01*
X184312970Y-125602312D02*
X184265351Y-125507073D01*
X184265351Y-125507073D02*
X184265351Y-125126121D01*
X184265351Y-125126121D02*
X184312970Y-125030883D01*
X184312970Y-125030883D02*
X184408208Y-124983264D01*
X184408208Y-124983264D02*
X184598684Y-124983264D01*
X184598684Y-124983264D02*
X184693922Y-125030883D01*
X184693922Y-125030883D02*
X184741541Y-125126121D01*
X184741541Y-125126121D02*
X184741541Y-125221359D01*
X184741541Y-125221359D02*
X184265351Y-125316597D01*
X175836779Y-127259875D02*
X175836779Y-126259875D01*
X175836779Y-126736065D02*
X176408207Y-126736065D01*
X176408207Y-127259875D02*
X176408207Y-126259875D01*
X177027255Y-127259875D02*
X176932017Y-127212256D01*
X176932017Y-127212256D02*
X176884398Y-127164636D01*
X176884398Y-127164636D02*
X176836779Y-127069398D01*
X176836779Y-127069398D02*
X176836779Y-126783684D01*
X176836779Y-126783684D02*
X176884398Y-126688446D01*
X176884398Y-126688446D02*
X176932017Y-126640827D01*
X176932017Y-126640827D02*
X177027255Y-126593208D01*
X177027255Y-126593208D02*
X177170112Y-126593208D01*
X177170112Y-126593208D02*
X177265350Y-126640827D01*
X177265350Y-126640827D02*
X177312969Y-126688446D01*
X177312969Y-126688446D02*
X177360588Y-126783684D01*
X177360588Y-126783684D02*
X177360588Y-127069398D01*
X177360588Y-127069398D02*
X177312969Y-127164636D01*
X177312969Y-127164636D02*
X177265350Y-127212256D01*
X177265350Y-127212256D02*
X177170112Y-127259875D01*
X177170112Y-127259875D02*
X177027255Y-127259875D01*
X178217731Y-126593208D02*
X178217731Y-127402732D01*
X178217731Y-127402732D02*
X178170112Y-127497970D01*
X178170112Y-127497970D02*
X178122493Y-127545589D01*
X178122493Y-127545589D02*
X178027255Y-127593208D01*
X178027255Y-127593208D02*
X177884398Y-127593208D01*
X177884398Y-127593208D02*
X177789160Y-127545589D01*
X178217731Y-127212256D02*
X178122493Y-127259875D01*
X178122493Y-127259875D02*
X177932017Y-127259875D01*
X177932017Y-127259875D02*
X177836779Y-127212256D01*
X177836779Y-127212256D02*
X177789160Y-127164636D01*
X177789160Y-127164636D02*
X177741541Y-127069398D01*
X177741541Y-127069398D02*
X177741541Y-126783684D01*
X177741541Y-126783684D02*
X177789160Y-126688446D01*
X177789160Y-126688446D02*
X177836779Y-126640827D01*
X177836779Y-126640827D02*
X177932017Y-126593208D01*
X177932017Y-126593208D02*
X178122493Y-126593208D01*
X178122493Y-126593208D02*
X178217731Y-126640827D01*
X179122493Y-127259875D02*
X179122493Y-126736065D01*
X179122493Y-126736065D02*
X179074874Y-126640827D01*
X179074874Y-126640827D02*
X178979636Y-126593208D01*
X178979636Y-126593208D02*
X178789160Y-126593208D01*
X178789160Y-126593208D02*
X178693922Y-126640827D01*
X179122493Y-127212256D02*
X179027255Y-127259875D01*
X179027255Y-127259875D02*
X178789160Y-127259875D01*
X178789160Y-127259875D02*
X178693922Y-127212256D01*
X178693922Y-127212256D02*
X178646303Y-127117017D01*
X178646303Y-127117017D02*
X178646303Y-127021779D01*
X178646303Y-127021779D02*
X178693922Y-126926541D01*
X178693922Y-126926541D02*
X178789160Y-126878922D01*
X178789160Y-126878922D02*
X179027255Y-126878922D01*
X179027255Y-126878922D02*
X179122493Y-126831303D01*
X179598684Y-126593208D02*
X179598684Y-127259875D01*
X179598684Y-126688446D02*
X179646303Y-126640827D01*
X179646303Y-126640827D02*
X179741541Y-126593208D01*
X179741541Y-126593208D02*
X179884398Y-126593208D01*
X179884398Y-126593208D02*
X179979636Y-126640827D01*
X179979636Y-126640827D02*
X180027255Y-126736065D01*
X180027255Y-126736065D02*
X180027255Y-127259875D01*
X180551065Y-127212256D02*
X180551065Y-127259875D01*
X180551065Y-127259875D02*
X180503446Y-127355113D01*
X180503446Y-127355113D02*
X180455827Y-127402732D01*
X182312969Y-127259875D02*
X181979636Y-126783684D01*
X181741541Y-127259875D02*
X181741541Y-126259875D01*
X181741541Y-126259875D02*
X182122493Y-126259875D01*
X182122493Y-126259875D02*
X182217731Y-126307494D01*
X182217731Y-126307494D02*
X182265350Y-126355113D01*
X182265350Y-126355113D02*
X182312969Y-126450351D01*
X182312969Y-126450351D02*
X182312969Y-126593208D01*
X182312969Y-126593208D02*
X182265350Y-126688446D01*
X182265350Y-126688446D02*
X182217731Y-126736065D01*
X182217731Y-126736065D02*
X182122493Y-126783684D01*
X182122493Y-126783684D02*
X181741541Y-126783684D01*
X182646303Y-126593208D02*
X182884398Y-127259875D01*
X183122493Y-126593208D02*
X182884398Y-127259875D01*
X182884398Y-127259875D02*
X182789160Y-127497970D01*
X182789160Y-127497970D02*
X182741541Y-127545589D01*
X182741541Y-127545589D02*
X182646303Y-127593208D01*
X183884398Y-127212256D02*
X183789160Y-127259875D01*
X183789160Y-127259875D02*
X183598684Y-127259875D01*
X183598684Y-127259875D02*
X183503446Y-127212256D01*
X183503446Y-127212256D02*
X183455827Y-127117017D01*
X183455827Y-127117017D02*
X183455827Y-126736065D01*
X183455827Y-126736065D02*
X183503446Y-126640827D01*
X183503446Y-126640827D02*
X183598684Y-126593208D01*
X183598684Y-126593208D02*
X183789160Y-126593208D01*
X183789160Y-126593208D02*
X183884398Y-126640827D01*
X183884398Y-126640827D02*
X183932017Y-126736065D01*
X183932017Y-126736065D02*
X183932017Y-126831303D01*
X183932017Y-126831303D02*
X183455827Y-126926541D01*
X176408207Y-128869819D02*
X176074874Y-128393628D01*
X175836779Y-128869819D02*
X175836779Y-127869819D01*
X175836779Y-127869819D02*
X176217731Y-127869819D01*
X176217731Y-127869819D02*
X176312969Y-127917438D01*
X176312969Y-127917438D02*
X176360588Y-127965057D01*
X176360588Y-127965057D02*
X176408207Y-128060295D01*
X176408207Y-128060295D02*
X176408207Y-128203152D01*
X176408207Y-128203152D02*
X176360588Y-128298390D01*
X176360588Y-128298390D02*
X176312969Y-128346009D01*
X176312969Y-128346009D02*
X176217731Y-128393628D01*
X176217731Y-128393628D02*
X175836779Y-128393628D01*
X177265350Y-128869819D02*
X177265350Y-128346009D01*
X177265350Y-128346009D02*
X177217731Y-128250771D01*
X177217731Y-128250771D02*
X177122493Y-128203152D01*
X177122493Y-128203152D02*
X176932017Y-128203152D01*
X176932017Y-128203152D02*
X176836779Y-128250771D01*
X177265350Y-128822200D02*
X177170112Y-128869819D01*
X177170112Y-128869819D02*
X176932017Y-128869819D01*
X176932017Y-128869819D02*
X176836779Y-128822200D01*
X176836779Y-128822200D02*
X176789160Y-128726961D01*
X176789160Y-128726961D02*
X176789160Y-128631723D01*
X176789160Y-128631723D02*
X176836779Y-128536485D01*
X176836779Y-128536485D02*
X176932017Y-128488866D01*
X176932017Y-128488866D02*
X177170112Y-128488866D01*
X177170112Y-128488866D02*
X177265350Y-128441247D01*
X177646303Y-128203152D02*
X177884398Y-128869819D01*
X178122493Y-128203152D02*
X177884398Y-128869819D01*
X177884398Y-128869819D02*
X177789160Y-129107914D01*
X177789160Y-129107914D02*
X177741541Y-129155533D01*
X177741541Y-129155533D02*
X177646303Y-129203152D01*
X178503446Y-128869819D02*
X178503446Y-128203152D01*
X178503446Y-128298390D02*
X178551065Y-128250771D01*
X178551065Y-128250771D02*
X178646303Y-128203152D01*
X178646303Y-128203152D02*
X178789160Y-128203152D01*
X178789160Y-128203152D02*
X178884398Y-128250771D01*
X178884398Y-128250771D02*
X178932017Y-128346009D01*
X178932017Y-128346009D02*
X178932017Y-128869819D01*
X178932017Y-128346009D02*
X178979636Y-128250771D01*
X178979636Y-128250771D02*
X179074874Y-128203152D01*
X179074874Y-128203152D02*
X179217731Y-128203152D01*
X179217731Y-128203152D02*
X179312970Y-128250771D01*
X179312970Y-128250771D02*
X179360589Y-128346009D01*
X179360589Y-128346009D02*
X179360589Y-128869819D01*
X179979636Y-128869819D02*
X179884398Y-128822200D01*
X179884398Y-128822200D02*
X179836779Y-128774580D01*
X179836779Y-128774580D02*
X179789160Y-128679342D01*
X179789160Y-128679342D02*
X179789160Y-128393628D01*
X179789160Y-128393628D02*
X179836779Y-128298390D01*
X179836779Y-128298390D02*
X179884398Y-128250771D01*
X179884398Y-128250771D02*
X179979636Y-128203152D01*
X179979636Y-128203152D02*
X180122493Y-128203152D01*
X180122493Y-128203152D02*
X180217731Y-128250771D01*
X180217731Y-128250771D02*
X180265350Y-128298390D01*
X180265350Y-128298390D02*
X180312969Y-128393628D01*
X180312969Y-128393628D02*
X180312969Y-128679342D01*
X180312969Y-128679342D02*
X180265350Y-128774580D01*
X180265350Y-128774580D02*
X180217731Y-128822200D01*
X180217731Y-128822200D02*
X180122493Y-128869819D01*
X180122493Y-128869819D02*
X179979636Y-128869819D01*
X180741541Y-128203152D02*
X180741541Y-128869819D01*
X180741541Y-128298390D02*
X180789160Y-128250771D01*
X180789160Y-128250771D02*
X180884398Y-128203152D01*
X180884398Y-128203152D02*
X181027255Y-128203152D01*
X181027255Y-128203152D02*
X181122493Y-128250771D01*
X181122493Y-128250771D02*
X181170112Y-128346009D01*
X181170112Y-128346009D02*
X181170112Y-128869819D01*
X182074874Y-128869819D02*
X182074874Y-127869819D01*
X182074874Y-128822200D02*
X181979636Y-128869819D01*
X181979636Y-128869819D02*
X181789160Y-128869819D01*
X181789160Y-128869819D02*
X181693922Y-128822200D01*
X181693922Y-128822200D02*
X181646303Y-128774580D01*
X181646303Y-128774580D02*
X181598684Y-128679342D01*
X181598684Y-128679342D02*
X181598684Y-128393628D01*
X181598684Y-128393628D02*
X181646303Y-128298390D01*
X181646303Y-128298390D02*
X181693922Y-128250771D01*
X181693922Y-128250771D02*
X181789160Y-128203152D01*
X181789160Y-128203152D02*
X181979636Y-128203152D01*
X181979636Y-128203152D02*
X182074874Y-128250771D01*
X182598684Y-128822200D02*
X182598684Y-128869819D01*
X182598684Y-128869819D02*
X182551065Y-128965057D01*
X182551065Y-128965057D02*
X182503446Y-129012676D01*
X183789160Y-128869819D02*
X183789160Y-127869819D01*
X183789160Y-127869819D02*
X184027255Y-127869819D01*
X184027255Y-127869819D02*
X184170112Y-127917438D01*
X184170112Y-127917438D02*
X184265350Y-128012676D01*
X184265350Y-128012676D02*
X184312969Y-128107914D01*
X184312969Y-128107914D02*
X184360588Y-128298390D01*
X184360588Y-128298390D02*
X184360588Y-128441247D01*
X184360588Y-128441247D02*
X184312969Y-128631723D01*
X184312969Y-128631723D02*
X184265350Y-128726961D01*
X184265350Y-128726961D02*
X184170112Y-128822200D01*
X184170112Y-128822200D02*
X184027255Y-128869819D01*
X184027255Y-128869819D02*
X183789160Y-128869819D01*
X185217731Y-128869819D02*
X185217731Y-128346009D01*
X185217731Y-128346009D02*
X185170112Y-128250771D01*
X185170112Y-128250771D02*
X185074874Y-128203152D01*
X185074874Y-128203152D02*
X184884398Y-128203152D01*
X184884398Y-128203152D02*
X184789160Y-128250771D01*
X185217731Y-128822200D02*
X185122493Y-128869819D01*
X185122493Y-128869819D02*
X184884398Y-128869819D01*
X184884398Y-128869819D02*
X184789160Y-128822200D01*
X184789160Y-128822200D02*
X184741541Y-128726961D01*
X184741541Y-128726961D02*
X184741541Y-128631723D01*
X184741541Y-128631723D02*
X184789160Y-128536485D01*
X184789160Y-128536485D02*
X184884398Y-128488866D01*
X184884398Y-128488866D02*
X185122493Y-128488866D01*
X185122493Y-128488866D02*
X185217731Y-128441247D01*
X185693922Y-128203152D02*
X185693922Y-128869819D01*
X185693922Y-128298390D02*
X185741541Y-128250771D01*
X185741541Y-128250771D02*
X185836779Y-128203152D01*
X185836779Y-128203152D02*
X185979636Y-128203152D01*
X185979636Y-128203152D02*
X186074874Y-128250771D01*
X186074874Y-128250771D02*
X186122493Y-128346009D01*
X186122493Y-128346009D02*
X186122493Y-128869819D01*
X186598684Y-128869819D02*
X186598684Y-128203152D01*
X186598684Y-127869819D02*
X186551065Y-127917438D01*
X186551065Y-127917438D02*
X186598684Y-127965057D01*
X186598684Y-127965057D02*
X186646303Y-127917438D01*
X186646303Y-127917438D02*
X186598684Y-127869819D01*
X186598684Y-127869819D02*
X186598684Y-127965057D01*
X187455826Y-128822200D02*
X187360588Y-128869819D01*
X187360588Y-128869819D02*
X187170112Y-128869819D01*
X187170112Y-128869819D02*
X187074874Y-128822200D01*
X187074874Y-128822200D02*
X187027255Y-128726961D01*
X187027255Y-128726961D02*
X187027255Y-128346009D01*
X187027255Y-128346009D02*
X187074874Y-128250771D01*
X187074874Y-128250771D02*
X187170112Y-128203152D01*
X187170112Y-128203152D02*
X187360588Y-128203152D01*
X187360588Y-128203152D02*
X187455826Y-128250771D01*
X187455826Y-128250771D02*
X187503445Y-128346009D01*
X187503445Y-128346009D02*
X187503445Y-128441247D01*
X187503445Y-128441247D02*
X187027255Y-128536485D01*
X188074874Y-128869819D02*
X187979636Y-128822200D01*
X187979636Y-128822200D02*
X187932017Y-128726961D01*
X187932017Y-128726961D02*
X187932017Y-127869819D01*
X177234645Y-117649931D02*
X176901312Y-117173740D01*
X176663217Y-117649931D02*
X176663217Y-116649931D01*
X176663217Y-116649931D02*
X177044169Y-116649931D01*
X177044169Y-116649931D02*
X177139407Y-116697550D01*
X177139407Y-116697550D02*
X177187026Y-116745169D01*
X177187026Y-116745169D02*
X177234645Y-116840407D01*
X177234645Y-116840407D02*
X177234645Y-116983264D01*
X177234645Y-116983264D02*
X177187026Y-117078502D01*
X177187026Y-117078502D02*
X177139407Y-117126121D01*
X177139407Y-117126121D02*
X177044169Y-117173740D01*
X177044169Y-117173740D02*
X176663217Y-117173740D01*
X178044169Y-117602312D02*
X177948931Y-117649931D01*
X177948931Y-117649931D02*
X177758455Y-117649931D01*
X177758455Y-117649931D02*
X177663217Y-117602312D01*
X177663217Y-117602312D02*
X177615598Y-117507073D01*
X177615598Y-117507073D02*
X177615598Y-117126121D01*
X177615598Y-117126121D02*
X177663217Y-117030883D01*
X177663217Y-117030883D02*
X177758455Y-116983264D01*
X177758455Y-116983264D02*
X177948931Y-116983264D01*
X177948931Y-116983264D02*
X178044169Y-117030883D01*
X178044169Y-117030883D02*
X178091788Y-117126121D01*
X178091788Y-117126121D02*
X178091788Y-117221359D01*
X178091788Y-117221359D02*
X177615598Y-117316597D01*
X178520360Y-116983264D02*
X178520360Y-117983264D01*
X178520360Y-117030883D02*
X178615598Y-116983264D01*
X178615598Y-116983264D02*
X178806074Y-116983264D01*
X178806074Y-116983264D02*
X178901312Y-117030883D01*
X178901312Y-117030883D02*
X178948931Y-117078502D01*
X178948931Y-117078502D02*
X178996550Y-117173740D01*
X178996550Y-117173740D02*
X178996550Y-117459454D01*
X178996550Y-117459454D02*
X178948931Y-117554692D01*
X178948931Y-117554692D02*
X178901312Y-117602312D01*
X178901312Y-117602312D02*
X178806074Y-117649931D01*
X178806074Y-117649931D02*
X178615598Y-117649931D01*
X178615598Y-117649931D02*
X178520360Y-117602312D01*
X179567979Y-117649931D02*
X179472741Y-117602312D01*
X179472741Y-117602312D02*
X179425122Y-117507073D01*
X179425122Y-117507073D02*
X179425122Y-116649931D01*
X180377503Y-117649931D02*
X180377503Y-117126121D01*
X180377503Y-117126121D02*
X180329884Y-117030883D01*
X180329884Y-117030883D02*
X180234646Y-116983264D01*
X180234646Y-116983264D02*
X180044170Y-116983264D01*
X180044170Y-116983264D02*
X179948932Y-117030883D01*
X180377503Y-117602312D02*
X180282265Y-117649931D01*
X180282265Y-117649931D02*
X180044170Y-117649931D01*
X180044170Y-117649931D02*
X179948932Y-117602312D01*
X179948932Y-117602312D02*
X179901313Y-117507073D01*
X179901313Y-117507073D02*
X179901313Y-117411835D01*
X179901313Y-117411835D02*
X179948932Y-117316597D01*
X179948932Y-117316597D02*
X180044170Y-117268978D01*
X180044170Y-117268978D02*
X180282265Y-117268978D01*
X180282265Y-117268978D02*
X180377503Y-117221359D01*
X181282265Y-117602312D02*
X181187027Y-117649931D01*
X181187027Y-117649931D02*
X180996551Y-117649931D01*
X180996551Y-117649931D02*
X180901313Y-117602312D01*
X180901313Y-117602312D02*
X180853694Y-117554692D01*
X180853694Y-117554692D02*
X180806075Y-117459454D01*
X180806075Y-117459454D02*
X180806075Y-117173740D01*
X180806075Y-117173740D02*
X180853694Y-117078502D01*
X180853694Y-117078502D02*
X180901313Y-117030883D01*
X180901313Y-117030883D02*
X180996551Y-116983264D01*
X180996551Y-116983264D02*
X181187027Y-116983264D01*
X181187027Y-116983264D02*
X181282265Y-117030883D01*
X182091789Y-117602312D02*
X181996551Y-117649931D01*
X181996551Y-117649931D02*
X181806075Y-117649931D01*
X181806075Y-117649931D02*
X181710837Y-117602312D01*
X181710837Y-117602312D02*
X181663218Y-117507073D01*
X181663218Y-117507073D02*
X181663218Y-117126121D01*
X181663218Y-117126121D02*
X181710837Y-117030883D01*
X181710837Y-117030883D02*
X181806075Y-116983264D01*
X181806075Y-116983264D02*
X181996551Y-116983264D01*
X181996551Y-116983264D02*
X182091789Y-117030883D01*
X182091789Y-117030883D02*
X182139408Y-117126121D01*
X182139408Y-117126121D02*
X182139408Y-117221359D01*
X182139408Y-117221359D02*
X181663218Y-117316597D01*
X182996551Y-117649931D02*
X182996551Y-117126121D01*
X182996551Y-117126121D02*
X182948932Y-117030883D01*
X182948932Y-117030883D02*
X182853694Y-116983264D01*
X182853694Y-116983264D02*
X182663218Y-116983264D01*
X182663218Y-116983264D02*
X182567980Y-117030883D01*
X182996551Y-117602312D02*
X182901313Y-117649931D01*
X182901313Y-117649931D02*
X182663218Y-117649931D01*
X182663218Y-117649931D02*
X182567980Y-117602312D01*
X182567980Y-117602312D02*
X182520361Y-117507073D01*
X182520361Y-117507073D02*
X182520361Y-117411835D01*
X182520361Y-117411835D02*
X182567980Y-117316597D01*
X182567980Y-117316597D02*
X182663218Y-117268978D01*
X182663218Y-117268978D02*
X182901313Y-117268978D01*
X182901313Y-117268978D02*
X182996551Y-117221359D01*
X183472742Y-117649931D02*
X183472742Y-116649931D01*
X183472742Y-117030883D02*
X183567980Y-116983264D01*
X183567980Y-116983264D02*
X183758456Y-116983264D01*
X183758456Y-116983264D02*
X183853694Y-117030883D01*
X183853694Y-117030883D02*
X183901313Y-117078502D01*
X183901313Y-117078502D02*
X183948932Y-117173740D01*
X183948932Y-117173740D02*
X183948932Y-117459454D01*
X183948932Y-117459454D02*
X183901313Y-117554692D01*
X183901313Y-117554692D02*
X183853694Y-117602312D01*
X183853694Y-117602312D02*
X183758456Y-117649931D01*
X183758456Y-117649931D02*
X183567980Y-117649931D01*
X183567980Y-117649931D02*
X183472742Y-117602312D01*
X184520361Y-117649931D02*
X184425123Y-117602312D01*
X184425123Y-117602312D02*
X184377504Y-117507073D01*
X184377504Y-117507073D02*
X184377504Y-116649931D01*
X185282266Y-117602312D02*
X185187028Y-117649931D01*
X185187028Y-117649931D02*
X184996552Y-117649931D01*
X184996552Y-117649931D02*
X184901314Y-117602312D01*
X184901314Y-117602312D02*
X184853695Y-117507073D01*
X184853695Y-117507073D02*
X184853695Y-117126121D01*
X184853695Y-117126121D02*
X184901314Y-117030883D01*
X184901314Y-117030883D02*
X184996552Y-116983264D01*
X184996552Y-116983264D02*
X185187028Y-116983264D01*
X185187028Y-116983264D02*
X185282266Y-117030883D01*
X185282266Y-117030883D02*
X185329885Y-117126121D01*
X185329885Y-117126121D02*
X185329885Y-117221359D01*
X185329885Y-117221359D02*
X184853695Y-117316597D01*
X186996552Y-117649931D02*
X186520362Y-117649931D01*
X186520362Y-117649931D02*
X186520362Y-116649931D01*
X187329886Y-117126121D02*
X187663219Y-117126121D01*
X187806076Y-117649931D02*
X187329886Y-117649931D01*
X187329886Y-117649931D02*
X187329886Y-116649931D01*
X187329886Y-116649931D02*
X187806076Y-116649931D01*
X188234648Y-117649931D02*
X188234648Y-116649931D01*
X188234648Y-116649931D02*
X188472743Y-116649931D01*
X188472743Y-116649931D02*
X188615600Y-116697550D01*
X188615600Y-116697550D02*
X188710838Y-116792788D01*
X188710838Y-116792788D02*
X188758457Y-116888026D01*
X188758457Y-116888026D02*
X188806076Y-117078502D01*
X188806076Y-117078502D02*
X188806076Y-117221359D01*
X188806076Y-117221359D02*
X188758457Y-117411835D01*
X188758457Y-117411835D02*
X188710838Y-117507073D01*
X188710838Y-117507073D02*
X188615600Y-117602312D01*
X188615600Y-117602312D02*
X188472743Y-117649931D01*
X188472743Y-117649931D02*
X188234648Y-117649931D01*
X190567981Y-117554692D02*
X190520362Y-117602312D01*
X190520362Y-117602312D02*
X190377505Y-117649931D01*
X190377505Y-117649931D02*
X190282267Y-117649931D01*
X190282267Y-117649931D02*
X190139410Y-117602312D01*
X190139410Y-117602312D02*
X190044172Y-117507073D01*
X190044172Y-117507073D02*
X189996553Y-117411835D01*
X189996553Y-117411835D02*
X189948934Y-117221359D01*
X189948934Y-117221359D02*
X189948934Y-117078502D01*
X189948934Y-117078502D02*
X189996553Y-116888026D01*
X189996553Y-116888026D02*
X190044172Y-116792788D01*
X190044172Y-116792788D02*
X190139410Y-116697550D01*
X190139410Y-116697550D02*
X190282267Y-116649931D01*
X190282267Y-116649931D02*
X190377505Y-116649931D01*
X190377505Y-116649931D02*
X190520362Y-116697550D01*
X190520362Y-116697550D02*
X190567981Y-116745169D01*
X191139410Y-117649931D02*
X191044172Y-117602312D01*
X191044172Y-117602312D02*
X190996553Y-117554692D01*
X190996553Y-117554692D02*
X190948934Y-117459454D01*
X190948934Y-117459454D02*
X190948934Y-117173740D01*
X190948934Y-117173740D02*
X190996553Y-117078502D01*
X190996553Y-117078502D02*
X191044172Y-117030883D01*
X191044172Y-117030883D02*
X191139410Y-116983264D01*
X191139410Y-116983264D02*
X191282267Y-116983264D01*
X191282267Y-116983264D02*
X191377505Y-117030883D01*
X191377505Y-117030883D02*
X191425124Y-117078502D01*
X191425124Y-117078502D02*
X191472743Y-117173740D01*
X191472743Y-117173740D02*
X191472743Y-117459454D01*
X191472743Y-117459454D02*
X191425124Y-117554692D01*
X191425124Y-117554692D02*
X191377505Y-117602312D01*
X191377505Y-117602312D02*
X191282267Y-117649931D01*
X191282267Y-117649931D02*
X191139410Y-117649931D01*
X192234648Y-117126121D02*
X192377505Y-117173740D01*
X192377505Y-117173740D02*
X192425124Y-117221359D01*
X192425124Y-117221359D02*
X192472743Y-117316597D01*
X192472743Y-117316597D02*
X192472743Y-117459454D01*
X192472743Y-117459454D02*
X192425124Y-117554692D01*
X192425124Y-117554692D02*
X192377505Y-117602312D01*
X192377505Y-117602312D02*
X192282267Y-117649931D01*
X192282267Y-117649931D02*
X191901315Y-117649931D01*
X191901315Y-117649931D02*
X191901315Y-116649931D01*
X191901315Y-116649931D02*
X192234648Y-116649931D01*
X192234648Y-116649931D02*
X192329886Y-116697550D01*
X192329886Y-116697550D02*
X192377505Y-116745169D01*
X192377505Y-116745169D02*
X192425124Y-116840407D01*
X192425124Y-116840407D02*
X192425124Y-116935645D01*
X192425124Y-116935645D02*
X192377505Y-117030883D01*
X192377505Y-117030883D02*
X192329886Y-117078502D01*
X192329886Y-117078502D02*
X192234648Y-117126121D01*
X192234648Y-117126121D02*
X191901315Y-117126121D01*
X193663220Y-117649931D02*
X193663220Y-116649931D01*
X193663220Y-116649931D02*
X194044172Y-116649931D01*
X194044172Y-116649931D02*
X194139410Y-116697550D01*
X194139410Y-116697550D02*
X194187029Y-116745169D01*
X194187029Y-116745169D02*
X194234648Y-116840407D01*
X194234648Y-116840407D02*
X194234648Y-116983264D01*
X194234648Y-116983264D02*
X194187029Y-117078502D01*
X194187029Y-117078502D02*
X194139410Y-117126121D01*
X194139410Y-117126121D02*
X194044172Y-117173740D01*
X194044172Y-117173740D02*
X193663220Y-117173740D01*
X194615601Y-117602312D02*
X194758458Y-117649931D01*
X194758458Y-117649931D02*
X194996553Y-117649931D01*
X194996553Y-117649931D02*
X195091791Y-117602312D01*
X195091791Y-117602312D02*
X195139410Y-117554692D01*
X195139410Y-117554692D02*
X195187029Y-117459454D01*
X195187029Y-117459454D02*
X195187029Y-117364216D01*
X195187029Y-117364216D02*
X195139410Y-117268978D01*
X195139410Y-117268978D02*
X195091791Y-117221359D01*
X195091791Y-117221359D02*
X194996553Y-117173740D01*
X194996553Y-117173740D02*
X194806077Y-117126121D01*
X194806077Y-117126121D02*
X194710839Y-117078502D01*
X194710839Y-117078502D02*
X194663220Y-117030883D01*
X194663220Y-117030883D02*
X194615601Y-116935645D01*
X194615601Y-116935645D02*
X194615601Y-116840407D01*
X194615601Y-116840407D02*
X194663220Y-116745169D01*
X194663220Y-116745169D02*
X194710839Y-116697550D01*
X194710839Y-116697550D02*
X194806077Y-116649931D01*
X194806077Y-116649931D02*
X195044172Y-116649931D01*
X195044172Y-116649931D02*
X195187029Y-116697550D01*
X195615601Y-116649931D02*
X195615601Y-117459454D01*
X195615601Y-117459454D02*
X195663220Y-117554692D01*
X195663220Y-117554692D02*
X195710839Y-117602312D01*
X195710839Y-117602312D02*
X195806077Y-117649931D01*
X195806077Y-117649931D02*
X195996553Y-117649931D01*
X195996553Y-117649931D02*
X196091791Y-117602312D01*
X196091791Y-117602312D02*
X196139410Y-117554692D01*
X196139410Y-117554692D02*
X196187029Y-117459454D01*
X196187029Y-117459454D02*
X196187029Y-116649931D01*
X197329887Y-116983264D02*
X197567982Y-117649931D01*
X197567982Y-117649931D02*
X197806077Y-116983264D01*
X198377506Y-116649931D02*
X198472744Y-116649931D01*
X198472744Y-116649931D02*
X198567982Y-116697550D01*
X198567982Y-116697550D02*
X198615601Y-116745169D01*
X198615601Y-116745169D02*
X198663220Y-116840407D01*
X198663220Y-116840407D02*
X198710839Y-117030883D01*
X198710839Y-117030883D02*
X198710839Y-117268978D01*
X198710839Y-117268978D02*
X198663220Y-117459454D01*
X198663220Y-117459454D02*
X198615601Y-117554692D01*
X198615601Y-117554692D02*
X198567982Y-117602312D01*
X198567982Y-117602312D02*
X198472744Y-117649931D01*
X198472744Y-117649931D02*
X198377506Y-117649931D01*
X198377506Y-117649931D02*
X198282268Y-117602312D01*
X198282268Y-117602312D02*
X198234649Y-117554692D01*
X198234649Y-117554692D02*
X198187030Y-117459454D01*
X198187030Y-117459454D02*
X198139411Y-117268978D01*
X198139411Y-117268978D02*
X198139411Y-117030883D01*
X198139411Y-117030883D02*
X198187030Y-116840407D01*
X198187030Y-116840407D02*
X198234649Y-116745169D01*
X198234649Y-116745169D02*
X198282268Y-116697550D01*
X198282268Y-116697550D02*
X198377506Y-116649931D01*
X185377506Y-118259875D02*
X185615601Y-119259875D01*
X185615601Y-119259875D02*
X185806077Y-118545589D01*
X185806077Y-118545589D02*
X185996553Y-119259875D01*
X185996553Y-119259875D02*
X186234649Y-118259875D01*
X186615601Y-119259875D02*
X186615601Y-118259875D01*
X186615601Y-118259875D02*
X186996553Y-118259875D01*
X186996553Y-118259875D02*
X187091791Y-118307494D01*
X187091791Y-118307494D02*
X187139410Y-118355113D01*
X187139410Y-118355113D02*
X187187029Y-118450351D01*
X187187029Y-118450351D02*
X187187029Y-118593208D01*
X187187029Y-118593208D02*
X187139410Y-118688446D01*
X187139410Y-118688446D02*
X187091791Y-118736065D01*
X187091791Y-118736065D02*
X186996553Y-118783684D01*
X186996553Y-118783684D02*
X186615601Y-118783684D01*
X187615601Y-119259875D02*
X187615601Y-118259875D01*
X188853696Y-118736065D02*
X189187029Y-118736065D01*
X189329886Y-119259875D02*
X188853696Y-119259875D01*
X188853696Y-119259875D02*
X188853696Y-118259875D01*
X188853696Y-118259875D02*
X189329886Y-118259875D01*
X190329886Y-119164636D02*
X190282267Y-119212256D01*
X190282267Y-119212256D02*
X190139410Y-119259875D01*
X190139410Y-119259875D02*
X190044172Y-119259875D01*
X190044172Y-119259875D02*
X189901315Y-119212256D01*
X189901315Y-119212256D02*
X189806077Y-119117017D01*
X189806077Y-119117017D02*
X189758458Y-119021779D01*
X189758458Y-119021779D02*
X189710839Y-118831303D01*
X189710839Y-118831303D02*
X189710839Y-118688446D01*
X189710839Y-118688446D02*
X189758458Y-118497970D01*
X189758458Y-118497970D02*
X189806077Y-118402732D01*
X189806077Y-118402732D02*
X189901315Y-118307494D01*
X189901315Y-118307494D02*
X190044172Y-118259875D01*
X190044172Y-118259875D02*
X190139410Y-118259875D01*
X190139410Y-118259875D02*
X190282267Y-118307494D01*
X190282267Y-118307494D02*
X190329886Y-118355113D01*
X190758458Y-118736065D02*
X191091791Y-118736065D01*
X191234648Y-119259875D02*
X190758458Y-119259875D01*
X190758458Y-119259875D02*
X190758458Y-118259875D01*
X190758458Y-118259875D02*
X191234648Y-118259875D01*
X191615601Y-118355113D02*
X191663220Y-118307494D01*
X191663220Y-118307494D02*
X191758458Y-118259875D01*
X191758458Y-118259875D02*
X191996553Y-118259875D01*
X191996553Y-118259875D02*
X192091791Y-118307494D01*
X192091791Y-118307494D02*
X192139410Y-118355113D01*
X192139410Y-118355113D02*
X192187029Y-118450351D01*
X192187029Y-118450351D02*
X192187029Y-118545589D01*
X192187029Y-118545589D02*
X192139410Y-118688446D01*
X192139410Y-118688446D02*
X191567982Y-119259875D01*
X191567982Y-119259875D02*
X192187029Y-119259875D01*
X192520363Y-118259875D02*
X193187029Y-118259875D01*
X193187029Y-118259875D02*
X192758458Y-119259875D01*
X193615601Y-119259875D02*
X193806077Y-119259875D01*
X193806077Y-119259875D02*
X193901315Y-119212256D01*
X193901315Y-119212256D02*
X193948934Y-119164636D01*
X193948934Y-119164636D02*
X194044172Y-119021779D01*
X194044172Y-119021779D02*
X194091791Y-118831303D01*
X194091791Y-118831303D02*
X194091791Y-118450351D01*
X194091791Y-118450351D02*
X194044172Y-118355113D01*
X194044172Y-118355113D02*
X193996553Y-118307494D01*
X193996553Y-118307494D02*
X193901315Y-118259875D01*
X193901315Y-118259875D02*
X193710839Y-118259875D01*
X193710839Y-118259875D02*
X193615601Y-118307494D01*
X193615601Y-118307494D02*
X193567982Y-118355113D01*
X193567982Y-118355113D02*
X193520363Y-118450351D01*
X193520363Y-118450351D02*
X193520363Y-118688446D01*
X193520363Y-118688446D02*
X193567982Y-118783684D01*
X193567982Y-118783684D02*
X193615601Y-118831303D01*
X193615601Y-118831303D02*
X193710839Y-118878922D01*
X193710839Y-118878922D02*
X193901315Y-118878922D01*
X193901315Y-118878922D02*
X193996553Y-118831303D01*
X193996553Y-118831303D02*
X194044172Y-118783684D01*
X194044172Y-118783684D02*
X194091791Y-118688446D01*
X194567982Y-119259875D02*
X194758458Y-119259875D01*
X194758458Y-119259875D02*
X194853696Y-119212256D01*
X194853696Y-119212256D02*
X194901315Y-119164636D01*
X194901315Y-119164636D02*
X194996553Y-119021779D01*
X194996553Y-119021779D02*
X195044172Y-118831303D01*
X195044172Y-118831303D02*
X195044172Y-118450351D01*
X195044172Y-118450351D02*
X194996553Y-118355113D01*
X194996553Y-118355113D02*
X194948934Y-118307494D01*
X194948934Y-118307494D02*
X194853696Y-118259875D01*
X194853696Y-118259875D02*
X194663220Y-118259875D01*
X194663220Y-118259875D02*
X194567982Y-118307494D01*
X194567982Y-118307494D02*
X194520363Y-118355113D01*
X194520363Y-118355113D02*
X194472744Y-118450351D01*
X194472744Y-118450351D02*
X194472744Y-118688446D01*
X194472744Y-118688446D02*
X194520363Y-118783684D01*
X194520363Y-118783684D02*
X194567982Y-118831303D01*
X194567982Y-118831303D02*
X194663220Y-118878922D01*
X194663220Y-118878922D02*
X194853696Y-118878922D01*
X194853696Y-118878922D02*
X194948934Y-118831303D01*
X194948934Y-118831303D02*
X194996553Y-118783684D01*
X194996553Y-118783684D02*
X195044172Y-118688446D01*
X196234649Y-119259875D02*
X196234649Y-118259875D01*
X196234649Y-118259875D02*
X196472744Y-118259875D01*
X196472744Y-118259875D02*
X196615601Y-118307494D01*
X196615601Y-118307494D02*
X196710839Y-118402732D01*
X196710839Y-118402732D02*
X196758458Y-118497970D01*
X196758458Y-118497970D02*
X196806077Y-118688446D01*
X196806077Y-118688446D02*
X196806077Y-118831303D01*
X196806077Y-118831303D02*
X196758458Y-119021779D01*
X196758458Y-119021779D02*
X196710839Y-119117017D01*
X196710839Y-119117017D02*
X196615601Y-119212256D01*
X196615601Y-119212256D02*
X196472744Y-119259875D01*
X196472744Y-119259875D02*
X196234649Y-119259875D01*
X197187030Y-118355113D02*
X197234649Y-118307494D01*
X197234649Y-118307494D02*
X197329887Y-118259875D01*
X197329887Y-118259875D02*
X197567982Y-118259875D01*
X197567982Y-118259875D02*
X197663220Y-118307494D01*
X197663220Y-118307494D02*
X197710839Y-118355113D01*
X197710839Y-118355113D02*
X197758458Y-118450351D01*
X197758458Y-118450351D02*
X197758458Y-118545589D01*
X197758458Y-118545589D02*
X197710839Y-118688446D01*
X197710839Y-118688446D02*
X197139411Y-119259875D01*
X197139411Y-119259875D02*
X197758458Y-119259875D01*
X198663220Y-118259875D02*
X198187030Y-118259875D01*
X198187030Y-118259875D02*
X198139411Y-118736065D01*
X198139411Y-118736065D02*
X198187030Y-118688446D01*
X198187030Y-118688446D02*
X198282268Y-118640827D01*
X198282268Y-118640827D02*
X198520363Y-118640827D01*
X198520363Y-118640827D02*
X198615601Y-118688446D01*
X198615601Y-118688446D02*
X198663220Y-118736065D01*
X198663220Y-118736065D02*
X198710839Y-118831303D01*
X198710839Y-118831303D02*
X198710839Y-119069398D01*
X198710839Y-119069398D02*
X198663220Y-119164636D01*
X198663220Y-119164636D02*
X198615601Y-119212256D01*
X198615601Y-119212256D02*
X198520363Y-119259875D01*
X198520363Y-119259875D02*
X198282268Y-119259875D01*
X198282268Y-119259875D02*
X198187030Y-119212256D01*
X198187030Y-119212256D02*
X198139411Y-119164636D01*
X188996554Y-119965057D02*
X189044173Y-119917438D01*
X189044173Y-119917438D02*
X189139411Y-119869819D01*
X189139411Y-119869819D02*
X189377506Y-119869819D01*
X189377506Y-119869819D02*
X189472744Y-119917438D01*
X189472744Y-119917438D02*
X189520363Y-119965057D01*
X189520363Y-119965057D02*
X189567982Y-120060295D01*
X189567982Y-120060295D02*
X189567982Y-120155533D01*
X189567982Y-120155533D02*
X189520363Y-120298390D01*
X189520363Y-120298390D02*
X188948935Y-120869819D01*
X188948935Y-120869819D02*
X189567982Y-120869819D01*
X190187030Y-119869819D02*
X190282268Y-119869819D01*
X190282268Y-119869819D02*
X190377506Y-119917438D01*
X190377506Y-119917438D02*
X190425125Y-119965057D01*
X190425125Y-119965057D02*
X190472744Y-120060295D01*
X190472744Y-120060295D02*
X190520363Y-120250771D01*
X190520363Y-120250771D02*
X190520363Y-120488866D01*
X190520363Y-120488866D02*
X190472744Y-120679342D01*
X190472744Y-120679342D02*
X190425125Y-120774580D01*
X190425125Y-120774580D02*
X190377506Y-120822200D01*
X190377506Y-120822200D02*
X190282268Y-120869819D01*
X190282268Y-120869819D02*
X190187030Y-120869819D01*
X190187030Y-120869819D02*
X190091792Y-120822200D01*
X190091792Y-120822200D02*
X190044173Y-120774580D01*
X190044173Y-120774580D02*
X189996554Y-120679342D01*
X189996554Y-120679342D02*
X189948935Y-120488866D01*
X189948935Y-120488866D02*
X189948935Y-120250771D01*
X189948935Y-120250771D02*
X189996554Y-120060295D01*
X189996554Y-120060295D02*
X190044173Y-119965057D01*
X190044173Y-119965057D02*
X190091792Y-119917438D01*
X190091792Y-119917438D02*
X190187030Y-119869819D01*
X190901316Y-119965057D02*
X190948935Y-119917438D01*
X190948935Y-119917438D02*
X191044173Y-119869819D01*
X191044173Y-119869819D02*
X191282268Y-119869819D01*
X191282268Y-119869819D02*
X191377506Y-119917438D01*
X191377506Y-119917438D02*
X191425125Y-119965057D01*
X191425125Y-119965057D02*
X191472744Y-120060295D01*
X191472744Y-120060295D02*
X191472744Y-120155533D01*
X191472744Y-120155533D02*
X191425125Y-120298390D01*
X191425125Y-120298390D02*
X190853697Y-120869819D01*
X190853697Y-120869819D02*
X191472744Y-120869819D01*
X192377506Y-119869819D02*
X191901316Y-119869819D01*
X191901316Y-119869819D02*
X191853697Y-120346009D01*
X191853697Y-120346009D02*
X191901316Y-120298390D01*
X191901316Y-120298390D02*
X191996554Y-120250771D01*
X191996554Y-120250771D02*
X192234649Y-120250771D01*
X192234649Y-120250771D02*
X192329887Y-120298390D01*
X192329887Y-120298390D02*
X192377506Y-120346009D01*
X192377506Y-120346009D02*
X192425125Y-120441247D01*
X192425125Y-120441247D02*
X192425125Y-120679342D01*
X192425125Y-120679342D02*
X192377506Y-120774580D01*
X192377506Y-120774580D02*
X192329887Y-120822200D01*
X192329887Y-120822200D02*
X192234649Y-120869819D01*
X192234649Y-120869819D02*
X191996554Y-120869819D01*
X191996554Y-120869819D02*
X191901316Y-120822200D01*
X191901316Y-120822200D02*
X191853697Y-120774580D01*
X192853697Y-120488866D02*
X193615602Y-120488866D01*
X194282268Y-119869819D02*
X194377506Y-119869819D01*
X194377506Y-119869819D02*
X194472744Y-119917438D01*
X194472744Y-119917438D02*
X194520363Y-119965057D01*
X194520363Y-119965057D02*
X194567982Y-120060295D01*
X194567982Y-120060295D02*
X194615601Y-120250771D01*
X194615601Y-120250771D02*
X194615601Y-120488866D01*
X194615601Y-120488866D02*
X194567982Y-120679342D01*
X194567982Y-120679342D02*
X194520363Y-120774580D01*
X194520363Y-120774580D02*
X194472744Y-120822200D01*
X194472744Y-120822200D02*
X194377506Y-120869819D01*
X194377506Y-120869819D02*
X194282268Y-120869819D01*
X194282268Y-120869819D02*
X194187030Y-120822200D01*
X194187030Y-120822200D02*
X194139411Y-120774580D01*
X194139411Y-120774580D02*
X194091792Y-120679342D01*
X194091792Y-120679342D02*
X194044173Y-120488866D01*
X194044173Y-120488866D02*
X194044173Y-120250771D01*
X194044173Y-120250771D02*
X194091792Y-120060295D01*
X194091792Y-120060295D02*
X194139411Y-119965057D01*
X194139411Y-119965057D02*
X194187030Y-119917438D01*
X194187030Y-119917438D02*
X194282268Y-119869819D01*
X195472744Y-120203152D02*
X195472744Y-120869819D01*
X195234649Y-119822200D02*
X194996554Y-120536485D01*
X194996554Y-120536485D02*
X195615601Y-120536485D01*
X195996554Y-120488866D02*
X196758459Y-120488866D01*
X197758458Y-120869819D02*
X197187030Y-120869819D01*
X197472744Y-120869819D02*
X197472744Y-119869819D01*
X197472744Y-119869819D02*
X197377506Y-120012676D01*
X197377506Y-120012676D02*
X197282268Y-120107914D01*
X197282268Y-120107914D02*
X197187030Y-120155533D01*
X198377506Y-119869819D02*
X198472744Y-119869819D01*
X198472744Y-119869819D02*
X198567982Y-119917438D01*
X198567982Y-119917438D02*
X198615601Y-119965057D01*
X198615601Y-119965057D02*
X198663220Y-120060295D01*
X198663220Y-120060295D02*
X198710839Y-120250771D01*
X198710839Y-120250771D02*
X198710839Y-120488866D01*
X198710839Y-120488866D02*
X198663220Y-120679342D01*
X198663220Y-120679342D02*
X198615601Y-120774580D01*
X198615601Y-120774580D02*
X198567982Y-120822200D01*
X198567982Y-120822200D02*
X198472744Y-120869819D01*
X198472744Y-120869819D02*
X198377506Y-120869819D01*
X198377506Y-120869819D02*
X198282268Y-120822200D01*
X198282268Y-120822200D02*
X198234649Y-120774580D01*
X198234649Y-120774580D02*
X198187030Y-120679342D01*
X198187030Y-120679342D02*
X198139411Y-120488866D01*
X198139411Y-120488866D02*
X198139411Y-120250771D01*
X198139411Y-120250771D02*
X198187030Y-120060295D01*
X198187030Y-120060295D02*
X198234649Y-119965057D01*
X198234649Y-119965057D02*
X198282268Y-119917438D01*
X198282268Y-119917438D02*
X198377506Y-119869819D01*
X182357142Y-101859580D02*
X182309523Y-101907200D01*
X182309523Y-101907200D02*
X182166666Y-101954819D01*
X182166666Y-101954819D02*
X182071428Y-101954819D01*
X182071428Y-101954819D02*
X181928571Y-101907200D01*
X181928571Y-101907200D02*
X181833333Y-101811961D01*
X181833333Y-101811961D02*
X181785714Y-101716723D01*
X181785714Y-101716723D02*
X181738095Y-101526247D01*
X181738095Y-101526247D02*
X181738095Y-101383390D01*
X181738095Y-101383390D02*
X181785714Y-101192914D01*
X181785714Y-101192914D02*
X181833333Y-101097676D01*
X181833333Y-101097676D02*
X181928571Y-101002438D01*
X181928571Y-101002438D02*
X182071428Y-100954819D01*
X182071428Y-100954819D02*
X182166666Y-100954819D01*
X182166666Y-100954819D02*
X182309523Y-101002438D01*
X182309523Y-101002438D02*
X182357142Y-101050057D01*
X183309523Y-101954819D02*
X182738095Y-101954819D01*
X183023809Y-101954819D02*
X183023809Y-100954819D01*
X183023809Y-100954819D02*
X182928571Y-101097676D01*
X182928571Y-101097676D02*
X182833333Y-101192914D01*
X182833333Y-101192914D02*
X182738095Y-101240533D01*
X184261904Y-101954819D02*
X183690476Y-101954819D01*
X183976190Y-101954819D02*
X183976190Y-100954819D01*
X183976190Y-100954819D02*
X183880952Y-101097676D01*
X183880952Y-101097676D02*
X183785714Y-101192914D01*
X183785714Y-101192914D02*
X183690476Y-101240533D01*
X118333333Y-100359580D02*
X118285714Y-100407200D01*
X118285714Y-100407200D02*
X118142857Y-100454819D01*
X118142857Y-100454819D02*
X118047619Y-100454819D01*
X118047619Y-100454819D02*
X117904762Y-100407200D01*
X117904762Y-100407200D02*
X117809524Y-100311961D01*
X117809524Y-100311961D02*
X117761905Y-100216723D01*
X117761905Y-100216723D02*
X117714286Y-100026247D01*
X117714286Y-100026247D02*
X117714286Y-99883390D01*
X117714286Y-99883390D02*
X117761905Y-99692914D01*
X117761905Y-99692914D02*
X117809524Y-99597676D01*
X117809524Y-99597676D02*
X117904762Y-99502438D01*
X117904762Y-99502438D02*
X118047619Y-99454819D01*
X118047619Y-99454819D02*
X118142857Y-99454819D01*
X118142857Y-99454819D02*
X118285714Y-99502438D01*
X118285714Y-99502438D02*
X118333333Y-99550057D01*
X119285714Y-100454819D02*
X118714286Y-100454819D01*
X119000000Y-100454819D02*
X119000000Y-99454819D01*
X119000000Y-99454819D02*
X118904762Y-99597676D01*
X118904762Y-99597676D02*
X118809524Y-99692914D01*
X118809524Y-99692914D02*
X118714286Y-99740533D01*
X129236666Y-125657883D02*
X129236666Y-126372168D01*
X129236666Y-126372168D02*
X129189047Y-126515025D01*
X129189047Y-126515025D02*
X129093809Y-126610264D01*
X129093809Y-126610264D02*
X128950952Y-126657883D01*
X128950952Y-126657883D02*
X128855714Y-126657883D01*
X130189047Y-125657883D02*
X129712857Y-125657883D01*
X129712857Y-125657883D02*
X129665238Y-126134073D01*
X129665238Y-126134073D02*
X129712857Y-126086454D01*
X129712857Y-126086454D02*
X129808095Y-126038835D01*
X129808095Y-126038835D02*
X130046190Y-126038835D01*
X130046190Y-126038835D02*
X130141428Y-126086454D01*
X130141428Y-126086454D02*
X130189047Y-126134073D01*
X130189047Y-126134073D02*
X130236666Y-126229311D01*
X130236666Y-126229311D02*
X130236666Y-126467406D01*
X130236666Y-126467406D02*
X130189047Y-126562644D01*
X130189047Y-126562644D02*
X130141428Y-126610264D01*
X130141428Y-126610264D02*
X130046190Y-126657883D01*
X130046190Y-126657883D02*
X129808095Y-126657883D01*
X129808095Y-126657883D02*
X129712857Y-126610264D01*
X129712857Y-126610264D02*
X129665238Y-126562644D01*
X121661666Y-124954819D02*
X121661666Y-125669104D01*
X121661666Y-125669104D02*
X121614047Y-125811961D01*
X121614047Y-125811961D02*
X121518809Y-125907200D01*
X121518809Y-125907200D02*
X121375952Y-125954819D01*
X121375952Y-125954819D02*
X121280714Y-125954819D01*
X122566428Y-125288152D02*
X122566428Y-125954819D01*
X122328333Y-124907200D02*
X122090238Y-125621485D01*
X122090238Y-125621485D02*
X122709285Y-125621485D01*
X134833333Y-115454819D02*
X134357143Y-115454819D01*
X134357143Y-115454819D02*
X134357143Y-114454819D01*
X135119048Y-114550057D02*
X135166667Y-114502438D01*
X135166667Y-114502438D02*
X135261905Y-114454819D01*
X135261905Y-114454819D02*
X135500000Y-114454819D01*
X135500000Y-114454819D02*
X135595238Y-114502438D01*
X135595238Y-114502438D02*
X135642857Y-114550057D01*
X135642857Y-114550057D02*
X135690476Y-114645295D01*
X135690476Y-114645295D02*
X135690476Y-114740533D01*
X135690476Y-114740533D02*
X135642857Y-114883390D01*
X135642857Y-114883390D02*
X135071429Y-115454819D01*
X135071429Y-115454819D02*
X135690476Y-115454819D01*
X159050595Y-123449819D02*
X159050595Y-124259342D01*
X159050595Y-124259342D02*
X159098214Y-124354580D01*
X159098214Y-124354580D02*
X159145833Y-124402200D01*
X159145833Y-124402200D02*
X159241071Y-124449819D01*
X159241071Y-124449819D02*
X159431547Y-124449819D01*
X159431547Y-124449819D02*
X159526785Y-124402200D01*
X159526785Y-124402200D02*
X159574404Y-124354580D01*
X159574404Y-124354580D02*
X159622023Y-124259342D01*
X159622023Y-124259342D02*
X159622023Y-123449819D01*
X160574404Y-123449819D02*
X160098214Y-123449819D01*
X160098214Y-123449819D02*
X160050595Y-123926009D01*
X160050595Y-123926009D02*
X160098214Y-123878390D01*
X160098214Y-123878390D02*
X160193452Y-123830771D01*
X160193452Y-123830771D02*
X160431547Y-123830771D01*
X160431547Y-123830771D02*
X160526785Y-123878390D01*
X160526785Y-123878390D02*
X160574404Y-123926009D01*
X160574404Y-123926009D02*
X160622023Y-124021247D01*
X160622023Y-124021247D02*
X160622023Y-124259342D01*
X160622023Y-124259342D02*
X160574404Y-124354580D01*
X160574404Y-124354580D02*
X160526785Y-124402200D01*
X160526785Y-124402200D02*
X160431547Y-124449819D01*
X160431547Y-124449819D02*
X160193452Y-124449819D01*
X160193452Y-124449819D02*
X160098214Y-124402200D01*
X160098214Y-124402200D02*
X160050595Y-124354580D01*
X122616804Y-112931009D02*
X122283471Y-112931009D01*
X122283471Y-113454819D02*
X122283471Y-112454819D01*
X122283471Y-112454819D02*
X122759661Y-112454819D01*
X123616804Y-113454819D02*
X123140614Y-113454819D01*
X123140614Y-113454819D02*
X123140614Y-112454819D01*
X124473947Y-113454819D02*
X123902519Y-113454819D01*
X124188233Y-113454819D02*
X124188233Y-112454819D01*
X124188233Y-112454819D02*
X124092995Y-112597676D01*
X124092995Y-112597676D02*
X123997757Y-112692914D01*
X123997757Y-112692914D02*
X123902519Y-112740533D01*
X142859580Y-111642857D02*
X142907200Y-111690476D01*
X142907200Y-111690476D02*
X142954819Y-111833333D01*
X142954819Y-111833333D02*
X142954819Y-111928571D01*
X142954819Y-111928571D02*
X142907200Y-112071428D01*
X142907200Y-112071428D02*
X142811961Y-112166666D01*
X142811961Y-112166666D02*
X142716723Y-112214285D01*
X142716723Y-112214285D02*
X142526247Y-112261904D01*
X142526247Y-112261904D02*
X142383390Y-112261904D01*
X142383390Y-112261904D02*
X142192914Y-112214285D01*
X142192914Y-112214285D02*
X142097676Y-112166666D01*
X142097676Y-112166666D02*
X142002438Y-112071428D01*
X142002438Y-112071428D02*
X141954819Y-111928571D01*
X141954819Y-111928571D02*
X141954819Y-111833333D01*
X141954819Y-111833333D02*
X142002438Y-111690476D01*
X142002438Y-111690476D02*
X142050057Y-111642857D01*
X142050057Y-111261904D02*
X142002438Y-111214285D01*
X142002438Y-111214285D02*
X141954819Y-111119047D01*
X141954819Y-111119047D02*
X141954819Y-110880952D01*
X141954819Y-110880952D02*
X142002438Y-110785714D01*
X142002438Y-110785714D02*
X142050057Y-110738095D01*
X142050057Y-110738095D02*
X142145295Y-110690476D01*
X142145295Y-110690476D02*
X142240533Y-110690476D01*
X142240533Y-110690476D02*
X142383390Y-110738095D01*
X142383390Y-110738095D02*
X142954819Y-111309523D01*
X142954819Y-111309523D02*
X142954819Y-110690476D01*
X141954819Y-110357142D02*
X141954819Y-109690476D01*
X141954819Y-109690476D02*
X142954819Y-110119047D01*
X182357142Y-98859580D02*
X182309523Y-98907200D01*
X182309523Y-98907200D02*
X182166666Y-98954819D01*
X182166666Y-98954819D02*
X182071428Y-98954819D01*
X182071428Y-98954819D02*
X181928571Y-98907200D01*
X181928571Y-98907200D02*
X181833333Y-98811961D01*
X181833333Y-98811961D02*
X181785714Y-98716723D01*
X181785714Y-98716723D02*
X181738095Y-98526247D01*
X181738095Y-98526247D02*
X181738095Y-98383390D01*
X181738095Y-98383390D02*
X181785714Y-98192914D01*
X181785714Y-98192914D02*
X181833333Y-98097676D01*
X181833333Y-98097676D02*
X181928571Y-98002438D01*
X181928571Y-98002438D02*
X182071428Y-97954819D01*
X182071428Y-97954819D02*
X182166666Y-97954819D01*
X182166666Y-97954819D02*
X182309523Y-98002438D01*
X182309523Y-98002438D02*
X182357142Y-98050057D01*
X183309523Y-98954819D02*
X182738095Y-98954819D01*
X183023809Y-98954819D02*
X183023809Y-97954819D01*
X183023809Y-97954819D02*
X182928571Y-98097676D01*
X182928571Y-98097676D02*
X182833333Y-98192914D01*
X182833333Y-98192914D02*
X182738095Y-98240533D01*
X183928571Y-97954819D02*
X184023809Y-97954819D01*
X184023809Y-97954819D02*
X184119047Y-98002438D01*
X184119047Y-98002438D02*
X184166666Y-98050057D01*
X184166666Y-98050057D02*
X184214285Y-98145295D01*
X184214285Y-98145295D02*
X184261904Y-98335771D01*
X184261904Y-98335771D02*
X184261904Y-98573866D01*
X184261904Y-98573866D02*
X184214285Y-98764342D01*
X184214285Y-98764342D02*
X184166666Y-98859580D01*
X184166666Y-98859580D02*
X184119047Y-98907200D01*
X184119047Y-98907200D02*
X184023809Y-98954819D01*
X184023809Y-98954819D02*
X183928571Y-98954819D01*
X183928571Y-98954819D02*
X183833333Y-98907200D01*
X183833333Y-98907200D02*
X183785714Y-98859580D01*
X183785714Y-98859580D02*
X183738095Y-98764342D01*
X183738095Y-98764342D02*
X183690476Y-98573866D01*
X183690476Y-98573866D02*
X183690476Y-98335771D01*
X183690476Y-98335771D02*
X183738095Y-98145295D01*
X183738095Y-98145295D02*
X183785714Y-98050057D01*
X183785714Y-98050057D02*
X183833333Y-98002438D01*
X183833333Y-98002438D02*
X183928571Y-97954819D01*
X158713095Y-99454819D02*
X159284523Y-99454819D01*
X158998809Y-100454819D02*
X158998809Y-99454819D01*
X160141666Y-100454819D02*
X159570238Y-100454819D01*
X159855952Y-100454819D02*
X159855952Y-99454819D01*
X159855952Y-99454819D02*
X159760714Y-99597676D01*
X159760714Y-99597676D02*
X159665476Y-99692914D01*
X159665476Y-99692914D02*
X159570238Y-99740533D01*
X102404761Y-122954819D02*
X102071428Y-122478628D01*
X101833333Y-122954819D02*
X101833333Y-121954819D01*
X101833333Y-121954819D02*
X102214285Y-121954819D01*
X102214285Y-121954819D02*
X102309523Y-122002438D01*
X102309523Y-122002438D02*
X102357142Y-122050057D01*
X102357142Y-122050057D02*
X102404761Y-122145295D01*
X102404761Y-122145295D02*
X102404761Y-122288152D01*
X102404761Y-122288152D02*
X102357142Y-122383390D01*
X102357142Y-122383390D02*
X102309523Y-122431009D01*
X102309523Y-122431009D02*
X102214285Y-122478628D01*
X102214285Y-122478628D02*
X101833333Y-122478628D01*
X102690476Y-121954819D02*
X103023809Y-122954819D01*
X103023809Y-122954819D02*
X103357142Y-121954819D01*
X104214285Y-122954819D02*
X103642857Y-122954819D01*
X103928571Y-122954819D02*
X103928571Y-121954819D01*
X103928571Y-121954819D02*
X103833333Y-122097676D01*
X103833333Y-122097676D02*
X103738095Y-122192914D01*
X103738095Y-122192914D02*
X103642857Y-122240533D01*
X137454819Y-102642857D02*
X136978628Y-102976190D01*
X137454819Y-103214285D02*
X136454819Y-103214285D01*
X136454819Y-103214285D02*
X136454819Y-102833333D01*
X136454819Y-102833333D02*
X136502438Y-102738095D01*
X136502438Y-102738095D02*
X136550057Y-102690476D01*
X136550057Y-102690476D02*
X136645295Y-102642857D01*
X136645295Y-102642857D02*
X136788152Y-102642857D01*
X136788152Y-102642857D02*
X136883390Y-102690476D01*
X136883390Y-102690476D02*
X136931009Y-102738095D01*
X136931009Y-102738095D02*
X136978628Y-102833333D01*
X136978628Y-102833333D02*
X136978628Y-103214285D01*
X137454819Y-101690476D02*
X137454819Y-102261904D01*
X137454819Y-101976190D02*
X136454819Y-101976190D01*
X136454819Y-101976190D02*
X136597676Y-102071428D01*
X136597676Y-102071428D02*
X136692914Y-102166666D01*
X136692914Y-102166666D02*
X136740533Y-102261904D01*
X137454819Y-101214285D02*
X137454819Y-101023809D01*
X137454819Y-101023809D02*
X137407200Y-100928571D01*
X137407200Y-100928571D02*
X137359580Y-100880952D01*
X137359580Y-100880952D02*
X137216723Y-100785714D01*
X137216723Y-100785714D02*
X137026247Y-100738095D01*
X137026247Y-100738095D02*
X136645295Y-100738095D01*
X136645295Y-100738095D02*
X136550057Y-100785714D01*
X136550057Y-100785714D02*
X136502438Y-100833333D01*
X136502438Y-100833333D02*
X136454819Y-100928571D01*
X136454819Y-100928571D02*
X136454819Y-101119047D01*
X136454819Y-101119047D02*
X136502438Y-101214285D01*
X136502438Y-101214285D02*
X136550057Y-101261904D01*
X136550057Y-101261904D02*
X136645295Y-101309523D01*
X136645295Y-101309523D02*
X136883390Y-101309523D01*
X136883390Y-101309523D02*
X136978628Y-101261904D01*
X136978628Y-101261904D02*
X137026247Y-101214285D01*
X137026247Y-101214285D02*
X137073866Y-101119047D01*
X137073866Y-101119047D02*
X137073866Y-100928571D01*
X137073866Y-100928571D02*
X137026247Y-100833333D01*
X137026247Y-100833333D02*
X136978628Y-100785714D01*
X136978628Y-100785714D02*
X136883390Y-100738095D01*
X159357142Y-119359580D02*
X159309523Y-119407200D01*
X159309523Y-119407200D02*
X159166666Y-119454819D01*
X159166666Y-119454819D02*
X159071428Y-119454819D01*
X159071428Y-119454819D02*
X158928571Y-119407200D01*
X158928571Y-119407200D02*
X158833333Y-119311961D01*
X158833333Y-119311961D02*
X158785714Y-119216723D01*
X158785714Y-119216723D02*
X158738095Y-119026247D01*
X158738095Y-119026247D02*
X158738095Y-118883390D01*
X158738095Y-118883390D02*
X158785714Y-118692914D01*
X158785714Y-118692914D02*
X158833333Y-118597676D01*
X158833333Y-118597676D02*
X158928571Y-118502438D01*
X158928571Y-118502438D02*
X159071428Y-118454819D01*
X159071428Y-118454819D02*
X159166666Y-118454819D01*
X159166666Y-118454819D02*
X159309523Y-118502438D01*
X159309523Y-118502438D02*
X159357142Y-118550057D01*
X159738095Y-118550057D02*
X159785714Y-118502438D01*
X159785714Y-118502438D02*
X159880952Y-118454819D01*
X159880952Y-118454819D02*
X160119047Y-118454819D01*
X160119047Y-118454819D02*
X160214285Y-118502438D01*
X160214285Y-118502438D02*
X160261904Y-118550057D01*
X160261904Y-118550057D02*
X160309523Y-118645295D01*
X160309523Y-118645295D02*
X160309523Y-118740533D01*
X160309523Y-118740533D02*
X160261904Y-118883390D01*
X160261904Y-118883390D02*
X159690476Y-119454819D01*
X159690476Y-119454819D02*
X160309523Y-119454819D01*
X160928571Y-118454819D02*
X161023809Y-118454819D01*
X161023809Y-118454819D02*
X161119047Y-118502438D01*
X161119047Y-118502438D02*
X161166666Y-118550057D01*
X161166666Y-118550057D02*
X161214285Y-118645295D01*
X161214285Y-118645295D02*
X161261904Y-118835771D01*
X161261904Y-118835771D02*
X161261904Y-119073866D01*
X161261904Y-119073866D02*
X161214285Y-119264342D01*
X161214285Y-119264342D02*
X161166666Y-119359580D01*
X161166666Y-119359580D02*
X161119047Y-119407200D01*
X161119047Y-119407200D02*
X161023809Y-119454819D01*
X161023809Y-119454819D02*
X160928571Y-119454819D01*
X160928571Y-119454819D02*
X160833333Y-119407200D01*
X160833333Y-119407200D02*
X160785714Y-119359580D01*
X160785714Y-119359580D02*
X160738095Y-119264342D01*
X160738095Y-119264342D02*
X160690476Y-119073866D01*
X160690476Y-119073866D02*
X160690476Y-118835771D01*
X160690476Y-118835771D02*
X160738095Y-118645295D01*
X160738095Y-118645295D02*
X160785714Y-118550057D01*
X160785714Y-118550057D02*
X160833333Y-118502438D01*
X160833333Y-118502438D02*
X160928571Y-118454819D01*
X140857142Y-121859580D02*
X140809523Y-121907200D01*
X140809523Y-121907200D02*
X140666666Y-121954819D01*
X140666666Y-121954819D02*
X140571428Y-121954819D01*
X140571428Y-121954819D02*
X140428571Y-121907200D01*
X140428571Y-121907200D02*
X140333333Y-121811961D01*
X140333333Y-121811961D02*
X140285714Y-121716723D01*
X140285714Y-121716723D02*
X140238095Y-121526247D01*
X140238095Y-121526247D02*
X140238095Y-121383390D01*
X140238095Y-121383390D02*
X140285714Y-121192914D01*
X140285714Y-121192914D02*
X140333333Y-121097676D01*
X140333333Y-121097676D02*
X140428571Y-121002438D01*
X140428571Y-121002438D02*
X140571428Y-120954819D01*
X140571428Y-120954819D02*
X140666666Y-120954819D01*
X140666666Y-120954819D02*
X140809523Y-121002438D01*
X140809523Y-121002438D02*
X140857142Y-121050057D01*
X141190476Y-120954819D02*
X141809523Y-120954819D01*
X141809523Y-120954819D02*
X141476190Y-121335771D01*
X141476190Y-121335771D02*
X141619047Y-121335771D01*
X141619047Y-121335771D02*
X141714285Y-121383390D01*
X141714285Y-121383390D02*
X141761904Y-121431009D01*
X141761904Y-121431009D02*
X141809523Y-121526247D01*
X141809523Y-121526247D02*
X141809523Y-121764342D01*
X141809523Y-121764342D02*
X141761904Y-121859580D01*
X141761904Y-121859580D02*
X141714285Y-121907200D01*
X141714285Y-121907200D02*
X141619047Y-121954819D01*
X141619047Y-121954819D02*
X141333333Y-121954819D01*
X141333333Y-121954819D02*
X141238095Y-121907200D01*
X141238095Y-121907200D02*
X141190476Y-121859580D01*
X142190476Y-121050057D02*
X142238095Y-121002438D01*
X142238095Y-121002438D02*
X142333333Y-120954819D01*
X142333333Y-120954819D02*
X142571428Y-120954819D01*
X142571428Y-120954819D02*
X142666666Y-121002438D01*
X142666666Y-121002438D02*
X142714285Y-121050057D01*
X142714285Y-121050057D02*
X142761904Y-121145295D01*
X142761904Y-121145295D02*
X142761904Y-121240533D01*
X142761904Y-121240533D02*
X142714285Y-121383390D01*
X142714285Y-121383390D02*
X142142857Y-121954819D01*
X142142857Y-121954819D02*
X142761904Y-121954819D01*
X130833333Y-99704819D02*
X130357143Y-99704819D01*
X130357143Y-99704819D02*
X130357143Y-98704819D01*
X131690476Y-99704819D02*
X131119048Y-99704819D01*
X131404762Y-99704819D02*
X131404762Y-98704819D01*
X131404762Y-98704819D02*
X131309524Y-98847676D01*
X131309524Y-98847676D02*
X131214286Y-98942914D01*
X131214286Y-98942914D02*
X131119048Y-98990533D01*
X133959580Y-111642857D02*
X134007200Y-111690476D01*
X134007200Y-111690476D02*
X134054819Y-111833333D01*
X134054819Y-111833333D02*
X134054819Y-111928571D01*
X134054819Y-111928571D02*
X134007200Y-112071428D01*
X134007200Y-112071428D02*
X133911961Y-112166666D01*
X133911961Y-112166666D02*
X133816723Y-112214285D01*
X133816723Y-112214285D02*
X133626247Y-112261904D01*
X133626247Y-112261904D02*
X133483390Y-112261904D01*
X133483390Y-112261904D02*
X133292914Y-112214285D01*
X133292914Y-112214285D02*
X133197676Y-112166666D01*
X133197676Y-112166666D02*
X133102438Y-112071428D01*
X133102438Y-112071428D02*
X133054819Y-111928571D01*
X133054819Y-111928571D02*
X133054819Y-111833333D01*
X133054819Y-111833333D02*
X133102438Y-111690476D01*
X133102438Y-111690476D02*
X133150057Y-111642857D01*
X133150057Y-111261904D02*
X133102438Y-111214285D01*
X133102438Y-111214285D02*
X133054819Y-111119047D01*
X133054819Y-111119047D02*
X133054819Y-110880952D01*
X133054819Y-110880952D02*
X133102438Y-110785714D01*
X133102438Y-110785714D02*
X133150057Y-110738095D01*
X133150057Y-110738095D02*
X133245295Y-110690476D01*
X133245295Y-110690476D02*
X133340533Y-110690476D01*
X133340533Y-110690476D02*
X133483390Y-110738095D01*
X133483390Y-110738095D02*
X134054819Y-111309523D01*
X134054819Y-111309523D02*
X134054819Y-110690476D01*
X133483390Y-110119047D02*
X133435771Y-110214285D01*
X133435771Y-110214285D02*
X133388152Y-110261904D01*
X133388152Y-110261904D02*
X133292914Y-110309523D01*
X133292914Y-110309523D02*
X133245295Y-110309523D01*
X133245295Y-110309523D02*
X133150057Y-110261904D01*
X133150057Y-110261904D02*
X133102438Y-110214285D01*
X133102438Y-110214285D02*
X133054819Y-110119047D01*
X133054819Y-110119047D02*
X133054819Y-109928571D01*
X133054819Y-109928571D02*
X133102438Y-109833333D01*
X133102438Y-109833333D02*
X133150057Y-109785714D01*
X133150057Y-109785714D02*
X133245295Y-109738095D01*
X133245295Y-109738095D02*
X133292914Y-109738095D01*
X133292914Y-109738095D02*
X133388152Y-109785714D01*
X133388152Y-109785714D02*
X133435771Y-109833333D01*
X133435771Y-109833333D02*
X133483390Y-109928571D01*
X133483390Y-109928571D02*
X133483390Y-110119047D01*
X133483390Y-110119047D02*
X133531009Y-110214285D01*
X133531009Y-110214285D02*
X133578628Y-110261904D01*
X133578628Y-110261904D02*
X133673866Y-110309523D01*
X133673866Y-110309523D02*
X133864342Y-110309523D01*
X133864342Y-110309523D02*
X133959580Y-110261904D01*
X133959580Y-110261904D02*
X134007200Y-110214285D01*
X134007200Y-110214285D02*
X134054819Y-110119047D01*
X134054819Y-110119047D02*
X134054819Y-109928571D01*
X134054819Y-109928571D02*
X134007200Y-109833333D01*
X134007200Y-109833333D02*
X133959580Y-109785714D01*
X133959580Y-109785714D02*
X133864342Y-109738095D01*
X133864342Y-109738095D02*
X133673866Y-109738095D01*
X133673866Y-109738095D02*
X133578628Y-109785714D01*
X133578628Y-109785714D02*
X133531009Y-109833333D01*
X133531009Y-109833333D02*
X133483390Y-109928571D01*
X136438095Y-129407200D02*
X136580952Y-129454819D01*
X136580952Y-129454819D02*
X136819047Y-129454819D01*
X136819047Y-129454819D02*
X136914285Y-129407200D01*
X136914285Y-129407200D02*
X136961904Y-129359580D01*
X136961904Y-129359580D02*
X137009523Y-129264342D01*
X137009523Y-129264342D02*
X137009523Y-129169104D01*
X137009523Y-129169104D02*
X136961904Y-129073866D01*
X136961904Y-129073866D02*
X136914285Y-129026247D01*
X136914285Y-129026247D02*
X136819047Y-128978628D01*
X136819047Y-128978628D02*
X136628571Y-128931009D01*
X136628571Y-128931009D02*
X136533333Y-128883390D01*
X136533333Y-128883390D02*
X136485714Y-128835771D01*
X136485714Y-128835771D02*
X136438095Y-128740533D01*
X136438095Y-128740533D02*
X136438095Y-128645295D01*
X136438095Y-128645295D02*
X136485714Y-128550057D01*
X136485714Y-128550057D02*
X136533333Y-128502438D01*
X136533333Y-128502438D02*
X136628571Y-128454819D01*
X136628571Y-128454819D02*
X136866666Y-128454819D01*
X136866666Y-128454819D02*
X137009523Y-128502438D01*
X137961904Y-129454819D02*
X137390476Y-129454819D01*
X137676190Y-129454819D02*
X137676190Y-128454819D01*
X137676190Y-128454819D02*
X137580952Y-128597676D01*
X137580952Y-128597676D02*
X137485714Y-128692914D01*
X137485714Y-128692914D02*
X137390476Y-128740533D01*
X138859580Y-102642857D02*
X138907200Y-102690476D01*
X138907200Y-102690476D02*
X138954819Y-102833333D01*
X138954819Y-102833333D02*
X138954819Y-102928571D01*
X138954819Y-102928571D02*
X138907200Y-103071428D01*
X138907200Y-103071428D02*
X138811961Y-103166666D01*
X138811961Y-103166666D02*
X138716723Y-103214285D01*
X138716723Y-103214285D02*
X138526247Y-103261904D01*
X138526247Y-103261904D02*
X138383390Y-103261904D01*
X138383390Y-103261904D02*
X138192914Y-103214285D01*
X138192914Y-103214285D02*
X138097676Y-103166666D01*
X138097676Y-103166666D02*
X138002438Y-103071428D01*
X138002438Y-103071428D02*
X137954819Y-102928571D01*
X137954819Y-102928571D02*
X137954819Y-102833333D01*
X137954819Y-102833333D02*
X138002438Y-102690476D01*
X138002438Y-102690476D02*
X138050057Y-102642857D01*
X137954819Y-102309523D02*
X137954819Y-101690476D01*
X137954819Y-101690476D02*
X138335771Y-102023809D01*
X138335771Y-102023809D02*
X138335771Y-101880952D01*
X138335771Y-101880952D02*
X138383390Y-101785714D01*
X138383390Y-101785714D02*
X138431009Y-101738095D01*
X138431009Y-101738095D02*
X138526247Y-101690476D01*
X138526247Y-101690476D02*
X138764342Y-101690476D01*
X138764342Y-101690476D02*
X138859580Y-101738095D01*
X138859580Y-101738095D02*
X138907200Y-101785714D01*
X138907200Y-101785714D02*
X138954819Y-101880952D01*
X138954819Y-101880952D02*
X138954819Y-102166666D01*
X138954819Y-102166666D02*
X138907200Y-102261904D01*
X138907200Y-102261904D02*
X138859580Y-102309523D01*
X138954819Y-100738095D02*
X138954819Y-101309523D01*
X138954819Y-101023809D02*
X137954819Y-101023809D01*
X137954819Y-101023809D02*
X138097676Y-101119047D01*
X138097676Y-101119047D02*
X138192914Y-101214285D01*
X138192914Y-101214285D02*
X138240533Y-101309523D01*
X142859580Y-108642857D02*
X142907200Y-108690476D01*
X142907200Y-108690476D02*
X142954819Y-108833333D01*
X142954819Y-108833333D02*
X142954819Y-108928571D01*
X142954819Y-108928571D02*
X142907200Y-109071428D01*
X142907200Y-109071428D02*
X142811961Y-109166666D01*
X142811961Y-109166666D02*
X142716723Y-109214285D01*
X142716723Y-109214285D02*
X142526247Y-109261904D01*
X142526247Y-109261904D02*
X142383390Y-109261904D01*
X142383390Y-109261904D02*
X142192914Y-109214285D01*
X142192914Y-109214285D02*
X142097676Y-109166666D01*
X142097676Y-109166666D02*
X142002438Y-109071428D01*
X142002438Y-109071428D02*
X141954819Y-108928571D01*
X141954819Y-108928571D02*
X141954819Y-108833333D01*
X141954819Y-108833333D02*
X142002438Y-108690476D01*
X142002438Y-108690476D02*
X142050057Y-108642857D01*
X141954819Y-108309523D02*
X141954819Y-107690476D01*
X141954819Y-107690476D02*
X142335771Y-108023809D01*
X142335771Y-108023809D02*
X142335771Y-107880952D01*
X142335771Y-107880952D02*
X142383390Y-107785714D01*
X142383390Y-107785714D02*
X142431009Y-107738095D01*
X142431009Y-107738095D02*
X142526247Y-107690476D01*
X142526247Y-107690476D02*
X142764342Y-107690476D01*
X142764342Y-107690476D02*
X142859580Y-107738095D01*
X142859580Y-107738095D02*
X142907200Y-107785714D01*
X142907200Y-107785714D02*
X142954819Y-107880952D01*
X142954819Y-107880952D02*
X142954819Y-108166666D01*
X142954819Y-108166666D02*
X142907200Y-108261904D01*
X142907200Y-108261904D02*
X142859580Y-108309523D01*
X141954819Y-107071428D02*
X141954819Y-106976190D01*
X141954819Y-106976190D02*
X142002438Y-106880952D01*
X142002438Y-106880952D02*
X142050057Y-106833333D01*
X142050057Y-106833333D02*
X142145295Y-106785714D01*
X142145295Y-106785714D02*
X142335771Y-106738095D01*
X142335771Y-106738095D02*
X142573866Y-106738095D01*
X142573866Y-106738095D02*
X142764342Y-106785714D01*
X142764342Y-106785714D02*
X142859580Y-106833333D01*
X142859580Y-106833333D02*
X142907200Y-106880952D01*
X142907200Y-106880952D02*
X142954819Y-106976190D01*
X142954819Y-106976190D02*
X142954819Y-107071428D01*
X142954819Y-107071428D02*
X142907200Y-107166666D01*
X142907200Y-107166666D02*
X142859580Y-107214285D01*
X142859580Y-107214285D02*
X142764342Y-107261904D01*
X142764342Y-107261904D02*
X142573866Y-107309523D01*
X142573866Y-107309523D02*
X142335771Y-107309523D01*
X142335771Y-107309523D02*
X142145295Y-107261904D01*
X142145295Y-107261904D02*
X142050057Y-107214285D01*
X142050057Y-107214285D02*
X142002438Y-107166666D01*
X142002438Y-107166666D02*
X141954819Y-107071428D01*
X139333333Y-94859580D02*
X139285714Y-94907200D01*
X139285714Y-94907200D02*
X139142857Y-94954819D01*
X139142857Y-94954819D02*
X139047619Y-94954819D01*
X139047619Y-94954819D02*
X138904762Y-94907200D01*
X138904762Y-94907200D02*
X138809524Y-94811961D01*
X138809524Y-94811961D02*
X138761905Y-94716723D01*
X138761905Y-94716723D02*
X138714286Y-94526247D01*
X138714286Y-94526247D02*
X138714286Y-94383390D01*
X138714286Y-94383390D02*
X138761905Y-94192914D01*
X138761905Y-94192914D02*
X138809524Y-94097676D01*
X138809524Y-94097676D02*
X138904762Y-94002438D01*
X138904762Y-94002438D02*
X139047619Y-93954819D01*
X139047619Y-93954819D02*
X139142857Y-93954819D01*
X139142857Y-93954819D02*
X139285714Y-94002438D01*
X139285714Y-94002438D02*
X139333333Y-94050057D01*
X139666667Y-93954819D02*
X140285714Y-93954819D01*
X140285714Y-93954819D02*
X139952381Y-94335771D01*
X139952381Y-94335771D02*
X140095238Y-94335771D01*
X140095238Y-94335771D02*
X140190476Y-94383390D01*
X140190476Y-94383390D02*
X140238095Y-94431009D01*
X140238095Y-94431009D02*
X140285714Y-94526247D01*
X140285714Y-94526247D02*
X140285714Y-94764342D01*
X140285714Y-94764342D02*
X140238095Y-94859580D01*
X140238095Y-94859580D02*
X140190476Y-94907200D01*
X140190476Y-94907200D02*
X140095238Y-94954819D01*
X140095238Y-94954819D02*
X139809524Y-94954819D01*
X139809524Y-94954819D02*
X139714286Y-94907200D01*
X139714286Y-94907200D02*
X139666667Y-94859580D01*
X140238095Y-112954819D02*
X140238095Y-113764342D01*
X140238095Y-113764342D02*
X140285714Y-113859580D01*
X140285714Y-113859580D02*
X140333333Y-113907200D01*
X140333333Y-113907200D02*
X140428571Y-113954819D01*
X140428571Y-113954819D02*
X140619047Y-113954819D01*
X140619047Y-113954819D02*
X140714285Y-113907200D01*
X140714285Y-113907200D02*
X140761904Y-113859580D01*
X140761904Y-113859580D02*
X140809523Y-113764342D01*
X140809523Y-113764342D02*
X140809523Y-112954819D01*
X141190476Y-112954819D02*
X141809523Y-112954819D01*
X141809523Y-112954819D02*
X141476190Y-113335771D01*
X141476190Y-113335771D02*
X141619047Y-113335771D01*
X141619047Y-113335771D02*
X141714285Y-113383390D01*
X141714285Y-113383390D02*
X141761904Y-113431009D01*
X141761904Y-113431009D02*
X141809523Y-113526247D01*
X141809523Y-113526247D02*
X141809523Y-113764342D01*
X141809523Y-113764342D02*
X141761904Y-113859580D01*
X141761904Y-113859580D02*
X141714285Y-113907200D01*
X141714285Y-113907200D02*
X141619047Y-113954819D01*
X141619047Y-113954819D02*
X141333333Y-113954819D01*
X141333333Y-113954819D02*
X141238095Y-113907200D01*
X141238095Y-113907200D02*
X141190476Y-113859580D01*
X131833333Y-89359580D02*
X131785714Y-89407200D01*
X131785714Y-89407200D02*
X131642857Y-89454819D01*
X131642857Y-89454819D02*
X131547619Y-89454819D01*
X131547619Y-89454819D02*
X131404762Y-89407200D01*
X131404762Y-89407200D02*
X131309524Y-89311961D01*
X131309524Y-89311961D02*
X131261905Y-89216723D01*
X131261905Y-89216723D02*
X131214286Y-89026247D01*
X131214286Y-89026247D02*
X131214286Y-88883390D01*
X131214286Y-88883390D02*
X131261905Y-88692914D01*
X131261905Y-88692914D02*
X131309524Y-88597676D01*
X131309524Y-88597676D02*
X131404762Y-88502438D01*
X131404762Y-88502438D02*
X131547619Y-88454819D01*
X131547619Y-88454819D02*
X131642857Y-88454819D01*
X131642857Y-88454819D02*
X131785714Y-88502438D01*
X131785714Y-88502438D02*
X131833333Y-88550057D01*
X132214286Y-88550057D02*
X132261905Y-88502438D01*
X132261905Y-88502438D02*
X132357143Y-88454819D01*
X132357143Y-88454819D02*
X132595238Y-88454819D01*
X132595238Y-88454819D02*
X132690476Y-88502438D01*
X132690476Y-88502438D02*
X132738095Y-88550057D01*
X132738095Y-88550057D02*
X132785714Y-88645295D01*
X132785714Y-88645295D02*
X132785714Y-88740533D01*
X132785714Y-88740533D02*
X132738095Y-88883390D01*
X132738095Y-88883390D02*
X132166667Y-89454819D01*
X132166667Y-89454819D02*
X132785714Y-89454819D01*
X134859580Y-108642857D02*
X134907200Y-108690476D01*
X134907200Y-108690476D02*
X134954819Y-108833333D01*
X134954819Y-108833333D02*
X134954819Y-108928571D01*
X134954819Y-108928571D02*
X134907200Y-109071428D01*
X134907200Y-109071428D02*
X134811961Y-109166666D01*
X134811961Y-109166666D02*
X134716723Y-109214285D01*
X134716723Y-109214285D02*
X134526247Y-109261904D01*
X134526247Y-109261904D02*
X134383390Y-109261904D01*
X134383390Y-109261904D02*
X134192914Y-109214285D01*
X134192914Y-109214285D02*
X134097676Y-109166666D01*
X134097676Y-109166666D02*
X134002438Y-109071428D01*
X134002438Y-109071428D02*
X133954819Y-108928571D01*
X133954819Y-108928571D02*
X133954819Y-108833333D01*
X133954819Y-108833333D02*
X134002438Y-108690476D01*
X134002438Y-108690476D02*
X134050057Y-108642857D01*
X134050057Y-108261904D02*
X134002438Y-108214285D01*
X134002438Y-108214285D02*
X133954819Y-108119047D01*
X133954819Y-108119047D02*
X133954819Y-107880952D01*
X133954819Y-107880952D02*
X134002438Y-107785714D01*
X134002438Y-107785714D02*
X134050057Y-107738095D01*
X134050057Y-107738095D02*
X134145295Y-107690476D01*
X134145295Y-107690476D02*
X134240533Y-107690476D01*
X134240533Y-107690476D02*
X134383390Y-107738095D01*
X134383390Y-107738095D02*
X134954819Y-108309523D01*
X134954819Y-108309523D02*
X134954819Y-107690476D01*
X134954819Y-107214285D02*
X134954819Y-107023809D01*
X134954819Y-107023809D02*
X134907200Y-106928571D01*
X134907200Y-106928571D02*
X134859580Y-106880952D01*
X134859580Y-106880952D02*
X134716723Y-106785714D01*
X134716723Y-106785714D02*
X134526247Y-106738095D01*
X134526247Y-106738095D02*
X134145295Y-106738095D01*
X134145295Y-106738095D02*
X134050057Y-106785714D01*
X134050057Y-106785714D02*
X134002438Y-106833333D01*
X134002438Y-106833333D02*
X133954819Y-106928571D01*
X133954819Y-106928571D02*
X133954819Y-107119047D01*
X133954819Y-107119047D02*
X134002438Y-107214285D01*
X134002438Y-107214285D02*
X134050057Y-107261904D01*
X134050057Y-107261904D02*
X134145295Y-107309523D01*
X134145295Y-107309523D02*
X134383390Y-107309523D01*
X134383390Y-107309523D02*
X134478628Y-107261904D01*
X134478628Y-107261904D02*
X134526247Y-107214285D01*
X134526247Y-107214285D02*
X134573866Y-107119047D01*
X134573866Y-107119047D02*
X134573866Y-106928571D01*
X134573866Y-106928571D02*
X134526247Y-106833333D01*
X134526247Y-106833333D02*
X134478628Y-106785714D01*
X134478628Y-106785714D02*
X134383390Y-106738095D01*
X102304166Y-106454819D02*
X102304166Y-107169104D01*
X102304166Y-107169104D02*
X102256547Y-107311961D01*
X102256547Y-107311961D02*
X102161309Y-107407200D01*
X102161309Y-107407200D02*
X102018452Y-107454819D01*
X102018452Y-107454819D02*
X101923214Y-107454819D01*
X103304166Y-107454819D02*
X102732738Y-107454819D01*
X103018452Y-107454819D02*
X103018452Y-106454819D01*
X103018452Y-106454819D02*
X102923214Y-106597676D01*
X102923214Y-106597676D02*
X102827976Y-106692914D01*
X102827976Y-106692914D02*
X102732738Y-106740533D01*
X135857142Y-121859580D02*
X135809523Y-121907200D01*
X135809523Y-121907200D02*
X135666666Y-121954819D01*
X135666666Y-121954819D02*
X135571428Y-121954819D01*
X135571428Y-121954819D02*
X135428571Y-121907200D01*
X135428571Y-121907200D02*
X135333333Y-121811961D01*
X135333333Y-121811961D02*
X135285714Y-121716723D01*
X135285714Y-121716723D02*
X135238095Y-121526247D01*
X135238095Y-121526247D02*
X135238095Y-121383390D01*
X135238095Y-121383390D02*
X135285714Y-121192914D01*
X135285714Y-121192914D02*
X135333333Y-121097676D01*
X135333333Y-121097676D02*
X135428571Y-121002438D01*
X135428571Y-121002438D02*
X135571428Y-120954819D01*
X135571428Y-120954819D02*
X135666666Y-120954819D01*
X135666666Y-120954819D02*
X135809523Y-121002438D01*
X135809523Y-121002438D02*
X135857142Y-121050057D01*
X136190476Y-120954819D02*
X136809523Y-120954819D01*
X136809523Y-120954819D02*
X136476190Y-121335771D01*
X136476190Y-121335771D02*
X136619047Y-121335771D01*
X136619047Y-121335771D02*
X136714285Y-121383390D01*
X136714285Y-121383390D02*
X136761904Y-121431009D01*
X136761904Y-121431009D02*
X136809523Y-121526247D01*
X136809523Y-121526247D02*
X136809523Y-121764342D01*
X136809523Y-121764342D02*
X136761904Y-121859580D01*
X136761904Y-121859580D02*
X136714285Y-121907200D01*
X136714285Y-121907200D02*
X136619047Y-121954819D01*
X136619047Y-121954819D02*
X136333333Y-121954819D01*
X136333333Y-121954819D02*
X136238095Y-121907200D01*
X136238095Y-121907200D02*
X136190476Y-121859580D01*
X137666666Y-121288152D02*
X137666666Y-121954819D01*
X137428571Y-120907200D02*
X137190476Y-121621485D01*
X137190476Y-121621485D02*
X137809523Y-121621485D01*
X159050595Y-127449819D02*
X159050595Y-128259342D01*
X159050595Y-128259342D02*
X159098214Y-128354580D01*
X159098214Y-128354580D02*
X159145833Y-128402200D01*
X159145833Y-128402200D02*
X159241071Y-128449819D01*
X159241071Y-128449819D02*
X159431547Y-128449819D01*
X159431547Y-128449819D02*
X159526785Y-128402200D01*
X159526785Y-128402200D02*
X159574404Y-128354580D01*
X159574404Y-128354580D02*
X159622023Y-128259342D01*
X159622023Y-128259342D02*
X159622023Y-127449819D01*
X160526785Y-127449819D02*
X160336309Y-127449819D01*
X160336309Y-127449819D02*
X160241071Y-127497438D01*
X160241071Y-127497438D02*
X160193452Y-127545057D01*
X160193452Y-127545057D02*
X160098214Y-127687914D01*
X160098214Y-127687914D02*
X160050595Y-127878390D01*
X160050595Y-127878390D02*
X160050595Y-128259342D01*
X160050595Y-128259342D02*
X160098214Y-128354580D01*
X160098214Y-128354580D02*
X160145833Y-128402200D01*
X160145833Y-128402200D02*
X160241071Y-128449819D01*
X160241071Y-128449819D02*
X160431547Y-128449819D01*
X160431547Y-128449819D02*
X160526785Y-128402200D01*
X160526785Y-128402200D02*
X160574404Y-128354580D01*
X160574404Y-128354580D02*
X160622023Y-128259342D01*
X160622023Y-128259342D02*
X160622023Y-128021247D01*
X160622023Y-128021247D02*
X160574404Y-127926009D01*
X160574404Y-127926009D02*
X160526785Y-127878390D01*
X160526785Y-127878390D02*
X160431547Y-127830771D01*
X160431547Y-127830771D02*
X160241071Y-127830771D01*
X160241071Y-127830771D02*
X160145833Y-127878390D01*
X160145833Y-127878390D02*
X160098214Y-127926009D01*
X160098214Y-127926009D02*
X160050595Y-128021247D01*
X138261905Y-121954819D02*
X138261905Y-120954819D01*
X138261905Y-120954819D02*
X138500000Y-120954819D01*
X138500000Y-120954819D02*
X138642857Y-121002438D01*
X138642857Y-121002438D02*
X138738095Y-121097676D01*
X138738095Y-121097676D02*
X138785714Y-121192914D01*
X138785714Y-121192914D02*
X138833333Y-121383390D01*
X138833333Y-121383390D02*
X138833333Y-121526247D01*
X138833333Y-121526247D02*
X138785714Y-121716723D01*
X138785714Y-121716723D02*
X138738095Y-121811961D01*
X138738095Y-121811961D02*
X138642857Y-121907200D01*
X138642857Y-121907200D02*
X138500000Y-121954819D01*
X138500000Y-121954819D02*
X138261905Y-121954819D01*
X139214286Y-121050057D02*
X139261905Y-121002438D01*
X139261905Y-121002438D02*
X139357143Y-120954819D01*
X139357143Y-120954819D02*
X139595238Y-120954819D01*
X139595238Y-120954819D02*
X139690476Y-121002438D01*
X139690476Y-121002438D02*
X139738095Y-121050057D01*
X139738095Y-121050057D02*
X139785714Y-121145295D01*
X139785714Y-121145295D02*
X139785714Y-121240533D01*
X139785714Y-121240533D02*
X139738095Y-121383390D01*
X139738095Y-121383390D02*
X139166667Y-121954819D01*
X139166667Y-121954819D02*
X139785714Y-121954819D01*
X132857142Y-121859580D02*
X132809523Y-121907200D01*
X132809523Y-121907200D02*
X132666666Y-121954819D01*
X132666666Y-121954819D02*
X132571428Y-121954819D01*
X132571428Y-121954819D02*
X132428571Y-121907200D01*
X132428571Y-121907200D02*
X132333333Y-121811961D01*
X132333333Y-121811961D02*
X132285714Y-121716723D01*
X132285714Y-121716723D02*
X132238095Y-121526247D01*
X132238095Y-121526247D02*
X132238095Y-121383390D01*
X132238095Y-121383390D02*
X132285714Y-121192914D01*
X132285714Y-121192914D02*
X132333333Y-121097676D01*
X132333333Y-121097676D02*
X132428571Y-121002438D01*
X132428571Y-121002438D02*
X132571428Y-120954819D01*
X132571428Y-120954819D02*
X132666666Y-120954819D01*
X132666666Y-120954819D02*
X132809523Y-121002438D01*
X132809523Y-121002438D02*
X132857142Y-121050057D01*
X133190476Y-120954819D02*
X133809523Y-120954819D01*
X133809523Y-120954819D02*
X133476190Y-121335771D01*
X133476190Y-121335771D02*
X133619047Y-121335771D01*
X133619047Y-121335771D02*
X133714285Y-121383390D01*
X133714285Y-121383390D02*
X133761904Y-121431009D01*
X133761904Y-121431009D02*
X133809523Y-121526247D01*
X133809523Y-121526247D02*
X133809523Y-121764342D01*
X133809523Y-121764342D02*
X133761904Y-121859580D01*
X133761904Y-121859580D02*
X133714285Y-121907200D01*
X133714285Y-121907200D02*
X133619047Y-121954819D01*
X133619047Y-121954819D02*
X133333333Y-121954819D01*
X133333333Y-121954819D02*
X133238095Y-121907200D01*
X133238095Y-121907200D02*
X133190476Y-121859580D01*
X134142857Y-120954819D02*
X134761904Y-120954819D01*
X134761904Y-120954819D02*
X134428571Y-121335771D01*
X134428571Y-121335771D02*
X134571428Y-121335771D01*
X134571428Y-121335771D02*
X134666666Y-121383390D01*
X134666666Y-121383390D02*
X134714285Y-121431009D01*
X134714285Y-121431009D02*
X134761904Y-121526247D01*
X134761904Y-121526247D02*
X134761904Y-121764342D01*
X134761904Y-121764342D02*
X134714285Y-121859580D01*
X134714285Y-121859580D02*
X134666666Y-121907200D01*
X134666666Y-121907200D02*
X134571428Y-121954819D01*
X134571428Y-121954819D02*
X134285714Y-121954819D01*
X134285714Y-121954819D02*
X134190476Y-121907200D01*
X134190476Y-121907200D02*
X134142857Y-121859580D01*
X140454819Y-102642857D02*
X139978628Y-102976190D01*
X140454819Y-103214285D02*
X139454819Y-103214285D01*
X139454819Y-103214285D02*
X139454819Y-102833333D01*
X139454819Y-102833333D02*
X139502438Y-102738095D01*
X139502438Y-102738095D02*
X139550057Y-102690476D01*
X139550057Y-102690476D02*
X139645295Y-102642857D01*
X139645295Y-102642857D02*
X139788152Y-102642857D01*
X139788152Y-102642857D02*
X139883390Y-102690476D01*
X139883390Y-102690476D02*
X139931009Y-102738095D01*
X139931009Y-102738095D02*
X139978628Y-102833333D01*
X139978628Y-102833333D02*
X139978628Y-103214285D01*
X139550057Y-102261904D02*
X139502438Y-102214285D01*
X139502438Y-102214285D02*
X139454819Y-102119047D01*
X139454819Y-102119047D02*
X139454819Y-101880952D01*
X139454819Y-101880952D02*
X139502438Y-101785714D01*
X139502438Y-101785714D02*
X139550057Y-101738095D01*
X139550057Y-101738095D02*
X139645295Y-101690476D01*
X139645295Y-101690476D02*
X139740533Y-101690476D01*
X139740533Y-101690476D02*
X139883390Y-101738095D01*
X139883390Y-101738095D02*
X140454819Y-102309523D01*
X140454819Y-102309523D02*
X140454819Y-101690476D01*
X139454819Y-101071428D02*
X139454819Y-100976190D01*
X139454819Y-100976190D02*
X139502438Y-100880952D01*
X139502438Y-100880952D02*
X139550057Y-100833333D01*
X139550057Y-100833333D02*
X139645295Y-100785714D01*
X139645295Y-100785714D02*
X139835771Y-100738095D01*
X139835771Y-100738095D02*
X140073866Y-100738095D01*
X140073866Y-100738095D02*
X140264342Y-100785714D01*
X140264342Y-100785714D02*
X140359580Y-100833333D01*
X140359580Y-100833333D02*
X140407200Y-100880952D01*
X140407200Y-100880952D02*
X140454819Y-100976190D01*
X140454819Y-100976190D02*
X140454819Y-101071428D01*
X140454819Y-101071428D02*
X140407200Y-101166666D01*
X140407200Y-101166666D02*
X140359580Y-101214285D01*
X140359580Y-101214285D02*
X140264342Y-101261904D01*
X140264342Y-101261904D02*
X140073866Y-101309523D01*
X140073866Y-101309523D02*
X139835771Y-101309523D01*
X139835771Y-101309523D02*
X139645295Y-101261904D01*
X139645295Y-101261904D02*
X139550057Y-101214285D01*
X139550057Y-101214285D02*
X139502438Y-101166666D01*
X139502438Y-101166666D02*
X139454819Y-101071428D01*
X194741666Y-92454819D02*
X194741666Y-93169104D01*
X194741666Y-93169104D02*
X194694047Y-93311961D01*
X194694047Y-93311961D02*
X194598809Y-93407200D01*
X194598809Y-93407200D02*
X194455952Y-93454819D01*
X194455952Y-93454819D02*
X194360714Y-93454819D01*
X195646428Y-92454819D02*
X195455952Y-92454819D01*
X195455952Y-92454819D02*
X195360714Y-92502438D01*
X195360714Y-92502438D02*
X195313095Y-92550057D01*
X195313095Y-92550057D02*
X195217857Y-92692914D01*
X195217857Y-92692914D02*
X195170238Y-92883390D01*
X195170238Y-92883390D02*
X195170238Y-93264342D01*
X195170238Y-93264342D02*
X195217857Y-93359580D01*
X195217857Y-93359580D02*
X195265476Y-93407200D01*
X195265476Y-93407200D02*
X195360714Y-93454819D01*
X195360714Y-93454819D02*
X195551190Y-93454819D01*
X195551190Y-93454819D02*
X195646428Y-93407200D01*
X195646428Y-93407200D02*
X195694047Y-93359580D01*
X195694047Y-93359580D02*
X195741666Y-93264342D01*
X195741666Y-93264342D02*
X195741666Y-93026247D01*
X195741666Y-93026247D02*
X195694047Y-92931009D01*
X195694047Y-92931009D02*
X195646428Y-92883390D01*
X195646428Y-92883390D02*
X195551190Y-92835771D01*
X195551190Y-92835771D02*
X195360714Y-92835771D01*
X195360714Y-92835771D02*
X195265476Y-92883390D01*
X195265476Y-92883390D02*
X195217857Y-92931009D01*
X195217857Y-92931009D02*
X195170238Y-93026247D01*
D11*
%TO.C,C11*%
X176639000Y-109317000D02*
X176639000Y-108683000D01*
X176679000Y-109757000D02*
X176679000Y-108243000D01*
X176719000Y-110028000D02*
X176719000Y-107972000D01*
X176759000Y-110241000D02*
X176759000Y-107759000D01*
X176799000Y-110422000D02*
X176799000Y-107578000D01*
X176839000Y-110583000D02*
X176839000Y-107417000D01*
X176879000Y-110728000D02*
X176879000Y-107272000D01*
X176919000Y-110861000D02*
X176919000Y-107139000D01*
X176959000Y-110984000D02*
X176959000Y-107016000D01*
X176999000Y-111100000D02*
X176999000Y-106900000D01*
X177039000Y-111209000D02*
X177039000Y-106791000D01*
X177079000Y-111312000D02*
X177079000Y-106688000D01*
X177119000Y-111410000D02*
X177119000Y-106590000D01*
X177159000Y-111504000D02*
X177159000Y-106496000D01*
X177199000Y-111594000D02*
X177199000Y-106406000D01*
X177239000Y-111681000D02*
X177239000Y-106319000D01*
X177279000Y-111764000D02*
X177279000Y-106236000D01*
X177319000Y-111844000D02*
X177319000Y-106156000D01*
X177359000Y-111921000D02*
X177359000Y-106079000D01*
X177399000Y-111996000D02*
X177399000Y-106004000D01*
X177439000Y-112069000D02*
X177439000Y-105931000D01*
X177479000Y-112140000D02*
X177479000Y-105860000D01*
X177519000Y-112208000D02*
X177519000Y-105792000D01*
X177559000Y-112275000D02*
X177559000Y-105725000D01*
X177599000Y-112339000D02*
X177599000Y-105661000D01*
X177639000Y-112402000D02*
X177639000Y-105598000D01*
X177679000Y-112464000D02*
X177679000Y-105536000D01*
X177719000Y-112524000D02*
X177719000Y-105476000D01*
X177759000Y-112583000D02*
X177759000Y-105417000D01*
X177799000Y-112640000D02*
X177799000Y-105360000D01*
X177839000Y-112696000D02*
X177839000Y-105304000D01*
X177879000Y-112750000D02*
X177879000Y-105250000D01*
X177919000Y-112804000D02*
X177919000Y-105196000D01*
X177959000Y-112856000D02*
X177959000Y-105144000D01*
X177999000Y-112907000D02*
X177999000Y-105093000D01*
X178039000Y-112957000D02*
X178039000Y-105043000D01*
X178079000Y-113007000D02*
X178079000Y-104993000D01*
X178119000Y-113055000D02*
X178119000Y-104945000D01*
X178159000Y-113102000D02*
X178159000Y-104898000D01*
X178199000Y-113148000D02*
X178199000Y-104852000D01*
X178239000Y-113194000D02*
X178239000Y-104806000D01*
X178279000Y-113238000D02*
X178279000Y-104762000D01*
X178319000Y-113282000D02*
X178319000Y-104718000D01*
X178359000Y-113325000D02*
X178359000Y-104675000D01*
X178399000Y-113367000D02*
X178399000Y-104633000D01*
X178439000Y-113408000D02*
X178439000Y-104592000D01*
X178479000Y-113449000D02*
X178479000Y-104551000D01*
X178519000Y-113489000D02*
X178519000Y-104511000D01*
X178559000Y-113528000D02*
X178559000Y-104472000D01*
X178599000Y-113567000D02*
X178599000Y-104433000D01*
X178639000Y-113605000D02*
X178639000Y-104395000D01*
X178679000Y-113642000D02*
X178679000Y-104358000D01*
X178719000Y-113678000D02*
X178719000Y-104322000D01*
X178759000Y-113714000D02*
X178759000Y-104286000D01*
X178799000Y-113750000D02*
X178799000Y-104250000D01*
X178839000Y-113785000D02*
X178839000Y-104215000D01*
X178879000Y-113819000D02*
X178879000Y-104181000D01*
X178919000Y-113852000D02*
X178919000Y-104148000D01*
X178959000Y-113885000D02*
X178959000Y-104115000D01*
X178999000Y-113918000D02*
X178999000Y-104082000D01*
X179039000Y-113950000D02*
X179039000Y-104050000D01*
X179079000Y-107560000D02*
X179079000Y-104018000D01*
X179079000Y-113982000D02*
X179079000Y-110440000D01*
X179119000Y-107560000D02*
X179119000Y-103988000D01*
X179119000Y-114012000D02*
X179119000Y-110440000D01*
X179159000Y-107560000D02*
X179159000Y-103957000D01*
X179159000Y-114043000D02*
X179159000Y-110440000D01*
X179199000Y-107560000D02*
X179199000Y-103927000D01*
X179199000Y-114073000D02*
X179199000Y-110440000D01*
X179239000Y-107560000D02*
X179239000Y-103898000D01*
X179239000Y-114102000D02*
X179239000Y-110440000D01*
X179279000Y-107560000D02*
X179279000Y-103869000D01*
X179279000Y-114131000D02*
X179279000Y-110440000D01*
X179319000Y-107560000D02*
X179319000Y-103840000D01*
X179319000Y-114160000D02*
X179319000Y-110440000D01*
X179359000Y-107560000D02*
X179359000Y-103812000D01*
X179359000Y-114188000D02*
X179359000Y-110440000D01*
X179399000Y-107560000D02*
X179399000Y-103784000D01*
X179399000Y-114216000D02*
X179399000Y-110440000D01*
X179439000Y-107560000D02*
X179439000Y-103757000D01*
X179439000Y-114243000D02*
X179439000Y-110440000D01*
X179479000Y-107560000D02*
X179479000Y-103730000D01*
X179479000Y-114270000D02*
X179479000Y-110440000D01*
X179519000Y-107560000D02*
X179519000Y-103704000D01*
X179519000Y-114296000D02*
X179519000Y-110440000D01*
X179559000Y-107560000D02*
X179559000Y-103678000D01*
X179559000Y-114322000D02*
X179559000Y-110440000D01*
X179599000Y-107560000D02*
X179599000Y-103653000D01*
X179599000Y-114347000D02*
X179599000Y-110440000D01*
X179639000Y-107560000D02*
X179639000Y-103628000D01*
X179639000Y-114372000D02*
X179639000Y-110440000D01*
X179679000Y-107560000D02*
X179679000Y-103603000D01*
X179679000Y-114397000D02*
X179679000Y-110440000D01*
X179719000Y-107560000D02*
X179719000Y-103579000D01*
X179719000Y-114421000D02*
X179719000Y-110440000D01*
X179759000Y-107560000D02*
X179759000Y-103555000D01*
X179759000Y-114445000D02*
X179759000Y-110440000D01*
X179799000Y-107560000D02*
X179799000Y-103532000D01*
X179799000Y-114468000D02*
X179799000Y-110440000D01*
X179839000Y-107560000D02*
X179839000Y-103509000D01*
X179839000Y-114491000D02*
X179839000Y-110440000D01*
X179879000Y-107560000D02*
X179879000Y-103486000D01*
X179879000Y-114514000D02*
X179879000Y-110440000D01*
X179919000Y-107560000D02*
X179919000Y-103464000D01*
X179919000Y-114536000D02*
X179919000Y-110440000D01*
X179959000Y-107560000D02*
X179959000Y-103442000D01*
X179959000Y-114558000D02*
X179959000Y-110440000D01*
X179999000Y-107560000D02*
X179999000Y-103420000D01*
X179999000Y-114580000D02*
X179999000Y-110440000D01*
X180039000Y-107560000D02*
X180039000Y-103399000D01*
X180039000Y-114601000D02*
X180039000Y-110440000D01*
X180079000Y-107560000D02*
X180079000Y-103378000D01*
X180079000Y-114622000D02*
X180079000Y-110440000D01*
X180119000Y-107560000D02*
X180119000Y-103358000D01*
X180119000Y-114642000D02*
X180119000Y-110440000D01*
X180159000Y-107560000D02*
X180159000Y-103338000D01*
X180159000Y-114662000D02*
X180159000Y-110440000D01*
X180199000Y-107560000D02*
X180199000Y-103318000D01*
X180199000Y-114682000D02*
X180199000Y-110440000D01*
X180239000Y-107560000D02*
X180239000Y-103298000D01*
X180239000Y-114702000D02*
X180239000Y-110440000D01*
X180279000Y-107560000D02*
X180279000Y-103279000D01*
X180279000Y-114721000D02*
X180279000Y-110440000D01*
X180319000Y-107560000D02*
X180319000Y-103261000D01*
X180319000Y-114739000D02*
X180319000Y-110440000D01*
X180359000Y-107560000D02*
X180359000Y-103242000D01*
X180359000Y-114758000D02*
X180359000Y-110440000D01*
X180399000Y-107560000D02*
X180399000Y-103224000D01*
X180399000Y-114776000D02*
X180399000Y-110440000D01*
X180439000Y-107560000D02*
X180439000Y-103207000D01*
X180439000Y-114793000D02*
X180439000Y-110440000D01*
X180479000Y-107560000D02*
X180479000Y-103189000D01*
X180479000Y-114811000D02*
X180479000Y-110440000D01*
X180519000Y-107560000D02*
X180519000Y-103172000D01*
X180519000Y-114828000D02*
X180519000Y-110440000D01*
X180559000Y-107560000D02*
X180559000Y-103155000D01*
X180559000Y-114845000D02*
X180559000Y-110440000D01*
X180599000Y-107560000D02*
X180599000Y-103139000D01*
X180599000Y-114861000D02*
X180599000Y-110440000D01*
X180639000Y-107560000D02*
X180639000Y-103123000D01*
X180639000Y-114877000D02*
X180639000Y-110440000D01*
X180679000Y-107560000D02*
X180679000Y-103107000D01*
X180679000Y-114893000D02*
X180679000Y-110440000D01*
X180719000Y-107560000D02*
X180719000Y-103092000D01*
X180719000Y-114908000D02*
X180719000Y-110440000D01*
X180759000Y-107560000D02*
X180759000Y-103076000D01*
X180759000Y-114924000D02*
X180759000Y-110440000D01*
X180799000Y-107560000D02*
X180799000Y-103061000D01*
X180799000Y-114939000D02*
X180799000Y-110440000D01*
X180839000Y-107560000D02*
X180839000Y-103047000D01*
X180839000Y-114953000D02*
X180839000Y-110440000D01*
X180879000Y-107560000D02*
X180879000Y-103033000D01*
X180879000Y-114967000D02*
X180879000Y-110440000D01*
X180919000Y-107560000D02*
X180919000Y-103019000D01*
X180919000Y-114981000D02*
X180919000Y-110440000D01*
X180959000Y-107560000D02*
X180959000Y-103005000D01*
X180959000Y-114995000D02*
X180959000Y-110440000D01*
X180999000Y-107560000D02*
X180999000Y-102992000D01*
X180999000Y-115008000D02*
X180999000Y-110440000D01*
X181039000Y-107560000D02*
X181039000Y-102979000D01*
X181039000Y-115021000D02*
X181039000Y-110440000D01*
X181079000Y-107560000D02*
X181079000Y-102966000D01*
X181079000Y-115034000D02*
X181079000Y-110440000D01*
X181119000Y-107560000D02*
X181119000Y-102953000D01*
X181119000Y-115047000D02*
X181119000Y-110440000D01*
X181159000Y-107560000D02*
X181159000Y-102941000D01*
X181159000Y-115059000D02*
X181159000Y-110440000D01*
X181199000Y-107560000D02*
X181199000Y-102929000D01*
X181199000Y-115071000D02*
X181199000Y-110440000D01*
X181239000Y-107560000D02*
X181239000Y-102917000D01*
X181239000Y-115083000D02*
X181239000Y-110440000D01*
X181279000Y-107560000D02*
X181279000Y-102906000D01*
X181279000Y-115094000D02*
X181279000Y-110440000D01*
X181319000Y-107560000D02*
X181319000Y-102895000D01*
X181319000Y-115105000D02*
X181319000Y-110440000D01*
X181359000Y-107560000D02*
X181359000Y-102884000D01*
X181359000Y-115116000D02*
X181359000Y-110440000D01*
X181399000Y-107560000D02*
X181399000Y-102874000D01*
X181399000Y-115126000D02*
X181399000Y-110440000D01*
X181439000Y-107560000D02*
X181439000Y-102863000D01*
X181439000Y-115137000D02*
X181439000Y-110440000D01*
X181479000Y-107560000D02*
X181479000Y-102854000D01*
X181479000Y-115146000D02*
X181479000Y-110440000D01*
X181519000Y-107560000D02*
X181519000Y-102844000D01*
X181519000Y-115156000D02*
X181519000Y-110440000D01*
X181559000Y-107560000D02*
X181559000Y-102834000D01*
X181559000Y-115166000D02*
X181559000Y-110440000D01*
X181599000Y-107560000D02*
X181599000Y-102825000D01*
X181599000Y-115175000D02*
X181599000Y-110440000D01*
X181639000Y-107560000D02*
X181639000Y-102816000D01*
X181639000Y-115184000D02*
X181639000Y-110440000D01*
X181679000Y-107560000D02*
X181679000Y-102808000D01*
X181679000Y-115192000D02*
X181679000Y-110440000D01*
X181719000Y-107560000D02*
X181719000Y-102799000D01*
X181719000Y-115201000D02*
X181719000Y-110440000D01*
X181759000Y-107560000D02*
X181759000Y-102791000D01*
X181759000Y-115209000D02*
X181759000Y-110440000D01*
X181799000Y-107560000D02*
X181799000Y-102784000D01*
X181799000Y-115216000D02*
X181799000Y-110440000D01*
X181839000Y-107560000D02*
X181839000Y-102776000D01*
X181839000Y-115224000D02*
X181839000Y-110440000D01*
X181879000Y-107560000D02*
X181879000Y-102769000D01*
X181879000Y-115231000D02*
X181879000Y-110440000D01*
X181919000Y-107560000D02*
X181919000Y-102762000D01*
X181919000Y-115238000D02*
X181919000Y-110440000D01*
X181959000Y-115245000D02*
X181959000Y-102755000D01*
X181999000Y-115252000D02*
X181999000Y-102748000D01*
X182039000Y-115258000D02*
X182039000Y-102742000D01*
X182079000Y-115264000D02*
X182079000Y-102736000D01*
X182119000Y-115269000D02*
X182119000Y-102731000D01*
X182159000Y-115275000D02*
X182159000Y-102725000D01*
X182199000Y-115280000D02*
X182199000Y-102720000D01*
X182239000Y-115285000D02*
X182239000Y-102715000D01*
X182279000Y-115290000D02*
X182279000Y-102710000D01*
X182320000Y-115294000D02*
X182320000Y-102706000D01*
X182360000Y-115298000D02*
X182360000Y-102702000D01*
X182400000Y-115302000D02*
X182400000Y-102698000D01*
X182440000Y-115306000D02*
X182440000Y-102694000D01*
X182480000Y-115309000D02*
X182480000Y-102691000D01*
X182520000Y-115312000D02*
X182520000Y-102688000D01*
X182560000Y-115315000D02*
X182560000Y-102685000D01*
X182600000Y-115318000D02*
X182600000Y-102682000D01*
X182640000Y-115320000D02*
X182640000Y-102680000D01*
X182680000Y-115322000D02*
X182680000Y-102678000D01*
X182720000Y-115324000D02*
X182720000Y-102676000D01*
X182760000Y-115326000D02*
X182760000Y-102674000D01*
X182800000Y-115327000D02*
X182800000Y-102673000D01*
X182840000Y-115328000D02*
X182840000Y-102672000D01*
X182880000Y-115329000D02*
X182880000Y-102671000D01*
X182920000Y-115330000D02*
X182920000Y-102670000D01*
X182960000Y-115330000D02*
X182960000Y-102670000D01*
X183000000Y-115330000D02*
X183000000Y-102670000D01*
X187700000Y-112325000D02*
X187700000Y-111075000D01*
X188325000Y-111700000D02*
X187075000Y-111700000D01*
X189370000Y-109000000D02*
G75*
G02*
X176630000Y-109000000I-6370000J0D01*
G01*
X176630000Y-109000000D02*
G75*
G02*
X189370000Y-109000000I6370000J0D01*
G01*
%TO.C,C1*%
X111880000Y-95880000D02*
X111880000Y-104120000D01*
X111880000Y-95880000D02*
X125120000Y-95880000D01*
X111880000Y-104120000D02*
X125120000Y-104120000D01*
X125120000Y-95880000D02*
X125120000Y-104120000D01*
%TO.C,J5*%
X126460000Y-124845000D02*
X127510000Y-124845000D01*
X126460000Y-127345000D02*
X126460000Y-124845000D01*
X127510000Y-124845000D02*
X127510000Y-123855000D01*
X127630000Y-129315000D02*
X131510000Y-129315000D01*
X132680000Y-124845000D02*
X131630000Y-124845000D01*
X132680000Y-127345000D02*
X132680000Y-124845000D01*
D12*
G36*
X128329383Y-122910651D02*
G01*
X128337450Y-122911254D01*
X128345340Y-122912251D01*
X128353046Y-122913637D01*
X128360563Y-122915404D01*
X128367884Y-122917547D01*
X128375004Y-122920058D01*
X128381918Y-122922932D01*
X128388618Y-122926162D01*
X128395099Y-122929742D01*
X128401355Y-122933666D01*
X128407381Y-122937926D01*
X128413170Y-122942518D01*
X128418717Y-122947433D01*
X128424015Y-122952667D01*
X128429059Y-122958213D01*
X128433843Y-122964063D01*
X128438362Y-122970213D01*
X128442608Y-122976655D01*
X128446576Y-122983384D01*
X128450261Y-122990392D01*
X128453656Y-122997674D01*
X128456756Y-123005223D01*
X128459555Y-123013032D01*
X128462046Y-123021097D01*
X128464225Y-123029409D01*
X128466084Y-123037963D01*
X128467618Y-123046752D01*
X128468822Y-123055770D01*
X128469689Y-123065011D01*
X128470214Y-123074468D01*
X128470390Y-123084135D01*
X128470214Y-123093689D01*
X128469689Y-123103047D01*
X128468822Y-123112203D01*
X128467618Y-123121149D01*
X128466084Y-123129878D01*
X128464225Y-123138383D01*
X128462046Y-123146658D01*
X128459555Y-123154694D01*
X128456756Y-123162486D01*
X128453656Y-123170025D01*
X128450261Y-123177305D01*
X128446576Y-123184319D01*
X128442608Y-123191060D01*
X128438362Y-123197521D01*
X128433843Y-123203693D01*
X128429059Y-123209572D01*
X128424015Y-123215149D01*
X128418717Y-123220417D01*
X128413170Y-123225370D01*
X128407381Y-123230000D01*
X128401355Y-123234300D01*
X128395099Y-123238263D01*
X128388618Y-123241883D01*
X128381918Y-123245151D01*
X128375004Y-123248061D01*
X128367884Y-123250606D01*
X128360563Y-123252779D01*
X128353046Y-123254573D01*
X128345340Y-123255981D01*
X128337450Y-123256995D01*
X128329383Y-123257608D01*
X128321144Y-123257814D01*
X128312788Y-123257608D01*
X128304611Y-123256995D01*
X128296619Y-123255981D01*
X128288817Y-123254573D01*
X128281212Y-123252779D01*
X128273808Y-123250606D01*
X128266611Y-123248061D01*
X128259628Y-123245151D01*
X128252863Y-123241883D01*
X128246322Y-123238263D01*
X128240011Y-123234300D01*
X128233936Y-123230000D01*
X128228102Y-123225370D01*
X128222515Y-123220417D01*
X128217181Y-123215149D01*
X128212105Y-123209572D01*
X128207292Y-123203693D01*
X128202749Y-123197521D01*
X128198482Y-123191060D01*
X128194495Y-123184319D01*
X128190794Y-123177305D01*
X128187386Y-123170025D01*
X128184276Y-123162486D01*
X128181469Y-123154694D01*
X128178971Y-123146658D01*
X128176787Y-123138383D01*
X128174924Y-123129878D01*
X128173388Y-123121149D01*
X128172182Y-123112203D01*
X128171315Y-123103047D01*
X128170790Y-123093689D01*
X128170613Y-123084135D01*
X128170790Y-123074581D01*
X128171315Y-123065222D01*
X128172182Y-123056067D01*
X128173388Y-123047121D01*
X128174924Y-123038391D01*
X128176787Y-123029886D01*
X128178971Y-123021611D01*
X128181469Y-123013574D01*
X128184276Y-123005782D01*
X128187386Y-122998243D01*
X128190794Y-122990962D01*
X128194495Y-122983948D01*
X128198482Y-122977207D01*
X128202749Y-122970746D01*
X128207292Y-122964573D01*
X128212105Y-122958694D01*
X128217181Y-122953117D01*
X128222515Y-122947848D01*
X128228102Y-122942895D01*
X128233936Y-122938265D01*
X128240011Y-122933964D01*
X128246322Y-122930001D01*
X128252863Y-122926381D01*
X128259628Y-122923113D01*
X128266611Y-122920202D01*
X128273808Y-122917657D01*
X128281212Y-122915484D01*
X128288817Y-122913690D01*
X128296619Y-122912282D01*
X128304611Y-122911268D01*
X128312788Y-122910654D01*
X128321144Y-122910448D01*
X128329383Y-122910651D01*
G37*
G36*
X130831620Y-122471913D02*
G01*
X130862278Y-122474244D01*
X130892490Y-122478084D01*
X130922219Y-122483393D01*
X130951426Y-122490134D01*
X130980074Y-122498269D01*
X131008124Y-122507760D01*
X131035538Y-122518569D01*
X131062280Y-122530659D01*
X131088310Y-122543991D01*
X131113591Y-122558527D01*
X131138085Y-122574229D01*
X131161753Y-122591061D01*
X131184559Y-122608982D01*
X131206464Y-122627957D01*
X131227430Y-122647946D01*
X131247419Y-122668912D01*
X131266393Y-122690817D01*
X131284315Y-122713622D01*
X131301146Y-122737291D01*
X131316849Y-122761785D01*
X131331385Y-122787066D01*
X131344717Y-122813096D01*
X131356807Y-122839837D01*
X131367616Y-122867252D01*
X131377107Y-122895302D01*
X131385242Y-122923950D01*
X131391983Y-122953157D01*
X131397292Y-122982886D01*
X131401131Y-123013098D01*
X131403463Y-123043756D01*
X131404248Y-123074822D01*
X131404248Y-123074829D01*
X131403463Y-123105895D01*
X131401131Y-123136553D01*
X131397292Y-123166765D01*
X131391983Y-123196494D01*
X131385242Y-123225701D01*
X131377107Y-123254348D01*
X131367616Y-123282398D01*
X131356807Y-123309813D01*
X131344717Y-123336554D01*
X131331385Y-123362584D01*
X131316849Y-123387864D01*
X131301146Y-123412358D01*
X131284315Y-123436026D01*
X131266393Y-123458832D01*
X131247419Y-123480736D01*
X131227430Y-123501702D01*
X131206464Y-123521691D01*
X131184559Y-123540665D01*
X131161753Y-123558586D01*
X131138085Y-123575417D01*
X131113591Y-123591119D01*
X131088310Y-123605655D01*
X131062280Y-123618987D01*
X131035538Y-123631076D01*
X131008124Y-123641885D01*
X130980074Y-123651376D01*
X130951426Y-123659511D01*
X130922219Y-123666252D01*
X130892490Y-123671561D01*
X130862278Y-123675400D01*
X130831620Y-123677731D01*
X130800554Y-123678517D01*
X128699388Y-123678517D01*
X128699388Y-122732910D01*
X128735400Y-122732910D01*
X128988856Y-123428926D01*
X129215283Y-123428926D01*
X129349085Y-122999222D01*
X129481595Y-123428926D01*
X129708036Y-123428926D01*
X129988480Y-123428926D01*
X130216191Y-123428926D01*
X130216191Y-122732910D01*
X130262490Y-122732910D01*
X130262490Y-123428926D01*
X130490208Y-123428926D01*
X130490208Y-123084136D01*
X130531363Y-123084136D01*
X130531779Y-123103823D01*
X130533019Y-123123076D01*
X130535070Y-123141882D01*
X130537919Y-123160228D01*
X130541552Y-123178103D01*
X130545958Y-123195493D01*
X130551123Y-123212386D01*
X130557033Y-123228769D01*
X130563677Y-123244631D01*
X130571041Y-123259958D01*
X130579112Y-123274738D01*
X130587878Y-123288958D01*
X130597325Y-123302607D01*
X130607440Y-123315671D01*
X130618210Y-123328138D01*
X130629623Y-123339996D01*
X130641665Y-123351232D01*
X130654324Y-123361834D01*
X130667587Y-123371789D01*
X130681440Y-123381084D01*
X130695871Y-123389708D01*
X130710866Y-123397647D01*
X130726413Y-123404889D01*
X130742499Y-123411422D01*
X130759111Y-123417234D01*
X130776236Y-123422310D01*
X130793861Y-123426641D01*
X130811973Y-123430211D01*
X130830558Y-123433010D01*
X130849605Y-123435025D01*
X130869100Y-123436243D01*
X130889030Y-123436652D01*
X130895061Y-123436613D01*
X130901048Y-123436497D01*
X130906992Y-123436307D01*
X130912895Y-123436048D01*
X130918757Y-123435722D01*
X130924581Y-123435334D01*
X130936119Y-123434380D01*
X130936119Y-123247958D01*
X130931857Y-123248715D01*
X130927549Y-123249390D01*
X130923195Y-123249977D01*
X130918790Y-123250469D01*
X130914332Y-123250862D01*
X130909817Y-123251150D01*
X130905244Y-123251327D01*
X130900608Y-123251387D01*
X130892965Y-123251192D01*
X130885479Y-123250611D01*
X130878154Y-123249650D01*
X130870997Y-123248314D01*
X130864014Y-123246610D01*
X130857209Y-123244544D01*
X130850589Y-123242120D01*
X130844160Y-123239346D01*
X130837926Y-123236227D01*
X130831894Y-123232769D01*
X130826069Y-123228978D01*
X130820457Y-123224860D01*
X130815064Y-123220420D01*
X130809895Y-123215665D01*
X130804956Y-123210601D01*
X130800252Y-123205233D01*
X130795790Y-123199567D01*
X130791574Y-123193609D01*
X130787611Y-123187365D01*
X130783907Y-123180841D01*
X130780466Y-123174043D01*
X130777295Y-123166977D01*
X130774398Y-123159648D01*
X130771783Y-123152063D01*
X130769454Y-123144227D01*
X130767418Y-123136146D01*
X130765679Y-123127826D01*
X130764243Y-123119274D01*
X130762306Y-123101493D01*
X130761650Y-123082851D01*
X130761814Y-123073539D01*
X130762306Y-123064421D01*
X130763117Y-123055505D01*
X130764243Y-123046798D01*
X130765679Y-123038305D01*
X130767418Y-123030033D01*
X130769454Y-123021990D01*
X130771783Y-123014181D01*
X130774398Y-123006613D01*
X130777295Y-122999293D01*
X130780466Y-122992228D01*
X130783907Y-122985424D01*
X130787611Y-122978887D01*
X130791574Y-122972624D01*
X130795790Y-122966643D01*
X130800252Y-122960948D01*
X130804956Y-122955548D01*
X130809895Y-122950448D01*
X130815064Y-122945655D01*
X130820457Y-122941177D01*
X130826069Y-122937018D01*
X130831894Y-122933187D01*
X130837926Y-122929689D01*
X130844160Y-122926531D01*
X130850589Y-122923720D01*
X130857209Y-122921263D01*
X130864014Y-122919165D01*
X130870997Y-122917434D01*
X130878154Y-122916077D01*
X130885479Y-122915099D01*
X130892965Y-122914507D01*
X130900608Y-122914308D01*
X130905246Y-122914375D01*
X130909821Y-122914572D01*
X130914336Y-122914890D01*
X130918795Y-122915324D01*
X130923200Y-122915867D01*
X130927553Y-122916511D01*
X130931859Y-122917250D01*
X130936119Y-122918076D01*
X130936119Y-122727435D01*
X130925183Y-122726491D01*
X130919670Y-122726106D01*
X130914124Y-122725783D01*
X130908545Y-122725526D01*
X130902929Y-122725338D01*
X130897276Y-122725223D01*
X130891584Y-122725184D01*
X130871536Y-122725600D01*
X130851924Y-122726841D01*
X130832759Y-122728892D01*
X130814056Y-122731742D01*
X130795828Y-122735378D01*
X130778088Y-122739788D01*
X130760849Y-122744957D01*
X130744125Y-122750875D01*
X130727928Y-122757527D01*
X130712271Y-122764902D01*
X130697169Y-122772986D01*
X130682634Y-122781767D01*
X130668679Y-122791232D01*
X130655318Y-122801368D01*
X130642564Y-122812164D01*
X130630429Y-122823605D01*
X130618928Y-122835679D01*
X130608073Y-122848374D01*
X130597878Y-122861677D01*
X130588355Y-122875575D01*
X130579518Y-122890055D01*
X130571381Y-122905105D01*
X130563956Y-122920711D01*
X130557256Y-122936862D01*
X130551295Y-122953545D01*
X130546086Y-122970746D01*
X130541642Y-122988453D01*
X130537977Y-123006654D01*
X130535103Y-123025335D01*
X130533034Y-123044484D01*
X130531783Y-123064089D01*
X130531363Y-123084136D01*
X130490208Y-123084136D01*
X130490208Y-122732910D01*
X130262490Y-122732910D01*
X130216191Y-122732910D01*
X129988480Y-122732910D01*
X129988480Y-123428926D01*
X129708036Y-123428926D01*
X129962763Y-122732910D01*
X129738904Y-122732910D01*
X129599959Y-123203783D01*
X129462298Y-122732910D01*
X129243583Y-122732910D01*
X129107206Y-123203783D01*
X128968268Y-122732910D01*
X128735400Y-122732910D01*
X128699388Y-122732910D01*
X128470393Y-122732910D01*
X128470393Y-122824251D01*
X128460955Y-122812750D01*
X128450983Y-122801895D01*
X128440482Y-122791699D01*
X128429462Y-122782176D01*
X128417928Y-122773340D01*
X128405890Y-122765202D01*
X128393355Y-122757777D01*
X128380329Y-122751077D01*
X128366821Y-122745116D01*
X128352838Y-122739907D01*
X128338387Y-122735464D01*
X128323476Y-122731798D01*
X128308113Y-122728924D01*
X128292304Y-122726855D01*
X128276059Y-122725604D01*
X128259383Y-122725184D01*
X128241601Y-122725593D01*
X128224208Y-122726811D01*
X128207216Y-122728826D01*
X128190634Y-122731624D01*
X128174476Y-122735195D01*
X128158753Y-122739525D01*
X128143476Y-122744602D01*
X128128656Y-122750413D01*
X128114306Y-122756946D01*
X128100437Y-122764188D01*
X128087060Y-122772127D01*
X128074187Y-122780750D01*
X128061830Y-122790045D01*
X128050000Y-122800000D01*
X128038708Y-122810601D01*
X128027966Y-122821837D01*
X128017786Y-122833695D01*
X128008178Y-122846162D01*
X127999156Y-122859226D01*
X127990730Y-122872875D01*
X127982912Y-122887096D01*
X127975713Y-122901876D01*
X127969144Y-122917203D01*
X127963219Y-122933064D01*
X127957947Y-122949448D01*
X127953340Y-122966341D01*
X127949411Y-122983731D01*
X127946170Y-123001606D01*
X127943630Y-123019953D01*
X127941801Y-123038759D01*
X127940695Y-123058013D01*
X127940323Y-123077701D01*
X127940698Y-123097751D01*
X127941816Y-123117366D01*
X127943665Y-123136533D01*
X127946234Y-123155237D01*
X127949511Y-123173467D01*
X127953486Y-123191209D01*
X127958146Y-123208449D01*
X127963482Y-123225175D01*
X127969480Y-123241373D01*
X127976131Y-123257030D01*
X127983423Y-123272132D01*
X127991344Y-123286668D01*
X127999883Y-123300623D01*
X128009029Y-123313985D01*
X128018771Y-123326739D01*
X128029096Y-123338874D01*
X128039995Y-123350375D01*
X128051455Y-123361230D01*
X128063466Y-123371425D01*
X128076015Y-123380947D01*
X128089092Y-123389784D01*
X128102686Y-123397921D01*
X128116785Y-123405346D01*
X128131377Y-123412045D01*
X128146452Y-123418006D01*
X128161998Y-123423214D01*
X128178003Y-123427658D01*
X128194457Y-123431323D01*
X128211349Y-123434196D01*
X128228666Y-123436265D01*
X128246398Y-123437516D01*
X128264533Y-123437936D01*
X128280738Y-123437530D01*
X128296543Y-123436318D01*
X128311936Y-123434306D01*
X128326910Y-123431503D01*
X128341454Y-123427915D01*
X128355559Y-123423552D01*
X128369216Y-123418419D01*
X128382415Y-123412525D01*
X128395146Y-123405877D01*
X128407401Y-123398483D01*
X128419170Y-123390350D01*
X128430444Y-123381486D01*
X128441212Y-123371898D01*
X128451466Y-123361594D01*
X128461196Y-123350582D01*
X128470393Y-123338869D01*
X128470393Y-123678517D01*
X128283696Y-123678517D01*
X128252630Y-123677731D01*
X128221972Y-123675400D01*
X128191759Y-123671561D01*
X128162031Y-123666252D01*
X128132824Y-123659511D01*
X128104176Y-123651376D01*
X128076126Y-123641885D01*
X128048711Y-123631076D01*
X128021970Y-123618987D01*
X127995940Y-123605655D01*
X127970659Y-123591119D01*
X127946165Y-123575417D01*
X127922496Y-123558586D01*
X127899691Y-123540665D01*
X127877786Y-123521691D01*
X127856820Y-123501702D01*
X127836831Y-123480736D01*
X127817856Y-123458832D01*
X127799935Y-123436026D01*
X127783103Y-123412358D01*
X127767401Y-123387864D01*
X127752865Y-123362584D01*
X127739533Y-123336554D01*
X127727443Y-123309813D01*
X127716634Y-123282398D01*
X127707143Y-123254348D01*
X127699008Y-123225701D01*
X127692267Y-123196494D01*
X127686958Y-123166765D01*
X127683119Y-123136553D01*
X127680787Y-123105895D01*
X127680002Y-123074829D01*
X127680002Y-123074822D01*
X127680787Y-123043756D01*
X127683119Y-123013098D01*
X127686958Y-122982886D01*
X127692267Y-122953157D01*
X127699008Y-122923950D01*
X127707143Y-122895302D01*
X127716634Y-122867252D01*
X127727443Y-122839837D01*
X127739533Y-122813096D01*
X127752865Y-122787066D01*
X127767401Y-122761785D01*
X127783104Y-122737291D01*
X127799935Y-122713623D01*
X127817857Y-122690817D01*
X127836831Y-122668912D01*
X127856820Y-122647946D01*
X127877786Y-122627957D01*
X127899691Y-122608982D01*
X127922497Y-122591061D01*
X127946165Y-122574229D01*
X127970659Y-122558527D01*
X127995940Y-122543991D01*
X128021970Y-122530659D01*
X128048712Y-122518569D01*
X128076126Y-122507760D01*
X128104176Y-122498269D01*
X128132824Y-122490134D01*
X128162031Y-122483393D01*
X128191760Y-122478084D01*
X128221972Y-122474245D01*
X128252630Y-122471913D01*
X128283696Y-122471128D01*
X130800554Y-122471128D01*
X130831620Y-122471913D01*
G37*
D11*
%TO.C,J4*%
X119345000Y-129380000D02*
X119345000Y-128000000D01*
X120725000Y-129380000D02*
X119345000Y-129380000D01*
X121995000Y-126620000D02*
X124645000Y-126620000D01*
X121995000Y-129380000D02*
X121995000Y-126620000D01*
X121995000Y-129380000D02*
X124645000Y-129380000D01*
X124645000Y-129380000D02*
X124645000Y-126620000D01*
%TO.C,L2*%
X136400000Y-114800000D02*
X136400000Y-115200000D01*
X139600000Y-114800000D02*
X139600000Y-115200000D01*
%TO.C,U5*%
X157502500Y-122590000D02*
X157502500Y-122805000D01*
X157502500Y-125410000D02*
X157502500Y-125195000D01*
X159812500Y-122590000D02*
X157502500Y-122590000D01*
X159812500Y-122590000D02*
X162122500Y-122590000D01*
X159812500Y-125410000D02*
X157502500Y-125410000D01*
X159812500Y-125410000D02*
X162122500Y-125410000D01*
X162122500Y-122590000D02*
X162122500Y-122805000D01*
X162122500Y-125410000D02*
X162122500Y-125195000D01*
X156712500Y-122805000D02*
X156472500Y-122475000D01*
X156952500Y-122475000D01*
X156712500Y-122805000D01*
G36*
X156712500Y-122805000D02*
G01*
X156472500Y-122475000D01*
X156952500Y-122475000D01*
X156712500Y-122805000D01*
G37*
D13*
%TO.C,FL1*%
X111620100Y-105367300D02*
X111620100Y-120632700D01*
X111620100Y-120632700D02*
X132879900Y-120632700D01*
X132879900Y-105367300D02*
X111620100Y-105367300D01*
X132879900Y-120632700D02*
X132879900Y-105367300D01*
D14*
X128881000Y-119500000D02*
G75*
G02*
X128119000Y-119500000I-381000J0D01*
G01*
X128119000Y-119500000D02*
G75*
G02*
X128881000Y-119500000I381000J0D01*
G01*
D11*
%TO.C,C27*%
X140265000Y-111261252D02*
X140265000Y-110738748D01*
X141735000Y-111261252D02*
X141735000Y-110738748D01*
%TO.C,C10*%
X176639000Y-91317000D02*
X176639000Y-90683000D01*
X176679000Y-91757000D02*
X176679000Y-90243000D01*
X176719000Y-92028000D02*
X176719000Y-89972000D01*
X176759000Y-92241000D02*
X176759000Y-89759000D01*
X176799000Y-92422000D02*
X176799000Y-89578000D01*
X176839000Y-92583000D02*
X176839000Y-89417000D01*
X176879000Y-92728000D02*
X176879000Y-89272000D01*
X176919000Y-92861000D02*
X176919000Y-89139000D01*
X176959000Y-92984000D02*
X176959000Y-89016000D01*
X176999000Y-93100000D02*
X176999000Y-88900000D01*
X177039000Y-93209000D02*
X177039000Y-88791000D01*
X177079000Y-93312000D02*
X177079000Y-88688000D01*
X177119000Y-93410000D02*
X177119000Y-88590000D01*
X177159000Y-93504000D02*
X177159000Y-88496000D01*
X177199000Y-93594000D02*
X177199000Y-88406000D01*
X177239000Y-93681000D02*
X177239000Y-88319000D01*
X177279000Y-93764000D02*
X177279000Y-88236000D01*
X177319000Y-93844000D02*
X177319000Y-88156000D01*
X177359000Y-93921000D02*
X177359000Y-88079000D01*
X177399000Y-93996000D02*
X177399000Y-88004000D01*
X177439000Y-94069000D02*
X177439000Y-87931000D01*
X177479000Y-94140000D02*
X177479000Y-87860000D01*
X177519000Y-94208000D02*
X177519000Y-87792000D01*
X177559000Y-94275000D02*
X177559000Y-87725000D01*
X177599000Y-94339000D02*
X177599000Y-87661000D01*
X177639000Y-94402000D02*
X177639000Y-87598000D01*
X177679000Y-94464000D02*
X177679000Y-87536000D01*
X177719000Y-94524000D02*
X177719000Y-87476000D01*
X177759000Y-94583000D02*
X177759000Y-87417000D01*
X177799000Y-94640000D02*
X177799000Y-87360000D01*
X177839000Y-94696000D02*
X177839000Y-87304000D01*
X177879000Y-94750000D02*
X177879000Y-87250000D01*
X177919000Y-94804000D02*
X177919000Y-87196000D01*
X177959000Y-94856000D02*
X177959000Y-87144000D01*
X177999000Y-94907000D02*
X177999000Y-87093000D01*
X178039000Y-94957000D02*
X178039000Y-87043000D01*
X178079000Y-95007000D02*
X178079000Y-86993000D01*
X178119000Y-95055000D02*
X178119000Y-86945000D01*
X178159000Y-95102000D02*
X178159000Y-86898000D01*
X178199000Y-95148000D02*
X178199000Y-86852000D01*
X178239000Y-95194000D02*
X178239000Y-86806000D01*
X178279000Y-95238000D02*
X178279000Y-86762000D01*
X178319000Y-95282000D02*
X178319000Y-86718000D01*
X178359000Y-95325000D02*
X178359000Y-86675000D01*
X178399000Y-95367000D02*
X178399000Y-86633000D01*
X178439000Y-95408000D02*
X178439000Y-86592000D01*
X178479000Y-95449000D02*
X178479000Y-86551000D01*
X178519000Y-95489000D02*
X178519000Y-86511000D01*
X178559000Y-95528000D02*
X178559000Y-86472000D01*
X178599000Y-95567000D02*
X178599000Y-86433000D01*
X178639000Y-95605000D02*
X178639000Y-86395000D01*
X178679000Y-95642000D02*
X178679000Y-86358000D01*
X178719000Y-95678000D02*
X178719000Y-86322000D01*
X178759000Y-95714000D02*
X178759000Y-86286000D01*
X178799000Y-95750000D02*
X178799000Y-86250000D01*
X178839000Y-95785000D02*
X178839000Y-86215000D01*
X178879000Y-95819000D02*
X178879000Y-86181000D01*
X178919000Y-95852000D02*
X178919000Y-86148000D01*
X178959000Y-95885000D02*
X178959000Y-86115000D01*
X178999000Y-95918000D02*
X178999000Y-86082000D01*
X179039000Y-95950000D02*
X179039000Y-86050000D01*
X179079000Y-89560000D02*
X179079000Y-86018000D01*
X179079000Y-95982000D02*
X179079000Y-92440000D01*
X179119000Y-89560000D02*
X179119000Y-85988000D01*
X179119000Y-96012000D02*
X179119000Y-92440000D01*
X179159000Y-89560000D02*
X179159000Y-85957000D01*
X179159000Y-96043000D02*
X179159000Y-92440000D01*
X179199000Y-89560000D02*
X179199000Y-85927000D01*
X179199000Y-96073000D02*
X179199000Y-92440000D01*
X179239000Y-89560000D02*
X179239000Y-85898000D01*
X179239000Y-96102000D02*
X179239000Y-92440000D01*
X179279000Y-89560000D02*
X179279000Y-85869000D01*
X179279000Y-96131000D02*
X179279000Y-92440000D01*
X179319000Y-89560000D02*
X179319000Y-85840000D01*
X179319000Y-96160000D02*
X179319000Y-92440000D01*
X179359000Y-89560000D02*
X179359000Y-85812000D01*
X179359000Y-96188000D02*
X179359000Y-92440000D01*
X179399000Y-89560000D02*
X179399000Y-85784000D01*
X179399000Y-96216000D02*
X179399000Y-92440000D01*
X179439000Y-89560000D02*
X179439000Y-85757000D01*
X179439000Y-96243000D02*
X179439000Y-92440000D01*
X179479000Y-89560000D02*
X179479000Y-85730000D01*
X179479000Y-96270000D02*
X179479000Y-92440000D01*
X179519000Y-89560000D02*
X179519000Y-85704000D01*
X179519000Y-96296000D02*
X179519000Y-92440000D01*
X179559000Y-89560000D02*
X179559000Y-85678000D01*
X179559000Y-96322000D02*
X179559000Y-92440000D01*
X179599000Y-89560000D02*
X179599000Y-85653000D01*
X179599000Y-96347000D02*
X179599000Y-92440000D01*
X179639000Y-89560000D02*
X179639000Y-85628000D01*
X179639000Y-96372000D02*
X179639000Y-92440000D01*
X179679000Y-89560000D02*
X179679000Y-85603000D01*
X179679000Y-96397000D02*
X179679000Y-92440000D01*
X179719000Y-89560000D02*
X179719000Y-85579000D01*
X179719000Y-96421000D02*
X179719000Y-92440000D01*
X179759000Y-89560000D02*
X179759000Y-85555000D01*
X179759000Y-96445000D02*
X179759000Y-92440000D01*
X179799000Y-89560000D02*
X179799000Y-85532000D01*
X179799000Y-96468000D02*
X179799000Y-92440000D01*
X179839000Y-89560000D02*
X179839000Y-85509000D01*
X179839000Y-96491000D02*
X179839000Y-92440000D01*
X179879000Y-89560000D02*
X179879000Y-85486000D01*
X179879000Y-96514000D02*
X179879000Y-92440000D01*
X179919000Y-89560000D02*
X179919000Y-85464000D01*
X179919000Y-96536000D02*
X179919000Y-92440000D01*
X179959000Y-89560000D02*
X179959000Y-85442000D01*
X179959000Y-96558000D02*
X179959000Y-92440000D01*
X179999000Y-89560000D02*
X179999000Y-85420000D01*
X179999000Y-96580000D02*
X179999000Y-92440000D01*
X180039000Y-89560000D02*
X180039000Y-85399000D01*
X180039000Y-96601000D02*
X180039000Y-92440000D01*
X180079000Y-89560000D02*
X180079000Y-85378000D01*
X180079000Y-96622000D02*
X180079000Y-92440000D01*
X180119000Y-89560000D02*
X180119000Y-85358000D01*
X180119000Y-96642000D02*
X180119000Y-92440000D01*
X180159000Y-89560000D02*
X180159000Y-85338000D01*
X180159000Y-96662000D02*
X180159000Y-92440000D01*
X180199000Y-89560000D02*
X180199000Y-85318000D01*
X180199000Y-96682000D02*
X180199000Y-92440000D01*
X180239000Y-89560000D02*
X180239000Y-85298000D01*
X180239000Y-96702000D02*
X180239000Y-92440000D01*
X180279000Y-89560000D02*
X180279000Y-85279000D01*
X180279000Y-96721000D02*
X180279000Y-92440000D01*
X180319000Y-89560000D02*
X180319000Y-85261000D01*
X180319000Y-96739000D02*
X180319000Y-92440000D01*
X180359000Y-89560000D02*
X180359000Y-85242000D01*
X180359000Y-96758000D02*
X180359000Y-92440000D01*
X180399000Y-89560000D02*
X180399000Y-85224000D01*
X180399000Y-96776000D02*
X180399000Y-92440000D01*
X180439000Y-89560000D02*
X180439000Y-85207000D01*
X180439000Y-96793000D02*
X180439000Y-92440000D01*
X180479000Y-89560000D02*
X180479000Y-85189000D01*
X180479000Y-96811000D02*
X180479000Y-92440000D01*
X180519000Y-89560000D02*
X180519000Y-85172000D01*
X180519000Y-96828000D02*
X180519000Y-92440000D01*
X180559000Y-89560000D02*
X180559000Y-85155000D01*
X180559000Y-96845000D02*
X180559000Y-92440000D01*
X180599000Y-89560000D02*
X180599000Y-85139000D01*
X180599000Y-96861000D02*
X180599000Y-92440000D01*
X180639000Y-89560000D02*
X180639000Y-85123000D01*
X180639000Y-96877000D02*
X180639000Y-92440000D01*
X180679000Y-89560000D02*
X180679000Y-85107000D01*
X180679000Y-96893000D02*
X180679000Y-92440000D01*
X180719000Y-89560000D02*
X180719000Y-85092000D01*
X180719000Y-96908000D02*
X180719000Y-92440000D01*
X180759000Y-89560000D02*
X180759000Y-85076000D01*
X180759000Y-96924000D02*
X180759000Y-92440000D01*
X180799000Y-89560000D02*
X180799000Y-85061000D01*
X180799000Y-96939000D02*
X180799000Y-92440000D01*
X180839000Y-89560000D02*
X180839000Y-85047000D01*
X180839000Y-96953000D02*
X180839000Y-92440000D01*
X180879000Y-89560000D02*
X180879000Y-85033000D01*
X180879000Y-96967000D02*
X180879000Y-92440000D01*
X180919000Y-89560000D02*
X180919000Y-85019000D01*
X180919000Y-96981000D02*
X180919000Y-92440000D01*
X180959000Y-89560000D02*
X180959000Y-85005000D01*
X180959000Y-96995000D02*
X180959000Y-92440000D01*
X180999000Y-89560000D02*
X180999000Y-84992000D01*
X180999000Y-97008000D02*
X180999000Y-92440000D01*
X181039000Y-89560000D02*
X181039000Y-84979000D01*
X181039000Y-97021000D02*
X181039000Y-92440000D01*
X181079000Y-89560000D02*
X181079000Y-84966000D01*
X181079000Y-97034000D02*
X181079000Y-92440000D01*
X181119000Y-89560000D02*
X181119000Y-84953000D01*
X181119000Y-97047000D02*
X181119000Y-92440000D01*
X181159000Y-89560000D02*
X181159000Y-84941000D01*
X181159000Y-97059000D02*
X181159000Y-92440000D01*
X181199000Y-89560000D02*
X181199000Y-84929000D01*
X181199000Y-97071000D02*
X181199000Y-92440000D01*
X181239000Y-89560000D02*
X181239000Y-84917000D01*
X181239000Y-97083000D02*
X181239000Y-92440000D01*
X181279000Y-89560000D02*
X181279000Y-84906000D01*
X181279000Y-97094000D02*
X181279000Y-92440000D01*
X181319000Y-89560000D02*
X181319000Y-84895000D01*
X181319000Y-97105000D02*
X181319000Y-92440000D01*
X181359000Y-89560000D02*
X181359000Y-84884000D01*
X181359000Y-97116000D02*
X181359000Y-92440000D01*
X181399000Y-89560000D02*
X181399000Y-84874000D01*
X181399000Y-97126000D02*
X181399000Y-92440000D01*
X181439000Y-89560000D02*
X181439000Y-84863000D01*
X181439000Y-97137000D02*
X181439000Y-92440000D01*
X181479000Y-89560000D02*
X181479000Y-84854000D01*
X181479000Y-97146000D02*
X181479000Y-92440000D01*
X181519000Y-89560000D02*
X181519000Y-84844000D01*
X181519000Y-97156000D02*
X181519000Y-92440000D01*
X181559000Y-89560000D02*
X181559000Y-84834000D01*
X181559000Y-97166000D02*
X181559000Y-92440000D01*
X181599000Y-89560000D02*
X181599000Y-84825000D01*
X181599000Y-97175000D02*
X181599000Y-92440000D01*
X181639000Y-89560000D02*
X181639000Y-84816000D01*
X181639000Y-97184000D02*
X181639000Y-92440000D01*
X181679000Y-89560000D02*
X181679000Y-84808000D01*
X181679000Y-97192000D02*
X181679000Y-92440000D01*
X181719000Y-89560000D02*
X181719000Y-84799000D01*
X181719000Y-97201000D02*
X181719000Y-92440000D01*
X181759000Y-89560000D02*
X181759000Y-84791000D01*
X181759000Y-97209000D02*
X181759000Y-92440000D01*
X181799000Y-89560000D02*
X181799000Y-84784000D01*
X181799000Y-97216000D02*
X181799000Y-92440000D01*
X181839000Y-89560000D02*
X181839000Y-84776000D01*
X181839000Y-97224000D02*
X181839000Y-92440000D01*
X181879000Y-89560000D02*
X181879000Y-84769000D01*
X181879000Y-97231000D02*
X181879000Y-92440000D01*
X181919000Y-89560000D02*
X181919000Y-84762000D01*
X181919000Y-97238000D02*
X181919000Y-92440000D01*
X181959000Y-97245000D02*
X181959000Y-84755000D01*
X181999000Y-97252000D02*
X181999000Y-84748000D01*
X182039000Y-97258000D02*
X182039000Y-84742000D01*
X182079000Y-97264000D02*
X182079000Y-84736000D01*
X182119000Y-97269000D02*
X182119000Y-84731000D01*
X182159000Y-97275000D02*
X182159000Y-84725000D01*
X182199000Y-97280000D02*
X182199000Y-84720000D01*
X182239000Y-97285000D02*
X182239000Y-84715000D01*
X182279000Y-97290000D02*
X182279000Y-84710000D01*
X182320000Y-97294000D02*
X182320000Y-84706000D01*
X182360000Y-97298000D02*
X182360000Y-84702000D01*
X182400000Y-97302000D02*
X182400000Y-84698000D01*
X182440000Y-97306000D02*
X182440000Y-84694000D01*
X182480000Y-97309000D02*
X182480000Y-84691000D01*
X182520000Y-97312000D02*
X182520000Y-84688000D01*
X182560000Y-97315000D02*
X182560000Y-84685000D01*
X182600000Y-97318000D02*
X182600000Y-84682000D01*
X182640000Y-97320000D02*
X182640000Y-84680000D01*
X182680000Y-97322000D02*
X182680000Y-84678000D01*
X182720000Y-97324000D02*
X182720000Y-84676000D01*
X182760000Y-97326000D02*
X182760000Y-84674000D01*
X182800000Y-97327000D02*
X182800000Y-84673000D01*
X182840000Y-97328000D02*
X182840000Y-84672000D01*
X182880000Y-97329000D02*
X182880000Y-84671000D01*
X182920000Y-97330000D02*
X182920000Y-84670000D01*
X182960000Y-97330000D02*
X182960000Y-84670000D01*
X183000000Y-97330000D02*
X183000000Y-84670000D01*
X187700000Y-94325000D02*
X187700000Y-93075000D01*
X188325000Y-93700000D02*
X187075000Y-93700000D01*
X189370000Y-91000000D02*
G75*
G02*
X176630000Y-91000000I-6370000J0D01*
G01*
X176630000Y-91000000D02*
G75*
G02*
X189370000Y-91000000I6370000J0D01*
G01*
%TO.C,R35*%
X140262742Y-127477500D02*
X140737258Y-127477500D01*
X140262742Y-128522500D02*
X140737258Y-128522500D01*
D15*
%TO.C,T1*%
X144400000Y-84400000D02*
X144400000Y-115600000D01*
X144400000Y-84400000D02*
X175600000Y-84400000D01*
X175600000Y-84400000D02*
X175600000Y-115600000D01*
X175600000Y-115600000D02*
X144400000Y-115600000D01*
D16*
X143700000Y-87500000D02*
G75*
G02*
X143300000Y-87500000I-200000J0D01*
G01*
X143300000Y-87500000D02*
G75*
G02*
X143700000Y-87500000I200000J0D01*
G01*
D11*
%TO.C,R31*%
X149737258Y-126423604D02*
X149262742Y-126423604D01*
X149737258Y-127468604D02*
X149262742Y-127468604D01*
%TO.C,R40*%
X140737258Y-122977500D02*
X140262742Y-122977500D01*
X140737258Y-124022500D02*
X140262742Y-124022500D01*
%TO.C,C15*%
X143359420Y-127490000D02*
X143640580Y-127490000D01*
X143359420Y-128510000D02*
X143640580Y-128510000D01*
D10*
%TO.C,RV1*%
X97000000Y-126250000D02*
X97000000Y-118750000D01*
X109000000Y-118750000D02*
X97000000Y-118750000D01*
X109000000Y-126250000D02*
X97000000Y-126250000D01*
X109000000Y-126250000D02*
X109000000Y-118750000D01*
D11*
%TO.C,C5*%
X146640580Y-124490000D02*
X146359420Y-124490000D01*
X146640580Y-125510000D02*
X146359420Y-125510000D01*
%TO.C,C16*%
X146640580Y-125990000D02*
X146359420Y-125990000D01*
X146640580Y-127010000D02*
X146359420Y-127010000D01*
%TO.C,R39*%
X140737258Y-124477500D02*
X140262742Y-124477500D01*
X140737258Y-125522500D02*
X140262742Y-125522500D01*
%TO.C,R19*%
X135477500Y-104762742D02*
X135477500Y-105237258D01*
X136522500Y-104762742D02*
X136522500Y-105237258D01*
%TO.C,C20*%
X154380000Y-116380000D02*
X154380000Y-117899000D01*
X154380000Y-116380000D02*
X165620000Y-116380000D01*
X154380000Y-120101000D02*
X154380000Y-121620000D01*
X154380000Y-121620000D02*
X165620000Y-121620000D01*
X165620000Y-116380000D02*
X165620000Y-117899000D01*
X165620000Y-120101000D02*
X165620000Y-121620000D01*
%TO.C,C17*%
X146640580Y-122990000D02*
X146359420Y-122990000D01*
X146640580Y-124010000D02*
X146359420Y-124010000D01*
%TO.C,C25*%
X133690000Y-126640580D02*
X133690000Y-126359420D01*
X134710000Y-126640580D02*
X134710000Y-126359420D01*
%TO.C,C32*%
X140590000Y-117788748D02*
X140590000Y-119211252D01*
X142410000Y-117788748D02*
X142410000Y-119211252D01*
D15*
%TO.C,L1*%
X136350000Y-99500000D02*
G75*
G02*
X125650000Y-99500000I-5350000J0D01*
G01*
X125650000Y-99500000D02*
G75*
G02*
X136350000Y-99500000I5350000J0D01*
G01*
D16*
X135500000Y-99500000D02*
G75*
G02*
X135100000Y-99500000I-200000J0D01*
G01*
X135100000Y-99500000D02*
G75*
G02*
X135500000Y-99500000I200000J0D01*
G01*
D11*
%TO.C,C28*%
X134265000Y-111261252D02*
X134265000Y-110738748D01*
X135735000Y-111261252D02*
X135735000Y-110738748D01*
%TO.C,R15*%
X149262742Y-121477500D02*
X149737258Y-121477500D01*
X149262742Y-122522500D02*
X149737258Y-122522500D01*
D15*
%TO.C,S1*%
X135800000Y-125000000D02*
X135800000Y-127000000D01*
X138600000Y-125000000D02*
X138600000Y-127000000D01*
X138200000Y-125300000D02*
G75*
G02*
X138000000Y-125300000I-100000J0D01*
G01*
X138000000Y-125300000D02*
G75*
G02*
X138200000Y-125300000I100000J0D01*
G01*
D11*
%TO.C,C24*%
X143359420Y-122990000D02*
X143640580Y-122990000D01*
X143359420Y-124010000D02*
X143640580Y-124010000D01*
%TO.C,R34*%
X140737258Y-125977500D02*
X140262742Y-125977500D01*
X140737258Y-127022500D02*
X140262742Y-127022500D01*
%TO.C,C31*%
X137490000Y-105140580D02*
X137490000Y-104859420D01*
X138510000Y-105140580D02*
X138510000Y-104859420D01*
%TO.C,C12*%
X143359420Y-124490000D02*
X143640580Y-124490000D01*
X143359420Y-125510000D02*
X143640580Y-125510000D01*
%TO.C,C30*%
X139859420Y-107490000D02*
X140140580Y-107490000D01*
X139859420Y-108510000D02*
X140140580Y-108510000D01*
%TO.C,R30*%
X149737258Y-124923604D02*
X149262742Y-124923604D01*
X149737258Y-125968604D02*
X149262742Y-125968604D01*
%TO.C,C3*%
X136854113Y-98284000D02*
X136854113Y-97716000D01*
X136894113Y-98518000D02*
X136894113Y-97482000D01*
X136934113Y-98677000D02*
X136934113Y-97323000D01*
X136974113Y-98805000D02*
X136974113Y-97195000D01*
X137014113Y-98915000D02*
X137014113Y-97085000D01*
X137054113Y-99011000D02*
X137054113Y-96989000D01*
X137094113Y-99098000D02*
X137094113Y-96902000D01*
X137134113Y-99178000D02*
X137134113Y-96822000D01*
X137174113Y-99251000D02*
X137174113Y-96749000D01*
X137214113Y-99319000D02*
X137214113Y-96681000D01*
X137254113Y-99383000D02*
X137254113Y-96617000D01*
X137294113Y-99443000D02*
X137294113Y-96557000D01*
X137334113Y-99500000D02*
X137334113Y-96500000D01*
X137374113Y-99554000D02*
X137374113Y-96446000D01*
X137414113Y-99605000D02*
X137414113Y-96395000D01*
X137454113Y-96960000D02*
X137454113Y-96347000D01*
X137454113Y-99653000D02*
X137454113Y-99040000D01*
X137494113Y-96960000D02*
X137494113Y-96301000D01*
X137494113Y-99699000D02*
X137494113Y-99040000D01*
X137534113Y-96960000D02*
X137534113Y-96257000D01*
X137534113Y-99743000D02*
X137534113Y-99040000D01*
X137574113Y-96960000D02*
X137574113Y-96215000D01*
X137574113Y-99785000D02*
X137574113Y-99040000D01*
X137614113Y-96960000D02*
X137614113Y-96174000D01*
X137614113Y-99826000D02*
X137614113Y-99040000D01*
X137654113Y-96960000D02*
X137654113Y-96136000D01*
X137654113Y-99864000D02*
X137654113Y-99040000D01*
X137694113Y-96960000D02*
X137694113Y-96099000D01*
X137694113Y-99901000D02*
X137694113Y-99040000D01*
X137734113Y-96960000D02*
X137734113Y-96063000D01*
X137734113Y-99937000D02*
X137734113Y-99040000D01*
X137774113Y-96960000D02*
X137774113Y-96029000D01*
X137774113Y-99971000D02*
X137774113Y-99040000D01*
X137814113Y-96960000D02*
X137814113Y-95996000D01*
X137814113Y-100004000D02*
X137814113Y-99040000D01*
X137854113Y-96960000D02*
X137854113Y-95965000D01*
X137854113Y-100035000D02*
X137854113Y-99040000D01*
X137894113Y-96960000D02*
X137894113Y-95935000D01*
X137894113Y-100065000D02*
X137894113Y-99040000D01*
X137934113Y-96960000D02*
X137934113Y-95905000D01*
X137934113Y-100095000D02*
X137934113Y-99040000D01*
X137974113Y-96960000D02*
X137974113Y-95878000D01*
X137974113Y-100122000D02*
X137974113Y-99040000D01*
X138014113Y-96960000D02*
X138014113Y-95851000D01*
X138014113Y-100149000D02*
X138014113Y-99040000D01*
X138054113Y-96960000D02*
X138054113Y-95825000D01*
X138054113Y-100175000D02*
X138054113Y-99040000D01*
X138094113Y-96960000D02*
X138094113Y-95800000D01*
X138094113Y-100200000D02*
X138094113Y-99040000D01*
X138134113Y-96960000D02*
X138134113Y-95776000D01*
X138134113Y-100224000D02*
X138134113Y-99040000D01*
X138174113Y-96960000D02*
X138174113Y-95753000D01*
X138174113Y-100247000D02*
X138174113Y-99040000D01*
X138214113Y-96960000D02*
X138214113Y-95732000D01*
X138214113Y-100268000D02*
X138214113Y-99040000D01*
X138254113Y-96960000D02*
X138254113Y-95710000D01*
X138254113Y-100290000D02*
X138254113Y-99040000D01*
X138294113Y-96960000D02*
X138294113Y-95690000D01*
X138294113Y-100310000D02*
X138294113Y-99040000D01*
X138334113Y-96960000D02*
X138334113Y-95671000D01*
X138334113Y-100329000D02*
X138334113Y-99040000D01*
X138374113Y-96960000D02*
X138374113Y-95652000D01*
X138374113Y-100348000D02*
X138374113Y-99040000D01*
X138414113Y-96960000D02*
X138414113Y-95635000D01*
X138414113Y-100365000D02*
X138414113Y-99040000D01*
X138454113Y-96960000D02*
X138454113Y-95618000D01*
X138454113Y-100382000D02*
X138454113Y-99040000D01*
X138494113Y-96960000D02*
X138494113Y-95602000D01*
X138494113Y-100398000D02*
X138494113Y-99040000D01*
X138534113Y-96960000D02*
X138534113Y-95586000D01*
X138534113Y-100414000D02*
X138534113Y-99040000D01*
X138574113Y-96960000D02*
X138574113Y-95572000D01*
X138574113Y-100428000D02*
X138574113Y-99040000D01*
X138614113Y-96960000D02*
X138614113Y-95558000D01*
X138614113Y-100442000D02*
X138614113Y-99040000D01*
X138654113Y-96960000D02*
X138654113Y-95545000D01*
X138654113Y-100455000D02*
X138654113Y-99040000D01*
X138694113Y-96960000D02*
X138694113Y-95532000D01*
X138694113Y-100468000D02*
X138694113Y-99040000D01*
X138734113Y-96960000D02*
X138734113Y-95520000D01*
X138734113Y-100480000D02*
X138734113Y-99040000D01*
X138775113Y-96960000D02*
X138775113Y-95509000D01*
X138775113Y-100491000D02*
X138775113Y-99040000D01*
X138815113Y-96960000D02*
X138815113Y-95499000D01*
X138815113Y-100501000D02*
X138815113Y-99040000D01*
X138855113Y-96960000D02*
X138855113Y-95489000D01*
X138855113Y-100511000D02*
X138855113Y-99040000D01*
X138895113Y-96960000D02*
X138895113Y-95480000D01*
X138895113Y-100520000D02*
X138895113Y-99040000D01*
X138935113Y-96960000D02*
X138935113Y-95472000D01*
X138935113Y-100528000D02*
X138935113Y-99040000D01*
X138975113Y-96960000D02*
X138975113Y-95464000D01*
X138975113Y-100536000D02*
X138975113Y-99040000D01*
X139015113Y-96960000D02*
X139015113Y-95457000D01*
X139015113Y-100543000D02*
X139015113Y-99040000D01*
X139055113Y-96960000D02*
X139055113Y-95450000D01*
X139055113Y-100550000D02*
X139055113Y-99040000D01*
X139095113Y-96960000D02*
X139095113Y-95444000D01*
X139095113Y-100556000D02*
X139095113Y-99040000D01*
X139135113Y-96960000D02*
X139135113Y-95439000D01*
X139135113Y-100561000D02*
X139135113Y-99040000D01*
X139175113Y-96960000D02*
X139175113Y-95435000D01*
X139175113Y-100565000D02*
X139175113Y-99040000D01*
X139215113Y-96960000D02*
X139215113Y-95431000D01*
X139215113Y-100569000D02*
X139215113Y-99040000D01*
X139255113Y-96960000D02*
X139255113Y-95427000D01*
X139255113Y-100573000D02*
X139255113Y-99040000D01*
X139295113Y-96960000D02*
X139295113Y-95424000D01*
X139295113Y-100576000D02*
X139295113Y-99040000D01*
X139335113Y-96960000D02*
X139335113Y-95422000D01*
X139335113Y-100578000D02*
X139335113Y-99040000D01*
X139375113Y-96960000D02*
X139375113Y-95421000D01*
X139375113Y-100579000D02*
X139375113Y-99040000D01*
X139415113Y-96960000D02*
X139415113Y-95420000D01*
X139415113Y-100580000D02*
X139415113Y-99040000D01*
X139455113Y-96960000D02*
X139455113Y-95420000D01*
X139455113Y-100580000D02*
X139455113Y-99040000D01*
X142009888Y-99725000D02*
X142009888Y-99225000D01*
X142259888Y-99475000D02*
X141759888Y-99475000D01*
X142075113Y-98000000D02*
G75*
G02*
X136835113Y-98000000I-2620000J0D01*
G01*
X136835113Y-98000000D02*
G75*
G02*
X142075113Y-98000000I2620000J0D01*
G01*
%TO.C,R16*%
X149737258Y-122977500D02*
X149262742Y-122977500D01*
X149737258Y-124022500D02*
X149262742Y-124022500D01*
%TO.C,J3*%
X154270000Y-126770000D02*
X154270000Y-127405000D01*
X154270000Y-127405000D02*
X153635000Y-127405000D01*
%TO.C,C2*%
X122880000Y-93620000D02*
X122880000Y-84380000D01*
X141120000Y-84380000D02*
X122880000Y-84380000D01*
X141120000Y-93620000D02*
X122880000Y-93620000D01*
X141120000Y-93620000D02*
X141120000Y-84380000D01*
%TO.C,C29*%
X137140580Y-107490000D02*
X136859420Y-107490000D01*
X137140580Y-108510000D02*
X136859420Y-108510000D01*
D17*
%TO.C,J1*%
X95000000Y-96500000D02*
X111000000Y-96500000D01*
X111000000Y-96500000D02*
X111000000Y-117500000D01*
X111000000Y-117500000D02*
X95000000Y-117500000D01*
D11*
%TO.C,C34*%
X136265000Y-119261252D02*
X136265000Y-118738748D01*
X137735000Y-119261252D02*
X137735000Y-118738748D01*
%TO.C,U6*%
X157502500Y-126590000D02*
X157502500Y-126805000D01*
X157502500Y-129410000D02*
X157502500Y-129195000D01*
X159812500Y-126590000D02*
X157502500Y-126590000D01*
X159812500Y-126590000D02*
X162122500Y-126590000D01*
X159812500Y-129410000D02*
X157502500Y-129410000D01*
X159812500Y-129410000D02*
X162122500Y-129410000D01*
X162122500Y-126590000D02*
X162122500Y-126805000D01*
X162122500Y-129410000D02*
X162122500Y-129195000D01*
X156712500Y-126805000D02*
X156472500Y-126475000D01*
X156952500Y-126475000D01*
X156712500Y-126805000D01*
G36*
X156712500Y-126805000D02*
G01*
X156472500Y-126475000D01*
X156952500Y-126475000D01*
X156712500Y-126805000D01*
G37*
%TO.C,D2*%
X138265000Y-117515000D02*
X138265000Y-119800000D01*
X139735000Y-117515000D02*
X138265000Y-117515000D01*
X139735000Y-119800000D02*
X139735000Y-117515000D01*
%TO.C,R33*%
X137737258Y-122477500D02*
X137262742Y-122477500D01*
X137737258Y-123522500D02*
X137262742Y-123522500D01*
%TO.C,C22*%
X143359420Y-125990000D02*
X143640580Y-125990000D01*
X143359420Y-127010000D02*
X143640580Y-127010000D01*
%TO.C,C33*%
X133590000Y-117788748D02*
X133590000Y-119211252D01*
X135410000Y-117788748D02*
X135410000Y-119211252D01*
%TO.C,R20*%
X139477500Y-105237258D02*
X139477500Y-104762742D01*
X140522500Y-105237258D02*
X140522500Y-104762742D01*
D18*
%TO.C,J8*%
X117500000Y-91000000D02*
X117500000Y-89000000D01*
D15*
%TO.C,J6*%
X190375000Y-96500000D02*
X190375000Y-104550000D01*
X190375000Y-104550000D02*
X191125000Y-104550000D01*
X191125000Y-93900000D02*
X199575000Y-93900000D01*
X191125000Y-96500000D02*
X190375000Y-96500000D01*
X191125000Y-106650000D02*
X191125000Y-93900000D01*
D17*
X193575000Y-93400000D02*
X193575000Y-93400000D01*
X193675000Y-93400000D02*
X193675000Y-93400000D01*
D15*
X199575000Y-93900000D02*
X199575000Y-106650000D01*
X199575000Y-106650000D02*
X191125000Y-106650000D01*
D17*
X193575000Y-93400000D02*
G75*
G02*
X193675000Y-93400000I50000J0D01*
G01*
X193675000Y-93400000D02*
G75*
G02*
X193575000Y-93400000I-50000J0D01*
G01*
D18*
%TO.C,J7*%
X112500000Y-91000000D02*
X112500000Y-89000000D01*
%TD*%
M02*
