%TF.GenerationSoftware,KiCad,Pcbnew,9.0.0-9.0.0-2~ubuntu24.04.1*%
%TF.CreationDate,2025-04-10T08:36:23-04:00*%
%TF.ProjectId,Touch,546f7563-682e-46b6-9963-61645f706362,0*%
%TF.SameCoordinates,Original*%
%TF.FileFunction,Legend,Bot*%
%TF.FilePolarity,Positive*%
%FSLAX46Y46*%
G04 Gerber Fmt 4.6, Leading zero omitted, Abs format (unit mm)*
G04 Created by KiCad (PCBNEW 9.0.0-9.0.0-2~ubuntu24.04.1) date 2025-04-10 08:36:23*
%MOMM*%
%LPD*%
G01*
G04 APERTURE LIST*
%ADD10C,0.150000*%
G04 APERTURE END LIST*
D10*
X221829887Y-150626121D02*
X221687030Y-150673740D01*
X221687030Y-150673740D02*
X221639411Y-150721359D01*
X221639411Y-150721359D02*
X221591792Y-150816597D01*
X221591792Y-150816597D02*
X221591792Y-150959454D01*
X221591792Y-150959454D02*
X221639411Y-151054692D01*
X221639411Y-151054692D02*
X221687030Y-151102312D01*
X221687030Y-151102312D02*
X221782268Y-151149931D01*
X221782268Y-151149931D02*
X222163220Y-151149931D01*
X222163220Y-151149931D02*
X222163220Y-150149931D01*
X222163220Y-150149931D02*
X221829887Y-150149931D01*
X221829887Y-150149931D02*
X221734649Y-150197550D01*
X221734649Y-150197550D02*
X221687030Y-150245169D01*
X221687030Y-150245169D02*
X221639411Y-150340407D01*
X221639411Y-150340407D02*
X221639411Y-150435645D01*
X221639411Y-150435645D02*
X221687030Y-150530883D01*
X221687030Y-150530883D02*
X221734649Y-150578502D01*
X221734649Y-150578502D02*
X221829887Y-150626121D01*
X221829887Y-150626121D02*
X222163220Y-150626121D01*
X221163220Y-151149931D02*
X221163220Y-150483264D01*
X221163220Y-150673740D02*
X221115601Y-150578502D01*
X221115601Y-150578502D02*
X221067982Y-150530883D01*
X221067982Y-150530883D02*
X220972744Y-150483264D01*
X220972744Y-150483264D02*
X220877506Y-150483264D01*
X220639410Y-150483264D02*
X220401315Y-151149931D01*
X220163220Y-150483264D02*
X220401315Y-151149931D01*
X220401315Y-151149931D02*
X220496553Y-151388026D01*
X220496553Y-151388026D02*
X220544172Y-151435645D01*
X220544172Y-151435645D02*
X220639410Y-151483264D01*
X219353696Y-151149931D02*
X219353696Y-150626121D01*
X219353696Y-150626121D02*
X219401315Y-150530883D01*
X219401315Y-150530883D02*
X219496553Y-150483264D01*
X219496553Y-150483264D02*
X219687029Y-150483264D01*
X219687029Y-150483264D02*
X219782267Y-150530883D01*
X219353696Y-151102312D02*
X219448934Y-151149931D01*
X219448934Y-151149931D02*
X219687029Y-151149931D01*
X219687029Y-151149931D02*
X219782267Y-151102312D01*
X219782267Y-151102312D02*
X219829886Y-151007073D01*
X219829886Y-151007073D02*
X219829886Y-150911835D01*
X219829886Y-150911835D02*
X219782267Y-150816597D01*
X219782267Y-150816597D02*
X219687029Y-150768978D01*
X219687029Y-150768978D02*
X219448934Y-150768978D01*
X219448934Y-150768978D02*
X219353696Y-150721359D01*
X218877505Y-150483264D02*
X218877505Y-151149931D01*
X218877505Y-150578502D02*
X218829886Y-150530883D01*
X218829886Y-150530883D02*
X218734648Y-150483264D01*
X218734648Y-150483264D02*
X218591791Y-150483264D01*
X218591791Y-150483264D02*
X218496553Y-150530883D01*
X218496553Y-150530883D02*
X218448934Y-150626121D01*
X218448934Y-150626121D02*
X218448934Y-151149931D01*
X217925124Y-151102312D02*
X217925124Y-151149931D01*
X217925124Y-151149931D02*
X217972743Y-151245169D01*
X217972743Y-151245169D02*
X218020362Y-151292788D01*
X216877505Y-150149931D02*
X216306077Y-150149931D01*
X216591791Y-151149931D02*
X216591791Y-150149931D01*
X215544172Y-151149931D02*
X215544172Y-150626121D01*
X215544172Y-150626121D02*
X215591791Y-150530883D01*
X215591791Y-150530883D02*
X215687029Y-150483264D01*
X215687029Y-150483264D02*
X215877505Y-150483264D01*
X215877505Y-150483264D02*
X215972743Y-150530883D01*
X215544172Y-151102312D02*
X215639410Y-151149931D01*
X215639410Y-151149931D02*
X215877505Y-151149931D01*
X215877505Y-151149931D02*
X215972743Y-151102312D01*
X215972743Y-151102312D02*
X216020362Y-151007073D01*
X216020362Y-151007073D02*
X216020362Y-150911835D01*
X216020362Y-150911835D02*
X215972743Y-150816597D01*
X215972743Y-150816597D02*
X215877505Y-150768978D01*
X215877505Y-150768978D02*
X215639410Y-150768978D01*
X215639410Y-150768978D02*
X215544172Y-150721359D01*
X215067981Y-151149931D02*
X215067981Y-150149931D01*
X214639410Y-151149931D02*
X214639410Y-150626121D01*
X214639410Y-150626121D02*
X214687029Y-150530883D01*
X214687029Y-150530883D02*
X214782267Y-150483264D01*
X214782267Y-150483264D02*
X214925124Y-150483264D01*
X214925124Y-150483264D02*
X215020362Y-150530883D01*
X215020362Y-150530883D02*
X215067981Y-150578502D01*
X214163219Y-150483264D02*
X214163219Y-151340407D01*
X214163219Y-151340407D02*
X214210838Y-151435645D01*
X214210838Y-151435645D02*
X214306076Y-151483264D01*
X214306076Y-151483264D02*
X214353695Y-151483264D01*
X214163219Y-150149931D02*
X214210838Y-150197550D01*
X214210838Y-150197550D02*
X214163219Y-150245169D01*
X214163219Y-150245169D02*
X214115600Y-150197550D01*
X214115600Y-150197550D02*
X214163219Y-150149931D01*
X214163219Y-150149931D02*
X214163219Y-150245169D01*
X213306077Y-151102312D02*
X213401315Y-151149931D01*
X213401315Y-151149931D02*
X213591791Y-151149931D01*
X213591791Y-151149931D02*
X213687029Y-151102312D01*
X213687029Y-151102312D02*
X213734648Y-151007073D01*
X213734648Y-151007073D02*
X213734648Y-150626121D01*
X213734648Y-150626121D02*
X213687029Y-150530883D01*
X213687029Y-150530883D02*
X213591791Y-150483264D01*
X213591791Y-150483264D02*
X213401315Y-150483264D01*
X213401315Y-150483264D02*
X213306077Y-150530883D01*
X213306077Y-150530883D02*
X213258458Y-150626121D01*
X213258458Y-150626121D02*
X213258458Y-150721359D01*
X213258458Y-150721359D02*
X213734648Y-150816597D01*
X222163220Y-152759875D02*
X222163220Y-151759875D01*
X222163220Y-152236065D02*
X221591792Y-152236065D01*
X221591792Y-152759875D02*
X221591792Y-151759875D01*
X220972744Y-152759875D02*
X221067982Y-152712256D01*
X221067982Y-152712256D02*
X221115601Y-152664636D01*
X221115601Y-152664636D02*
X221163220Y-152569398D01*
X221163220Y-152569398D02*
X221163220Y-152283684D01*
X221163220Y-152283684D02*
X221115601Y-152188446D01*
X221115601Y-152188446D02*
X221067982Y-152140827D01*
X221067982Y-152140827D02*
X220972744Y-152093208D01*
X220972744Y-152093208D02*
X220829887Y-152093208D01*
X220829887Y-152093208D02*
X220734649Y-152140827D01*
X220734649Y-152140827D02*
X220687030Y-152188446D01*
X220687030Y-152188446D02*
X220639411Y-152283684D01*
X220639411Y-152283684D02*
X220639411Y-152569398D01*
X220639411Y-152569398D02*
X220687030Y-152664636D01*
X220687030Y-152664636D02*
X220734649Y-152712256D01*
X220734649Y-152712256D02*
X220829887Y-152759875D01*
X220829887Y-152759875D02*
X220972744Y-152759875D01*
X219782268Y-152093208D02*
X219782268Y-152902732D01*
X219782268Y-152902732D02*
X219829887Y-152997970D01*
X219829887Y-152997970D02*
X219877506Y-153045589D01*
X219877506Y-153045589D02*
X219972744Y-153093208D01*
X219972744Y-153093208D02*
X220115601Y-153093208D01*
X220115601Y-153093208D02*
X220210839Y-153045589D01*
X219782268Y-152712256D02*
X219877506Y-152759875D01*
X219877506Y-152759875D02*
X220067982Y-152759875D01*
X220067982Y-152759875D02*
X220163220Y-152712256D01*
X220163220Y-152712256D02*
X220210839Y-152664636D01*
X220210839Y-152664636D02*
X220258458Y-152569398D01*
X220258458Y-152569398D02*
X220258458Y-152283684D01*
X220258458Y-152283684D02*
X220210839Y-152188446D01*
X220210839Y-152188446D02*
X220163220Y-152140827D01*
X220163220Y-152140827D02*
X220067982Y-152093208D01*
X220067982Y-152093208D02*
X219877506Y-152093208D01*
X219877506Y-152093208D02*
X219782268Y-152140827D01*
X218877506Y-152759875D02*
X218877506Y-152236065D01*
X218877506Y-152236065D02*
X218925125Y-152140827D01*
X218925125Y-152140827D02*
X219020363Y-152093208D01*
X219020363Y-152093208D02*
X219210839Y-152093208D01*
X219210839Y-152093208D02*
X219306077Y-152140827D01*
X218877506Y-152712256D02*
X218972744Y-152759875D01*
X218972744Y-152759875D02*
X219210839Y-152759875D01*
X219210839Y-152759875D02*
X219306077Y-152712256D01*
X219306077Y-152712256D02*
X219353696Y-152617017D01*
X219353696Y-152617017D02*
X219353696Y-152521779D01*
X219353696Y-152521779D02*
X219306077Y-152426541D01*
X219306077Y-152426541D02*
X219210839Y-152378922D01*
X219210839Y-152378922D02*
X218972744Y-152378922D01*
X218972744Y-152378922D02*
X218877506Y-152331303D01*
X218401315Y-152093208D02*
X218401315Y-152759875D01*
X218401315Y-152188446D02*
X218353696Y-152140827D01*
X218353696Y-152140827D02*
X218258458Y-152093208D01*
X218258458Y-152093208D02*
X218115601Y-152093208D01*
X218115601Y-152093208D02*
X218020363Y-152140827D01*
X218020363Y-152140827D02*
X217972744Y-152236065D01*
X217972744Y-152236065D02*
X217972744Y-152759875D01*
X217448934Y-152712256D02*
X217448934Y-152759875D01*
X217448934Y-152759875D02*
X217496553Y-152855113D01*
X217496553Y-152855113D02*
X217544172Y-152902732D01*
X215687030Y-152759875D02*
X216020363Y-152283684D01*
X216258458Y-152759875D02*
X216258458Y-151759875D01*
X216258458Y-151759875D02*
X215877506Y-151759875D01*
X215877506Y-151759875D02*
X215782268Y-151807494D01*
X215782268Y-151807494D02*
X215734649Y-151855113D01*
X215734649Y-151855113D02*
X215687030Y-151950351D01*
X215687030Y-151950351D02*
X215687030Y-152093208D01*
X215687030Y-152093208D02*
X215734649Y-152188446D01*
X215734649Y-152188446D02*
X215782268Y-152236065D01*
X215782268Y-152236065D02*
X215877506Y-152283684D01*
X215877506Y-152283684D02*
X216258458Y-152283684D01*
X215353696Y-152093208D02*
X215115601Y-152759875D01*
X214877506Y-152093208D02*
X215115601Y-152759875D01*
X215115601Y-152759875D02*
X215210839Y-152997970D01*
X215210839Y-152997970D02*
X215258458Y-153045589D01*
X215258458Y-153045589D02*
X215353696Y-153093208D01*
X214115601Y-152712256D02*
X214210839Y-152759875D01*
X214210839Y-152759875D02*
X214401315Y-152759875D01*
X214401315Y-152759875D02*
X214496553Y-152712256D01*
X214496553Y-152712256D02*
X214544172Y-152617017D01*
X214544172Y-152617017D02*
X214544172Y-152236065D01*
X214544172Y-152236065D02*
X214496553Y-152140827D01*
X214496553Y-152140827D02*
X214401315Y-152093208D01*
X214401315Y-152093208D02*
X214210839Y-152093208D01*
X214210839Y-152093208D02*
X214115601Y-152140827D01*
X214115601Y-152140827D02*
X214067982Y-152236065D01*
X214067982Y-152236065D02*
X214067982Y-152331303D01*
X214067982Y-152331303D02*
X214544172Y-152426541D01*
X221591792Y-154369819D02*
X221925125Y-153893628D01*
X222163220Y-154369819D02*
X222163220Y-153369819D01*
X222163220Y-153369819D02*
X221782268Y-153369819D01*
X221782268Y-153369819D02*
X221687030Y-153417438D01*
X221687030Y-153417438D02*
X221639411Y-153465057D01*
X221639411Y-153465057D02*
X221591792Y-153560295D01*
X221591792Y-153560295D02*
X221591792Y-153703152D01*
X221591792Y-153703152D02*
X221639411Y-153798390D01*
X221639411Y-153798390D02*
X221687030Y-153846009D01*
X221687030Y-153846009D02*
X221782268Y-153893628D01*
X221782268Y-153893628D02*
X222163220Y-153893628D01*
X220734649Y-154369819D02*
X220734649Y-153846009D01*
X220734649Y-153846009D02*
X220782268Y-153750771D01*
X220782268Y-153750771D02*
X220877506Y-153703152D01*
X220877506Y-153703152D02*
X221067982Y-153703152D01*
X221067982Y-153703152D02*
X221163220Y-153750771D01*
X220734649Y-154322200D02*
X220829887Y-154369819D01*
X220829887Y-154369819D02*
X221067982Y-154369819D01*
X221067982Y-154369819D02*
X221163220Y-154322200D01*
X221163220Y-154322200D02*
X221210839Y-154226961D01*
X221210839Y-154226961D02*
X221210839Y-154131723D01*
X221210839Y-154131723D02*
X221163220Y-154036485D01*
X221163220Y-154036485D02*
X221067982Y-153988866D01*
X221067982Y-153988866D02*
X220829887Y-153988866D01*
X220829887Y-153988866D02*
X220734649Y-153941247D01*
X220353696Y-153703152D02*
X220115601Y-154369819D01*
X219877506Y-153703152D02*
X220115601Y-154369819D01*
X220115601Y-154369819D02*
X220210839Y-154607914D01*
X220210839Y-154607914D02*
X220258458Y-154655533D01*
X220258458Y-154655533D02*
X220353696Y-154703152D01*
X219496553Y-154369819D02*
X219496553Y-153703152D01*
X219496553Y-153798390D02*
X219448934Y-153750771D01*
X219448934Y-153750771D02*
X219353696Y-153703152D01*
X219353696Y-153703152D02*
X219210839Y-153703152D01*
X219210839Y-153703152D02*
X219115601Y-153750771D01*
X219115601Y-153750771D02*
X219067982Y-153846009D01*
X219067982Y-153846009D02*
X219067982Y-154369819D01*
X219067982Y-153846009D02*
X219020363Y-153750771D01*
X219020363Y-153750771D02*
X218925125Y-153703152D01*
X218925125Y-153703152D02*
X218782268Y-153703152D01*
X218782268Y-153703152D02*
X218687029Y-153750771D01*
X218687029Y-153750771D02*
X218639410Y-153846009D01*
X218639410Y-153846009D02*
X218639410Y-154369819D01*
X218020363Y-154369819D02*
X218115601Y-154322200D01*
X218115601Y-154322200D02*
X218163220Y-154274580D01*
X218163220Y-154274580D02*
X218210839Y-154179342D01*
X218210839Y-154179342D02*
X218210839Y-153893628D01*
X218210839Y-153893628D02*
X218163220Y-153798390D01*
X218163220Y-153798390D02*
X218115601Y-153750771D01*
X218115601Y-153750771D02*
X218020363Y-153703152D01*
X218020363Y-153703152D02*
X217877506Y-153703152D01*
X217877506Y-153703152D02*
X217782268Y-153750771D01*
X217782268Y-153750771D02*
X217734649Y-153798390D01*
X217734649Y-153798390D02*
X217687030Y-153893628D01*
X217687030Y-153893628D02*
X217687030Y-154179342D01*
X217687030Y-154179342D02*
X217734649Y-154274580D01*
X217734649Y-154274580D02*
X217782268Y-154322200D01*
X217782268Y-154322200D02*
X217877506Y-154369819D01*
X217877506Y-154369819D02*
X218020363Y-154369819D01*
X217258458Y-153703152D02*
X217258458Y-154369819D01*
X217258458Y-153798390D02*
X217210839Y-153750771D01*
X217210839Y-153750771D02*
X217115601Y-153703152D01*
X217115601Y-153703152D02*
X216972744Y-153703152D01*
X216972744Y-153703152D02*
X216877506Y-153750771D01*
X216877506Y-153750771D02*
X216829887Y-153846009D01*
X216829887Y-153846009D02*
X216829887Y-154369819D01*
X215925125Y-154369819D02*
X215925125Y-153369819D01*
X215925125Y-154322200D02*
X216020363Y-154369819D01*
X216020363Y-154369819D02*
X216210839Y-154369819D01*
X216210839Y-154369819D02*
X216306077Y-154322200D01*
X216306077Y-154322200D02*
X216353696Y-154274580D01*
X216353696Y-154274580D02*
X216401315Y-154179342D01*
X216401315Y-154179342D02*
X216401315Y-153893628D01*
X216401315Y-153893628D02*
X216353696Y-153798390D01*
X216353696Y-153798390D02*
X216306077Y-153750771D01*
X216306077Y-153750771D02*
X216210839Y-153703152D01*
X216210839Y-153703152D02*
X216020363Y-153703152D01*
X216020363Y-153703152D02*
X215925125Y-153750771D01*
X215401315Y-154322200D02*
X215401315Y-154369819D01*
X215401315Y-154369819D02*
X215448934Y-154465057D01*
X215448934Y-154465057D02*
X215496553Y-154512676D01*
X214210839Y-154369819D02*
X214210839Y-153369819D01*
X214210839Y-153369819D02*
X213972744Y-153369819D01*
X213972744Y-153369819D02*
X213829887Y-153417438D01*
X213829887Y-153417438D02*
X213734649Y-153512676D01*
X213734649Y-153512676D02*
X213687030Y-153607914D01*
X213687030Y-153607914D02*
X213639411Y-153798390D01*
X213639411Y-153798390D02*
X213639411Y-153941247D01*
X213639411Y-153941247D02*
X213687030Y-154131723D01*
X213687030Y-154131723D02*
X213734649Y-154226961D01*
X213734649Y-154226961D02*
X213829887Y-154322200D01*
X213829887Y-154322200D02*
X213972744Y-154369819D01*
X213972744Y-154369819D02*
X214210839Y-154369819D01*
X212782268Y-154369819D02*
X212782268Y-153846009D01*
X212782268Y-153846009D02*
X212829887Y-153750771D01*
X212829887Y-153750771D02*
X212925125Y-153703152D01*
X212925125Y-153703152D02*
X213115601Y-153703152D01*
X213115601Y-153703152D02*
X213210839Y-153750771D01*
X212782268Y-154322200D02*
X212877506Y-154369819D01*
X212877506Y-154369819D02*
X213115601Y-154369819D01*
X213115601Y-154369819D02*
X213210839Y-154322200D01*
X213210839Y-154322200D02*
X213258458Y-154226961D01*
X213258458Y-154226961D02*
X213258458Y-154131723D01*
X213258458Y-154131723D02*
X213210839Y-154036485D01*
X213210839Y-154036485D02*
X213115601Y-153988866D01*
X213115601Y-153988866D02*
X212877506Y-153988866D01*
X212877506Y-153988866D02*
X212782268Y-153941247D01*
X212306077Y-153703152D02*
X212306077Y-154369819D01*
X212306077Y-153798390D02*
X212258458Y-153750771D01*
X212258458Y-153750771D02*
X212163220Y-153703152D01*
X212163220Y-153703152D02*
X212020363Y-153703152D01*
X212020363Y-153703152D02*
X211925125Y-153750771D01*
X211925125Y-153750771D02*
X211877506Y-153846009D01*
X211877506Y-153846009D02*
X211877506Y-154369819D01*
X211401315Y-154369819D02*
X211401315Y-153703152D01*
X211401315Y-153369819D02*
X211448934Y-153417438D01*
X211448934Y-153417438D02*
X211401315Y-153465057D01*
X211401315Y-153465057D02*
X211353696Y-153417438D01*
X211353696Y-153417438D02*
X211401315Y-153369819D01*
X211401315Y-153369819D02*
X211401315Y-153465057D01*
X210544173Y-154322200D02*
X210639411Y-154369819D01*
X210639411Y-154369819D02*
X210829887Y-154369819D01*
X210829887Y-154369819D02*
X210925125Y-154322200D01*
X210925125Y-154322200D02*
X210972744Y-154226961D01*
X210972744Y-154226961D02*
X210972744Y-153846009D01*
X210972744Y-153846009D02*
X210925125Y-153750771D01*
X210925125Y-153750771D02*
X210829887Y-153703152D01*
X210829887Y-153703152D02*
X210639411Y-153703152D01*
X210639411Y-153703152D02*
X210544173Y-153750771D01*
X210544173Y-153750771D02*
X210496554Y-153846009D01*
X210496554Y-153846009D02*
X210496554Y-153941247D01*
X210496554Y-153941247D02*
X210972744Y-154036485D01*
X209925125Y-154369819D02*
X210020363Y-154322200D01*
X210020363Y-154322200D02*
X210067982Y-154226961D01*
X210067982Y-154226961D02*
X210067982Y-153369819D01*
M02*
