%TF.GenerationSoftware,KiCad,Pcbnew,9.0.0-9.0.0-2~ubuntu24.04.1*%
%TF.CreationDate,2025-04-10T08:36:23-04:00*%
%TF.ProjectId,Touch,546f7563-682e-46b6-9963-61645f706362,0*%
%TF.SameCoordinates,Original*%
%TF.FileFunction,Legend,Top*%
%TF.FilePolarity,Positive*%
%FSLAX46Y46*%
G04 Gerber Fmt 4.6, Leading zero omitted, Abs format (unit mm)*
G04 Created by KiCad (PCBNEW 9.0.0-9.0.0-2~ubuntu24.04.1) date 2025-04-10 08:36:23*
%MOMM*%
%LPD*%
G01*
G04 APERTURE LIST*
%ADD10C,0.150000*%
%ADD11C,0.120000*%
%ADD12C,0.000000*%
G04 APERTURE END LIST*
D10*
X199401311Y-151149931D02*
X199067978Y-150673740D01*
X198829883Y-151149931D02*
X198829883Y-150149931D01*
X198829883Y-150149931D02*
X199210835Y-150149931D01*
X199210835Y-150149931D02*
X199306073Y-150197550D01*
X199306073Y-150197550D02*
X199353692Y-150245169D01*
X199353692Y-150245169D02*
X199401311Y-150340407D01*
X199401311Y-150340407D02*
X199401311Y-150483264D01*
X199401311Y-150483264D02*
X199353692Y-150578502D01*
X199353692Y-150578502D02*
X199306073Y-150626121D01*
X199306073Y-150626121D02*
X199210835Y-150673740D01*
X199210835Y-150673740D02*
X198829883Y-150673740D01*
X200210835Y-151102312D02*
X200115597Y-151149931D01*
X200115597Y-151149931D02*
X199925121Y-151149931D01*
X199925121Y-151149931D02*
X199829883Y-151102312D01*
X199829883Y-151102312D02*
X199782264Y-151007073D01*
X199782264Y-151007073D02*
X199782264Y-150626121D01*
X199782264Y-150626121D02*
X199829883Y-150530883D01*
X199829883Y-150530883D02*
X199925121Y-150483264D01*
X199925121Y-150483264D02*
X200115597Y-150483264D01*
X200115597Y-150483264D02*
X200210835Y-150530883D01*
X200210835Y-150530883D02*
X200258454Y-150626121D01*
X200258454Y-150626121D02*
X200258454Y-150721359D01*
X200258454Y-150721359D02*
X199782264Y-150816597D01*
X200687026Y-150483264D02*
X200687026Y-151483264D01*
X200687026Y-150530883D02*
X200782264Y-150483264D01*
X200782264Y-150483264D02*
X200972740Y-150483264D01*
X200972740Y-150483264D02*
X201067978Y-150530883D01*
X201067978Y-150530883D02*
X201115597Y-150578502D01*
X201115597Y-150578502D02*
X201163216Y-150673740D01*
X201163216Y-150673740D02*
X201163216Y-150959454D01*
X201163216Y-150959454D02*
X201115597Y-151054692D01*
X201115597Y-151054692D02*
X201067978Y-151102312D01*
X201067978Y-151102312D02*
X200972740Y-151149931D01*
X200972740Y-151149931D02*
X200782264Y-151149931D01*
X200782264Y-151149931D02*
X200687026Y-151102312D01*
X201734645Y-151149931D02*
X201639407Y-151102312D01*
X201639407Y-151102312D02*
X201591788Y-151007073D01*
X201591788Y-151007073D02*
X201591788Y-150149931D01*
X202544169Y-151149931D02*
X202544169Y-150626121D01*
X202544169Y-150626121D02*
X202496550Y-150530883D01*
X202496550Y-150530883D02*
X202401312Y-150483264D01*
X202401312Y-150483264D02*
X202210836Y-150483264D01*
X202210836Y-150483264D02*
X202115598Y-150530883D01*
X202544169Y-151102312D02*
X202448931Y-151149931D01*
X202448931Y-151149931D02*
X202210836Y-151149931D01*
X202210836Y-151149931D02*
X202115598Y-151102312D01*
X202115598Y-151102312D02*
X202067979Y-151007073D01*
X202067979Y-151007073D02*
X202067979Y-150911835D01*
X202067979Y-150911835D02*
X202115598Y-150816597D01*
X202115598Y-150816597D02*
X202210836Y-150768978D01*
X202210836Y-150768978D02*
X202448931Y-150768978D01*
X202448931Y-150768978D02*
X202544169Y-150721359D01*
X203448931Y-151102312D02*
X203353693Y-151149931D01*
X203353693Y-151149931D02*
X203163217Y-151149931D01*
X203163217Y-151149931D02*
X203067979Y-151102312D01*
X203067979Y-151102312D02*
X203020360Y-151054692D01*
X203020360Y-151054692D02*
X202972741Y-150959454D01*
X202972741Y-150959454D02*
X202972741Y-150673740D01*
X202972741Y-150673740D02*
X203020360Y-150578502D01*
X203020360Y-150578502D02*
X203067979Y-150530883D01*
X203067979Y-150530883D02*
X203163217Y-150483264D01*
X203163217Y-150483264D02*
X203353693Y-150483264D01*
X203353693Y-150483264D02*
X203448931Y-150530883D01*
X204258455Y-151102312D02*
X204163217Y-151149931D01*
X204163217Y-151149931D02*
X203972741Y-151149931D01*
X203972741Y-151149931D02*
X203877503Y-151102312D01*
X203877503Y-151102312D02*
X203829884Y-151007073D01*
X203829884Y-151007073D02*
X203829884Y-150626121D01*
X203829884Y-150626121D02*
X203877503Y-150530883D01*
X203877503Y-150530883D02*
X203972741Y-150483264D01*
X203972741Y-150483264D02*
X204163217Y-150483264D01*
X204163217Y-150483264D02*
X204258455Y-150530883D01*
X204258455Y-150530883D02*
X204306074Y-150626121D01*
X204306074Y-150626121D02*
X204306074Y-150721359D01*
X204306074Y-150721359D02*
X203829884Y-150816597D01*
X205163217Y-151149931D02*
X205163217Y-150626121D01*
X205163217Y-150626121D02*
X205115598Y-150530883D01*
X205115598Y-150530883D02*
X205020360Y-150483264D01*
X205020360Y-150483264D02*
X204829884Y-150483264D01*
X204829884Y-150483264D02*
X204734646Y-150530883D01*
X205163217Y-151102312D02*
X205067979Y-151149931D01*
X205067979Y-151149931D02*
X204829884Y-151149931D01*
X204829884Y-151149931D02*
X204734646Y-151102312D01*
X204734646Y-151102312D02*
X204687027Y-151007073D01*
X204687027Y-151007073D02*
X204687027Y-150911835D01*
X204687027Y-150911835D02*
X204734646Y-150816597D01*
X204734646Y-150816597D02*
X204829884Y-150768978D01*
X204829884Y-150768978D02*
X205067979Y-150768978D01*
X205067979Y-150768978D02*
X205163217Y-150721359D01*
X205639408Y-151149931D02*
X205639408Y-150149931D01*
X205639408Y-150530883D02*
X205734646Y-150483264D01*
X205734646Y-150483264D02*
X205925122Y-150483264D01*
X205925122Y-150483264D02*
X206020360Y-150530883D01*
X206020360Y-150530883D02*
X206067979Y-150578502D01*
X206067979Y-150578502D02*
X206115598Y-150673740D01*
X206115598Y-150673740D02*
X206115598Y-150959454D01*
X206115598Y-150959454D02*
X206067979Y-151054692D01*
X206067979Y-151054692D02*
X206020360Y-151102312D01*
X206020360Y-151102312D02*
X205925122Y-151149931D01*
X205925122Y-151149931D02*
X205734646Y-151149931D01*
X205734646Y-151149931D02*
X205639408Y-151102312D01*
X206687027Y-151149931D02*
X206591789Y-151102312D01*
X206591789Y-151102312D02*
X206544170Y-151007073D01*
X206544170Y-151007073D02*
X206544170Y-150149931D01*
X207448932Y-151102312D02*
X207353694Y-151149931D01*
X207353694Y-151149931D02*
X207163218Y-151149931D01*
X207163218Y-151149931D02*
X207067980Y-151102312D01*
X207067980Y-151102312D02*
X207020361Y-151007073D01*
X207020361Y-151007073D02*
X207020361Y-150626121D01*
X207020361Y-150626121D02*
X207067980Y-150530883D01*
X207067980Y-150530883D02*
X207163218Y-150483264D01*
X207163218Y-150483264D02*
X207353694Y-150483264D01*
X207353694Y-150483264D02*
X207448932Y-150530883D01*
X207448932Y-150530883D02*
X207496551Y-150626121D01*
X207496551Y-150626121D02*
X207496551Y-150721359D01*
X207496551Y-150721359D02*
X207020361Y-150816597D01*
X209163218Y-151149931D02*
X208687028Y-151149931D01*
X208687028Y-151149931D02*
X208687028Y-150149931D01*
X209496552Y-150626121D02*
X209829885Y-150626121D01*
X209972742Y-151149931D02*
X209496552Y-151149931D01*
X209496552Y-151149931D02*
X209496552Y-150149931D01*
X209496552Y-150149931D02*
X209972742Y-150149931D01*
X210401314Y-151149931D02*
X210401314Y-150149931D01*
X210401314Y-150149931D02*
X210639409Y-150149931D01*
X210639409Y-150149931D02*
X210782266Y-150197550D01*
X210782266Y-150197550D02*
X210877504Y-150292788D01*
X210877504Y-150292788D02*
X210925123Y-150388026D01*
X210925123Y-150388026D02*
X210972742Y-150578502D01*
X210972742Y-150578502D02*
X210972742Y-150721359D01*
X210972742Y-150721359D02*
X210925123Y-150911835D01*
X210925123Y-150911835D02*
X210877504Y-151007073D01*
X210877504Y-151007073D02*
X210782266Y-151102312D01*
X210782266Y-151102312D02*
X210639409Y-151149931D01*
X210639409Y-151149931D02*
X210401314Y-151149931D01*
X212734647Y-151054692D02*
X212687028Y-151102312D01*
X212687028Y-151102312D02*
X212544171Y-151149931D01*
X212544171Y-151149931D02*
X212448933Y-151149931D01*
X212448933Y-151149931D02*
X212306076Y-151102312D01*
X212306076Y-151102312D02*
X212210838Y-151007073D01*
X212210838Y-151007073D02*
X212163219Y-150911835D01*
X212163219Y-150911835D02*
X212115600Y-150721359D01*
X212115600Y-150721359D02*
X212115600Y-150578502D01*
X212115600Y-150578502D02*
X212163219Y-150388026D01*
X212163219Y-150388026D02*
X212210838Y-150292788D01*
X212210838Y-150292788D02*
X212306076Y-150197550D01*
X212306076Y-150197550D02*
X212448933Y-150149931D01*
X212448933Y-150149931D02*
X212544171Y-150149931D01*
X212544171Y-150149931D02*
X212687028Y-150197550D01*
X212687028Y-150197550D02*
X212734647Y-150245169D01*
X213306076Y-151149931D02*
X213210838Y-151102312D01*
X213210838Y-151102312D02*
X213163219Y-151054692D01*
X213163219Y-151054692D02*
X213115600Y-150959454D01*
X213115600Y-150959454D02*
X213115600Y-150673740D01*
X213115600Y-150673740D02*
X213163219Y-150578502D01*
X213163219Y-150578502D02*
X213210838Y-150530883D01*
X213210838Y-150530883D02*
X213306076Y-150483264D01*
X213306076Y-150483264D02*
X213448933Y-150483264D01*
X213448933Y-150483264D02*
X213544171Y-150530883D01*
X213544171Y-150530883D02*
X213591790Y-150578502D01*
X213591790Y-150578502D02*
X213639409Y-150673740D01*
X213639409Y-150673740D02*
X213639409Y-150959454D01*
X213639409Y-150959454D02*
X213591790Y-151054692D01*
X213591790Y-151054692D02*
X213544171Y-151102312D01*
X213544171Y-151102312D02*
X213448933Y-151149931D01*
X213448933Y-151149931D02*
X213306076Y-151149931D01*
X214401314Y-150626121D02*
X214544171Y-150673740D01*
X214544171Y-150673740D02*
X214591790Y-150721359D01*
X214591790Y-150721359D02*
X214639409Y-150816597D01*
X214639409Y-150816597D02*
X214639409Y-150959454D01*
X214639409Y-150959454D02*
X214591790Y-151054692D01*
X214591790Y-151054692D02*
X214544171Y-151102312D01*
X214544171Y-151102312D02*
X214448933Y-151149931D01*
X214448933Y-151149931D02*
X214067981Y-151149931D01*
X214067981Y-151149931D02*
X214067981Y-150149931D01*
X214067981Y-150149931D02*
X214401314Y-150149931D01*
X214401314Y-150149931D02*
X214496552Y-150197550D01*
X214496552Y-150197550D02*
X214544171Y-150245169D01*
X214544171Y-150245169D02*
X214591790Y-150340407D01*
X214591790Y-150340407D02*
X214591790Y-150435645D01*
X214591790Y-150435645D02*
X214544171Y-150530883D01*
X214544171Y-150530883D02*
X214496552Y-150578502D01*
X214496552Y-150578502D02*
X214401314Y-150626121D01*
X214401314Y-150626121D02*
X214067981Y-150626121D01*
X215687029Y-150149931D02*
X216258457Y-150149931D01*
X215972743Y-151149931D02*
X215972743Y-150149931D01*
X216734648Y-151149931D02*
X216639410Y-151102312D01*
X216639410Y-151102312D02*
X216591791Y-151054692D01*
X216591791Y-151054692D02*
X216544172Y-150959454D01*
X216544172Y-150959454D02*
X216544172Y-150673740D01*
X216544172Y-150673740D02*
X216591791Y-150578502D01*
X216591791Y-150578502D02*
X216639410Y-150530883D01*
X216639410Y-150530883D02*
X216734648Y-150483264D01*
X216734648Y-150483264D02*
X216877505Y-150483264D01*
X216877505Y-150483264D02*
X216972743Y-150530883D01*
X216972743Y-150530883D02*
X217020362Y-150578502D01*
X217020362Y-150578502D02*
X217067981Y-150673740D01*
X217067981Y-150673740D02*
X217067981Y-150959454D01*
X217067981Y-150959454D02*
X217020362Y-151054692D01*
X217020362Y-151054692D02*
X216972743Y-151102312D01*
X216972743Y-151102312D02*
X216877505Y-151149931D01*
X216877505Y-151149931D02*
X216734648Y-151149931D01*
X217925124Y-150483264D02*
X217925124Y-151149931D01*
X217496553Y-150483264D02*
X217496553Y-151007073D01*
X217496553Y-151007073D02*
X217544172Y-151102312D01*
X217544172Y-151102312D02*
X217639410Y-151149931D01*
X217639410Y-151149931D02*
X217782267Y-151149931D01*
X217782267Y-151149931D02*
X217877505Y-151102312D01*
X217877505Y-151102312D02*
X217925124Y-151054692D01*
X218829886Y-151102312D02*
X218734648Y-151149931D01*
X218734648Y-151149931D02*
X218544172Y-151149931D01*
X218544172Y-151149931D02*
X218448934Y-151102312D01*
X218448934Y-151102312D02*
X218401315Y-151054692D01*
X218401315Y-151054692D02*
X218353696Y-150959454D01*
X218353696Y-150959454D02*
X218353696Y-150673740D01*
X218353696Y-150673740D02*
X218401315Y-150578502D01*
X218401315Y-150578502D02*
X218448934Y-150530883D01*
X218448934Y-150530883D02*
X218544172Y-150483264D01*
X218544172Y-150483264D02*
X218734648Y-150483264D01*
X218734648Y-150483264D02*
X218829886Y-150530883D01*
X219258458Y-151149931D02*
X219258458Y-150149931D01*
X219687029Y-151149931D02*
X219687029Y-150626121D01*
X219687029Y-150626121D02*
X219639410Y-150530883D01*
X219639410Y-150530883D02*
X219544172Y-150483264D01*
X219544172Y-150483264D02*
X219401315Y-150483264D01*
X219401315Y-150483264D02*
X219306077Y-150530883D01*
X219306077Y-150530883D02*
X219258458Y-150578502D01*
X220829887Y-150483264D02*
X221067982Y-151149931D01*
X221067982Y-151149931D02*
X221306077Y-150483264D01*
X221877506Y-150149931D02*
X221972744Y-150149931D01*
X221972744Y-150149931D02*
X222067982Y-150197550D01*
X222067982Y-150197550D02*
X222115601Y-150245169D01*
X222115601Y-150245169D02*
X222163220Y-150340407D01*
X222163220Y-150340407D02*
X222210839Y-150530883D01*
X222210839Y-150530883D02*
X222210839Y-150768978D01*
X222210839Y-150768978D02*
X222163220Y-150959454D01*
X222163220Y-150959454D02*
X222115601Y-151054692D01*
X222115601Y-151054692D02*
X222067982Y-151102312D01*
X222067982Y-151102312D02*
X221972744Y-151149931D01*
X221972744Y-151149931D02*
X221877506Y-151149931D01*
X221877506Y-151149931D02*
X221782268Y-151102312D01*
X221782268Y-151102312D02*
X221734649Y-151054692D01*
X221734649Y-151054692D02*
X221687030Y-150959454D01*
X221687030Y-150959454D02*
X221639411Y-150768978D01*
X221639411Y-150768978D02*
X221639411Y-150530883D01*
X221639411Y-150530883D02*
X221687030Y-150340407D01*
X221687030Y-150340407D02*
X221734649Y-150245169D01*
X221734649Y-150245169D02*
X221782268Y-150197550D01*
X221782268Y-150197550D02*
X221877506Y-150149931D01*
X208877506Y-151759875D02*
X209115601Y-152759875D01*
X209115601Y-152759875D02*
X209306077Y-152045589D01*
X209306077Y-152045589D02*
X209496553Y-152759875D01*
X209496553Y-152759875D02*
X209734649Y-151759875D01*
X210115601Y-152759875D02*
X210115601Y-151759875D01*
X210115601Y-151759875D02*
X210496553Y-151759875D01*
X210496553Y-151759875D02*
X210591791Y-151807494D01*
X210591791Y-151807494D02*
X210639410Y-151855113D01*
X210639410Y-151855113D02*
X210687029Y-151950351D01*
X210687029Y-151950351D02*
X210687029Y-152093208D01*
X210687029Y-152093208D02*
X210639410Y-152188446D01*
X210639410Y-152188446D02*
X210591791Y-152236065D01*
X210591791Y-152236065D02*
X210496553Y-152283684D01*
X210496553Y-152283684D02*
X210115601Y-152283684D01*
X211115601Y-152759875D02*
X211115601Y-151759875D01*
X212353696Y-152236065D02*
X212687029Y-152236065D01*
X212829886Y-152759875D02*
X212353696Y-152759875D01*
X212353696Y-152759875D02*
X212353696Y-151759875D01*
X212353696Y-151759875D02*
X212829886Y-151759875D01*
X213829886Y-152664636D02*
X213782267Y-152712256D01*
X213782267Y-152712256D02*
X213639410Y-152759875D01*
X213639410Y-152759875D02*
X213544172Y-152759875D01*
X213544172Y-152759875D02*
X213401315Y-152712256D01*
X213401315Y-152712256D02*
X213306077Y-152617017D01*
X213306077Y-152617017D02*
X213258458Y-152521779D01*
X213258458Y-152521779D02*
X213210839Y-152331303D01*
X213210839Y-152331303D02*
X213210839Y-152188446D01*
X213210839Y-152188446D02*
X213258458Y-151997970D01*
X213258458Y-151997970D02*
X213306077Y-151902732D01*
X213306077Y-151902732D02*
X213401315Y-151807494D01*
X213401315Y-151807494D02*
X213544172Y-151759875D01*
X213544172Y-151759875D02*
X213639410Y-151759875D01*
X213639410Y-151759875D02*
X213782267Y-151807494D01*
X213782267Y-151807494D02*
X213829886Y-151855113D01*
X214258458Y-152236065D02*
X214591791Y-152236065D01*
X214734648Y-152759875D02*
X214258458Y-152759875D01*
X214258458Y-152759875D02*
X214258458Y-151759875D01*
X214258458Y-151759875D02*
X214734648Y-151759875D01*
X215115601Y-151855113D02*
X215163220Y-151807494D01*
X215163220Y-151807494D02*
X215258458Y-151759875D01*
X215258458Y-151759875D02*
X215496553Y-151759875D01*
X215496553Y-151759875D02*
X215591791Y-151807494D01*
X215591791Y-151807494D02*
X215639410Y-151855113D01*
X215639410Y-151855113D02*
X215687029Y-151950351D01*
X215687029Y-151950351D02*
X215687029Y-152045589D01*
X215687029Y-152045589D02*
X215639410Y-152188446D01*
X215639410Y-152188446D02*
X215067982Y-152759875D01*
X215067982Y-152759875D02*
X215687029Y-152759875D01*
X216020363Y-151759875D02*
X216687029Y-151759875D01*
X216687029Y-151759875D02*
X216258458Y-152759875D01*
X217115601Y-152759875D02*
X217306077Y-152759875D01*
X217306077Y-152759875D02*
X217401315Y-152712256D01*
X217401315Y-152712256D02*
X217448934Y-152664636D01*
X217448934Y-152664636D02*
X217544172Y-152521779D01*
X217544172Y-152521779D02*
X217591791Y-152331303D01*
X217591791Y-152331303D02*
X217591791Y-151950351D01*
X217591791Y-151950351D02*
X217544172Y-151855113D01*
X217544172Y-151855113D02*
X217496553Y-151807494D01*
X217496553Y-151807494D02*
X217401315Y-151759875D01*
X217401315Y-151759875D02*
X217210839Y-151759875D01*
X217210839Y-151759875D02*
X217115601Y-151807494D01*
X217115601Y-151807494D02*
X217067982Y-151855113D01*
X217067982Y-151855113D02*
X217020363Y-151950351D01*
X217020363Y-151950351D02*
X217020363Y-152188446D01*
X217020363Y-152188446D02*
X217067982Y-152283684D01*
X217067982Y-152283684D02*
X217115601Y-152331303D01*
X217115601Y-152331303D02*
X217210839Y-152378922D01*
X217210839Y-152378922D02*
X217401315Y-152378922D01*
X217401315Y-152378922D02*
X217496553Y-152331303D01*
X217496553Y-152331303D02*
X217544172Y-152283684D01*
X217544172Y-152283684D02*
X217591791Y-152188446D01*
X218067982Y-152759875D02*
X218258458Y-152759875D01*
X218258458Y-152759875D02*
X218353696Y-152712256D01*
X218353696Y-152712256D02*
X218401315Y-152664636D01*
X218401315Y-152664636D02*
X218496553Y-152521779D01*
X218496553Y-152521779D02*
X218544172Y-152331303D01*
X218544172Y-152331303D02*
X218544172Y-151950351D01*
X218544172Y-151950351D02*
X218496553Y-151855113D01*
X218496553Y-151855113D02*
X218448934Y-151807494D01*
X218448934Y-151807494D02*
X218353696Y-151759875D01*
X218353696Y-151759875D02*
X218163220Y-151759875D01*
X218163220Y-151759875D02*
X218067982Y-151807494D01*
X218067982Y-151807494D02*
X218020363Y-151855113D01*
X218020363Y-151855113D02*
X217972744Y-151950351D01*
X217972744Y-151950351D02*
X217972744Y-152188446D01*
X217972744Y-152188446D02*
X218020363Y-152283684D01*
X218020363Y-152283684D02*
X218067982Y-152331303D01*
X218067982Y-152331303D02*
X218163220Y-152378922D01*
X218163220Y-152378922D02*
X218353696Y-152378922D01*
X218353696Y-152378922D02*
X218448934Y-152331303D01*
X218448934Y-152331303D02*
X218496553Y-152283684D01*
X218496553Y-152283684D02*
X218544172Y-152188446D01*
X219734649Y-152759875D02*
X219734649Y-151759875D01*
X219734649Y-151759875D02*
X219972744Y-151759875D01*
X219972744Y-151759875D02*
X220115601Y-151807494D01*
X220115601Y-151807494D02*
X220210839Y-151902732D01*
X220210839Y-151902732D02*
X220258458Y-151997970D01*
X220258458Y-151997970D02*
X220306077Y-152188446D01*
X220306077Y-152188446D02*
X220306077Y-152331303D01*
X220306077Y-152331303D02*
X220258458Y-152521779D01*
X220258458Y-152521779D02*
X220210839Y-152617017D01*
X220210839Y-152617017D02*
X220115601Y-152712256D01*
X220115601Y-152712256D02*
X219972744Y-152759875D01*
X219972744Y-152759875D02*
X219734649Y-152759875D01*
X220687030Y-151855113D02*
X220734649Y-151807494D01*
X220734649Y-151807494D02*
X220829887Y-151759875D01*
X220829887Y-151759875D02*
X221067982Y-151759875D01*
X221067982Y-151759875D02*
X221163220Y-151807494D01*
X221163220Y-151807494D02*
X221210839Y-151855113D01*
X221210839Y-151855113D02*
X221258458Y-151950351D01*
X221258458Y-151950351D02*
X221258458Y-152045589D01*
X221258458Y-152045589D02*
X221210839Y-152188446D01*
X221210839Y-152188446D02*
X220639411Y-152759875D01*
X220639411Y-152759875D02*
X221258458Y-152759875D01*
X222163220Y-151759875D02*
X221687030Y-151759875D01*
X221687030Y-151759875D02*
X221639411Y-152236065D01*
X221639411Y-152236065D02*
X221687030Y-152188446D01*
X221687030Y-152188446D02*
X221782268Y-152140827D01*
X221782268Y-152140827D02*
X222020363Y-152140827D01*
X222020363Y-152140827D02*
X222115601Y-152188446D01*
X222115601Y-152188446D02*
X222163220Y-152236065D01*
X222163220Y-152236065D02*
X222210839Y-152331303D01*
X222210839Y-152331303D02*
X222210839Y-152569398D01*
X222210839Y-152569398D02*
X222163220Y-152664636D01*
X222163220Y-152664636D02*
X222115601Y-152712256D01*
X222115601Y-152712256D02*
X222020363Y-152759875D01*
X222020363Y-152759875D02*
X221782268Y-152759875D01*
X221782268Y-152759875D02*
X221687030Y-152712256D01*
X221687030Y-152712256D02*
X221639411Y-152664636D01*
X212496554Y-153465057D02*
X212544173Y-153417438D01*
X212544173Y-153417438D02*
X212639411Y-153369819D01*
X212639411Y-153369819D02*
X212877506Y-153369819D01*
X212877506Y-153369819D02*
X212972744Y-153417438D01*
X212972744Y-153417438D02*
X213020363Y-153465057D01*
X213020363Y-153465057D02*
X213067982Y-153560295D01*
X213067982Y-153560295D02*
X213067982Y-153655533D01*
X213067982Y-153655533D02*
X213020363Y-153798390D01*
X213020363Y-153798390D02*
X212448935Y-154369819D01*
X212448935Y-154369819D02*
X213067982Y-154369819D01*
X213687030Y-153369819D02*
X213782268Y-153369819D01*
X213782268Y-153369819D02*
X213877506Y-153417438D01*
X213877506Y-153417438D02*
X213925125Y-153465057D01*
X213925125Y-153465057D02*
X213972744Y-153560295D01*
X213972744Y-153560295D02*
X214020363Y-153750771D01*
X214020363Y-153750771D02*
X214020363Y-153988866D01*
X214020363Y-153988866D02*
X213972744Y-154179342D01*
X213972744Y-154179342D02*
X213925125Y-154274580D01*
X213925125Y-154274580D02*
X213877506Y-154322200D01*
X213877506Y-154322200D02*
X213782268Y-154369819D01*
X213782268Y-154369819D02*
X213687030Y-154369819D01*
X213687030Y-154369819D02*
X213591792Y-154322200D01*
X213591792Y-154322200D02*
X213544173Y-154274580D01*
X213544173Y-154274580D02*
X213496554Y-154179342D01*
X213496554Y-154179342D02*
X213448935Y-153988866D01*
X213448935Y-153988866D02*
X213448935Y-153750771D01*
X213448935Y-153750771D02*
X213496554Y-153560295D01*
X213496554Y-153560295D02*
X213544173Y-153465057D01*
X213544173Y-153465057D02*
X213591792Y-153417438D01*
X213591792Y-153417438D02*
X213687030Y-153369819D01*
X214401316Y-153465057D02*
X214448935Y-153417438D01*
X214448935Y-153417438D02*
X214544173Y-153369819D01*
X214544173Y-153369819D02*
X214782268Y-153369819D01*
X214782268Y-153369819D02*
X214877506Y-153417438D01*
X214877506Y-153417438D02*
X214925125Y-153465057D01*
X214925125Y-153465057D02*
X214972744Y-153560295D01*
X214972744Y-153560295D02*
X214972744Y-153655533D01*
X214972744Y-153655533D02*
X214925125Y-153798390D01*
X214925125Y-153798390D02*
X214353697Y-154369819D01*
X214353697Y-154369819D02*
X214972744Y-154369819D01*
X215877506Y-153369819D02*
X215401316Y-153369819D01*
X215401316Y-153369819D02*
X215353697Y-153846009D01*
X215353697Y-153846009D02*
X215401316Y-153798390D01*
X215401316Y-153798390D02*
X215496554Y-153750771D01*
X215496554Y-153750771D02*
X215734649Y-153750771D01*
X215734649Y-153750771D02*
X215829887Y-153798390D01*
X215829887Y-153798390D02*
X215877506Y-153846009D01*
X215877506Y-153846009D02*
X215925125Y-153941247D01*
X215925125Y-153941247D02*
X215925125Y-154179342D01*
X215925125Y-154179342D02*
X215877506Y-154274580D01*
X215877506Y-154274580D02*
X215829887Y-154322200D01*
X215829887Y-154322200D02*
X215734649Y-154369819D01*
X215734649Y-154369819D02*
X215496554Y-154369819D01*
X215496554Y-154369819D02*
X215401316Y-154322200D01*
X215401316Y-154322200D02*
X215353697Y-154274580D01*
X216353697Y-153988866D02*
X217115602Y-153988866D01*
X217782268Y-153369819D02*
X217877506Y-153369819D01*
X217877506Y-153369819D02*
X217972744Y-153417438D01*
X217972744Y-153417438D02*
X218020363Y-153465057D01*
X218020363Y-153465057D02*
X218067982Y-153560295D01*
X218067982Y-153560295D02*
X218115601Y-153750771D01*
X218115601Y-153750771D02*
X218115601Y-153988866D01*
X218115601Y-153988866D02*
X218067982Y-154179342D01*
X218067982Y-154179342D02*
X218020363Y-154274580D01*
X218020363Y-154274580D02*
X217972744Y-154322200D01*
X217972744Y-154322200D02*
X217877506Y-154369819D01*
X217877506Y-154369819D02*
X217782268Y-154369819D01*
X217782268Y-154369819D02*
X217687030Y-154322200D01*
X217687030Y-154322200D02*
X217639411Y-154274580D01*
X217639411Y-154274580D02*
X217591792Y-154179342D01*
X217591792Y-154179342D02*
X217544173Y-153988866D01*
X217544173Y-153988866D02*
X217544173Y-153750771D01*
X217544173Y-153750771D02*
X217591792Y-153560295D01*
X217591792Y-153560295D02*
X217639411Y-153465057D01*
X217639411Y-153465057D02*
X217687030Y-153417438D01*
X217687030Y-153417438D02*
X217782268Y-153369819D01*
X218972744Y-153703152D02*
X218972744Y-154369819D01*
X218734649Y-153322200D02*
X218496554Y-154036485D01*
X218496554Y-154036485D02*
X219115601Y-154036485D01*
X219496554Y-153988866D02*
X220258459Y-153988866D01*
X221258458Y-154369819D02*
X220687030Y-154369819D01*
X220972744Y-154369819D02*
X220972744Y-153369819D01*
X220972744Y-153369819D02*
X220877506Y-153512676D01*
X220877506Y-153512676D02*
X220782268Y-153607914D01*
X220782268Y-153607914D02*
X220687030Y-153655533D01*
X221877506Y-153369819D02*
X221972744Y-153369819D01*
X221972744Y-153369819D02*
X222067982Y-153417438D01*
X222067982Y-153417438D02*
X222115601Y-153465057D01*
X222115601Y-153465057D02*
X222163220Y-153560295D01*
X222163220Y-153560295D02*
X222210839Y-153750771D01*
X222210839Y-153750771D02*
X222210839Y-153988866D01*
X222210839Y-153988866D02*
X222163220Y-154179342D01*
X222163220Y-154179342D02*
X222115601Y-154274580D01*
X222115601Y-154274580D02*
X222067982Y-154322200D01*
X222067982Y-154322200D02*
X221972744Y-154369819D01*
X221972744Y-154369819D02*
X221877506Y-154369819D01*
X221877506Y-154369819D02*
X221782268Y-154322200D01*
X221782268Y-154322200D02*
X221734649Y-154274580D01*
X221734649Y-154274580D02*
X221687030Y-154179342D01*
X221687030Y-154179342D02*
X221639411Y-153988866D01*
X221639411Y-153988866D02*
X221639411Y-153750771D01*
X221639411Y-153750771D02*
X221687030Y-153560295D01*
X221687030Y-153560295D02*
X221734649Y-153465057D01*
X221734649Y-153465057D02*
X221782268Y-153417438D01*
X221782268Y-153417438D02*
X221877506Y-153369819D01*
X206857142Y-137219000D02*
X206809523Y-137266620D01*
X206809523Y-137266620D02*
X206666666Y-137314239D01*
X206666666Y-137314239D02*
X206571428Y-137314239D01*
X206571428Y-137314239D02*
X206428571Y-137266620D01*
X206428571Y-137266620D02*
X206333333Y-137171381D01*
X206333333Y-137171381D02*
X206285714Y-137076143D01*
X206285714Y-137076143D02*
X206238095Y-136885667D01*
X206238095Y-136885667D02*
X206238095Y-136742810D01*
X206238095Y-136742810D02*
X206285714Y-136552334D01*
X206285714Y-136552334D02*
X206333333Y-136457096D01*
X206333333Y-136457096D02*
X206428571Y-136361858D01*
X206428571Y-136361858D02*
X206571428Y-136314239D01*
X206571428Y-136314239D02*
X206666666Y-136314239D01*
X206666666Y-136314239D02*
X206809523Y-136361858D01*
X206809523Y-136361858D02*
X206857142Y-136409477D01*
X207809523Y-137314239D02*
X207238095Y-137314239D01*
X207523809Y-137314239D02*
X207523809Y-136314239D01*
X207523809Y-136314239D02*
X207428571Y-136457096D01*
X207428571Y-136457096D02*
X207333333Y-136552334D01*
X207333333Y-136552334D02*
X207238095Y-136599953D01*
X208380952Y-136742810D02*
X208285714Y-136695191D01*
X208285714Y-136695191D02*
X208238095Y-136647572D01*
X208238095Y-136647572D02*
X208190476Y-136552334D01*
X208190476Y-136552334D02*
X208190476Y-136504715D01*
X208190476Y-136504715D02*
X208238095Y-136409477D01*
X208238095Y-136409477D02*
X208285714Y-136361858D01*
X208285714Y-136361858D02*
X208380952Y-136314239D01*
X208380952Y-136314239D02*
X208571428Y-136314239D01*
X208571428Y-136314239D02*
X208666666Y-136361858D01*
X208666666Y-136361858D02*
X208714285Y-136409477D01*
X208714285Y-136409477D02*
X208761904Y-136504715D01*
X208761904Y-136504715D02*
X208761904Y-136552334D01*
X208761904Y-136552334D02*
X208714285Y-136647572D01*
X208714285Y-136647572D02*
X208666666Y-136695191D01*
X208666666Y-136695191D02*
X208571428Y-136742810D01*
X208571428Y-136742810D02*
X208380952Y-136742810D01*
X208380952Y-136742810D02*
X208285714Y-136790429D01*
X208285714Y-136790429D02*
X208238095Y-136838048D01*
X208238095Y-136838048D02*
X208190476Y-136933286D01*
X208190476Y-136933286D02*
X208190476Y-137123762D01*
X208190476Y-137123762D02*
X208238095Y-137219000D01*
X208238095Y-137219000D02*
X208285714Y-137266620D01*
X208285714Y-137266620D02*
X208380952Y-137314239D01*
X208380952Y-137314239D02*
X208571428Y-137314239D01*
X208571428Y-137314239D02*
X208666666Y-137266620D01*
X208666666Y-137266620D02*
X208714285Y-137219000D01*
X208714285Y-137219000D02*
X208761904Y-137123762D01*
X208761904Y-137123762D02*
X208761904Y-136933286D01*
X208761904Y-136933286D02*
X208714285Y-136838048D01*
X208714285Y-136838048D02*
X208666666Y-136790429D01*
X208666666Y-136790429D02*
X208571428Y-136742810D01*
X215357142Y-139954819D02*
X215023809Y-139478628D01*
X214785714Y-139954819D02*
X214785714Y-138954819D01*
X214785714Y-138954819D02*
X215166666Y-138954819D01*
X215166666Y-138954819D02*
X215261904Y-139002438D01*
X215261904Y-139002438D02*
X215309523Y-139050057D01*
X215309523Y-139050057D02*
X215357142Y-139145295D01*
X215357142Y-139145295D02*
X215357142Y-139288152D01*
X215357142Y-139288152D02*
X215309523Y-139383390D01*
X215309523Y-139383390D02*
X215261904Y-139431009D01*
X215261904Y-139431009D02*
X215166666Y-139478628D01*
X215166666Y-139478628D02*
X214785714Y-139478628D01*
X216309523Y-139954819D02*
X215738095Y-139954819D01*
X216023809Y-139954819D02*
X216023809Y-138954819D01*
X216023809Y-138954819D02*
X215928571Y-139097676D01*
X215928571Y-139097676D02*
X215833333Y-139192914D01*
X215833333Y-139192914D02*
X215738095Y-139240533D01*
X216642857Y-138954819D02*
X217309523Y-138954819D01*
X217309523Y-138954819D02*
X216880952Y-139954819D01*
X218869730Y-142384819D02*
X218869730Y-143099104D01*
X218869730Y-143099104D02*
X218822111Y-143241961D01*
X218822111Y-143241961D02*
X218726873Y-143337200D01*
X218726873Y-143337200D02*
X218584016Y-143384819D01*
X218584016Y-143384819D02*
X218488778Y-143384819D01*
X219298302Y-142480057D02*
X219345921Y-142432438D01*
X219345921Y-142432438D02*
X219441159Y-142384819D01*
X219441159Y-142384819D02*
X219679254Y-142384819D01*
X219679254Y-142384819D02*
X219774492Y-142432438D01*
X219774492Y-142432438D02*
X219822111Y-142480057D01*
X219822111Y-142480057D02*
X219869730Y-142575295D01*
X219869730Y-142575295D02*
X219869730Y-142670533D01*
X219869730Y-142670533D02*
X219822111Y-142813390D01*
X219822111Y-142813390D02*
X219250683Y-143384819D01*
X219250683Y-143384819D02*
X219869730Y-143384819D01*
X209238095Y-146954819D02*
X209238095Y-147764342D01*
X209238095Y-147764342D02*
X209285714Y-147859580D01*
X209285714Y-147859580D02*
X209333333Y-147907200D01*
X209333333Y-147907200D02*
X209428571Y-147954819D01*
X209428571Y-147954819D02*
X209619047Y-147954819D01*
X209619047Y-147954819D02*
X209714285Y-147907200D01*
X209714285Y-147907200D02*
X209761904Y-147859580D01*
X209761904Y-147859580D02*
X209809523Y-147764342D01*
X209809523Y-147764342D02*
X209809523Y-146954819D01*
X210428571Y-147383390D02*
X210333333Y-147335771D01*
X210333333Y-147335771D02*
X210285714Y-147288152D01*
X210285714Y-147288152D02*
X210238095Y-147192914D01*
X210238095Y-147192914D02*
X210238095Y-147145295D01*
X210238095Y-147145295D02*
X210285714Y-147050057D01*
X210285714Y-147050057D02*
X210333333Y-147002438D01*
X210333333Y-147002438D02*
X210428571Y-146954819D01*
X210428571Y-146954819D02*
X210619047Y-146954819D01*
X210619047Y-146954819D02*
X210714285Y-147002438D01*
X210714285Y-147002438D02*
X210761904Y-147050057D01*
X210761904Y-147050057D02*
X210809523Y-147145295D01*
X210809523Y-147145295D02*
X210809523Y-147192914D01*
X210809523Y-147192914D02*
X210761904Y-147288152D01*
X210761904Y-147288152D02*
X210714285Y-147335771D01*
X210714285Y-147335771D02*
X210619047Y-147383390D01*
X210619047Y-147383390D02*
X210428571Y-147383390D01*
X210428571Y-147383390D02*
X210333333Y-147431009D01*
X210333333Y-147431009D02*
X210285714Y-147478628D01*
X210285714Y-147478628D02*
X210238095Y-147573866D01*
X210238095Y-147573866D02*
X210238095Y-147764342D01*
X210238095Y-147764342D02*
X210285714Y-147859580D01*
X210285714Y-147859580D02*
X210333333Y-147907200D01*
X210333333Y-147907200D02*
X210428571Y-147954819D01*
X210428571Y-147954819D02*
X210619047Y-147954819D01*
X210619047Y-147954819D02*
X210714285Y-147907200D01*
X210714285Y-147907200D02*
X210761904Y-147859580D01*
X210761904Y-147859580D02*
X210809523Y-147764342D01*
X210809523Y-147764342D02*
X210809523Y-147573866D01*
X210809523Y-147573866D02*
X210761904Y-147478628D01*
X210761904Y-147478628D02*
X210714285Y-147431009D01*
X210714285Y-147431009D02*
X210619047Y-147383390D01*
X215357142Y-146954819D02*
X215023809Y-146478628D01*
X214785714Y-146954819D02*
X214785714Y-145954819D01*
X214785714Y-145954819D02*
X215166666Y-145954819D01*
X215166666Y-145954819D02*
X215261904Y-146002438D01*
X215261904Y-146002438D02*
X215309523Y-146050057D01*
X215309523Y-146050057D02*
X215357142Y-146145295D01*
X215357142Y-146145295D02*
X215357142Y-146288152D01*
X215357142Y-146288152D02*
X215309523Y-146383390D01*
X215309523Y-146383390D02*
X215261904Y-146431009D01*
X215261904Y-146431009D02*
X215166666Y-146478628D01*
X215166666Y-146478628D02*
X214785714Y-146478628D01*
X215738095Y-146050057D02*
X215785714Y-146002438D01*
X215785714Y-146002438D02*
X215880952Y-145954819D01*
X215880952Y-145954819D02*
X216119047Y-145954819D01*
X216119047Y-145954819D02*
X216214285Y-146002438D01*
X216214285Y-146002438D02*
X216261904Y-146050057D01*
X216261904Y-146050057D02*
X216309523Y-146145295D01*
X216309523Y-146145295D02*
X216309523Y-146240533D01*
X216309523Y-146240533D02*
X216261904Y-146383390D01*
X216261904Y-146383390D02*
X215690476Y-146954819D01*
X215690476Y-146954819D02*
X216309523Y-146954819D01*
X217261904Y-146954819D02*
X216690476Y-146954819D01*
X216976190Y-146954819D02*
X216976190Y-145954819D01*
X216976190Y-145954819D02*
X216880952Y-146097676D01*
X216880952Y-146097676D02*
X216785714Y-146192914D01*
X216785714Y-146192914D02*
X216690476Y-146240533D01*
X208357142Y-149359580D02*
X208309523Y-149407200D01*
X208309523Y-149407200D02*
X208166666Y-149454819D01*
X208166666Y-149454819D02*
X208071428Y-149454819D01*
X208071428Y-149454819D02*
X207928571Y-149407200D01*
X207928571Y-149407200D02*
X207833333Y-149311961D01*
X207833333Y-149311961D02*
X207785714Y-149216723D01*
X207785714Y-149216723D02*
X207738095Y-149026247D01*
X207738095Y-149026247D02*
X207738095Y-148883390D01*
X207738095Y-148883390D02*
X207785714Y-148692914D01*
X207785714Y-148692914D02*
X207833333Y-148597676D01*
X207833333Y-148597676D02*
X207928571Y-148502438D01*
X207928571Y-148502438D02*
X208071428Y-148454819D01*
X208071428Y-148454819D02*
X208166666Y-148454819D01*
X208166666Y-148454819D02*
X208309523Y-148502438D01*
X208309523Y-148502438D02*
X208357142Y-148550057D01*
X209309523Y-149454819D02*
X208738095Y-149454819D01*
X209023809Y-149454819D02*
X209023809Y-148454819D01*
X209023809Y-148454819D02*
X208928571Y-148597676D01*
X208928571Y-148597676D02*
X208833333Y-148692914D01*
X208833333Y-148692914D02*
X208738095Y-148740533D01*
X209785714Y-149454819D02*
X209976190Y-149454819D01*
X209976190Y-149454819D02*
X210071428Y-149407200D01*
X210071428Y-149407200D02*
X210119047Y-149359580D01*
X210119047Y-149359580D02*
X210214285Y-149216723D01*
X210214285Y-149216723D02*
X210261904Y-149026247D01*
X210261904Y-149026247D02*
X210261904Y-148645295D01*
X210261904Y-148645295D02*
X210214285Y-148550057D01*
X210214285Y-148550057D02*
X210166666Y-148502438D01*
X210166666Y-148502438D02*
X210071428Y-148454819D01*
X210071428Y-148454819D02*
X209880952Y-148454819D01*
X209880952Y-148454819D02*
X209785714Y-148502438D01*
X209785714Y-148502438D02*
X209738095Y-148550057D01*
X209738095Y-148550057D02*
X209690476Y-148645295D01*
X209690476Y-148645295D02*
X209690476Y-148883390D01*
X209690476Y-148883390D02*
X209738095Y-148978628D01*
X209738095Y-148978628D02*
X209785714Y-149026247D01*
X209785714Y-149026247D02*
X209880952Y-149073866D01*
X209880952Y-149073866D02*
X210071428Y-149073866D01*
X210071428Y-149073866D02*
X210166666Y-149026247D01*
X210166666Y-149026247D02*
X210214285Y-148978628D01*
X210214285Y-148978628D02*
X210261904Y-148883390D01*
X214166666Y-136454819D02*
X214166666Y-137169104D01*
X214166666Y-137169104D02*
X214119047Y-137311961D01*
X214119047Y-137311961D02*
X214023809Y-137407200D01*
X214023809Y-137407200D02*
X213880952Y-137454819D01*
X213880952Y-137454819D02*
X213785714Y-137454819D01*
X214642857Y-137454819D02*
X214642857Y-136454819D01*
X214642857Y-136454819D02*
X215023809Y-136454819D01*
X215023809Y-136454819D02*
X215119047Y-136502438D01*
X215119047Y-136502438D02*
X215166666Y-136550057D01*
X215166666Y-136550057D02*
X215214285Y-136645295D01*
X215214285Y-136645295D02*
X215214285Y-136788152D01*
X215214285Y-136788152D02*
X215166666Y-136883390D01*
X215166666Y-136883390D02*
X215119047Y-136931009D01*
X215119047Y-136931009D02*
X215023809Y-136978628D01*
X215023809Y-136978628D02*
X214642857Y-136978628D01*
X215547619Y-136454819D02*
X216166666Y-136454819D01*
X216166666Y-136454819D02*
X215833333Y-136835771D01*
X215833333Y-136835771D02*
X215976190Y-136835771D01*
X215976190Y-136835771D02*
X216071428Y-136883390D01*
X216071428Y-136883390D02*
X216119047Y-136931009D01*
X216119047Y-136931009D02*
X216166666Y-137026247D01*
X216166666Y-137026247D02*
X216166666Y-137264342D01*
X216166666Y-137264342D02*
X216119047Y-137359580D01*
X216119047Y-137359580D02*
X216071428Y-137407200D01*
X216071428Y-137407200D02*
X215976190Y-137454819D01*
X215976190Y-137454819D02*
X215690476Y-137454819D01*
X215690476Y-137454819D02*
X215595238Y-137407200D01*
X215595238Y-137407200D02*
X215547619Y-137359580D01*
X220666666Y-136454819D02*
X220666666Y-137169104D01*
X220666666Y-137169104D02*
X220619047Y-137311961D01*
X220619047Y-137311961D02*
X220523809Y-137407200D01*
X220523809Y-137407200D02*
X220380952Y-137454819D01*
X220380952Y-137454819D02*
X220285714Y-137454819D01*
X221142857Y-137454819D02*
X221142857Y-136454819D01*
X221142857Y-136454819D02*
X221523809Y-136454819D01*
X221523809Y-136454819D02*
X221619047Y-136502438D01*
X221619047Y-136502438D02*
X221666666Y-136550057D01*
X221666666Y-136550057D02*
X221714285Y-136645295D01*
X221714285Y-136645295D02*
X221714285Y-136788152D01*
X221714285Y-136788152D02*
X221666666Y-136883390D01*
X221666666Y-136883390D02*
X221619047Y-136931009D01*
X221619047Y-136931009D02*
X221523809Y-136978628D01*
X221523809Y-136978628D02*
X221142857Y-136978628D01*
X222571428Y-136788152D02*
X222571428Y-137454819D01*
X222333333Y-136407200D02*
X222095238Y-137121485D01*
X222095238Y-137121485D02*
X222714285Y-137121485D01*
D11*
%TO.C,R24*%
X221477500Y-133237258D02*
X221477500Y-132762742D01*
X222522500Y-133237258D02*
X222522500Y-132762742D01*
%TO.C,C18*%
X209490000Y-136859420D02*
X209490000Y-137140580D01*
X210510000Y-136859420D02*
X210510000Y-137140580D01*
%TO.C,R17*%
X217762742Y-137477500D02*
X218237258Y-137477500D01*
X217762742Y-138522500D02*
X218237258Y-138522500D01*
%TO.C,J2*%
X217845000Y-139820000D02*
X217845000Y-140870000D01*
X217845000Y-144990000D02*
X216855000Y-144990000D01*
X217845000Y-146040000D02*
X217845000Y-144990000D01*
X220345000Y-139820000D02*
X217845000Y-139820000D01*
X220345000Y-146040000D02*
X217845000Y-146040000D01*
X222315000Y-144870000D02*
X222315000Y-140990000D01*
D12*
G36*
X216093689Y-144029786D02*
G01*
X216103047Y-144030311D01*
X216112203Y-144031178D01*
X216121149Y-144032382D01*
X216129878Y-144033916D01*
X216138383Y-144035775D01*
X216146658Y-144037954D01*
X216154694Y-144040445D01*
X216162486Y-144043244D01*
X216170025Y-144046344D01*
X216177305Y-144049739D01*
X216184319Y-144053424D01*
X216191060Y-144057392D01*
X216197521Y-144061638D01*
X216203693Y-144066157D01*
X216209572Y-144070941D01*
X216215149Y-144075985D01*
X216220417Y-144081283D01*
X216225370Y-144086830D01*
X216230000Y-144092619D01*
X216234300Y-144098645D01*
X216238263Y-144104901D01*
X216241883Y-144111382D01*
X216245151Y-144118082D01*
X216248061Y-144124996D01*
X216250606Y-144132116D01*
X216252779Y-144139437D01*
X216254573Y-144146954D01*
X216255981Y-144154660D01*
X216256995Y-144162550D01*
X216257608Y-144170617D01*
X216257814Y-144178856D01*
X216257608Y-144187212D01*
X216256995Y-144195389D01*
X216255981Y-144203381D01*
X216254573Y-144211183D01*
X216252779Y-144218788D01*
X216250606Y-144226192D01*
X216248061Y-144233389D01*
X216245151Y-144240372D01*
X216241883Y-144247137D01*
X216238263Y-144253678D01*
X216234300Y-144259989D01*
X216230000Y-144266064D01*
X216225370Y-144271898D01*
X216220417Y-144277485D01*
X216215149Y-144282819D01*
X216209572Y-144287895D01*
X216203693Y-144292708D01*
X216197521Y-144297251D01*
X216191060Y-144301518D01*
X216184319Y-144305505D01*
X216177305Y-144309206D01*
X216170025Y-144312614D01*
X216162486Y-144315724D01*
X216154694Y-144318531D01*
X216146658Y-144321029D01*
X216138383Y-144323213D01*
X216129878Y-144325076D01*
X216121149Y-144326612D01*
X216112203Y-144327818D01*
X216103047Y-144328685D01*
X216093689Y-144329210D01*
X216084135Y-144329387D01*
X216074581Y-144329210D01*
X216065222Y-144328685D01*
X216056067Y-144327818D01*
X216047121Y-144326612D01*
X216038391Y-144325076D01*
X216029886Y-144323213D01*
X216021611Y-144321029D01*
X216013574Y-144318531D01*
X216005782Y-144315724D01*
X215998243Y-144312614D01*
X215990962Y-144309206D01*
X215983948Y-144305505D01*
X215977207Y-144301518D01*
X215970746Y-144297251D01*
X215964573Y-144292708D01*
X215958694Y-144287895D01*
X215953117Y-144282819D01*
X215947848Y-144277485D01*
X215942895Y-144271898D01*
X215938265Y-144266064D01*
X215933964Y-144259989D01*
X215930001Y-144253678D01*
X215926381Y-144247137D01*
X215923113Y-144240372D01*
X215920202Y-144233389D01*
X215917657Y-144226192D01*
X215915484Y-144218788D01*
X215913690Y-144211183D01*
X215912282Y-144203381D01*
X215911268Y-144195389D01*
X215910654Y-144187212D01*
X215910448Y-144178856D01*
X215910651Y-144170617D01*
X215911254Y-144162550D01*
X215912251Y-144154660D01*
X215913637Y-144146954D01*
X215915404Y-144139437D01*
X215917547Y-144132116D01*
X215920058Y-144124996D01*
X215922932Y-144118082D01*
X215926162Y-144111382D01*
X215929742Y-144104901D01*
X215933666Y-144098645D01*
X215937926Y-144092619D01*
X215942518Y-144086830D01*
X215947433Y-144081283D01*
X215952667Y-144075985D01*
X215958213Y-144070941D01*
X215964063Y-144066157D01*
X215970213Y-144061638D01*
X215976655Y-144057392D01*
X215983384Y-144053424D01*
X215990392Y-144049739D01*
X215997674Y-144046344D01*
X216005223Y-144043244D01*
X216013032Y-144040445D01*
X216021097Y-144037954D01*
X216029409Y-144035775D01*
X216037963Y-144033916D01*
X216046752Y-144032382D01*
X216055770Y-144031178D01*
X216065011Y-144030311D01*
X216074468Y-144029786D01*
X216084135Y-144029610D01*
X216093689Y-144029786D01*
G37*
G36*
X216105895Y-141096537D02*
G01*
X216136553Y-141098869D01*
X216166765Y-141102708D01*
X216196494Y-141108017D01*
X216225701Y-141114758D01*
X216254348Y-141122893D01*
X216282398Y-141132384D01*
X216309813Y-141143193D01*
X216336554Y-141155283D01*
X216362584Y-141168615D01*
X216387864Y-141183151D01*
X216412358Y-141198854D01*
X216436026Y-141215685D01*
X216458832Y-141233607D01*
X216480736Y-141252581D01*
X216501702Y-141272570D01*
X216521691Y-141293536D01*
X216540665Y-141315441D01*
X216558586Y-141338247D01*
X216575417Y-141361915D01*
X216591119Y-141386409D01*
X216605655Y-141411690D01*
X216618987Y-141437720D01*
X216631076Y-141464462D01*
X216641885Y-141491876D01*
X216651376Y-141519926D01*
X216659511Y-141548574D01*
X216666252Y-141577781D01*
X216671561Y-141607510D01*
X216675400Y-141637722D01*
X216677731Y-141668380D01*
X216678517Y-141699446D01*
X216678517Y-143800612D01*
X215732910Y-143800612D01*
X215732910Y-144029607D01*
X215824251Y-144029607D01*
X215812750Y-144039045D01*
X215801895Y-144049017D01*
X215791699Y-144059518D01*
X215782176Y-144070538D01*
X215773340Y-144082072D01*
X215765202Y-144094110D01*
X215757777Y-144106645D01*
X215751077Y-144119671D01*
X215745116Y-144133179D01*
X215739907Y-144147162D01*
X215735464Y-144161613D01*
X215731798Y-144176524D01*
X215728924Y-144191887D01*
X215726855Y-144207696D01*
X215725604Y-144223941D01*
X215725184Y-144240617D01*
X215725593Y-144258399D01*
X215726811Y-144275792D01*
X215728826Y-144292784D01*
X215731624Y-144309366D01*
X215735195Y-144325524D01*
X215739525Y-144341247D01*
X215744602Y-144356524D01*
X215750413Y-144371344D01*
X215756946Y-144385694D01*
X215764188Y-144399563D01*
X215772127Y-144412940D01*
X215780750Y-144425813D01*
X215790045Y-144438170D01*
X215800000Y-144450000D01*
X215810601Y-144461292D01*
X215821837Y-144472034D01*
X215833695Y-144482214D01*
X215846162Y-144491822D01*
X215859226Y-144500844D01*
X215872875Y-144509270D01*
X215887096Y-144517088D01*
X215901876Y-144524287D01*
X215917203Y-144530856D01*
X215933064Y-144536781D01*
X215949448Y-144542053D01*
X215966341Y-144546660D01*
X215983731Y-144550589D01*
X216001606Y-144553830D01*
X216019953Y-144556370D01*
X216038759Y-144558199D01*
X216058013Y-144559305D01*
X216077701Y-144559677D01*
X216097751Y-144559302D01*
X216117366Y-144558184D01*
X216136533Y-144556335D01*
X216155237Y-144553766D01*
X216173467Y-144550489D01*
X216191209Y-144546514D01*
X216208449Y-144541854D01*
X216225175Y-144536518D01*
X216241373Y-144530520D01*
X216257030Y-144523869D01*
X216272132Y-144516577D01*
X216286668Y-144508656D01*
X216300623Y-144500117D01*
X216313985Y-144490971D01*
X216326739Y-144481229D01*
X216338874Y-144470904D01*
X216350375Y-144460005D01*
X216361230Y-144448545D01*
X216371425Y-144436534D01*
X216380947Y-144423985D01*
X216389784Y-144410908D01*
X216397921Y-144397314D01*
X216405346Y-144383215D01*
X216412045Y-144368623D01*
X216418006Y-144353548D01*
X216423214Y-144338002D01*
X216427658Y-144321997D01*
X216431323Y-144305543D01*
X216434196Y-144288651D01*
X216436265Y-144271334D01*
X216437516Y-144253602D01*
X216437936Y-144235467D01*
X216437530Y-144219262D01*
X216436318Y-144203457D01*
X216434306Y-144188064D01*
X216431503Y-144173090D01*
X216427915Y-144158546D01*
X216423552Y-144144441D01*
X216418419Y-144130784D01*
X216412525Y-144117585D01*
X216405877Y-144104854D01*
X216398483Y-144092599D01*
X216390350Y-144080830D01*
X216381486Y-144069556D01*
X216371898Y-144058788D01*
X216361594Y-144048534D01*
X216350582Y-144038804D01*
X216338869Y-144029607D01*
X216678517Y-144029607D01*
X216678517Y-144216304D01*
X216677731Y-144247370D01*
X216675400Y-144278028D01*
X216671561Y-144308241D01*
X216666252Y-144337969D01*
X216659511Y-144367176D01*
X216651376Y-144395824D01*
X216641885Y-144423874D01*
X216631076Y-144451289D01*
X216618987Y-144478030D01*
X216605655Y-144504060D01*
X216591119Y-144529341D01*
X216575417Y-144553835D01*
X216558586Y-144577504D01*
X216540665Y-144600309D01*
X216521691Y-144622214D01*
X216501702Y-144643180D01*
X216480736Y-144663169D01*
X216458832Y-144682144D01*
X216436026Y-144700065D01*
X216412358Y-144716897D01*
X216387864Y-144732599D01*
X216362584Y-144747135D01*
X216336554Y-144760467D01*
X216309813Y-144772557D01*
X216282398Y-144783366D01*
X216254348Y-144792857D01*
X216225701Y-144800992D01*
X216196494Y-144807733D01*
X216166765Y-144813042D01*
X216136553Y-144816881D01*
X216105895Y-144819213D01*
X216074829Y-144819998D01*
X216074822Y-144819998D01*
X216043756Y-144819213D01*
X216013098Y-144816881D01*
X215982886Y-144813042D01*
X215953157Y-144807733D01*
X215923950Y-144800992D01*
X215895302Y-144792857D01*
X215867252Y-144783366D01*
X215839837Y-144772557D01*
X215813096Y-144760467D01*
X215787066Y-144747135D01*
X215761785Y-144732599D01*
X215737291Y-144716896D01*
X215713623Y-144700065D01*
X215690817Y-144682143D01*
X215668912Y-144663169D01*
X215647946Y-144643180D01*
X215627957Y-144622214D01*
X215608982Y-144600309D01*
X215591061Y-144577503D01*
X215574229Y-144553835D01*
X215558527Y-144529341D01*
X215543991Y-144504060D01*
X215530659Y-144478030D01*
X215518569Y-144451288D01*
X215507760Y-144423874D01*
X215498269Y-144395824D01*
X215490134Y-144367176D01*
X215483393Y-144337969D01*
X215478084Y-144308240D01*
X215474245Y-144278028D01*
X215471913Y-144247370D01*
X215471128Y-144216304D01*
X215471128Y-142761096D01*
X215732910Y-142761096D01*
X216203783Y-142900041D01*
X215732910Y-143037702D01*
X215732910Y-143256417D01*
X216203783Y-143392794D01*
X215732910Y-143531732D01*
X215732910Y-143764600D01*
X216428926Y-143511144D01*
X216428926Y-143284717D01*
X215999222Y-143150915D01*
X216428926Y-143018405D01*
X216428926Y-142791964D01*
X215732910Y-142537237D01*
X215732910Y-142761096D01*
X215471128Y-142761096D01*
X215471128Y-142283809D01*
X215732910Y-142283809D01*
X215732910Y-142511520D01*
X216428926Y-142511520D01*
X216428926Y-142283809D01*
X215732910Y-142283809D01*
X215471128Y-142283809D01*
X215471128Y-142009792D01*
X215732910Y-142009792D01*
X215732910Y-142237510D01*
X216428926Y-142237510D01*
X216428926Y-142009792D01*
X216084136Y-142009792D01*
X215732910Y-142009792D01*
X215471128Y-142009792D01*
X215471128Y-141699446D01*
X215471913Y-141668380D01*
X215474244Y-141637722D01*
X215477969Y-141608416D01*
X215725184Y-141608416D01*
X215725600Y-141628464D01*
X215726841Y-141648076D01*
X215728892Y-141667241D01*
X215731742Y-141685944D01*
X215735378Y-141704172D01*
X215739788Y-141721912D01*
X215744957Y-141739151D01*
X215750875Y-141755875D01*
X215757527Y-141772072D01*
X215764902Y-141787729D01*
X215772986Y-141802831D01*
X215781767Y-141817366D01*
X215791232Y-141831321D01*
X215801368Y-141844682D01*
X215812164Y-141857436D01*
X215823605Y-141869571D01*
X215835679Y-141881072D01*
X215848374Y-141891927D01*
X215861677Y-141902122D01*
X215875575Y-141911645D01*
X215890055Y-141920482D01*
X215905105Y-141928619D01*
X215920711Y-141936044D01*
X215936862Y-141942744D01*
X215953545Y-141948705D01*
X215970746Y-141953914D01*
X215988453Y-141958358D01*
X216006654Y-141962023D01*
X216025335Y-141964897D01*
X216044484Y-141966966D01*
X216064089Y-141968217D01*
X216084136Y-141968637D01*
X216103823Y-141968221D01*
X216123076Y-141966981D01*
X216141882Y-141964930D01*
X216160228Y-141962081D01*
X216178103Y-141958448D01*
X216195493Y-141954042D01*
X216212386Y-141948877D01*
X216228769Y-141942967D01*
X216244631Y-141936323D01*
X216259958Y-141928959D01*
X216274738Y-141920888D01*
X216288958Y-141912122D01*
X216302607Y-141902675D01*
X216315671Y-141892560D01*
X216328138Y-141881790D01*
X216339996Y-141870377D01*
X216351232Y-141858335D01*
X216361834Y-141845676D01*
X216371789Y-141832413D01*
X216381084Y-141818560D01*
X216389708Y-141804129D01*
X216397647Y-141789134D01*
X216404889Y-141773587D01*
X216411422Y-141757501D01*
X216417234Y-141740889D01*
X216422310Y-141723764D01*
X216426641Y-141706139D01*
X216430211Y-141688027D01*
X216433010Y-141669442D01*
X216435025Y-141650395D01*
X216436243Y-141630900D01*
X216436652Y-141610970D01*
X216436613Y-141604939D01*
X216436497Y-141598952D01*
X216436307Y-141593008D01*
X216436048Y-141587105D01*
X216435722Y-141581243D01*
X216435334Y-141575419D01*
X216434380Y-141563881D01*
X216247958Y-141563881D01*
X216248715Y-141568143D01*
X216249390Y-141572451D01*
X216249977Y-141576805D01*
X216250469Y-141581210D01*
X216250862Y-141585668D01*
X216251150Y-141590183D01*
X216251327Y-141594756D01*
X216251387Y-141599392D01*
X216251192Y-141607035D01*
X216250611Y-141614521D01*
X216249650Y-141621846D01*
X216248314Y-141629003D01*
X216246610Y-141635986D01*
X216244544Y-141642791D01*
X216242120Y-141649411D01*
X216239346Y-141655840D01*
X216236227Y-141662074D01*
X216232769Y-141668106D01*
X216228978Y-141673931D01*
X216224860Y-141679543D01*
X216220420Y-141684936D01*
X216215665Y-141690105D01*
X216210601Y-141695044D01*
X216205233Y-141699748D01*
X216199567Y-141704210D01*
X216193609Y-141708426D01*
X216187365Y-141712389D01*
X216180841Y-141716093D01*
X216174043Y-141719534D01*
X216166977Y-141722705D01*
X216159648Y-141725602D01*
X216152063Y-141728217D01*
X216144227Y-141730546D01*
X216136146Y-141732582D01*
X216127826Y-141734321D01*
X216119274Y-141735757D01*
X216101493Y-141737694D01*
X216082851Y-141738350D01*
X216073539Y-141738186D01*
X216064421Y-141737694D01*
X216055505Y-141736883D01*
X216046798Y-141735757D01*
X216038305Y-141734321D01*
X216030033Y-141732582D01*
X216021990Y-141730546D01*
X216014181Y-141728217D01*
X216006613Y-141725602D01*
X215999293Y-141722705D01*
X215992228Y-141719534D01*
X215985424Y-141716093D01*
X215978887Y-141712389D01*
X215972624Y-141708426D01*
X215966643Y-141704210D01*
X215960948Y-141699748D01*
X215955548Y-141695044D01*
X215950448Y-141690105D01*
X215945655Y-141684936D01*
X215941177Y-141679543D01*
X215937018Y-141673931D01*
X215933187Y-141668106D01*
X215929689Y-141662074D01*
X215926531Y-141655840D01*
X215923720Y-141649411D01*
X215921263Y-141642791D01*
X215919165Y-141635986D01*
X215917434Y-141629003D01*
X215916077Y-141621846D01*
X215915099Y-141614521D01*
X215914507Y-141607035D01*
X215914308Y-141599392D01*
X215914375Y-141594754D01*
X215914572Y-141590179D01*
X215914890Y-141585664D01*
X215915324Y-141581205D01*
X215915867Y-141576800D01*
X215916511Y-141572447D01*
X215917250Y-141568141D01*
X215918076Y-141563881D01*
X215727435Y-141563881D01*
X215726491Y-141574817D01*
X215726106Y-141580330D01*
X215725783Y-141585876D01*
X215725526Y-141591455D01*
X215725338Y-141597071D01*
X215725223Y-141602724D01*
X215725184Y-141608416D01*
X215477969Y-141608416D01*
X215478084Y-141607510D01*
X215483393Y-141577781D01*
X215490134Y-141548574D01*
X215498269Y-141519926D01*
X215507760Y-141491876D01*
X215518569Y-141464462D01*
X215530659Y-141437720D01*
X215543991Y-141411690D01*
X215558527Y-141386409D01*
X215574229Y-141361915D01*
X215591061Y-141338247D01*
X215608982Y-141315441D01*
X215627957Y-141293536D01*
X215647946Y-141272570D01*
X215668912Y-141252581D01*
X215690817Y-141233607D01*
X215713622Y-141215685D01*
X215737291Y-141198854D01*
X215761785Y-141183151D01*
X215787066Y-141168615D01*
X215813096Y-141155283D01*
X215839837Y-141143193D01*
X215867252Y-141132384D01*
X215895302Y-141122893D01*
X215923950Y-141114758D01*
X215953157Y-141108017D01*
X215982886Y-141102708D01*
X216013098Y-141098869D01*
X216043756Y-141096537D01*
X216074822Y-141095752D01*
X216074829Y-141095752D01*
X216105895Y-141096537D01*
G37*
D11*
%TO.C,U8*%
X206890000Y-139890000D02*
X206890000Y-140440000D01*
X206890000Y-146110000D02*
X206890000Y-145560000D01*
X207440000Y-139890000D02*
X206890000Y-139890000D01*
X207440000Y-146110000D02*
X206890000Y-146110000D01*
X212560000Y-139890000D02*
X213110000Y-139890000D01*
X212560000Y-146110000D02*
X212810000Y-146110000D01*
X213110000Y-139890000D02*
X213110000Y-140440000D01*
X213110000Y-145560000D02*
X213110000Y-145870000D01*
X213350000Y-146440000D02*
X212870000Y-146440000D01*
X213110000Y-146110000D01*
X213350000Y-146440000D01*
G36*
X213350000Y-146440000D02*
G01*
X212870000Y-146440000D01*
X213110000Y-146110000D01*
X213350000Y-146440000D01*
G37*
%TO.C,R22*%
X214477500Y-133237258D02*
X214477500Y-132762742D01*
X215522500Y-133237258D02*
X215522500Y-132762742D01*
%TO.C,R21*%
X217762742Y-147477500D02*
X218237258Y-147477500D01*
X217762742Y-148522500D02*
X218237258Y-148522500D01*
%TO.C,C19*%
X212140580Y-148490000D02*
X211859420Y-148490000D01*
X212140580Y-149510000D02*
X211859420Y-149510000D01*
%TO.C,JP3*%
X216000000Y-135400000D02*
X216000000Y-132600000D01*
X216700000Y-131950000D02*
X217300000Y-131950000D01*
X217300000Y-136050000D02*
X216700000Y-136050000D01*
X218000000Y-132600000D02*
X218000000Y-135400000D01*
X218200000Y-135200000D02*
X218500000Y-134900000D01*
X218200000Y-135200000D02*
X218500000Y-135500000D01*
X218500000Y-135500000D02*
X218500000Y-134900000D01*
X216000000Y-132650000D02*
G75*
G02*
X216700000Y-131950000I700000J0D01*
G01*
X216700000Y-136050000D02*
G75*
G02*
X216000000Y-135350000I-1J699999D01*
G01*
X217300000Y-131950000D02*
G75*
G02*
X218000000Y-132650000I0J-700000D01*
G01*
X218000000Y-135350000D02*
G75*
G02*
X217300000Y-136050000I-699999J-1D01*
G01*
D12*
%TO.C,G5*%
G36*
X203060418Y-144552832D02*
G01*
X203062146Y-144552832D01*
X203162702Y-144242374D01*
X203227426Y-144242374D01*
X203328007Y-144552832D01*
X203329785Y-144552832D01*
X203414585Y-144242374D01*
X203509066Y-144242374D01*
X203367394Y-144685763D01*
X203288644Y-144685763D01*
X203195941Y-144375304D01*
X203194212Y-144375304D01*
X203101509Y-144685763D01*
X203022783Y-144685763D01*
X202881136Y-144242374D01*
X202975568Y-144242374D01*
X203060418Y-144552832D01*
G37*
G36*
X202391325Y-144237266D02*
G01*
X202397842Y-144237719D01*
X202404225Y-144238463D01*
X202410478Y-144239491D01*
X202416608Y-144240796D01*
X202422619Y-144242370D01*
X202428518Y-144244205D01*
X202434308Y-144246294D01*
X202439995Y-144248629D01*
X202445585Y-144251202D01*
X202451083Y-144254006D01*
X202456494Y-144257033D01*
X202461823Y-144260275D01*
X202467075Y-144263725D01*
X202472257Y-144267375D01*
X202477372Y-144271217D01*
X202412673Y-144348190D01*
X202408805Y-144345343D01*
X202405061Y-144342718D01*
X202401419Y-144340309D01*
X202397859Y-144338110D01*
X202394361Y-144336117D01*
X202390904Y-144334325D01*
X202387467Y-144332727D01*
X202384030Y-144331320D01*
X202380573Y-144330098D01*
X202377074Y-144329056D01*
X202373514Y-144328188D01*
X202369872Y-144327489D01*
X202366127Y-144326955D01*
X202362260Y-144326580D01*
X202358248Y-144326358D01*
X202354073Y-144326286D01*
X202345893Y-144326616D01*
X202337795Y-144327616D01*
X202329840Y-144329299D01*
X202322091Y-144331676D01*
X202318312Y-144333129D01*
X202314607Y-144334760D01*
X202310985Y-144336572D01*
X202307452Y-144338565D01*
X202304016Y-144340741D01*
X202300686Y-144343102D01*
X202297468Y-144345649D01*
X202294371Y-144348384D01*
X202291402Y-144351309D01*
X202288568Y-144354424D01*
X202285878Y-144357733D01*
X202283340Y-144361235D01*
X202280960Y-144364934D01*
X202278747Y-144368829D01*
X202276708Y-144372924D01*
X202274851Y-144377219D01*
X202273184Y-144381716D01*
X202271714Y-144386417D01*
X202270449Y-144391324D01*
X202269397Y-144396437D01*
X202268565Y-144401758D01*
X202267961Y-144407290D01*
X202267594Y-144413033D01*
X202267469Y-144418989D01*
X202267469Y-144685763D01*
X202178273Y-144685763D01*
X202178273Y-144242374D01*
X202267469Y-144242374D01*
X202267469Y-144289590D01*
X202269223Y-144289590D01*
X202274611Y-144283238D01*
X202280280Y-144277296D01*
X202286220Y-144271762D01*
X202292425Y-144266639D01*
X202298886Y-144261924D01*
X202305596Y-144257620D01*
X202312548Y-144253725D01*
X202319732Y-144250239D01*
X202327142Y-144247164D01*
X202334769Y-144244498D01*
X202342606Y-144242242D01*
X202350646Y-144240396D01*
X202358880Y-144238960D01*
X202367300Y-144237935D01*
X202375899Y-144237319D01*
X202384669Y-144237114D01*
X202391325Y-144237266D01*
G37*
G36*
X204183852Y-144237266D02*
G01*
X204190366Y-144237719D01*
X204196748Y-144238463D01*
X204203001Y-144239491D01*
X204209132Y-144240796D01*
X204215145Y-144242370D01*
X204221045Y-144244205D01*
X204226838Y-144246294D01*
X204232528Y-144248629D01*
X204238120Y-144251202D01*
X204243619Y-144254006D01*
X204249031Y-144257033D01*
X204254360Y-144260275D01*
X204259612Y-144263725D01*
X204264791Y-144267375D01*
X204269902Y-144271217D01*
X204205178Y-144348190D01*
X204201315Y-144345343D01*
X204197574Y-144342718D01*
X204193936Y-144340309D01*
X204190379Y-144338110D01*
X204186882Y-144336117D01*
X204183427Y-144334325D01*
X204179991Y-144332727D01*
X204176554Y-144331320D01*
X204173096Y-144330098D01*
X204169597Y-144329056D01*
X204166036Y-144328188D01*
X204162391Y-144327489D01*
X204158644Y-144326955D01*
X204154773Y-144326580D01*
X204150758Y-144326358D01*
X204146578Y-144326286D01*
X204138399Y-144326616D01*
X204130302Y-144327616D01*
X204122348Y-144329299D01*
X204114600Y-144331676D01*
X204110822Y-144333129D01*
X204107118Y-144334760D01*
X204103497Y-144336572D01*
X204099965Y-144338565D01*
X204096531Y-144340741D01*
X204093201Y-144343102D01*
X204089985Y-144345649D01*
X204086889Y-144348384D01*
X204083921Y-144351309D01*
X204081088Y-144354424D01*
X204078400Y-144357733D01*
X204075862Y-144361235D01*
X204073483Y-144364934D01*
X204071271Y-144368829D01*
X204069233Y-144372924D01*
X204067377Y-144377219D01*
X204065711Y-144381716D01*
X204064242Y-144386417D01*
X204062977Y-144391324D01*
X204061926Y-144396437D01*
X204061095Y-144401758D01*
X204060491Y-144407290D01*
X204060124Y-144413033D01*
X204059999Y-144418989D01*
X204059999Y-144685763D01*
X203970828Y-144685763D01*
X203970828Y-144242374D01*
X204059999Y-144242374D01*
X204059999Y-144289590D01*
X204061802Y-144289590D01*
X204067186Y-144283238D01*
X204072850Y-144277296D01*
X204078786Y-144271762D01*
X204084986Y-144266639D01*
X204091443Y-144261924D01*
X204098150Y-144257620D01*
X204105097Y-144253725D01*
X204112278Y-144250239D01*
X204119684Y-144247164D01*
X204127308Y-144244498D01*
X204135143Y-144242242D01*
X204143180Y-144240396D01*
X204151412Y-144238960D01*
X204159831Y-144237935D01*
X204168429Y-144237319D01*
X204177199Y-144237114D01*
X204183852Y-144237266D01*
G37*
G36*
X204294407Y-143536900D02*
G01*
X204300926Y-143537352D01*
X204307309Y-143538096D01*
X204313563Y-143539125D01*
X204319692Y-143540430D01*
X204325701Y-143542004D01*
X204331597Y-143543839D01*
X204337385Y-143545928D01*
X204343071Y-143548263D01*
X204348659Y-143550836D01*
X204354155Y-143553640D01*
X204359565Y-143556667D01*
X204364893Y-143559909D01*
X204370147Y-143563359D01*
X204375330Y-143567009D01*
X204380449Y-143570851D01*
X204315725Y-143647823D01*
X204311862Y-143644985D01*
X204308122Y-143642368D01*
X204304483Y-143639965D01*
X204300926Y-143637772D01*
X204297430Y-143635784D01*
X204293974Y-143633996D01*
X204290538Y-143632402D01*
X204287101Y-143630997D01*
X204283644Y-143629777D01*
X204280144Y-143628736D01*
X204276583Y-143627869D01*
X204272939Y-143627171D01*
X204269191Y-143626638D01*
X204265320Y-143626263D01*
X204261305Y-143626041D01*
X204257125Y-143625969D01*
X204248946Y-143626299D01*
X204240849Y-143627297D01*
X204232895Y-143628977D01*
X204225147Y-143631352D01*
X204221369Y-143632803D01*
X204217666Y-143634433D01*
X204214044Y-143636243D01*
X204210512Y-143638235D01*
X204207078Y-143640409D01*
X204203749Y-143642769D01*
X204200532Y-143645315D01*
X204197436Y-143648049D01*
X204194468Y-143650972D01*
X204191636Y-143654087D01*
X204188947Y-143657395D01*
X204186409Y-143660897D01*
X204184031Y-143664595D01*
X204181818Y-143668490D01*
X204179781Y-143672585D01*
X204177924Y-143676881D01*
X204176258Y-143681380D01*
X204174789Y-143686082D01*
X204173525Y-143690990D01*
X204172473Y-143696105D01*
X204171642Y-143701430D01*
X204171039Y-143706964D01*
X204170671Y-143712711D01*
X204170547Y-143718672D01*
X204170547Y-143985396D01*
X204081326Y-143985396D01*
X204081326Y-143542007D01*
X204170547Y-143542007D01*
X204170547Y-143589223D01*
X204172300Y-143589223D01*
X204177684Y-143582871D01*
X204183350Y-143576929D01*
X204189288Y-143571396D01*
X204195492Y-143566272D01*
X204201953Y-143561558D01*
X204208663Y-143557253D01*
X204215615Y-143553358D01*
X204222800Y-143549873D01*
X204230211Y-143546797D01*
X204237840Y-143544131D01*
X204245679Y-143541876D01*
X204253720Y-143540030D01*
X204261955Y-143538594D01*
X204270376Y-143537568D01*
X204278976Y-143536953D01*
X204287747Y-143536748D01*
X204294407Y-143536900D01*
G37*
G36*
X202375713Y-143536904D02*
G01*
X202382257Y-143537371D01*
X202395399Y-143539236D01*
X202408507Y-143542333D01*
X202421453Y-143546654D01*
X202427824Y-143549270D01*
X202434106Y-143552189D01*
X202440283Y-143555410D01*
X202446338Y-143558930D01*
X202452255Y-143562750D01*
X202458019Y-143566868D01*
X202463612Y-143571283D01*
X202469019Y-143575993D01*
X202474224Y-143580999D01*
X202479210Y-143586298D01*
X202483961Y-143591889D01*
X202488461Y-143597772D01*
X202492695Y-143603946D01*
X202496645Y-143610408D01*
X202500295Y-143617159D01*
X202503630Y-143624196D01*
X202506633Y-143631519D01*
X202509288Y-143639128D01*
X202511579Y-143647019D01*
X202513490Y-143655193D01*
X202515004Y-143663649D01*
X202516106Y-143672385D01*
X202516779Y-143681400D01*
X202517007Y-143690693D01*
X202517007Y-143985396D01*
X202427810Y-143985396D01*
X202427810Y-143721338D01*
X202427701Y-143715750D01*
X202427376Y-143710313D01*
X202426839Y-143705029D01*
X202426097Y-143699898D01*
X202425152Y-143694924D01*
X202424011Y-143690108D01*
X202422677Y-143685450D01*
X202421155Y-143680955D01*
X202419450Y-143676622D01*
X202417566Y-143672454D01*
X202415508Y-143668452D01*
X202413281Y-143664619D01*
X202410889Y-143660956D01*
X202408338Y-143657464D01*
X202405631Y-143654146D01*
X202402773Y-143651003D01*
X202399769Y-143648037D01*
X202396624Y-143645249D01*
X202393342Y-143642643D01*
X202389928Y-143640218D01*
X202386387Y-143637977D01*
X202382722Y-143635922D01*
X202378940Y-143634055D01*
X202375043Y-143632376D01*
X202371038Y-143630889D01*
X202366929Y-143629594D01*
X202362720Y-143628493D01*
X202358416Y-143627589D01*
X202354021Y-143626883D01*
X202349541Y-143626376D01*
X202344980Y-143626071D01*
X202340343Y-143625969D01*
X202335626Y-143626071D01*
X202330992Y-143626376D01*
X202326443Y-143626883D01*
X202321984Y-143627589D01*
X202317620Y-143628493D01*
X202313356Y-143629594D01*
X202309195Y-143630889D01*
X202305142Y-143632376D01*
X202301202Y-143634055D01*
X202297380Y-143635922D01*
X202293679Y-143637977D01*
X202290104Y-143640218D01*
X202286659Y-143642643D01*
X202283350Y-143645249D01*
X202280181Y-143648037D01*
X202277156Y-143651003D01*
X202274279Y-143654146D01*
X202271555Y-143657464D01*
X202268989Y-143660956D01*
X202266585Y-143664619D01*
X202264348Y-143668452D01*
X202262281Y-143672454D01*
X202260391Y-143676622D01*
X202258680Y-143680955D01*
X202257153Y-143685451D01*
X202255816Y-143690108D01*
X202254672Y-143694924D01*
X202253726Y-143699899D01*
X202252982Y-143705029D01*
X202252445Y-143710314D01*
X202252120Y-143715751D01*
X202252011Y-143721339D01*
X202252011Y-143985396D01*
X202162814Y-143985396D01*
X202162814Y-143542007D01*
X202252011Y-143542007D01*
X202252011Y-143589223D01*
X202253789Y-143589223D01*
X202259173Y-143582871D01*
X202264837Y-143576929D01*
X202270775Y-143571396D01*
X202276977Y-143566272D01*
X202283436Y-143561558D01*
X202290144Y-143557253D01*
X202297093Y-143553358D01*
X202304276Y-143549873D01*
X202311685Y-143546797D01*
X202319312Y-143544131D01*
X202327149Y-143541876D01*
X202335188Y-143540030D01*
X202343421Y-143538594D01*
X202351841Y-143537568D01*
X202360440Y-143536953D01*
X202369210Y-143536748D01*
X202375713Y-143536904D01*
G37*
G36*
X203718522Y-143806124D02*
G01*
X203718632Y-143811706D01*
X203718957Y-143817137D01*
X203719494Y-143822416D01*
X203720238Y-143827542D01*
X203721185Y-143832512D01*
X203722329Y-143837326D01*
X203723668Y-143841980D01*
X203725195Y-143846473D01*
X203726906Y-143850804D01*
X203728798Y-143854971D01*
X203730865Y-143858971D01*
X203733103Y-143862804D01*
X203735508Y-143866467D01*
X203738075Y-143869958D01*
X203740799Y-143873277D01*
X203743676Y-143876420D01*
X203746702Y-143879387D01*
X203749872Y-143882175D01*
X203753182Y-143884783D01*
X203756626Y-143887209D01*
X203760201Y-143889451D01*
X203763902Y-143891507D01*
X203767725Y-143893376D01*
X203771664Y-143895056D01*
X203775716Y-143896544D01*
X203779876Y-143897840D01*
X203784140Y-143898942D01*
X203788503Y-143899847D01*
X203792960Y-143900554D01*
X203797507Y-143901062D01*
X203802140Y-143901367D01*
X203806854Y-143901470D01*
X203811492Y-143901367D01*
X203816053Y-143901062D01*
X203820533Y-143900554D01*
X203824927Y-143899847D01*
X203829231Y-143898942D01*
X203833440Y-143897840D01*
X203837550Y-143896544D01*
X203841555Y-143895056D01*
X203845451Y-143893376D01*
X203849234Y-143891507D01*
X203852898Y-143889451D01*
X203856440Y-143887209D01*
X203859854Y-143884783D01*
X203863136Y-143882175D01*
X203866281Y-143879387D01*
X203869285Y-143876420D01*
X203872142Y-143873277D01*
X203874849Y-143869958D01*
X203877401Y-143866467D01*
X203879793Y-143862804D01*
X203882020Y-143858971D01*
X203884077Y-143854971D01*
X203885961Y-143850804D01*
X203887666Y-143846473D01*
X203889188Y-143841980D01*
X203890522Y-143837326D01*
X203891664Y-143832512D01*
X203892608Y-143827542D01*
X203893351Y-143822416D01*
X203893887Y-143817137D01*
X203894213Y-143811706D01*
X203894322Y-143806124D01*
X203894322Y-143541993D01*
X203983518Y-143541993D01*
X203983518Y-143985431D01*
X203894322Y-143985431D01*
X203894322Y-143938165D01*
X203892593Y-143938165D01*
X203887205Y-143944517D01*
X203881537Y-143950460D01*
X203875599Y-143955993D01*
X203869401Y-143961117D01*
X203862952Y-143965831D01*
X203856260Y-143970136D01*
X203849335Y-143974031D01*
X203842186Y-143977516D01*
X203834822Y-143980592D01*
X203827253Y-143983257D01*
X203819487Y-143985513D01*
X203811534Y-143987359D01*
X203803404Y-143988795D01*
X203795104Y-143989821D01*
X203786645Y-143990436D01*
X203778036Y-143990641D01*
X203771454Y-143990485D01*
X203764837Y-143990018D01*
X203751561Y-143988153D01*
X203738336Y-143985056D01*
X203731782Y-143983048D01*
X203725289Y-143980736D01*
X203718874Y-143978120D01*
X203712550Y-143975201D01*
X203706336Y-143971981D01*
X203700247Y-143968461D01*
X203694298Y-143964642D01*
X203688507Y-143960525D01*
X203682888Y-143956111D01*
X203677458Y-143951402D01*
X203672233Y-143946398D01*
X203667230Y-143941100D01*
X203662463Y-143935510D01*
X203657949Y-143929629D01*
X203653704Y-143923457D01*
X203649744Y-143916997D01*
X203646086Y-143910249D01*
X203642744Y-143903214D01*
X203639736Y-143895893D01*
X203637077Y-143888288D01*
X203634783Y-143880400D01*
X203632870Y-143872229D01*
X203631354Y-143863777D01*
X203630252Y-143855045D01*
X203629578Y-143846034D01*
X203629350Y-143836746D01*
X203629350Y-143541993D01*
X203718522Y-143541993D01*
X203718522Y-143806124D01*
G37*
G36*
X204577242Y-143536832D02*
G01*
X204583431Y-143537112D01*
X204589537Y-143537575D01*
X204595562Y-143538216D01*
X204607364Y-143540020D01*
X204618836Y-143542494D01*
X204629975Y-143545608D01*
X204640781Y-143549334D01*
X204651251Y-143553642D01*
X204661384Y-143558503D01*
X204671179Y-143563886D01*
X204680633Y-143569763D01*
X204689746Y-143576104D01*
X204698515Y-143582879D01*
X204706940Y-143590059D01*
X204715018Y-143597615D01*
X204722747Y-143605517D01*
X204730127Y-143613735D01*
X204664539Y-143672335D01*
X204660330Y-143667346D01*
X204655901Y-143662558D01*
X204651259Y-143657989D01*
X204646411Y-143653653D01*
X204641364Y-143649569D01*
X204636123Y-143645753D01*
X204630695Y-143642222D01*
X204625087Y-143638991D01*
X204619304Y-143636078D01*
X204613355Y-143633500D01*
X204607244Y-143631273D01*
X204600979Y-143629413D01*
X204594566Y-143627937D01*
X204588011Y-143626863D01*
X204581322Y-143626206D01*
X204574503Y-143625983D01*
X204561242Y-143626469D01*
X204548697Y-143627939D01*
X204542699Y-143629050D01*
X204536887Y-143630415D01*
X204531264Y-143632038D01*
X204525832Y-143633920D01*
X204520593Y-143636065D01*
X204515551Y-143638475D01*
X204510706Y-143641153D01*
X204506062Y-143644102D01*
X204501622Y-143647324D01*
X204497386Y-143650822D01*
X204493359Y-143654599D01*
X204489542Y-143658657D01*
X204485938Y-143663000D01*
X204482548Y-143667630D01*
X204479377Y-143672549D01*
X204476425Y-143677761D01*
X204473695Y-143683268D01*
X204471191Y-143689073D01*
X204468913Y-143695178D01*
X204466865Y-143701587D01*
X204465049Y-143708301D01*
X204463467Y-143715324D01*
X204462122Y-143722659D01*
X204461016Y-143730308D01*
X204459531Y-143746559D01*
X204459032Y-143764099D01*
X204459157Y-143772960D01*
X204459531Y-143781501D01*
X204460152Y-143789724D01*
X204461016Y-143797632D01*
X204462122Y-143805227D01*
X204463467Y-143812512D01*
X204465049Y-143819490D01*
X204466865Y-143826163D01*
X204468913Y-143832533D01*
X204471191Y-143838604D01*
X204473695Y-143844377D01*
X204476425Y-143849856D01*
X204479377Y-143855043D01*
X204482548Y-143859940D01*
X204485938Y-143864549D01*
X204489542Y-143868875D01*
X204493359Y-143872918D01*
X204497386Y-143876682D01*
X204501622Y-143880170D01*
X204506062Y-143883382D01*
X204510706Y-143886324D01*
X204515551Y-143888996D01*
X204520593Y-143891401D01*
X204525832Y-143893543D01*
X204531264Y-143895423D01*
X204536887Y-143897044D01*
X204542699Y-143898408D01*
X204548697Y-143899519D01*
X204554879Y-143900378D01*
X204561242Y-143900989D01*
X204567784Y-143901354D01*
X204574503Y-143901475D01*
X204577928Y-143901419D01*
X204581322Y-143901252D01*
X204584683Y-143900977D01*
X204588011Y-143900595D01*
X204594566Y-143899521D01*
X204600979Y-143898045D01*
X204607244Y-143896185D01*
X204613355Y-143893958D01*
X204619304Y-143891380D01*
X204625087Y-143888467D01*
X204630695Y-143885236D01*
X204636123Y-143881705D01*
X204641364Y-143877888D01*
X204646411Y-143873804D01*
X204651259Y-143869469D01*
X204655901Y-143864900D01*
X204660330Y-143860112D01*
X204664539Y-143855123D01*
X204730127Y-143913723D01*
X204722747Y-143921932D01*
X204715018Y-143929826D01*
X204706940Y-143937374D01*
X204698515Y-143944547D01*
X204689746Y-143951315D01*
X204680633Y-143957650D01*
X204671179Y-143963521D01*
X204661384Y-143968900D01*
X204651251Y-143973756D01*
X204640781Y-143978060D01*
X204629975Y-143981783D01*
X204618836Y-143984895D01*
X204607364Y-143987367D01*
X204595562Y-143989169D01*
X204583431Y-143990272D01*
X204570972Y-143990646D01*
X204551853Y-143989880D01*
X204532955Y-143987551D01*
X204514419Y-143983611D01*
X204496383Y-143978012D01*
X204487596Y-143974575D01*
X204478987Y-143970706D01*
X204470573Y-143966398D01*
X204462371Y-143961646D01*
X204454399Y-143956444D01*
X204446675Y-143950785D01*
X204439215Y-143944664D01*
X204432038Y-143938075D01*
X204425160Y-143931011D01*
X204418600Y-143923467D01*
X204412374Y-143915437D01*
X204406500Y-143906915D01*
X204400996Y-143897895D01*
X204395879Y-143888371D01*
X204391167Y-143878337D01*
X204386876Y-143867787D01*
X204383025Y-143856715D01*
X204379630Y-143845115D01*
X204376710Y-143832982D01*
X204374282Y-143820309D01*
X204372363Y-143807090D01*
X204370970Y-143793319D01*
X204370122Y-143778991D01*
X204369836Y-143764099D01*
X204370122Y-143749140D01*
X204370970Y-143734748D01*
X204372363Y-143720918D01*
X204374282Y-143707642D01*
X204376710Y-143694916D01*
X204379630Y-143682733D01*
X204383025Y-143671087D01*
X204386876Y-143659972D01*
X204391167Y-143649382D01*
X204395879Y-143639310D01*
X204400996Y-143629752D01*
X204406500Y-143620700D01*
X204412374Y-143612149D01*
X204418600Y-143604092D01*
X204425160Y-143596524D01*
X204432038Y-143589439D01*
X204439215Y-143582830D01*
X204446675Y-143576691D01*
X204454399Y-143571016D01*
X204462371Y-143565800D01*
X204470573Y-143561036D01*
X204478987Y-143556718D01*
X204487596Y-143552840D01*
X204496383Y-143549396D01*
X204505329Y-143546379D01*
X204514419Y-143543785D01*
X204523633Y-143541607D01*
X204532955Y-143539838D01*
X204542368Y-143538472D01*
X204551853Y-143537505D01*
X204570972Y-143536738D01*
X204577242Y-143536832D01*
G37*
G36*
X202833379Y-144685772D02*
G01*
X202744183Y-144685772D01*
X202744183Y-144639421D01*
X202738785Y-144645038D01*
X202733092Y-144650416D01*
X202727117Y-144655536D01*
X202720873Y-144660382D01*
X202714372Y-144664938D01*
X202707627Y-144669186D01*
X202700651Y-144673109D01*
X202693458Y-144676691D01*
X202686059Y-144679914D01*
X202678468Y-144682763D01*
X202670697Y-144685219D01*
X202662760Y-144687267D01*
X202654669Y-144688889D01*
X202646437Y-144690068D01*
X202638076Y-144690788D01*
X202629601Y-144691032D01*
X202624560Y-144690961D01*
X202619607Y-144690749D01*
X202614741Y-144690399D01*
X202609961Y-144689914D01*
X202605268Y-144689296D01*
X202600662Y-144688550D01*
X202596141Y-144687678D01*
X202591707Y-144686682D01*
X202587358Y-144685565D01*
X202583096Y-144684331D01*
X202578919Y-144682982D01*
X202574827Y-144681522D01*
X202570821Y-144679952D01*
X202566899Y-144678277D01*
X202559311Y-144674620D01*
X202552061Y-144670573D01*
X202545149Y-144666161D01*
X202538571Y-144661405D01*
X202532328Y-144656330D01*
X202526418Y-144650959D01*
X202520840Y-144645314D01*
X202515592Y-144639419D01*
X202510672Y-144633297D01*
X202506282Y-144627400D01*
X202502286Y-144621443D01*
X202498670Y-144615306D01*
X202495418Y-144608866D01*
X202492515Y-144602001D01*
X202489945Y-144594591D01*
X202487693Y-144586513D01*
X202485743Y-144577645D01*
X202484081Y-144567865D01*
X202482690Y-144557053D01*
X202481555Y-144545086D01*
X202480662Y-144531843D01*
X202479535Y-144501040D01*
X202479187Y-144463670D01*
X202568383Y-144463670D01*
X202568453Y-144476600D01*
X202568735Y-144489429D01*
X202569340Y-144502056D01*
X202570378Y-144514380D01*
X202571959Y-144526299D01*
X202572988Y-144532076D01*
X202574194Y-144537714D01*
X202575591Y-144543200D01*
X202577192Y-144548521D01*
X202579012Y-144553666D01*
X202581064Y-144558621D01*
X202583362Y-144563373D01*
X202585920Y-144567911D01*
X202588751Y-144572221D01*
X202591870Y-144576291D01*
X202595289Y-144580108D01*
X202599024Y-144583660D01*
X202603087Y-144586933D01*
X202607492Y-144589915D01*
X202612254Y-144592594D01*
X202617386Y-144594957D01*
X202622901Y-144596991D01*
X202628814Y-144598684D01*
X202635138Y-144600022D01*
X202641887Y-144600994D01*
X202649075Y-144601586D01*
X202656715Y-144601787D01*
X202664277Y-144601574D01*
X202671392Y-144600947D01*
X202678072Y-144599919D01*
X202684332Y-144598507D01*
X202690185Y-144596724D01*
X202695644Y-144594587D01*
X202700724Y-144592110D01*
X202705439Y-144589308D01*
X202709800Y-144586196D01*
X202713823Y-144582789D01*
X202717521Y-144579103D01*
X202720908Y-144575152D01*
X202723996Y-144570951D01*
X202726800Y-144566515D01*
X202729334Y-144561860D01*
X202731610Y-144557000D01*
X202733643Y-144551951D01*
X202735447Y-144546726D01*
X202738418Y-144535815D01*
X202740633Y-144524385D01*
X202742202Y-144512557D01*
X202743232Y-144500451D01*
X202743833Y-144488188D01*
X202744183Y-144463670D01*
X202744114Y-144451604D01*
X202743833Y-144439433D01*
X202743232Y-144427279D01*
X202742202Y-144415265D01*
X202740633Y-144403511D01*
X202739613Y-144397771D01*
X202738418Y-144392141D01*
X202737034Y-144386637D01*
X202735447Y-144381275D01*
X202733643Y-144376069D01*
X202731610Y-144371035D01*
X202729334Y-144366189D01*
X202726800Y-144361544D01*
X202723996Y-144357118D01*
X202720908Y-144352924D01*
X202717521Y-144348978D01*
X202713823Y-144345295D01*
X202709800Y-144341891D01*
X202705439Y-144338780D01*
X202700724Y-144335978D01*
X202695644Y-144333501D01*
X202690185Y-144331362D01*
X202684332Y-144329579D01*
X202678072Y-144328165D01*
X202671392Y-144327137D01*
X202664277Y-144326508D01*
X202656715Y-144326295D01*
X202649075Y-144326496D01*
X202641887Y-144327088D01*
X202635138Y-144328060D01*
X202628814Y-144329399D01*
X202622901Y-144331091D01*
X202617386Y-144333124D01*
X202612254Y-144335485D01*
X202607492Y-144338162D01*
X202603087Y-144341141D01*
X202599024Y-144344409D01*
X202595289Y-144347955D01*
X202591870Y-144351765D01*
X202588751Y-144355825D01*
X202585920Y-144360125D01*
X202583362Y-144364649D01*
X202581064Y-144369387D01*
X202579012Y-144374325D01*
X202577192Y-144379449D01*
X202574194Y-144390209D01*
X202571959Y-144401563D01*
X202570378Y-144413410D01*
X202569340Y-144425647D01*
X202568735Y-144438171D01*
X202568383Y-144463670D01*
X202479187Y-144463670D01*
X202479271Y-144444234D01*
X202479535Y-144426546D01*
X202479993Y-144410483D01*
X202480662Y-144395927D01*
X202481555Y-144382757D01*
X202482690Y-144370852D01*
X202484081Y-144360091D01*
X202485743Y-144350354D01*
X202487693Y-144341520D01*
X202488780Y-144337405D01*
X202489945Y-144333470D01*
X202491189Y-144329701D01*
X202492515Y-144326082D01*
X202493924Y-144322599D01*
X202495418Y-144319236D01*
X202498670Y-144312811D01*
X202502286Y-144306687D01*
X202506282Y-144300743D01*
X202510672Y-144294859D01*
X202515592Y-144288725D01*
X202520840Y-144282821D01*
X202526418Y-144277170D01*
X202532328Y-144271795D01*
X202538571Y-144266718D01*
X202545149Y-144261963D01*
X202552061Y-144257552D01*
X202559311Y-144253509D01*
X202566899Y-144249855D01*
X202574827Y-144246615D01*
X202583096Y-144243810D01*
X202591707Y-144241464D01*
X202600662Y-144239599D01*
X202609961Y-144238239D01*
X202619607Y-144237406D01*
X202629601Y-144237124D01*
X202638019Y-144237367D01*
X202646221Y-144238086D01*
X202654218Y-144239266D01*
X202662020Y-144240892D01*
X202669638Y-144242948D01*
X202677081Y-144245419D01*
X202684360Y-144248290D01*
X202691485Y-144251545D01*
X202698467Y-144255170D01*
X202705315Y-144259149D01*
X202712041Y-144263466D01*
X202718654Y-144268107D01*
X202725164Y-144273056D01*
X202731582Y-144278298D01*
X202737918Y-144283817D01*
X202744183Y-144289599D01*
X202744183Y-144063053D01*
X202833379Y-144063053D01*
X202833379Y-144685772D01*
G37*
G36*
X201913049Y-143536962D02*
G01*
X201922100Y-143537593D01*
X201931048Y-143538638D01*
X201939880Y-143540092D01*
X201948582Y-143541949D01*
X201957142Y-143544203D01*
X201965547Y-143546849D01*
X201973782Y-143549881D01*
X201981836Y-143553293D01*
X201989695Y-143557080D01*
X201997345Y-143561237D01*
X202004775Y-143565757D01*
X202011970Y-143570636D01*
X202018917Y-143575867D01*
X202025604Y-143581445D01*
X202032016Y-143587364D01*
X202038142Y-143593619D01*
X202043968Y-143600204D01*
X202049481Y-143607114D01*
X202054667Y-143614343D01*
X202059514Y-143621885D01*
X202064009Y-143629735D01*
X202068137Y-143637888D01*
X202071887Y-143646336D01*
X202075245Y-143655076D01*
X202078198Y-143664101D01*
X202080732Y-143673407D01*
X202082835Y-143682986D01*
X202084494Y-143692834D01*
X202085695Y-143702945D01*
X202086425Y-143713313D01*
X202086671Y-143723934D01*
X202086671Y-143797399D01*
X201810316Y-143797399D01*
X201810446Y-143804098D01*
X201810832Y-143810587D01*
X201811469Y-143816866D01*
X201812352Y-143822934D01*
X201813476Y-143828792D01*
X201814835Y-143834439D01*
X201816426Y-143839875D01*
X201818241Y-143845099D01*
X201820277Y-143850113D01*
X201822529Y-143854915D01*
X201824990Y-143859505D01*
X201827657Y-143863884D01*
X201830523Y-143868051D01*
X201833584Y-143872005D01*
X201836835Y-143875747D01*
X201840270Y-143879277D01*
X201843885Y-143882594D01*
X201847674Y-143885699D01*
X201851632Y-143888590D01*
X201855755Y-143891268D01*
X201860036Y-143893733D01*
X201864471Y-143895985D01*
X201869055Y-143898022D01*
X201873782Y-143899847D01*
X201878648Y-143901457D01*
X201883647Y-143902853D01*
X201888775Y-143904034D01*
X201894025Y-143905001D01*
X201899394Y-143905754D01*
X201904875Y-143906292D01*
X201910465Y-143906614D01*
X201916156Y-143906722D01*
X201922578Y-143906538D01*
X201929042Y-143905992D01*
X201935529Y-143905089D01*
X201942020Y-143903837D01*
X201948495Y-143902240D01*
X201954935Y-143900307D01*
X201961322Y-143898043D01*
X201967635Y-143895455D01*
X201973856Y-143892549D01*
X201979966Y-143889332D01*
X201985945Y-143885810D01*
X201991773Y-143881990D01*
X201997433Y-143877877D01*
X202002905Y-143873479D01*
X202008168Y-143868802D01*
X202013206Y-143863852D01*
X202077930Y-143918921D01*
X202069579Y-143928090D01*
X202060936Y-143936573D01*
X202052018Y-143944386D01*
X202042838Y-143951539D01*
X202033413Y-143958046D01*
X202023757Y-143963920D01*
X202013886Y-143969174D01*
X202003815Y-143973820D01*
X201993560Y-143977871D01*
X201983135Y-143981341D01*
X201972556Y-143984241D01*
X201961839Y-143986586D01*
X201950998Y-143988387D01*
X201940048Y-143989657D01*
X201929005Y-143990410D01*
X201917885Y-143990658D01*
X201900687Y-143990122D01*
X201883318Y-143988423D01*
X201865953Y-143985421D01*
X201848771Y-143980979D01*
X201831947Y-143974959D01*
X201823725Y-143971314D01*
X201815659Y-143967222D01*
X201807771Y-143962666D01*
X201800083Y-143957630D01*
X201792617Y-143952095D01*
X201785396Y-143946045D01*
X201778441Y-143939462D01*
X201771775Y-143932328D01*
X201765419Y-143924628D01*
X201759397Y-143916342D01*
X201753729Y-143907455D01*
X201748437Y-143897948D01*
X201743545Y-143887806D01*
X201739074Y-143877009D01*
X201735047Y-143865541D01*
X201731484Y-143853385D01*
X201728410Y-143840523D01*
X201725844Y-143826938D01*
X201723810Y-143812614D01*
X201722330Y-143797531D01*
X201721426Y-143781674D01*
X201721120Y-143765025D01*
X201721401Y-143749212D01*
X201722231Y-143734069D01*
X201723181Y-143723934D01*
X201810316Y-143723934D01*
X201997475Y-143723934D01*
X201997125Y-143717708D01*
X201996570Y-143711669D01*
X201995812Y-143705816D01*
X201994855Y-143700150D01*
X201993705Y-143694672D01*
X201992365Y-143689383D01*
X201990839Y-143684283D01*
X201989130Y-143679374D01*
X201987244Y-143674657D01*
X201985183Y-143670131D01*
X201982953Y-143665798D01*
X201980556Y-143661658D01*
X201977997Y-143657713D01*
X201975280Y-143653963D01*
X201972409Y-143650408D01*
X201969388Y-143647051D01*
X201966221Y-143643890D01*
X201962912Y-143640928D01*
X201959465Y-143638165D01*
X201955884Y-143635602D01*
X201952172Y-143633239D01*
X201948335Y-143631078D01*
X201944375Y-143629119D01*
X201940298Y-143627363D01*
X201936106Y-143625810D01*
X201931805Y-143624462D01*
X201927397Y-143623319D01*
X201922887Y-143622382D01*
X201918280Y-143621652D01*
X201913578Y-143621130D01*
X201908786Y-143620816D01*
X201903908Y-143620711D01*
X201899028Y-143620816D01*
X201894228Y-143621130D01*
X201889515Y-143621652D01*
X201884892Y-143622382D01*
X201880364Y-143623319D01*
X201875935Y-143624462D01*
X201871610Y-143625810D01*
X201867393Y-143627363D01*
X201863288Y-143629119D01*
X201859301Y-143631078D01*
X201855436Y-143633239D01*
X201851697Y-143635602D01*
X201848088Y-143638165D01*
X201844615Y-143640928D01*
X201841281Y-143643890D01*
X201838091Y-143647051D01*
X201835050Y-143650408D01*
X201832162Y-143653963D01*
X201829432Y-143657713D01*
X201826863Y-143661658D01*
X201824461Y-143665798D01*
X201822231Y-143670131D01*
X201820175Y-143674657D01*
X201818300Y-143679374D01*
X201816609Y-143684283D01*
X201815107Y-143689383D01*
X201813799Y-143694672D01*
X201812689Y-143700150D01*
X201811781Y-143705816D01*
X201811079Y-143711669D01*
X201810590Y-143717708D01*
X201810316Y-143723934D01*
X201723181Y-143723934D01*
X201723589Y-143719585D01*
X201725457Y-143705750D01*
X201727814Y-143692552D01*
X201730641Y-143679980D01*
X201733917Y-143668023D01*
X201737623Y-143656671D01*
X201741739Y-143645912D01*
X201746245Y-143635735D01*
X201751121Y-143626129D01*
X201756348Y-143617083D01*
X201761905Y-143608586D01*
X201767773Y-143600627D01*
X201773932Y-143593194D01*
X201780362Y-143586278D01*
X201787043Y-143579866D01*
X201793955Y-143573948D01*
X201801079Y-143568513D01*
X201808394Y-143563549D01*
X201815882Y-143559046D01*
X201823521Y-143554992D01*
X201831292Y-143551377D01*
X201839176Y-143548189D01*
X201847152Y-143545418D01*
X201855201Y-143543052D01*
X201863303Y-143541080D01*
X201871437Y-143539492D01*
X201887726Y-143537421D01*
X201903908Y-143536750D01*
X201913049Y-143536962D01*
G37*
G36*
X204463488Y-144237331D02*
G01*
X204472541Y-144237962D01*
X204481490Y-144239007D01*
X204490323Y-144240461D01*
X204499026Y-144242318D01*
X204507586Y-144244572D01*
X204515990Y-144247217D01*
X204524226Y-144250249D01*
X204532279Y-144253661D01*
X204540137Y-144257448D01*
X204547786Y-144261604D01*
X204555215Y-144266124D01*
X204562408Y-144271002D01*
X204569354Y-144276232D01*
X204576039Y-144281809D01*
X204582450Y-144287727D01*
X204588574Y-144293981D01*
X204594399Y-144300565D01*
X204599909Y-144307473D01*
X204605094Y-144314700D01*
X204609939Y-144322241D01*
X204614432Y-144330089D01*
X204618559Y-144338238D01*
X204622307Y-144346685D01*
X204625663Y-144355422D01*
X204628614Y-144364444D01*
X204631148Y-144373746D01*
X204633250Y-144383322D01*
X204634907Y-144393166D01*
X204636108Y-144403273D01*
X204636837Y-144413638D01*
X204637084Y-144424254D01*
X204637084Y-144497769D01*
X204360777Y-144497769D01*
X204360907Y-144504463D01*
X204361293Y-144510948D01*
X204361930Y-144517223D01*
X204362812Y-144523287D01*
X204363936Y-144529142D01*
X204365295Y-144534785D01*
X204366884Y-144540218D01*
X204368699Y-144545440D01*
X204370734Y-144550451D01*
X204372985Y-144555251D01*
X204375445Y-144559839D01*
X204378110Y-144564216D01*
X204380976Y-144568381D01*
X204384036Y-144572334D01*
X204387285Y-144576075D01*
X204390719Y-144579603D01*
X204394333Y-144582919D01*
X204398121Y-144586023D01*
X204402078Y-144588913D01*
X204406199Y-144591591D01*
X204410480Y-144594055D01*
X204414914Y-144596306D01*
X204419496Y-144598343D01*
X204424223Y-144600167D01*
X204429088Y-144601777D01*
X204434086Y-144603173D01*
X204439213Y-144604354D01*
X204444463Y-144605321D01*
X204449831Y-144606074D01*
X204455312Y-144606612D01*
X204460901Y-144606934D01*
X204466593Y-144607042D01*
X204473007Y-144606859D01*
X204479464Y-144606314D01*
X204485945Y-144605413D01*
X204492432Y-144604163D01*
X204498905Y-144602570D01*
X204505344Y-144600640D01*
X204511730Y-144598379D01*
X204518044Y-144595794D01*
X204524267Y-144592890D01*
X204530379Y-144589674D01*
X204536360Y-144586152D01*
X204542193Y-144582330D01*
X204547857Y-144578215D01*
X204553332Y-144573813D01*
X204558601Y-144569130D01*
X204563642Y-144564172D01*
X204628366Y-144619290D01*
X204620011Y-144628459D01*
X204611366Y-144636943D01*
X204602445Y-144644755D01*
X204593264Y-144651908D01*
X204583839Y-144658415D01*
X204574183Y-144664289D01*
X204564313Y-144669543D01*
X204554243Y-144674189D01*
X204543989Y-144678240D01*
X204533566Y-144681710D01*
X204522988Y-144684610D01*
X204512272Y-144686955D01*
X204501432Y-144688756D01*
X204490484Y-144690026D01*
X204479442Y-144690779D01*
X204468322Y-144691027D01*
X204451124Y-144690491D01*
X204433755Y-144688792D01*
X204416390Y-144685790D01*
X204399208Y-144681348D01*
X204382384Y-144675326D01*
X204374162Y-144671681D01*
X204366096Y-144667588D01*
X204358208Y-144663032D01*
X204350520Y-144657995D01*
X204343054Y-144652459D01*
X204335833Y-144646408D01*
X204328878Y-144639823D01*
X204322212Y-144632689D01*
X204315856Y-144624986D01*
X204309833Y-144616699D01*
X204304165Y-144607810D01*
X204298874Y-144598302D01*
X204293982Y-144588156D01*
X204289511Y-144577357D01*
X204285484Y-144565886D01*
X204281921Y-144553727D01*
X204278846Y-144540862D01*
X204276281Y-144527274D01*
X204274247Y-144512946D01*
X204272767Y-144497860D01*
X204271863Y-144481998D01*
X204271556Y-144465345D01*
X204271838Y-144449532D01*
X204272668Y-144434389D01*
X204273619Y-144424254D01*
X204360777Y-144424254D01*
X204547912Y-144424254D01*
X204547564Y-144418033D01*
X204547010Y-144411997D01*
X204546254Y-144406147D01*
X204545299Y-144400484D01*
X204544150Y-144395008D01*
X204542811Y-144389721D01*
X204541286Y-144384623D01*
X204539578Y-144379715D01*
X204537692Y-144374998D01*
X204535631Y-144370472D01*
X204533400Y-144366139D01*
X204531004Y-144362000D01*
X204528445Y-144358054D01*
X204525727Y-144354303D01*
X204522856Y-144350748D01*
X204519834Y-144347389D01*
X204516667Y-144344227D01*
X204513357Y-144341264D01*
X204509909Y-144338500D01*
X204506327Y-144335935D01*
X204502615Y-144333571D01*
X204498777Y-144331408D01*
X204494816Y-144329447D01*
X204490738Y-144327689D01*
X204486546Y-144326135D01*
X204482244Y-144324786D01*
X204477835Y-144323642D01*
X204473325Y-144322704D01*
X204468717Y-144321973D01*
X204464015Y-144321450D01*
X204459223Y-144321136D01*
X204454345Y-144321031D01*
X204449464Y-144321136D01*
X204444665Y-144321450D01*
X204439952Y-144321973D01*
X204435329Y-144322704D01*
X204430801Y-144323642D01*
X204426372Y-144324786D01*
X204422047Y-144326135D01*
X204417830Y-144327689D01*
X204413726Y-144329447D01*
X204409739Y-144331408D01*
X204405874Y-144333571D01*
X204402135Y-144335935D01*
X204398526Y-144338500D01*
X204395053Y-144341264D01*
X204391720Y-144344227D01*
X204388531Y-144347389D01*
X204385491Y-144350748D01*
X204382603Y-144354303D01*
X204379874Y-144358054D01*
X204377306Y-144362000D01*
X204374905Y-144366139D01*
X204372675Y-144370472D01*
X204370621Y-144374998D01*
X204368747Y-144379715D01*
X204367058Y-144384623D01*
X204365557Y-144389721D01*
X204364251Y-144395008D01*
X204363142Y-144400484D01*
X204362236Y-144406147D01*
X204361537Y-144411997D01*
X204361049Y-144418033D01*
X204360777Y-144424254D01*
X204273619Y-144424254D01*
X204274027Y-144419906D01*
X204275895Y-144406071D01*
X204278253Y-144392875D01*
X204281080Y-144380304D01*
X204284357Y-144368349D01*
X204288064Y-144356998D01*
X204292180Y-144346241D01*
X204296687Y-144336066D01*
X204301564Y-144326462D01*
X204306791Y-144317418D01*
X204312349Y-144308923D01*
X204318218Y-144300966D01*
X204324377Y-144293536D01*
X204330808Y-144286622D01*
X204337489Y-144280213D01*
X204344402Y-144274297D01*
X204351526Y-144268864D01*
X204358842Y-144263902D01*
X204366329Y-144259401D01*
X204373969Y-144255350D01*
X204381740Y-144251736D01*
X204389623Y-144248551D01*
X204397599Y-144245781D01*
X204405647Y-144243416D01*
X204413748Y-144241446D01*
X204421881Y-144239859D01*
X204438167Y-144237789D01*
X204454345Y-144237119D01*
X204463488Y-144237331D01*
G37*
G36*
X204944737Y-143536962D02*
G01*
X204953786Y-143537593D01*
X204962733Y-143538638D01*
X204971564Y-143540092D01*
X204980266Y-143541949D01*
X204988825Y-143544203D01*
X204997230Y-143546849D01*
X205005465Y-143549881D01*
X205013520Y-143553293D01*
X205021379Y-143557080D01*
X205029031Y-143561237D01*
X205036461Y-143565757D01*
X205043658Y-143570636D01*
X205050606Y-143575867D01*
X205057295Y-143581445D01*
X205063709Y-143587364D01*
X205069837Y-143593619D01*
X205075665Y-143600204D01*
X205081179Y-143607114D01*
X205086367Y-143614343D01*
X205091216Y-143621885D01*
X205095712Y-143629735D01*
X205099843Y-143637888D01*
X205103594Y-143646336D01*
X205106954Y-143655076D01*
X205109908Y-143664101D01*
X205112443Y-143673407D01*
X205114548Y-143682986D01*
X205116207Y-143692834D01*
X205117409Y-143702945D01*
X205118139Y-143713313D01*
X205118386Y-143723934D01*
X205118386Y-143797399D01*
X204842030Y-143797399D01*
X204842160Y-143804098D01*
X204842546Y-143810587D01*
X204843183Y-143816866D01*
X204844065Y-143822934D01*
X204845189Y-143828792D01*
X204846548Y-143834439D01*
X204848137Y-143839875D01*
X204849952Y-143845099D01*
X204851987Y-143850113D01*
X204854237Y-143854915D01*
X204856698Y-143859505D01*
X204859363Y-143863884D01*
X204862228Y-143868051D01*
X204865288Y-143872005D01*
X204868538Y-143875747D01*
X204871972Y-143879277D01*
X204875586Y-143882594D01*
X204879374Y-143885699D01*
X204883331Y-143888590D01*
X204887452Y-143891268D01*
X204891732Y-143893733D01*
X204896166Y-143895985D01*
X204900749Y-143898022D01*
X204905476Y-143899847D01*
X204910341Y-143901457D01*
X204915339Y-143902853D01*
X204920466Y-143904034D01*
X204925716Y-143905001D01*
X204931084Y-143905754D01*
X204936565Y-143906292D01*
X204942154Y-143906614D01*
X204947846Y-143906722D01*
X204954267Y-143906538D01*
X204960731Y-143905992D01*
X204967216Y-143905089D01*
X204973706Y-143903837D01*
X204980179Y-143902240D01*
X204986618Y-143900307D01*
X204993003Y-143898043D01*
X204999315Y-143895455D01*
X205005535Y-143892549D01*
X205011644Y-143889332D01*
X205017623Y-143885810D01*
X205023453Y-143881990D01*
X205029114Y-143877877D01*
X205034587Y-143873479D01*
X205039854Y-143868802D01*
X205044895Y-143863852D01*
X205109619Y-143918921D01*
X205101272Y-143928090D01*
X205092633Y-143936573D01*
X205083716Y-143944386D01*
X205074538Y-143951539D01*
X205065113Y-143958046D01*
X205055457Y-143963920D01*
X205045586Y-143969174D01*
X205035514Y-143973820D01*
X205025258Y-143977871D01*
X205014831Y-143981341D01*
X205004251Y-143984241D01*
X204993532Y-143986586D01*
X204982689Y-143988387D01*
X204971739Y-143989657D01*
X204960695Y-143990410D01*
X204949575Y-143990658D01*
X204932377Y-143990122D01*
X204915007Y-143988423D01*
X204897643Y-143985421D01*
X204880461Y-143980979D01*
X204863637Y-143974959D01*
X204855415Y-143971314D01*
X204847349Y-143967222D01*
X204839461Y-143962666D01*
X204831773Y-143957630D01*
X204824307Y-143952095D01*
X204817086Y-143946045D01*
X204810131Y-143939462D01*
X204803465Y-143932328D01*
X204797109Y-143924628D01*
X204791086Y-143916342D01*
X204785418Y-143907455D01*
X204780127Y-143897948D01*
X204775235Y-143887806D01*
X204770764Y-143877009D01*
X204766736Y-143865541D01*
X204763174Y-143853385D01*
X204760099Y-143840523D01*
X204757534Y-143826938D01*
X204755500Y-143812614D01*
X204754020Y-143797531D01*
X204753115Y-143781674D01*
X204752809Y-143765025D01*
X204753090Y-143749212D01*
X204753920Y-143734069D01*
X204754870Y-143723934D01*
X204842030Y-143723934D01*
X205029165Y-143723934D01*
X205028813Y-143717708D01*
X205028255Y-143711669D01*
X205027495Y-143705816D01*
X205026538Y-143700150D01*
X205025387Y-143694672D01*
X205024046Y-143689383D01*
X205022518Y-143684283D01*
X205020810Y-143679374D01*
X205018923Y-143674657D01*
X205016862Y-143670131D01*
X205014631Y-143665798D01*
X205012235Y-143661658D01*
X205009676Y-143657713D01*
X205006960Y-143653963D01*
X205004089Y-143650408D01*
X205001069Y-143647051D01*
X204997902Y-143643890D01*
X204994594Y-143640928D01*
X204991147Y-143638165D01*
X204987567Y-143635602D01*
X204983856Y-143633239D01*
X204980020Y-143631078D01*
X204976061Y-143629119D01*
X204971984Y-143627363D01*
X204967793Y-143625810D01*
X204963492Y-143624462D01*
X204959085Y-143623319D01*
X204954576Y-143622382D01*
X204949969Y-143621652D01*
X204945267Y-143621130D01*
X204940475Y-143620816D01*
X204935598Y-143620711D01*
X204930717Y-143620816D01*
X204925918Y-143621130D01*
X204921205Y-143621652D01*
X204916582Y-143622382D01*
X204912054Y-143623319D01*
X204907625Y-143624462D01*
X204903299Y-143625810D01*
X204899083Y-143627363D01*
X204894978Y-143629119D01*
X204890992Y-143631078D01*
X204887126Y-143633239D01*
X204883387Y-143635602D01*
X204879779Y-143638165D01*
X204876306Y-143640928D01*
X204872973Y-143643890D01*
X204869784Y-143647051D01*
X204866743Y-143650408D01*
X204863856Y-143653963D01*
X204861126Y-143657713D01*
X204858559Y-143661658D01*
X204856158Y-143665798D01*
X204853928Y-143670131D01*
X204851874Y-143674657D01*
X204850000Y-143679374D01*
X204848311Y-143684283D01*
X204846810Y-143689383D01*
X204845503Y-143694672D01*
X204844395Y-143700150D01*
X204843489Y-143705816D01*
X204842790Y-143711669D01*
X204842302Y-143717708D01*
X204842030Y-143723934D01*
X204754870Y-143723934D01*
X204755278Y-143719585D01*
X204757146Y-143705750D01*
X204759502Y-143692552D01*
X204762328Y-143679980D01*
X204765604Y-143668023D01*
X204769309Y-143656671D01*
X204773424Y-143645912D01*
X204777930Y-143635735D01*
X204782805Y-143626129D01*
X204788031Y-143617083D01*
X204793587Y-143608586D01*
X204799455Y-143600627D01*
X204805613Y-143593194D01*
X204812042Y-143586278D01*
X204818722Y-143579866D01*
X204825634Y-143573948D01*
X204832758Y-143568513D01*
X204840073Y-143563549D01*
X204847560Y-143559046D01*
X204855199Y-143554992D01*
X204862971Y-143551377D01*
X204870855Y-143548189D01*
X204878832Y-143545418D01*
X204886881Y-143543052D01*
X204894984Y-143541080D01*
X204903120Y-143539492D01*
X204919411Y-143537421D01*
X204935598Y-143536750D01*
X204944737Y-143536962D01*
G37*
G36*
X201915832Y-144237560D02*
G01*
X201935061Y-144238913D01*
X201953370Y-144241233D01*
X201962161Y-144242771D01*
X201970699Y-144244570D01*
X201978977Y-144246638D01*
X201986988Y-144248979D01*
X201994723Y-144251601D01*
X202002176Y-144254511D01*
X202009339Y-144257715D01*
X202016204Y-144261219D01*
X202022763Y-144265031D01*
X202029010Y-144269156D01*
X202034937Y-144273601D01*
X202040536Y-144278373D01*
X202045800Y-144283479D01*
X202050720Y-144288924D01*
X202055291Y-144294716D01*
X202059503Y-144300860D01*
X202063350Y-144307365D01*
X202066824Y-144314235D01*
X202069918Y-144321478D01*
X202072623Y-144329100D01*
X202074933Y-144337108D01*
X202076840Y-144345508D01*
X202078336Y-144354308D01*
X202079414Y-144363512D01*
X202080066Y-144373129D01*
X202080285Y-144383164D01*
X202080285Y-144685770D01*
X201991064Y-144685770D01*
X201991064Y-144646407D01*
X201989311Y-144646407D01*
X201985723Y-144651954D01*
X201981821Y-144657116D01*
X201977581Y-144661896D01*
X201972976Y-144666298D01*
X201967981Y-144670325D01*
X201962571Y-144673982D01*
X201956720Y-144677273D01*
X201950402Y-144680201D01*
X201943592Y-144682771D01*
X201936264Y-144684985D01*
X201928392Y-144686848D01*
X201919952Y-144688364D01*
X201910917Y-144689536D01*
X201901262Y-144690369D01*
X201890961Y-144690865D01*
X201879989Y-144691030D01*
X201870845Y-144690860D01*
X201861945Y-144690353D01*
X201853291Y-144689518D01*
X201844888Y-144688362D01*
X201836738Y-144686891D01*
X201828844Y-144685115D01*
X201821210Y-144683038D01*
X201813837Y-144680671D01*
X201806730Y-144678018D01*
X201799890Y-144675089D01*
X201793323Y-144671890D01*
X201787029Y-144668428D01*
X201781013Y-144664712D01*
X201775277Y-144660747D01*
X201769825Y-144656543D01*
X201764660Y-144652105D01*
X201759783Y-144647442D01*
X201755200Y-144642561D01*
X201750912Y-144637469D01*
X201746922Y-144632173D01*
X201743235Y-144626681D01*
X201739852Y-144621001D01*
X201736777Y-144615139D01*
X201734012Y-144609103D01*
X201731562Y-144602900D01*
X201729428Y-144596538D01*
X201727614Y-144590024D01*
X201726123Y-144583366D01*
X201724959Y-144576570D01*
X201724123Y-144569644D01*
X201723619Y-144562596D01*
X201723451Y-144555433D01*
X201723544Y-144551111D01*
X201807387Y-144551111D01*
X201807667Y-144556635D01*
X201808520Y-144562044D01*
X201809966Y-144567304D01*
X201812023Y-144572384D01*
X201813286Y-144574845D01*
X201814710Y-144577248D01*
X201816296Y-144579589D01*
X201818047Y-144581864D01*
X201819966Y-144584068D01*
X201822053Y-144586198D01*
X201824313Y-144588250D01*
X201826748Y-144590218D01*
X201829359Y-144592099D01*
X201832149Y-144593889D01*
X201835121Y-144595584D01*
X201838277Y-144597180D01*
X201841619Y-144598671D01*
X201845150Y-144600055D01*
X201848873Y-144601327D01*
X201852789Y-144602482D01*
X201861211Y-144604428D01*
X201870436Y-144605859D01*
X201880484Y-144606742D01*
X201891373Y-144607044D01*
X201904742Y-144606939D01*
X201916997Y-144606572D01*
X201928175Y-144605864D01*
X201938308Y-144604737D01*
X201942994Y-144603992D01*
X201947432Y-144603113D01*
X201951626Y-144602091D01*
X201955581Y-144600914D01*
X201959300Y-144599575D01*
X201962789Y-144598062D01*
X201966052Y-144596366D01*
X201969092Y-144594478D01*
X201971915Y-144592387D01*
X201974525Y-144590083D01*
X201976925Y-144587558D01*
X201979120Y-144584801D01*
X201981115Y-144581802D01*
X201982914Y-144578552D01*
X201984521Y-144575041D01*
X201985940Y-144571258D01*
X201987177Y-144567195D01*
X201988234Y-144562842D01*
X201989117Y-144558188D01*
X201989829Y-144553224D01*
X201990376Y-144547940D01*
X201990761Y-144542326D01*
X201990989Y-144536374D01*
X201991064Y-144530071D01*
X201991064Y-144497697D01*
X201884384Y-144497697D01*
X201879544Y-144497758D01*
X201874868Y-144497941D01*
X201870354Y-144498244D01*
X201866003Y-144498664D01*
X201861812Y-144499201D01*
X201857783Y-144499852D01*
X201853914Y-144500616D01*
X201850205Y-144501490D01*
X201846655Y-144502474D01*
X201843262Y-144503565D01*
X201840028Y-144504761D01*
X201836950Y-144506061D01*
X201834029Y-144507463D01*
X201831264Y-144508966D01*
X201828654Y-144510566D01*
X201826198Y-144512264D01*
X201823896Y-144514056D01*
X201821747Y-144515941D01*
X201819751Y-144517917D01*
X201817907Y-144519983D01*
X201816213Y-144522137D01*
X201814671Y-144524377D01*
X201813278Y-144526701D01*
X201812035Y-144529107D01*
X201810940Y-144531594D01*
X201809994Y-144534160D01*
X201809195Y-144536803D01*
X201808542Y-144539521D01*
X201808036Y-144542313D01*
X201807675Y-144545176D01*
X201807459Y-144548110D01*
X201807387Y-144551111D01*
X201723544Y-144551111D01*
X201723594Y-144548827D01*
X201724024Y-144542292D01*
X201724740Y-144535836D01*
X201725741Y-144529469D01*
X201727027Y-144523199D01*
X201728598Y-144517037D01*
X201730453Y-144510990D01*
X201732591Y-144505068D01*
X201735013Y-144499280D01*
X201737717Y-144493636D01*
X201740704Y-144488145D01*
X201743971Y-144482815D01*
X201747521Y-144477655D01*
X201751350Y-144472676D01*
X201755461Y-144467886D01*
X201759850Y-144463294D01*
X201764519Y-144458910D01*
X201769467Y-144454742D01*
X201774693Y-144450800D01*
X201780197Y-144447093D01*
X201785979Y-144443630D01*
X201792037Y-144440420D01*
X201798371Y-144437472D01*
X201804982Y-144434796D01*
X201811868Y-144432400D01*
X201819028Y-144430294D01*
X201826464Y-144428487D01*
X201834173Y-144426988D01*
X201842156Y-144425806D01*
X201850412Y-144424951D01*
X201858940Y-144424431D01*
X201867740Y-144424256D01*
X201991064Y-144424256D01*
X201991064Y-144377904D01*
X201990744Y-144370351D01*
X201990341Y-144366807D01*
X201989775Y-144363415D01*
X201989042Y-144360172D01*
X201988141Y-144357076D01*
X201987071Y-144354126D01*
X201985830Y-144351318D01*
X201984416Y-144348651D01*
X201982827Y-144346123D01*
X201981062Y-144343730D01*
X201979119Y-144341472D01*
X201976995Y-144339346D01*
X201974690Y-144337349D01*
X201972202Y-144335480D01*
X201969528Y-144333735D01*
X201966667Y-144332114D01*
X201963617Y-144330613D01*
X201956944Y-144327965D01*
X201949495Y-144325773D01*
X201941256Y-144324019D01*
X201932212Y-144322686D01*
X201922350Y-144321756D01*
X201911656Y-144321211D01*
X201900115Y-144321033D01*
X201891706Y-144321138D01*
X201883844Y-144321460D01*
X201876502Y-144322011D01*
X201869653Y-144322803D01*
X201866405Y-144323292D01*
X201863271Y-144323846D01*
X201860246Y-144324465D01*
X201857327Y-144325152D01*
X201854512Y-144325907D01*
X201851796Y-144326732D01*
X201849177Y-144327629D01*
X201846651Y-144328599D01*
X201844215Y-144329643D01*
X201841865Y-144330762D01*
X201839598Y-144331959D01*
X201837411Y-144333234D01*
X201835300Y-144334590D01*
X201833261Y-144336026D01*
X201831293Y-144337546D01*
X201829391Y-144339150D01*
X201827551Y-144340839D01*
X201825771Y-144342616D01*
X201824047Y-144344481D01*
X201822377Y-144346436D01*
X201820755Y-144348483D01*
X201819180Y-144350622D01*
X201817647Y-144352856D01*
X201816154Y-144355185D01*
X201746194Y-144301845D01*
X201752763Y-144293329D01*
X201759685Y-144285494D01*
X201766963Y-144278321D01*
X201774600Y-144271792D01*
X201782602Y-144265890D01*
X201790971Y-144260595D01*
X201799712Y-144255891D01*
X201808829Y-144251759D01*
X201818325Y-144248180D01*
X201828204Y-144245138D01*
X201838470Y-144242613D01*
X201849127Y-144240588D01*
X201860179Y-144239044D01*
X201871630Y-144237964D01*
X201883484Y-144237329D01*
X201895744Y-144237121D01*
X201915832Y-144237560D01*
G37*
G36*
X203708376Y-144237560D02*
G01*
X203727598Y-144238913D01*
X203745901Y-144241233D01*
X203754690Y-144242771D01*
X203763226Y-144244570D01*
X203771503Y-144246638D01*
X203779512Y-144248979D01*
X203787247Y-144251601D01*
X203794699Y-144254511D01*
X203801861Y-144257715D01*
X203808725Y-144261219D01*
X203815285Y-144265031D01*
X203821532Y-144269156D01*
X203827459Y-144273601D01*
X203833058Y-144278373D01*
X203838322Y-144283479D01*
X203843243Y-144288924D01*
X203847814Y-144294716D01*
X203852027Y-144300860D01*
X203855874Y-144307365D01*
X203859349Y-144314235D01*
X203862443Y-144321478D01*
X203865149Y-144329100D01*
X203867459Y-144337108D01*
X203869366Y-144345508D01*
X203870863Y-144354308D01*
X203871941Y-144363512D01*
X203872594Y-144373129D01*
X203872813Y-144383164D01*
X203872813Y-144685770D01*
X203783592Y-144685770D01*
X203783592Y-144646407D01*
X203781863Y-144646407D01*
X203778270Y-144651954D01*
X203774364Y-144657116D01*
X203770120Y-144661896D01*
X203765511Y-144666298D01*
X203760512Y-144670325D01*
X203755098Y-144673982D01*
X203749244Y-144677273D01*
X203742923Y-144680201D01*
X203736111Y-144682771D01*
X203728782Y-144684985D01*
X203720910Y-144686848D01*
X203712469Y-144688364D01*
X203703435Y-144689536D01*
X203693782Y-144690369D01*
X203683484Y-144690865D01*
X203672516Y-144691030D01*
X203663372Y-144690860D01*
X203654472Y-144690353D01*
X203645818Y-144689518D01*
X203637415Y-144688362D01*
X203629264Y-144686891D01*
X203621370Y-144685115D01*
X203613734Y-144683038D01*
X203606361Y-144680671D01*
X203599252Y-144678018D01*
X203592412Y-144675089D01*
X203585844Y-144671890D01*
X203579549Y-144668428D01*
X203573532Y-144664712D01*
X203567795Y-144660747D01*
X203562342Y-144656543D01*
X203557175Y-144652105D01*
X203552297Y-144647442D01*
X203547713Y-144642561D01*
X203543424Y-144637469D01*
X203539433Y-144632173D01*
X203535744Y-144626681D01*
X203532360Y-144621001D01*
X203529284Y-144615139D01*
X203526519Y-144609103D01*
X203524068Y-144602900D01*
X203521933Y-144596538D01*
X203520119Y-144590024D01*
X203518627Y-144583366D01*
X203517462Y-144576570D01*
X203516626Y-144569644D01*
X203516122Y-144562596D01*
X203515954Y-144555433D01*
X203516047Y-144551111D01*
X203599915Y-144551111D01*
X203600195Y-144556635D01*
X203601049Y-144562044D01*
X203602496Y-144567304D01*
X203604554Y-144572384D01*
X203605818Y-144574845D01*
X203607243Y-144577248D01*
X203608830Y-144579589D01*
X203610582Y-144581864D01*
X203612501Y-144584068D01*
X203614589Y-144586198D01*
X203616850Y-144588250D01*
X203619285Y-144590218D01*
X203621896Y-144592099D01*
X203624687Y-144593889D01*
X203627659Y-144595584D01*
X203630815Y-144597180D01*
X203634158Y-144598671D01*
X203637689Y-144600055D01*
X203641411Y-144601327D01*
X203645327Y-144602482D01*
X203653748Y-144604428D01*
X203662971Y-144605859D01*
X203673016Y-144606742D01*
X203683901Y-144607044D01*
X203697269Y-144606939D01*
X203709525Y-144606572D01*
X203720702Y-144605864D01*
X203730835Y-144604737D01*
X203735521Y-144603992D01*
X203739959Y-144603113D01*
X203744153Y-144602091D01*
X203748108Y-144600914D01*
X203751828Y-144599575D01*
X203755317Y-144598062D01*
X203758580Y-144596366D01*
X203761620Y-144594478D01*
X203764443Y-144592387D01*
X203767052Y-144590083D01*
X203769452Y-144587558D01*
X203771648Y-144584801D01*
X203773643Y-144581802D01*
X203775441Y-144578552D01*
X203777048Y-144575041D01*
X203778468Y-144571258D01*
X203779704Y-144567195D01*
X203780762Y-144562842D01*
X203781644Y-144558188D01*
X203782357Y-144553224D01*
X203782904Y-144547940D01*
X203783289Y-144542326D01*
X203783517Y-144536374D01*
X203783592Y-144530071D01*
X203783592Y-144497697D01*
X203676912Y-144497697D01*
X203672074Y-144497758D01*
X203667400Y-144497941D01*
X203662888Y-144498244D01*
X203658537Y-144498664D01*
X203654348Y-144499201D01*
X203650320Y-144499852D01*
X203646452Y-144500616D01*
X203642743Y-144501490D01*
X203639193Y-144502474D01*
X203635801Y-144503565D01*
X203632567Y-144504761D01*
X203629489Y-144506061D01*
X203626568Y-144507463D01*
X203623802Y-144508966D01*
X203621191Y-144510566D01*
X203618735Y-144512264D01*
X203616432Y-144514056D01*
X203614283Y-144515941D01*
X203612286Y-144517917D01*
X203610441Y-144519983D01*
X203608747Y-144522137D01*
X203607204Y-144524377D01*
X203605810Y-144526701D01*
X203604566Y-144529107D01*
X203603471Y-144531594D01*
X203602524Y-144534160D01*
X203601724Y-144536803D01*
X203601071Y-144539521D01*
X203600564Y-144542313D01*
X203600203Y-144545176D01*
X203599987Y-144548110D01*
X203599915Y-144551111D01*
X203516047Y-144551111D01*
X203516097Y-144548827D01*
X203516527Y-144542292D01*
X203517243Y-144535836D01*
X203518245Y-144529469D01*
X203519532Y-144523199D01*
X203521103Y-144517037D01*
X203522959Y-144510990D01*
X203525098Y-144505068D01*
X203527521Y-144499280D01*
X203530226Y-144493636D01*
X203533213Y-144488145D01*
X203536482Y-144482815D01*
X203540032Y-144477655D01*
X203543863Y-144472676D01*
X203547975Y-144467886D01*
X203552366Y-144463294D01*
X203557036Y-144458910D01*
X203561985Y-144454742D01*
X203567212Y-144450800D01*
X203572717Y-144447093D01*
X203578499Y-144443630D01*
X203584559Y-144440420D01*
X203590894Y-144437472D01*
X203597506Y-144434796D01*
X203604392Y-144432400D01*
X203611554Y-144430294D01*
X203618990Y-144428487D01*
X203626700Y-144426988D01*
X203634683Y-144425806D01*
X203642939Y-144424951D01*
X203651467Y-144424431D01*
X203660268Y-144424256D01*
X203783592Y-144424256D01*
X203783592Y-144377904D01*
X203783272Y-144370351D01*
X203782869Y-144366807D01*
X203782302Y-144363415D01*
X203781569Y-144360172D01*
X203780669Y-144357076D01*
X203779599Y-144354126D01*
X203778358Y-144351318D01*
X203776943Y-144348651D01*
X203775354Y-144346123D01*
X203773589Y-144343730D01*
X203771645Y-144341472D01*
X203769521Y-144339346D01*
X203767216Y-144337349D01*
X203764727Y-144335480D01*
X203762052Y-144333735D01*
X203759191Y-144332114D01*
X203756140Y-144330613D01*
X203749466Y-144327965D01*
X203742015Y-144325773D01*
X203733773Y-144324019D01*
X203724727Y-144322686D01*
X203714861Y-144321756D01*
X203704163Y-144321211D01*
X203692618Y-144321033D01*
X203684210Y-144321138D01*
X203676349Y-144321460D01*
X203669010Y-144322011D01*
X203662164Y-144322803D01*
X203658918Y-144323292D01*
X203655785Y-144323846D01*
X203652762Y-144324465D01*
X203649846Y-144325152D01*
X203647033Y-144325907D01*
X203644319Y-144326732D01*
X203641702Y-144327629D01*
X203639179Y-144328599D01*
X203636745Y-144329643D01*
X203634397Y-144330762D01*
X203632132Y-144331959D01*
X203629947Y-144333234D01*
X203627838Y-144334590D01*
X203625802Y-144336026D01*
X203623836Y-144337546D01*
X203621935Y-144339150D01*
X203620097Y-144340839D01*
X203618319Y-144342616D01*
X203616596Y-144344481D01*
X203614927Y-144346436D01*
X203613306Y-144348483D01*
X203611731Y-144350622D01*
X203610199Y-144352856D01*
X203608706Y-144355185D01*
X203538722Y-144301845D01*
X203545291Y-144293329D01*
X203552214Y-144285494D01*
X203559493Y-144278321D01*
X203567132Y-144271792D01*
X203575135Y-144265890D01*
X203583507Y-144260595D01*
X203592250Y-144255891D01*
X203601369Y-144251759D01*
X203610867Y-144248180D01*
X203620748Y-144245138D01*
X203631017Y-144242613D01*
X203641676Y-144240588D01*
X203652729Y-144239044D01*
X203664182Y-144237964D01*
X203676036Y-144237329D01*
X203688296Y-144237121D01*
X203708376Y-144237560D01*
G37*
G36*
X201054247Y-143536834D02*
G01*
X201060479Y-143537088D01*
X201066551Y-143537505D01*
X201072466Y-143538079D01*
X201078225Y-143538803D01*
X201083831Y-143539672D01*
X201089286Y-143540680D01*
X201094591Y-143541821D01*
X201099749Y-143543088D01*
X201104762Y-143544477D01*
X201109632Y-143545980D01*
X201114362Y-143547593D01*
X201118952Y-143549308D01*
X201123405Y-143551121D01*
X201127724Y-143553026D01*
X201131910Y-143555015D01*
X201139892Y-143559227D01*
X201147368Y-143563709D01*
X201154356Y-143568414D01*
X201160870Y-143573294D01*
X201166929Y-143578302D01*
X201172549Y-143583390D01*
X201177746Y-143588512D01*
X201182536Y-143593619D01*
X201188697Y-143600675D01*
X201194395Y-143607797D01*
X201199639Y-143615073D01*
X201204440Y-143622589D01*
X201208805Y-143630434D01*
X201212744Y-143638693D01*
X201216265Y-143647455D01*
X201219377Y-143656806D01*
X201222090Y-143666833D01*
X201224412Y-143677625D01*
X201226353Y-143689267D01*
X201227920Y-143701848D01*
X201229124Y-143715453D01*
X201229973Y-143730172D01*
X201230475Y-143746090D01*
X201230641Y-143763294D01*
X201230475Y-143780643D01*
X201229973Y-143796688D01*
X201229124Y-143811518D01*
X201227920Y-143825220D01*
X201226353Y-143837883D01*
X201224412Y-143849595D01*
X201222090Y-143860445D01*
X201219377Y-143870521D01*
X201216265Y-143879910D01*
X201212744Y-143888701D01*
X201208805Y-143896983D01*
X201204440Y-143904843D01*
X201199639Y-143912370D01*
X201194395Y-143919652D01*
X201188697Y-143926777D01*
X201182536Y-143933834D01*
X201177746Y-143938940D01*
X201172549Y-143944060D01*
X201166929Y-143949147D01*
X201160870Y-143954151D01*
X201154356Y-143959028D01*
X201147368Y-143963728D01*
X201139892Y-143968206D01*
X201131910Y-143972413D01*
X201123405Y-143976302D01*
X201114362Y-143979827D01*
X201104762Y-143982938D01*
X201094591Y-143985591D01*
X201083831Y-143987736D01*
X201072466Y-143989327D01*
X201060479Y-143990316D01*
X201047853Y-143990656D01*
X201041457Y-143990570D01*
X201035223Y-143990316D01*
X201029148Y-143989899D01*
X201023231Y-143989327D01*
X201017470Y-143988604D01*
X201011863Y-143987736D01*
X201006407Y-143986730D01*
X201001100Y-143985591D01*
X200995941Y-143984325D01*
X200990926Y-143982938D01*
X200986055Y-143981437D01*
X200981325Y-143979827D01*
X200976734Y-143978113D01*
X200972280Y-143976302D01*
X200967961Y-143974400D01*
X200963774Y-143972413D01*
X200955791Y-143968206D01*
X200948314Y-143963728D01*
X200941326Y-143959028D01*
X200934811Y-143954151D01*
X200928752Y-143949147D01*
X200923132Y-143944060D01*
X200917935Y-143938940D01*
X200913145Y-143933834D01*
X200906985Y-143926777D01*
X200901287Y-143919652D01*
X200896044Y-143912370D01*
X200891245Y-143904843D01*
X200886882Y-143896983D01*
X200882945Y-143888701D01*
X200879426Y-143879910D01*
X200876316Y-143870521D01*
X200873605Y-143860445D01*
X200871285Y-143849595D01*
X200869347Y-143837883D01*
X200867781Y-143825220D01*
X200866579Y-143811518D01*
X200865732Y-143796688D01*
X200865230Y-143780643D01*
X200865065Y-143763294D01*
X200954261Y-143763294D01*
X200954324Y-143774889D01*
X200954519Y-143785455D01*
X200954856Y-143795069D01*
X200955342Y-143803810D01*
X200955988Y-143811757D01*
X200956802Y-143818987D01*
X200957792Y-143825579D01*
X200958968Y-143831611D01*
X200960339Y-143837162D01*
X200961914Y-143842310D01*
X200963701Y-143847132D01*
X200965710Y-143851708D01*
X200967950Y-143856116D01*
X200970428Y-143860433D01*
X200973156Y-143864738D01*
X200976140Y-143869110D01*
X200978770Y-143872501D01*
X200981730Y-143875776D01*
X200985003Y-143878920D01*
X200988571Y-143881919D01*
X200992416Y-143884760D01*
X200996519Y-143887427D01*
X201000863Y-143889908D01*
X201005431Y-143892187D01*
X201010203Y-143894251D01*
X201015163Y-143896085D01*
X201020293Y-143897676D01*
X201025573Y-143899010D01*
X201030988Y-143900071D01*
X201036518Y-143900847D01*
X201042145Y-143901323D01*
X201047853Y-143901485D01*
X201053556Y-143901323D01*
X201059180Y-143900847D01*
X201064707Y-143900071D01*
X201070118Y-143899010D01*
X201075397Y-143897676D01*
X201080525Y-143896085D01*
X201085484Y-143894251D01*
X201090256Y-143892187D01*
X201094824Y-143889908D01*
X201099169Y-143887427D01*
X201103274Y-143884760D01*
X201107121Y-143881919D01*
X201110691Y-143878920D01*
X201113967Y-143875776D01*
X201116931Y-143872501D01*
X201118291Y-143870819D01*
X201119565Y-143869110D01*
X201122550Y-143864738D01*
X201125276Y-143860434D01*
X201127754Y-143856121D01*
X201129992Y-143851722D01*
X201131999Y-143847159D01*
X201133784Y-143842355D01*
X201135356Y-143837235D01*
X201136725Y-143831720D01*
X201137899Y-143825733D01*
X201138887Y-143819198D01*
X201139699Y-143812038D01*
X201140342Y-143804175D01*
X201140827Y-143795532D01*
X201141163Y-143786034D01*
X201141420Y-143764159D01*
X201141357Y-143752563D01*
X201141163Y-143741996D01*
X201140827Y-143732380D01*
X201140342Y-143723636D01*
X201139699Y-143715686D01*
X201138887Y-143708453D01*
X201137899Y-143701858D01*
X201136725Y-143695823D01*
X201135356Y-143690270D01*
X201133784Y-143685121D01*
X201131999Y-143680299D01*
X201129992Y-143675724D01*
X201127754Y-143671319D01*
X201125276Y-143667006D01*
X201122550Y-143662706D01*
X201119565Y-143658343D01*
X201116931Y-143654951D01*
X201113967Y-143651677D01*
X201110691Y-143648533D01*
X201107121Y-143645533D01*
X201103274Y-143642693D01*
X201099169Y-143640025D01*
X201094824Y-143637545D01*
X201090256Y-143635266D01*
X201085484Y-143633202D01*
X201080525Y-143631368D01*
X201075397Y-143629777D01*
X201070118Y-143628443D01*
X201064707Y-143627382D01*
X201059180Y-143626606D01*
X201053556Y-143626130D01*
X201047853Y-143625968D01*
X201042145Y-143626130D01*
X201036518Y-143626606D01*
X201030988Y-143627382D01*
X201025573Y-143628443D01*
X201020293Y-143629777D01*
X201015163Y-143631368D01*
X201010203Y-143633202D01*
X201005431Y-143635266D01*
X201000863Y-143637545D01*
X200996519Y-143640025D01*
X200992416Y-143642693D01*
X200988571Y-143645533D01*
X200985003Y-143648533D01*
X200981730Y-143651677D01*
X200978770Y-143654951D01*
X200977413Y-143656633D01*
X200976140Y-143658343D01*
X200973156Y-143662706D01*
X200970428Y-143667004D01*
X200967950Y-143671313D01*
X200965710Y-143675710D01*
X200963701Y-143680272D01*
X200961914Y-143685076D01*
X200960339Y-143690198D01*
X200958968Y-143695715D01*
X200957792Y-143701704D01*
X200956802Y-143708242D01*
X200955988Y-143715405D01*
X200955342Y-143723271D01*
X200954856Y-143731916D01*
X200954519Y-143741417D01*
X200954261Y-143763294D01*
X200865065Y-143763294D01*
X200865230Y-143746090D01*
X200865732Y-143730172D01*
X200866579Y-143715453D01*
X200867781Y-143701848D01*
X200869347Y-143689267D01*
X200871285Y-143677625D01*
X200873605Y-143666833D01*
X200876316Y-143656806D01*
X200879426Y-143647455D01*
X200882945Y-143638693D01*
X200886882Y-143630434D01*
X200891245Y-143622589D01*
X200896044Y-143615073D01*
X200901287Y-143607797D01*
X200906985Y-143600675D01*
X200913145Y-143593619D01*
X200917935Y-143588512D01*
X200923132Y-143583390D01*
X200928752Y-143578302D01*
X200934811Y-143573294D01*
X200941326Y-143568414D01*
X200948314Y-143563709D01*
X200955791Y-143559227D01*
X200963774Y-143555015D01*
X200972280Y-143551121D01*
X200981325Y-143547593D01*
X200990926Y-143544477D01*
X201001100Y-143541821D01*
X201011863Y-143539672D01*
X201023231Y-143538079D01*
X201035223Y-143537088D01*
X201047853Y-143536747D01*
X201054247Y-143536834D01*
G37*
G36*
X203376795Y-143536834D02*
G01*
X203383031Y-143537088D01*
X203389107Y-143537505D01*
X203395025Y-143538079D01*
X203400788Y-143538803D01*
X203406396Y-143539672D01*
X203411853Y-143540680D01*
X203417160Y-143541821D01*
X203422320Y-143543088D01*
X203427334Y-143544477D01*
X203432205Y-143545980D01*
X203436935Y-143547593D01*
X203441526Y-143549308D01*
X203445980Y-143551121D01*
X203450299Y-143553026D01*
X203454485Y-143555015D01*
X203462467Y-143559227D01*
X203469942Y-143563709D01*
X203476929Y-143568414D01*
X203483442Y-143573294D01*
X203489500Y-143578302D01*
X203495119Y-143583390D01*
X203500315Y-143588512D01*
X203505105Y-143593619D01*
X203511265Y-143600675D01*
X203516963Y-143607797D01*
X203522206Y-143615073D01*
X203527005Y-143622589D01*
X203531368Y-143630434D01*
X203535305Y-143638693D01*
X203538824Y-143647455D01*
X203541934Y-143656806D01*
X203544645Y-143666833D01*
X203546965Y-143677625D01*
X203548903Y-143689267D01*
X203550469Y-143701848D01*
X203551671Y-143715453D01*
X203552518Y-143730172D01*
X203553020Y-143746090D01*
X203553185Y-143763294D01*
X203553020Y-143780643D01*
X203552518Y-143796688D01*
X203551671Y-143811518D01*
X203550469Y-143825220D01*
X203548903Y-143837883D01*
X203546965Y-143849595D01*
X203544645Y-143860445D01*
X203541934Y-143870521D01*
X203538824Y-143879910D01*
X203535305Y-143888701D01*
X203531368Y-143896983D01*
X203527005Y-143904843D01*
X203522206Y-143912370D01*
X203516963Y-143919652D01*
X203511265Y-143926777D01*
X203505105Y-143933834D01*
X203500315Y-143938940D01*
X203495119Y-143944060D01*
X203489500Y-143949147D01*
X203483442Y-143954151D01*
X203476929Y-143959028D01*
X203469942Y-143963728D01*
X203462467Y-143968206D01*
X203454485Y-143972413D01*
X203445980Y-143976302D01*
X203436935Y-143979827D01*
X203427334Y-143982938D01*
X203417160Y-143985591D01*
X203406396Y-143987736D01*
X203395025Y-143989327D01*
X203383031Y-143990316D01*
X203370397Y-143990656D01*
X203364003Y-143990570D01*
X203357771Y-143990316D01*
X203351699Y-143989899D01*
X203345785Y-143989327D01*
X203340026Y-143988604D01*
X203334421Y-143987736D01*
X203328967Y-143986730D01*
X203323662Y-143985591D01*
X203318505Y-143984325D01*
X203313493Y-143982938D01*
X203308624Y-143981437D01*
X203303896Y-143979827D01*
X203299307Y-143978113D01*
X203294855Y-143976302D01*
X203290537Y-143974400D01*
X203286353Y-143972413D01*
X203278373Y-143968206D01*
X203270898Y-143963728D01*
X203263913Y-143959028D01*
X203257400Y-143954151D01*
X203251343Y-143949147D01*
X203245725Y-143944060D01*
X203240529Y-143938940D01*
X203235738Y-143933834D01*
X203229578Y-143926777D01*
X203223879Y-143919652D01*
X203218633Y-143912370D01*
X203213831Y-143904843D01*
X203209464Y-143896983D01*
X203205523Y-143888701D01*
X203202000Y-143879910D01*
X203198885Y-143870521D01*
X203196170Y-143860445D01*
X203193845Y-143849595D01*
X203191903Y-143837883D01*
X203190333Y-143825220D01*
X203189128Y-143811518D01*
X203188278Y-143796688D01*
X203187775Y-143780643D01*
X203187609Y-143763294D01*
X203276830Y-143763294D01*
X203276893Y-143774889D01*
X203277088Y-143785455D01*
X203277425Y-143795069D01*
X203277912Y-143803810D01*
X203278558Y-143811757D01*
X203279372Y-143818987D01*
X203280363Y-143825579D01*
X203281540Y-143831611D01*
X203282913Y-143837162D01*
X203284489Y-143842310D01*
X203286278Y-143847132D01*
X203288290Y-143851708D01*
X203290532Y-143856116D01*
X203293014Y-143860433D01*
X203295745Y-143864738D01*
X203298734Y-143869110D01*
X203301356Y-143872501D01*
X203304310Y-143875776D01*
X203307578Y-143878920D01*
X203311143Y-143881919D01*
X203314986Y-143884760D01*
X203319088Y-143887427D01*
X203323432Y-143889908D01*
X203328000Y-143892187D01*
X203332772Y-143894251D01*
X203337732Y-143896085D01*
X203342860Y-143897676D01*
X203348139Y-143899010D01*
X203353551Y-143900071D01*
X203359076Y-143900847D01*
X203364698Y-143901323D01*
X203370397Y-143901485D01*
X203376105Y-143901323D01*
X203381732Y-143900847D01*
X203387262Y-143900071D01*
X203392676Y-143899010D01*
X203397957Y-143897676D01*
X203403086Y-143896085D01*
X203408046Y-143894251D01*
X203412819Y-143892187D01*
X203417387Y-143889908D01*
X203421731Y-143887427D01*
X203425834Y-143884760D01*
X203429679Y-143881919D01*
X203433247Y-143878920D01*
X203436520Y-143875776D01*
X203439480Y-143872501D01*
X203440837Y-143870819D01*
X203442110Y-143869110D01*
X203445098Y-143864738D01*
X203447828Y-143860434D01*
X203450307Y-143856121D01*
X203452546Y-143851722D01*
X203454554Y-143847159D01*
X203456339Y-143842355D01*
X203457911Y-143837235D01*
X203459279Y-143831720D01*
X203460451Y-143825733D01*
X203461438Y-143819198D01*
X203462248Y-143812038D01*
X203462890Y-143804175D01*
X203463374Y-143795532D01*
X203463708Y-143786034D01*
X203463964Y-143764159D01*
X203463902Y-143752563D01*
X203463708Y-143741996D01*
X203463374Y-143732380D01*
X203462890Y-143723636D01*
X203462248Y-143715686D01*
X203461438Y-143708453D01*
X203460451Y-143701858D01*
X203459279Y-143695823D01*
X203457911Y-143690270D01*
X203456339Y-143685121D01*
X203454554Y-143680299D01*
X203452546Y-143675724D01*
X203450307Y-143671319D01*
X203447828Y-143667006D01*
X203445098Y-143662706D01*
X203442110Y-143658343D01*
X203439480Y-143654951D01*
X203436520Y-143651677D01*
X203433247Y-143648533D01*
X203429679Y-143645533D01*
X203425834Y-143642693D01*
X203421731Y-143640025D01*
X203417387Y-143637545D01*
X203412819Y-143635266D01*
X203408046Y-143633202D01*
X203403086Y-143631368D01*
X203397957Y-143629777D01*
X203392676Y-143628443D01*
X203387262Y-143627382D01*
X203381732Y-143626606D01*
X203376105Y-143626130D01*
X203370397Y-143625968D01*
X203364698Y-143626130D01*
X203359076Y-143626606D01*
X203353551Y-143627382D01*
X203348139Y-143628443D01*
X203342860Y-143629777D01*
X203337732Y-143631368D01*
X203332772Y-143633202D01*
X203328000Y-143635266D01*
X203323432Y-143637545D01*
X203319088Y-143640025D01*
X203314986Y-143642693D01*
X203311143Y-143645533D01*
X203307578Y-143648533D01*
X203304310Y-143651677D01*
X203301356Y-143654951D01*
X203300002Y-143656633D01*
X203298734Y-143658343D01*
X203295745Y-143662706D01*
X203293014Y-143667004D01*
X203290532Y-143671313D01*
X203288290Y-143675710D01*
X203286278Y-143680272D01*
X203284489Y-143685076D01*
X203282913Y-143690198D01*
X203281540Y-143695715D01*
X203280363Y-143701704D01*
X203279372Y-143708242D01*
X203278558Y-143715405D01*
X203277912Y-143723271D01*
X203277425Y-143731916D01*
X203277088Y-143741417D01*
X203276830Y-143763294D01*
X203187609Y-143763294D01*
X203187775Y-143746090D01*
X203188278Y-143730172D01*
X203189128Y-143715453D01*
X203190333Y-143701848D01*
X203191903Y-143689267D01*
X203193845Y-143677625D01*
X203196170Y-143666833D01*
X203198885Y-143656806D01*
X203202000Y-143647455D01*
X203205523Y-143638693D01*
X203209464Y-143630434D01*
X203213831Y-143622589D01*
X203218633Y-143615073D01*
X203223879Y-143607797D01*
X203229578Y-143600675D01*
X203235738Y-143593619D01*
X203240529Y-143588512D01*
X203245725Y-143583390D01*
X203251343Y-143578302D01*
X203257400Y-143573294D01*
X203263913Y-143568414D01*
X203270898Y-143563709D01*
X203278373Y-143559227D01*
X203286353Y-143555015D01*
X203294855Y-143551121D01*
X203303896Y-143547593D01*
X203313493Y-143544477D01*
X203323662Y-143541821D01*
X203334421Y-143539672D01*
X203345785Y-143538079D01*
X203357771Y-143537088D01*
X203370397Y-143536747D01*
X203376795Y-143536834D01*
G37*
G36*
X202966640Y-143537027D02*
G01*
X202980377Y-143537840D01*
X202993567Y-143539176D01*
X203006233Y-143541019D01*
X203018402Y-143543355D01*
X203030097Y-143546168D01*
X203041342Y-143549442D01*
X203052164Y-143553162D01*
X203062585Y-143557313D01*
X203072631Y-143561879D01*
X203082326Y-143566844D01*
X203091695Y-143572194D01*
X203100762Y-143577913D01*
X203109553Y-143583986D01*
X203118091Y-143590397D01*
X203126401Y-143597130D01*
X203071308Y-143661805D01*
X203064738Y-143657315D01*
X203058130Y-143653020D01*
X203051468Y-143648935D01*
X203044734Y-143645071D01*
X203037913Y-143641441D01*
X203030987Y-143638060D01*
X203023940Y-143634939D01*
X203016755Y-143632091D01*
X203009416Y-143629530D01*
X203001906Y-143627269D01*
X202994209Y-143625320D01*
X202986308Y-143623696D01*
X202978186Y-143622411D01*
X202969827Y-143621476D01*
X202961214Y-143620906D01*
X202952330Y-143620713D01*
X202947113Y-143620780D01*
X202942112Y-143620977D01*
X202937325Y-143621301D01*
X202932748Y-143621751D01*
X202928378Y-143622324D01*
X202924211Y-143623016D01*
X202920244Y-143623825D01*
X202916474Y-143624749D01*
X202912898Y-143625783D01*
X202909511Y-143626927D01*
X202906311Y-143628177D01*
X202903294Y-143629530D01*
X202900457Y-143630983D01*
X202897797Y-143632534D01*
X202895310Y-143634180D01*
X202892992Y-143635919D01*
X202890842Y-143637747D01*
X202888854Y-143639662D01*
X202887026Y-143641661D01*
X202885354Y-143643742D01*
X202883836Y-143645900D01*
X202882467Y-143648135D01*
X202881244Y-143650443D01*
X202880165Y-143652822D01*
X202879225Y-143655268D01*
X202878421Y-143657779D01*
X202877750Y-143660352D01*
X202877209Y-143662984D01*
X202876794Y-143665673D01*
X202876501Y-143668416D01*
X202876328Y-143671211D01*
X202876271Y-143674053D01*
X202876439Y-143677661D01*
X202876959Y-143681245D01*
X202877855Y-143684782D01*
X202879152Y-143688250D01*
X202880874Y-143691625D01*
X202883046Y-143694885D01*
X202885691Y-143698007D01*
X202887199Y-143699509D01*
X202888835Y-143700967D01*
X202890601Y-143702380D01*
X202892501Y-143703743D01*
X202894538Y-143705055D01*
X202896714Y-143706312D01*
X202899033Y-143707511D01*
X202901499Y-143708650D01*
X202906879Y-143710735D01*
X202912880Y-143712544D01*
X202919525Y-143714054D01*
X202926839Y-143715241D01*
X202934846Y-143716083D01*
X203008312Y-143721269D01*
X203016761Y-143721988D01*
X203024890Y-143722993D01*
X203032703Y-143724278D01*
X203040203Y-143725836D01*
X203047393Y-143727660D01*
X203054277Y-143729744D01*
X203060859Y-143732082D01*
X203067140Y-143734667D01*
X203073126Y-143737493D01*
X203078819Y-143740554D01*
X203084223Y-143743843D01*
X203089340Y-143747353D01*
X203094176Y-143751078D01*
X203098731Y-143755012D01*
X203103012Y-143759149D01*
X203107019Y-143763481D01*
X203110758Y-143768003D01*
X203114231Y-143772708D01*
X203117441Y-143777590D01*
X203120393Y-143782642D01*
X203123089Y-143787857D01*
X203125533Y-143793230D01*
X203127729Y-143798754D01*
X203129678Y-143804422D01*
X203131386Y-143810229D01*
X203132855Y-143816167D01*
X203135091Y-143828412D01*
X203136413Y-143841107D01*
X203136847Y-143854200D01*
X203136613Y-143862213D01*
X203135919Y-143870008D01*
X203134774Y-143877583D01*
X203133190Y-143884935D01*
X203131176Y-143892062D01*
X203128744Y-143898961D01*
X203125905Y-143905631D01*
X203122668Y-143912068D01*
X203119044Y-143918270D01*
X203115043Y-143924236D01*
X203110678Y-143929962D01*
X203105957Y-143935446D01*
X203100891Y-143940686D01*
X203095491Y-143945679D01*
X203089768Y-143950423D01*
X203083732Y-143954916D01*
X203077394Y-143959155D01*
X203070764Y-143963138D01*
X203056671Y-143970325D01*
X203041537Y-143976459D01*
X203025448Y-143981521D01*
X203008487Y-143985491D01*
X202990739Y-143988350D01*
X202972288Y-143990080D01*
X202953219Y-143990661D01*
X202939835Y-143990353D01*
X202926581Y-143989429D01*
X202913462Y-143987887D01*
X202900485Y-143985726D01*
X202887656Y-143982945D01*
X202874983Y-143979542D01*
X202862471Y-143975517D01*
X202850126Y-143970868D01*
X202837956Y-143965594D01*
X202825966Y-143959694D01*
X202814164Y-143953166D01*
X202802555Y-143946010D01*
X202791145Y-143938223D01*
X202779943Y-143929805D01*
X202768953Y-143920755D01*
X202758182Y-143911071D01*
X202820289Y-143849853D01*
X202827547Y-143856694D01*
X202834908Y-143863100D01*
X202842392Y-143869072D01*
X202850020Y-143874609D01*
X202857812Y-143879709D01*
X202865789Y-143884371D01*
X202873970Y-143888594D01*
X202882377Y-143892377D01*
X202891030Y-143895719D01*
X202899949Y-143898619D01*
X202909156Y-143901076D01*
X202918669Y-143903089D01*
X202928511Y-143904656D01*
X202938701Y-143905777D01*
X202949260Y-143906450D01*
X202960208Y-143906675D01*
X202964919Y-143906619D01*
X202969545Y-143906450D01*
X202974080Y-143906170D01*
X202978522Y-143905777D01*
X202982865Y-143905273D01*
X202987106Y-143904656D01*
X202991239Y-143903928D01*
X202995263Y-143903089D01*
X202999171Y-143902138D01*
X203002959Y-143901076D01*
X203006625Y-143899903D01*
X203010162Y-143898619D01*
X203013568Y-143897225D01*
X203016838Y-143895719D01*
X203019968Y-143894103D01*
X203022953Y-143892377D01*
X203025790Y-143890541D01*
X203028474Y-143888594D01*
X203031001Y-143886537D01*
X203033368Y-143884371D01*
X203035569Y-143882094D01*
X203037600Y-143879709D01*
X203039458Y-143877213D01*
X203041138Y-143874609D01*
X203042636Y-143871895D01*
X203043948Y-143869072D01*
X203045069Y-143866141D01*
X203045996Y-143863100D01*
X203046725Y-143859951D01*
X203047250Y-143856694D01*
X203047568Y-143853328D01*
X203047675Y-143849853D01*
X203047607Y-143846965D01*
X203047403Y-143844202D01*
X203047067Y-143841562D01*
X203046602Y-143839041D01*
X203046011Y-143836637D01*
X203045297Y-143834348D01*
X203044463Y-143832170D01*
X203043512Y-143830102D01*
X203042447Y-143828139D01*
X203041270Y-143826281D01*
X203039986Y-143824523D01*
X203038597Y-143822863D01*
X203037107Y-143821299D01*
X203035517Y-143819827D01*
X203033831Y-143818446D01*
X203032053Y-143817152D01*
X203030185Y-143815942D01*
X203028230Y-143814815D01*
X203024072Y-143812795D01*
X203019604Y-143811070D01*
X203014848Y-143809619D01*
X203009831Y-143808420D01*
X203004575Y-143807451D01*
X202999106Y-143806692D01*
X202993446Y-143806119D01*
X202914721Y-143799131D01*
X202901184Y-143797543D01*
X202888149Y-143795081D01*
X202881836Y-143793524D01*
X202875667Y-143791752D01*
X202869649Y-143789765D01*
X202863789Y-143787565D01*
X202858093Y-143785151D01*
X202852567Y-143782526D01*
X202847217Y-143779691D01*
X202842051Y-143776645D01*
X202837074Y-143773391D01*
X202832293Y-143769929D01*
X202827715Y-143766260D01*
X202823345Y-143762386D01*
X202819190Y-143758306D01*
X202815257Y-143754022D01*
X202811552Y-143749536D01*
X202808081Y-143744847D01*
X202804852Y-143739958D01*
X202801869Y-143734869D01*
X202799140Y-143729580D01*
X202796671Y-143724094D01*
X202794469Y-143718410D01*
X202792539Y-143712531D01*
X202790889Y-143706456D01*
X202789524Y-143700187D01*
X202788451Y-143693725D01*
X202787677Y-143687070D01*
X202787208Y-143680225D01*
X202787050Y-143673189D01*
X202787259Y-143664872D01*
X202787878Y-143656811D01*
X202788900Y-143649008D01*
X202790314Y-143641462D01*
X202792112Y-143634175D01*
X202794285Y-143627146D01*
X202796823Y-143620376D01*
X202799717Y-143613866D01*
X202802959Y-143607616D01*
X202806538Y-143601627D01*
X202810447Y-143595898D01*
X202814675Y-143590432D01*
X202819214Y-143585227D01*
X202824054Y-143580284D01*
X202829187Y-143575605D01*
X202834602Y-143571189D01*
X202840293Y-143567037D01*
X202846248Y-143563149D01*
X202852458Y-143559526D01*
X202858916Y-143556169D01*
X202865611Y-143553077D01*
X202872535Y-143550252D01*
X202887031Y-143545403D01*
X202902332Y-143541624D01*
X202918364Y-143538920D01*
X202935055Y-143537295D01*
X202952330Y-143536753D01*
X202966640Y-143537027D01*
G37*
G36*
X201520535Y-143537038D02*
G01*
X201530179Y-143537872D01*
X201539478Y-143539235D01*
X201548433Y-143541102D01*
X201557045Y-143543451D01*
X201565316Y-143546259D01*
X201573246Y-143549502D01*
X201580838Y-143553158D01*
X201588091Y-143557204D01*
X201595008Y-143561616D01*
X201601589Y-143566371D01*
X201607835Y-143571447D01*
X201613748Y-143576820D01*
X201619329Y-143582467D01*
X201624578Y-143588365D01*
X201629498Y-143594491D01*
X201633884Y-143600384D01*
X201637876Y-143606336D01*
X201641489Y-143612471D01*
X201644738Y-143618908D01*
X201646231Y-143622279D01*
X201647639Y-143625772D01*
X201648964Y-143629401D01*
X201650207Y-143633182D01*
X201651371Y-143637130D01*
X201652457Y-143641261D01*
X201654406Y-143650130D01*
X201656067Y-143659912D01*
X201657457Y-143670729D01*
X201658591Y-143682701D01*
X201659485Y-143695951D01*
X201660153Y-143710601D01*
X201660611Y-143726772D01*
X201660875Y-143744587D01*
X201660959Y-143764166D01*
X201660611Y-143801252D01*
X201659485Y-143831846D01*
X201658591Y-143845008D01*
X201657457Y-143856908D01*
X201656067Y-143867666D01*
X201654406Y-143877402D01*
X201652457Y-143886237D01*
X201650207Y-143894289D01*
X201647639Y-143901681D01*
X201644738Y-143908531D01*
X201641489Y-143914961D01*
X201637876Y-143921090D01*
X201633884Y-143927039D01*
X201629498Y-143932928D01*
X201624578Y-143939050D01*
X201619329Y-143944945D01*
X201613748Y-143950590D01*
X201607835Y-143955961D01*
X201601589Y-143961036D01*
X201595008Y-143965792D01*
X201588091Y-143970204D01*
X201580838Y-143974251D01*
X201573246Y-143977908D01*
X201569324Y-143979584D01*
X201565316Y-143981153D01*
X201561223Y-143982614D01*
X201557045Y-143983962D01*
X201552782Y-143985196D01*
X201548433Y-143986313D01*
X201543998Y-143987309D01*
X201539478Y-143988181D01*
X201534871Y-143988928D01*
X201530179Y-143989545D01*
X201525400Y-143990030D01*
X201520535Y-143990380D01*
X201515583Y-143990592D01*
X201510545Y-143990663D01*
X201502127Y-143990420D01*
X201493925Y-143989700D01*
X201485928Y-143988519D01*
X201478126Y-143986892D01*
X201470508Y-143984834D01*
X201463065Y-143982362D01*
X201455786Y-143979489D01*
X201448661Y-143976233D01*
X201441679Y-143972607D01*
X201434831Y-143968628D01*
X201428105Y-143964310D01*
X201421492Y-143959670D01*
X201414982Y-143954722D01*
X201408564Y-143949482D01*
X201402228Y-143943966D01*
X201395963Y-143938188D01*
X201395642Y-144289590D01*
X201401339Y-144283238D01*
X201407277Y-144277296D01*
X201413450Y-144271762D01*
X201419854Y-144266639D01*
X201426484Y-144261924D01*
X201433333Y-144257620D01*
X201440398Y-144253725D01*
X201447673Y-144250239D01*
X201455153Y-144247164D01*
X201462833Y-144244498D01*
X201470707Y-144242242D01*
X201478770Y-144240396D01*
X201487018Y-144238960D01*
X201495446Y-144237935D01*
X201504047Y-144237319D01*
X201512817Y-144237114D01*
X201519320Y-144237270D01*
X201525863Y-144237738D01*
X201532431Y-144238515D01*
X201539006Y-144239602D01*
X201545572Y-144240997D01*
X201552114Y-144242699D01*
X201558615Y-144244707D01*
X201565060Y-144247020D01*
X201571431Y-144249636D01*
X201577713Y-144252554D01*
X201583890Y-144255774D01*
X201589945Y-144259294D01*
X201595862Y-144263113D01*
X201601625Y-144267230D01*
X201607219Y-144271644D01*
X201612626Y-144276354D01*
X201617830Y-144281358D01*
X201622816Y-144286656D01*
X201627568Y-144292246D01*
X201632068Y-144298127D01*
X201636301Y-144304298D01*
X201640251Y-144310759D01*
X201643902Y-144317507D01*
X201647237Y-144324542D01*
X201650240Y-144331862D01*
X201652895Y-144339468D01*
X201655186Y-144347356D01*
X201657097Y-144355527D01*
X201658611Y-144363979D01*
X201659713Y-144372711D01*
X201660385Y-144381721D01*
X201660613Y-144391010D01*
X201660613Y-144685763D01*
X201571417Y-144685763D01*
X201571417Y-144421656D01*
X201571308Y-144416068D01*
X201570982Y-144410631D01*
X201570446Y-144405346D01*
X201569704Y-144400216D01*
X201568759Y-144395241D01*
X201567618Y-144390425D01*
X201566283Y-144385768D01*
X201564761Y-144381272D01*
X201563056Y-144376939D01*
X201561173Y-144372771D01*
X201559115Y-144368769D01*
X201556888Y-144364936D01*
X201554496Y-144361273D01*
X201551945Y-144357781D01*
X201549238Y-144354463D01*
X201546380Y-144351320D01*
X201543376Y-144348354D01*
X201540231Y-144345566D01*
X201536949Y-144342960D01*
X201533535Y-144340535D01*
X201529993Y-144338294D01*
X201526329Y-144336239D01*
X201522546Y-144334372D01*
X201518650Y-144332693D01*
X201514645Y-144331206D01*
X201510535Y-144329911D01*
X201506326Y-144328810D01*
X201502022Y-144327906D01*
X201497628Y-144327200D01*
X201493148Y-144326693D01*
X201488587Y-144326388D01*
X201483949Y-144326286D01*
X201479233Y-144326388D01*
X201474599Y-144326693D01*
X201470050Y-144327200D01*
X201465592Y-144327906D01*
X201461229Y-144328810D01*
X201456965Y-144329911D01*
X201452805Y-144331206D01*
X201448753Y-144332693D01*
X201444814Y-144334372D01*
X201440992Y-144336239D01*
X201437292Y-144338294D01*
X201433718Y-144340535D01*
X201430275Y-144342960D01*
X201426967Y-144345566D01*
X201423799Y-144348354D01*
X201420775Y-144351320D01*
X201417899Y-144354463D01*
X201415177Y-144357781D01*
X201412612Y-144361273D01*
X201410209Y-144364936D01*
X201407973Y-144368769D01*
X201405907Y-144372771D01*
X201404017Y-144376939D01*
X201402307Y-144381272D01*
X201400782Y-144385768D01*
X201399445Y-144390425D01*
X201398302Y-144395241D01*
X201397356Y-144400216D01*
X201396613Y-144405346D01*
X201396076Y-144410631D01*
X201395751Y-144416068D01*
X201395642Y-144421656D01*
X201395642Y-144685763D01*
X201306421Y-144685763D01*
X201306421Y-143764166D01*
X201395963Y-143764166D01*
X201396314Y-143788401D01*
X201396916Y-143800551D01*
X201397948Y-143812560D01*
X201399518Y-143824308D01*
X201401735Y-143835672D01*
X201404707Y-143846532D01*
X201406511Y-143851734D01*
X201408545Y-143856764D01*
X201410822Y-143861607D01*
X201413356Y-143866248D01*
X201416160Y-143870672D01*
X201419249Y-143874862D01*
X201422636Y-143878805D01*
X201426333Y-143882485D01*
X201430356Y-143885886D01*
X201434718Y-143888994D01*
X201439431Y-143891793D01*
X201444511Y-143894269D01*
X201449970Y-143896405D01*
X201455822Y-143898187D01*
X201462080Y-143899599D01*
X201468759Y-143900627D01*
X201475871Y-143901255D01*
X201483431Y-143901467D01*
X201491071Y-143901267D01*
X201498259Y-143900674D01*
X201505008Y-143899702D01*
X201511332Y-143898364D01*
X201517245Y-143896672D01*
X201522760Y-143894639D01*
X201527892Y-143892278D01*
X201532654Y-143889602D01*
X201537059Y-143886623D01*
X201541122Y-143883355D01*
X201544857Y-143879810D01*
X201548276Y-143876002D01*
X201551395Y-143871942D01*
X201554226Y-143867644D01*
X201556784Y-143863121D01*
X201559082Y-143858385D01*
X201561134Y-143853449D01*
X201562954Y-143848326D01*
X201564555Y-143843030D01*
X201565952Y-143837572D01*
X201567158Y-143831965D01*
X201568187Y-143826223D01*
X201569768Y-143814383D01*
X201570806Y-143802155D01*
X201571411Y-143789641D01*
X201571693Y-143776944D01*
X201571763Y-143764166D01*
X201571411Y-143738383D01*
X201570806Y-143725746D01*
X201569768Y-143713414D01*
X201568187Y-143701487D01*
X201565952Y-143690067D01*
X201562954Y-143679255D01*
X201561134Y-143674108D01*
X201559082Y-143669151D01*
X201556784Y-143664397D01*
X201554226Y-143659858D01*
X201551395Y-143655546D01*
X201548276Y-143651475D01*
X201544857Y-143647657D01*
X201541122Y-143644105D01*
X201537059Y-143640831D01*
X201532654Y-143637848D01*
X201527892Y-143635169D01*
X201522760Y-143632806D01*
X201517245Y-143630772D01*
X201511332Y-143629079D01*
X201505008Y-143627740D01*
X201498259Y-143626769D01*
X201491071Y-143626176D01*
X201483431Y-143625976D01*
X201475871Y-143626189D01*
X201468759Y-143626817D01*
X201462080Y-143627845D01*
X201455822Y-143629259D01*
X201449970Y-143631043D01*
X201444511Y-143633182D01*
X201439431Y-143635662D01*
X201434718Y-143638466D01*
X201430356Y-143641581D01*
X201426333Y-143644990D01*
X201422636Y-143648680D01*
X201419249Y-143652634D01*
X201416160Y-143656838D01*
X201413356Y-143661277D01*
X201410822Y-143665936D01*
X201408545Y-143670800D01*
X201406511Y-143675853D01*
X201404707Y-143681080D01*
X201403120Y-143686467D01*
X201401735Y-143691999D01*
X201400538Y-143697660D01*
X201399518Y-143703435D01*
X201397948Y-143715268D01*
X201396916Y-143727379D01*
X201396314Y-143739645D01*
X201396033Y-143751948D01*
X201395963Y-143764166D01*
X201306421Y-143764166D01*
X201306421Y-143542015D01*
X201395963Y-143542015D01*
X201395963Y-143588366D01*
X201401365Y-143582736D01*
X201407061Y-143577350D01*
X201413038Y-143572223D01*
X201419284Y-143567373D01*
X201425785Y-143562816D01*
X201432530Y-143558569D01*
X201439505Y-143554647D01*
X201446698Y-143551068D01*
X201454095Y-143547849D01*
X201461685Y-143545005D01*
X201469454Y-143542553D01*
X201477390Y-143540510D01*
X201485480Y-143538892D01*
X201493711Y-143537716D01*
X201502070Y-143536998D01*
X201510545Y-143536755D01*
X201520535Y-143537038D01*
G37*
G36*
X203201608Y-140221508D02*
G01*
X203202548Y-140221578D01*
X203203484Y-140221693D01*
X203204413Y-140221852D01*
X203205335Y-140222053D01*
X203206248Y-140222297D01*
X203207151Y-140222581D01*
X203208042Y-140222904D01*
X203208921Y-140223266D01*
X203209784Y-140223665D01*
X203210632Y-140224100D01*
X203211463Y-140224569D01*
X203212275Y-140225072D01*
X203213068Y-140225608D01*
X203213838Y-140226175D01*
X203214586Y-140226772D01*
X203215310Y-140227398D01*
X203216009Y-140228052D01*
X203216680Y-140228733D01*
X203217323Y-140229439D01*
X203217936Y-140230169D01*
X203218519Y-140230923D01*
X203219068Y-140231699D01*
X203219584Y-140232496D01*
X203220064Y-140233313D01*
X203220508Y-140234148D01*
X203220914Y-140235001D01*
X203221280Y-140235870D01*
X203221605Y-140236754D01*
X203221888Y-140237652D01*
X203222128Y-140238564D01*
X203222322Y-140239486D01*
X203300455Y-140659366D01*
X203300653Y-140660296D01*
X203300892Y-140661230D01*
X203301493Y-140663100D01*
X203302248Y-140664965D01*
X203303144Y-140666811D01*
X203304173Y-140668627D01*
X203305324Y-140670401D01*
X203306585Y-140672120D01*
X203307947Y-140673772D01*
X203309399Y-140675345D01*
X203310930Y-140676827D01*
X203312531Y-140678206D01*
X203314190Y-140679469D01*
X203315896Y-140680605D01*
X203317640Y-140681600D01*
X203318523Y-140682041D01*
X203319411Y-140682443D01*
X203320304Y-140682804D01*
X203321199Y-140683122D01*
X203602616Y-140798322D01*
X203604369Y-140799091D01*
X203606227Y-140799734D01*
X203608174Y-140800251D01*
X203610194Y-140800644D01*
X203612270Y-140800913D01*
X203614386Y-140801060D01*
X203616526Y-140801086D01*
X203618674Y-140800992D01*
X203620813Y-140800779D01*
X203622927Y-140800447D01*
X203625000Y-140800000D01*
X203627015Y-140799436D01*
X203628957Y-140798759D01*
X203630808Y-140797967D01*
X203632553Y-140797064D01*
X203634176Y-140796050D01*
X203984961Y-140555328D01*
X203985751Y-140554814D01*
X203986564Y-140554339D01*
X203987399Y-140553904D01*
X203988254Y-140553509D01*
X203989127Y-140553154D01*
X203990017Y-140552838D01*
X203990920Y-140552561D01*
X203991837Y-140552323D01*
X203992764Y-140552125D01*
X203993700Y-140551965D01*
X203995593Y-140551760D01*
X203997501Y-140551709D01*
X203999410Y-140551809D01*
X204001305Y-140552060D01*
X204003172Y-140552461D01*
X204004997Y-140553009D01*
X204005889Y-140553338D01*
X204006765Y-140553703D01*
X204007624Y-140554105D01*
X204008463Y-140554543D01*
X204009281Y-140555017D01*
X204010076Y-140555527D01*
X204010846Y-140556072D01*
X204011589Y-140556653D01*
X204012304Y-140557270D01*
X204012989Y-140557921D01*
X204308408Y-140853341D01*
X204309060Y-140854026D01*
X204309676Y-140854741D01*
X204310256Y-140855484D01*
X204310801Y-140856255D01*
X204311309Y-140857050D01*
X204311782Y-140857869D01*
X204312619Y-140859568D01*
X204313311Y-140861338D01*
X204313856Y-140863165D01*
X204314253Y-140865035D01*
X204314502Y-140866932D01*
X204314600Y-140868843D01*
X204314548Y-140870753D01*
X204314343Y-140872648D01*
X204313985Y-140874514D01*
X204313474Y-140876335D01*
X204313159Y-140877225D01*
X204312806Y-140878099D01*
X204312414Y-140878954D01*
X204311983Y-140879790D01*
X204311512Y-140880604D01*
X204311001Y-140881394D01*
X204074478Y-141226128D01*
X204073456Y-141227758D01*
X204072551Y-141229506D01*
X204071761Y-141231356D01*
X204071089Y-141233293D01*
X204070535Y-141235301D01*
X204070100Y-141237363D01*
X204069785Y-141239465D01*
X204069591Y-141241590D01*
X204069519Y-141243722D01*
X204069570Y-141245845D01*
X204069744Y-141247944D01*
X204070043Y-141250003D01*
X204070468Y-141252005D01*
X204071018Y-141253935D01*
X204071696Y-141255777D01*
X204072502Y-141257515D01*
X204196937Y-141547823D01*
X204197648Y-141549605D01*
X204198521Y-141551372D01*
X204199544Y-141553111D01*
X204200706Y-141554813D01*
X204201993Y-141556467D01*
X204203394Y-141558063D01*
X204204897Y-141559590D01*
X204206488Y-141561037D01*
X204208157Y-141562395D01*
X204209890Y-141563651D01*
X204211676Y-141564797D01*
X204213502Y-141565821D01*
X204215356Y-141566713D01*
X204217226Y-141567463D01*
X204219100Y-141568059D01*
X204220965Y-141568492D01*
X204626917Y-141643983D01*
X204627838Y-141644182D01*
X204628747Y-141644425D01*
X204629644Y-141644712D01*
X204630527Y-141645040D01*
X204631395Y-141645409D01*
X204632247Y-141645817D01*
X204633081Y-141646263D01*
X204633897Y-141646745D01*
X204635470Y-141647814D01*
X204636954Y-141649011D01*
X204638341Y-141650327D01*
X204639622Y-141651749D01*
X204640788Y-141653268D01*
X204641828Y-141654871D01*
X204642734Y-141656549D01*
X204643133Y-141657412D01*
X204643496Y-141658290D01*
X204643820Y-141659181D01*
X204644104Y-141660083D01*
X204644349Y-141660996D01*
X204644551Y-141661917D01*
X204644710Y-141662846D01*
X204644826Y-141663781D01*
X204644896Y-141664721D01*
X204644919Y-141665665D01*
X204644870Y-142083470D01*
X204644846Y-142084413D01*
X204644776Y-142085354D01*
X204644661Y-142086290D01*
X204644502Y-142087220D01*
X204644299Y-142088143D01*
X204644055Y-142089057D01*
X204643770Y-142089962D01*
X204643446Y-142090854D01*
X204643084Y-142091734D01*
X204642684Y-142092600D01*
X204642249Y-142093450D01*
X204641778Y-142094282D01*
X204641275Y-142095096D01*
X204640738Y-142095890D01*
X204640171Y-142096663D01*
X204639573Y-142097413D01*
X204638946Y-142098138D01*
X204638292Y-142098838D01*
X204637611Y-142099511D01*
X204636905Y-142100156D01*
X204636174Y-142100770D01*
X204635420Y-142101353D01*
X204634644Y-142101904D01*
X204633848Y-142102420D01*
X204633032Y-142102901D01*
X204632197Y-142103344D01*
X204631345Y-142103750D01*
X204630477Y-142104115D01*
X204629594Y-142104440D01*
X204628698Y-142104722D01*
X204627788Y-142104959D01*
X204626868Y-142105151D01*
X204230892Y-142178840D01*
X204229960Y-142179031D01*
X204229026Y-142179265D01*
X204228091Y-142179541D01*
X204227158Y-142179858D01*
X204225299Y-142180607D01*
X204223462Y-142181502D01*
X204221659Y-142182532D01*
X204219900Y-142183686D01*
X204218199Y-142184953D01*
X204216567Y-142186322D01*
X204215015Y-142187783D01*
X204213556Y-142189324D01*
X204212201Y-142190935D01*
X204210963Y-142192605D01*
X204209853Y-142194323D01*
X204208882Y-142196078D01*
X204208063Y-142197860D01*
X204207715Y-142198757D01*
X204207408Y-142199657D01*
X204083788Y-142508461D01*
X204083019Y-142510218D01*
X204082377Y-142512078D01*
X204081862Y-142514026D01*
X204081473Y-142516045D01*
X204081207Y-142518120D01*
X204081065Y-142520234D01*
X204081043Y-142522371D01*
X204081142Y-142524516D01*
X204081360Y-142526651D01*
X204081696Y-142528761D01*
X204082148Y-142530831D01*
X204082715Y-142532843D01*
X204083396Y-142534781D01*
X204084189Y-142536630D01*
X204085094Y-142538374D01*
X204086109Y-142539996D01*
X204311051Y-142867790D01*
X204311563Y-142868580D01*
X204312036Y-142869394D01*
X204312469Y-142870229D01*
X204312863Y-142871085D01*
X204313217Y-142871958D01*
X204313532Y-142872848D01*
X204313808Y-142873753D01*
X204314045Y-142874670D01*
X204314244Y-142875598D01*
X204314403Y-142876536D01*
X204314608Y-142878431D01*
X204314660Y-142880341D01*
X204314560Y-142882252D01*
X204314311Y-142884149D01*
X204313912Y-142886018D01*
X204313366Y-142887845D01*
X204313037Y-142888738D01*
X204312672Y-142889616D01*
X204312271Y-142890475D01*
X204311834Y-142891315D01*
X204311360Y-142892133D01*
X204310851Y-142892929D01*
X204310306Y-142893699D01*
X204309725Y-142894443D01*
X204309109Y-142895158D01*
X204308458Y-142895843D01*
X204012989Y-143191262D01*
X204012308Y-143191909D01*
X204011597Y-143192522D01*
X204010857Y-143193099D01*
X204010090Y-143193641D01*
X204009297Y-143194147D01*
X204008481Y-143194618D01*
X204006786Y-143195453D01*
X204005019Y-143196144D01*
X204003194Y-143196690D01*
X204001325Y-143197089D01*
X203999428Y-143197340D01*
X203997517Y-143197443D01*
X203995606Y-143197395D01*
X203993710Y-143197195D01*
X203991844Y-143196843D01*
X203990021Y-143196337D01*
X203989130Y-143196025D01*
X203988256Y-143195675D01*
X203987401Y-143195285D01*
X203986565Y-143194856D01*
X203985751Y-143194388D01*
X203984961Y-143193880D01*
X203662970Y-142972865D01*
X203661351Y-142971861D01*
X203659617Y-142970981D01*
X203657783Y-142970224D01*
X203655865Y-142969591D01*
X203653879Y-142969083D01*
X203651842Y-142968699D01*
X203649768Y-142968441D01*
X203647675Y-142968309D01*
X203645576Y-142968302D01*
X203643490Y-142968423D01*
X203641430Y-142968670D01*
X203639415Y-142969045D01*
X203637458Y-142969548D01*
X203635576Y-142970179D01*
X203633785Y-142970939D01*
X203632101Y-142971828D01*
X203490108Y-143047640D01*
X203489259Y-143048043D01*
X203488403Y-143048398D01*
X203487542Y-143048705D01*
X203486676Y-143048964D01*
X203485807Y-143049176D01*
X203484938Y-143049341D01*
X203484069Y-143049460D01*
X203483201Y-143049533D01*
X203482337Y-143049562D01*
X203481478Y-143049546D01*
X203480625Y-143049486D01*
X203479779Y-143049383D01*
X203478943Y-143049237D01*
X203478118Y-143049048D01*
X203477305Y-143048818D01*
X203476505Y-143048547D01*
X203475720Y-143048235D01*
X203474952Y-143047883D01*
X203474203Y-143047491D01*
X203473472Y-143047061D01*
X203472763Y-143046592D01*
X203472076Y-143046085D01*
X203471413Y-143045540D01*
X203470776Y-143044959D01*
X203470166Y-143044341D01*
X203469584Y-143043688D01*
X203469032Y-143042999D01*
X203468511Y-143042276D01*
X203468023Y-143041518D01*
X203467570Y-143040727D01*
X203467152Y-143039903D01*
X203466772Y-143039046D01*
X203173995Y-142331599D01*
X203173657Y-142330719D01*
X203173363Y-142329826D01*
X203173114Y-142328920D01*
X203172908Y-142328005D01*
X203172745Y-142327081D01*
X203172625Y-142326150D01*
X203172548Y-142325214D01*
X203172511Y-142324275D01*
X203172516Y-142323334D01*
X203172560Y-142322394D01*
X203172645Y-142321455D01*
X203172768Y-142320519D01*
X203172931Y-142319589D01*
X203173131Y-142318665D01*
X203173369Y-142317750D01*
X203173643Y-142316844D01*
X203173954Y-142315951D01*
X203174301Y-142315072D01*
X203174683Y-142314207D01*
X203175099Y-142313360D01*
X203175550Y-142312531D01*
X203176034Y-142311722D01*
X203176550Y-142310936D01*
X203177100Y-142310173D01*
X203177681Y-142309436D01*
X203178293Y-142308725D01*
X203178935Y-142308044D01*
X203179608Y-142307393D01*
X203180311Y-142306774D01*
X203181042Y-142306189D01*
X203181801Y-142305639D01*
X203182589Y-142305127D01*
X203218124Y-142283396D01*
X203220689Y-142281759D01*
X203223423Y-142279894D01*
X203226276Y-142277840D01*
X203229196Y-142275639D01*
X203232135Y-142273330D01*
X203235039Y-142270953D01*
X203237860Y-142268550D01*
X203240546Y-142266159D01*
X203264070Y-142250058D01*
X203286520Y-142232575D01*
X203307836Y-142213773D01*
X203327955Y-142193712D01*
X203346817Y-142172453D01*
X203364360Y-142150056D01*
X203380523Y-142126583D01*
X203395245Y-142102095D01*
X203408464Y-142076653D01*
X203420120Y-142050317D01*
X203430151Y-142023149D01*
X203438495Y-141995209D01*
X203445092Y-141966558D01*
X203449879Y-141937257D01*
X203452797Y-141907368D01*
X203453783Y-141876950D01*
X203453182Y-141853172D01*
X203451398Y-141829707D01*
X203448459Y-141806582D01*
X203444396Y-141783828D01*
X203439237Y-141761473D01*
X203433011Y-141739547D01*
X203425746Y-141718077D01*
X203417473Y-141697094D01*
X203408221Y-141676627D01*
X203398017Y-141656704D01*
X203386892Y-141637354D01*
X203374874Y-141618607D01*
X203361992Y-141600492D01*
X203348275Y-141583037D01*
X203333753Y-141566271D01*
X203318455Y-141550224D01*
X203302408Y-141534925D01*
X203285644Y-141520402D01*
X203268189Y-141506686D01*
X203250075Y-141493803D01*
X203231328Y-141481785D01*
X203211980Y-141470659D01*
X203192058Y-141460456D01*
X203171592Y-141451203D01*
X203150610Y-141442929D01*
X203129142Y-141435665D01*
X203107217Y-141429439D01*
X203084864Y-141424280D01*
X203062112Y-141420216D01*
X203038989Y-141417278D01*
X203015526Y-141415494D01*
X202991750Y-141414893D01*
X202967974Y-141415494D01*
X202944510Y-141417278D01*
X202921387Y-141420216D01*
X202898634Y-141424280D01*
X202876280Y-141429439D01*
X202854353Y-141435665D01*
X202832884Y-141442929D01*
X202811901Y-141451203D01*
X202791433Y-141460456D01*
X202771509Y-141470659D01*
X202752158Y-141481785D01*
X202733410Y-141493803D01*
X202715293Y-141506686D01*
X202697837Y-141520402D01*
X202681070Y-141534925D01*
X202665021Y-141550224D01*
X202649720Y-141566271D01*
X202635196Y-141583037D01*
X202621477Y-141600492D01*
X202608593Y-141618607D01*
X202596573Y-141637354D01*
X202585445Y-141656704D01*
X202575240Y-141676627D01*
X202565985Y-141697094D01*
X202557711Y-141718077D01*
X202550445Y-141739547D01*
X202544217Y-141761473D01*
X202539057Y-141783828D01*
X202534993Y-141806582D01*
X202532054Y-141829707D01*
X202530269Y-141853172D01*
X202529668Y-141876950D01*
X202529916Y-141892221D01*
X202530655Y-141907368D01*
X202531876Y-141922382D01*
X202533574Y-141937257D01*
X202535739Y-141951985D01*
X202538364Y-141966558D01*
X202541441Y-141980968D01*
X202544963Y-141995209D01*
X202548923Y-142009271D01*
X202553311Y-142023149D01*
X202558121Y-142036833D01*
X202563345Y-142050317D01*
X202568976Y-142063593D01*
X202575005Y-142076653D01*
X202588228Y-142102095D01*
X202602953Y-142126583D01*
X202619119Y-142150056D01*
X202636664Y-142172453D01*
X202655527Y-142193712D01*
X202675647Y-142213773D01*
X202696961Y-142232575D01*
X202719409Y-142250058D01*
X202742929Y-142266159D01*
X202745632Y-142268550D01*
X202748465Y-142270953D01*
X202751379Y-142273330D01*
X202754323Y-142275639D01*
X202757247Y-142277840D01*
X202760101Y-142279894D01*
X202762836Y-142281759D01*
X202765401Y-142283396D01*
X202800936Y-142305127D01*
X202801726Y-142305639D01*
X202802488Y-142306189D01*
X202803221Y-142306774D01*
X202803925Y-142307393D01*
X202804599Y-142308044D01*
X202805244Y-142308725D01*
X202806439Y-142310173D01*
X202807507Y-142311722D01*
X202808442Y-142313360D01*
X202809241Y-142315072D01*
X202809897Y-142316845D01*
X202810408Y-142318665D01*
X202810768Y-142320519D01*
X202810973Y-142322394D01*
X202811017Y-142324275D01*
X202810898Y-142326150D01*
X202810775Y-142327081D01*
X202810609Y-142328005D01*
X202810400Y-142328920D01*
X202810146Y-142329826D01*
X202809848Y-142330719D01*
X202809505Y-142331599D01*
X202516728Y-143039046D01*
X202516350Y-143039903D01*
X202515934Y-143040727D01*
X202515482Y-143041518D01*
X202514995Y-143042276D01*
X202514475Y-143042999D01*
X202513924Y-143043688D01*
X202513342Y-143044341D01*
X202512732Y-143044959D01*
X202512094Y-143045540D01*
X202511431Y-143046085D01*
X202510744Y-143046592D01*
X202510034Y-143047061D01*
X202509303Y-143047491D01*
X202508552Y-143047883D01*
X202507784Y-143048235D01*
X202506999Y-143048547D01*
X202506198Y-143048818D01*
X202505385Y-143049048D01*
X202504559Y-143049237D01*
X202503723Y-143049383D01*
X202502877Y-143049486D01*
X202502024Y-143049546D01*
X202501166Y-143049562D01*
X202500302Y-143049533D01*
X202499436Y-143049460D01*
X202498569Y-143049341D01*
X202497701Y-143049176D01*
X202496835Y-143048964D01*
X202495972Y-143048705D01*
X202495114Y-143048398D01*
X202494261Y-143048043D01*
X202493417Y-143047640D01*
X202351423Y-142971828D01*
X202349735Y-142970939D01*
X202347941Y-142970179D01*
X202346056Y-142969548D01*
X202344097Y-142969045D01*
X202342079Y-142968670D01*
X202340018Y-142968423D01*
X202337930Y-142968302D01*
X202335832Y-142968309D01*
X202333738Y-142968441D01*
X202331666Y-142968699D01*
X202329630Y-142969083D01*
X202327646Y-142969591D01*
X202325731Y-142970224D01*
X202323900Y-142970981D01*
X202322170Y-142971861D01*
X202320555Y-142972865D01*
X201998565Y-143193880D01*
X201997774Y-143194388D01*
X201996960Y-143194856D01*
X201996124Y-143195285D01*
X201995269Y-143195675D01*
X201994395Y-143196025D01*
X201993504Y-143196337D01*
X201992599Y-143196609D01*
X201991681Y-143196843D01*
X201989815Y-143197195D01*
X201987919Y-143197395D01*
X201986008Y-143197443D01*
X201984097Y-143197340D01*
X201982200Y-143197089D01*
X201980331Y-143196690D01*
X201978506Y-143196144D01*
X201977614Y-143195817D01*
X201976739Y-143195453D01*
X201975881Y-143195054D01*
X201975044Y-143194618D01*
X201974228Y-143194147D01*
X201973435Y-143193641D01*
X201972668Y-143193099D01*
X201971928Y-143192522D01*
X201971217Y-143191909D01*
X201970536Y-143191262D01*
X201675043Y-142895843D01*
X201674393Y-142895158D01*
X201673779Y-142894443D01*
X201673200Y-142893699D01*
X201672656Y-142892929D01*
X201672148Y-142892133D01*
X201671676Y-142891315D01*
X201670838Y-142889616D01*
X201670146Y-142887845D01*
X201669599Y-142886018D01*
X201669200Y-142884149D01*
X201668949Y-142882252D01*
X201668848Y-142880341D01*
X201668899Y-142878431D01*
X201669102Y-142876536D01*
X201669458Y-142874670D01*
X201669970Y-142872848D01*
X201670285Y-142871958D01*
X201670639Y-142871085D01*
X201671032Y-142870229D01*
X201671465Y-142869394D01*
X201671937Y-142868580D01*
X201672450Y-142867790D01*
X201897367Y-142539996D01*
X201898390Y-142538374D01*
X201899302Y-142536630D01*
X201900101Y-142534781D01*
X201900786Y-142532843D01*
X201901356Y-142530831D01*
X201901809Y-142528761D01*
X201902146Y-142526651D01*
X201902364Y-142524516D01*
X201902463Y-142522371D01*
X201902441Y-142520234D01*
X201902297Y-142518120D01*
X201902030Y-142516045D01*
X201901640Y-142514026D01*
X201901124Y-142512078D01*
X201900482Y-142510218D01*
X201899713Y-142508461D01*
X201776117Y-142199657D01*
X201775812Y-142198757D01*
X201775465Y-142197860D01*
X201774647Y-142196079D01*
X201773675Y-142194323D01*
X201772561Y-142192605D01*
X201771318Y-142190935D01*
X201769958Y-142189324D01*
X201768492Y-142187783D01*
X201766934Y-142186322D01*
X201765294Y-142184953D01*
X201763587Y-142183686D01*
X201761822Y-142182532D01*
X201760014Y-142181502D01*
X201758174Y-142180607D01*
X201756314Y-142179858D01*
X201754446Y-142179265D01*
X201753513Y-142179031D01*
X201752583Y-142178840D01*
X201356607Y-142105152D01*
X201355685Y-142104959D01*
X201354773Y-142104722D01*
X201353875Y-142104440D01*
X201352991Y-142104116D01*
X201352122Y-142103750D01*
X201351269Y-142103345D01*
X201350434Y-142102901D01*
X201349617Y-142102420D01*
X201348820Y-142101904D01*
X201348044Y-142101353D01*
X201346560Y-142100156D01*
X201345173Y-142098838D01*
X201343893Y-142097413D01*
X201342729Y-142095890D01*
X201341690Y-142094282D01*
X201340786Y-142092600D01*
X201340026Y-142090855D01*
X201339702Y-142089962D01*
X201339418Y-142089058D01*
X201339174Y-142088143D01*
X201338973Y-142087220D01*
X201338814Y-142086290D01*
X201338699Y-142085354D01*
X201338629Y-142084413D01*
X201338605Y-142083470D01*
X201338580Y-141665665D01*
X201338604Y-141664721D01*
X201338674Y-141663781D01*
X201338789Y-141662846D01*
X201338948Y-141661917D01*
X201339150Y-141660996D01*
X201339393Y-141660083D01*
X201339677Y-141659181D01*
X201340001Y-141658290D01*
X201340362Y-141657412D01*
X201340761Y-141656549D01*
X201341196Y-141655702D01*
X201341665Y-141654871D01*
X201342169Y-141654060D01*
X201342704Y-141653268D01*
X201343271Y-141652497D01*
X201343868Y-141651749D01*
X201344494Y-141651025D01*
X201345148Y-141650327D01*
X201345829Y-141649655D01*
X201346535Y-141649011D01*
X201347266Y-141648397D01*
X201348019Y-141647814D01*
X201348795Y-141647263D01*
X201349592Y-141646745D01*
X201350409Y-141646263D01*
X201351244Y-141645817D01*
X201352097Y-141645409D01*
X201352966Y-141645040D01*
X201353850Y-141644712D01*
X201354749Y-141644425D01*
X201355660Y-141644182D01*
X201356583Y-141643983D01*
X201762510Y-141568492D01*
X201763445Y-141568297D01*
X201764384Y-141568059D01*
X201765324Y-141567781D01*
X201766265Y-141567463D01*
X201768141Y-141566714D01*
X201770001Y-141565821D01*
X201771831Y-141564797D01*
X201773620Y-141563652D01*
X201775355Y-141562395D01*
X201777024Y-141561037D01*
X201778615Y-141559590D01*
X201780116Y-141558063D01*
X201781514Y-141556467D01*
X201782797Y-141554813D01*
X201783953Y-141553111D01*
X201784970Y-141551372D01*
X201785423Y-141550491D01*
X201785836Y-141549605D01*
X201786208Y-141548715D01*
X201786537Y-141547823D01*
X201911022Y-141257515D01*
X201911824Y-141255777D01*
X201912496Y-141253935D01*
X201913042Y-141252005D01*
X201913461Y-141250003D01*
X201913754Y-141247944D01*
X201913924Y-141245845D01*
X201913971Y-141243722D01*
X201913896Y-141241590D01*
X201913701Y-141239465D01*
X201913385Y-141237364D01*
X201912952Y-141235301D01*
X201912401Y-141233293D01*
X201911734Y-141231356D01*
X201910952Y-141229506D01*
X201910056Y-141227758D01*
X201909047Y-141226128D01*
X201672499Y-140881394D01*
X201671984Y-140880604D01*
X201671510Y-140879790D01*
X201671076Y-140878954D01*
X201670682Y-140878099D01*
X201670327Y-140877225D01*
X201670012Y-140876335D01*
X201669737Y-140875431D01*
X201669501Y-140874514D01*
X201669303Y-140873585D01*
X201669145Y-140872648D01*
X201668943Y-140870753D01*
X201668895Y-140868843D01*
X201668998Y-140866932D01*
X201669251Y-140865035D01*
X201669652Y-140863165D01*
X201670201Y-140861338D01*
X201670894Y-140859568D01*
X201671295Y-140858709D01*
X201671732Y-140857869D01*
X201672204Y-140857050D01*
X201672711Y-140856255D01*
X201673254Y-140855485D01*
X201673832Y-140854741D01*
X201674444Y-140854026D01*
X201675091Y-140853341D01*
X201970536Y-140557921D01*
X201971216Y-140557270D01*
X201971927Y-140556653D01*
X201972667Y-140556072D01*
X201973435Y-140555527D01*
X201974227Y-140555017D01*
X201975043Y-140554543D01*
X201976738Y-140553703D01*
X201978506Y-140553009D01*
X201980331Y-140552461D01*
X201982199Y-140552060D01*
X201984096Y-140551809D01*
X201986007Y-140551709D01*
X201987918Y-140551760D01*
X201989814Y-140551965D01*
X201991681Y-140552323D01*
X201993504Y-140552838D01*
X201994394Y-140553154D01*
X201995268Y-140553509D01*
X201996124Y-140553904D01*
X201996960Y-140554339D01*
X201997774Y-140554814D01*
X201998564Y-140555328D01*
X202349349Y-140796050D01*
X202350963Y-140797064D01*
X202352701Y-140797967D01*
X202354547Y-140798759D01*
X202356484Y-140799436D01*
X202358496Y-140800000D01*
X202360567Y-140800447D01*
X202362679Y-140800779D01*
X202364817Y-140800992D01*
X202366963Y-140801086D01*
X202369103Y-140801060D01*
X202371218Y-140800913D01*
X202373293Y-140800644D01*
X202375311Y-140800251D01*
X202377255Y-140799734D01*
X202379110Y-140799091D01*
X202380859Y-140798322D01*
X202662301Y-140683122D01*
X202664097Y-140682443D01*
X202665875Y-140681600D01*
X202667624Y-140680605D01*
X202669335Y-140679469D01*
X202670997Y-140678206D01*
X202672599Y-140676827D01*
X202674132Y-140675345D01*
X202675584Y-140673772D01*
X202676946Y-140672120D01*
X202678206Y-140670401D01*
X202679356Y-140668627D01*
X202680384Y-140666811D01*
X202681279Y-140664965D01*
X202682032Y-140663100D01*
X202682633Y-140661230D01*
X202683069Y-140659366D01*
X202761178Y-140239486D01*
X202761372Y-140238564D01*
X202761612Y-140237652D01*
X202761895Y-140236754D01*
X202762221Y-140235870D01*
X202762588Y-140235001D01*
X202762994Y-140234148D01*
X202763438Y-140233313D01*
X202763919Y-140232496D01*
X202764436Y-140231699D01*
X202764986Y-140230923D01*
X202766183Y-140229439D01*
X202767499Y-140228052D01*
X202768923Y-140226772D01*
X202770443Y-140225608D01*
X202772048Y-140224569D01*
X202773726Y-140223665D01*
X202774590Y-140223266D01*
X202775468Y-140222904D01*
X202776359Y-140222581D01*
X202777261Y-140222297D01*
X202778173Y-140222053D01*
X202779094Y-140221852D01*
X202780022Y-140221693D01*
X202780956Y-140221578D01*
X202781894Y-140221508D01*
X202782835Y-140221484D01*
X203200665Y-140221484D01*
X203201608Y-140221508D01*
G37*
D11*
%TO.C,JP4*%
X219000000Y-135400000D02*
X219000000Y-132600000D01*
X219700000Y-131950000D02*
X220300000Y-131950000D01*
X220300000Y-136050000D02*
X219700000Y-136050000D01*
X221000000Y-132600000D02*
X221000000Y-135400000D01*
X221200000Y-135200000D02*
X221500000Y-134900000D01*
X221200000Y-135200000D02*
X221500000Y-135500000D01*
X221500000Y-135500000D02*
X221500000Y-134900000D01*
X219000000Y-132650000D02*
G75*
G02*
X219700000Y-131950000I700000J0D01*
G01*
X219700000Y-136050000D02*
G75*
G02*
X219000000Y-135350000I-1J699999D01*
G01*
X220300000Y-131950000D02*
G75*
G02*
X221000000Y-132650000I0J-700000D01*
G01*
X221000000Y-135350000D02*
G75*
G02*
X220300000Y-136050000I-699999J-1D01*
G01*
%TD*%
M02*
