%TF.GenerationSoftware,KiCad,Pcbnew,9.0.0-9.0.0-2~ubuntu24.04.1*%
%TF.CreationDate,2025-04-09T05:43:52-04:00*%
%TF.ProjectId,Touch,546f7563-682e-46b6-9963-61645f706362,rev?*%
%TF.SameCoordinates,Original*%
%TF.FileFunction,Legend,Top*%
%TF.FilePolarity,Positive*%
%FSLAX46Y46*%
G04 Gerber Fmt 4.6, Leading zero omitted, Abs format (unit mm)*
G04 Created by KiCad (PCBNEW 9.0.0-9.0.0-2~ubuntu24.04.1) date 2025-04-09 05:43:52*
%MOMM*%
%LPD*%
G01*
G04 APERTURE LIST*
%ADD10C,0.150000*%
%ADD11C,0.120000*%
%ADD12C,0.000000*%
G04 APERTURE END LIST*
D10*
X210666666Y-136454819D02*
X210666666Y-137169104D01*
X210666666Y-137169104D02*
X210619047Y-137311961D01*
X210619047Y-137311961D02*
X210523809Y-137407200D01*
X210523809Y-137407200D02*
X210380952Y-137454819D01*
X210380952Y-137454819D02*
X210285714Y-137454819D01*
X211142857Y-137454819D02*
X211142857Y-136454819D01*
X211142857Y-136454819D02*
X211523809Y-136454819D01*
X211523809Y-136454819D02*
X211619047Y-136502438D01*
X211619047Y-136502438D02*
X211666666Y-136550057D01*
X211666666Y-136550057D02*
X211714285Y-136645295D01*
X211714285Y-136645295D02*
X211714285Y-136788152D01*
X211714285Y-136788152D02*
X211666666Y-136883390D01*
X211666666Y-136883390D02*
X211619047Y-136931009D01*
X211619047Y-136931009D02*
X211523809Y-136978628D01*
X211523809Y-136978628D02*
X211142857Y-136978628D01*
X212571428Y-136788152D02*
X212571428Y-137454819D01*
X212333333Y-136407200D02*
X212095238Y-137121485D01*
X212095238Y-137121485D02*
X212714285Y-137121485D01*
X204166666Y-136454819D02*
X204166666Y-137169104D01*
X204166666Y-137169104D02*
X204119047Y-137311961D01*
X204119047Y-137311961D02*
X204023809Y-137407200D01*
X204023809Y-137407200D02*
X203880952Y-137454819D01*
X203880952Y-137454819D02*
X203785714Y-137454819D01*
X204642857Y-137454819D02*
X204642857Y-136454819D01*
X204642857Y-136454819D02*
X205023809Y-136454819D01*
X205023809Y-136454819D02*
X205119047Y-136502438D01*
X205119047Y-136502438D02*
X205166666Y-136550057D01*
X205166666Y-136550057D02*
X205214285Y-136645295D01*
X205214285Y-136645295D02*
X205214285Y-136788152D01*
X205214285Y-136788152D02*
X205166666Y-136883390D01*
X205166666Y-136883390D02*
X205119047Y-136931009D01*
X205119047Y-136931009D02*
X205023809Y-136978628D01*
X205023809Y-136978628D02*
X204642857Y-136978628D01*
X205547619Y-136454819D02*
X206166666Y-136454819D01*
X206166666Y-136454819D02*
X205833333Y-136835771D01*
X205833333Y-136835771D02*
X205976190Y-136835771D01*
X205976190Y-136835771D02*
X206071428Y-136883390D01*
X206071428Y-136883390D02*
X206119047Y-136931009D01*
X206119047Y-136931009D02*
X206166666Y-137026247D01*
X206166666Y-137026247D02*
X206166666Y-137264342D01*
X206166666Y-137264342D02*
X206119047Y-137359580D01*
X206119047Y-137359580D02*
X206071428Y-137407200D01*
X206071428Y-137407200D02*
X205976190Y-137454819D01*
X205976190Y-137454819D02*
X205690476Y-137454819D01*
X205690476Y-137454819D02*
X205595238Y-137407200D01*
X205595238Y-137407200D02*
X205547619Y-137359580D01*
X198357142Y-149359580D02*
X198309523Y-149407200D01*
X198309523Y-149407200D02*
X198166666Y-149454819D01*
X198166666Y-149454819D02*
X198071428Y-149454819D01*
X198071428Y-149454819D02*
X197928571Y-149407200D01*
X197928571Y-149407200D02*
X197833333Y-149311961D01*
X197833333Y-149311961D02*
X197785714Y-149216723D01*
X197785714Y-149216723D02*
X197738095Y-149026247D01*
X197738095Y-149026247D02*
X197738095Y-148883390D01*
X197738095Y-148883390D02*
X197785714Y-148692914D01*
X197785714Y-148692914D02*
X197833333Y-148597676D01*
X197833333Y-148597676D02*
X197928571Y-148502438D01*
X197928571Y-148502438D02*
X198071428Y-148454819D01*
X198071428Y-148454819D02*
X198166666Y-148454819D01*
X198166666Y-148454819D02*
X198309523Y-148502438D01*
X198309523Y-148502438D02*
X198357142Y-148550057D01*
X199309523Y-149454819D02*
X198738095Y-149454819D01*
X199023809Y-149454819D02*
X199023809Y-148454819D01*
X199023809Y-148454819D02*
X198928571Y-148597676D01*
X198928571Y-148597676D02*
X198833333Y-148692914D01*
X198833333Y-148692914D02*
X198738095Y-148740533D01*
X199785714Y-149454819D02*
X199976190Y-149454819D01*
X199976190Y-149454819D02*
X200071428Y-149407200D01*
X200071428Y-149407200D02*
X200119047Y-149359580D01*
X200119047Y-149359580D02*
X200214285Y-149216723D01*
X200214285Y-149216723D02*
X200261904Y-149026247D01*
X200261904Y-149026247D02*
X200261904Y-148645295D01*
X200261904Y-148645295D02*
X200214285Y-148550057D01*
X200214285Y-148550057D02*
X200166666Y-148502438D01*
X200166666Y-148502438D02*
X200071428Y-148454819D01*
X200071428Y-148454819D02*
X199880952Y-148454819D01*
X199880952Y-148454819D02*
X199785714Y-148502438D01*
X199785714Y-148502438D02*
X199738095Y-148550057D01*
X199738095Y-148550057D02*
X199690476Y-148645295D01*
X199690476Y-148645295D02*
X199690476Y-148883390D01*
X199690476Y-148883390D02*
X199738095Y-148978628D01*
X199738095Y-148978628D02*
X199785714Y-149026247D01*
X199785714Y-149026247D02*
X199880952Y-149073866D01*
X199880952Y-149073866D02*
X200071428Y-149073866D01*
X200071428Y-149073866D02*
X200166666Y-149026247D01*
X200166666Y-149026247D02*
X200214285Y-148978628D01*
X200214285Y-148978628D02*
X200261904Y-148883390D01*
X205357142Y-146954819D02*
X205023809Y-146478628D01*
X204785714Y-146954819D02*
X204785714Y-145954819D01*
X204785714Y-145954819D02*
X205166666Y-145954819D01*
X205166666Y-145954819D02*
X205261904Y-146002438D01*
X205261904Y-146002438D02*
X205309523Y-146050057D01*
X205309523Y-146050057D02*
X205357142Y-146145295D01*
X205357142Y-146145295D02*
X205357142Y-146288152D01*
X205357142Y-146288152D02*
X205309523Y-146383390D01*
X205309523Y-146383390D02*
X205261904Y-146431009D01*
X205261904Y-146431009D02*
X205166666Y-146478628D01*
X205166666Y-146478628D02*
X204785714Y-146478628D01*
X205738095Y-146050057D02*
X205785714Y-146002438D01*
X205785714Y-146002438D02*
X205880952Y-145954819D01*
X205880952Y-145954819D02*
X206119047Y-145954819D01*
X206119047Y-145954819D02*
X206214285Y-146002438D01*
X206214285Y-146002438D02*
X206261904Y-146050057D01*
X206261904Y-146050057D02*
X206309523Y-146145295D01*
X206309523Y-146145295D02*
X206309523Y-146240533D01*
X206309523Y-146240533D02*
X206261904Y-146383390D01*
X206261904Y-146383390D02*
X205690476Y-146954819D01*
X205690476Y-146954819D02*
X206309523Y-146954819D01*
X207261904Y-146954819D02*
X206690476Y-146954819D01*
X206976190Y-146954819D02*
X206976190Y-145954819D01*
X206976190Y-145954819D02*
X206880952Y-146097676D01*
X206880952Y-146097676D02*
X206785714Y-146192914D01*
X206785714Y-146192914D02*
X206690476Y-146240533D01*
X199238095Y-146954819D02*
X199238095Y-147764342D01*
X199238095Y-147764342D02*
X199285714Y-147859580D01*
X199285714Y-147859580D02*
X199333333Y-147907200D01*
X199333333Y-147907200D02*
X199428571Y-147954819D01*
X199428571Y-147954819D02*
X199619047Y-147954819D01*
X199619047Y-147954819D02*
X199714285Y-147907200D01*
X199714285Y-147907200D02*
X199761904Y-147859580D01*
X199761904Y-147859580D02*
X199809523Y-147764342D01*
X199809523Y-147764342D02*
X199809523Y-146954819D01*
X200428571Y-147383390D02*
X200333333Y-147335771D01*
X200333333Y-147335771D02*
X200285714Y-147288152D01*
X200285714Y-147288152D02*
X200238095Y-147192914D01*
X200238095Y-147192914D02*
X200238095Y-147145295D01*
X200238095Y-147145295D02*
X200285714Y-147050057D01*
X200285714Y-147050057D02*
X200333333Y-147002438D01*
X200333333Y-147002438D02*
X200428571Y-146954819D01*
X200428571Y-146954819D02*
X200619047Y-146954819D01*
X200619047Y-146954819D02*
X200714285Y-147002438D01*
X200714285Y-147002438D02*
X200761904Y-147050057D01*
X200761904Y-147050057D02*
X200809523Y-147145295D01*
X200809523Y-147145295D02*
X200809523Y-147192914D01*
X200809523Y-147192914D02*
X200761904Y-147288152D01*
X200761904Y-147288152D02*
X200714285Y-147335771D01*
X200714285Y-147335771D02*
X200619047Y-147383390D01*
X200619047Y-147383390D02*
X200428571Y-147383390D01*
X200428571Y-147383390D02*
X200333333Y-147431009D01*
X200333333Y-147431009D02*
X200285714Y-147478628D01*
X200285714Y-147478628D02*
X200238095Y-147573866D01*
X200238095Y-147573866D02*
X200238095Y-147764342D01*
X200238095Y-147764342D02*
X200285714Y-147859580D01*
X200285714Y-147859580D02*
X200333333Y-147907200D01*
X200333333Y-147907200D02*
X200428571Y-147954819D01*
X200428571Y-147954819D02*
X200619047Y-147954819D01*
X200619047Y-147954819D02*
X200714285Y-147907200D01*
X200714285Y-147907200D02*
X200761904Y-147859580D01*
X200761904Y-147859580D02*
X200809523Y-147764342D01*
X200809523Y-147764342D02*
X200809523Y-147573866D01*
X200809523Y-147573866D02*
X200761904Y-147478628D01*
X200761904Y-147478628D02*
X200714285Y-147431009D01*
X200714285Y-147431009D02*
X200619047Y-147383390D01*
X208869730Y-142384819D02*
X208869730Y-143099104D01*
X208869730Y-143099104D02*
X208822111Y-143241961D01*
X208822111Y-143241961D02*
X208726873Y-143337200D01*
X208726873Y-143337200D02*
X208584016Y-143384819D01*
X208584016Y-143384819D02*
X208488778Y-143384819D01*
X209298302Y-142480057D02*
X209345921Y-142432438D01*
X209345921Y-142432438D02*
X209441159Y-142384819D01*
X209441159Y-142384819D02*
X209679254Y-142384819D01*
X209679254Y-142384819D02*
X209774492Y-142432438D01*
X209774492Y-142432438D02*
X209822111Y-142480057D01*
X209822111Y-142480057D02*
X209869730Y-142575295D01*
X209869730Y-142575295D02*
X209869730Y-142670533D01*
X209869730Y-142670533D02*
X209822111Y-142813390D01*
X209822111Y-142813390D02*
X209250683Y-143384819D01*
X209250683Y-143384819D02*
X209869730Y-143384819D01*
X205357142Y-139954819D02*
X205023809Y-139478628D01*
X204785714Y-139954819D02*
X204785714Y-138954819D01*
X204785714Y-138954819D02*
X205166666Y-138954819D01*
X205166666Y-138954819D02*
X205261904Y-139002438D01*
X205261904Y-139002438D02*
X205309523Y-139050057D01*
X205309523Y-139050057D02*
X205357142Y-139145295D01*
X205357142Y-139145295D02*
X205357142Y-139288152D01*
X205357142Y-139288152D02*
X205309523Y-139383390D01*
X205309523Y-139383390D02*
X205261904Y-139431009D01*
X205261904Y-139431009D02*
X205166666Y-139478628D01*
X205166666Y-139478628D02*
X204785714Y-139478628D01*
X206309523Y-139954819D02*
X205738095Y-139954819D01*
X206023809Y-139954819D02*
X206023809Y-138954819D01*
X206023809Y-138954819D02*
X205928571Y-139097676D01*
X205928571Y-139097676D02*
X205833333Y-139192914D01*
X205833333Y-139192914D02*
X205738095Y-139240533D01*
X206642857Y-138954819D02*
X207309523Y-138954819D01*
X207309523Y-138954819D02*
X206880952Y-139954819D01*
X196857142Y-137219000D02*
X196809523Y-137266620D01*
X196809523Y-137266620D02*
X196666666Y-137314239D01*
X196666666Y-137314239D02*
X196571428Y-137314239D01*
X196571428Y-137314239D02*
X196428571Y-137266620D01*
X196428571Y-137266620D02*
X196333333Y-137171381D01*
X196333333Y-137171381D02*
X196285714Y-137076143D01*
X196285714Y-137076143D02*
X196238095Y-136885667D01*
X196238095Y-136885667D02*
X196238095Y-136742810D01*
X196238095Y-136742810D02*
X196285714Y-136552334D01*
X196285714Y-136552334D02*
X196333333Y-136457096D01*
X196333333Y-136457096D02*
X196428571Y-136361858D01*
X196428571Y-136361858D02*
X196571428Y-136314239D01*
X196571428Y-136314239D02*
X196666666Y-136314239D01*
X196666666Y-136314239D02*
X196809523Y-136361858D01*
X196809523Y-136361858D02*
X196857142Y-136409477D01*
X197809523Y-137314239D02*
X197238095Y-137314239D01*
X197523809Y-137314239D02*
X197523809Y-136314239D01*
X197523809Y-136314239D02*
X197428571Y-136457096D01*
X197428571Y-136457096D02*
X197333333Y-136552334D01*
X197333333Y-136552334D02*
X197238095Y-136599953D01*
X198380952Y-136742810D02*
X198285714Y-136695191D01*
X198285714Y-136695191D02*
X198238095Y-136647572D01*
X198238095Y-136647572D02*
X198190476Y-136552334D01*
X198190476Y-136552334D02*
X198190476Y-136504715D01*
X198190476Y-136504715D02*
X198238095Y-136409477D01*
X198238095Y-136409477D02*
X198285714Y-136361858D01*
X198285714Y-136361858D02*
X198380952Y-136314239D01*
X198380952Y-136314239D02*
X198571428Y-136314239D01*
X198571428Y-136314239D02*
X198666666Y-136361858D01*
X198666666Y-136361858D02*
X198714285Y-136409477D01*
X198714285Y-136409477D02*
X198761904Y-136504715D01*
X198761904Y-136504715D02*
X198761904Y-136552334D01*
X198761904Y-136552334D02*
X198714285Y-136647572D01*
X198714285Y-136647572D02*
X198666666Y-136695191D01*
X198666666Y-136695191D02*
X198571428Y-136742810D01*
X198571428Y-136742810D02*
X198380952Y-136742810D01*
X198380952Y-136742810D02*
X198285714Y-136790429D01*
X198285714Y-136790429D02*
X198238095Y-136838048D01*
X198238095Y-136838048D02*
X198190476Y-136933286D01*
X198190476Y-136933286D02*
X198190476Y-137123762D01*
X198190476Y-137123762D02*
X198238095Y-137219000D01*
X198238095Y-137219000D02*
X198285714Y-137266620D01*
X198285714Y-137266620D02*
X198380952Y-137314239D01*
X198380952Y-137314239D02*
X198571428Y-137314239D01*
X198571428Y-137314239D02*
X198666666Y-137266620D01*
X198666666Y-137266620D02*
X198714285Y-137219000D01*
X198714285Y-137219000D02*
X198761904Y-137123762D01*
X198761904Y-137123762D02*
X198761904Y-136933286D01*
X198761904Y-136933286D02*
X198714285Y-136838048D01*
X198714285Y-136838048D02*
X198666666Y-136790429D01*
X198666666Y-136790429D02*
X198571428Y-136742810D01*
D11*
%TO.C,JP4*%
X209000000Y-135400000D02*
X209000000Y-132600000D01*
X209700000Y-131950000D02*
X210300000Y-131950000D01*
X210300000Y-136050000D02*
X209700000Y-136050000D01*
X211000000Y-132600000D02*
X211000000Y-135400000D01*
X211200000Y-135200000D02*
X211500000Y-134900000D01*
X211200000Y-135200000D02*
X211500000Y-135500000D01*
X211500000Y-135500000D02*
X211500000Y-134900000D01*
X209000000Y-132650000D02*
G75*
G02*
X209700000Y-131950000I700000J0D01*
G01*
X209700000Y-136050000D02*
G75*
G02*
X209000000Y-135350000I-1J699999D01*
G01*
X210300000Y-131950000D02*
G75*
G02*
X211000000Y-132650000I0J-700000D01*
G01*
X211000000Y-135350000D02*
G75*
G02*
X210300000Y-136050000I-699999J-1D01*
G01*
D12*
%TO.C,G5*%
G36*
X193060418Y-144552832D02*
G01*
X193062146Y-144552832D01*
X193162702Y-144242374D01*
X193227426Y-144242374D01*
X193328007Y-144552832D01*
X193329785Y-144552832D01*
X193414585Y-144242374D01*
X193509066Y-144242374D01*
X193367394Y-144685763D01*
X193288644Y-144685763D01*
X193195941Y-144375304D01*
X193194212Y-144375304D01*
X193101509Y-144685763D01*
X193022783Y-144685763D01*
X192881136Y-144242374D01*
X192975568Y-144242374D01*
X193060418Y-144552832D01*
G37*
G36*
X192391325Y-144237266D02*
G01*
X192397842Y-144237719D01*
X192404225Y-144238463D01*
X192410478Y-144239491D01*
X192416608Y-144240796D01*
X192422619Y-144242370D01*
X192428518Y-144244205D01*
X192434308Y-144246294D01*
X192439995Y-144248629D01*
X192445585Y-144251202D01*
X192451083Y-144254006D01*
X192456494Y-144257033D01*
X192461823Y-144260275D01*
X192467075Y-144263725D01*
X192472257Y-144267375D01*
X192477372Y-144271217D01*
X192412673Y-144348190D01*
X192408805Y-144345343D01*
X192405061Y-144342718D01*
X192401419Y-144340309D01*
X192397859Y-144338110D01*
X192394361Y-144336117D01*
X192390904Y-144334325D01*
X192387467Y-144332727D01*
X192384030Y-144331320D01*
X192380573Y-144330098D01*
X192377074Y-144329056D01*
X192373514Y-144328188D01*
X192369872Y-144327489D01*
X192366127Y-144326955D01*
X192362260Y-144326580D01*
X192358248Y-144326358D01*
X192354073Y-144326286D01*
X192345893Y-144326616D01*
X192337795Y-144327616D01*
X192329840Y-144329299D01*
X192322091Y-144331676D01*
X192318312Y-144333129D01*
X192314607Y-144334760D01*
X192310985Y-144336572D01*
X192307452Y-144338565D01*
X192304016Y-144340741D01*
X192300686Y-144343102D01*
X192297468Y-144345649D01*
X192294371Y-144348384D01*
X192291402Y-144351309D01*
X192288568Y-144354424D01*
X192285878Y-144357733D01*
X192283340Y-144361235D01*
X192280960Y-144364934D01*
X192278747Y-144368829D01*
X192276708Y-144372924D01*
X192274851Y-144377219D01*
X192273184Y-144381716D01*
X192271714Y-144386417D01*
X192270449Y-144391324D01*
X192269397Y-144396437D01*
X192268565Y-144401758D01*
X192267961Y-144407290D01*
X192267594Y-144413033D01*
X192267469Y-144418989D01*
X192267469Y-144685763D01*
X192178273Y-144685763D01*
X192178273Y-144242374D01*
X192267469Y-144242374D01*
X192267469Y-144289590D01*
X192269223Y-144289590D01*
X192274611Y-144283238D01*
X192280280Y-144277296D01*
X192286220Y-144271762D01*
X192292425Y-144266639D01*
X192298886Y-144261924D01*
X192305596Y-144257620D01*
X192312548Y-144253725D01*
X192319732Y-144250239D01*
X192327142Y-144247164D01*
X192334769Y-144244498D01*
X192342606Y-144242242D01*
X192350646Y-144240396D01*
X192358880Y-144238960D01*
X192367300Y-144237935D01*
X192375899Y-144237319D01*
X192384669Y-144237114D01*
X192391325Y-144237266D01*
G37*
G36*
X194183852Y-144237266D02*
G01*
X194190366Y-144237719D01*
X194196748Y-144238463D01*
X194203001Y-144239491D01*
X194209132Y-144240796D01*
X194215145Y-144242370D01*
X194221045Y-144244205D01*
X194226838Y-144246294D01*
X194232528Y-144248629D01*
X194238120Y-144251202D01*
X194243619Y-144254006D01*
X194249031Y-144257033D01*
X194254360Y-144260275D01*
X194259612Y-144263725D01*
X194264791Y-144267375D01*
X194269902Y-144271217D01*
X194205178Y-144348190D01*
X194201315Y-144345343D01*
X194197574Y-144342718D01*
X194193936Y-144340309D01*
X194190379Y-144338110D01*
X194186882Y-144336117D01*
X194183427Y-144334325D01*
X194179991Y-144332727D01*
X194176554Y-144331320D01*
X194173096Y-144330098D01*
X194169597Y-144329056D01*
X194166036Y-144328188D01*
X194162391Y-144327489D01*
X194158644Y-144326955D01*
X194154773Y-144326580D01*
X194150758Y-144326358D01*
X194146578Y-144326286D01*
X194138399Y-144326616D01*
X194130302Y-144327616D01*
X194122348Y-144329299D01*
X194114600Y-144331676D01*
X194110822Y-144333129D01*
X194107118Y-144334760D01*
X194103497Y-144336572D01*
X194099965Y-144338565D01*
X194096531Y-144340741D01*
X194093201Y-144343102D01*
X194089985Y-144345649D01*
X194086889Y-144348384D01*
X194083921Y-144351309D01*
X194081088Y-144354424D01*
X194078400Y-144357733D01*
X194075862Y-144361235D01*
X194073483Y-144364934D01*
X194071271Y-144368829D01*
X194069233Y-144372924D01*
X194067377Y-144377219D01*
X194065711Y-144381716D01*
X194064242Y-144386417D01*
X194062977Y-144391324D01*
X194061926Y-144396437D01*
X194061095Y-144401758D01*
X194060491Y-144407290D01*
X194060124Y-144413033D01*
X194059999Y-144418989D01*
X194059999Y-144685763D01*
X193970828Y-144685763D01*
X193970828Y-144242374D01*
X194059999Y-144242374D01*
X194059999Y-144289590D01*
X194061802Y-144289590D01*
X194067186Y-144283238D01*
X194072850Y-144277296D01*
X194078786Y-144271762D01*
X194084986Y-144266639D01*
X194091443Y-144261924D01*
X194098150Y-144257620D01*
X194105097Y-144253725D01*
X194112278Y-144250239D01*
X194119684Y-144247164D01*
X194127308Y-144244498D01*
X194135143Y-144242242D01*
X194143180Y-144240396D01*
X194151412Y-144238960D01*
X194159831Y-144237935D01*
X194168429Y-144237319D01*
X194177199Y-144237114D01*
X194183852Y-144237266D01*
G37*
G36*
X194294407Y-143536900D02*
G01*
X194300926Y-143537352D01*
X194307309Y-143538096D01*
X194313563Y-143539125D01*
X194319692Y-143540430D01*
X194325701Y-143542004D01*
X194331597Y-143543839D01*
X194337385Y-143545928D01*
X194343071Y-143548263D01*
X194348659Y-143550836D01*
X194354155Y-143553640D01*
X194359565Y-143556667D01*
X194364893Y-143559909D01*
X194370147Y-143563359D01*
X194375330Y-143567009D01*
X194380449Y-143570851D01*
X194315725Y-143647823D01*
X194311862Y-143644985D01*
X194308122Y-143642368D01*
X194304483Y-143639965D01*
X194300926Y-143637772D01*
X194297430Y-143635784D01*
X194293974Y-143633996D01*
X194290538Y-143632402D01*
X194287101Y-143630997D01*
X194283644Y-143629777D01*
X194280144Y-143628736D01*
X194276583Y-143627869D01*
X194272939Y-143627171D01*
X194269191Y-143626638D01*
X194265320Y-143626263D01*
X194261305Y-143626041D01*
X194257125Y-143625969D01*
X194248946Y-143626299D01*
X194240849Y-143627297D01*
X194232895Y-143628977D01*
X194225147Y-143631352D01*
X194221369Y-143632803D01*
X194217666Y-143634433D01*
X194214044Y-143636243D01*
X194210512Y-143638235D01*
X194207078Y-143640409D01*
X194203749Y-143642769D01*
X194200532Y-143645315D01*
X194197436Y-143648049D01*
X194194468Y-143650972D01*
X194191636Y-143654087D01*
X194188947Y-143657395D01*
X194186409Y-143660897D01*
X194184031Y-143664595D01*
X194181818Y-143668490D01*
X194179781Y-143672585D01*
X194177924Y-143676881D01*
X194176258Y-143681380D01*
X194174789Y-143686082D01*
X194173525Y-143690990D01*
X194172473Y-143696105D01*
X194171642Y-143701430D01*
X194171039Y-143706964D01*
X194170671Y-143712711D01*
X194170547Y-143718672D01*
X194170547Y-143985396D01*
X194081326Y-143985396D01*
X194081326Y-143542007D01*
X194170547Y-143542007D01*
X194170547Y-143589223D01*
X194172300Y-143589223D01*
X194177684Y-143582871D01*
X194183350Y-143576929D01*
X194189288Y-143571396D01*
X194195492Y-143566272D01*
X194201953Y-143561558D01*
X194208663Y-143557253D01*
X194215615Y-143553358D01*
X194222800Y-143549873D01*
X194230211Y-143546797D01*
X194237840Y-143544131D01*
X194245679Y-143541876D01*
X194253720Y-143540030D01*
X194261955Y-143538594D01*
X194270376Y-143537568D01*
X194278976Y-143536953D01*
X194287747Y-143536748D01*
X194294407Y-143536900D01*
G37*
G36*
X192375713Y-143536904D02*
G01*
X192382257Y-143537371D01*
X192395399Y-143539236D01*
X192408507Y-143542333D01*
X192421453Y-143546654D01*
X192427824Y-143549270D01*
X192434106Y-143552189D01*
X192440283Y-143555410D01*
X192446338Y-143558930D01*
X192452255Y-143562750D01*
X192458019Y-143566868D01*
X192463612Y-143571283D01*
X192469019Y-143575993D01*
X192474224Y-143580999D01*
X192479210Y-143586298D01*
X192483961Y-143591889D01*
X192488461Y-143597772D01*
X192492695Y-143603946D01*
X192496645Y-143610408D01*
X192500295Y-143617159D01*
X192503630Y-143624196D01*
X192506633Y-143631519D01*
X192509288Y-143639128D01*
X192511579Y-143647019D01*
X192513490Y-143655193D01*
X192515004Y-143663649D01*
X192516106Y-143672385D01*
X192516779Y-143681400D01*
X192517007Y-143690693D01*
X192517007Y-143985396D01*
X192427810Y-143985396D01*
X192427810Y-143721338D01*
X192427701Y-143715750D01*
X192427376Y-143710313D01*
X192426839Y-143705029D01*
X192426097Y-143699898D01*
X192425152Y-143694924D01*
X192424011Y-143690108D01*
X192422677Y-143685450D01*
X192421155Y-143680955D01*
X192419450Y-143676622D01*
X192417566Y-143672454D01*
X192415508Y-143668452D01*
X192413281Y-143664619D01*
X192410889Y-143660956D01*
X192408338Y-143657464D01*
X192405631Y-143654146D01*
X192402773Y-143651003D01*
X192399769Y-143648037D01*
X192396624Y-143645249D01*
X192393342Y-143642643D01*
X192389928Y-143640218D01*
X192386387Y-143637977D01*
X192382722Y-143635922D01*
X192378940Y-143634055D01*
X192375043Y-143632376D01*
X192371038Y-143630889D01*
X192366929Y-143629594D01*
X192362720Y-143628493D01*
X192358416Y-143627589D01*
X192354021Y-143626883D01*
X192349541Y-143626376D01*
X192344980Y-143626071D01*
X192340343Y-143625969D01*
X192335626Y-143626071D01*
X192330992Y-143626376D01*
X192326443Y-143626883D01*
X192321984Y-143627589D01*
X192317620Y-143628493D01*
X192313356Y-143629594D01*
X192309195Y-143630889D01*
X192305142Y-143632376D01*
X192301202Y-143634055D01*
X192297380Y-143635922D01*
X192293679Y-143637977D01*
X192290104Y-143640218D01*
X192286659Y-143642643D01*
X192283350Y-143645249D01*
X192280181Y-143648037D01*
X192277156Y-143651003D01*
X192274279Y-143654146D01*
X192271555Y-143657464D01*
X192268989Y-143660956D01*
X192266585Y-143664619D01*
X192264348Y-143668452D01*
X192262281Y-143672454D01*
X192260391Y-143676622D01*
X192258680Y-143680955D01*
X192257153Y-143685451D01*
X192255816Y-143690108D01*
X192254672Y-143694924D01*
X192253726Y-143699899D01*
X192252982Y-143705029D01*
X192252445Y-143710314D01*
X192252120Y-143715751D01*
X192252011Y-143721339D01*
X192252011Y-143985396D01*
X192162814Y-143985396D01*
X192162814Y-143542007D01*
X192252011Y-143542007D01*
X192252011Y-143589223D01*
X192253789Y-143589223D01*
X192259173Y-143582871D01*
X192264837Y-143576929D01*
X192270775Y-143571396D01*
X192276977Y-143566272D01*
X192283436Y-143561558D01*
X192290144Y-143557253D01*
X192297093Y-143553358D01*
X192304276Y-143549873D01*
X192311685Y-143546797D01*
X192319312Y-143544131D01*
X192327149Y-143541876D01*
X192335188Y-143540030D01*
X192343421Y-143538594D01*
X192351841Y-143537568D01*
X192360440Y-143536953D01*
X192369210Y-143536748D01*
X192375713Y-143536904D01*
G37*
G36*
X193718522Y-143806124D02*
G01*
X193718632Y-143811706D01*
X193718957Y-143817137D01*
X193719494Y-143822416D01*
X193720238Y-143827542D01*
X193721185Y-143832512D01*
X193722329Y-143837326D01*
X193723668Y-143841980D01*
X193725195Y-143846473D01*
X193726906Y-143850804D01*
X193728798Y-143854971D01*
X193730865Y-143858971D01*
X193733103Y-143862804D01*
X193735508Y-143866467D01*
X193738075Y-143869958D01*
X193740799Y-143873277D01*
X193743676Y-143876420D01*
X193746702Y-143879387D01*
X193749872Y-143882175D01*
X193753182Y-143884783D01*
X193756626Y-143887209D01*
X193760201Y-143889451D01*
X193763902Y-143891507D01*
X193767725Y-143893376D01*
X193771664Y-143895056D01*
X193775716Y-143896544D01*
X193779876Y-143897840D01*
X193784140Y-143898942D01*
X193788503Y-143899847D01*
X193792960Y-143900554D01*
X193797507Y-143901062D01*
X193802140Y-143901367D01*
X193806854Y-143901470D01*
X193811492Y-143901367D01*
X193816053Y-143901062D01*
X193820533Y-143900554D01*
X193824927Y-143899847D01*
X193829231Y-143898942D01*
X193833440Y-143897840D01*
X193837550Y-143896544D01*
X193841555Y-143895056D01*
X193845451Y-143893376D01*
X193849234Y-143891507D01*
X193852898Y-143889451D01*
X193856440Y-143887209D01*
X193859854Y-143884783D01*
X193863136Y-143882175D01*
X193866281Y-143879387D01*
X193869285Y-143876420D01*
X193872142Y-143873277D01*
X193874849Y-143869958D01*
X193877401Y-143866467D01*
X193879793Y-143862804D01*
X193882020Y-143858971D01*
X193884077Y-143854971D01*
X193885961Y-143850804D01*
X193887666Y-143846473D01*
X193889188Y-143841980D01*
X193890522Y-143837326D01*
X193891664Y-143832512D01*
X193892608Y-143827542D01*
X193893351Y-143822416D01*
X193893887Y-143817137D01*
X193894213Y-143811706D01*
X193894322Y-143806124D01*
X193894322Y-143541993D01*
X193983518Y-143541993D01*
X193983518Y-143985431D01*
X193894322Y-143985431D01*
X193894322Y-143938165D01*
X193892593Y-143938165D01*
X193887205Y-143944517D01*
X193881537Y-143950460D01*
X193875599Y-143955993D01*
X193869401Y-143961117D01*
X193862952Y-143965831D01*
X193856260Y-143970136D01*
X193849335Y-143974031D01*
X193842186Y-143977516D01*
X193834822Y-143980592D01*
X193827253Y-143983257D01*
X193819487Y-143985513D01*
X193811534Y-143987359D01*
X193803404Y-143988795D01*
X193795104Y-143989821D01*
X193786645Y-143990436D01*
X193778036Y-143990641D01*
X193771454Y-143990485D01*
X193764837Y-143990018D01*
X193751561Y-143988153D01*
X193738336Y-143985056D01*
X193731782Y-143983048D01*
X193725289Y-143980736D01*
X193718874Y-143978120D01*
X193712550Y-143975201D01*
X193706336Y-143971981D01*
X193700247Y-143968461D01*
X193694298Y-143964642D01*
X193688507Y-143960525D01*
X193682888Y-143956111D01*
X193677458Y-143951402D01*
X193672233Y-143946398D01*
X193667230Y-143941100D01*
X193662463Y-143935510D01*
X193657949Y-143929629D01*
X193653704Y-143923457D01*
X193649744Y-143916997D01*
X193646086Y-143910249D01*
X193642744Y-143903214D01*
X193639736Y-143895893D01*
X193637077Y-143888288D01*
X193634783Y-143880400D01*
X193632870Y-143872229D01*
X193631354Y-143863777D01*
X193630252Y-143855045D01*
X193629578Y-143846034D01*
X193629350Y-143836746D01*
X193629350Y-143541993D01*
X193718522Y-143541993D01*
X193718522Y-143806124D01*
G37*
G36*
X194577242Y-143536832D02*
G01*
X194583431Y-143537112D01*
X194589537Y-143537575D01*
X194595562Y-143538216D01*
X194607364Y-143540020D01*
X194618836Y-143542494D01*
X194629975Y-143545608D01*
X194640781Y-143549334D01*
X194651251Y-143553642D01*
X194661384Y-143558503D01*
X194671179Y-143563886D01*
X194680633Y-143569763D01*
X194689746Y-143576104D01*
X194698515Y-143582879D01*
X194706940Y-143590059D01*
X194715018Y-143597615D01*
X194722747Y-143605517D01*
X194730127Y-143613735D01*
X194664539Y-143672335D01*
X194660330Y-143667346D01*
X194655901Y-143662558D01*
X194651259Y-143657989D01*
X194646411Y-143653653D01*
X194641364Y-143649569D01*
X194636123Y-143645753D01*
X194630695Y-143642222D01*
X194625087Y-143638991D01*
X194619304Y-143636078D01*
X194613355Y-143633500D01*
X194607244Y-143631273D01*
X194600979Y-143629413D01*
X194594566Y-143627937D01*
X194588011Y-143626863D01*
X194581322Y-143626206D01*
X194574503Y-143625983D01*
X194561242Y-143626469D01*
X194548697Y-143627939D01*
X194542699Y-143629050D01*
X194536887Y-143630415D01*
X194531264Y-143632038D01*
X194525832Y-143633920D01*
X194520593Y-143636065D01*
X194515551Y-143638475D01*
X194510706Y-143641153D01*
X194506062Y-143644102D01*
X194501622Y-143647324D01*
X194497386Y-143650822D01*
X194493359Y-143654599D01*
X194489542Y-143658657D01*
X194485938Y-143663000D01*
X194482548Y-143667630D01*
X194479377Y-143672549D01*
X194476425Y-143677761D01*
X194473695Y-143683268D01*
X194471191Y-143689073D01*
X194468913Y-143695178D01*
X194466865Y-143701587D01*
X194465049Y-143708301D01*
X194463467Y-143715324D01*
X194462122Y-143722659D01*
X194461016Y-143730308D01*
X194459531Y-143746559D01*
X194459032Y-143764099D01*
X194459157Y-143772960D01*
X194459531Y-143781501D01*
X194460152Y-143789724D01*
X194461016Y-143797632D01*
X194462122Y-143805227D01*
X194463467Y-143812512D01*
X194465049Y-143819490D01*
X194466865Y-143826163D01*
X194468913Y-143832533D01*
X194471191Y-143838604D01*
X194473695Y-143844377D01*
X194476425Y-143849856D01*
X194479377Y-143855043D01*
X194482548Y-143859940D01*
X194485938Y-143864549D01*
X194489542Y-143868875D01*
X194493359Y-143872918D01*
X194497386Y-143876682D01*
X194501622Y-143880170D01*
X194506062Y-143883382D01*
X194510706Y-143886324D01*
X194515551Y-143888996D01*
X194520593Y-143891401D01*
X194525832Y-143893543D01*
X194531264Y-143895423D01*
X194536887Y-143897044D01*
X194542699Y-143898408D01*
X194548697Y-143899519D01*
X194554879Y-143900378D01*
X194561242Y-143900989D01*
X194567784Y-143901354D01*
X194574503Y-143901475D01*
X194577928Y-143901419D01*
X194581322Y-143901252D01*
X194584683Y-143900977D01*
X194588011Y-143900595D01*
X194594566Y-143899521D01*
X194600979Y-143898045D01*
X194607244Y-143896185D01*
X194613355Y-143893958D01*
X194619304Y-143891380D01*
X194625087Y-143888467D01*
X194630695Y-143885236D01*
X194636123Y-143881705D01*
X194641364Y-143877888D01*
X194646411Y-143873804D01*
X194651259Y-143869469D01*
X194655901Y-143864900D01*
X194660330Y-143860112D01*
X194664539Y-143855123D01*
X194730127Y-143913723D01*
X194722747Y-143921932D01*
X194715018Y-143929826D01*
X194706940Y-143937374D01*
X194698515Y-143944547D01*
X194689746Y-143951315D01*
X194680633Y-143957650D01*
X194671179Y-143963521D01*
X194661384Y-143968900D01*
X194651251Y-143973756D01*
X194640781Y-143978060D01*
X194629975Y-143981783D01*
X194618836Y-143984895D01*
X194607364Y-143987367D01*
X194595562Y-143989169D01*
X194583431Y-143990272D01*
X194570972Y-143990646D01*
X194551853Y-143989880D01*
X194532955Y-143987551D01*
X194514419Y-143983611D01*
X194496383Y-143978012D01*
X194487596Y-143974575D01*
X194478987Y-143970706D01*
X194470573Y-143966398D01*
X194462371Y-143961646D01*
X194454399Y-143956444D01*
X194446675Y-143950785D01*
X194439215Y-143944664D01*
X194432038Y-143938075D01*
X194425160Y-143931011D01*
X194418600Y-143923467D01*
X194412374Y-143915437D01*
X194406500Y-143906915D01*
X194400996Y-143897895D01*
X194395879Y-143888371D01*
X194391167Y-143878337D01*
X194386876Y-143867787D01*
X194383025Y-143856715D01*
X194379630Y-143845115D01*
X194376710Y-143832982D01*
X194374282Y-143820309D01*
X194372363Y-143807090D01*
X194370970Y-143793319D01*
X194370122Y-143778991D01*
X194369836Y-143764099D01*
X194370122Y-143749140D01*
X194370970Y-143734748D01*
X194372363Y-143720918D01*
X194374282Y-143707642D01*
X194376710Y-143694916D01*
X194379630Y-143682733D01*
X194383025Y-143671087D01*
X194386876Y-143659972D01*
X194391167Y-143649382D01*
X194395879Y-143639310D01*
X194400996Y-143629752D01*
X194406500Y-143620700D01*
X194412374Y-143612149D01*
X194418600Y-143604092D01*
X194425160Y-143596524D01*
X194432038Y-143589439D01*
X194439215Y-143582830D01*
X194446675Y-143576691D01*
X194454399Y-143571016D01*
X194462371Y-143565800D01*
X194470573Y-143561036D01*
X194478987Y-143556718D01*
X194487596Y-143552840D01*
X194496383Y-143549396D01*
X194505329Y-143546379D01*
X194514419Y-143543785D01*
X194523633Y-143541607D01*
X194532955Y-143539838D01*
X194542368Y-143538472D01*
X194551853Y-143537505D01*
X194570972Y-143536738D01*
X194577242Y-143536832D01*
G37*
G36*
X192833379Y-144685772D02*
G01*
X192744183Y-144685772D01*
X192744183Y-144639421D01*
X192738785Y-144645038D01*
X192733092Y-144650416D01*
X192727117Y-144655536D01*
X192720873Y-144660382D01*
X192714372Y-144664938D01*
X192707627Y-144669186D01*
X192700651Y-144673109D01*
X192693458Y-144676691D01*
X192686059Y-144679914D01*
X192678468Y-144682763D01*
X192670697Y-144685219D01*
X192662760Y-144687267D01*
X192654669Y-144688889D01*
X192646437Y-144690068D01*
X192638076Y-144690788D01*
X192629601Y-144691032D01*
X192624560Y-144690961D01*
X192619607Y-144690749D01*
X192614741Y-144690399D01*
X192609961Y-144689914D01*
X192605268Y-144689296D01*
X192600662Y-144688550D01*
X192596141Y-144687678D01*
X192591707Y-144686682D01*
X192587358Y-144685565D01*
X192583096Y-144684331D01*
X192578919Y-144682982D01*
X192574827Y-144681522D01*
X192570821Y-144679952D01*
X192566899Y-144678277D01*
X192559311Y-144674620D01*
X192552061Y-144670573D01*
X192545149Y-144666161D01*
X192538571Y-144661405D01*
X192532328Y-144656330D01*
X192526418Y-144650959D01*
X192520840Y-144645314D01*
X192515592Y-144639419D01*
X192510672Y-144633297D01*
X192506282Y-144627400D01*
X192502286Y-144621443D01*
X192498670Y-144615306D01*
X192495418Y-144608866D01*
X192492515Y-144602001D01*
X192489945Y-144594591D01*
X192487693Y-144586513D01*
X192485743Y-144577645D01*
X192484081Y-144567865D01*
X192482690Y-144557053D01*
X192481555Y-144545086D01*
X192480662Y-144531843D01*
X192479535Y-144501040D01*
X192479187Y-144463670D01*
X192568383Y-144463670D01*
X192568453Y-144476600D01*
X192568735Y-144489429D01*
X192569340Y-144502056D01*
X192570378Y-144514380D01*
X192571959Y-144526299D01*
X192572988Y-144532076D01*
X192574194Y-144537714D01*
X192575591Y-144543200D01*
X192577192Y-144548521D01*
X192579012Y-144553666D01*
X192581064Y-144558621D01*
X192583362Y-144563373D01*
X192585920Y-144567911D01*
X192588751Y-144572221D01*
X192591870Y-144576291D01*
X192595289Y-144580108D01*
X192599024Y-144583660D01*
X192603087Y-144586933D01*
X192607492Y-144589915D01*
X192612254Y-144592594D01*
X192617386Y-144594957D01*
X192622901Y-144596991D01*
X192628814Y-144598684D01*
X192635138Y-144600022D01*
X192641887Y-144600994D01*
X192649075Y-144601586D01*
X192656715Y-144601787D01*
X192664277Y-144601574D01*
X192671392Y-144600947D01*
X192678072Y-144599919D01*
X192684332Y-144598507D01*
X192690185Y-144596724D01*
X192695644Y-144594587D01*
X192700724Y-144592110D01*
X192705439Y-144589308D01*
X192709800Y-144586196D01*
X192713823Y-144582789D01*
X192717521Y-144579103D01*
X192720908Y-144575152D01*
X192723996Y-144570951D01*
X192726800Y-144566515D01*
X192729334Y-144561860D01*
X192731610Y-144557000D01*
X192733643Y-144551951D01*
X192735447Y-144546726D01*
X192738418Y-144535815D01*
X192740633Y-144524385D01*
X192742202Y-144512557D01*
X192743232Y-144500451D01*
X192743833Y-144488188D01*
X192744183Y-144463670D01*
X192744114Y-144451604D01*
X192743833Y-144439433D01*
X192743232Y-144427279D01*
X192742202Y-144415265D01*
X192740633Y-144403511D01*
X192739613Y-144397771D01*
X192738418Y-144392141D01*
X192737034Y-144386637D01*
X192735447Y-144381275D01*
X192733643Y-144376069D01*
X192731610Y-144371035D01*
X192729334Y-144366189D01*
X192726800Y-144361544D01*
X192723996Y-144357118D01*
X192720908Y-144352924D01*
X192717521Y-144348978D01*
X192713823Y-144345295D01*
X192709800Y-144341891D01*
X192705439Y-144338780D01*
X192700724Y-144335978D01*
X192695644Y-144333501D01*
X192690185Y-144331362D01*
X192684332Y-144329579D01*
X192678072Y-144328165D01*
X192671392Y-144327137D01*
X192664277Y-144326508D01*
X192656715Y-144326295D01*
X192649075Y-144326496D01*
X192641887Y-144327088D01*
X192635138Y-144328060D01*
X192628814Y-144329399D01*
X192622901Y-144331091D01*
X192617386Y-144333124D01*
X192612254Y-144335485D01*
X192607492Y-144338162D01*
X192603087Y-144341141D01*
X192599024Y-144344409D01*
X192595289Y-144347955D01*
X192591870Y-144351765D01*
X192588751Y-144355825D01*
X192585920Y-144360125D01*
X192583362Y-144364649D01*
X192581064Y-144369387D01*
X192579012Y-144374325D01*
X192577192Y-144379449D01*
X192574194Y-144390209D01*
X192571959Y-144401563D01*
X192570378Y-144413410D01*
X192569340Y-144425647D01*
X192568735Y-144438171D01*
X192568383Y-144463670D01*
X192479187Y-144463670D01*
X192479271Y-144444234D01*
X192479535Y-144426546D01*
X192479993Y-144410483D01*
X192480662Y-144395927D01*
X192481555Y-144382757D01*
X192482690Y-144370852D01*
X192484081Y-144360091D01*
X192485743Y-144350354D01*
X192487693Y-144341520D01*
X192488780Y-144337405D01*
X192489945Y-144333470D01*
X192491189Y-144329701D01*
X192492515Y-144326082D01*
X192493924Y-144322599D01*
X192495418Y-144319236D01*
X192498670Y-144312811D01*
X192502286Y-144306687D01*
X192506282Y-144300743D01*
X192510672Y-144294859D01*
X192515592Y-144288725D01*
X192520840Y-144282821D01*
X192526418Y-144277170D01*
X192532328Y-144271795D01*
X192538571Y-144266718D01*
X192545149Y-144261963D01*
X192552061Y-144257552D01*
X192559311Y-144253509D01*
X192566899Y-144249855D01*
X192574827Y-144246615D01*
X192583096Y-144243810D01*
X192591707Y-144241464D01*
X192600662Y-144239599D01*
X192609961Y-144238239D01*
X192619607Y-144237406D01*
X192629601Y-144237124D01*
X192638019Y-144237367D01*
X192646221Y-144238086D01*
X192654218Y-144239266D01*
X192662020Y-144240892D01*
X192669638Y-144242948D01*
X192677081Y-144245419D01*
X192684360Y-144248290D01*
X192691485Y-144251545D01*
X192698467Y-144255170D01*
X192705315Y-144259149D01*
X192712041Y-144263466D01*
X192718654Y-144268107D01*
X192725164Y-144273056D01*
X192731582Y-144278298D01*
X192737918Y-144283817D01*
X192744183Y-144289599D01*
X192744183Y-144063053D01*
X192833379Y-144063053D01*
X192833379Y-144685772D01*
G37*
G36*
X191913049Y-143536962D02*
G01*
X191922100Y-143537593D01*
X191931048Y-143538638D01*
X191939880Y-143540092D01*
X191948582Y-143541949D01*
X191957142Y-143544203D01*
X191965547Y-143546849D01*
X191973782Y-143549881D01*
X191981836Y-143553293D01*
X191989695Y-143557080D01*
X191997345Y-143561237D01*
X192004775Y-143565757D01*
X192011970Y-143570636D01*
X192018917Y-143575867D01*
X192025604Y-143581445D01*
X192032016Y-143587364D01*
X192038142Y-143593619D01*
X192043968Y-143600204D01*
X192049481Y-143607114D01*
X192054667Y-143614343D01*
X192059514Y-143621885D01*
X192064009Y-143629735D01*
X192068137Y-143637888D01*
X192071887Y-143646336D01*
X192075245Y-143655076D01*
X192078198Y-143664101D01*
X192080732Y-143673407D01*
X192082835Y-143682986D01*
X192084494Y-143692834D01*
X192085695Y-143702945D01*
X192086425Y-143713313D01*
X192086671Y-143723934D01*
X192086671Y-143797399D01*
X191810316Y-143797399D01*
X191810446Y-143804098D01*
X191810832Y-143810587D01*
X191811469Y-143816866D01*
X191812352Y-143822934D01*
X191813476Y-143828792D01*
X191814835Y-143834439D01*
X191816426Y-143839875D01*
X191818241Y-143845099D01*
X191820277Y-143850113D01*
X191822529Y-143854915D01*
X191824990Y-143859505D01*
X191827657Y-143863884D01*
X191830523Y-143868051D01*
X191833584Y-143872005D01*
X191836835Y-143875747D01*
X191840270Y-143879277D01*
X191843885Y-143882594D01*
X191847674Y-143885699D01*
X191851632Y-143888590D01*
X191855755Y-143891268D01*
X191860036Y-143893733D01*
X191864471Y-143895985D01*
X191869055Y-143898022D01*
X191873782Y-143899847D01*
X191878648Y-143901457D01*
X191883647Y-143902853D01*
X191888775Y-143904034D01*
X191894025Y-143905001D01*
X191899394Y-143905754D01*
X191904875Y-143906292D01*
X191910465Y-143906614D01*
X191916156Y-143906722D01*
X191922578Y-143906538D01*
X191929042Y-143905992D01*
X191935529Y-143905089D01*
X191942020Y-143903837D01*
X191948495Y-143902240D01*
X191954935Y-143900307D01*
X191961322Y-143898043D01*
X191967635Y-143895455D01*
X191973856Y-143892549D01*
X191979966Y-143889332D01*
X191985945Y-143885810D01*
X191991773Y-143881990D01*
X191997433Y-143877877D01*
X192002905Y-143873479D01*
X192008168Y-143868802D01*
X192013206Y-143863852D01*
X192077930Y-143918921D01*
X192069579Y-143928090D01*
X192060936Y-143936573D01*
X192052018Y-143944386D01*
X192042838Y-143951539D01*
X192033413Y-143958046D01*
X192023757Y-143963920D01*
X192013886Y-143969174D01*
X192003815Y-143973820D01*
X191993560Y-143977871D01*
X191983135Y-143981341D01*
X191972556Y-143984241D01*
X191961839Y-143986586D01*
X191950998Y-143988387D01*
X191940048Y-143989657D01*
X191929005Y-143990410D01*
X191917885Y-143990658D01*
X191900687Y-143990122D01*
X191883318Y-143988423D01*
X191865953Y-143985421D01*
X191848771Y-143980979D01*
X191831947Y-143974959D01*
X191823725Y-143971314D01*
X191815659Y-143967222D01*
X191807771Y-143962666D01*
X191800083Y-143957630D01*
X191792617Y-143952095D01*
X191785396Y-143946045D01*
X191778441Y-143939462D01*
X191771775Y-143932328D01*
X191765419Y-143924628D01*
X191759397Y-143916342D01*
X191753729Y-143907455D01*
X191748437Y-143897948D01*
X191743545Y-143887806D01*
X191739074Y-143877009D01*
X191735047Y-143865541D01*
X191731484Y-143853385D01*
X191728410Y-143840523D01*
X191725844Y-143826938D01*
X191723810Y-143812614D01*
X191722330Y-143797531D01*
X191721426Y-143781674D01*
X191721120Y-143765025D01*
X191721401Y-143749212D01*
X191722231Y-143734069D01*
X191723181Y-143723934D01*
X191810316Y-143723934D01*
X191997475Y-143723934D01*
X191997125Y-143717708D01*
X191996570Y-143711669D01*
X191995812Y-143705816D01*
X191994855Y-143700150D01*
X191993705Y-143694672D01*
X191992365Y-143689383D01*
X191990839Y-143684283D01*
X191989130Y-143679374D01*
X191987244Y-143674657D01*
X191985183Y-143670131D01*
X191982953Y-143665798D01*
X191980556Y-143661658D01*
X191977997Y-143657713D01*
X191975280Y-143653963D01*
X191972409Y-143650408D01*
X191969388Y-143647051D01*
X191966221Y-143643890D01*
X191962912Y-143640928D01*
X191959465Y-143638165D01*
X191955884Y-143635602D01*
X191952172Y-143633239D01*
X191948335Y-143631078D01*
X191944375Y-143629119D01*
X191940298Y-143627363D01*
X191936106Y-143625810D01*
X191931805Y-143624462D01*
X191927397Y-143623319D01*
X191922887Y-143622382D01*
X191918280Y-143621652D01*
X191913578Y-143621130D01*
X191908786Y-143620816D01*
X191903908Y-143620711D01*
X191899028Y-143620816D01*
X191894228Y-143621130D01*
X191889515Y-143621652D01*
X191884892Y-143622382D01*
X191880364Y-143623319D01*
X191875935Y-143624462D01*
X191871610Y-143625810D01*
X191867393Y-143627363D01*
X191863288Y-143629119D01*
X191859301Y-143631078D01*
X191855436Y-143633239D01*
X191851697Y-143635602D01*
X191848088Y-143638165D01*
X191844615Y-143640928D01*
X191841281Y-143643890D01*
X191838091Y-143647051D01*
X191835050Y-143650408D01*
X191832162Y-143653963D01*
X191829432Y-143657713D01*
X191826863Y-143661658D01*
X191824461Y-143665798D01*
X191822231Y-143670131D01*
X191820175Y-143674657D01*
X191818300Y-143679374D01*
X191816609Y-143684283D01*
X191815107Y-143689383D01*
X191813799Y-143694672D01*
X191812689Y-143700150D01*
X191811781Y-143705816D01*
X191811079Y-143711669D01*
X191810590Y-143717708D01*
X191810316Y-143723934D01*
X191723181Y-143723934D01*
X191723589Y-143719585D01*
X191725457Y-143705750D01*
X191727814Y-143692552D01*
X191730641Y-143679980D01*
X191733917Y-143668023D01*
X191737623Y-143656671D01*
X191741739Y-143645912D01*
X191746245Y-143635735D01*
X191751121Y-143626129D01*
X191756348Y-143617083D01*
X191761905Y-143608586D01*
X191767773Y-143600627D01*
X191773932Y-143593194D01*
X191780362Y-143586278D01*
X191787043Y-143579866D01*
X191793955Y-143573948D01*
X191801079Y-143568513D01*
X191808394Y-143563549D01*
X191815882Y-143559046D01*
X191823521Y-143554992D01*
X191831292Y-143551377D01*
X191839176Y-143548189D01*
X191847152Y-143545418D01*
X191855201Y-143543052D01*
X191863303Y-143541080D01*
X191871437Y-143539492D01*
X191887726Y-143537421D01*
X191903908Y-143536750D01*
X191913049Y-143536962D01*
G37*
G36*
X194463488Y-144237331D02*
G01*
X194472541Y-144237962D01*
X194481490Y-144239007D01*
X194490323Y-144240461D01*
X194499026Y-144242318D01*
X194507586Y-144244572D01*
X194515990Y-144247217D01*
X194524226Y-144250249D01*
X194532279Y-144253661D01*
X194540137Y-144257448D01*
X194547786Y-144261604D01*
X194555215Y-144266124D01*
X194562408Y-144271002D01*
X194569354Y-144276232D01*
X194576039Y-144281809D01*
X194582450Y-144287727D01*
X194588574Y-144293981D01*
X194594399Y-144300565D01*
X194599909Y-144307473D01*
X194605094Y-144314700D01*
X194609939Y-144322241D01*
X194614432Y-144330089D01*
X194618559Y-144338238D01*
X194622307Y-144346685D01*
X194625663Y-144355422D01*
X194628614Y-144364444D01*
X194631148Y-144373746D01*
X194633250Y-144383322D01*
X194634907Y-144393166D01*
X194636108Y-144403273D01*
X194636837Y-144413638D01*
X194637084Y-144424254D01*
X194637084Y-144497769D01*
X194360777Y-144497769D01*
X194360907Y-144504463D01*
X194361293Y-144510948D01*
X194361930Y-144517223D01*
X194362812Y-144523287D01*
X194363936Y-144529142D01*
X194365295Y-144534785D01*
X194366884Y-144540218D01*
X194368699Y-144545440D01*
X194370734Y-144550451D01*
X194372985Y-144555251D01*
X194375445Y-144559839D01*
X194378110Y-144564216D01*
X194380976Y-144568381D01*
X194384036Y-144572334D01*
X194387285Y-144576075D01*
X194390719Y-144579603D01*
X194394333Y-144582919D01*
X194398121Y-144586023D01*
X194402078Y-144588913D01*
X194406199Y-144591591D01*
X194410480Y-144594055D01*
X194414914Y-144596306D01*
X194419496Y-144598343D01*
X194424223Y-144600167D01*
X194429088Y-144601777D01*
X194434086Y-144603173D01*
X194439213Y-144604354D01*
X194444463Y-144605321D01*
X194449831Y-144606074D01*
X194455312Y-144606612D01*
X194460901Y-144606934D01*
X194466593Y-144607042D01*
X194473007Y-144606859D01*
X194479464Y-144606314D01*
X194485945Y-144605413D01*
X194492432Y-144604163D01*
X194498905Y-144602570D01*
X194505344Y-144600640D01*
X194511730Y-144598379D01*
X194518044Y-144595794D01*
X194524267Y-144592890D01*
X194530379Y-144589674D01*
X194536360Y-144586152D01*
X194542193Y-144582330D01*
X194547857Y-144578215D01*
X194553332Y-144573813D01*
X194558601Y-144569130D01*
X194563642Y-144564172D01*
X194628366Y-144619290D01*
X194620011Y-144628459D01*
X194611366Y-144636943D01*
X194602445Y-144644755D01*
X194593264Y-144651908D01*
X194583839Y-144658415D01*
X194574183Y-144664289D01*
X194564313Y-144669543D01*
X194554243Y-144674189D01*
X194543989Y-144678240D01*
X194533566Y-144681710D01*
X194522988Y-144684610D01*
X194512272Y-144686955D01*
X194501432Y-144688756D01*
X194490484Y-144690026D01*
X194479442Y-144690779D01*
X194468322Y-144691027D01*
X194451124Y-144690491D01*
X194433755Y-144688792D01*
X194416390Y-144685790D01*
X194399208Y-144681348D01*
X194382384Y-144675326D01*
X194374162Y-144671681D01*
X194366096Y-144667588D01*
X194358208Y-144663032D01*
X194350520Y-144657995D01*
X194343054Y-144652459D01*
X194335833Y-144646408D01*
X194328878Y-144639823D01*
X194322212Y-144632689D01*
X194315856Y-144624986D01*
X194309833Y-144616699D01*
X194304165Y-144607810D01*
X194298874Y-144598302D01*
X194293982Y-144588156D01*
X194289511Y-144577357D01*
X194285484Y-144565886D01*
X194281921Y-144553727D01*
X194278846Y-144540862D01*
X194276281Y-144527274D01*
X194274247Y-144512946D01*
X194272767Y-144497860D01*
X194271863Y-144481998D01*
X194271556Y-144465345D01*
X194271838Y-144449532D01*
X194272668Y-144434389D01*
X194273619Y-144424254D01*
X194360777Y-144424254D01*
X194547912Y-144424254D01*
X194547564Y-144418033D01*
X194547010Y-144411997D01*
X194546254Y-144406147D01*
X194545299Y-144400484D01*
X194544150Y-144395008D01*
X194542811Y-144389721D01*
X194541286Y-144384623D01*
X194539578Y-144379715D01*
X194537692Y-144374998D01*
X194535631Y-144370472D01*
X194533400Y-144366139D01*
X194531004Y-144362000D01*
X194528445Y-144358054D01*
X194525727Y-144354303D01*
X194522856Y-144350748D01*
X194519834Y-144347389D01*
X194516667Y-144344227D01*
X194513357Y-144341264D01*
X194509909Y-144338500D01*
X194506327Y-144335935D01*
X194502615Y-144333571D01*
X194498777Y-144331408D01*
X194494816Y-144329447D01*
X194490738Y-144327689D01*
X194486546Y-144326135D01*
X194482244Y-144324786D01*
X194477835Y-144323642D01*
X194473325Y-144322704D01*
X194468717Y-144321973D01*
X194464015Y-144321450D01*
X194459223Y-144321136D01*
X194454345Y-144321031D01*
X194449464Y-144321136D01*
X194444665Y-144321450D01*
X194439952Y-144321973D01*
X194435329Y-144322704D01*
X194430801Y-144323642D01*
X194426372Y-144324786D01*
X194422047Y-144326135D01*
X194417830Y-144327689D01*
X194413726Y-144329447D01*
X194409739Y-144331408D01*
X194405874Y-144333571D01*
X194402135Y-144335935D01*
X194398526Y-144338500D01*
X194395053Y-144341264D01*
X194391720Y-144344227D01*
X194388531Y-144347389D01*
X194385491Y-144350748D01*
X194382603Y-144354303D01*
X194379874Y-144358054D01*
X194377306Y-144362000D01*
X194374905Y-144366139D01*
X194372675Y-144370472D01*
X194370621Y-144374998D01*
X194368747Y-144379715D01*
X194367058Y-144384623D01*
X194365557Y-144389721D01*
X194364251Y-144395008D01*
X194363142Y-144400484D01*
X194362236Y-144406147D01*
X194361537Y-144411997D01*
X194361049Y-144418033D01*
X194360777Y-144424254D01*
X194273619Y-144424254D01*
X194274027Y-144419906D01*
X194275895Y-144406071D01*
X194278253Y-144392875D01*
X194281080Y-144380304D01*
X194284357Y-144368349D01*
X194288064Y-144356998D01*
X194292180Y-144346241D01*
X194296687Y-144336066D01*
X194301564Y-144326462D01*
X194306791Y-144317418D01*
X194312349Y-144308923D01*
X194318218Y-144300966D01*
X194324377Y-144293536D01*
X194330808Y-144286622D01*
X194337489Y-144280213D01*
X194344402Y-144274297D01*
X194351526Y-144268864D01*
X194358842Y-144263902D01*
X194366329Y-144259401D01*
X194373969Y-144255350D01*
X194381740Y-144251736D01*
X194389623Y-144248551D01*
X194397599Y-144245781D01*
X194405647Y-144243416D01*
X194413748Y-144241446D01*
X194421881Y-144239859D01*
X194438167Y-144237789D01*
X194454345Y-144237119D01*
X194463488Y-144237331D01*
G37*
G36*
X194944737Y-143536962D02*
G01*
X194953786Y-143537593D01*
X194962733Y-143538638D01*
X194971564Y-143540092D01*
X194980266Y-143541949D01*
X194988825Y-143544203D01*
X194997230Y-143546849D01*
X195005465Y-143549881D01*
X195013520Y-143553293D01*
X195021379Y-143557080D01*
X195029031Y-143561237D01*
X195036461Y-143565757D01*
X195043658Y-143570636D01*
X195050606Y-143575867D01*
X195057295Y-143581445D01*
X195063709Y-143587364D01*
X195069837Y-143593619D01*
X195075665Y-143600204D01*
X195081179Y-143607114D01*
X195086367Y-143614343D01*
X195091216Y-143621885D01*
X195095712Y-143629735D01*
X195099843Y-143637888D01*
X195103594Y-143646336D01*
X195106954Y-143655076D01*
X195109908Y-143664101D01*
X195112443Y-143673407D01*
X195114548Y-143682986D01*
X195116207Y-143692834D01*
X195117409Y-143702945D01*
X195118139Y-143713313D01*
X195118386Y-143723934D01*
X195118386Y-143797399D01*
X194842030Y-143797399D01*
X194842160Y-143804098D01*
X194842546Y-143810587D01*
X194843183Y-143816866D01*
X194844065Y-143822934D01*
X194845189Y-143828792D01*
X194846548Y-143834439D01*
X194848137Y-143839875D01*
X194849952Y-143845099D01*
X194851987Y-143850113D01*
X194854237Y-143854915D01*
X194856698Y-143859505D01*
X194859363Y-143863884D01*
X194862228Y-143868051D01*
X194865288Y-143872005D01*
X194868538Y-143875747D01*
X194871972Y-143879277D01*
X194875586Y-143882594D01*
X194879374Y-143885699D01*
X194883331Y-143888590D01*
X194887452Y-143891268D01*
X194891732Y-143893733D01*
X194896166Y-143895985D01*
X194900749Y-143898022D01*
X194905476Y-143899847D01*
X194910341Y-143901457D01*
X194915339Y-143902853D01*
X194920466Y-143904034D01*
X194925716Y-143905001D01*
X194931084Y-143905754D01*
X194936565Y-143906292D01*
X194942154Y-143906614D01*
X194947846Y-143906722D01*
X194954267Y-143906538D01*
X194960731Y-143905992D01*
X194967216Y-143905089D01*
X194973706Y-143903837D01*
X194980179Y-143902240D01*
X194986618Y-143900307D01*
X194993003Y-143898043D01*
X194999315Y-143895455D01*
X195005535Y-143892549D01*
X195011644Y-143889332D01*
X195017623Y-143885810D01*
X195023453Y-143881990D01*
X195029114Y-143877877D01*
X195034587Y-143873479D01*
X195039854Y-143868802D01*
X195044895Y-143863852D01*
X195109619Y-143918921D01*
X195101272Y-143928090D01*
X195092633Y-143936573D01*
X195083716Y-143944386D01*
X195074538Y-143951539D01*
X195065113Y-143958046D01*
X195055457Y-143963920D01*
X195045586Y-143969174D01*
X195035514Y-143973820D01*
X195025258Y-143977871D01*
X195014831Y-143981341D01*
X195004251Y-143984241D01*
X194993532Y-143986586D01*
X194982689Y-143988387D01*
X194971739Y-143989657D01*
X194960695Y-143990410D01*
X194949575Y-143990658D01*
X194932377Y-143990122D01*
X194915007Y-143988423D01*
X194897643Y-143985421D01*
X194880461Y-143980979D01*
X194863637Y-143974959D01*
X194855415Y-143971314D01*
X194847349Y-143967222D01*
X194839461Y-143962666D01*
X194831773Y-143957630D01*
X194824307Y-143952095D01*
X194817086Y-143946045D01*
X194810131Y-143939462D01*
X194803465Y-143932328D01*
X194797109Y-143924628D01*
X194791086Y-143916342D01*
X194785418Y-143907455D01*
X194780127Y-143897948D01*
X194775235Y-143887806D01*
X194770764Y-143877009D01*
X194766736Y-143865541D01*
X194763174Y-143853385D01*
X194760099Y-143840523D01*
X194757534Y-143826938D01*
X194755500Y-143812614D01*
X194754020Y-143797531D01*
X194753115Y-143781674D01*
X194752809Y-143765025D01*
X194753090Y-143749212D01*
X194753920Y-143734069D01*
X194754870Y-143723934D01*
X194842030Y-143723934D01*
X195029165Y-143723934D01*
X195028813Y-143717708D01*
X195028255Y-143711669D01*
X195027495Y-143705816D01*
X195026538Y-143700150D01*
X195025387Y-143694672D01*
X195024046Y-143689383D01*
X195022518Y-143684283D01*
X195020810Y-143679374D01*
X195018923Y-143674657D01*
X195016862Y-143670131D01*
X195014631Y-143665798D01*
X195012235Y-143661658D01*
X195009676Y-143657713D01*
X195006960Y-143653963D01*
X195004089Y-143650408D01*
X195001069Y-143647051D01*
X194997902Y-143643890D01*
X194994594Y-143640928D01*
X194991147Y-143638165D01*
X194987567Y-143635602D01*
X194983856Y-143633239D01*
X194980020Y-143631078D01*
X194976061Y-143629119D01*
X194971984Y-143627363D01*
X194967793Y-143625810D01*
X194963492Y-143624462D01*
X194959085Y-143623319D01*
X194954576Y-143622382D01*
X194949969Y-143621652D01*
X194945267Y-143621130D01*
X194940475Y-143620816D01*
X194935598Y-143620711D01*
X194930717Y-143620816D01*
X194925918Y-143621130D01*
X194921205Y-143621652D01*
X194916582Y-143622382D01*
X194912054Y-143623319D01*
X194907625Y-143624462D01*
X194903299Y-143625810D01*
X194899083Y-143627363D01*
X194894978Y-143629119D01*
X194890992Y-143631078D01*
X194887126Y-143633239D01*
X194883387Y-143635602D01*
X194879779Y-143638165D01*
X194876306Y-143640928D01*
X194872973Y-143643890D01*
X194869784Y-143647051D01*
X194866743Y-143650408D01*
X194863856Y-143653963D01*
X194861126Y-143657713D01*
X194858559Y-143661658D01*
X194856158Y-143665798D01*
X194853928Y-143670131D01*
X194851874Y-143674657D01*
X194850000Y-143679374D01*
X194848311Y-143684283D01*
X194846810Y-143689383D01*
X194845503Y-143694672D01*
X194844395Y-143700150D01*
X194843489Y-143705816D01*
X194842790Y-143711669D01*
X194842302Y-143717708D01*
X194842030Y-143723934D01*
X194754870Y-143723934D01*
X194755278Y-143719585D01*
X194757146Y-143705750D01*
X194759502Y-143692552D01*
X194762328Y-143679980D01*
X194765604Y-143668023D01*
X194769309Y-143656671D01*
X194773424Y-143645912D01*
X194777930Y-143635735D01*
X194782805Y-143626129D01*
X194788031Y-143617083D01*
X194793587Y-143608586D01*
X194799455Y-143600627D01*
X194805613Y-143593194D01*
X194812042Y-143586278D01*
X194818722Y-143579866D01*
X194825634Y-143573948D01*
X194832758Y-143568513D01*
X194840073Y-143563549D01*
X194847560Y-143559046D01*
X194855199Y-143554992D01*
X194862971Y-143551377D01*
X194870855Y-143548189D01*
X194878832Y-143545418D01*
X194886881Y-143543052D01*
X194894984Y-143541080D01*
X194903120Y-143539492D01*
X194919411Y-143537421D01*
X194935598Y-143536750D01*
X194944737Y-143536962D01*
G37*
G36*
X191915832Y-144237560D02*
G01*
X191935061Y-144238913D01*
X191953370Y-144241233D01*
X191962161Y-144242771D01*
X191970699Y-144244570D01*
X191978977Y-144246638D01*
X191986988Y-144248979D01*
X191994723Y-144251601D01*
X192002176Y-144254511D01*
X192009339Y-144257715D01*
X192016204Y-144261219D01*
X192022763Y-144265031D01*
X192029010Y-144269156D01*
X192034937Y-144273601D01*
X192040536Y-144278373D01*
X192045800Y-144283479D01*
X192050720Y-144288924D01*
X192055291Y-144294716D01*
X192059503Y-144300860D01*
X192063350Y-144307365D01*
X192066824Y-144314235D01*
X192069918Y-144321478D01*
X192072623Y-144329100D01*
X192074933Y-144337108D01*
X192076840Y-144345508D01*
X192078336Y-144354308D01*
X192079414Y-144363512D01*
X192080066Y-144373129D01*
X192080285Y-144383164D01*
X192080285Y-144685770D01*
X191991064Y-144685770D01*
X191991064Y-144646407D01*
X191989311Y-144646407D01*
X191985723Y-144651954D01*
X191981821Y-144657116D01*
X191977581Y-144661896D01*
X191972976Y-144666298D01*
X191967981Y-144670325D01*
X191962571Y-144673982D01*
X191956720Y-144677273D01*
X191950402Y-144680201D01*
X191943592Y-144682771D01*
X191936264Y-144684985D01*
X191928392Y-144686848D01*
X191919952Y-144688364D01*
X191910917Y-144689536D01*
X191901262Y-144690369D01*
X191890961Y-144690865D01*
X191879989Y-144691030D01*
X191870845Y-144690860D01*
X191861945Y-144690353D01*
X191853291Y-144689518D01*
X191844888Y-144688362D01*
X191836738Y-144686891D01*
X191828844Y-144685115D01*
X191821210Y-144683038D01*
X191813837Y-144680671D01*
X191806730Y-144678018D01*
X191799890Y-144675089D01*
X191793323Y-144671890D01*
X191787029Y-144668428D01*
X191781013Y-144664712D01*
X191775277Y-144660747D01*
X191769825Y-144656543D01*
X191764660Y-144652105D01*
X191759783Y-144647442D01*
X191755200Y-144642561D01*
X191750912Y-144637469D01*
X191746922Y-144632173D01*
X191743235Y-144626681D01*
X191739852Y-144621001D01*
X191736777Y-144615139D01*
X191734012Y-144609103D01*
X191731562Y-144602900D01*
X191729428Y-144596538D01*
X191727614Y-144590024D01*
X191726123Y-144583366D01*
X191724959Y-144576570D01*
X191724123Y-144569644D01*
X191723619Y-144562596D01*
X191723451Y-144555433D01*
X191723544Y-144551111D01*
X191807387Y-144551111D01*
X191807667Y-144556635D01*
X191808520Y-144562044D01*
X191809966Y-144567304D01*
X191812023Y-144572384D01*
X191813286Y-144574845D01*
X191814710Y-144577248D01*
X191816296Y-144579589D01*
X191818047Y-144581864D01*
X191819966Y-144584068D01*
X191822053Y-144586198D01*
X191824313Y-144588250D01*
X191826748Y-144590218D01*
X191829359Y-144592099D01*
X191832149Y-144593889D01*
X191835121Y-144595584D01*
X191838277Y-144597180D01*
X191841619Y-144598671D01*
X191845150Y-144600055D01*
X191848873Y-144601327D01*
X191852789Y-144602482D01*
X191861211Y-144604428D01*
X191870436Y-144605859D01*
X191880484Y-144606742D01*
X191891373Y-144607044D01*
X191904742Y-144606939D01*
X191916997Y-144606572D01*
X191928175Y-144605864D01*
X191938308Y-144604737D01*
X191942994Y-144603992D01*
X191947432Y-144603113D01*
X191951626Y-144602091D01*
X191955581Y-144600914D01*
X191959300Y-144599575D01*
X191962789Y-144598062D01*
X191966052Y-144596366D01*
X191969092Y-144594478D01*
X191971915Y-144592387D01*
X191974525Y-144590083D01*
X191976925Y-144587558D01*
X191979120Y-144584801D01*
X191981115Y-144581802D01*
X191982914Y-144578552D01*
X191984521Y-144575041D01*
X191985940Y-144571258D01*
X191987177Y-144567195D01*
X191988234Y-144562842D01*
X191989117Y-144558188D01*
X191989829Y-144553224D01*
X191990376Y-144547940D01*
X191990761Y-144542326D01*
X191990989Y-144536374D01*
X191991064Y-144530071D01*
X191991064Y-144497697D01*
X191884384Y-144497697D01*
X191879544Y-144497758D01*
X191874868Y-144497941D01*
X191870354Y-144498244D01*
X191866003Y-144498664D01*
X191861812Y-144499201D01*
X191857783Y-144499852D01*
X191853914Y-144500616D01*
X191850205Y-144501490D01*
X191846655Y-144502474D01*
X191843262Y-144503565D01*
X191840028Y-144504761D01*
X191836950Y-144506061D01*
X191834029Y-144507463D01*
X191831264Y-144508966D01*
X191828654Y-144510566D01*
X191826198Y-144512264D01*
X191823896Y-144514056D01*
X191821747Y-144515941D01*
X191819751Y-144517917D01*
X191817907Y-144519983D01*
X191816213Y-144522137D01*
X191814671Y-144524377D01*
X191813278Y-144526701D01*
X191812035Y-144529107D01*
X191810940Y-144531594D01*
X191809994Y-144534160D01*
X191809195Y-144536803D01*
X191808542Y-144539521D01*
X191808036Y-144542313D01*
X191807675Y-144545176D01*
X191807459Y-144548110D01*
X191807387Y-144551111D01*
X191723544Y-144551111D01*
X191723594Y-144548827D01*
X191724024Y-144542292D01*
X191724740Y-144535836D01*
X191725741Y-144529469D01*
X191727027Y-144523199D01*
X191728598Y-144517037D01*
X191730453Y-144510990D01*
X191732591Y-144505068D01*
X191735013Y-144499280D01*
X191737717Y-144493636D01*
X191740704Y-144488145D01*
X191743971Y-144482815D01*
X191747521Y-144477655D01*
X191751350Y-144472676D01*
X191755461Y-144467886D01*
X191759850Y-144463294D01*
X191764519Y-144458910D01*
X191769467Y-144454742D01*
X191774693Y-144450800D01*
X191780197Y-144447093D01*
X191785979Y-144443630D01*
X191792037Y-144440420D01*
X191798371Y-144437472D01*
X191804982Y-144434796D01*
X191811868Y-144432400D01*
X191819028Y-144430294D01*
X191826464Y-144428487D01*
X191834173Y-144426988D01*
X191842156Y-144425806D01*
X191850412Y-144424951D01*
X191858940Y-144424431D01*
X191867740Y-144424256D01*
X191991064Y-144424256D01*
X191991064Y-144377904D01*
X191990744Y-144370351D01*
X191990341Y-144366807D01*
X191989775Y-144363415D01*
X191989042Y-144360172D01*
X191988141Y-144357076D01*
X191987071Y-144354126D01*
X191985830Y-144351318D01*
X191984416Y-144348651D01*
X191982827Y-144346123D01*
X191981062Y-144343730D01*
X191979119Y-144341472D01*
X191976995Y-144339346D01*
X191974690Y-144337349D01*
X191972202Y-144335480D01*
X191969528Y-144333735D01*
X191966667Y-144332114D01*
X191963617Y-144330613D01*
X191956944Y-144327965D01*
X191949495Y-144325773D01*
X191941256Y-144324019D01*
X191932212Y-144322686D01*
X191922350Y-144321756D01*
X191911656Y-144321211D01*
X191900115Y-144321033D01*
X191891706Y-144321138D01*
X191883844Y-144321460D01*
X191876502Y-144322011D01*
X191869653Y-144322803D01*
X191866405Y-144323292D01*
X191863271Y-144323846D01*
X191860246Y-144324465D01*
X191857327Y-144325152D01*
X191854512Y-144325907D01*
X191851796Y-144326732D01*
X191849177Y-144327629D01*
X191846651Y-144328599D01*
X191844215Y-144329643D01*
X191841865Y-144330762D01*
X191839598Y-144331959D01*
X191837411Y-144333234D01*
X191835300Y-144334590D01*
X191833261Y-144336026D01*
X191831293Y-144337546D01*
X191829391Y-144339150D01*
X191827551Y-144340839D01*
X191825771Y-144342616D01*
X191824047Y-144344481D01*
X191822377Y-144346436D01*
X191820755Y-144348483D01*
X191819180Y-144350622D01*
X191817647Y-144352856D01*
X191816154Y-144355185D01*
X191746194Y-144301845D01*
X191752763Y-144293329D01*
X191759685Y-144285494D01*
X191766963Y-144278321D01*
X191774600Y-144271792D01*
X191782602Y-144265890D01*
X191790971Y-144260595D01*
X191799712Y-144255891D01*
X191808829Y-144251759D01*
X191818325Y-144248180D01*
X191828204Y-144245138D01*
X191838470Y-144242613D01*
X191849127Y-144240588D01*
X191860179Y-144239044D01*
X191871630Y-144237964D01*
X191883484Y-144237329D01*
X191895744Y-144237121D01*
X191915832Y-144237560D01*
G37*
G36*
X193708376Y-144237560D02*
G01*
X193727598Y-144238913D01*
X193745901Y-144241233D01*
X193754690Y-144242771D01*
X193763226Y-144244570D01*
X193771503Y-144246638D01*
X193779512Y-144248979D01*
X193787247Y-144251601D01*
X193794699Y-144254511D01*
X193801861Y-144257715D01*
X193808725Y-144261219D01*
X193815285Y-144265031D01*
X193821532Y-144269156D01*
X193827459Y-144273601D01*
X193833058Y-144278373D01*
X193838322Y-144283479D01*
X193843243Y-144288924D01*
X193847814Y-144294716D01*
X193852027Y-144300860D01*
X193855874Y-144307365D01*
X193859349Y-144314235D01*
X193862443Y-144321478D01*
X193865149Y-144329100D01*
X193867459Y-144337108D01*
X193869366Y-144345508D01*
X193870863Y-144354308D01*
X193871941Y-144363512D01*
X193872594Y-144373129D01*
X193872813Y-144383164D01*
X193872813Y-144685770D01*
X193783592Y-144685770D01*
X193783592Y-144646407D01*
X193781863Y-144646407D01*
X193778270Y-144651954D01*
X193774364Y-144657116D01*
X193770120Y-144661896D01*
X193765511Y-144666298D01*
X193760512Y-144670325D01*
X193755098Y-144673982D01*
X193749244Y-144677273D01*
X193742923Y-144680201D01*
X193736111Y-144682771D01*
X193728782Y-144684985D01*
X193720910Y-144686848D01*
X193712469Y-144688364D01*
X193703435Y-144689536D01*
X193693782Y-144690369D01*
X193683484Y-144690865D01*
X193672516Y-144691030D01*
X193663372Y-144690860D01*
X193654472Y-144690353D01*
X193645818Y-144689518D01*
X193637415Y-144688362D01*
X193629264Y-144686891D01*
X193621370Y-144685115D01*
X193613734Y-144683038D01*
X193606361Y-144680671D01*
X193599252Y-144678018D01*
X193592412Y-144675089D01*
X193585844Y-144671890D01*
X193579549Y-144668428D01*
X193573532Y-144664712D01*
X193567795Y-144660747D01*
X193562342Y-144656543D01*
X193557175Y-144652105D01*
X193552297Y-144647442D01*
X193547713Y-144642561D01*
X193543424Y-144637469D01*
X193539433Y-144632173D01*
X193535744Y-144626681D01*
X193532360Y-144621001D01*
X193529284Y-144615139D01*
X193526519Y-144609103D01*
X193524068Y-144602900D01*
X193521933Y-144596538D01*
X193520119Y-144590024D01*
X193518627Y-144583366D01*
X193517462Y-144576570D01*
X193516626Y-144569644D01*
X193516122Y-144562596D01*
X193515954Y-144555433D01*
X193516047Y-144551111D01*
X193599915Y-144551111D01*
X193600195Y-144556635D01*
X193601049Y-144562044D01*
X193602496Y-144567304D01*
X193604554Y-144572384D01*
X193605818Y-144574845D01*
X193607243Y-144577248D01*
X193608830Y-144579589D01*
X193610582Y-144581864D01*
X193612501Y-144584068D01*
X193614589Y-144586198D01*
X193616850Y-144588250D01*
X193619285Y-144590218D01*
X193621896Y-144592099D01*
X193624687Y-144593889D01*
X193627659Y-144595584D01*
X193630815Y-144597180D01*
X193634158Y-144598671D01*
X193637689Y-144600055D01*
X193641411Y-144601327D01*
X193645327Y-144602482D01*
X193653748Y-144604428D01*
X193662971Y-144605859D01*
X193673016Y-144606742D01*
X193683901Y-144607044D01*
X193697269Y-144606939D01*
X193709525Y-144606572D01*
X193720702Y-144605864D01*
X193730835Y-144604737D01*
X193735521Y-144603992D01*
X193739959Y-144603113D01*
X193744153Y-144602091D01*
X193748108Y-144600914D01*
X193751828Y-144599575D01*
X193755317Y-144598062D01*
X193758580Y-144596366D01*
X193761620Y-144594478D01*
X193764443Y-144592387D01*
X193767052Y-144590083D01*
X193769452Y-144587558D01*
X193771648Y-144584801D01*
X193773643Y-144581802D01*
X193775441Y-144578552D01*
X193777048Y-144575041D01*
X193778468Y-144571258D01*
X193779704Y-144567195D01*
X193780762Y-144562842D01*
X193781644Y-144558188D01*
X193782357Y-144553224D01*
X193782904Y-144547940D01*
X193783289Y-144542326D01*
X193783517Y-144536374D01*
X193783592Y-144530071D01*
X193783592Y-144497697D01*
X193676912Y-144497697D01*
X193672074Y-144497758D01*
X193667400Y-144497941D01*
X193662888Y-144498244D01*
X193658537Y-144498664D01*
X193654348Y-144499201D01*
X193650320Y-144499852D01*
X193646452Y-144500616D01*
X193642743Y-144501490D01*
X193639193Y-144502474D01*
X193635801Y-144503565D01*
X193632567Y-144504761D01*
X193629489Y-144506061D01*
X193626568Y-144507463D01*
X193623802Y-144508966D01*
X193621191Y-144510566D01*
X193618735Y-144512264D01*
X193616432Y-144514056D01*
X193614283Y-144515941D01*
X193612286Y-144517917D01*
X193610441Y-144519983D01*
X193608747Y-144522137D01*
X193607204Y-144524377D01*
X193605810Y-144526701D01*
X193604566Y-144529107D01*
X193603471Y-144531594D01*
X193602524Y-144534160D01*
X193601724Y-144536803D01*
X193601071Y-144539521D01*
X193600564Y-144542313D01*
X193600203Y-144545176D01*
X193599987Y-144548110D01*
X193599915Y-144551111D01*
X193516047Y-144551111D01*
X193516097Y-144548827D01*
X193516527Y-144542292D01*
X193517243Y-144535836D01*
X193518245Y-144529469D01*
X193519532Y-144523199D01*
X193521103Y-144517037D01*
X193522959Y-144510990D01*
X193525098Y-144505068D01*
X193527521Y-144499280D01*
X193530226Y-144493636D01*
X193533213Y-144488145D01*
X193536482Y-144482815D01*
X193540032Y-144477655D01*
X193543863Y-144472676D01*
X193547975Y-144467886D01*
X193552366Y-144463294D01*
X193557036Y-144458910D01*
X193561985Y-144454742D01*
X193567212Y-144450800D01*
X193572717Y-144447093D01*
X193578499Y-144443630D01*
X193584559Y-144440420D01*
X193590894Y-144437472D01*
X193597506Y-144434796D01*
X193604392Y-144432400D01*
X193611554Y-144430294D01*
X193618990Y-144428487D01*
X193626700Y-144426988D01*
X193634683Y-144425806D01*
X193642939Y-144424951D01*
X193651467Y-144424431D01*
X193660268Y-144424256D01*
X193783592Y-144424256D01*
X193783592Y-144377904D01*
X193783272Y-144370351D01*
X193782869Y-144366807D01*
X193782302Y-144363415D01*
X193781569Y-144360172D01*
X193780669Y-144357076D01*
X193779599Y-144354126D01*
X193778358Y-144351318D01*
X193776943Y-144348651D01*
X193775354Y-144346123D01*
X193773589Y-144343730D01*
X193771645Y-144341472D01*
X193769521Y-144339346D01*
X193767216Y-144337349D01*
X193764727Y-144335480D01*
X193762052Y-144333735D01*
X193759191Y-144332114D01*
X193756140Y-144330613D01*
X193749466Y-144327965D01*
X193742015Y-144325773D01*
X193733773Y-144324019D01*
X193724727Y-144322686D01*
X193714861Y-144321756D01*
X193704163Y-144321211D01*
X193692618Y-144321033D01*
X193684210Y-144321138D01*
X193676349Y-144321460D01*
X193669010Y-144322011D01*
X193662164Y-144322803D01*
X193658918Y-144323292D01*
X193655785Y-144323846D01*
X193652762Y-144324465D01*
X193649846Y-144325152D01*
X193647033Y-144325907D01*
X193644319Y-144326732D01*
X193641702Y-144327629D01*
X193639179Y-144328599D01*
X193636745Y-144329643D01*
X193634397Y-144330762D01*
X193632132Y-144331959D01*
X193629947Y-144333234D01*
X193627838Y-144334590D01*
X193625802Y-144336026D01*
X193623836Y-144337546D01*
X193621935Y-144339150D01*
X193620097Y-144340839D01*
X193618319Y-144342616D01*
X193616596Y-144344481D01*
X193614927Y-144346436D01*
X193613306Y-144348483D01*
X193611731Y-144350622D01*
X193610199Y-144352856D01*
X193608706Y-144355185D01*
X193538722Y-144301845D01*
X193545291Y-144293329D01*
X193552214Y-144285494D01*
X193559493Y-144278321D01*
X193567132Y-144271792D01*
X193575135Y-144265890D01*
X193583507Y-144260595D01*
X193592250Y-144255891D01*
X193601369Y-144251759D01*
X193610867Y-144248180D01*
X193620748Y-144245138D01*
X193631017Y-144242613D01*
X193641676Y-144240588D01*
X193652729Y-144239044D01*
X193664182Y-144237964D01*
X193676036Y-144237329D01*
X193688296Y-144237121D01*
X193708376Y-144237560D01*
G37*
G36*
X191054247Y-143536834D02*
G01*
X191060479Y-143537088D01*
X191066551Y-143537505D01*
X191072466Y-143538079D01*
X191078225Y-143538803D01*
X191083831Y-143539672D01*
X191089286Y-143540680D01*
X191094591Y-143541821D01*
X191099749Y-143543088D01*
X191104762Y-143544477D01*
X191109632Y-143545980D01*
X191114362Y-143547593D01*
X191118952Y-143549308D01*
X191123405Y-143551121D01*
X191127724Y-143553026D01*
X191131910Y-143555015D01*
X191139892Y-143559227D01*
X191147368Y-143563709D01*
X191154356Y-143568414D01*
X191160870Y-143573294D01*
X191166929Y-143578302D01*
X191172549Y-143583390D01*
X191177746Y-143588512D01*
X191182536Y-143593619D01*
X191188697Y-143600675D01*
X191194395Y-143607797D01*
X191199639Y-143615073D01*
X191204440Y-143622589D01*
X191208805Y-143630434D01*
X191212744Y-143638693D01*
X191216265Y-143647455D01*
X191219377Y-143656806D01*
X191222090Y-143666833D01*
X191224412Y-143677625D01*
X191226353Y-143689267D01*
X191227920Y-143701848D01*
X191229124Y-143715453D01*
X191229973Y-143730172D01*
X191230475Y-143746090D01*
X191230641Y-143763294D01*
X191230475Y-143780643D01*
X191229973Y-143796688D01*
X191229124Y-143811518D01*
X191227920Y-143825220D01*
X191226353Y-143837883D01*
X191224412Y-143849595D01*
X191222090Y-143860445D01*
X191219377Y-143870521D01*
X191216265Y-143879910D01*
X191212744Y-143888701D01*
X191208805Y-143896983D01*
X191204440Y-143904843D01*
X191199639Y-143912370D01*
X191194395Y-143919652D01*
X191188697Y-143926777D01*
X191182536Y-143933834D01*
X191177746Y-143938940D01*
X191172549Y-143944060D01*
X191166929Y-143949147D01*
X191160870Y-143954151D01*
X191154356Y-143959028D01*
X191147368Y-143963728D01*
X191139892Y-143968206D01*
X191131910Y-143972413D01*
X191123405Y-143976302D01*
X191114362Y-143979827D01*
X191104762Y-143982938D01*
X191094591Y-143985591D01*
X191083831Y-143987736D01*
X191072466Y-143989327D01*
X191060479Y-143990316D01*
X191047853Y-143990656D01*
X191041457Y-143990570D01*
X191035223Y-143990316D01*
X191029148Y-143989899D01*
X191023231Y-143989327D01*
X191017470Y-143988604D01*
X191011863Y-143987736D01*
X191006407Y-143986730D01*
X191001100Y-143985591D01*
X190995941Y-143984325D01*
X190990926Y-143982938D01*
X190986055Y-143981437D01*
X190981325Y-143979827D01*
X190976734Y-143978113D01*
X190972280Y-143976302D01*
X190967961Y-143974400D01*
X190963774Y-143972413D01*
X190955791Y-143968206D01*
X190948314Y-143963728D01*
X190941326Y-143959028D01*
X190934811Y-143954151D01*
X190928752Y-143949147D01*
X190923132Y-143944060D01*
X190917935Y-143938940D01*
X190913145Y-143933834D01*
X190906985Y-143926777D01*
X190901287Y-143919652D01*
X190896044Y-143912370D01*
X190891245Y-143904843D01*
X190886882Y-143896983D01*
X190882945Y-143888701D01*
X190879426Y-143879910D01*
X190876316Y-143870521D01*
X190873605Y-143860445D01*
X190871285Y-143849595D01*
X190869347Y-143837883D01*
X190867781Y-143825220D01*
X190866579Y-143811518D01*
X190865732Y-143796688D01*
X190865230Y-143780643D01*
X190865065Y-143763294D01*
X190954261Y-143763294D01*
X190954324Y-143774889D01*
X190954519Y-143785455D01*
X190954856Y-143795069D01*
X190955342Y-143803810D01*
X190955988Y-143811757D01*
X190956802Y-143818987D01*
X190957792Y-143825579D01*
X190958968Y-143831611D01*
X190960339Y-143837162D01*
X190961914Y-143842310D01*
X190963701Y-143847132D01*
X190965710Y-143851708D01*
X190967950Y-143856116D01*
X190970428Y-143860433D01*
X190973156Y-143864738D01*
X190976140Y-143869110D01*
X190978770Y-143872501D01*
X190981730Y-143875776D01*
X190985003Y-143878920D01*
X190988571Y-143881919D01*
X190992416Y-143884760D01*
X190996519Y-143887427D01*
X191000863Y-143889908D01*
X191005431Y-143892187D01*
X191010203Y-143894251D01*
X191015163Y-143896085D01*
X191020293Y-143897676D01*
X191025573Y-143899010D01*
X191030988Y-143900071D01*
X191036518Y-143900847D01*
X191042145Y-143901323D01*
X191047853Y-143901485D01*
X191053556Y-143901323D01*
X191059180Y-143900847D01*
X191064707Y-143900071D01*
X191070118Y-143899010D01*
X191075397Y-143897676D01*
X191080525Y-143896085D01*
X191085484Y-143894251D01*
X191090256Y-143892187D01*
X191094824Y-143889908D01*
X191099169Y-143887427D01*
X191103274Y-143884760D01*
X191107121Y-143881919D01*
X191110691Y-143878920D01*
X191113967Y-143875776D01*
X191116931Y-143872501D01*
X191118291Y-143870819D01*
X191119565Y-143869110D01*
X191122550Y-143864738D01*
X191125276Y-143860434D01*
X191127754Y-143856121D01*
X191129992Y-143851722D01*
X191131999Y-143847159D01*
X191133784Y-143842355D01*
X191135356Y-143837235D01*
X191136725Y-143831720D01*
X191137899Y-143825733D01*
X191138887Y-143819198D01*
X191139699Y-143812038D01*
X191140342Y-143804175D01*
X191140827Y-143795532D01*
X191141163Y-143786034D01*
X191141420Y-143764159D01*
X191141357Y-143752563D01*
X191141163Y-143741996D01*
X191140827Y-143732380D01*
X191140342Y-143723636D01*
X191139699Y-143715686D01*
X191138887Y-143708453D01*
X191137899Y-143701858D01*
X191136725Y-143695823D01*
X191135356Y-143690270D01*
X191133784Y-143685121D01*
X191131999Y-143680299D01*
X191129992Y-143675724D01*
X191127754Y-143671319D01*
X191125276Y-143667006D01*
X191122550Y-143662706D01*
X191119565Y-143658343D01*
X191116931Y-143654951D01*
X191113967Y-143651677D01*
X191110691Y-143648533D01*
X191107121Y-143645533D01*
X191103274Y-143642693D01*
X191099169Y-143640025D01*
X191094824Y-143637545D01*
X191090256Y-143635266D01*
X191085484Y-143633202D01*
X191080525Y-143631368D01*
X191075397Y-143629777D01*
X191070118Y-143628443D01*
X191064707Y-143627382D01*
X191059180Y-143626606D01*
X191053556Y-143626130D01*
X191047853Y-143625968D01*
X191042145Y-143626130D01*
X191036518Y-143626606D01*
X191030988Y-143627382D01*
X191025573Y-143628443D01*
X191020293Y-143629777D01*
X191015163Y-143631368D01*
X191010203Y-143633202D01*
X191005431Y-143635266D01*
X191000863Y-143637545D01*
X190996519Y-143640025D01*
X190992416Y-143642693D01*
X190988571Y-143645533D01*
X190985003Y-143648533D01*
X190981730Y-143651677D01*
X190978770Y-143654951D01*
X190977413Y-143656633D01*
X190976140Y-143658343D01*
X190973156Y-143662706D01*
X190970428Y-143667004D01*
X190967950Y-143671313D01*
X190965710Y-143675710D01*
X190963701Y-143680272D01*
X190961914Y-143685076D01*
X190960339Y-143690198D01*
X190958968Y-143695715D01*
X190957792Y-143701704D01*
X190956802Y-143708242D01*
X190955988Y-143715405D01*
X190955342Y-143723271D01*
X190954856Y-143731916D01*
X190954519Y-143741417D01*
X190954261Y-143763294D01*
X190865065Y-143763294D01*
X190865230Y-143746090D01*
X190865732Y-143730172D01*
X190866579Y-143715453D01*
X190867781Y-143701848D01*
X190869347Y-143689267D01*
X190871285Y-143677625D01*
X190873605Y-143666833D01*
X190876316Y-143656806D01*
X190879426Y-143647455D01*
X190882945Y-143638693D01*
X190886882Y-143630434D01*
X190891245Y-143622589D01*
X190896044Y-143615073D01*
X190901287Y-143607797D01*
X190906985Y-143600675D01*
X190913145Y-143593619D01*
X190917935Y-143588512D01*
X190923132Y-143583390D01*
X190928752Y-143578302D01*
X190934811Y-143573294D01*
X190941326Y-143568414D01*
X190948314Y-143563709D01*
X190955791Y-143559227D01*
X190963774Y-143555015D01*
X190972280Y-143551121D01*
X190981325Y-143547593D01*
X190990926Y-143544477D01*
X191001100Y-143541821D01*
X191011863Y-143539672D01*
X191023231Y-143538079D01*
X191035223Y-143537088D01*
X191047853Y-143536747D01*
X191054247Y-143536834D01*
G37*
G36*
X193376795Y-143536834D02*
G01*
X193383031Y-143537088D01*
X193389107Y-143537505D01*
X193395025Y-143538079D01*
X193400788Y-143538803D01*
X193406396Y-143539672D01*
X193411853Y-143540680D01*
X193417160Y-143541821D01*
X193422320Y-143543088D01*
X193427334Y-143544477D01*
X193432205Y-143545980D01*
X193436935Y-143547593D01*
X193441526Y-143549308D01*
X193445980Y-143551121D01*
X193450299Y-143553026D01*
X193454485Y-143555015D01*
X193462467Y-143559227D01*
X193469942Y-143563709D01*
X193476929Y-143568414D01*
X193483442Y-143573294D01*
X193489500Y-143578302D01*
X193495119Y-143583390D01*
X193500315Y-143588512D01*
X193505105Y-143593619D01*
X193511265Y-143600675D01*
X193516963Y-143607797D01*
X193522206Y-143615073D01*
X193527005Y-143622589D01*
X193531368Y-143630434D01*
X193535305Y-143638693D01*
X193538824Y-143647455D01*
X193541934Y-143656806D01*
X193544645Y-143666833D01*
X193546965Y-143677625D01*
X193548903Y-143689267D01*
X193550469Y-143701848D01*
X193551671Y-143715453D01*
X193552518Y-143730172D01*
X193553020Y-143746090D01*
X193553185Y-143763294D01*
X193553020Y-143780643D01*
X193552518Y-143796688D01*
X193551671Y-143811518D01*
X193550469Y-143825220D01*
X193548903Y-143837883D01*
X193546965Y-143849595D01*
X193544645Y-143860445D01*
X193541934Y-143870521D01*
X193538824Y-143879910D01*
X193535305Y-143888701D01*
X193531368Y-143896983D01*
X193527005Y-143904843D01*
X193522206Y-143912370D01*
X193516963Y-143919652D01*
X193511265Y-143926777D01*
X193505105Y-143933834D01*
X193500315Y-143938940D01*
X193495119Y-143944060D01*
X193489500Y-143949147D01*
X193483442Y-143954151D01*
X193476929Y-143959028D01*
X193469942Y-143963728D01*
X193462467Y-143968206D01*
X193454485Y-143972413D01*
X193445980Y-143976302D01*
X193436935Y-143979827D01*
X193427334Y-143982938D01*
X193417160Y-143985591D01*
X193406396Y-143987736D01*
X193395025Y-143989327D01*
X193383031Y-143990316D01*
X193370397Y-143990656D01*
X193364003Y-143990570D01*
X193357771Y-143990316D01*
X193351699Y-143989899D01*
X193345785Y-143989327D01*
X193340026Y-143988604D01*
X193334421Y-143987736D01*
X193328967Y-143986730D01*
X193323662Y-143985591D01*
X193318505Y-143984325D01*
X193313493Y-143982938D01*
X193308624Y-143981437D01*
X193303896Y-143979827D01*
X193299307Y-143978113D01*
X193294855Y-143976302D01*
X193290537Y-143974400D01*
X193286353Y-143972413D01*
X193278373Y-143968206D01*
X193270898Y-143963728D01*
X193263913Y-143959028D01*
X193257400Y-143954151D01*
X193251343Y-143949147D01*
X193245725Y-143944060D01*
X193240529Y-143938940D01*
X193235738Y-143933834D01*
X193229578Y-143926777D01*
X193223879Y-143919652D01*
X193218633Y-143912370D01*
X193213831Y-143904843D01*
X193209464Y-143896983D01*
X193205523Y-143888701D01*
X193202000Y-143879910D01*
X193198885Y-143870521D01*
X193196170Y-143860445D01*
X193193845Y-143849595D01*
X193191903Y-143837883D01*
X193190333Y-143825220D01*
X193189128Y-143811518D01*
X193188278Y-143796688D01*
X193187775Y-143780643D01*
X193187609Y-143763294D01*
X193276830Y-143763294D01*
X193276893Y-143774889D01*
X193277088Y-143785455D01*
X193277425Y-143795069D01*
X193277912Y-143803810D01*
X193278558Y-143811757D01*
X193279372Y-143818987D01*
X193280363Y-143825579D01*
X193281540Y-143831611D01*
X193282913Y-143837162D01*
X193284489Y-143842310D01*
X193286278Y-143847132D01*
X193288290Y-143851708D01*
X193290532Y-143856116D01*
X193293014Y-143860433D01*
X193295745Y-143864738D01*
X193298734Y-143869110D01*
X193301356Y-143872501D01*
X193304310Y-143875776D01*
X193307578Y-143878920D01*
X193311143Y-143881919D01*
X193314986Y-143884760D01*
X193319088Y-143887427D01*
X193323432Y-143889908D01*
X193328000Y-143892187D01*
X193332772Y-143894251D01*
X193337732Y-143896085D01*
X193342860Y-143897676D01*
X193348139Y-143899010D01*
X193353551Y-143900071D01*
X193359076Y-143900847D01*
X193364698Y-143901323D01*
X193370397Y-143901485D01*
X193376105Y-143901323D01*
X193381732Y-143900847D01*
X193387262Y-143900071D01*
X193392676Y-143899010D01*
X193397957Y-143897676D01*
X193403086Y-143896085D01*
X193408046Y-143894251D01*
X193412819Y-143892187D01*
X193417387Y-143889908D01*
X193421731Y-143887427D01*
X193425834Y-143884760D01*
X193429679Y-143881919D01*
X193433247Y-143878920D01*
X193436520Y-143875776D01*
X193439480Y-143872501D01*
X193440837Y-143870819D01*
X193442110Y-143869110D01*
X193445098Y-143864738D01*
X193447828Y-143860434D01*
X193450307Y-143856121D01*
X193452546Y-143851722D01*
X193454554Y-143847159D01*
X193456339Y-143842355D01*
X193457911Y-143837235D01*
X193459279Y-143831720D01*
X193460451Y-143825733D01*
X193461438Y-143819198D01*
X193462248Y-143812038D01*
X193462890Y-143804175D01*
X193463374Y-143795532D01*
X193463708Y-143786034D01*
X193463964Y-143764159D01*
X193463902Y-143752563D01*
X193463708Y-143741996D01*
X193463374Y-143732380D01*
X193462890Y-143723636D01*
X193462248Y-143715686D01*
X193461438Y-143708453D01*
X193460451Y-143701858D01*
X193459279Y-143695823D01*
X193457911Y-143690270D01*
X193456339Y-143685121D01*
X193454554Y-143680299D01*
X193452546Y-143675724D01*
X193450307Y-143671319D01*
X193447828Y-143667006D01*
X193445098Y-143662706D01*
X193442110Y-143658343D01*
X193439480Y-143654951D01*
X193436520Y-143651677D01*
X193433247Y-143648533D01*
X193429679Y-143645533D01*
X193425834Y-143642693D01*
X193421731Y-143640025D01*
X193417387Y-143637545D01*
X193412819Y-143635266D01*
X193408046Y-143633202D01*
X193403086Y-143631368D01*
X193397957Y-143629777D01*
X193392676Y-143628443D01*
X193387262Y-143627382D01*
X193381732Y-143626606D01*
X193376105Y-143626130D01*
X193370397Y-143625968D01*
X193364698Y-143626130D01*
X193359076Y-143626606D01*
X193353551Y-143627382D01*
X193348139Y-143628443D01*
X193342860Y-143629777D01*
X193337732Y-143631368D01*
X193332772Y-143633202D01*
X193328000Y-143635266D01*
X193323432Y-143637545D01*
X193319088Y-143640025D01*
X193314986Y-143642693D01*
X193311143Y-143645533D01*
X193307578Y-143648533D01*
X193304310Y-143651677D01*
X193301356Y-143654951D01*
X193300002Y-143656633D01*
X193298734Y-143658343D01*
X193295745Y-143662706D01*
X193293014Y-143667004D01*
X193290532Y-143671313D01*
X193288290Y-143675710D01*
X193286278Y-143680272D01*
X193284489Y-143685076D01*
X193282913Y-143690198D01*
X193281540Y-143695715D01*
X193280363Y-143701704D01*
X193279372Y-143708242D01*
X193278558Y-143715405D01*
X193277912Y-143723271D01*
X193277425Y-143731916D01*
X193277088Y-143741417D01*
X193276830Y-143763294D01*
X193187609Y-143763294D01*
X193187775Y-143746090D01*
X193188278Y-143730172D01*
X193189128Y-143715453D01*
X193190333Y-143701848D01*
X193191903Y-143689267D01*
X193193845Y-143677625D01*
X193196170Y-143666833D01*
X193198885Y-143656806D01*
X193202000Y-143647455D01*
X193205523Y-143638693D01*
X193209464Y-143630434D01*
X193213831Y-143622589D01*
X193218633Y-143615073D01*
X193223879Y-143607797D01*
X193229578Y-143600675D01*
X193235738Y-143593619D01*
X193240529Y-143588512D01*
X193245725Y-143583390D01*
X193251343Y-143578302D01*
X193257400Y-143573294D01*
X193263913Y-143568414D01*
X193270898Y-143563709D01*
X193278373Y-143559227D01*
X193286353Y-143555015D01*
X193294855Y-143551121D01*
X193303896Y-143547593D01*
X193313493Y-143544477D01*
X193323662Y-143541821D01*
X193334421Y-143539672D01*
X193345785Y-143538079D01*
X193357771Y-143537088D01*
X193370397Y-143536747D01*
X193376795Y-143536834D01*
G37*
G36*
X192966640Y-143537027D02*
G01*
X192980377Y-143537840D01*
X192993567Y-143539176D01*
X193006233Y-143541019D01*
X193018402Y-143543355D01*
X193030097Y-143546168D01*
X193041342Y-143549442D01*
X193052164Y-143553162D01*
X193062585Y-143557313D01*
X193072631Y-143561879D01*
X193082326Y-143566844D01*
X193091695Y-143572194D01*
X193100762Y-143577913D01*
X193109553Y-143583986D01*
X193118091Y-143590397D01*
X193126401Y-143597130D01*
X193071308Y-143661805D01*
X193064738Y-143657315D01*
X193058130Y-143653020D01*
X193051468Y-143648935D01*
X193044734Y-143645071D01*
X193037913Y-143641441D01*
X193030987Y-143638060D01*
X193023940Y-143634939D01*
X193016755Y-143632091D01*
X193009416Y-143629530D01*
X193001906Y-143627269D01*
X192994209Y-143625320D01*
X192986308Y-143623696D01*
X192978186Y-143622411D01*
X192969827Y-143621476D01*
X192961214Y-143620906D01*
X192952330Y-143620713D01*
X192947113Y-143620780D01*
X192942112Y-143620977D01*
X192937325Y-143621301D01*
X192932748Y-143621751D01*
X192928378Y-143622324D01*
X192924211Y-143623016D01*
X192920244Y-143623825D01*
X192916474Y-143624749D01*
X192912898Y-143625783D01*
X192909511Y-143626927D01*
X192906311Y-143628177D01*
X192903294Y-143629530D01*
X192900457Y-143630983D01*
X192897797Y-143632534D01*
X192895310Y-143634180D01*
X192892992Y-143635919D01*
X192890842Y-143637747D01*
X192888854Y-143639662D01*
X192887026Y-143641661D01*
X192885354Y-143643742D01*
X192883836Y-143645900D01*
X192882467Y-143648135D01*
X192881244Y-143650443D01*
X192880165Y-143652822D01*
X192879225Y-143655268D01*
X192878421Y-143657779D01*
X192877750Y-143660352D01*
X192877209Y-143662984D01*
X192876794Y-143665673D01*
X192876501Y-143668416D01*
X192876328Y-143671211D01*
X192876271Y-143674053D01*
X192876439Y-143677661D01*
X192876959Y-143681245D01*
X192877855Y-143684782D01*
X192879152Y-143688250D01*
X192880874Y-143691625D01*
X192883046Y-143694885D01*
X192885691Y-143698007D01*
X192887199Y-143699509D01*
X192888835Y-143700967D01*
X192890601Y-143702380D01*
X192892501Y-143703743D01*
X192894538Y-143705055D01*
X192896714Y-143706312D01*
X192899033Y-143707511D01*
X192901499Y-143708650D01*
X192906879Y-143710735D01*
X192912880Y-143712544D01*
X192919525Y-143714054D01*
X192926839Y-143715241D01*
X192934846Y-143716083D01*
X193008312Y-143721269D01*
X193016761Y-143721988D01*
X193024890Y-143722993D01*
X193032703Y-143724278D01*
X193040203Y-143725836D01*
X193047393Y-143727660D01*
X193054277Y-143729744D01*
X193060859Y-143732082D01*
X193067140Y-143734667D01*
X193073126Y-143737493D01*
X193078819Y-143740554D01*
X193084223Y-143743843D01*
X193089340Y-143747353D01*
X193094176Y-143751078D01*
X193098731Y-143755012D01*
X193103012Y-143759149D01*
X193107019Y-143763481D01*
X193110758Y-143768003D01*
X193114231Y-143772708D01*
X193117441Y-143777590D01*
X193120393Y-143782642D01*
X193123089Y-143787857D01*
X193125533Y-143793230D01*
X193127729Y-143798754D01*
X193129678Y-143804422D01*
X193131386Y-143810229D01*
X193132855Y-143816167D01*
X193135091Y-143828412D01*
X193136413Y-143841107D01*
X193136847Y-143854200D01*
X193136613Y-143862213D01*
X193135919Y-143870008D01*
X193134774Y-143877583D01*
X193133190Y-143884935D01*
X193131176Y-143892062D01*
X193128744Y-143898961D01*
X193125905Y-143905631D01*
X193122668Y-143912068D01*
X193119044Y-143918270D01*
X193115043Y-143924236D01*
X193110678Y-143929962D01*
X193105957Y-143935446D01*
X193100891Y-143940686D01*
X193095491Y-143945679D01*
X193089768Y-143950423D01*
X193083732Y-143954916D01*
X193077394Y-143959155D01*
X193070764Y-143963138D01*
X193056671Y-143970325D01*
X193041537Y-143976459D01*
X193025448Y-143981521D01*
X193008487Y-143985491D01*
X192990739Y-143988350D01*
X192972288Y-143990080D01*
X192953219Y-143990661D01*
X192939835Y-143990353D01*
X192926581Y-143989429D01*
X192913462Y-143987887D01*
X192900485Y-143985726D01*
X192887656Y-143982945D01*
X192874983Y-143979542D01*
X192862471Y-143975517D01*
X192850126Y-143970868D01*
X192837956Y-143965594D01*
X192825966Y-143959694D01*
X192814164Y-143953166D01*
X192802555Y-143946010D01*
X192791145Y-143938223D01*
X192779943Y-143929805D01*
X192768953Y-143920755D01*
X192758182Y-143911071D01*
X192820289Y-143849853D01*
X192827547Y-143856694D01*
X192834908Y-143863100D01*
X192842392Y-143869072D01*
X192850020Y-143874609D01*
X192857812Y-143879709D01*
X192865789Y-143884371D01*
X192873970Y-143888594D01*
X192882377Y-143892377D01*
X192891030Y-143895719D01*
X192899949Y-143898619D01*
X192909156Y-143901076D01*
X192918669Y-143903089D01*
X192928511Y-143904656D01*
X192938701Y-143905777D01*
X192949260Y-143906450D01*
X192960208Y-143906675D01*
X192964919Y-143906619D01*
X192969545Y-143906450D01*
X192974080Y-143906170D01*
X192978522Y-143905777D01*
X192982865Y-143905273D01*
X192987106Y-143904656D01*
X192991239Y-143903928D01*
X192995263Y-143903089D01*
X192999171Y-143902138D01*
X193002959Y-143901076D01*
X193006625Y-143899903D01*
X193010162Y-143898619D01*
X193013568Y-143897225D01*
X193016838Y-143895719D01*
X193019968Y-143894103D01*
X193022953Y-143892377D01*
X193025790Y-143890541D01*
X193028474Y-143888594D01*
X193031001Y-143886537D01*
X193033368Y-143884371D01*
X193035569Y-143882094D01*
X193037600Y-143879709D01*
X193039458Y-143877213D01*
X193041138Y-143874609D01*
X193042636Y-143871895D01*
X193043948Y-143869072D01*
X193045069Y-143866141D01*
X193045996Y-143863100D01*
X193046725Y-143859951D01*
X193047250Y-143856694D01*
X193047568Y-143853328D01*
X193047675Y-143849853D01*
X193047607Y-143846965D01*
X193047403Y-143844202D01*
X193047067Y-143841562D01*
X193046602Y-143839041D01*
X193046011Y-143836637D01*
X193045297Y-143834348D01*
X193044463Y-143832170D01*
X193043512Y-143830102D01*
X193042447Y-143828139D01*
X193041270Y-143826281D01*
X193039986Y-143824523D01*
X193038597Y-143822863D01*
X193037107Y-143821299D01*
X193035517Y-143819827D01*
X193033831Y-143818446D01*
X193032053Y-143817152D01*
X193030185Y-143815942D01*
X193028230Y-143814815D01*
X193024072Y-143812795D01*
X193019604Y-143811070D01*
X193014848Y-143809619D01*
X193009831Y-143808420D01*
X193004575Y-143807451D01*
X192999106Y-143806692D01*
X192993446Y-143806119D01*
X192914721Y-143799131D01*
X192901184Y-143797543D01*
X192888149Y-143795081D01*
X192881836Y-143793524D01*
X192875667Y-143791752D01*
X192869649Y-143789765D01*
X192863789Y-143787565D01*
X192858093Y-143785151D01*
X192852567Y-143782526D01*
X192847217Y-143779691D01*
X192842051Y-143776645D01*
X192837074Y-143773391D01*
X192832293Y-143769929D01*
X192827715Y-143766260D01*
X192823345Y-143762386D01*
X192819190Y-143758306D01*
X192815257Y-143754022D01*
X192811552Y-143749536D01*
X192808081Y-143744847D01*
X192804852Y-143739958D01*
X192801869Y-143734869D01*
X192799140Y-143729580D01*
X192796671Y-143724094D01*
X192794469Y-143718410D01*
X192792539Y-143712531D01*
X192790889Y-143706456D01*
X192789524Y-143700187D01*
X192788451Y-143693725D01*
X192787677Y-143687070D01*
X192787208Y-143680225D01*
X192787050Y-143673189D01*
X192787259Y-143664872D01*
X192787878Y-143656811D01*
X192788900Y-143649008D01*
X192790314Y-143641462D01*
X192792112Y-143634175D01*
X192794285Y-143627146D01*
X192796823Y-143620376D01*
X192799717Y-143613866D01*
X192802959Y-143607616D01*
X192806538Y-143601627D01*
X192810447Y-143595898D01*
X192814675Y-143590432D01*
X192819214Y-143585227D01*
X192824054Y-143580284D01*
X192829187Y-143575605D01*
X192834602Y-143571189D01*
X192840293Y-143567037D01*
X192846248Y-143563149D01*
X192852458Y-143559526D01*
X192858916Y-143556169D01*
X192865611Y-143553077D01*
X192872535Y-143550252D01*
X192887031Y-143545403D01*
X192902332Y-143541624D01*
X192918364Y-143538920D01*
X192935055Y-143537295D01*
X192952330Y-143536753D01*
X192966640Y-143537027D01*
G37*
G36*
X191520535Y-143537038D02*
G01*
X191530179Y-143537872D01*
X191539478Y-143539235D01*
X191548433Y-143541102D01*
X191557045Y-143543451D01*
X191565316Y-143546259D01*
X191573246Y-143549502D01*
X191580838Y-143553158D01*
X191588091Y-143557204D01*
X191595008Y-143561616D01*
X191601589Y-143566371D01*
X191607835Y-143571447D01*
X191613748Y-143576820D01*
X191619329Y-143582467D01*
X191624578Y-143588365D01*
X191629498Y-143594491D01*
X191633884Y-143600384D01*
X191637876Y-143606336D01*
X191641489Y-143612471D01*
X191644738Y-143618908D01*
X191646231Y-143622279D01*
X191647639Y-143625772D01*
X191648964Y-143629401D01*
X191650207Y-143633182D01*
X191651371Y-143637130D01*
X191652457Y-143641261D01*
X191654406Y-143650130D01*
X191656067Y-143659912D01*
X191657457Y-143670729D01*
X191658591Y-143682701D01*
X191659485Y-143695951D01*
X191660153Y-143710601D01*
X191660611Y-143726772D01*
X191660875Y-143744587D01*
X191660959Y-143764166D01*
X191660611Y-143801252D01*
X191659485Y-143831846D01*
X191658591Y-143845008D01*
X191657457Y-143856908D01*
X191656067Y-143867666D01*
X191654406Y-143877402D01*
X191652457Y-143886237D01*
X191650207Y-143894289D01*
X191647639Y-143901681D01*
X191644738Y-143908531D01*
X191641489Y-143914961D01*
X191637876Y-143921090D01*
X191633884Y-143927039D01*
X191629498Y-143932928D01*
X191624578Y-143939050D01*
X191619329Y-143944945D01*
X191613748Y-143950590D01*
X191607835Y-143955961D01*
X191601589Y-143961036D01*
X191595008Y-143965792D01*
X191588091Y-143970204D01*
X191580838Y-143974251D01*
X191573246Y-143977908D01*
X191569324Y-143979584D01*
X191565316Y-143981153D01*
X191561223Y-143982614D01*
X191557045Y-143983962D01*
X191552782Y-143985196D01*
X191548433Y-143986313D01*
X191543998Y-143987309D01*
X191539478Y-143988181D01*
X191534871Y-143988928D01*
X191530179Y-143989545D01*
X191525400Y-143990030D01*
X191520535Y-143990380D01*
X191515583Y-143990592D01*
X191510545Y-143990663D01*
X191502127Y-143990420D01*
X191493925Y-143989700D01*
X191485928Y-143988519D01*
X191478126Y-143986892D01*
X191470508Y-143984834D01*
X191463065Y-143982362D01*
X191455786Y-143979489D01*
X191448661Y-143976233D01*
X191441679Y-143972607D01*
X191434831Y-143968628D01*
X191428105Y-143964310D01*
X191421492Y-143959670D01*
X191414982Y-143954722D01*
X191408564Y-143949482D01*
X191402228Y-143943966D01*
X191395963Y-143938188D01*
X191395642Y-144289590D01*
X191401339Y-144283238D01*
X191407277Y-144277296D01*
X191413450Y-144271762D01*
X191419854Y-144266639D01*
X191426484Y-144261924D01*
X191433333Y-144257620D01*
X191440398Y-144253725D01*
X191447673Y-144250239D01*
X191455153Y-144247164D01*
X191462833Y-144244498D01*
X191470707Y-144242242D01*
X191478770Y-144240396D01*
X191487018Y-144238960D01*
X191495446Y-144237935D01*
X191504047Y-144237319D01*
X191512817Y-144237114D01*
X191519320Y-144237270D01*
X191525863Y-144237738D01*
X191532431Y-144238515D01*
X191539006Y-144239602D01*
X191545572Y-144240997D01*
X191552114Y-144242699D01*
X191558615Y-144244707D01*
X191565060Y-144247020D01*
X191571431Y-144249636D01*
X191577713Y-144252554D01*
X191583890Y-144255774D01*
X191589945Y-144259294D01*
X191595862Y-144263113D01*
X191601625Y-144267230D01*
X191607219Y-144271644D01*
X191612626Y-144276354D01*
X191617830Y-144281358D01*
X191622816Y-144286656D01*
X191627568Y-144292246D01*
X191632068Y-144298127D01*
X191636301Y-144304298D01*
X191640251Y-144310759D01*
X191643902Y-144317507D01*
X191647237Y-144324542D01*
X191650240Y-144331862D01*
X191652895Y-144339468D01*
X191655186Y-144347356D01*
X191657097Y-144355527D01*
X191658611Y-144363979D01*
X191659713Y-144372711D01*
X191660385Y-144381721D01*
X191660613Y-144391010D01*
X191660613Y-144685763D01*
X191571417Y-144685763D01*
X191571417Y-144421656D01*
X191571308Y-144416068D01*
X191570982Y-144410631D01*
X191570446Y-144405346D01*
X191569704Y-144400216D01*
X191568759Y-144395241D01*
X191567618Y-144390425D01*
X191566283Y-144385768D01*
X191564761Y-144381272D01*
X191563056Y-144376939D01*
X191561173Y-144372771D01*
X191559115Y-144368769D01*
X191556888Y-144364936D01*
X191554496Y-144361273D01*
X191551945Y-144357781D01*
X191549238Y-144354463D01*
X191546380Y-144351320D01*
X191543376Y-144348354D01*
X191540231Y-144345566D01*
X191536949Y-144342960D01*
X191533535Y-144340535D01*
X191529993Y-144338294D01*
X191526329Y-144336239D01*
X191522546Y-144334372D01*
X191518650Y-144332693D01*
X191514645Y-144331206D01*
X191510535Y-144329911D01*
X191506326Y-144328810D01*
X191502022Y-144327906D01*
X191497628Y-144327200D01*
X191493148Y-144326693D01*
X191488587Y-144326388D01*
X191483949Y-144326286D01*
X191479233Y-144326388D01*
X191474599Y-144326693D01*
X191470050Y-144327200D01*
X191465592Y-144327906D01*
X191461229Y-144328810D01*
X191456965Y-144329911D01*
X191452805Y-144331206D01*
X191448753Y-144332693D01*
X191444814Y-144334372D01*
X191440992Y-144336239D01*
X191437292Y-144338294D01*
X191433718Y-144340535D01*
X191430275Y-144342960D01*
X191426967Y-144345566D01*
X191423799Y-144348354D01*
X191420775Y-144351320D01*
X191417899Y-144354463D01*
X191415177Y-144357781D01*
X191412612Y-144361273D01*
X191410209Y-144364936D01*
X191407973Y-144368769D01*
X191405907Y-144372771D01*
X191404017Y-144376939D01*
X191402307Y-144381272D01*
X191400782Y-144385768D01*
X191399445Y-144390425D01*
X191398302Y-144395241D01*
X191397356Y-144400216D01*
X191396613Y-144405346D01*
X191396076Y-144410631D01*
X191395751Y-144416068D01*
X191395642Y-144421656D01*
X191395642Y-144685763D01*
X191306421Y-144685763D01*
X191306421Y-143764166D01*
X191395963Y-143764166D01*
X191396314Y-143788401D01*
X191396916Y-143800551D01*
X191397948Y-143812560D01*
X191399518Y-143824308D01*
X191401735Y-143835672D01*
X191404707Y-143846532D01*
X191406511Y-143851734D01*
X191408545Y-143856764D01*
X191410822Y-143861607D01*
X191413356Y-143866248D01*
X191416160Y-143870672D01*
X191419249Y-143874862D01*
X191422636Y-143878805D01*
X191426333Y-143882485D01*
X191430356Y-143885886D01*
X191434718Y-143888994D01*
X191439431Y-143891793D01*
X191444511Y-143894269D01*
X191449970Y-143896405D01*
X191455822Y-143898187D01*
X191462080Y-143899599D01*
X191468759Y-143900627D01*
X191475871Y-143901255D01*
X191483431Y-143901467D01*
X191491071Y-143901267D01*
X191498259Y-143900674D01*
X191505008Y-143899702D01*
X191511332Y-143898364D01*
X191517245Y-143896672D01*
X191522760Y-143894639D01*
X191527892Y-143892278D01*
X191532654Y-143889602D01*
X191537059Y-143886623D01*
X191541122Y-143883355D01*
X191544857Y-143879810D01*
X191548276Y-143876002D01*
X191551395Y-143871942D01*
X191554226Y-143867644D01*
X191556784Y-143863121D01*
X191559082Y-143858385D01*
X191561134Y-143853449D01*
X191562954Y-143848326D01*
X191564555Y-143843030D01*
X191565952Y-143837572D01*
X191567158Y-143831965D01*
X191568187Y-143826223D01*
X191569768Y-143814383D01*
X191570806Y-143802155D01*
X191571411Y-143789641D01*
X191571693Y-143776944D01*
X191571763Y-143764166D01*
X191571411Y-143738383D01*
X191570806Y-143725746D01*
X191569768Y-143713414D01*
X191568187Y-143701487D01*
X191565952Y-143690067D01*
X191562954Y-143679255D01*
X191561134Y-143674108D01*
X191559082Y-143669151D01*
X191556784Y-143664397D01*
X191554226Y-143659858D01*
X191551395Y-143655546D01*
X191548276Y-143651475D01*
X191544857Y-143647657D01*
X191541122Y-143644105D01*
X191537059Y-143640831D01*
X191532654Y-143637848D01*
X191527892Y-143635169D01*
X191522760Y-143632806D01*
X191517245Y-143630772D01*
X191511332Y-143629079D01*
X191505008Y-143627740D01*
X191498259Y-143626769D01*
X191491071Y-143626176D01*
X191483431Y-143625976D01*
X191475871Y-143626189D01*
X191468759Y-143626817D01*
X191462080Y-143627845D01*
X191455822Y-143629259D01*
X191449970Y-143631043D01*
X191444511Y-143633182D01*
X191439431Y-143635662D01*
X191434718Y-143638466D01*
X191430356Y-143641581D01*
X191426333Y-143644990D01*
X191422636Y-143648680D01*
X191419249Y-143652634D01*
X191416160Y-143656838D01*
X191413356Y-143661277D01*
X191410822Y-143665936D01*
X191408545Y-143670800D01*
X191406511Y-143675853D01*
X191404707Y-143681080D01*
X191403120Y-143686467D01*
X191401735Y-143691999D01*
X191400538Y-143697660D01*
X191399518Y-143703435D01*
X191397948Y-143715268D01*
X191396916Y-143727379D01*
X191396314Y-143739645D01*
X191396033Y-143751948D01*
X191395963Y-143764166D01*
X191306421Y-143764166D01*
X191306421Y-143542015D01*
X191395963Y-143542015D01*
X191395963Y-143588366D01*
X191401365Y-143582736D01*
X191407061Y-143577350D01*
X191413038Y-143572223D01*
X191419284Y-143567373D01*
X191425785Y-143562816D01*
X191432530Y-143558569D01*
X191439505Y-143554647D01*
X191446698Y-143551068D01*
X191454095Y-143547849D01*
X191461685Y-143545005D01*
X191469454Y-143542553D01*
X191477390Y-143540510D01*
X191485480Y-143538892D01*
X191493711Y-143537716D01*
X191502070Y-143536998D01*
X191510545Y-143536755D01*
X191520535Y-143537038D01*
G37*
G36*
X193201608Y-140221508D02*
G01*
X193202548Y-140221578D01*
X193203484Y-140221693D01*
X193204413Y-140221852D01*
X193205335Y-140222053D01*
X193206248Y-140222297D01*
X193207151Y-140222581D01*
X193208042Y-140222904D01*
X193208921Y-140223266D01*
X193209784Y-140223665D01*
X193210632Y-140224100D01*
X193211463Y-140224569D01*
X193212275Y-140225072D01*
X193213068Y-140225608D01*
X193213838Y-140226175D01*
X193214586Y-140226772D01*
X193215310Y-140227398D01*
X193216009Y-140228052D01*
X193216680Y-140228733D01*
X193217323Y-140229439D01*
X193217936Y-140230169D01*
X193218519Y-140230923D01*
X193219068Y-140231699D01*
X193219584Y-140232496D01*
X193220064Y-140233313D01*
X193220508Y-140234148D01*
X193220914Y-140235001D01*
X193221280Y-140235870D01*
X193221605Y-140236754D01*
X193221888Y-140237652D01*
X193222128Y-140238564D01*
X193222322Y-140239486D01*
X193300455Y-140659366D01*
X193300653Y-140660296D01*
X193300892Y-140661230D01*
X193301493Y-140663100D01*
X193302248Y-140664965D01*
X193303144Y-140666811D01*
X193304173Y-140668627D01*
X193305324Y-140670401D01*
X193306585Y-140672120D01*
X193307947Y-140673772D01*
X193309399Y-140675345D01*
X193310930Y-140676827D01*
X193312531Y-140678206D01*
X193314190Y-140679469D01*
X193315896Y-140680605D01*
X193317640Y-140681600D01*
X193318523Y-140682041D01*
X193319411Y-140682443D01*
X193320304Y-140682804D01*
X193321199Y-140683122D01*
X193602616Y-140798322D01*
X193604369Y-140799091D01*
X193606227Y-140799734D01*
X193608174Y-140800251D01*
X193610194Y-140800644D01*
X193612270Y-140800913D01*
X193614386Y-140801060D01*
X193616526Y-140801086D01*
X193618674Y-140800992D01*
X193620813Y-140800779D01*
X193622927Y-140800447D01*
X193625000Y-140800000D01*
X193627015Y-140799436D01*
X193628957Y-140798759D01*
X193630808Y-140797967D01*
X193632553Y-140797064D01*
X193634176Y-140796050D01*
X193984961Y-140555328D01*
X193985751Y-140554814D01*
X193986564Y-140554339D01*
X193987399Y-140553904D01*
X193988254Y-140553509D01*
X193989127Y-140553154D01*
X193990017Y-140552838D01*
X193990920Y-140552561D01*
X193991837Y-140552323D01*
X193992764Y-140552125D01*
X193993700Y-140551965D01*
X193995593Y-140551760D01*
X193997501Y-140551709D01*
X193999410Y-140551809D01*
X194001305Y-140552060D01*
X194003172Y-140552461D01*
X194004997Y-140553009D01*
X194005889Y-140553338D01*
X194006765Y-140553703D01*
X194007624Y-140554105D01*
X194008463Y-140554543D01*
X194009281Y-140555017D01*
X194010076Y-140555527D01*
X194010846Y-140556072D01*
X194011589Y-140556653D01*
X194012304Y-140557270D01*
X194012989Y-140557921D01*
X194308408Y-140853341D01*
X194309060Y-140854026D01*
X194309676Y-140854741D01*
X194310256Y-140855484D01*
X194310801Y-140856255D01*
X194311309Y-140857050D01*
X194311782Y-140857869D01*
X194312619Y-140859568D01*
X194313311Y-140861338D01*
X194313856Y-140863165D01*
X194314253Y-140865035D01*
X194314502Y-140866932D01*
X194314600Y-140868843D01*
X194314548Y-140870753D01*
X194314343Y-140872648D01*
X194313985Y-140874514D01*
X194313474Y-140876335D01*
X194313159Y-140877225D01*
X194312806Y-140878099D01*
X194312414Y-140878954D01*
X194311983Y-140879790D01*
X194311512Y-140880604D01*
X194311001Y-140881394D01*
X194074478Y-141226128D01*
X194073456Y-141227758D01*
X194072551Y-141229506D01*
X194071761Y-141231356D01*
X194071089Y-141233293D01*
X194070535Y-141235301D01*
X194070100Y-141237363D01*
X194069785Y-141239465D01*
X194069591Y-141241590D01*
X194069519Y-141243722D01*
X194069570Y-141245845D01*
X194069744Y-141247944D01*
X194070043Y-141250003D01*
X194070468Y-141252005D01*
X194071018Y-141253935D01*
X194071696Y-141255777D01*
X194072502Y-141257515D01*
X194196937Y-141547823D01*
X194197648Y-141549605D01*
X194198521Y-141551372D01*
X194199544Y-141553111D01*
X194200706Y-141554813D01*
X194201993Y-141556467D01*
X194203394Y-141558063D01*
X194204897Y-141559590D01*
X194206488Y-141561037D01*
X194208157Y-141562395D01*
X194209890Y-141563651D01*
X194211676Y-141564797D01*
X194213502Y-141565821D01*
X194215356Y-141566713D01*
X194217226Y-141567463D01*
X194219100Y-141568059D01*
X194220965Y-141568492D01*
X194626917Y-141643983D01*
X194627838Y-141644182D01*
X194628747Y-141644425D01*
X194629644Y-141644712D01*
X194630527Y-141645040D01*
X194631395Y-141645409D01*
X194632247Y-141645817D01*
X194633081Y-141646263D01*
X194633897Y-141646745D01*
X194635470Y-141647814D01*
X194636954Y-141649011D01*
X194638341Y-141650327D01*
X194639622Y-141651749D01*
X194640788Y-141653268D01*
X194641828Y-141654871D01*
X194642734Y-141656549D01*
X194643133Y-141657412D01*
X194643496Y-141658290D01*
X194643820Y-141659181D01*
X194644104Y-141660083D01*
X194644349Y-141660996D01*
X194644551Y-141661917D01*
X194644710Y-141662846D01*
X194644826Y-141663781D01*
X194644896Y-141664721D01*
X194644919Y-141665665D01*
X194644870Y-142083470D01*
X194644846Y-142084413D01*
X194644776Y-142085354D01*
X194644661Y-142086290D01*
X194644502Y-142087220D01*
X194644299Y-142088143D01*
X194644055Y-142089057D01*
X194643770Y-142089962D01*
X194643446Y-142090854D01*
X194643084Y-142091734D01*
X194642684Y-142092600D01*
X194642249Y-142093450D01*
X194641778Y-142094282D01*
X194641275Y-142095096D01*
X194640738Y-142095890D01*
X194640171Y-142096663D01*
X194639573Y-142097413D01*
X194638946Y-142098138D01*
X194638292Y-142098838D01*
X194637611Y-142099511D01*
X194636905Y-142100156D01*
X194636174Y-142100770D01*
X194635420Y-142101353D01*
X194634644Y-142101904D01*
X194633848Y-142102420D01*
X194633032Y-142102901D01*
X194632197Y-142103344D01*
X194631345Y-142103750D01*
X194630477Y-142104115D01*
X194629594Y-142104440D01*
X194628698Y-142104722D01*
X194627788Y-142104959D01*
X194626868Y-142105151D01*
X194230892Y-142178840D01*
X194229960Y-142179031D01*
X194229026Y-142179265D01*
X194228091Y-142179541D01*
X194227158Y-142179858D01*
X194225299Y-142180607D01*
X194223462Y-142181502D01*
X194221659Y-142182532D01*
X194219900Y-142183686D01*
X194218199Y-142184953D01*
X194216567Y-142186322D01*
X194215015Y-142187783D01*
X194213556Y-142189324D01*
X194212201Y-142190935D01*
X194210963Y-142192605D01*
X194209853Y-142194323D01*
X194208882Y-142196078D01*
X194208063Y-142197860D01*
X194207715Y-142198757D01*
X194207408Y-142199657D01*
X194083788Y-142508461D01*
X194083019Y-142510218D01*
X194082377Y-142512078D01*
X194081862Y-142514026D01*
X194081473Y-142516045D01*
X194081207Y-142518120D01*
X194081065Y-142520234D01*
X194081043Y-142522371D01*
X194081142Y-142524516D01*
X194081360Y-142526651D01*
X194081696Y-142528761D01*
X194082148Y-142530831D01*
X194082715Y-142532843D01*
X194083396Y-142534781D01*
X194084189Y-142536630D01*
X194085094Y-142538374D01*
X194086109Y-142539996D01*
X194311051Y-142867790D01*
X194311563Y-142868580D01*
X194312036Y-142869394D01*
X194312469Y-142870229D01*
X194312863Y-142871085D01*
X194313217Y-142871958D01*
X194313532Y-142872848D01*
X194313808Y-142873753D01*
X194314045Y-142874670D01*
X194314244Y-142875598D01*
X194314403Y-142876536D01*
X194314608Y-142878431D01*
X194314660Y-142880341D01*
X194314560Y-142882252D01*
X194314311Y-142884149D01*
X194313912Y-142886018D01*
X194313366Y-142887845D01*
X194313037Y-142888738D01*
X194312672Y-142889616D01*
X194312271Y-142890475D01*
X194311834Y-142891315D01*
X194311360Y-142892133D01*
X194310851Y-142892929D01*
X194310306Y-142893699D01*
X194309725Y-142894443D01*
X194309109Y-142895158D01*
X194308458Y-142895843D01*
X194012989Y-143191262D01*
X194012308Y-143191909D01*
X194011597Y-143192522D01*
X194010857Y-143193099D01*
X194010090Y-143193641D01*
X194009297Y-143194147D01*
X194008481Y-143194618D01*
X194006786Y-143195453D01*
X194005019Y-143196144D01*
X194003194Y-143196690D01*
X194001325Y-143197089D01*
X193999428Y-143197340D01*
X193997517Y-143197443D01*
X193995606Y-143197395D01*
X193993710Y-143197195D01*
X193991844Y-143196843D01*
X193990021Y-143196337D01*
X193989130Y-143196025D01*
X193988256Y-143195675D01*
X193987401Y-143195285D01*
X193986565Y-143194856D01*
X193985751Y-143194388D01*
X193984961Y-143193880D01*
X193662970Y-142972865D01*
X193661351Y-142971861D01*
X193659617Y-142970981D01*
X193657783Y-142970224D01*
X193655865Y-142969591D01*
X193653879Y-142969083D01*
X193651842Y-142968699D01*
X193649768Y-142968441D01*
X193647675Y-142968309D01*
X193645576Y-142968302D01*
X193643490Y-142968423D01*
X193641430Y-142968670D01*
X193639415Y-142969045D01*
X193637458Y-142969548D01*
X193635576Y-142970179D01*
X193633785Y-142970939D01*
X193632101Y-142971828D01*
X193490108Y-143047640D01*
X193489259Y-143048043D01*
X193488403Y-143048398D01*
X193487542Y-143048705D01*
X193486676Y-143048964D01*
X193485807Y-143049176D01*
X193484938Y-143049341D01*
X193484069Y-143049460D01*
X193483201Y-143049533D01*
X193482337Y-143049562D01*
X193481478Y-143049546D01*
X193480625Y-143049486D01*
X193479779Y-143049383D01*
X193478943Y-143049237D01*
X193478118Y-143049048D01*
X193477305Y-143048818D01*
X193476505Y-143048547D01*
X193475720Y-143048235D01*
X193474952Y-143047883D01*
X193474203Y-143047491D01*
X193473472Y-143047061D01*
X193472763Y-143046592D01*
X193472076Y-143046085D01*
X193471413Y-143045540D01*
X193470776Y-143044959D01*
X193470166Y-143044341D01*
X193469584Y-143043688D01*
X193469032Y-143042999D01*
X193468511Y-143042276D01*
X193468023Y-143041518D01*
X193467570Y-143040727D01*
X193467152Y-143039903D01*
X193466772Y-143039046D01*
X193173995Y-142331599D01*
X193173657Y-142330719D01*
X193173363Y-142329826D01*
X193173114Y-142328920D01*
X193172908Y-142328005D01*
X193172745Y-142327081D01*
X193172625Y-142326150D01*
X193172548Y-142325214D01*
X193172511Y-142324275D01*
X193172516Y-142323334D01*
X193172560Y-142322394D01*
X193172645Y-142321455D01*
X193172768Y-142320519D01*
X193172931Y-142319589D01*
X193173131Y-142318665D01*
X193173369Y-142317750D01*
X193173643Y-142316844D01*
X193173954Y-142315951D01*
X193174301Y-142315072D01*
X193174683Y-142314207D01*
X193175099Y-142313360D01*
X193175550Y-142312531D01*
X193176034Y-142311722D01*
X193176550Y-142310936D01*
X193177100Y-142310173D01*
X193177681Y-142309436D01*
X193178293Y-142308725D01*
X193178935Y-142308044D01*
X193179608Y-142307393D01*
X193180311Y-142306774D01*
X193181042Y-142306189D01*
X193181801Y-142305639D01*
X193182589Y-142305127D01*
X193218124Y-142283396D01*
X193220689Y-142281759D01*
X193223423Y-142279894D01*
X193226276Y-142277840D01*
X193229196Y-142275639D01*
X193232135Y-142273330D01*
X193235039Y-142270953D01*
X193237860Y-142268550D01*
X193240546Y-142266159D01*
X193264070Y-142250058D01*
X193286520Y-142232575D01*
X193307836Y-142213773D01*
X193327955Y-142193712D01*
X193346817Y-142172453D01*
X193364360Y-142150056D01*
X193380523Y-142126583D01*
X193395245Y-142102095D01*
X193408464Y-142076653D01*
X193420120Y-142050317D01*
X193430151Y-142023149D01*
X193438495Y-141995209D01*
X193445092Y-141966558D01*
X193449879Y-141937257D01*
X193452797Y-141907368D01*
X193453783Y-141876950D01*
X193453182Y-141853172D01*
X193451398Y-141829707D01*
X193448459Y-141806582D01*
X193444396Y-141783828D01*
X193439237Y-141761473D01*
X193433011Y-141739547D01*
X193425746Y-141718077D01*
X193417473Y-141697094D01*
X193408221Y-141676627D01*
X193398017Y-141656704D01*
X193386892Y-141637354D01*
X193374874Y-141618607D01*
X193361992Y-141600492D01*
X193348275Y-141583037D01*
X193333753Y-141566271D01*
X193318455Y-141550224D01*
X193302408Y-141534925D01*
X193285644Y-141520402D01*
X193268189Y-141506686D01*
X193250075Y-141493803D01*
X193231328Y-141481785D01*
X193211980Y-141470659D01*
X193192058Y-141460456D01*
X193171592Y-141451203D01*
X193150610Y-141442929D01*
X193129142Y-141435665D01*
X193107217Y-141429439D01*
X193084864Y-141424280D01*
X193062112Y-141420216D01*
X193038989Y-141417278D01*
X193015526Y-141415494D01*
X192991750Y-141414893D01*
X192967974Y-141415494D01*
X192944510Y-141417278D01*
X192921387Y-141420216D01*
X192898634Y-141424280D01*
X192876280Y-141429439D01*
X192854353Y-141435665D01*
X192832884Y-141442929D01*
X192811901Y-141451203D01*
X192791433Y-141460456D01*
X192771509Y-141470659D01*
X192752158Y-141481785D01*
X192733410Y-141493803D01*
X192715293Y-141506686D01*
X192697837Y-141520402D01*
X192681070Y-141534925D01*
X192665021Y-141550224D01*
X192649720Y-141566271D01*
X192635196Y-141583037D01*
X192621477Y-141600492D01*
X192608593Y-141618607D01*
X192596573Y-141637354D01*
X192585445Y-141656704D01*
X192575240Y-141676627D01*
X192565985Y-141697094D01*
X192557711Y-141718077D01*
X192550445Y-141739547D01*
X192544217Y-141761473D01*
X192539057Y-141783828D01*
X192534993Y-141806582D01*
X192532054Y-141829707D01*
X192530269Y-141853172D01*
X192529668Y-141876950D01*
X192529916Y-141892221D01*
X192530655Y-141907368D01*
X192531876Y-141922382D01*
X192533574Y-141937257D01*
X192535739Y-141951985D01*
X192538364Y-141966558D01*
X192541441Y-141980968D01*
X192544963Y-141995209D01*
X192548923Y-142009271D01*
X192553311Y-142023149D01*
X192558121Y-142036833D01*
X192563345Y-142050317D01*
X192568976Y-142063593D01*
X192575005Y-142076653D01*
X192588228Y-142102095D01*
X192602953Y-142126583D01*
X192619119Y-142150056D01*
X192636664Y-142172453D01*
X192655527Y-142193712D01*
X192675647Y-142213773D01*
X192696961Y-142232575D01*
X192719409Y-142250058D01*
X192742929Y-142266159D01*
X192745632Y-142268550D01*
X192748465Y-142270953D01*
X192751379Y-142273330D01*
X192754323Y-142275639D01*
X192757247Y-142277840D01*
X192760101Y-142279894D01*
X192762836Y-142281759D01*
X192765401Y-142283396D01*
X192800936Y-142305127D01*
X192801726Y-142305639D01*
X192802488Y-142306189D01*
X192803221Y-142306774D01*
X192803925Y-142307393D01*
X192804599Y-142308044D01*
X192805244Y-142308725D01*
X192806439Y-142310173D01*
X192807507Y-142311722D01*
X192808442Y-142313360D01*
X192809241Y-142315072D01*
X192809897Y-142316845D01*
X192810408Y-142318665D01*
X192810768Y-142320519D01*
X192810973Y-142322394D01*
X192811017Y-142324275D01*
X192810898Y-142326150D01*
X192810775Y-142327081D01*
X192810609Y-142328005D01*
X192810400Y-142328920D01*
X192810146Y-142329826D01*
X192809848Y-142330719D01*
X192809505Y-142331599D01*
X192516728Y-143039046D01*
X192516350Y-143039903D01*
X192515934Y-143040727D01*
X192515482Y-143041518D01*
X192514995Y-143042276D01*
X192514475Y-143042999D01*
X192513924Y-143043688D01*
X192513342Y-143044341D01*
X192512732Y-143044959D01*
X192512094Y-143045540D01*
X192511431Y-143046085D01*
X192510744Y-143046592D01*
X192510034Y-143047061D01*
X192509303Y-143047491D01*
X192508552Y-143047883D01*
X192507784Y-143048235D01*
X192506999Y-143048547D01*
X192506198Y-143048818D01*
X192505385Y-143049048D01*
X192504559Y-143049237D01*
X192503723Y-143049383D01*
X192502877Y-143049486D01*
X192502024Y-143049546D01*
X192501166Y-143049562D01*
X192500302Y-143049533D01*
X192499436Y-143049460D01*
X192498569Y-143049341D01*
X192497701Y-143049176D01*
X192496835Y-143048964D01*
X192495972Y-143048705D01*
X192495114Y-143048398D01*
X192494261Y-143048043D01*
X192493417Y-143047640D01*
X192351423Y-142971828D01*
X192349735Y-142970939D01*
X192347941Y-142970179D01*
X192346056Y-142969548D01*
X192344097Y-142969045D01*
X192342079Y-142968670D01*
X192340018Y-142968423D01*
X192337930Y-142968302D01*
X192335832Y-142968309D01*
X192333738Y-142968441D01*
X192331666Y-142968699D01*
X192329630Y-142969083D01*
X192327646Y-142969591D01*
X192325731Y-142970224D01*
X192323900Y-142970981D01*
X192322170Y-142971861D01*
X192320555Y-142972865D01*
X191998565Y-143193880D01*
X191997774Y-143194388D01*
X191996960Y-143194856D01*
X191996124Y-143195285D01*
X191995269Y-143195675D01*
X191994395Y-143196025D01*
X191993504Y-143196337D01*
X191992599Y-143196609D01*
X191991681Y-143196843D01*
X191989815Y-143197195D01*
X191987919Y-143197395D01*
X191986008Y-143197443D01*
X191984097Y-143197340D01*
X191982200Y-143197089D01*
X191980331Y-143196690D01*
X191978506Y-143196144D01*
X191977614Y-143195817D01*
X191976739Y-143195453D01*
X191975881Y-143195054D01*
X191975044Y-143194618D01*
X191974228Y-143194147D01*
X191973435Y-143193641D01*
X191972668Y-143193099D01*
X191971928Y-143192522D01*
X191971217Y-143191909D01*
X191970536Y-143191262D01*
X191675043Y-142895843D01*
X191674393Y-142895158D01*
X191673779Y-142894443D01*
X191673200Y-142893699D01*
X191672656Y-142892929D01*
X191672148Y-142892133D01*
X191671676Y-142891315D01*
X191670838Y-142889616D01*
X191670146Y-142887845D01*
X191669599Y-142886018D01*
X191669200Y-142884149D01*
X191668949Y-142882252D01*
X191668848Y-142880341D01*
X191668899Y-142878431D01*
X191669102Y-142876536D01*
X191669458Y-142874670D01*
X191669970Y-142872848D01*
X191670285Y-142871958D01*
X191670639Y-142871085D01*
X191671032Y-142870229D01*
X191671465Y-142869394D01*
X191671937Y-142868580D01*
X191672450Y-142867790D01*
X191897367Y-142539996D01*
X191898390Y-142538374D01*
X191899302Y-142536630D01*
X191900101Y-142534781D01*
X191900786Y-142532843D01*
X191901356Y-142530831D01*
X191901809Y-142528761D01*
X191902146Y-142526651D01*
X191902364Y-142524516D01*
X191902463Y-142522371D01*
X191902441Y-142520234D01*
X191902297Y-142518120D01*
X191902030Y-142516045D01*
X191901640Y-142514026D01*
X191901124Y-142512078D01*
X191900482Y-142510218D01*
X191899713Y-142508461D01*
X191776117Y-142199657D01*
X191775812Y-142198757D01*
X191775465Y-142197860D01*
X191774647Y-142196079D01*
X191773675Y-142194323D01*
X191772561Y-142192605D01*
X191771318Y-142190935D01*
X191769958Y-142189324D01*
X191768492Y-142187783D01*
X191766934Y-142186322D01*
X191765294Y-142184953D01*
X191763587Y-142183686D01*
X191761822Y-142182532D01*
X191760014Y-142181502D01*
X191758174Y-142180607D01*
X191756314Y-142179858D01*
X191754446Y-142179265D01*
X191753513Y-142179031D01*
X191752583Y-142178840D01*
X191356607Y-142105152D01*
X191355685Y-142104959D01*
X191354773Y-142104722D01*
X191353875Y-142104440D01*
X191352991Y-142104116D01*
X191352122Y-142103750D01*
X191351269Y-142103345D01*
X191350434Y-142102901D01*
X191349617Y-142102420D01*
X191348820Y-142101904D01*
X191348044Y-142101353D01*
X191346560Y-142100156D01*
X191345173Y-142098838D01*
X191343893Y-142097413D01*
X191342729Y-142095890D01*
X191341690Y-142094282D01*
X191340786Y-142092600D01*
X191340026Y-142090855D01*
X191339702Y-142089962D01*
X191339418Y-142089058D01*
X191339174Y-142088143D01*
X191338973Y-142087220D01*
X191338814Y-142086290D01*
X191338699Y-142085354D01*
X191338629Y-142084413D01*
X191338605Y-142083470D01*
X191338580Y-141665665D01*
X191338604Y-141664721D01*
X191338674Y-141663781D01*
X191338789Y-141662846D01*
X191338948Y-141661917D01*
X191339150Y-141660996D01*
X191339393Y-141660083D01*
X191339677Y-141659181D01*
X191340001Y-141658290D01*
X191340362Y-141657412D01*
X191340761Y-141656549D01*
X191341196Y-141655702D01*
X191341665Y-141654871D01*
X191342169Y-141654060D01*
X191342704Y-141653268D01*
X191343271Y-141652497D01*
X191343868Y-141651749D01*
X191344494Y-141651025D01*
X191345148Y-141650327D01*
X191345829Y-141649655D01*
X191346535Y-141649011D01*
X191347266Y-141648397D01*
X191348019Y-141647814D01*
X191348795Y-141647263D01*
X191349592Y-141646745D01*
X191350409Y-141646263D01*
X191351244Y-141645817D01*
X191352097Y-141645409D01*
X191352966Y-141645040D01*
X191353850Y-141644712D01*
X191354749Y-141644425D01*
X191355660Y-141644182D01*
X191356583Y-141643983D01*
X191762510Y-141568492D01*
X191763445Y-141568297D01*
X191764384Y-141568059D01*
X191765324Y-141567781D01*
X191766265Y-141567463D01*
X191768141Y-141566714D01*
X191770001Y-141565821D01*
X191771831Y-141564797D01*
X191773620Y-141563652D01*
X191775355Y-141562395D01*
X191777024Y-141561037D01*
X191778615Y-141559590D01*
X191780116Y-141558063D01*
X191781514Y-141556467D01*
X191782797Y-141554813D01*
X191783953Y-141553111D01*
X191784970Y-141551372D01*
X191785423Y-141550491D01*
X191785836Y-141549605D01*
X191786208Y-141548715D01*
X191786537Y-141547823D01*
X191911022Y-141257515D01*
X191911824Y-141255777D01*
X191912496Y-141253935D01*
X191913042Y-141252005D01*
X191913461Y-141250003D01*
X191913754Y-141247944D01*
X191913924Y-141245845D01*
X191913971Y-141243722D01*
X191913896Y-141241590D01*
X191913701Y-141239465D01*
X191913385Y-141237364D01*
X191912952Y-141235301D01*
X191912401Y-141233293D01*
X191911734Y-141231356D01*
X191910952Y-141229506D01*
X191910056Y-141227758D01*
X191909047Y-141226128D01*
X191672499Y-140881394D01*
X191671984Y-140880604D01*
X191671510Y-140879790D01*
X191671076Y-140878954D01*
X191670682Y-140878099D01*
X191670327Y-140877225D01*
X191670012Y-140876335D01*
X191669737Y-140875431D01*
X191669501Y-140874514D01*
X191669303Y-140873585D01*
X191669145Y-140872648D01*
X191668943Y-140870753D01*
X191668895Y-140868843D01*
X191668998Y-140866932D01*
X191669251Y-140865035D01*
X191669652Y-140863165D01*
X191670201Y-140861338D01*
X191670894Y-140859568D01*
X191671295Y-140858709D01*
X191671732Y-140857869D01*
X191672204Y-140857050D01*
X191672711Y-140856255D01*
X191673254Y-140855485D01*
X191673832Y-140854741D01*
X191674444Y-140854026D01*
X191675091Y-140853341D01*
X191970536Y-140557921D01*
X191971216Y-140557270D01*
X191971927Y-140556653D01*
X191972667Y-140556072D01*
X191973435Y-140555527D01*
X191974227Y-140555017D01*
X191975043Y-140554543D01*
X191976738Y-140553703D01*
X191978506Y-140553009D01*
X191980331Y-140552461D01*
X191982199Y-140552060D01*
X191984096Y-140551809D01*
X191986007Y-140551709D01*
X191987918Y-140551760D01*
X191989814Y-140551965D01*
X191991681Y-140552323D01*
X191993504Y-140552838D01*
X191994394Y-140553154D01*
X191995268Y-140553509D01*
X191996124Y-140553904D01*
X191996960Y-140554339D01*
X191997774Y-140554814D01*
X191998564Y-140555328D01*
X192349349Y-140796050D01*
X192350963Y-140797064D01*
X192352701Y-140797967D01*
X192354547Y-140798759D01*
X192356484Y-140799436D01*
X192358496Y-140800000D01*
X192360567Y-140800447D01*
X192362679Y-140800779D01*
X192364817Y-140800992D01*
X192366963Y-140801086D01*
X192369103Y-140801060D01*
X192371218Y-140800913D01*
X192373293Y-140800644D01*
X192375311Y-140800251D01*
X192377255Y-140799734D01*
X192379110Y-140799091D01*
X192380859Y-140798322D01*
X192662301Y-140683122D01*
X192664097Y-140682443D01*
X192665875Y-140681600D01*
X192667624Y-140680605D01*
X192669335Y-140679469D01*
X192670997Y-140678206D01*
X192672599Y-140676827D01*
X192674132Y-140675345D01*
X192675584Y-140673772D01*
X192676946Y-140672120D01*
X192678206Y-140670401D01*
X192679356Y-140668627D01*
X192680384Y-140666811D01*
X192681279Y-140664965D01*
X192682032Y-140663100D01*
X192682633Y-140661230D01*
X192683069Y-140659366D01*
X192761178Y-140239486D01*
X192761372Y-140238564D01*
X192761612Y-140237652D01*
X192761895Y-140236754D01*
X192762221Y-140235870D01*
X192762588Y-140235001D01*
X192762994Y-140234148D01*
X192763438Y-140233313D01*
X192763919Y-140232496D01*
X192764436Y-140231699D01*
X192764986Y-140230923D01*
X192766183Y-140229439D01*
X192767499Y-140228052D01*
X192768923Y-140226772D01*
X192770443Y-140225608D01*
X192772048Y-140224569D01*
X192773726Y-140223665D01*
X192774590Y-140223266D01*
X192775468Y-140222904D01*
X192776359Y-140222581D01*
X192777261Y-140222297D01*
X192778173Y-140222053D01*
X192779094Y-140221852D01*
X192780022Y-140221693D01*
X192780956Y-140221578D01*
X192781894Y-140221508D01*
X192782835Y-140221484D01*
X193200665Y-140221484D01*
X193201608Y-140221508D01*
G37*
D11*
%TO.C,JP3*%
X206000000Y-135400000D02*
X206000000Y-132600000D01*
X206700000Y-131950000D02*
X207300000Y-131950000D01*
X207300000Y-136050000D02*
X206700000Y-136050000D01*
X208000000Y-132600000D02*
X208000000Y-135400000D01*
X208200000Y-135200000D02*
X208500000Y-134900000D01*
X208200000Y-135200000D02*
X208500000Y-135500000D01*
X208500000Y-135500000D02*
X208500000Y-134900000D01*
X206000000Y-132650000D02*
G75*
G02*
X206700000Y-131950000I700000J0D01*
G01*
X206700000Y-136050000D02*
G75*
G02*
X206000000Y-135350000I-1J699999D01*
G01*
X207300000Y-131950000D02*
G75*
G02*
X208000000Y-132650000I0J-700000D01*
G01*
X208000000Y-135350000D02*
G75*
G02*
X207300000Y-136050000I-699999J-1D01*
G01*
%TO.C,C19*%
X202140580Y-148490000D02*
X201859420Y-148490000D01*
X202140580Y-149510000D02*
X201859420Y-149510000D01*
%TO.C,R21*%
X207762742Y-147477500D02*
X208237258Y-147477500D01*
X207762742Y-148522500D02*
X208237258Y-148522500D01*
%TO.C,R22*%
X204477500Y-133237258D02*
X204477500Y-132762742D01*
X205522500Y-133237258D02*
X205522500Y-132762742D01*
%TO.C,U8*%
X196890000Y-139890000D02*
X196890000Y-140440000D01*
X196890000Y-146110000D02*
X196890000Y-145560000D01*
X197440000Y-139890000D02*
X196890000Y-139890000D01*
X197440000Y-146110000D02*
X196890000Y-146110000D01*
X202560000Y-139890000D02*
X203110000Y-139890000D01*
X202560000Y-146110000D02*
X202810000Y-146110000D01*
X203110000Y-139890000D02*
X203110000Y-140440000D01*
X203110000Y-145560000D02*
X203110000Y-145870000D01*
X203350000Y-146440000D02*
X202870000Y-146440000D01*
X203110000Y-146110000D01*
X203350000Y-146440000D01*
G36*
X203350000Y-146440000D02*
G01*
X202870000Y-146440000D01*
X203110000Y-146110000D01*
X203350000Y-146440000D01*
G37*
%TO.C,J2*%
X207845000Y-139820000D02*
X207845000Y-140870000D01*
X207845000Y-144990000D02*
X206855000Y-144990000D01*
X207845000Y-146040000D02*
X207845000Y-144990000D01*
X210345000Y-139820000D02*
X207845000Y-139820000D01*
X210345000Y-146040000D02*
X207845000Y-146040000D01*
X212315000Y-144870000D02*
X212315000Y-140990000D01*
D12*
G36*
X206093689Y-144029786D02*
G01*
X206103047Y-144030311D01*
X206112203Y-144031178D01*
X206121149Y-144032382D01*
X206129878Y-144033916D01*
X206138383Y-144035775D01*
X206146658Y-144037954D01*
X206154694Y-144040445D01*
X206162486Y-144043244D01*
X206170025Y-144046344D01*
X206177305Y-144049739D01*
X206184319Y-144053424D01*
X206191060Y-144057392D01*
X206197521Y-144061638D01*
X206203693Y-144066157D01*
X206209572Y-144070941D01*
X206215149Y-144075985D01*
X206220417Y-144081283D01*
X206225370Y-144086830D01*
X206230000Y-144092619D01*
X206234300Y-144098645D01*
X206238263Y-144104901D01*
X206241883Y-144111382D01*
X206245151Y-144118082D01*
X206248061Y-144124996D01*
X206250606Y-144132116D01*
X206252779Y-144139437D01*
X206254573Y-144146954D01*
X206255981Y-144154660D01*
X206256995Y-144162550D01*
X206257608Y-144170617D01*
X206257814Y-144178856D01*
X206257608Y-144187212D01*
X206256995Y-144195389D01*
X206255981Y-144203381D01*
X206254573Y-144211183D01*
X206252779Y-144218788D01*
X206250606Y-144226192D01*
X206248061Y-144233389D01*
X206245151Y-144240372D01*
X206241883Y-144247137D01*
X206238263Y-144253678D01*
X206234300Y-144259989D01*
X206230000Y-144266064D01*
X206225370Y-144271898D01*
X206220417Y-144277485D01*
X206215149Y-144282819D01*
X206209572Y-144287895D01*
X206203693Y-144292708D01*
X206197521Y-144297251D01*
X206191060Y-144301518D01*
X206184319Y-144305505D01*
X206177305Y-144309206D01*
X206170025Y-144312614D01*
X206162486Y-144315724D01*
X206154694Y-144318531D01*
X206146658Y-144321029D01*
X206138383Y-144323213D01*
X206129878Y-144325076D01*
X206121149Y-144326612D01*
X206112203Y-144327818D01*
X206103047Y-144328685D01*
X206093689Y-144329210D01*
X206084135Y-144329387D01*
X206074581Y-144329210D01*
X206065222Y-144328685D01*
X206056067Y-144327818D01*
X206047121Y-144326612D01*
X206038391Y-144325076D01*
X206029886Y-144323213D01*
X206021611Y-144321029D01*
X206013574Y-144318531D01*
X206005782Y-144315724D01*
X205998243Y-144312614D01*
X205990962Y-144309206D01*
X205983948Y-144305505D01*
X205977207Y-144301518D01*
X205970746Y-144297251D01*
X205964573Y-144292708D01*
X205958694Y-144287895D01*
X205953117Y-144282819D01*
X205947848Y-144277485D01*
X205942895Y-144271898D01*
X205938265Y-144266064D01*
X205933964Y-144259989D01*
X205930001Y-144253678D01*
X205926381Y-144247137D01*
X205923113Y-144240372D01*
X205920202Y-144233389D01*
X205917657Y-144226192D01*
X205915484Y-144218788D01*
X205913690Y-144211183D01*
X205912282Y-144203381D01*
X205911268Y-144195389D01*
X205910654Y-144187212D01*
X205910448Y-144178856D01*
X205910651Y-144170617D01*
X205911254Y-144162550D01*
X205912251Y-144154660D01*
X205913637Y-144146954D01*
X205915404Y-144139437D01*
X205917547Y-144132116D01*
X205920058Y-144124996D01*
X205922932Y-144118082D01*
X205926162Y-144111382D01*
X205929742Y-144104901D01*
X205933666Y-144098645D01*
X205937926Y-144092619D01*
X205942518Y-144086830D01*
X205947433Y-144081283D01*
X205952667Y-144075985D01*
X205958213Y-144070941D01*
X205964063Y-144066157D01*
X205970213Y-144061638D01*
X205976655Y-144057392D01*
X205983384Y-144053424D01*
X205990392Y-144049739D01*
X205997674Y-144046344D01*
X206005223Y-144043244D01*
X206013032Y-144040445D01*
X206021097Y-144037954D01*
X206029409Y-144035775D01*
X206037963Y-144033916D01*
X206046752Y-144032382D01*
X206055770Y-144031178D01*
X206065011Y-144030311D01*
X206074468Y-144029786D01*
X206084135Y-144029610D01*
X206093689Y-144029786D01*
G37*
G36*
X206105895Y-141096537D02*
G01*
X206136553Y-141098869D01*
X206166765Y-141102708D01*
X206196494Y-141108017D01*
X206225701Y-141114758D01*
X206254348Y-141122893D01*
X206282398Y-141132384D01*
X206309813Y-141143193D01*
X206336554Y-141155283D01*
X206362584Y-141168615D01*
X206387864Y-141183151D01*
X206412358Y-141198854D01*
X206436026Y-141215685D01*
X206458832Y-141233607D01*
X206480736Y-141252581D01*
X206501702Y-141272570D01*
X206521691Y-141293536D01*
X206540665Y-141315441D01*
X206558586Y-141338247D01*
X206575417Y-141361915D01*
X206591119Y-141386409D01*
X206605655Y-141411690D01*
X206618987Y-141437720D01*
X206631076Y-141464462D01*
X206641885Y-141491876D01*
X206651376Y-141519926D01*
X206659511Y-141548574D01*
X206666252Y-141577781D01*
X206671561Y-141607510D01*
X206675400Y-141637722D01*
X206677731Y-141668380D01*
X206678517Y-141699446D01*
X206678517Y-143800612D01*
X205732910Y-143800612D01*
X205732910Y-144029607D01*
X205824251Y-144029607D01*
X205812750Y-144039045D01*
X205801895Y-144049017D01*
X205791699Y-144059518D01*
X205782176Y-144070538D01*
X205773340Y-144082072D01*
X205765202Y-144094110D01*
X205757777Y-144106645D01*
X205751077Y-144119671D01*
X205745116Y-144133179D01*
X205739907Y-144147162D01*
X205735464Y-144161613D01*
X205731798Y-144176524D01*
X205728924Y-144191887D01*
X205726855Y-144207696D01*
X205725604Y-144223941D01*
X205725184Y-144240617D01*
X205725593Y-144258399D01*
X205726811Y-144275792D01*
X205728826Y-144292784D01*
X205731624Y-144309366D01*
X205735195Y-144325524D01*
X205739525Y-144341247D01*
X205744602Y-144356524D01*
X205750413Y-144371344D01*
X205756946Y-144385694D01*
X205764188Y-144399563D01*
X205772127Y-144412940D01*
X205780750Y-144425813D01*
X205790045Y-144438170D01*
X205800000Y-144450000D01*
X205810601Y-144461292D01*
X205821837Y-144472034D01*
X205833695Y-144482214D01*
X205846162Y-144491822D01*
X205859226Y-144500844D01*
X205872875Y-144509270D01*
X205887096Y-144517088D01*
X205901876Y-144524287D01*
X205917203Y-144530856D01*
X205933064Y-144536781D01*
X205949448Y-144542053D01*
X205966341Y-144546660D01*
X205983731Y-144550589D01*
X206001606Y-144553830D01*
X206019953Y-144556370D01*
X206038759Y-144558199D01*
X206058013Y-144559305D01*
X206077701Y-144559677D01*
X206097751Y-144559302D01*
X206117366Y-144558184D01*
X206136533Y-144556335D01*
X206155237Y-144553766D01*
X206173467Y-144550489D01*
X206191209Y-144546514D01*
X206208449Y-144541854D01*
X206225175Y-144536518D01*
X206241373Y-144530520D01*
X206257030Y-144523869D01*
X206272132Y-144516577D01*
X206286668Y-144508656D01*
X206300623Y-144500117D01*
X206313985Y-144490971D01*
X206326739Y-144481229D01*
X206338874Y-144470904D01*
X206350375Y-144460005D01*
X206361230Y-144448545D01*
X206371425Y-144436534D01*
X206380947Y-144423985D01*
X206389784Y-144410908D01*
X206397921Y-144397314D01*
X206405346Y-144383215D01*
X206412045Y-144368623D01*
X206418006Y-144353548D01*
X206423214Y-144338002D01*
X206427658Y-144321997D01*
X206431323Y-144305543D01*
X206434196Y-144288651D01*
X206436265Y-144271334D01*
X206437516Y-144253602D01*
X206437936Y-144235467D01*
X206437530Y-144219262D01*
X206436318Y-144203457D01*
X206434306Y-144188064D01*
X206431503Y-144173090D01*
X206427915Y-144158546D01*
X206423552Y-144144441D01*
X206418419Y-144130784D01*
X206412525Y-144117585D01*
X206405877Y-144104854D01*
X206398483Y-144092599D01*
X206390350Y-144080830D01*
X206381486Y-144069556D01*
X206371898Y-144058788D01*
X206361594Y-144048534D01*
X206350582Y-144038804D01*
X206338869Y-144029607D01*
X206678517Y-144029607D01*
X206678517Y-144216304D01*
X206677731Y-144247370D01*
X206675400Y-144278028D01*
X206671561Y-144308241D01*
X206666252Y-144337969D01*
X206659511Y-144367176D01*
X206651376Y-144395824D01*
X206641885Y-144423874D01*
X206631076Y-144451289D01*
X206618987Y-144478030D01*
X206605655Y-144504060D01*
X206591119Y-144529341D01*
X206575417Y-144553835D01*
X206558586Y-144577504D01*
X206540665Y-144600309D01*
X206521691Y-144622214D01*
X206501702Y-144643180D01*
X206480736Y-144663169D01*
X206458832Y-144682144D01*
X206436026Y-144700065D01*
X206412358Y-144716897D01*
X206387864Y-144732599D01*
X206362584Y-144747135D01*
X206336554Y-144760467D01*
X206309813Y-144772557D01*
X206282398Y-144783366D01*
X206254348Y-144792857D01*
X206225701Y-144800992D01*
X206196494Y-144807733D01*
X206166765Y-144813042D01*
X206136553Y-144816881D01*
X206105895Y-144819213D01*
X206074829Y-144819998D01*
X206074822Y-144819998D01*
X206043756Y-144819213D01*
X206013098Y-144816881D01*
X205982886Y-144813042D01*
X205953157Y-144807733D01*
X205923950Y-144800992D01*
X205895302Y-144792857D01*
X205867252Y-144783366D01*
X205839837Y-144772557D01*
X205813096Y-144760467D01*
X205787066Y-144747135D01*
X205761785Y-144732599D01*
X205737291Y-144716896D01*
X205713623Y-144700065D01*
X205690817Y-144682143D01*
X205668912Y-144663169D01*
X205647946Y-144643180D01*
X205627957Y-144622214D01*
X205608982Y-144600309D01*
X205591061Y-144577503D01*
X205574229Y-144553835D01*
X205558527Y-144529341D01*
X205543991Y-144504060D01*
X205530659Y-144478030D01*
X205518569Y-144451288D01*
X205507760Y-144423874D01*
X205498269Y-144395824D01*
X205490134Y-144367176D01*
X205483393Y-144337969D01*
X205478084Y-144308240D01*
X205474245Y-144278028D01*
X205471913Y-144247370D01*
X205471128Y-144216304D01*
X205471128Y-142761096D01*
X205732910Y-142761096D01*
X206203783Y-142900041D01*
X205732910Y-143037702D01*
X205732910Y-143256417D01*
X206203783Y-143392794D01*
X205732910Y-143531732D01*
X205732910Y-143764600D01*
X206428926Y-143511144D01*
X206428926Y-143284717D01*
X205999222Y-143150915D01*
X206428926Y-143018405D01*
X206428926Y-142791964D01*
X205732910Y-142537237D01*
X205732910Y-142761096D01*
X205471128Y-142761096D01*
X205471128Y-142283809D01*
X205732910Y-142283809D01*
X205732910Y-142511520D01*
X206428926Y-142511520D01*
X206428926Y-142283809D01*
X205732910Y-142283809D01*
X205471128Y-142283809D01*
X205471128Y-142009792D01*
X205732910Y-142009792D01*
X205732910Y-142237510D01*
X206428926Y-142237510D01*
X206428926Y-142009792D01*
X206084136Y-142009792D01*
X205732910Y-142009792D01*
X205471128Y-142009792D01*
X205471128Y-141699446D01*
X205471913Y-141668380D01*
X205474244Y-141637722D01*
X205477969Y-141608416D01*
X205725184Y-141608416D01*
X205725600Y-141628464D01*
X205726841Y-141648076D01*
X205728892Y-141667241D01*
X205731742Y-141685944D01*
X205735378Y-141704172D01*
X205739788Y-141721912D01*
X205744957Y-141739151D01*
X205750875Y-141755875D01*
X205757527Y-141772072D01*
X205764902Y-141787729D01*
X205772986Y-141802831D01*
X205781767Y-141817366D01*
X205791232Y-141831321D01*
X205801368Y-141844682D01*
X205812164Y-141857436D01*
X205823605Y-141869571D01*
X205835679Y-141881072D01*
X205848374Y-141891927D01*
X205861677Y-141902122D01*
X205875575Y-141911645D01*
X205890055Y-141920482D01*
X205905105Y-141928619D01*
X205920711Y-141936044D01*
X205936862Y-141942744D01*
X205953545Y-141948705D01*
X205970746Y-141953914D01*
X205988453Y-141958358D01*
X206006654Y-141962023D01*
X206025335Y-141964897D01*
X206044484Y-141966966D01*
X206064089Y-141968217D01*
X206084136Y-141968637D01*
X206103823Y-141968221D01*
X206123076Y-141966981D01*
X206141882Y-141964930D01*
X206160228Y-141962081D01*
X206178103Y-141958448D01*
X206195493Y-141954042D01*
X206212386Y-141948877D01*
X206228769Y-141942967D01*
X206244631Y-141936323D01*
X206259958Y-141928959D01*
X206274738Y-141920888D01*
X206288958Y-141912122D01*
X206302607Y-141902675D01*
X206315671Y-141892560D01*
X206328138Y-141881790D01*
X206339996Y-141870377D01*
X206351232Y-141858335D01*
X206361834Y-141845676D01*
X206371789Y-141832413D01*
X206381084Y-141818560D01*
X206389708Y-141804129D01*
X206397647Y-141789134D01*
X206404889Y-141773587D01*
X206411422Y-141757501D01*
X206417234Y-141740889D01*
X206422310Y-141723764D01*
X206426641Y-141706139D01*
X206430211Y-141688027D01*
X206433010Y-141669442D01*
X206435025Y-141650395D01*
X206436243Y-141630900D01*
X206436652Y-141610970D01*
X206436613Y-141604939D01*
X206436497Y-141598952D01*
X206436307Y-141593008D01*
X206436048Y-141587105D01*
X206435722Y-141581243D01*
X206435334Y-141575419D01*
X206434380Y-141563881D01*
X206247958Y-141563881D01*
X206248715Y-141568143D01*
X206249390Y-141572451D01*
X206249977Y-141576805D01*
X206250469Y-141581210D01*
X206250862Y-141585668D01*
X206251150Y-141590183D01*
X206251327Y-141594756D01*
X206251387Y-141599392D01*
X206251192Y-141607035D01*
X206250611Y-141614521D01*
X206249650Y-141621846D01*
X206248314Y-141629003D01*
X206246610Y-141635986D01*
X206244544Y-141642791D01*
X206242120Y-141649411D01*
X206239346Y-141655840D01*
X206236227Y-141662074D01*
X206232769Y-141668106D01*
X206228978Y-141673931D01*
X206224860Y-141679543D01*
X206220420Y-141684936D01*
X206215665Y-141690105D01*
X206210601Y-141695044D01*
X206205233Y-141699748D01*
X206199567Y-141704210D01*
X206193609Y-141708426D01*
X206187365Y-141712389D01*
X206180841Y-141716093D01*
X206174043Y-141719534D01*
X206166977Y-141722705D01*
X206159648Y-141725602D01*
X206152063Y-141728217D01*
X206144227Y-141730546D01*
X206136146Y-141732582D01*
X206127826Y-141734321D01*
X206119274Y-141735757D01*
X206101493Y-141737694D01*
X206082851Y-141738350D01*
X206073539Y-141738186D01*
X206064421Y-141737694D01*
X206055505Y-141736883D01*
X206046798Y-141735757D01*
X206038305Y-141734321D01*
X206030033Y-141732582D01*
X206021990Y-141730546D01*
X206014181Y-141728217D01*
X206006613Y-141725602D01*
X205999293Y-141722705D01*
X205992228Y-141719534D01*
X205985424Y-141716093D01*
X205978887Y-141712389D01*
X205972624Y-141708426D01*
X205966643Y-141704210D01*
X205960948Y-141699748D01*
X205955548Y-141695044D01*
X205950448Y-141690105D01*
X205945655Y-141684936D01*
X205941177Y-141679543D01*
X205937018Y-141673931D01*
X205933187Y-141668106D01*
X205929689Y-141662074D01*
X205926531Y-141655840D01*
X205923720Y-141649411D01*
X205921263Y-141642791D01*
X205919165Y-141635986D01*
X205917434Y-141629003D01*
X205916077Y-141621846D01*
X205915099Y-141614521D01*
X205914507Y-141607035D01*
X205914308Y-141599392D01*
X205914375Y-141594754D01*
X205914572Y-141590179D01*
X205914890Y-141585664D01*
X205915324Y-141581205D01*
X205915867Y-141576800D01*
X205916511Y-141572447D01*
X205917250Y-141568141D01*
X205918076Y-141563881D01*
X205727435Y-141563881D01*
X205726491Y-141574817D01*
X205726106Y-141580330D01*
X205725783Y-141585876D01*
X205725526Y-141591455D01*
X205725338Y-141597071D01*
X205725223Y-141602724D01*
X205725184Y-141608416D01*
X205477969Y-141608416D01*
X205478084Y-141607510D01*
X205483393Y-141577781D01*
X205490134Y-141548574D01*
X205498269Y-141519926D01*
X205507760Y-141491876D01*
X205518569Y-141464462D01*
X205530659Y-141437720D01*
X205543991Y-141411690D01*
X205558527Y-141386409D01*
X205574229Y-141361915D01*
X205591061Y-141338247D01*
X205608982Y-141315441D01*
X205627957Y-141293536D01*
X205647946Y-141272570D01*
X205668912Y-141252581D01*
X205690817Y-141233607D01*
X205713622Y-141215685D01*
X205737291Y-141198854D01*
X205761785Y-141183151D01*
X205787066Y-141168615D01*
X205813096Y-141155283D01*
X205839837Y-141143193D01*
X205867252Y-141132384D01*
X205895302Y-141122893D01*
X205923950Y-141114758D01*
X205953157Y-141108017D01*
X205982886Y-141102708D01*
X206013098Y-141098869D01*
X206043756Y-141096537D01*
X206074822Y-141095752D01*
X206074829Y-141095752D01*
X206105895Y-141096537D01*
G37*
D11*
%TO.C,R17*%
X207762742Y-137477500D02*
X208237258Y-137477500D01*
X207762742Y-138522500D02*
X208237258Y-138522500D01*
%TO.C,C18*%
X199490000Y-136859420D02*
X199490000Y-137140580D01*
X200510000Y-136859420D02*
X200510000Y-137140580D01*
%TO.C,R24*%
X211477500Y-133237258D02*
X211477500Y-132762742D01*
X212522500Y-133237258D02*
X212522500Y-132762742D01*
%TD*%
M02*
