%TF.GenerationSoftware,KiCad,Pcbnew,9.0.0-9.0.0-2~ubuntu24.04.1*%
%TF.CreationDate,2025-04-09T05:43:52-04:00*%
%TF.ProjectId,Touch,546f7563-682e-46b6-9963-61645f706362,rev?*%
%TF.SameCoordinates,Original*%
%TF.FileFunction,Copper,L2,Bot*%
%TF.FilePolarity,Positive*%
%FSLAX46Y46*%
G04 Gerber Fmt 4.6, Leading zero omitted, Abs format (unit mm)*
G04 Created by KiCad (PCBNEW 9.0.0-9.0.0-2~ubuntu24.04.1) date 2025-04-09 05:43:52*
%MOMM*%
%LPD*%
G01*
G04 APERTURE LIST*
%TA.AperFunction,SMDPad,CuDef*%
%ADD10C,1.524000*%
%TD*%
%TA.AperFunction,ViaPad*%
%ADD11C,0.600000*%
%TD*%
%TA.AperFunction,Conductor*%
%ADD12C,0.200000*%
%TD*%
G04 APERTURE END LIST*
D10*
%TO.P,CS1,1*%
%TO.N,/Capacitive_Touch_Sensor/SENSE1*%
X96800000Y-138940000D03*
%TO.P,CS1,2*%
%TO.N,/Capacitive_Touch_Sensor/SENSE2*%
X100721600Y-138940000D03*
%TO.P,CS1,3*%
%TO.N,/Capacitive_Touch_Sensor/SENSE3*%
X104643200Y-138940000D03*
%TO.P,CS1,4*%
%TO.N,/Capacitive_Touch_Sensor/SENSE4*%
X108564800Y-138940000D03*
%TO.P,CS1,5*%
%TO.N,/Capacitive_Touch_Sensor/SENSE5*%
X112486400Y-138940000D03*
%TO.P,CS1,6*%
%TO.N,/Capacitive_Touch_Sensor/SENSE6*%
X116408000Y-138940000D03*
%TO.P,CS1,7*%
%TO.N,/Capacitive_Touch_Sensor/SENSE7*%
X120329600Y-138940000D03*
%TO.P,CS1,8*%
%TO.N,/Capacitive_Touch_Sensor/SENSE8*%
X124251200Y-138940000D03*
%TO.P,CS1,9*%
%TO.N,/Capacitive_Touch_Sensor/SENSE9*%
X128172800Y-138940000D03*
%TO.P,CS1,10*%
%TO.N,/Capacitive_Touch_Sensor/SENSE10*%
X132094400Y-138940000D03*
%TO.P,CS1,11*%
%TO.N,/Capacitive_Touch_Sensor/SENSE11*%
X136016000Y-138940000D03*
%TO.P,CS1,12*%
%TO.N,/Capacitive_Touch_Sensor/SENSE12*%
X139937600Y-138940000D03*
%TO.P,CS1,13*%
%TO.N,/Capacitive_Touch_Sensor/SENSE13*%
X143859200Y-138940000D03*
%TO.P,CS1,14*%
%TO.N,/Capacitive_Touch_Sensor/SENSE14*%
X147780800Y-138940000D03*
%TO.P,CS1,15*%
%TO.N,/Capacitive_Touch_Sensor/SENSE15*%
X151702400Y-138940000D03*
%TO.P,CS1,16*%
%TO.N,/Capacitive_Touch_Sensor/SENSE16*%
X155624000Y-138940000D03*
%TO.P,CS1,17*%
%TO.N,/Capacitive_Touch_Sensor/SENSE17*%
X159545600Y-138940000D03*
%TO.P,CS1,18*%
%TO.N,/Capacitive_Touch_Sensor/SENSE18*%
X163467200Y-138940000D03*
%TO.P,CS1,19*%
%TO.N,/Capacitive_Touch_Sensor/SENSE19*%
X167388800Y-138940000D03*
%TO.P,CS1,20*%
%TO.N,/Capacitive_Touch_Sensor/SENSE20*%
X171310400Y-138940000D03*
%TO.P,CS1,21*%
%TO.N,/Capacitive_Touch_Sensor/SENSE21*%
X175232000Y-138940000D03*
%TO.P,CS1,22*%
%TO.N,/Capacitive_Touch_Sensor/SENSE22*%
X179153600Y-138940000D03*
%TO.P,CS1,23*%
%TO.N,/Capacitive_Touch_Sensor/SENSE23*%
X183075200Y-138940000D03*
%TO.P,CS1,24*%
%TO.N,/Capacitive_Touch_Sensor/SENSE24*%
X186996800Y-138940000D03*
%TO.P,CS1,25*%
%TO.N,/Capacitive_Touch_Sensor/SENSE25*%
X190918400Y-138940000D03*
%TO.P,CS1,26*%
%TO.N,/Capacitive_Touch_Sensor/SENSE26*%
X194840000Y-138940000D03*
%TD*%
D11*
%TO.N,Net-(U8-(PR{slash}SCL)P1[1])*%
X200600000Y-139000000D03*
X207100000Y-137000000D03*
%TO.N,Net-(U8-(PR{slash}SDA)P1[0])*%
X198600000Y-138000000D03*
X207100000Y-147000000D03*
%TO.N,/Capacitive_Touch_Sensor/ADDR0*%
X197700000Y-138000000D03*
X205900000Y-134000000D03*
%TO.N,/Capacitive_Touch_Sensor/ADDR1*%
X196800000Y-138000000D03*
X208500000Y-134000000D03*
%TO.N,/Capacitive_Touch_Sensor/SENSE17*%
X160500000Y-148500000D03*
%TO.N,/Capacitive_Touch_Sensor/SENSE18*%
X162500000Y-135000000D03*
%TO.N,/Capacitive_Touch_Sensor/SENSE1*%
X97500000Y-148500000D03*
%TO.N,/Capacitive_Touch_Sensor/SENSE22*%
X178500000Y-135000000D03*
%TO.N,/Capacitive_Touch_Sensor/SENSE26*%
X195000000Y-135100000D03*
%TO.N,/Capacitive_Touch_Sensor/SENSE10*%
X133000000Y-148500000D03*
%TO.N,/Capacitive_Touch_Sensor/SENSE8*%
X125500000Y-148500000D03*
%TO.N,/Capacitive_Touch_Sensor/SENSE14*%
X148500000Y-148500000D03*
%TO.N,/Capacitive_Touch_Sensor/SENSE21*%
X174500000Y-135000000D03*
%TO.N,/Capacitive_Touch_Sensor/SENSE23*%
X182500000Y-135000000D03*
%TO.N,/Capacitive_Touch_Sensor/SENSE3*%
X105500000Y-148500000D03*
%TO.N,/Capacitive_Touch_Sensor/SENSE20*%
X170500000Y-135000000D03*
%TO.N,/Capacitive_Touch_Sensor/SENSE24*%
X186500000Y-135000000D03*
%TO.N,/Capacitive_Touch_Sensor/SENSE15*%
X152500000Y-148500000D03*
%TO.N,/Capacitive_Touch_Sensor/SENSE12*%
X140500000Y-148500000D03*
%TO.N,/Capacitive_Touch_Sensor/SENSE13*%
X144500000Y-148500000D03*
%TO.N,/Capacitive_Touch_Sensor/SENSE16*%
X156500000Y-148500000D03*
%TO.N,/Capacitive_Touch_Sensor/SENSE7*%
X121500000Y-148500000D03*
%TO.N,/Capacitive_Touch_Sensor/SENSE4*%
X109500000Y-148500000D03*
%TO.N,/Capacitive_Touch_Sensor/SENSE9*%
X129000000Y-148500000D03*
%TO.N,/Capacitive_Touch_Sensor/SENSE5*%
X113500000Y-148500000D03*
%TO.N,/Capacitive_Touch_Sensor/SENSE19*%
X166500000Y-135000000D03*
%TO.N,/Capacitive_Touch_Sensor/SENSE11*%
X137000000Y-148500000D03*
%TO.N,/Capacitive_Touch_Sensor/SENSE6*%
X117500000Y-148500000D03*
%TO.N,/Capacitive_Touch_Sensor/SENSE2*%
X101500000Y-148500000D03*
%TO.N,/Capacitive_Touch_Sensor/SENSE25*%
X190500000Y-135000000D03*
%TO.N,VCC*%
X200975735Y-137775735D03*
X208500000Y-136200000D03*
X206500000Y-143400000D03*
X199700000Y-147000000D03*
%TO.N,GND1*%
X208500000Y-132500000D03*
X203000000Y-153000000D03*
X198500000Y-141500000D03*
X207000000Y-149000000D03*
X209000000Y-151000000D03*
X201500000Y-143000000D03*
X206000000Y-144500000D03*
X201500000Y-141500000D03*
X199661765Y-138961765D03*
X208000000Y-145500000D03*
X201000000Y-151000000D03*
X198500000Y-143000000D03*
X207000000Y-153000000D03*
X201500000Y-144500000D03*
X199000000Y-137000000D03*
X206000000Y-145500000D03*
X200000000Y-144500000D03*
X206000000Y-132000000D03*
X211000000Y-153000000D03*
X200000000Y-141500000D03*
X205000000Y-151000000D03*
X200000000Y-143000000D03*
X211000000Y-132000000D03*
X198500000Y-144500000D03*
X211000000Y-149000000D03*
X205000000Y-144500000D03*
X199000000Y-153000000D03*
X205000000Y-145500000D03*
X203500000Y-132500000D03*
%TD*%
D12*
%TO.N,Net-(U8-(PR{slash}SCL)P1[1])*%
X202600000Y-137000000D02*
X200600000Y-139000000D01*
X207100000Y-137000000D02*
X202600000Y-137000000D01*
%TO.N,Net-(U8-(PR{slash}SDA)P1[0])*%
X206499000Y-147601000D02*
X199033900Y-147601000D01*
X196600000Y-145167100D02*
X196600000Y-140000000D01*
X196600000Y-140000000D02*
X198600000Y-138000000D01*
X199033900Y-147601000D02*
X196600000Y-145167100D01*
X207100000Y-147000000D02*
X206499000Y-147601000D01*
%TO.N,/Capacitive_Touch_Sensor/ADDR0*%
X201150057Y-134000000D02*
X205900000Y-134000000D01*
X197700000Y-137450057D02*
X201150057Y-134000000D01*
X197700000Y-138000000D02*
X197700000Y-137450057D01*
%TO.N,/Capacitive_Touch_Sensor/ADDR1*%
X200900764Y-133400764D02*
X200902528Y-133399000D01*
X200902528Y-133399000D02*
X207899000Y-133399000D01*
X200900764Y-133400764D02*
X200902529Y-133399000D01*
X196800000Y-137501529D02*
X200900764Y-133400764D01*
X196800000Y-138000000D02*
X196800000Y-137501529D01*
X207899000Y-133399000D02*
X208500000Y-134000000D01*
%TO.N,/Capacitive_Touch_Sensor/SENSE17*%
X159545600Y-147545600D02*
X160500000Y-148500000D01*
X159545600Y-138940000D02*
X159545600Y-147545600D01*
%TO.N,/Capacitive_Touch_Sensor/SENSE18*%
X163467200Y-135967200D02*
X162500000Y-135000000D01*
X163467200Y-138940000D02*
X163467200Y-135967200D01*
%TO.N,/Capacitive_Touch_Sensor/SENSE1*%
X96800000Y-147800000D02*
X97500000Y-148500000D01*
X96800000Y-138940000D02*
X96800000Y-147800000D01*
%TO.N,/Capacitive_Touch_Sensor/SENSE22*%
X179153600Y-135653600D02*
X178500000Y-135000000D01*
X179153600Y-138940000D02*
X179153600Y-135653600D01*
%TO.N,/Capacitive_Touch_Sensor/SENSE10*%
X132094400Y-138940000D02*
X132094400Y-147594400D01*
X132094400Y-147594400D02*
X133000000Y-148500000D01*
%TO.N,/Capacitive_Touch_Sensor/SENSE8*%
X124251200Y-138940000D02*
X124251200Y-147251200D01*
X124251200Y-147251200D02*
X125500000Y-148500000D01*
%TO.N,/Capacitive_Touch_Sensor/SENSE14*%
X147780800Y-147780800D02*
X148500000Y-148500000D01*
X147780800Y-138940000D02*
X147780800Y-147780800D01*
%TO.N,/Capacitive_Touch_Sensor/SENSE21*%
X175232000Y-138940000D02*
X175232000Y-135732000D01*
X175232000Y-135732000D02*
X174500000Y-135000000D01*
%TO.N,/Capacitive_Touch_Sensor/SENSE23*%
X183075200Y-138940000D02*
X183075200Y-135575200D01*
X183075200Y-135575200D02*
X182500000Y-135000000D01*
%TO.N,/Capacitive_Touch_Sensor/SENSE3*%
X104643200Y-147643200D02*
X105500000Y-148500000D01*
X104643200Y-138940000D02*
X104643200Y-147643200D01*
%TO.N,/Capacitive_Touch_Sensor/SENSE20*%
X171310400Y-135810400D02*
X170500000Y-135000000D01*
X171310400Y-138940000D02*
X171310400Y-135810400D01*
%TO.N,/Capacitive_Touch_Sensor/SENSE24*%
X186996800Y-138940000D02*
X186996800Y-135496800D01*
X186996800Y-135496800D02*
X186500000Y-135000000D01*
%TO.N,/Capacitive_Touch_Sensor/SENSE15*%
X151702400Y-147702400D02*
X152500000Y-148500000D01*
X151702400Y-138940000D02*
X151702400Y-147702400D01*
%TO.N,/Capacitive_Touch_Sensor/SENSE12*%
X139937600Y-147937600D02*
X140500000Y-148500000D01*
X139937600Y-138940000D02*
X139937600Y-147937600D01*
%TO.N,/Capacitive_Touch_Sensor/SENSE13*%
X143859200Y-138940000D02*
X143859200Y-147859200D01*
X143859200Y-147859200D02*
X144500000Y-148500000D01*
%TO.N,/Capacitive_Touch_Sensor/SENSE16*%
X155624000Y-138940000D02*
X155624000Y-147624000D01*
X155624000Y-147624000D02*
X156500000Y-148500000D01*
%TO.N,/Capacitive_Touch_Sensor/SENSE7*%
X120329600Y-138940000D02*
X120329600Y-147329600D01*
X120329600Y-147329600D02*
X121500000Y-148500000D01*
%TO.N,/Capacitive_Touch_Sensor/SENSE4*%
X108564800Y-138940000D02*
X108564800Y-147564800D01*
X108564800Y-147564800D02*
X109500000Y-148500000D01*
%TO.N,/Capacitive_Touch_Sensor/SENSE9*%
X128172800Y-138940000D02*
X128172800Y-147672800D01*
X128172800Y-147672800D02*
X129000000Y-148500000D01*
%TO.N,/Capacitive_Touch_Sensor/SENSE5*%
X112486400Y-138940000D02*
X112486400Y-147486400D01*
X112486400Y-147486400D02*
X113500000Y-148500000D01*
%TO.N,/Capacitive_Touch_Sensor/SENSE19*%
X167388800Y-135888800D02*
X166500000Y-135000000D01*
X167388800Y-138940000D02*
X167388800Y-135888800D01*
%TO.N,/Capacitive_Touch_Sensor/SENSE11*%
X136016000Y-147516000D02*
X137000000Y-148500000D01*
X136016000Y-138940000D02*
X136016000Y-147516000D01*
%TO.N,/Capacitive_Touch_Sensor/SENSE6*%
X116408000Y-147408000D02*
X117500000Y-148500000D01*
X116408000Y-138940000D02*
X116408000Y-147408000D01*
%TO.N,/Capacitive_Touch_Sensor/SENSE2*%
X100721600Y-138940000D02*
X100721600Y-147721600D01*
X100721600Y-147721600D02*
X101500000Y-148500000D01*
%TO.N,VCC*%
X197000000Y-145000000D02*
X199000000Y-147000000D01*
X206700000Y-146400000D02*
X206100000Y-147000000D01*
X200975735Y-137775735D02*
X199999265Y-137775735D01*
X206500000Y-143400000D02*
X206700000Y-143600000D01*
X206100000Y-147000000D02*
X199700000Y-147000000D01*
X206700000Y-143600000D02*
X206700000Y-146400000D01*
X197000000Y-140775000D02*
X197000000Y-145000000D01*
X199000000Y-147000000D02*
X199700000Y-147000000D01*
X200975735Y-137775735D02*
X202551470Y-136200000D01*
X202551470Y-136200000D02*
X208500000Y-136200000D01*
X199999265Y-137775735D02*
X197000000Y-140775000D01*
%TD*%
%TA.AperFunction,Conductor*%
%TO.N,GND1*%
G36*
X212442539Y-131520185D02*
G01*
X212488294Y-131572989D01*
X212499500Y-131624500D01*
X212499500Y-154375500D01*
X212479815Y-154442539D01*
X212427011Y-154488294D01*
X212375500Y-154499500D01*
X197124000Y-154499500D01*
X197056961Y-154479815D01*
X197011206Y-154427011D01*
X197000000Y-154375500D01*
X197000000Y-146362143D01*
X197019685Y-146295104D01*
X197072489Y-146249349D01*
X197141647Y-146239405D01*
X197205203Y-146268430D01*
X197211671Y-146274453D01*
X198753431Y-147816212D01*
X198818688Y-147881469D01*
X198818691Y-147881470D01*
X198818694Y-147881473D01*
X198898606Y-147927611D01*
X198898607Y-147927611D01*
X198898612Y-147927614D01*
X198987756Y-147951500D01*
X198987758Y-147951500D01*
X206545142Y-147951500D01*
X206545144Y-147951500D01*
X206634288Y-147927614D01*
X206714212Y-147881470D01*
X207008863Y-147586819D01*
X207070186Y-147553334D01*
X207096544Y-147550500D01*
X207172472Y-147550500D01*
X207172475Y-147550500D01*
X207312485Y-147512984D01*
X207438015Y-147440509D01*
X207540509Y-147338015D01*
X207612984Y-147212485D01*
X207650500Y-147072475D01*
X207650500Y-146927525D01*
X207612984Y-146787515D01*
X207540509Y-146661985D01*
X207438015Y-146559491D01*
X207438013Y-146559490D01*
X207438011Y-146559488D01*
X207312488Y-146487017D01*
X207312489Y-146487017D01*
X207172471Y-146449499D01*
X207164415Y-146448439D01*
X207164655Y-146446609D01*
X207107461Y-146429815D01*
X207061706Y-146377011D01*
X207050500Y-146325500D01*
X207050500Y-143553855D01*
X207048197Y-143545261D01*
X207048198Y-143481066D01*
X207050500Y-143472476D01*
X207050500Y-143327527D01*
X207050500Y-143327525D01*
X207012984Y-143187515D01*
X206940509Y-143061985D01*
X206838015Y-142959491D01*
X206838013Y-142959490D01*
X206838011Y-142959488D01*
X206712488Y-142887017D01*
X206712489Y-142887017D01*
X206701006Y-142883940D01*
X206572475Y-142849500D01*
X206427525Y-142849500D01*
X206298993Y-142883940D01*
X206287511Y-142887017D01*
X206161988Y-142959488D01*
X206161982Y-142959493D01*
X206059493Y-143061982D01*
X206059488Y-143061988D01*
X205987017Y-143187511D01*
X205987016Y-143187515D01*
X205949500Y-143327525D01*
X205949500Y-143472475D01*
X205987016Y-143612485D01*
X205987017Y-143612488D01*
X206059488Y-143738011D01*
X206059490Y-143738013D01*
X206059491Y-143738015D01*
X206161985Y-143840509D01*
X206287500Y-143912975D01*
X206335716Y-143963542D01*
X206349500Y-144020362D01*
X206349500Y-146203456D01*
X206329815Y-146270495D01*
X206313181Y-146291137D01*
X205991137Y-146613181D01*
X205929814Y-146646666D01*
X205903456Y-146649500D01*
X200179386Y-146649500D01*
X200112347Y-146629815D01*
X200091705Y-146613181D01*
X200038017Y-146559493D01*
X200038011Y-146559488D01*
X199912488Y-146487017D01*
X199912489Y-146487017D01*
X199901006Y-146483940D01*
X199772475Y-146449500D01*
X199627525Y-146449500D01*
X199498993Y-146483940D01*
X199487511Y-146487017D01*
X199361988Y-146559488D01*
X199361982Y-146559493D01*
X199308295Y-146613181D01*
X199281367Y-146627884D01*
X199255549Y-146644477D01*
X199249348Y-146645368D01*
X199246972Y-146646666D01*
X199220614Y-146649500D01*
X199196544Y-146649500D01*
X199129505Y-146629815D01*
X199108863Y-146613181D01*
X197386819Y-144891137D01*
X197353334Y-144829814D01*
X197350500Y-144803456D01*
X197350500Y-140971543D01*
X197370185Y-140904504D01*
X197386819Y-140883862D01*
X200108127Y-138162554D01*
X200169450Y-138129069D01*
X200195808Y-138126235D01*
X200496349Y-138126235D01*
X200523131Y-138134099D01*
X200550655Y-138138759D01*
X200558816Y-138144577D01*
X200563388Y-138145920D01*
X200579862Y-138158575D01*
X200581988Y-138160512D01*
X200637720Y-138216244D01*
X200652563Y-138224813D01*
X200662470Y-138233840D01*
X200673939Y-138252704D01*
X200689173Y-138268681D01*
X200691734Y-138281972D01*
X200698768Y-138293541D01*
X200698217Y-138315613D01*
X200702395Y-138337288D01*
X200697364Y-138349853D01*
X200697027Y-138363389D01*
X200684631Y-138381658D01*
X200676427Y-138402153D01*
X200665398Y-138410006D01*
X200657799Y-138421207D01*
X200637498Y-138429873D01*
X200619512Y-138442681D01*
X200599688Y-138446014D01*
X200593540Y-138448639D01*
X200588825Y-138447840D01*
X200578957Y-138449500D01*
X200527525Y-138449500D01*
X200423906Y-138477265D01*
X200387511Y-138487017D01*
X200261988Y-138559488D01*
X200261982Y-138559493D01*
X200159493Y-138661982D01*
X200159488Y-138661988D01*
X200087017Y-138787511D01*
X200087016Y-138787515D01*
X200049500Y-138927525D01*
X200049500Y-139072475D01*
X200087016Y-139212485D01*
X200087017Y-139212488D01*
X200159488Y-139338011D01*
X200159490Y-139338013D01*
X200159491Y-139338015D01*
X200261985Y-139440509D01*
X200261986Y-139440510D01*
X200261988Y-139440511D01*
X200387511Y-139512982D01*
X200387512Y-139512982D01*
X200387515Y-139512984D01*
X200527525Y-139550500D01*
X200527528Y-139550500D01*
X200672472Y-139550500D01*
X200672475Y-139550500D01*
X200812485Y-139512984D01*
X200938015Y-139440509D01*
X201040509Y-139338015D01*
X201112984Y-139212485D01*
X201150500Y-139072475D01*
X201150500Y-138996544D01*
X201170185Y-138929505D01*
X201186819Y-138908863D01*
X202708863Y-137386819D01*
X202770186Y-137353334D01*
X202796544Y-137350500D01*
X206620614Y-137350500D01*
X206687653Y-137370185D01*
X206708295Y-137386819D01*
X206761985Y-137440509D01*
X206761986Y-137440510D01*
X206761988Y-137440511D01*
X206887511Y-137512982D01*
X206887512Y-137512982D01*
X206887515Y-137512984D01*
X207027525Y-137550500D01*
X207027528Y-137550500D01*
X207172472Y-137550500D01*
X207172475Y-137550500D01*
X207312485Y-137512984D01*
X207438015Y-137440509D01*
X207540509Y-137338015D01*
X207612984Y-137212485D01*
X207650500Y-137072475D01*
X207650500Y-136927525D01*
X207612984Y-136787515D01*
X207612982Y-136787511D01*
X207583531Y-136736500D01*
X207567058Y-136668600D01*
X207589911Y-136602573D01*
X207644832Y-136559382D01*
X207690918Y-136550500D01*
X208020614Y-136550500D01*
X208087653Y-136570185D01*
X208108295Y-136586819D01*
X208161985Y-136640509D01*
X208161986Y-136640510D01*
X208161988Y-136640511D01*
X208287511Y-136712982D01*
X208287512Y-136712982D01*
X208287515Y-136712984D01*
X208427525Y-136750500D01*
X208427528Y-136750500D01*
X208572472Y-136750500D01*
X208572475Y-136750500D01*
X208712485Y-136712984D01*
X208838015Y-136640509D01*
X208940509Y-136538015D01*
X209012984Y-136412485D01*
X209050500Y-136272475D01*
X209050500Y-136127525D01*
X209012984Y-135987515D01*
X208973733Y-135919531D01*
X208940511Y-135861988D01*
X208940506Y-135861982D01*
X208838017Y-135759493D01*
X208838011Y-135759488D01*
X208712488Y-135687017D01*
X208712489Y-135687017D01*
X208701006Y-135683940D01*
X208572475Y-135649500D01*
X208427525Y-135649500D01*
X208298993Y-135683940D01*
X208287511Y-135687017D01*
X208161988Y-135759488D01*
X208161982Y-135759493D01*
X208108295Y-135813181D01*
X208046972Y-135846666D01*
X208020614Y-135849500D01*
X202505326Y-135849500D01*
X202416182Y-135873386D01*
X202416179Y-135873387D01*
X202336261Y-135919527D01*
X202336256Y-135919531D01*
X201066872Y-137188916D01*
X201005549Y-137222401D01*
X200979191Y-137225235D01*
X200903260Y-137225235D01*
X200774728Y-137259675D01*
X200763246Y-137262752D01*
X200637723Y-137335223D01*
X200637717Y-137335228D01*
X200584030Y-137388916D01*
X200522707Y-137422401D01*
X200496349Y-137425235D01*
X199953121Y-137425235D01*
X199863977Y-137449121D01*
X199863976Y-137449121D01*
X199863974Y-137449122D01*
X199863971Y-137449123D01*
X199784059Y-137495261D01*
X199784050Y-137495268D01*
X199344906Y-137934412D01*
X199283583Y-137967897D01*
X199213891Y-137962913D01*
X199157958Y-137921041D01*
X199137451Y-137878828D01*
X199112984Y-137787515D01*
X199040509Y-137661985D01*
X198938015Y-137559491D01*
X198938013Y-137559490D01*
X198938011Y-137559488D01*
X198812488Y-137487017D01*
X198812489Y-137487017D01*
X198801006Y-137483940D01*
X198672475Y-137449500D01*
X198527525Y-137449500D01*
X198527520Y-137449500D01*
X198521977Y-137450986D01*
X198452127Y-137449320D01*
X198394267Y-137410155D01*
X198366765Y-137345926D01*
X198378355Y-137277024D01*
X198402205Y-137243532D01*
X201258919Y-134386819D01*
X201320242Y-134353334D01*
X201346600Y-134350500D01*
X205420614Y-134350500D01*
X205487653Y-134370185D01*
X205508295Y-134386819D01*
X205561985Y-134440509D01*
X205561986Y-134440510D01*
X205561988Y-134440511D01*
X205687511Y-134512982D01*
X205687512Y-134512982D01*
X205687515Y-134512984D01*
X205827525Y-134550500D01*
X205827528Y-134550500D01*
X205972472Y-134550500D01*
X205972475Y-134550500D01*
X206112485Y-134512984D01*
X206238015Y-134440509D01*
X206340509Y-134338015D01*
X206412984Y-134212485D01*
X206450500Y-134072475D01*
X206450500Y-133927525D01*
X206444623Y-133905592D01*
X206446286Y-133835743D01*
X206485449Y-133777881D01*
X206549677Y-133750377D01*
X206564398Y-133749500D01*
X207702456Y-133749500D01*
X207731899Y-133758145D01*
X207761882Y-133764668D01*
X207766897Y-133768422D01*
X207769495Y-133769185D01*
X207790132Y-133785814D01*
X207913182Y-133908863D01*
X207946666Y-133970184D01*
X207949500Y-133996543D01*
X207949500Y-134072475D01*
X207987016Y-134212485D01*
X207987017Y-134212488D01*
X208059488Y-134338011D01*
X208059490Y-134338013D01*
X208059491Y-134338015D01*
X208161985Y-134440509D01*
X208161986Y-134440510D01*
X208161988Y-134440511D01*
X208287511Y-134512982D01*
X208287512Y-134512982D01*
X208287515Y-134512984D01*
X208427525Y-134550500D01*
X208427528Y-134550500D01*
X208572472Y-134550500D01*
X208572475Y-134550500D01*
X208712485Y-134512984D01*
X208838015Y-134440509D01*
X208940509Y-134338015D01*
X209012984Y-134212485D01*
X209050500Y-134072475D01*
X209050500Y-133927525D01*
X209012984Y-133787515D01*
X209012004Y-133785818D01*
X208940511Y-133661988D01*
X208940506Y-133661982D01*
X208838017Y-133559493D01*
X208838011Y-133559488D01*
X208712488Y-133487017D01*
X208712489Y-133487017D01*
X208701006Y-133483940D01*
X208572475Y-133449500D01*
X208572472Y-133449500D01*
X208496544Y-133449500D01*
X208429505Y-133429815D01*
X208408863Y-133413181D01*
X208114213Y-133118531D01*
X208114208Y-133118527D01*
X208034289Y-133072386D01*
X208034191Y-133072360D01*
X208034150Y-133072335D01*
X208034147Y-133072348D01*
X207989645Y-133060424D01*
X207945144Y-133048500D01*
X207945143Y-133048500D01*
X200899078Y-133048500D01*
X200856484Y-133048488D01*
X200856439Y-133048500D01*
X200856384Y-133048500D01*
X200856381Y-133048500D01*
X200809400Y-133061087D01*
X200809401Y-133061088D01*
X200809168Y-133061150D01*
X200809167Y-133061151D01*
X200767333Y-133072348D01*
X200767290Y-133072372D01*
X200767240Y-133072386D01*
X200766998Y-133072525D01*
X200766996Y-133072526D01*
X200731576Y-133092975D01*
X200724816Y-133096879D01*
X200687396Y-133118470D01*
X200687363Y-133118502D01*
X200687316Y-133118530D01*
X200687077Y-133118768D01*
X200687073Y-133118771D01*
X200685553Y-133120292D01*
X200685552Y-133120294D01*
X200653029Y-133152816D01*
X200653007Y-133152837D01*
X200615080Y-133190743D01*
X200614920Y-133190924D01*
X197211681Y-136594164D01*
X197150358Y-136627649D01*
X197080666Y-136622665D01*
X197024733Y-136580793D01*
X197000316Y-136515329D01*
X197000000Y-136506483D01*
X197000000Y-131624500D01*
X197019685Y-131557461D01*
X197072489Y-131511706D01*
X197124000Y-131500500D01*
X212375500Y-131500500D01*
X212442539Y-131520185D01*
G37*
%TD.AperFunction*%
%TD*%
%TA.AperFunction,Conductor*%
%TO.N,/Capacitive_Touch_Sensor/SENSE22*%
G36*
X182393727Y-132382826D02*
G01*
X182406453Y-132413550D01*
X182393727Y-132444274D01*
X182391615Y-132446249D01*
X179579347Y-134906981D01*
X179579347Y-134906983D01*
X182337644Y-137571247D01*
X182350901Y-137601746D01*
X182338710Y-137632685D01*
X182337644Y-137633751D01*
X179576000Y-140301249D01*
X179576000Y-140301250D01*
X182337644Y-142968748D01*
X182350901Y-142999247D01*
X182338710Y-143030186D01*
X182337644Y-143031252D01*
X179576000Y-145698749D01*
X179576000Y-145698750D01*
X182337644Y-148366248D01*
X182350901Y-148396747D01*
X182338710Y-148427686D01*
X182337644Y-148428752D01*
X179579347Y-151093016D01*
X179579347Y-151093018D01*
X182391615Y-153553751D01*
X182406357Y-153583560D01*
X182395702Y-153615062D01*
X182365893Y-153629804D01*
X182363003Y-153629900D01*
X179049961Y-153629900D01*
X179021349Y-153619149D01*
X178980676Y-153583560D01*
X176177294Y-151130601D01*
X176162553Y-151100793D01*
X176173208Y-151069291D01*
X176175712Y-151066660D01*
X178939078Y-148397500D01*
X176177432Y-145730001D01*
X176164176Y-145699503D01*
X176176367Y-145668564D01*
X176177433Y-145667498D01*
X178939078Y-143000000D01*
X178939078Y-142999999D01*
X176177433Y-140332501D01*
X176164176Y-140302002D01*
X176176367Y-140271063D01*
X176177403Y-140270026D01*
X178939078Y-137602500D01*
X176175721Y-134933348D01*
X176162464Y-134902849D01*
X176174655Y-134871910D01*
X176177275Y-134869415D01*
X179021349Y-132380850D01*
X179049961Y-132370100D01*
X182363003Y-132370100D01*
X182393727Y-132382826D01*
G37*
%TD.AperFunction*%
%TD*%
%TA.AperFunction,Conductor*%
%TO.N,/Capacitive_Touch_Sensor/SENSE6*%
G36*
X119401727Y-132382826D02*
G01*
X119414453Y-132413550D01*
X119401727Y-132444274D01*
X119399615Y-132446249D01*
X116587347Y-134906981D01*
X116587347Y-134906983D01*
X119345644Y-137571247D01*
X119358901Y-137601746D01*
X119346710Y-137632685D01*
X119345644Y-137633751D01*
X116584000Y-140301249D01*
X116584000Y-140301250D01*
X119345644Y-142968748D01*
X119358901Y-142999247D01*
X119346710Y-143030186D01*
X119345644Y-143031252D01*
X116584000Y-145698749D01*
X116584000Y-145698750D01*
X119345644Y-148366248D01*
X119358901Y-148396747D01*
X119346710Y-148427686D01*
X119345644Y-148428752D01*
X116587347Y-151093016D01*
X116587347Y-151093018D01*
X119399615Y-153553751D01*
X119414357Y-153583560D01*
X119403702Y-153615062D01*
X119373893Y-153629804D01*
X119371003Y-153629900D01*
X116057961Y-153629900D01*
X116029349Y-153619149D01*
X115988676Y-153583560D01*
X113185294Y-151130601D01*
X113170553Y-151100793D01*
X113181208Y-151069291D01*
X113183712Y-151066660D01*
X115947078Y-148397500D01*
X113185432Y-145730001D01*
X113172176Y-145699503D01*
X113184367Y-145668564D01*
X113185433Y-145667498D01*
X115947078Y-143000000D01*
X115947078Y-142999999D01*
X113185433Y-140332501D01*
X113172176Y-140302002D01*
X113184367Y-140271063D01*
X113185403Y-140270026D01*
X115947078Y-137602500D01*
X113183721Y-134933348D01*
X113170464Y-134902849D01*
X113182655Y-134871910D01*
X113185275Y-134869415D01*
X116029349Y-132380850D01*
X116057961Y-132370100D01*
X119371003Y-132370100D01*
X119401727Y-132382826D01*
G37*
%TD.AperFunction*%
%TD*%
%TA.AperFunction,Conductor*%
%TO.N,/Capacitive_Touch_Sensor/SENSE1*%
G36*
X99716727Y-132382826D02*
G01*
X99729453Y-132413550D01*
X99716727Y-132444274D01*
X99714621Y-132446243D01*
X99458898Y-132670001D01*
X96902347Y-134906981D01*
X96902347Y-134906983D01*
X99660644Y-137571247D01*
X99673901Y-137601746D01*
X99661710Y-137632685D01*
X99660644Y-137633751D01*
X96899000Y-140301249D01*
X96899000Y-140301250D01*
X99660644Y-142968748D01*
X99673901Y-142999247D01*
X99661710Y-143030186D01*
X99660644Y-143031252D01*
X96899000Y-145698749D01*
X96899000Y-145698750D01*
X99660644Y-148366248D01*
X99673901Y-148396747D01*
X99661710Y-148427686D01*
X99660644Y-148428752D01*
X96902347Y-151093016D01*
X96902347Y-151093018D01*
X98942066Y-152877771D01*
X99714517Y-153553666D01*
X99714615Y-153553751D01*
X99729357Y-153583560D01*
X99718702Y-153615062D01*
X99688893Y-153629804D01*
X99686003Y-153629900D01*
X97595170Y-153629900D01*
X97592547Y-153629821D01*
X97282260Y-153611052D01*
X97277051Y-153610419D01*
X96969952Y-153554140D01*
X96964858Y-153552885D01*
X96666767Y-153459997D01*
X96661868Y-153458139D01*
X96461200Y-153367825D01*
X96377151Y-153329998D01*
X96372506Y-153327560D01*
X96105308Y-153166033D01*
X96100990Y-153163052D01*
X95855221Y-152970505D01*
X95851293Y-152967026D01*
X95630512Y-152746245D01*
X95627033Y-152742317D01*
X95434486Y-152496548D01*
X95431505Y-152492230D01*
X95269978Y-152225032D01*
X95267540Y-152220387D01*
X95139395Y-151935661D01*
X95137545Y-151930782D01*
X95044651Y-151632675D01*
X95043398Y-151627586D01*
X94987119Y-151320487D01*
X94986487Y-151315286D01*
X94967718Y-151004992D01*
X94967639Y-151002369D01*
X94967639Y-134996249D01*
X94967956Y-134991012D01*
X94978159Y-134906981D01*
X95042593Y-134376318D01*
X95044240Y-134368642D01*
X95137546Y-134069215D01*
X95139394Y-134064340D01*
X95267545Y-133779602D01*
X95269978Y-133774967D01*
X95431505Y-133507769D01*
X95434486Y-133503451D01*
X95627040Y-133257673D01*
X95630504Y-133253762D01*
X95851301Y-133032965D01*
X95855212Y-133029501D01*
X96100993Y-132836944D01*
X96105308Y-132833966D01*
X96372510Y-132672436D01*
X96377141Y-132670006D01*
X96661882Y-132541854D01*
X96666750Y-132540008D01*
X96964866Y-132447111D01*
X96969943Y-132445861D01*
X97277061Y-132389578D01*
X97282250Y-132388948D01*
X97592547Y-132370179D01*
X97595170Y-132370100D01*
X99686003Y-132370100D01*
X99716727Y-132382826D01*
G37*
%TD.AperFunction*%
%TD*%
%TA.AperFunction,Conductor*%
%TO.N,/Capacitive_Touch_Sensor/SENSE20*%
G36*
X174519727Y-132382826D02*
G01*
X174532453Y-132413550D01*
X174519727Y-132444274D01*
X174517615Y-132446249D01*
X171705347Y-134906981D01*
X171705347Y-134906983D01*
X174463644Y-137571247D01*
X174476901Y-137601746D01*
X174464710Y-137632685D01*
X174463644Y-137633751D01*
X171702000Y-140301249D01*
X171702000Y-140301250D01*
X174463644Y-142968748D01*
X174476901Y-142999247D01*
X174464710Y-143030186D01*
X174463644Y-143031252D01*
X171702000Y-145698749D01*
X171702000Y-145698750D01*
X174463644Y-148366248D01*
X174476901Y-148396747D01*
X174464710Y-148427686D01*
X174463644Y-148428752D01*
X171705347Y-151093016D01*
X171705347Y-151093018D01*
X174517615Y-153553751D01*
X174532357Y-153583560D01*
X174521702Y-153615062D01*
X174491893Y-153629804D01*
X174489003Y-153629900D01*
X171175961Y-153629900D01*
X171147349Y-153619149D01*
X171106676Y-153583560D01*
X168303294Y-151130601D01*
X168288553Y-151100793D01*
X168299208Y-151069291D01*
X168301712Y-151066660D01*
X171065078Y-148397500D01*
X168303432Y-145730001D01*
X168290176Y-145699503D01*
X168302367Y-145668564D01*
X168303433Y-145667498D01*
X171065078Y-143000000D01*
X171065078Y-142999999D01*
X168303433Y-140332502D01*
X168290176Y-140302003D01*
X168302367Y-140271064D01*
X168303433Y-140269998D01*
X171065078Y-137602503D01*
X171065078Y-137602496D01*
X168301721Y-134933348D01*
X168288464Y-134902849D01*
X168300655Y-134871910D01*
X168303275Y-134869415D01*
X171147349Y-132380850D01*
X171175961Y-132370100D01*
X174489003Y-132370100D01*
X174519727Y-132382826D01*
G37*
%TD.AperFunction*%
%TD*%
%TA.AperFunction,Conductor*%
%TO.N,/Capacitive_Touch_Sensor/SENSE8*%
G36*
X127275727Y-132382826D02*
G01*
X127288453Y-132413550D01*
X127275727Y-132444274D01*
X127273615Y-132446249D01*
X124461347Y-134906981D01*
X124461347Y-134906983D01*
X127219644Y-137571247D01*
X127232901Y-137601746D01*
X127220710Y-137632685D01*
X127219644Y-137633751D01*
X124458000Y-140301249D01*
X124458000Y-140301250D01*
X127219644Y-142968748D01*
X127232901Y-142999247D01*
X127220710Y-143030186D01*
X127219644Y-143031252D01*
X124458000Y-145698749D01*
X124458000Y-145698750D01*
X127219644Y-148366248D01*
X127232901Y-148396747D01*
X127220710Y-148427686D01*
X127219644Y-148428752D01*
X124461347Y-151093016D01*
X124461347Y-151093018D01*
X127273615Y-153553751D01*
X127288357Y-153583560D01*
X127277702Y-153615062D01*
X127247893Y-153629804D01*
X127245003Y-153629900D01*
X123931961Y-153629900D01*
X123903349Y-153619149D01*
X123862676Y-153583560D01*
X121059294Y-151130601D01*
X121044553Y-151100793D01*
X121055208Y-151069291D01*
X121057712Y-151066660D01*
X123821078Y-148397500D01*
X121059432Y-145730001D01*
X121046176Y-145699503D01*
X121058367Y-145668564D01*
X121059433Y-145667498D01*
X123821078Y-143000000D01*
X123821078Y-142999999D01*
X121059433Y-140332501D01*
X121046176Y-140302002D01*
X121058367Y-140271063D01*
X121059403Y-140270026D01*
X123821078Y-137602500D01*
X121057721Y-134933348D01*
X121044464Y-134902849D01*
X121056655Y-134871910D01*
X121059275Y-134869415D01*
X123903349Y-132380850D01*
X123931961Y-132370100D01*
X127245003Y-132370100D01*
X127275727Y-132382826D01*
G37*
%TD.AperFunction*%
%TD*%
%TA.AperFunction,Conductor*%
%TO.N,/Capacitive_Touch_Sensor/SENSE23*%
G36*
X186330727Y-132382826D02*
G01*
X186343453Y-132413550D01*
X186330727Y-132444274D01*
X186328615Y-132446249D01*
X183516347Y-134906981D01*
X183516347Y-134906983D01*
X186274644Y-137571247D01*
X186287901Y-137601746D01*
X186275710Y-137632685D01*
X186274644Y-137633751D01*
X183513000Y-140301249D01*
X183513000Y-140301250D01*
X186274644Y-142968748D01*
X186287901Y-142999247D01*
X186275710Y-143030186D01*
X186274644Y-143031252D01*
X183513000Y-145698749D01*
X183513000Y-145698750D01*
X186274644Y-148366248D01*
X186287901Y-148396747D01*
X186275710Y-148427686D01*
X186274644Y-148428752D01*
X183516347Y-151093016D01*
X183516347Y-151093018D01*
X186328615Y-153553751D01*
X186343357Y-153583560D01*
X186332702Y-153615062D01*
X186302893Y-153629804D01*
X186300003Y-153629900D01*
X182986961Y-153629900D01*
X182958349Y-153619149D01*
X182917676Y-153583560D01*
X180114294Y-151130601D01*
X180099553Y-151100793D01*
X180110208Y-151069291D01*
X180112712Y-151066660D01*
X180664659Y-150533529D01*
X182876078Y-148397503D01*
X182876078Y-148397496D01*
X180114433Y-145730001D01*
X180101176Y-145699502D01*
X180113367Y-145668563D01*
X180114403Y-145667526D01*
X182876078Y-143000000D01*
X182876078Y-142999999D01*
X180114433Y-140332501D01*
X180101176Y-140302002D01*
X180113367Y-140271063D01*
X180114403Y-140270026D01*
X182876078Y-137602500D01*
X180112721Y-134933348D01*
X180099464Y-134902849D01*
X180111655Y-134871910D01*
X180114275Y-134869415D01*
X182958349Y-132380850D01*
X182986961Y-132370100D01*
X186300003Y-132370100D01*
X186330727Y-132382826D01*
G37*
%TD.AperFunction*%
%TD*%
%TA.AperFunction,Conductor*%
%TO.N,/Capacitive_Touch_Sensor/SENSE26*%
G36*
X194693142Y-132493316D02*
G01*
X195226230Y-132685988D01*
X195234575Y-132690060D01*
X195468655Y-132837147D01*
X195473642Y-132840802D01*
X195683156Y-133018645D01*
X195687580Y-133022979D01*
X195869651Y-133228828D01*
X195873416Y-133233753D01*
X196024331Y-133463407D01*
X196027358Y-133468818D01*
X196144059Y-133717622D01*
X196146284Y-133723408D01*
X196226384Y-133986275D01*
X196227764Y-133992319D01*
X196269642Y-134263923D01*
X196270147Y-134270102D01*
X196272945Y-134544900D01*
X196272565Y-134551087D01*
X196237439Y-134814396D01*
X196237439Y-151185603D01*
X196272565Y-151448912D01*
X196272945Y-151455099D01*
X196270147Y-151729897D01*
X196269642Y-151736076D01*
X196227764Y-152007680D01*
X196226384Y-152013724D01*
X196146284Y-152276591D01*
X196144059Y-152282377D01*
X196027358Y-152531181D01*
X196024331Y-152536592D01*
X195873416Y-152766246D01*
X195869651Y-152771171D01*
X195687580Y-152977020D01*
X195683152Y-152981358D01*
X195473649Y-153159192D01*
X195468648Y-153162857D01*
X195235959Y-153309070D01*
X195230488Y-153311985D01*
X194979367Y-153423592D01*
X194973537Y-153425699D01*
X194688579Y-153506228D01*
X194655552Y-153502337D01*
X194648262Y-153497212D01*
X193810143Y-152768847D01*
X191925285Y-151130815D01*
X191910442Y-151101056D01*
X191920990Y-151069518D01*
X191923591Y-151066775D01*
X194687078Y-148397500D01*
X191925432Y-145730001D01*
X191912176Y-145699503D01*
X191924367Y-145668564D01*
X191925433Y-145667498D01*
X194687078Y-143000000D01*
X194687078Y-142999999D01*
X191925433Y-140332502D01*
X191912176Y-140302003D01*
X191924367Y-140271064D01*
X191925433Y-140269998D01*
X194687078Y-137602500D01*
X194687078Y-137602499D01*
X191923600Y-134933232D01*
X191910343Y-134902733D01*
X191922534Y-134871794D01*
X191925273Y-134869194D01*
X194649878Y-132501383D01*
X194681415Y-132490836D01*
X194693142Y-132493316D01*
G37*
%TD.AperFunction*%
%TD*%
%TA.AperFunction,Conductor*%
%TO.N,/Capacitive_Touch_Sensor/SENSE21*%
G36*
X178456727Y-132382826D02*
G01*
X178469453Y-132413550D01*
X178456727Y-132444274D01*
X178454615Y-132446249D01*
X175642347Y-134906981D01*
X175642347Y-134906983D01*
X178400644Y-137571247D01*
X178413901Y-137601746D01*
X178401710Y-137632685D01*
X178400644Y-137633751D01*
X175639000Y-140301249D01*
X175639000Y-140301250D01*
X178400644Y-142968748D01*
X178413901Y-142999247D01*
X178401710Y-143030186D01*
X178400644Y-143031252D01*
X175639000Y-145698749D01*
X175639000Y-145698750D01*
X178400644Y-148366248D01*
X178413901Y-148396747D01*
X178401710Y-148427686D01*
X178400644Y-148428752D01*
X175642347Y-151093016D01*
X175642347Y-151093018D01*
X178454615Y-153553751D01*
X178469357Y-153583560D01*
X178458702Y-153615062D01*
X178428893Y-153629804D01*
X178426003Y-153629900D01*
X175112961Y-153629900D01*
X175084349Y-153619149D01*
X175043676Y-153583560D01*
X172240294Y-151130601D01*
X172225553Y-151100793D01*
X172236208Y-151069291D01*
X172238712Y-151066660D01*
X175002078Y-148397500D01*
X172240432Y-145730001D01*
X172227176Y-145699503D01*
X172239367Y-145668564D01*
X172240433Y-145667498D01*
X175002078Y-143000000D01*
X175002078Y-142999999D01*
X172240433Y-140332501D01*
X172227176Y-140302002D01*
X172239367Y-140271063D01*
X172240403Y-140270026D01*
X175002078Y-137602500D01*
X172238721Y-134933348D01*
X172225464Y-134902849D01*
X172237655Y-134871910D01*
X172240275Y-134869415D01*
X175084349Y-132380850D01*
X175112961Y-132370100D01*
X178426003Y-132370100D01*
X178456727Y-132382826D01*
G37*
%TD.AperFunction*%
%TD*%
%TA.AperFunction,Conductor*%
%TO.N,/Capacitive_Touch_Sensor/SENSE25*%
G36*
X194204727Y-132382826D02*
G01*
X194217453Y-132413550D01*
X194204727Y-132444274D01*
X194202615Y-132446249D01*
X191390347Y-134906981D01*
X191390347Y-134906983D01*
X194148644Y-137571247D01*
X194161901Y-137601746D01*
X194149710Y-137632685D01*
X194148644Y-137633751D01*
X191387000Y-140301249D01*
X191387000Y-140301250D01*
X194148644Y-142968748D01*
X194161901Y-142999247D01*
X194149710Y-143030186D01*
X194148644Y-143031252D01*
X191387000Y-145698749D01*
X191387000Y-145698750D01*
X194148644Y-148366248D01*
X194161901Y-148396747D01*
X194149710Y-148427686D01*
X194148644Y-148428752D01*
X191390347Y-151093016D01*
X191390347Y-151093018D01*
X194202615Y-153553751D01*
X194217357Y-153583560D01*
X194206702Y-153615062D01*
X194176893Y-153629804D01*
X194174003Y-153629900D01*
X190860961Y-153629900D01*
X190832349Y-153619149D01*
X190791676Y-153583560D01*
X187988294Y-151130601D01*
X187973553Y-151100793D01*
X187984208Y-151069291D01*
X187986712Y-151066660D01*
X188538659Y-150533529D01*
X190750078Y-148397503D01*
X190750078Y-148397496D01*
X187988433Y-145730001D01*
X187975176Y-145699502D01*
X187987367Y-145668563D01*
X187988403Y-145667526D01*
X190750078Y-143000000D01*
X190750078Y-142999999D01*
X187988433Y-140332501D01*
X187975176Y-140302002D01*
X187987367Y-140271063D01*
X187988403Y-140270026D01*
X190750078Y-137602500D01*
X187986721Y-134933348D01*
X187973464Y-134902849D01*
X187985655Y-134871910D01*
X187988275Y-134869415D01*
X190832349Y-132380850D01*
X190860961Y-132370100D01*
X194174003Y-132370100D01*
X194204727Y-132382826D01*
G37*
%TD.AperFunction*%
%TD*%
%TA.AperFunction,Conductor*%
%TO.N,/Capacitive_Touch_Sensor/SENSE14*%
G36*
X150897727Y-132382826D02*
G01*
X150910453Y-132413550D01*
X150897727Y-132444274D01*
X150895615Y-132446249D01*
X148083347Y-134906981D01*
X148083347Y-134906983D01*
X150841644Y-137571247D01*
X150854901Y-137601746D01*
X150842710Y-137632685D01*
X150841644Y-137633751D01*
X148080000Y-140301249D01*
X148080000Y-140301250D01*
X150841644Y-142968748D01*
X150854901Y-142999247D01*
X150842710Y-143030186D01*
X150841644Y-143031252D01*
X148080000Y-145698749D01*
X148080000Y-145698750D01*
X150841644Y-148366248D01*
X150854901Y-148396747D01*
X150842710Y-148427686D01*
X150841644Y-148428752D01*
X148083347Y-151093016D01*
X148083347Y-151093018D01*
X150895615Y-153553751D01*
X150910357Y-153583560D01*
X150899702Y-153615062D01*
X150869893Y-153629804D01*
X150867003Y-153629900D01*
X147553961Y-153629900D01*
X147525349Y-153619149D01*
X147484676Y-153583560D01*
X144681294Y-151130601D01*
X144666553Y-151100793D01*
X144677208Y-151069291D01*
X144679712Y-151066660D01*
X145862894Y-149923813D01*
X147443078Y-148397501D01*
X147443078Y-148397498D01*
X144681433Y-145730001D01*
X144668176Y-145699502D01*
X144680367Y-145668563D01*
X144681403Y-145667526D01*
X147443078Y-143000000D01*
X147443078Y-142999999D01*
X144681433Y-140332501D01*
X144668176Y-140302002D01*
X144680367Y-140271063D01*
X144681403Y-140270026D01*
X147443078Y-137602500D01*
X144679721Y-134933348D01*
X144666464Y-134902849D01*
X144678655Y-134871910D01*
X144681275Y-134869415D01*
X147525349Y-132380850D01*
X147553961Y-132370100D01*
X150867003Y-132370100D01*
X150897727Y-132382826D01*
G37*
%TD.AperFunction*%
%TD*%
%TA.AperFunction,Conductor*%
%TO.N,/Capacitive_Touch_Sensor/SENSE17*%
G36*
X162708727Y-132382826D02*
G01*
X162721453Y-132413550D01*
X162708727Y-132444274D01*
X162706615Y-132446249D01*
X159894347Y-134906981D01*
X159894347Y-134906983D01*
X162652644Y-137571247D01*
X162665901Y-137601746D01*
X162653710Y-137632685D01*
X162652644Y-137633751D01*
X159891000Y-140301249D01*
X159891000Y-140301250D01*
X162652644Y-142968748D01*
X162665901Y-142999247D01*
X162653710Y-143030186D01*
X162652644Y-143031252D01*
X159891000Y-145698749D01*
X159891000Y-145698750D01*
X162652644Y-148366248D01*
X162665901Y-148396747D01*
X162653710Y-148427686D01*
X162652644Y-148428752D01*
X159894347Y-151093016D01*
X159894347Y-151093018D01*
X162706615Y-153553751D01*
X162721357Y-153583560D01*
X162710702Y-153615062D01*
X162680893Y-153629804D01*
X162678003Y-153629900D01*
X159364961Y-153629900D01*
X159336349Y-153619149D01*
X159295676Y-153583560D01*
X156492294Y-151130601D01*
X156477553Y-151100793D01*
X156488208Y-151069291D01*
X156490712Y-151066660D01*
X157673894Y-149923813D01*
X159254078Y-148397501D01*
X159254078Y-148397498D01*
X156492433Y-145730001D01*
X156479176Y-145699502D01*
X156491367Y-145668563D01*
X156492403Y-145667526D01*
X159254078Y-143000000D01*
X159254078Y-142999999D01*
X156492433Y-140332501D01*
X156479176Y-140302002D01*
X156491367Y-140271063D01*
X156492403Y-140270026D01*
X159254078Y-137602500D01*
X156490721Y-134933348D01*
X156477464Y-134902849D01*
X156489655Y-134871910D01*
X156492275Y-134869415D01*
X159336349Y-132380850D01*
X159364961Y-132370100D01*
X162678003Y-132370100D01*
X162708727Y-132382826D01*
G37*
%TD.AperFunction*%
%TD*%
%TA.AperFunction,Conductor*%
%TO.N,/Capacitive_Touch_Sensor/SENSE5*%
G36*
X115464727Y-132382826D02*
G01*
X115477453Y-132413550D01*
X115464727Y-132444274D01*
X115462615Y-132446249D01*
X112650347Y-134906981D01*
X112650347Y-134906983D01*
X115408644Y-137571247D01*
X115421901Y-137601746D01*
X115409710Y-137632685D01*
X115408644Y-137633751D01*
X112647000Y-140301249D01*
X112647000Y-140301250D01*
X115408644Y-142968748D01*
X115421901Y-142999247D01*
X115409710Y-143030186D01*
X115408644Y-143031252D01*
X112647000Y-145698749D01*
X112647000Y-145698750D01*
X115408644Y-148366248D01*
X115421901Y-148396747D01*
X115409710Y-148427686D01*
X115408644Y-148428752D01*
X112650347Y-151093016D01*
X112650347Y-151093018D01*
X115462615Y-153553751D01*
X115477357Y-153583560D01*
X115466702Y-153615062D01*
X115436893Y-153629804D01*
X115434003Y-153629900D01*
X112120961Y-153629900D01*
X112092349Y-153619149D01*
X112051676Y-153583560D01*
X109248294Y-151130601D01*
X109233553Y-151100793D01*
X109244208Y-151069291D01*
X109246712Y-151066660D01*
X110429894Y-149923813D01*
X112010078Y-148397501D01*
X112010078Y-148397498D01*
X109248433Y-145730001D01*
X109235176Y-145699502D01*
X109247367Y-145668563D01*
X109248403Y-145667526D01*
X112010078Y-143000000D01*
X112010078Y-142999999D01*
X109248433Y-140332501D01*
X109235176Y-140302002D01*
X109247367Y-140271063D01*
X109248403Y-140270026D01*
X112010078Y-137602500D01*
X109246721Y-134933348D01*
X109233464Y-134902849D01*
X109245655Y-134871910D01*
X109248275Y-134869415D01*
X112092349Y-132380850D01*
X112120961Y-132370100D01*
X115434003Y-132370100D01*
X115464727Y-132382826D01*
G37*
%TD.AperFunction*%
%TD*%
%TA.AperFunction,Conductor*%
%TO.N,/Capacitive_Touch_Sensor/SENSE3*%
G36*
X107590727Y-132382826D02*
G01*
X107603453Y-132413550D01*
X107590727Y-132444274D01*
X107588615Y-132446249D01*
X104776347Y-134906981D01*
X104776347Y-134906983D01*
X107534644Y-137571247D01*
X107547901Y-137601746D01*
X107535710Y-137632685D01*
X107534644Y-137633751D01*
X104773000Y-140301249D01*
X104773000Y-140301250D01*
X107534644Y-142968748D01*
X107547901Y-142999247D01*
X107535710Y-143030186D01*
X107534644Y-143031252D01*
X104773000Y-145698749D01*
X104773000Y-145698750D01*
X107534644Y-148366248D01*
X107547901Y-148396747D01*
X107535710Y-148427686D01*
X107534644Y-148428752D01*
X104776347Y-151093016D01*
X104776347Y-151093018D01*
X107588615Y-153553751D01*
X107603357Y-153583560D01*
X107592702Y-153615062D01*
X107562893Y-153629804D01*
X107560003Y-153629900D01*
X104246961Y-153629900D01*
X104218349Y-153619149D01*
X104177676Y-153583560D01*
X101374294Y-151130601D01*
X101359553Y-151100793D01*
X101370208Y-151069291D01*
X101372712Y-151066660D01*
X102555894Y-149923813D01*
X104136078Y-148397501D01*
X104136078Y-148397498D01*
X101374433Y-145730001D01*
X101361176Y-145699502D01*
X101373367Y-145668563D01*
X101374403Y-145667526D01*
X104136078Y-143000000D01*
X104136078Y-142999999D01*
X101374433Y-140332501D01*
X101361176Y-140302002D01*
X101373367Y-140271063D01*
X101374403Y-140270026D01*
X104136078Y-137602500D01*
X101372721Y-134933348D01*
X101359464Y-134902849D01*
X101371655Y-134871910D01*
X101374275Y-134869415D01*
X104218349Y-132380850D01*
X104246961Y-132370100D01*
X107560003Y-132370100D01*
X107590727Y-132382826D01*
G37*
%TD.AperFunction*%
%TD*%
%TA.AperFunction,Conductor*%
%TO.N,/Capacitive_Touch_Sensor/SENSE10*%
G36*
X135149727Y-132382826D02*
G01*
X135162453Y-132413550D01*
X135149727Y-132444274D01*
X135147615Y-132446249D01*
X132335347Y-134906981D01*
X132335347Y-134906983D01*
X135093644Y-137571247D01*
X135106901Y-137601746D01*
X135094710Y-137632685D01*
X135093644Y-137633751D01*
X132332000Y-140301249D01*
X132332000Y-140301250D01*
X135093644Y-142968748D01*
X135106901Y-142999247D01*
X135094710Y-143030186D01*
X135093644Y-143031252D01*
X132332000Y-145698749D01*
X132332000Y-145698750D01*
X135093644Y-148366248D01*
X135106901Y-148396747D01*
X135094710Y-148427686D01*
X135093644Y-148428752D01*
X132335347Y-151093016D01*
X132335347Y-151093018D01*
X135147615Y-153553751D01*
X135162357Y-153583560D01*
X135151702Y-153615062D01*
X135121893Y-153629804D01*
X135119003Y-153629900D01*
X131805961Y-153629900D01*
X131777349Y-153619149D01*
X131736676Y-153583560D01*
X128933294Y-151130601D01*
X128918553Y-151100793D01*
X128929208Y-151069291D01*
X128931712Y-151066660D01*
X130114894Y-149923813D01*
X131695078Y-148397501D01*
X131695078Y-148397498D01*
X128933433Y-145730001D01*
X128920176Y-145699502D01*
X128932367Y-145668563D01*
X128933403Y-145667526D01*
X131695078Y-143000000D01*
X131695078Y-142999999D01*
X128933433Y-140332501D01*
X128920176Y-140302002D01*
X128932367Y-140271063D01*
X128933403Y-140270026D01*
X131695078Y-137602500D01*
X128931721Y-134933348D01*
X128918464Y-134902849D01*
X128930655Y-134871910D01*
X128933275Y-134869415D01*
X131777349Y-132380850D01*
X131805961Y-132370100D01*
X135119003Y-132370100D01*
X135149727Y-132382826D01*
G37*
%TD.AperFunction*%
%TD*%
%TA.AperFunction,Conductor*%
%TO.N,/Capacitive_Touch_Sensor/SENSE4*%
G36*
X111527727Y-132382826D02*
G01*
X111540453Y-132413550D01*
X111527727Y-132444274D01*
X111525615Y-132446249D01*
X108713347Y-134906981D01*
X108713347Y-134906983D01*
X111471644Y-137571247D01*
X111484901Y-137601746D01*
X111472710Y-137632685D01*
X111471644Y-137633751D01*
X108710000Y-140301249D01*
X108710000Y-140301250D01*
X111471644Y-142968748D01*
X111484901Y-142999247D01*
X111472710Y-143030186D01*
X111471644Y-143031252D01*
X108710000Y-145698749D01*
X108710000Y-145698750D01*
X111471644Y-148366248D01*
X111484901Y-148396747D01*
X111472710Y-148427686D01*
X111471644Y-148428752D01*
X108713347Y-151093016D01*
X108713347Y-151093018D01*
X111525615Y-153553751D01*
X111540357Y-153583560D01*
X111529702Y-153615062D01*
X111499893Y-153629804D01*
X111497003Y-153629900D01*
X108183961Y-153629900D01*
X108155349Y-153619149D01*
X108114676Y-153583560D01*
X105311294Y-151130601D01*
X105296553Y-151100793D01*
X105307208Y-151069291D01*
X105309712Y-151066660D01*
X108073078Y-148397500D01*
X105311432Y-145730001D01*
X105298176Y-145699503D01*
X105310367Y-145668564D01*
X105311433Y-145667498D01*
X108073078Y-143000000D01*
X108073078Y-142999999D01*
X105311433Y-140332501D01*
X105298176Y-140302002D01*
X105310367Y-140271063D01*
X105311403Y-140270026D01*
X108073078Y-137602500D01*
X105309721Y-134933348D01*
X105296464Y-134902849D01*
X105308655Y-134871910D01*
X105311275Y-134869415D01*
X108155349Y-132380850D01*
X108183961Y-132370100D01*
X111497003Y-132370100D01*
X111527727Y-132382826D01*
G37*
%TD.AperFunction*%
%TD*%
%TA.AperFunction,Conductor*%
%TO.N,/Capacitive_Touch_Sensor/SENSE9*%
G36*
X131212727Y-132382826D02*
G01*
X131225453Y-132413550D01*
X131212727Y-132444274D01*
X131210615Y-132446249D01*
X128398347Y-134906981D01*
X128398347Y-134906983D01*
X131156644Y-137571247D01*
X131169901Y-137601746D01*
X131157710Y-137632685D01*
X131156644Y-137633751D01*
X128395000Y-140301249D01*
X128395000Y-140301250D01*
X131156644Y-142968748D01*
X131169901Y-142999247D01*
X131157710Y-143030186D01*
X131156644Y-143031252D01*
X128395000Y-145698749D01*
X128395000Y-145698750D01*
X131156644Y-148366248D01*
X131169901Y-148396747D01*
X131157710Y-148427686D01*
X131156644Y-148428752D01*
X128398347Y-151093016D01*
X128398347Y-151093018D01*
X131210615Y-153553751D01*
X131225357Y-153583560D01*
X131214702Y-153615062D01*
X131184893Y-153629804D01*
X131182003Y-153629900D01*
X127868961Y-153629900D01*
X127840349Y-153619149D01*
X127799676Y-153583560D01*
X124996294Y-151130601D01*
X124981553Y-151100793D01*
X124992208Y-151069291D01*
X124994712Y-151066660D01*
X127758078Y-148397500D01*
X124996432Y-145730001D01*
X124983176Y-145699503D01*
X124995367Y-145668564D01*
X124996433Y-145667498D01*
X127758078Y-143000000D01*
X127758078Y-142999999D01*
X124996433Y-140332501D01*
X124983176Y-140302002D01*
X124995367Y-140271063D01*
X124996403Y-140270026D01*
X127758078Y-137602500D01*
X124994721Y-134933348D01*
X124981464Y-134902849D01*
X124993655Y-134871910D01*
X124996275Y-134869415D01*
X127840349Y-132380850D01*
X127868961Y-132370100D01*
X131182003Y-132370100D01*
X131212727Y-132382826D01*
G37*
%TD.AperFunction*%
%TD*%
%TA.AperFunction,Conductor*%
%TO.N,/Capacitive_Touch_Sensor/SENSE7*%
G36*
X123338727Y-132382826D02*
G01*
X123351453Y-132413550D01*
X123338727Y-132444274D01*
X123336615Y-132446249D01*
X120524347Y-134906981D01*
X120524347Y-134906983D01*
X123282644Y-137571247D01*
X123295901Y-137601746D01*
X123283710Y-137632685D01*
X123282644Y-137633751D01*
X120521000Y-140301249D01*
X120521000Y-140301250D01*
X123282644Y-142968748D01*
X123295901Y-142999247D01*
X123283710Y-143030186D01*
X123282644Y-143031252D01*
X120521000Y-145698749D01*
X120521000Y-145698750D01*
X123282644Y-148366248D01*
X123295901Y-148396747D01*
X123283710Y-148427686D01*
X123282644Y-148428752D01*
X120524347Y-151093016D01*
X120524347Y-151093018D01*
X123336615Y-153553751D01*
X123351357Y-153583560D01*
X123340702Y-153615062D01*
X123310893Y-153629804D01*
X123308003Y-153629900D01*
X119994961Y-153629900D01*
X119966349Y-153619149D01*
X119925676Y-153583560D01*
X117122294Y-151130601D01*
X117107553Y-151100793D01*
X117118208Y-151069291D01*
X117120712Y-151066660D01*
X119884078Y-148397500D01*
X117122432Y-145730001D01*
X117109176Y-145699503D01*
X117121367Y-145668564D01*
X117122433Y-145667498D01*
X119884078Y-143000000D01*
X119884078Y-142999999D01*
X117122433Y-140332501D01*
X117109176Y-140302002D01*
X117121367Y-140271063D01*
X117122403Y-140270026D01*
X119884078Y-137602500D01*
X117120721Y-134933348D01*
X117107464Y-134902849D01*
X117119655Y-134871910D01*
X117122275Y-134869415D01*
X119966349Y-132380850D01*
X119994961Y-132370100D01*
X123308003Y-132370100D01*
X123338727Y-132382826D01*
G37*
%TD.AperFunction*%
%TD*%
%TA.AperFunction,Conductor*%
%TO.N,/Capacitive_Touch_Sensor/SENSE18*%
G36*
X166645727Y-132382826D02*
G01*
X166658453Y-132413550D01*
X166645727Y-132444274D01*
X166643615Y-132446249D01*
X163831347Y-134906981D01*
X163831347Y-134906983D01*
X166589644Y-137571247D01*
X166602901Y-137601746D01*
X166590710Y-137632685D01*
X166589644Y-137633751D01*
X163828000Y-140301249D01*
X163828000Y-140301250D01*
X166589644Y-142968748D01*
X166602901Y-142999247D01*
X166590710Y-143030186D01*
X166589644Y-143031252D01*
X163828000Y-145698749D01*
X163828000Y-145698750D01*
X166589644Y-148366248D01*
X166602901Y-148396747D01*
X166590710Y-148427686D01*
X166589644Y-148428752D01*
X163831347Y-151093016D01*
X163831347Y-151093018D01*
X166643615Y-153553751D01*
X166658357Y-153583560D01*
X166647702Y-153615062D01*
X166617893Y-153629804D01*
X166615003Y-153629900D01*
X163301961Y-153629900D01*
X163273349Y-153619149D01*
X163232676Y-153583560D01*
X160429294Y-151130601D01*
X160414553Y-151100793D01*
X160425208Y-151069291D01*
X160427712Y-151066660D01*
X161610894Y-149923813D01*
X163191078Y-148397501D01*
X163191078Y-148397498D01*
X160429433Y-145730001D01*
X160416176Y-145699502D01*
X160428367Y-145668563D01*
X160429403Y-145667526D01*
X163191078Y-143000000D01*
X163191078Y-142999999D01*
X160429433Y-140332501D01*
X160416176Y-140302002D01*
X160428367Y-140271063D01*
X160429403Y-140270026D01*
X163191078Y-137602500D01*
X160427721Y-134933348D01*
X160414464Y-134902849D01*
X160426655Y-134871910D01*
X160429275Y-134869415D01*
X163273349Y-132380850D01*
X163301961Y-132370100D01*
X166615003Y-132370100D01*
X166645727Y-132382826D01*
G37*
%TD.AperFunction*%
%TD*%
%TA.AperFunction,Conductor*%
%TO.N,/Capacitive_Touch_Sensor/SENSE12*%
G36*
X143023727Y-132382826D02*
G01*
X143036453Y-132413550D01*
X143023727Y-132444274D01*
X143021615Y-132446249D01*
X140209347Y-134906981D01*
X140209347Y-134906983D01*
X142967644Y-137571247D01*
X142980901Y-137601746D01*
X142968710Y-137632685D01*
X142967644Y-137633751D01*
X140206000Y-140301249D01*
X140206000Y-140301250D01*
X142967644Y-142968748D01*
X142980901Y-142999247D01*
X142968710Y-143030186D01*
X142967644Y-143031252D01*
X140206000Y-145698749D01*
X140206000Y-145698750D01*
X142967644Y-148366248D01*
X142980901Y-148396747D01*
X142968710Y-148427686D01*
X142967644Y-148428752D01*
X140209347Y-151093016D01*
X140209347Y-151093018D01*
X143021615Y-153553751D01*
X143036357Y-153583560D01*
X143025702Y-153615062D01*
X142995893Y-153629804D01*
X142993003Y-153629900D01*
X139679961Y-153629900D01*
X139651349Y-153619149D01*
X139610676Y-153583560D01*
X136807294Y-151130601D01*
X136792553Y-151100793D01*
X136803208Y-151069291D01*
X136805712Y-151066660D01*
X139569078Y-148397500D01*
X136807432Y-145730001D01*
X136794176Y-145699503D01*
X136806367Y-145668564D01*
X136807433Y-145667498D01*
X139569078Y-143000000D01*
X139569078Y-142999999D01*
X136807433Y-140332501D01*
X136794176Y-140302002D01*
X136806367Y-140271063D01*
X136807403Y-140270026D01*
X139569078Y-137602500D01*
X136805721Y-134933348D01*
X136792464Y-134902849D01*
X136804655Y-134871910D01*
X136807275Y-134869415D01*
X139651349Y-132380850D01*
X139679961Y-132370100D01*
X142993003Y-132370100D01*
X143023727Y-132382826D01*
G37*
%TD.AperFunction*%
%TD*%
%TA.AperFunction,Conductor*%
%TO.N,/Capacitive_Touch_Sensor/SENSE11*%
G36*
X139086727Y-132382826D02*
G01*
X139099453Y-132413550D01*
X139086727Y-132444274D01*
X139084615Y-132446249D01*
X136272347Y-134906981D01*
X136272347Y-134906983D01*
X139030644Y-137571247D01*
X139043901Y-137601746D01*
X139031710Y-137632685D01*
X139030644Y-137633751D01*
X136269000Y-140301249D01*
X136269000Y-140301250D01*
X139030644Y-142968748D01*
X139043901Y-142999247D01*
X139031710Y-143030186D01*
X139030644Y-143031252D01*
X136269000Y-145698749D01*
X136269000Y-145698750D01*
X139030644Y-148366248D01*
X139043901Y-148396747D01*
X139031710Y-148427686D01*
X139030644Y-148428752D01*
X136272347Y-151093016D01*
X136272347Y-151093018D01*
X139084615Y-153553751D01*
X139099357Y-153583560D01*
X139088702Y-153615062D01*
X139058893Y-153629804D01*
X139056003Y-153629900D01*
X135742961Y-153629900D01*
X135714349Y-153619149D01*
X135673676Y-153583560D01*
X132870294Y-151130601D01*
X132855553Y-151100793D01*
X132866208Y-151069291D01*
X132868712Y-151066660D01*
X134051894Y-149923813D01*
X135632078Y-148397501D01*
X135632078Y-148397498D01*
X132870433Y-145730001D01*
X132857176Y-145699502D01*
X132869367Y-145668563D01*
X132870403Y-145667526D01*
X135632078Y-143000000D01*
X135632078Y-142999999D01*
X132870433Y-140332501D01*
X132857176Y-140302002D01*
X132869367Y-140271063D01*
X132870403Y-140270026D01*
X135632078Y-137602500D01*
X132868721Y-134933348D01*
X132855464Y-134902849D01*
X132867655Y-134871910D01*
X132870275Y-134869415D01*
X135714349Y-132380850D01*
X135742961Y-132370100D01*
X139056003Y-132370100D01*
X139086727Y-132382826D01*
G37*
%TD.AperFunction*%
%TD*%
%TA.AperFunction,Conductor*%
%TO.N,/Capacitive_Touch_Sensor/SENSE13*%
G36*
X146960727Y-132382826D02*
G01*
X146973453Y-132413550D01*
X146960727Y-132444274D01*
X146958615Y-132446249D01*
X144146347Y-134906981D01*
X144146347Y-134906983D01*
X146904644Y-137571247D01*
X146917901Y-137601746D01*
X146905710Y-137632685D01*
X146904644Y-137633751D01*
X144143000Y-140301249D01*
X144143000Y-140301250D01*
X146904644Y-142968748D01*
X146917901Y-142999247D01*
X146905710Y-143030186D01*
X146904644Y-143031252D01*
X144143000Y-145698749D01*
X144143000Y-145698750D01*
X146904644Y-148366248D01*
X146917901Y-148396747D01*
X146905710Y-148427686D01*
X146904644Y-148428752D01*
X144146347Y-151093016D01*
X144146347Y-151093018D01*
X146958615Y-153553751D01*
X146973357Y-153583560D01*
X146962702Y-153615062D01*
X146932893Y-153629804D01*
X146930003Y-153629900D01*
X143616961Y-153629900D01*
X143588349Y-153619149D01*
X143547676Y-153583560D01*
X140744294Y-151130601D01*
X140729553Y-151100793D01*
X140740208Y-151069291D01*
X140742712Y-151066660D01*
X141925894Y-149923813D01*
X143506078Y-148397501D01*
X143506078Y-148397498D01*
X140744433Y-145730001D01*
X140731176Y-145699502D01*
X140743367Y-145668563D01*
X140744403Y-145667526D01*
X143506078Y-143000000D01*
X143506078Y-142999999D01*
X140744433Y-140332501D01*
X140731176Y-140302002D01*
X140743367Y-140271063D01*
X140744403Y-140270026D01*
X143506078Y-137602500D01*
X140742721Y-134933348D01*
X140729464Y-134902849D01*
X140741655Y-134871910D01*
X140744275Y-134869415D01*
X143588349Y-132380850D01*
X143616961Y-132370100D01*
X146930003Y-132370100D01*
X146960727Y-132382826D01*
G37*
%TD.AperFunction*%
%TD*%
%TA.AperFunction,Conductor*%
%TO.N,/Capacitive_Touch_Sensor/SENSE2*%
G36*
X103653727Y-132382826D02*
G01*
X103666453Y-132413550D01*
X103653727Y-132444274D01*
X103651615Y-132446249D01*
X100839347Y-134906981D01*
X100839347Y-134906983D01*
X103597644Y-137571247D01*
X103610901Y-137601746D01*
X103598710Y-137632685D01*
X103597644Y-137633751D01*
X100836000Y-140301249D01*
X100836000Y-140301250D01*
X103597644Y-142968748D01*
X103610901Y-142999247D01*
X103598710Y-143030186D01*
X103597644Y-143031252D01*
X100836000Y-145698749D01*
X100836000Y-145698750D01*
X103597644Y-148366248D01*
X103610901Y-148396747D01*
X103598710Y-148427686D01*
X103597644Y-148428752D01*
X100839347Y-151093016D01*
X100839347Y-151093018D01*
X103651615Y-153553751D01*
X103666357Y-153583560D01*
X103655702Y-153615062D01*
X103625893Y-153629804D01*
X103623003Y-153629900D01*
X100309961Y-153629900D01*
X100281349Y-153619149D01*
X100240676Y-153583560D01*
X97437294Y-151130601D01*
X97422553Y-151100793D01*
X97433208Y-151069291D01*
X97435712Y-151066660D01*
X98618894Y-149923813D01*
X100199078Y-148397501D01*
X100199078Y-148397498D01*
X97437433Y-145730001D01*
X97424176Y-145699502D01*
X97436367Y-145668563D01*
X97437403Y-145667526D01*
X100199078Y-143000000D01*
X100199078Y-142999999D01*
X97437433Y-140332501D01*
X97424176Y-140302002D01*
X97436367Y-140271063D01*
X97437403Y-140270026D01*
X100199078Y-137602500D01*
X97435721Y-134933348D01*
X97422464Y-134902849D01*
X97434655Y-134871910D01*
X97437275Y-134869415D01*
X100281349Y-132380850D01*
X100309961Y-132370100D01*
X103623003Y-132370100D01*
X103653727Y-132382826D01*
G37*
%TD.AperFunction*%
%TD*%
%TA.AperFunction,Conductor*%
%TO.N,/Capacitive_Touch_Sensor/SENSE19*%
G36*
X170582727Y-132382826D02*
G01*
X170595453Y-132413550D01*
X170582727Y-132444274D01*
X170580615Y-132446249D01*
X167768347Y-134906981D01*
X167768347Y-134906983D01*
X170526644Y-137571247D01*
X170539901Y-137601746D01*
X170527710Y-137632685D01*
X170526644Y-137633751D01*
X167765000Y-140301249D01*
X167765000Y-140301250D01*
X170526644Y-142968748D01*
X170539901Y-142999247D01*
X170527710Y-143030186D01*
X170526644Y-143031252D01*
X167765000Y-145698749D01*
X167765000Y-145698750D01*
X170526644Y-148366248D01*
X170539901Y-148396747D01*
X170527710Y-148427686D01*
X170526644Y-148428752D01*
X167768347Y-151093016D01*
X167768347Y-151093018D01*
X170580615Y-153553751D01*
X170595357Y-153583560D01*
X170584702Y-153615062D01*
X170554893Y-153629804D01*
X170552003Y-153629900D01*
X167238961Y-153629900D01*
X167210349Y-153619149D01*
X167169676Y-153583560D01*
X164366294Y-151130601D01*
X164351553Y-151100793D01*
X164362208Y-151069291D01*
X164364712Y-151066660D01*
X165547894Y-149923813D01*
X167128078Y-148397501D01*
X167128078Y-148397498D01*
X164366433Y-145730001D01*
X164353176Y-145699502D01*
X164365367Y-145668563D01*
X164366403Y-145667526D01*
X167128078Y-143000000D01*
X167128078Y-142999999D01*
X164366433Y-140332501D01*
X164353176Y-140302002D01*
X164365367Y-140271063D01*
X164366403Y-140270026D01*
X167128078Y-137602500D01*
X164364721Y-134933348D01*
X164351464Y-134902849D01*
X164363655Y-134871910D01*
X164366275Y-134869415D01*
X167210349Y-132380850D01*
X167238961Y-132370100D01*
X170552003Y-132370100D01*
X170582727Y-132382826D01*
G37*
%TD.AperFunction*%
%TD*%
%TA.AperFunction,Conductor*%
%TO.N,/Capacitive_Touch_Sensor/SENSE24*%
G36*
X190267727Y-132382826D02*
G01*
X190280453Y-132413550D01*
X190267727Y-132444274D01*
X190265615Y-132446249D01*
X187453347Y-134906981D01*
X187453347Y-134906983D01*
X190211644Y-137571247D01*
X190224901Y-137601746D01*
X190212710Y-137632685D01*
X190211644Y-137633751D01*
X187450000Y-140301249D01*
X187450000Y-140301250D01*
X190211644Y-142968748D01*
X190224901Y-142999247D01*
X190212710Y-143030186D01*
X190211644Y-143031252D01*
X187450000Y-145698749D01*
X187450000Y-145698750D01*
X190211644Y-148366248D01*
X190224901Y-148396747D01*
X190212710Y-148427686D01*
X190211644Y-148428752D01*
X187453347Y-151093016D01*
X187453347Y-151093018D01*
X190265615Y-153553751D01*
X190280357Y-153583560D01*
X190269702Y-153615062D01*
X190239893Y-153629804D01*
X190237003Y-153629900D01*
X186923961Y-153629900D01*
X186895349Y-153619149D01*
X186854676Y-153583560D01*
X184051294Y-151130601D01*
X184036553Y-151100793D01*
X184047208Y-151069291D01*
X184049712Y-151066660D01*
X186813078Y-148397500D01*
X184051432Y-145730001D01*
X184038176Y-145699503D01*
X184050367Y-145668564D01*
X184051433Y-145667498D01*
X186813078Y-143000000D01*
X186813078Y-142999999D01*
X184051433Y-140332501D01*
X184038176Y-140302002D01*
X184050367Y-140271063D01*
X184051403Y-140270026D01*
X186813078Y-137602500D01*
X184049721Y-134933348D01*
X184036464Y-134902849D01*
X184048655Y-134871910D01*
X184051275Y-134869415D01*
X186895349Y-132380850D01*
X186923961Y-132370100D01*
X190237003Y-132370100D01*
X190267727Y-132382826D01*
G37*
%TD.AperFunction*%
%TD*%
%TA.AperFunction,Conductor*%
%TO.N,/Capacitive_Touch_Sensor/SENSE15*%
G36*
X154834727Y-132382826D02*
G01*
X154847453Y-132413550D01*
X154834727Y-132444274D01*
X154832615Y-132446249D01*
X152020347Y-134906981D01*
X152020347Y-134906983D01*
X154778644Y-137571247D01*
X154791901Y-137601746D01*
X154779710Y-137632685D01*
X154778644Y-137633751D01*
X152017000Y-140301249D01*
X152017000Y-140301250D01*
X154778644Y-142968748D01*
X154791901Y-142999247D01*
X154779710Y-143030186D01*
X154778644Y-143031252D01*
X152017000Y-145698749D01*
X152017000Y-145698750D01*
X154778644Y-148366248D01*
X154791901Y-148396747D01*
X154779710Y-148427686D01*
X154778644Y-148428752D01*
X152020347Y-151093016D01*
X152020347Y-151093018D01*
X154832615Y-153553751D01*
X154847357Y-153583560D01*
X154836702Y-153615062D01*
X154806893Y-153629804D01*
X154804003Y-153629900D01*
X151490961Y-153629900D01*
X151462349Y-153619149D01*
X151421676Y-153583560D01*
X148618294Y-151130601D01*
X148603553Y-151100793D01*
X148614208Y-151069291D01*
X148616712Y-151066660D01*
X149799894Y-149923813D01*
X151380078Y-148397501D01*
X151380078Y-148397498D01*
X148618433Y-145730001D01*
X148605176Y-145699502D01*
X148617367Y-145668563D01*
X148618403Y-145667526D01*
X151380078Y-143000000D01*
X151380078Y-142999999D01*
X148618433Y-140332501D01*
X148605176Y-140302002D01*
X148617367Y-140271063D01*
X148618403Y-140270026D01*
X151380078Y-137602500D01*
X148616721Y-134933348D01*
X148603464Y-134902849D01*
X148615655Y-134871910D01*
X148618275Y-134869415D01*
X151462349Y-132380850D01*
X151490961Y-132370100D01*
X154804003Y-132370100D01*
X154834727Y-132382826D01*
G37*
%TD.AperFunction*%
%TD*%
%TA.AperFunction,Conductor*%
%TO.N,/Capacitive_Touch_Sensor/SENSE16*%
G36*
X158771727Y-132382826D02*
G01*
X158784453Y-132413550D01*
X158771727Y-132444274D01*
X158769615Y-132446249D01*
X155957347Y-134906981D01*
X155957347Y-134906983D01*
X158715644Y-137571247D01*
X158728901Y-137601746D01*
X158716710Y-137632685D01*
X158715644Y-137633751D01*
X155954000Y-140301249D01*
X155954000Y-140301250D01*
X158715644Y-142968748D01*
X158728901Y-142999247D01*
X158716710Y-143030186D01*
X158715644Y-143031252D01*
X155954000Y-145698749D01*
X155954000Y-145698750D01*
X158715644Y-148366248D01*
X158728901Y-148396747D01*
X158716710Y-148427686D01*
X158715644Y-148428752D01*
X155957347Y-151093016D01*
X155957347Y-151093018D01*
X158769615Y-153553751D01*
X158784357Y-153583560D01*
X158773702Y-153615062D01*
X158743893Y-153629804D01*
X158741003Y-153629900D01*
X155427961Y-153629900D01*
X155399349Y-153619149D01*
X155358676Y-153583560D01*
X152555294Y-151130601D01*
X152540553Y-151100793D01*
X152551208Y-151069291D01*
X152553712Y-151066660D01*
X155317078Y-148397500D01*
X152555432Y-145730001D01*
X152542176Y-145699503D01*
X152554367Y-145668564D01*
X152555433Y-145667498D01*
X155317078Y-143000000D01*
X155317078Y-142999999D01*
X152555433Y-140332501D01*
X152542176Y-140302002D01*
X152554367Y-140271063D01*
X152555403Y-140270026D01*
X155317078Y-137602500D01*
X152553721Y-134933348D01*
X152540464Y-134902849D01*
X152552655Y-134871910D01*
X152555275Y-134869415D01*
X155399349Y-132380850D01*
X155427961Y-132370100D01*
X158741003Y-132370100D01*
X158771727Y-132382826D01*
G37*
%TD.AperFunction*%
%TD*%
M02*
