M48
; DRILL file {KiCad 9.0.0-9.0.0-2~ubuntu24.04.1} date 2025-04-09T05:43:55-0400
; FORMAT={-:-/ absolute / inch / decimal}
; #@! TF.CreationDate,2025-04-09T05:43:55-04:00
; #@! TF.GenerationSoftware,Kicad,Pcbnew,9.0.0-9.0.0-2~ubuntu24.04.1
; #@! TF.FileFunction,Plated,1,2,PTH
FMAT,2
INCH
; #@! TA.AperFunction,Plated,PTH,ViaDrill
T1C0.0118
%
G90
G05
T1
X3.8386Y-5.8465
X3.9961Y-5.8465
X4.1535Y-5.8465
X4.311Y-5.8465
X4.4685Y-5.8465
X4.626Y-5.8465
X4.7835Y-5.8465
X4.9409Y-5.8465
X5.0787Y-5.8465
X5.2362Y-5.8465
X5.3937Y-5.8465
X5.5315Y-5.8465
X5.689Y-5.8465
X5.8465Y-5.8465
X6.0039Y-5.8465
X6.1614Y-5.8465
X6.3189Y-5.8465
X6.3976Y-5.315
X6.5551Y-5.315
X6.7126Y-5.315
X6.8701Y-5.315
X7.0276Y-5.315
X7.185Y-5.315
X7.3425Y-5.315
X7.5Y-5.315
X7.6772Y-5.3189
X7.748Y-5.4331
X7.7835Y-5.4331
X7.815Y-5.5709
X7.815Y-5.6299
X7.815Y-5.689
X7.8189Y-5.4331
X7.8346Y-5.3937
X7.8346Y-6.0236
X7.8607Y-5.4709
X7.8622Y-5.7874
X7.874Y-5.5709
X7.874Y-5.6299
X7.874Y-5.689
X7.8976Y-5.4724
X7.9124Y-5.4242
X7.9134Y-5.9449
X7.9331Y-5.5709
X7.9331Y-5.6299
X7.9331Y-5.689
X7.9921Y-6.0236
X8.0118Y-5.2165
X8.0709Y-5.689
X8.0709Y-5.7283
X8.0709Y-5.9449
X8.1063Y-5.2756
X8.1102Y-5.1969
X8.1102Y-5.689
X8.1102Y-5.7283
X8.1299Y-5.6457
X8.1496Y-5.8661
X8.1496Y-6.0236
X8.1535Y-5.3937
X8.1535Y-5.7874
X8.189Y-5.7283
X8.2087Y-5.2165
X8.2087Y-5.2756
X8.2087Y-5.3622
X8.2283Y-5.9449
X8.3071Y-5.1969
X8.3071Y-5.8661
X8.3071Y-6.0236
M30
