%TF.GenerationSoftware,KiCad,Pcbnew,9.0.0-9.0.0-2~ubuntu24.04.1*%
%TF.CreationDate,2025-04-10T08:36:23-04:00*%
%TF.ProjectId,Touch,546f7563-682e-46b6-9963-61645f706362,0*%
%TF.SameCoordinates,Original*%
%TF.FileFunction,Copper,L2,Bot*%
%TF.FilePolarity,Positive*%
%FSLAX46Y46*%
G04 Gerber Fmt 4.6, Leading zero omitted, Abs format (unit mm)*
G04 Created by KiCad (PCBNEW 9.0.0-9.0.0-2~ubuntu24.04.1) date 2025-04-10 08:36:23*
%MOMM*%
%LPD*%
G01*
G04 APERTURE LIST*
%TA.AperFunction,SMDPad,CuDef*%
%ADD10C,1.524000*%
%TD*%
%TA.AperFunction,ViaPad*%
%ADD11C,0.600000*%
%TD*%
%TA.AperFunction,Conductor*%
%ADD12C,0.200000*%
%TD*%
G04 APERTURE END LIST*
D10*
%TO.P,CS1,1*%
%TO.N,/Capacitive_Touch_Sensor/SENSE1*%
X106800000Y-138940000D03*
%TO.P,CS1,2*%
%TO.N,/Capacitive_Touch_Sensor/SENSE2*%
X110721600Y-138940000D03*
%TO.P,CS1,3*%
%TO.N,/Capacitive_Touch_Sensor/SENSE3*%
X114643200Y-138940000D03*
%TO.P,CS1,4*%
%TO.N,/Capacitive_Touch_Sensor/SENSE4*%
X118564800Y-138940000D03*
%TO.P,CS1,5*%
%TO.N,/Capacitive_Touch_Sensor/SENSE5*%
X122486400Y-138940000D03*
%TO.P,CS1,6*%
%TO.N,/Capacitive_Touch_Sensor/SENSE6*%
X126408000Y-138940000D03*
%TO.P,CS1,7*%
%TO.N,/Capacitive_Touch_Sensor/SENSE7*%
X130329600Y-138940000D03*
%TO.P,CS1,8*%
%TO.N,/Capacitive_Touch_Sensor/SENSE8*%
X134251200Y-138940000D03*
%TO.P,CS1,9*%
%TO.N,/Capacitive_Touch_Sensor/SENSE9*%
X138172800Y-138940000D03*
%TO.P,CS1,10*%
%TO.N,/Capacitive_Touch_Sensor/SENSE10*%
X142094400Y-138940000D03*
%TO.P,CS1,11*%
%TO.N,/Capacitive_Touch_Sensor/SENSE11*%
X146016000Y-138940000D03*
%TO.P,CS1,12*%
%TO.N,/Capacitive_Touch_Sensor/SENSE12*%
X149937600Y-138940000D03*
%TO.P,CS1,13*%
%TO.N,/Capacitive_Touch_Sensor/SENSE13*%
X153859200Y-138940000D03*
%TO.P,CS1,14*%
%TO.N,/Capacitive_Touch_Sensor/SENSE14*%
X157780800Y-138940000D03*
%TO.P,CS1,15*%
%TO.N,/Capacitive_Touch_Sensor/SENSE15*%
X161702400Y-138940000D03*
%TO.P,CS1,16*%
%TO.N,/Capacitive_Touch_Sensor/SENSE16*%
X165624000Y-138940000D03*
%TO.P,CS1,17*%
%TO.N,/Capacitive_Touch_Sensor/SENSE17*%
X169545600Y-138940000D03*
%TO.P,CS1,18*%
%TO.N,/Capacitive_Touch_Sensor/SENSE18*%
X173467200Y-138940000D03*
%TO.P,CS1,19*%
%TO.N,/Capacitive_Touch_Sensor/SENSE19*%
X177388800Y-138940000D03*
%TO.P,CS1,20*%
%TO.N,/Capacitive_Touch_Sensor/SENSE20*%
X181310400Y-138940000D03*
%TO.P,CS1,21*%
%TO.N,/Capacitive_Touch_Sensor/SENSE21*%
X185232000Y-138940000D03*
%TO.P,CS1,22*%
%TO.N,/Capacitive_Touch_Sensor/SENSE22*%
X189153600Y-138940000D03*
%TO.P,CS1,23*%
%TO.N,/Capacitive_Touch_Sensor/SENSE23*%
X193075200Y-138940000D03*
%TO.P,CS1,24*%
%TO.N,/Capacitive_Touch_Sensor/SENSE24*%
X196996800Y-138940000D03*
%TO.P,CS1,25*%
%TO.N,/Capacitive_Touch_Sensor/SENSE25*%
X200918400Y-138940000D03*
%TO.P,CS1,26*%
%TO.N,/Capacitive_Touch_Sensor/SENSE26*%
X204840000Y-138940000D03*
%TD*%
D11*
%TO.N,GND1*%
X213500000Y-132500000D03*
X215000000Y-145500000D03*
X209000000Y-153000000D03*
X215000000Y-144500000D03*
X221000000Y-149000000D03*
X208500000Y-144500000D03*
X221000000Y-132000000D03*
X210000000Y-143000000D03*
X215000000Y-151000000D03*
X210000000Y-141500000D03*
X221000000Y-153000000D03*
X216000000Y-132000000D03*
X210000000Y-144500000D03*
X216000000Y-145500000D03*
X209000000Y-137000000D03*
X211500000Y-144500000D03*
X217000000Y-153000000D03*
X208500000Y-143000000D03*
X211000000Y-151000000D03*
X218000000Y-145500000D03*
X209661765Y-138961765D03*
X211500000Y-141500000D03*
X216000000Y-144500000D03*
X211500000Y-143000000D03*
X219000000Y-151000000D03*
X217000000Y-149000000D03*
X208500000Y-141500000D03*
X213000000Y-153000000D03*
X218500000Y-132500000D03*
%TO.N,VCC*%
X209700000Y-147000000D03*
X216500000Y-143400000D03*
X218500000Y-136200000D03*
X210975735Y-137775735D03*
%TO.N,/Capacitive_Touch_Sensor/SENSE25*%
X200500000Y-135000000D03*
%TO.N,/Capacitive_Touch_Sensor/SENSE2*%
X111500000Y-148500000D03*
%TO.N,/Capacitive_Touch_Sensor/SENSE6*%
X127500000Y-148500000D03*
%TO.N,/Capacitive_Touch_Sensor/SENSE11*%
X147000000Y-148500000D03*
%TO.N,/Capacitive_Touch_Sensor/SENSE19*%
X176500000Y-135000000D03*
%TO.N,/Capacitive_Touch_Sensor/SENSE5*%
X123500000Y-148500000D03*
%TO.N,/Capacitive_Touch_Sensor/SENSE9*%
X139000000Y-148500000D03*
%TO.N,/Capacitive_Touch_Sensor/SENSE4*%
X119500000Y-148500000D03*
%TO.N,/Capacitive_Touch_Sensor/SENSE7*%
X131500000Y-148500000D03*
%TO.N,/Capacitive_Touch_Sensor/SENSE16*%
X166500000Y-148500000D03*
%TO.N,/Capacitive_Touch_Sensor/SENSE13*%
X154500000Y-148500000D03*
%TO.N,/Capacitive_Touch_Sensor/SENSE12*%
X150500000Y-148500000D03*
%TO.N,/Capacitive_Touch_Sensor/SENSE15*%
X162500000Y-148500000D03*
%TO.N,/Capacitive_Touch_Sensor/SENSE24*%
X196500000Y-135000000D03*
%TO.N,/Capacitive_Touch_Sensor/SENSE20*%
X180500000Y-135000000D03*
%TO.N,/Capacitive_Touch_Sensor/SENSE3*%
X115500000Y-148500000D03*
%TO.N,/Capacitive_Touch_Sensor/SENSE23*%
X192500000Y-135000000D03*
%TO.N,/Capacitive_Touch_Sensor/SENSE21*%
X184500000Y-135000000D03*
%TO.N,/Capacitive_Touch_Sensor/SENSE14*%
X158500000Y-148500000D03*
%TO.N,/Capacitive_Touch_Sensor/SENSE8*%
X135500000Y-148500000D03*
%TO.N,/Capacitive_Touch_Sensor/SENSE10*%
X143000000Y-148500000D03*
%TO.N,/Capacitive_Touch_Sensor/SENSE26*%
X205000000Y-135100000D03*
%TO.N,/Capacitive_Touch_Sensor/SENSE22*%
X188500000Y-135000000D03*
%TO.N,/Capacitive_Touch_Sensor/SENSE1*%
X107500000Y-148500000D03*
%TO.N,/Capacitive_Touch_Sensor/SENSE18*%
X172500000Y-135000000D03*
%TO.N,/Capacitive_Touch_Sensor/SENSE17*%
X170500000Y-148500000D03*
%TO.N,/Capacitive_Touch_Sensor/ADDR1*%
X218500000Y-134000000D03*
X206800000Y-138000000D03*
%TO.N,/Capacitive_Touch_Sensor/ADDR0*%
X215900000Y-134000000D03*
X207700000Y-138000000D03*
%TO.N,Net-(U8-(PR{slash}SDA)P1[0])*%
X217100000Y-147000000D03*
X208600000Y-138000000D03*
%TO.N,Net-(U8-(PR{slash}SCL)P1[1])*%
X217100000Y-137000000D03*
X210600000Y-139000000D03*
%TD*%
D12*
%TO.N,VCC*%
X209999265Y-137775735D02*
X207000000Y-140775000D01*
X212551470Y-136200000D02*
X218500000Y-136200000D01*
X210975735Y-137775735D02*
X212551470Y-136200000D01*
X209000000Y-147000000D02*
X209700000Y-147000000D01*
X207000000Y-140775000D02*
X207000000Y-145000000D01*
X216700000Y-143600000D02*
X216700000Y-146400000D01*
X216100000Y-147000000D02*
X209700000Y-147000000D01*
X216500000Y-143400000D02*
X216700000Y-143600000D01*
X210975735Y-137775735D02*
X209999265Y-137775735D01*
X216700000Y-146400000D02*
X216100000Y-147000000D01*
X207000000Y-145000000D02*
X209000000Y-147000000D01*
%TO.N,/Capacitive_Touch_Sensor/SENSE2*%
X110721600Y-147721600D02*
X111500000Y-148500000D01*
X110721600Y-138940000D02*
X110721600Y-147721600D01*
%TO.N,/Capacitive_Touch_Sensor/SENSE6*%
X126408000Y-138940000D02*
X126408000Y-147408000D01*
X126408000Y-147408000D02*
X127500000Y-148500000D01*
%TO.N,/Capacitive_Touch_Sensor/SENSE11*%
X146016000Y-138940000D02*
X146016000Y-147516000D01*
X146016000Y-147516000D02*
X147000000Y-148500000D01*
%TO.N,/Capacitive_Touch_Sensor/SENSE19*%
X177388800Y-138940000D02*
X177388800Y-135888800D01*
X177388800Y-135888800D02*
X176500000Y-135000000D01*
%TO.N,/Capacitive_Touch_Sensor/SENSE5*%
X122486400Y-147486400D02*
X123500000Y-148500000D01*
X122486400Y-138940000D02*
X122486400Y-147486400D01*
%TO.N,/Capacitive_Touch_Sensor/SENSE9*%
X138172800Y-147672800D02*
X139000000Y-148500000D01*
X138172800Y-138940000D02*
X138172800Y-147672800D01*
%TO.N,/Capacitive_Touch_Sensor/SENSE4*%
X118564800Y-147564800D02*
X119500000Y-148500000D01*
X118564800Y-138940000D02*
X118564800Y-147564800D01*
%TO.N,/Capacitive_Touch_Sensor/SENSE7*%
X130329600Y-147329600D02*
X131500000Y-148500000D01*
X130329600Y-138940000D02*
X130329600Y-147329600D01*
%TO.N,/Capacitive_Touch_Sensor/SENSE16*%
X165624000Y-147624000D02*
X166500000Y-148500000D01*
X165624000Y-138940000D02*
X165624000Y-147624000D01*
%TO.N,/Capacitive_Touch_Sensor/SENSE13*%
X153859200Y-147859200D02*
X154500000Y-148500000D01*
X153859200Y-138940000D02*
X153859200Y-147859200D01*
%TO.N,/Capacitive_Touch_Sensor/SENSE12*%
X149937600Y-138940000D02*
X149937600Y-147937600D01*
X149937600Y-147937600D02*
X150500000Y-148500000D01*
%TO.N,/Capacitive_Touch_Sensor/SENSE15*%
X161702400Y-138940000D02*
X161702400Y-147702400D01*
X161702400Y-147702400D02*
X162500000Y-148500000D01*
%TO.N,/Capacitive_Touch_Sensor/SENSE24*%
X196996800Y-135496800D02*
X196500000Y-135000000D01*
X196996800Y-138940000D02*
X196996800Y-135496800D01*
%TO.N,/Capacitive_Touch_Sensor/SENSE20*%
X181310400Y-138940000D02*
X181310400Y-135810400D01*
X181310400Y-135810400D02*
X180500000Y-135000000D01*
%TO.N,/Capacitive_Touch_Sensor/SENSE3*%
X114643200Y-138940000D02*
X114643200Y-147643200D01*
X114643200Y-147643200D02*
X115500000Y-148500000D01*
%TO.N,/Capacitive_Touch_Sensor/SENSE23*%
X193075200Y-135575200D02*
X192500000Y-135000000D01*
X193075200Y-138940000D02*
X193075200Y-135575200D01*
%TO.N,/Capacitive_Touch_Sensor/SENSE21*%
X185232000Y-135732000D02*
X184500000Y-135000000D01*
X185232000Y-138940000D02*
X185232000Y-135732000D01*
%TO.N,/Capacitive_Touch_Sensor/SENSE14*%
X157780800Y-138940000D02*
X157780800Y-147780800D01*
X157780800Y-147780800D02*
X158500000Y-148500000D01*
%TO.N,/Capacitive_Touch_Sensor/SENSE8*%
X134251200Y-147251200D02*
X135500000Y-148500000D01*
X134251200Y-138940000D02*
X134251200Y-147251200D01*
%TO.N,/Capacitive_Touch_Sensor/SENSE10*%
X142094400Y-147594400D02*
X143000000Y-148500000D01*
X142094400Y-138940000D02*
X142094400Y-147594400D01*
%TO.N,/Capacitive_Touch_Sensor/SENSE22*%
X189153600Y-138940000D02*
X189153600Y-135653600D01*
X189153600Y-135653600D02*
X188500000Y-135000000D01*
%TO.N,/Capacitive_Touch_Sensor/SENSE1*%
X106800000Y-138940000D02*
X106800000Y-147800000D01*
X106800000Y-147800000D02*
X107500000Y-148500000D01*
%TO.N,/Capacitive_Touch_Sensor/SENSE18*%
X173467200Y-138940000D02*
X173467200Y-135967200D01*
X173467200Y-135967200D02*
X172500000Y-135000000D01*
%TO.N,/Capacitive_Touch_Sensor/SENSE17*%
X169545600Y-138940000D02*
X169545600Y-147545600D01*
X169545600Y-147545600D02*
X170500000Y-148500000D01*
%TO.N,/Capacitive_Touch_Sensor/ADDR1*%
X217899000Y-133399000D02*
X218500000Y-134000000D01*
X206800000Y-138000000D02*
X206800000Y-137501529D01*
X206800000Y-137501529D02*
X210900764Y-133400764D01*
X210900764Y-133400764D02*
X210902529Y-133399000D01*
X210902528Y-133399000D02*
X217899000Y-133399000D01*
X210900764Y-133400764D02*
X210902528Y-133399000D01*
%TO.N,/Capacitive_Touch_Sensor/ADDR0*%
X207700000Y-138000000D02*
X207700000Y-137450057D01*
X207700000Y-137450057D02*
X211150057Y-134000000D01*
X211150057Y-134000000D02*
X215900000Y-134000000D01*
%TO.N,Net-(U8-(PR{slash}SDA)P1[0])*%
X217100000Y-147000000D02*
X216499000Y-147601000D01*
X209033900Y-147601000D02*
X206600000Y-145167100D01*
X206600000Y-140000000D02*
X208600000Y-138000000D01*
X206600000Y-145167100D02*
X206600000Y-140000000D01*
X216499000Y-147601000D02*
X209033900Y-147601000D01*
%TO.N,Net-(U8-(PR{slash}SCL)P1[1])*%
X217100000Y-137000000D02*
X212600000Y-137000000D01*
X212600000Y-137000000D02*
X210600000Y-139000000D01*
%TD*%
%TA.AperFunction,Conductor*%
%TO.N,/Capacitive_Touch_Sensor/SENSE1*%
G36*
X109716727Y-132382826D02*
G01*
X109729453Y-132413550D01*
X109716727Y-132444274D01*
X109714621Y-132446243D01*
X109458898Y-132670001D01*
X106902347Y-134906981D01*
X106902347Y-134906983D01*
X109660644Y-137571247D01*
X109673901Y-137601746D01*
X109661710Y-137632685D01*
X109660644Y-137633751D01*
X106899000Y-140301249D01*
X106899000Y-140301250D01*
X109660644Y-142968748D01*
X109673901Y-142999247D01*
X109661710Y-143030186D01*
X109660644Y-143031252D01*
X106899000Y-145698749D01*
X106899000Y-145698750D01*
X109660644Y-148366248D01*
X109673901Y-148396747D01*
X109661710Y-148427686D01*
X109660644Y-148428752D01*
X106902347Y-151093016D01*
X106902347Y-151093018D01*
X108942066Y-152877771D01*
X109714517Y-153553666D01*
X109714615Y-153553751D01*
X109729357Y-153583560D01*
X109718702Y-153615062D01*
X109688893Y-153629804D01*
X109686003Y-153629900D01*
X107595170Y-153629900D01*
X107592547Y-153629821D01*
X107282260Y-153611052D01*
X107277051Y-153610419D01*
X106969952Y-153554140D01*
X106964858Y-153552885D01*
X106666767Y-153459997D01*
X106661868Y-153458139D01*
X106461200Y-153367825D01*
X106377151Y-153329998D01*
X106372506Y-153327560D01*
X106105308Y-153166033D01*
X106100990Y-153163052D01*
X105855221Y-152970505D01*
X105851293Y-152967026D01*
X105630512Y-152746245D01*
X105627033Y-152742317D01*
X105434486Y-152496548D01*
X105431505Y-152492230D01*
X105269978Y-152225032D01*
X105267540Y-152220387D01*
X105139395Y-151935661D01*
X105137545Y-151930782D01*
X105044651Y-151632675D01*
X105043398Y-151627586D01*
X104987119Y-151320487D01*
X104986487Y-151315286D01*
X104967718Y-151004992D01*
X104967639Y-151002369D01*
X104967639Y-134996249D01*
X104967956Y-134991012D01*
X104978159Y-134906981D01*
X105042593Y-134376318D01*
X105044240Y-134368642D01*
X105137546Y-134069215D01*
X105139394Y-134064340D01*
X105267545Y-133779602D01*
X105269978Y-133774967D01*
X105431505Y-133507769D01*
X105434486Y-133503451D01*
X105627040Y-133257673D01*
X105630504Y-133253762D01*
X105851301Y-133032965D01*
X105855212Y-133029501D01*
X106100993Y-132836944D01*
X106105308Y-132833966D01*
X106372510Y-132672436D01*
X106377141Y-132670006D01*
X106661882Y-132541854D01*
X106666750Y-132540008D01*
X106964866Y-132447111D01*
X106969943Y-132445861D01*
X107277061Y-132389578D01*
X107282250Y-132388948D01*
X107592547Y-132370179D01*
X107595170Y-132370100D01*
X109686003Y-132370100D01*
X109716727Y-132382826D01*
G37*
%TD.AperFunction*%
%TD*%
%TA.AperFunction,Conductor*%
%TO.N,/Capacitive_Touch_Sensor/SENSE6*%
G36*
X129401727Y-132382826D02*
G01*
X129414453Y-132413550D01*
X129401727Y-132444274D01*
X129399615Y-132446249D01*
X126587347Y-134906981D01*
X126587347Y-134906983D01*
X129345644Y-137571247D01*
X129358901Y-137601746D01*
X129346710Y-137632685D01*
X129345644Y-137633751D01*
X126584000Y-140301249D01*
X126584000Y-140301250D01*
X129345644Y-142968748D01*
X129358901Y-142999247D01*
X129346710Y-143030186D01*
X129345644Y-143031252D01*
X126584000Y-145698749D01*
X126584000Y-145698750D01*
X129345644Y-148366248D01*
X129358901Y-148396747D01*
X129346710Y-148427686D01*
X129345644Y-148428752D01*
X126587347Y-151093016D01*
X126587347Y-151093018D01*
X129399615Y-153553751D01*
X129414357Y-153583560D01*
X129403702Y-153615062D01*
X129373893Y-153629804D01*
X129371003Y-153629900D01*
X126057961Y-153629900D01*
X126029349Y-153619149D01*
X125988676Y-153583560D01*
X123185294Y-151130601D01*
X123170553Y-151100793D01*
X123181208Y-151069291D01*
X123183712Y-151066660D01*
X124366894Y-149923813D01*
X125947078Y-148397501D01*
X125947078Y-148397498D01*
X123185433Y-145730001D01*
X123172176Y-145699502D01*
X123184367Y-145668563D01*
X123185403Y-145667526D01*
X125947078Y-143000000D01*
X125947078Y-142999999D01*
X123185433Y-140332501D01*
X123172176Y-140302002D01*
X123184367Y-140271063D01*
X123185403Y-140270026D01*
X125947078Y-137602500D01*
X123183721Y-134933348D01*
X123170464Y-134902849D01*
X123182655Y-134871910D01*
X123185275Y-134869415D01*
X126029349Y-132380850D01*
X126057961Y-132370100D01*
X129371003Y-132370100D01*
X129401727Y-132382826D01*
G37*
%TD.AperFunction*%
%TD*%
%TA.AperFunction,Conductor*%
%TO.N,GND1*%
G36*
X222943039Y-131520185D02*
G01*
X222988794Y-131572989D01*
X223000000Y-131624500D01*
X223000000Y-154375500D01*
X222980315Y-154442539D01*
X222927511Y-154488294D01*
X222876000Y-154499500D01*
X207124000Y-154499500D01*
X207056961Y-154479815D01*
X207011206Y-154427011D01*
X207000000Y-154375500D01*
X207000000Y-146362143D01*
X207019685Y-146295104D01*
X207072489Y-146249349D01*
X207141647Y-146239405D01*
X207205203Y-146268430D01*
X207211671Y-146274453D01*
X208753431Y-147816212D01*
X208818688Y-147881469D01*
X208818691Y-147881470D01*
X208818694Y-147881473D01*
X208898606Y-147927611D01*
X208898607Y-147927611D01*
X208898612Y-147927614D01*
X208987756Y-147951500D01*
X208987758Y-147951500D01*
X216545142Y-147951500D01*
X216545144Y-147951500D01*
X216634288Y-147927614D01*
X216714212Y-147881470D01*
X217008863Y-147586819D01*
X217070186Y-147553334D01*
X217096544Y-147550500D01*
X217172472Y-147550500D01*
X217172475Y-147550500D01*
X217312485Y-147512984D01*
X217438015Y-147440509D01*
X217540509Y-147338015D01*
X217612984Y-147212485D01*
X217650500Y-147072475D01*
X217650500Y-146927525D01*
X217612984Y-146787515D01*
X217540509Y-146661985D01*
X217438015Y-146559491D01*
X217438013Y-146559490D01*
X217438011Y-146559488D01*
X217312488Y-146487017D01*
X217312489Y-146487017D01*
X217172471Y-146449499D01*
X217164415Y-146448439D01*
X217164655Y-146446609D01*
X217107461Y-146429815D01*
X217061706Y-146377011D01*
X217050500Y-146325500D01*
X217050500Y-143553855D01*
X217048197Y-143545261D01*
X217048198Y-143481066D01*
X217050500Y-143472476D01*
X217050500Y-143327527D01*
X217050500Y-143327525D01*
X217012984Y-143187515D01*
X216940509Y-143061985D01*
X216838015Y-142959491D01*
X216838013Y-142959490D01*
X216838011Y-142959488D01*
X216712488Y-142887017D01*
X216712489Y-142887017D01*
X216701006Y-142883940D01*
X216572475Y-142849500D01*
X216427525Y-142849500D01*
X216298993Y-142883940D01*
X216287511Y-142887017D01*
X216161988Y-142959488D01*
X216161982Y-142959493D01*
X216059493Y-143061982D01*
X216059488Y-143061988D01*
X215987017Y-143187511D01*
X215987016Y-143187515D01*
X215949500Y-143327525D01*
X215949500Y-143472475D01*
X215987016Y-143612485D01*
X215987017Y-143612488D01*
X216059488Y-143738011D01*
X216059490Y-143738013D01*
X216059491Y-143738015D01*
X216161985Y-143840509D01*
X216287500Y-143912975D01*
X216335716Y-143963542D01*
X216349500Y-144020362D01*
X216349500Y-146203456D01*
X216329815Y-146270495D01*
X216313181Y-146291137D01*
X215991137Y-146613181D01*
X215929814Y-146646666D01*
X215903456Y-146649500D01*
X210179386Y-146649500D01*
X210112347Y-146629815D01*
X210091705Y-146613181D01*
X210038017Y-146559493D01*
X210038011Y-146559488D01*
X209912488Y-146487017D01*
X209912489Y-146487017D01*
X209901006Y-146483940D01*
X209772475Y-146449500D01*
X209627525Y-146449500D01*
X209498993Y-146483940D01*
X209487511Y-146487017D01*
X209361988Y-146559488D01*
X209361982Y-146559493D01*
X209308295Y-146613181D01*
X209281367Y-146627884D01*
X209255549Y-146644477D01*
X209249348Y-146645368D01*
X209246972Y-146646666D01*
X209220614Y-146649500D01*
X209196544Y-146649500D01*
X209129505Y-146629815D01*
X209108863Y-146613181D01*
X207386819Y-144891137D01*
X207353334Y-144829814D01*
X207350500Y-144803456D01*
X207350500Y-140971543D01*
X207370185Y-140904504D01*
X207386819Y-140883862D01*
X210108127Y-138162554D01*
X210169450Y-138129069D01*
X210195808Y-138126235D01*
X210496349Y-138126235D01*
X210523131Y-138134099D01*
X210550655Y-138138759D01*
X210558816Y-138144577D01*
X210563388Y-138145920D01*
X210579862Y-138158575D01*
X210581988Y-138160512D01*
X210637720Y-138216244D01*
X210652563Y-138224813D01*
X210662470Y-138233840D01*
X210673939Y-138252704D01*
X210689173Y-138268681D01*
X210691734Y-138281972D01*
X210698768Y-138293541D01*
X210698217Y-138315613D01*
X210702395Y-138337288D01*
X210697364Y-138349853D01*
X210697027Y-138363389D01*
X210684631Y-138381658D01*
X210676427Y-138402153D01*
X210665398Y-138410006D01*
X210657799Y-138421207D01*
X210637498Y-138429873D01*
X210619512Y-138442681D01*
X210599688Y-138446014D01*
X210593540Y-138448639D01*
X210588825Y-138447840D01*
X210578957Y-138449500D01*
X210527525Y-138449500D01*
X210423906Y-138477265D01*
X210387511Y-138487017D01*
X210261988Y-138559488D01*
X210261982Y-138559493D01*
X210159493Y-138661982D01*
X210159488Y-138661988D01*
X210087017Y-138787511D01*
X210087016Y-138787515D01*
X210049500Y-138927525D01*
X210049500Y-139072475D01*
X210087016Y-139212485D01*
X210087017Y-139212488D01*
X210159488Y-139338011D01*
X210159490Y-139338013D01*
X210159491Y-139338015D01*
X210261985Y-139440509D01*
X210261986Y-139440510D01*
X210261988Y-139440511D01*
X210387511Y-139512982D01*
X210387512Y-139512982D01*
X210387515Y-139512984D01*
X210527525Y-139550500D01*
X210527528Y-139550500D01*
X210672472Y-139550500D01*
X210672475Y-139550500D01*
X210812485Y-139512984D01*
X210938015Y-139440509D01*
X211040509Y-139338015D01*
X211112984Y-139212485D01*
X211150500Y-139072475D01*
X211150500Y-138996544D01*
X211170185Y-138929505D01*
X211186819Y-138908863D01*
X212708863Y-137386819D01*
X212770186Y-137353334D01*
X212796544Y-137350500D01*
X216620614Y-137350500D01*
X216687653Y-137370185D01*
X216708295Y-137386819D01*
X216761985Y-137440509D01*
X216761986Y-137440510D01*
X216761988Y-137440511D01*
X216887511Y-137512982D01*
X216887512Y-137512982D01*
X216887515Y-137512984D01*
X217027525Y-137550500D01*
X217027528Y-137550500D01*
X217172472Y-137550500D01*
X217172475Y-137550500D01*
X217312485Y-137512984D01*
X217438015Y-137440509D01*
X217540509Y-137338015D01*
X217612984Y-137212485D01*
X217650500Y-137072475D01*
X217650500Y-136927525D01*
X217612984Y-136787515D01*
X217612982Y-136787511D01*
X217583531Y-136736500D01*
X217567058Y-136668600D01*
X217589911Y-136602573D01*
X217644832Y-136559382D01*
X217690918Y-136550500D01*
X218020614Y-136550500D01*
X218087653Y-136570185D01*
X218108295Y-136586819D01*
X218161985Y-136640509D01*
X218161986Y-136640510D01*
X218161988Y-136640511D01*
X218287511Y-136712982D01*
X218287512Y-136712982D01*
X218287515Y-136712984D01*
X218427525Y-136750500D01*
X218427528Y-136750500D01*
X218572472Y-136750500D01*
X218572475Y-136750500D01*
X218712485Y-136712984D01*
X218838015Y-136640509D01*
X218940509Y-136538015D01*
X219012984Y-136412485D01*
X219050500Y-136272475D01*
X219050500Y-136127525D01*
X219012984Y-135987515D01*
X218973733Y-135919531D01*
X218940511Y-135861988D01*
X218940506Y-135861982D01*
X218838017Y-135759493D01*
X218838011Y-135759488D01*
X218712488Y-135687017D01*
X218712489Y-135687017D01*
X218701006Y-135683940D01*
X218572475Y-135649500D01*
X218427525Y-135649500D01*
X218298993Y-135683940D01*
X218287511Y-135687017D01*
X218161988Y-135759488D01*
X218161982Y-135759493D01*
X218108295Y-135813181D01*
X218046972Y-135846666D01*
X218020614Y-135849500D01*
X212505326Y-135849500D01*
X212416182Y-135873386D01*
X212416179Y-135873387D01*
X212336261Y-135919527D01*
X212336256Y-135919531D01*
X211066872Y-137188916D01*
X211005549Y-137222401D01*
X210979191Y-137225235D01*
X210903260Y-137225235D01*
X210774728Y-137259675D01*
X210763246Y-137262752D01*
X210637723Y-137335223D01*
X210637717Y-137335228D01*
X210584030Y-137388916D01*
X210522707Y-137422401D01*
X210496349Y-137425235D01*
X209953121Y-137425235D01*
X209863977Y-137449121D01*
X209863976Y-137449121D01*
X209863974Y-137449122D01*
X209863971Y-137449123D01*
X209784059Y-137495261D01*
X209784050Y-137495268D01*
X209344906Y-137934412D01*
X209283583Y-137967897D01*
X209213891Y-137962913D01*
X209157958Y-137921041D01*
X209137451Y-137878828D01*
X209112984Y-137787515D01*
X209040509Y-137661985D01*
X208938015Y-137559491D01*
X208938013Y-137559490D01*
X208938011Y-137559488D01*
X208812488Y-137487017D01*
X208812489Y-137487017D01*
X208801006Y-137483940D01*
X208672475Y-137449500D01*
X208527525Y-137449500D01*
X208527520Y-137449500D01*
X208521977Y-137450986D01*
X208452127Y-137449320D01*
X208394267Y-137410155D01*
X208366765Y-137345926D01*
X208378355Y-137277024D01*
X208402205Y-137243532D01*
X211258919Y-134386819D01*
X211320242Y-134353334D01*
X211346600Y-134350500D01*
X215420614Y-134350500D01*
X215487653Y-134370185D01*
X215508295Y-134386819D01*
X215561985Y-134440509D01*
X215561986Y-134440510D01*
X215561988Y-134440511D01*
X215687511Y-134512982D01*
X215687512Y-134512982D01*
X215687515Y-134512984D01*
X215827525Y-134550500D01*
X215827528Y-134550500D01*
X215972472Y-134550500D01*
X215972475Y-134550500D01*
X216112485Y-134512984D01*
X216238015Y-134440509D01*
X216340509Y-134338015D01*
X216412984Y-134212485D01*
X216450500Y-134072475D01*
X216450500Y-133927525D01*
X216444623Y-133905592D01*
X216446286Y-133835743D01*
X216485449Y-133777881D01*
X216549677Y-133750377D01*
X216564398Y-133749500D01*
X217702456Y-133749500D01*
X217731899Y-133758145D01*
X217761882Y-133764668D01*
X217766897Y-133768422D01*
X217769495Y-133769185D01*
X217790132Y-133785814D01*
X217913182Y-133908863D01*
X217946666Y-133970184D01*
X217949500Y-133996543D01*
X217949500Y-134072475D01*
X217987016Y-134212485D01*
X217987017Y-134212488D01*
X218059488Y-134338011D01*
X218059490Y-134338013D01*
X218059491Y-134338015D01*
X218161985Y-134440509D01*
X218161986Y-134440510D01*
X218161988Y-134440511D01*
X218287511Y-134512982D01*
X218287512Y-134512982D01*
X218287515Y-134512984D01*
X218427525Y-134550500D01*
X218427528Y-134550500D01*
X218572472Y-134550500D01*
X218572475Y-134550500D01*
X218712485Y-134512984D01*
X218838015Y-134440509D01*
X218940509Y-134338015D01*
X219012984Y-134212485D01*
X219050500Y-134072475D01*
X219050500Y-133927525D01*
X219012984Y-133787515D01*
X219012004Y-133785818D01*
X218940511Y-133661988D01*
X218940506Y-133661982D01*
X218838017Y-133559493D01*
X218838011Y-133559488D01*
X218712488Y-133487017D01*
X218712489Y-133487017D01*
X218701006Y-133483940D01*
X218572475Y-133449500D01*
X218572472Y-133449500D01*
X218496544Y-133449500D01*
X218429505Y-133429815D01*
X218408863Y-133413181D01*
X218114213Y-133118531D01*
X218114208Y-133118527D01*
X218034289Y-133072386D01*
X218034191Y-133072360D01*
X218034150Y-133072335D01*
X218034147Y-133072348D01*
X217989645Y-133060424D01*
X217945144Y-133048500D01*
X217945143Y-133048500D01*
X210899078Y-133048500D01*
X210856484Y-133048488D01*
X210856439Y-133048500D01*
X210856384Y-133048500D01*
X210856381Y-133048500D01*
X210809400Y-133061087D01*
X210809401Y-133061088D01*
X210809168Y-133061150D01*
X210809167Y-133061151D01*
X210767333Y-133072348D01*
X210767290Y-133072372D01*
X210767240Y-133072386D01*
X210766998Y-133072525D01*
X210766996Y-133072526D01*
X210731576Y-133092975D01*
X210724816Y-133096879D01*
X210687396Y-133118470D01*
X210687363Y-133118502D01*
X210687316Y-133118530D01*
X210687077Y-133118768D01*
X210687073Y-133118771D01*
X210685553Y-133120292D01*
X210685552Y-133120294D01*
X210653029Y-133152816D01*
X210653007Y-133152837D01*
X210615080Y-133190743D01*
X210614920Y-133190924D01*
X207211681Y-136594164D01*
X207150358Y-136627649D01*
X207080666Y-136622665D01*
X207024733Y-136580793D01*
X207000316Y-136515329D01*
X207000000Y-136506483D01*
X207000000Y-131624500D01*
X207019685Y-131557461D01*
X207072489Y-131511706D01*
X207124000Y-131500500D01*
X222876000Y-131500500D01*
X222943039Y-131520185D01*
G37*
%TD.AperFunction*%
%TD*%
%TA.AperFunction,Conductor*%
%TO.N,/Capacitive_Touch_Sensor/SENSE21*%
G36*
X188456727Y-132382826D02*
G01*
X188469453Y-132413550D01*
X188456727Y-132444274D01*
X188454615Y-132446249D01*
X185642347Y-134906981D01*
X185642347Y-134906983D01*
X188400644Y-137571247D01*
X188413901Y-137601746D01*
X188401710Y-137632685D01*
X188400644Y-137633751D01*
X185639000Y-140301249D01*
X185639000Y-140301250D01*
X188400644Y-142968748D01*
X188413901Y-142999247D01*
X188401710Y-143030186D01*
X188400644Y-143031252D01*
X185639000Y-145698749D01*
X185639000Y-145698750D01*
X188400644Y-148366248D01*
X188413901Y-148396747D01*
X188401710Y-148427686D01*
X188400644Y-148428752D01*
X185642347Y-151093016D01*
X185642347Y-151093018D01*
X188454615Y-153553751D01*
X188469357Y-153583560D01*
X188458702Y-153615062D01*
X188428893Y-153629804D01*
X188426003Y-153629900D01*
X185112961Y-153629900D01*
X185084349Y-153619149D01*
X185043676Y-153583560D01*
X182240294Y-151130601D01*
X182225553Y-151100793D01*
X182236208Y-151069291D01*
X182238712Y-151066660D01*
X185002078Y-148397500D01*
X182240432Y-145730001D01*
X182227176Y-145699503D01*
X182239367Y-145668564D01*
X182240433Y-145667498D01*
X185002078Y-143000000D01*
X185002078Y-142999999D01*
X182240433Y-140332501D01*
X182227176Y-140302002D01*
X182239367Y-140271063D01*
X182240403Y-140270026D01*
X185002078Y-137602500D01*
X182238721Y-134933348D01*
X182225464Y-134902849D01*
X182237655Y-134871910D01*
X182240275Y-134869415D01*
X185084349Y-132380850D01*
X185112961Y-132370100D01*
X188426003Y-132370100D01*
X188456727Y-132382826D01*
G37*
%TD.AperFunction*%
%TD*%
%TA.AperFunction,Conductor*%
%TO.N,/Capacitive_Touch_Sensor/SENSE14*%
G36*
X160897727Y-132382826D02*
G01*
X160910453Y-132413550D01*
X160897727Y-132444274D01*
X160895615Y-132446249D01*
X158083347Y-134906981D01*
X158083347Y-134906983D01*
X160841644Y-137571247D01*
X160854901Y-137601746D01*
X160842710Y-137632685D01*
X160841644Y-137633751D01*
X158080000Y-140301249D01*
X158080000Y-140301250D01*
X160841644Y-142968748D01*
X160854901Y-142999247D01*
X160842710Y-143030186D01*
X160841644Y-143031252D01*
X158080000Y-145698749D01*
X158080000Y-145698750D01*
X160841644Y-148366248D01*
X160854901Y-148396747D01*
X160842710Y-148427686D01*
X160841644Y-148428752D01*
X158083347Y-151093016D01*
X158083347Y-151093018D01*
X160895615Y-153553751D01*
X160910357Y-153583560D01*
X160899702Y-153615062D01*
X160869893Y-153629804D01*
X160867003Y-153629900D01*
X157553961Y-153629900D01*
X157525349Y-153619149D01*
X157484676Y-153583560D01*
X154681294Y-151130601D01*
X154666553Y-151100793D01*
X154677208Y-151069291D01*
X154679712Y-151066660D01*
X155862894Y-149923813D01*
X157443078Y-148397501D01*
X157443078Y-148397498D01*
X154681433Y-145730001D01*
X154668176Y-145699502D01*
X154680367Y-145668563D01*
X154681403Y-145667526D01*
X157443078Y-143000000D01*
X157443078Y-142999999D01*
X154681433Y-140332501D01*
X154668176Y-140302002D01*
X154680367Y-140271063D01*
X154681403Y-140270026D01*
X157443078Y-137602500D01*
X154679721Y-134933348D01*
X154666464Y-134902849D01*
X154678655Y-134871910D01*
X154681275Y-134869415D01*
X157525349Y-132380850D01*
X157553961Y-132370100D01*
X160867003Y-132370100D01*
X160897727Y-132382826D01*
G37*
%TD.AperFunction*%
%TD*%
%TA.AperFunction,Conductor*%
%TO.N,/Capacitive_Touch_Sensor/SENSE25*%
G36*
X204204727Y-132382826D02*
G01*
X204217453Y-132413550D01*
X204204727Y-132444274D01*
X204202615Y-132446249D01*
X201390347Y-134906981D01*
X201390347Y-134906983D01*
X204148644Y-137571247D01*
X204161901Y-137601746D01*
X204149710Y-137632685D01*
X204148644Y-137633751D01*
X201387000Y-140301249D01*
X201387000Y-140301250D01*
X204148644Y-142968748D01*
X204161901Y-142999247D01*
X204149710Y-143030186D01*
X204148644Y-143031252D01*
X201387000Y-145698749D01*
X201387000Y-145698750D01*
X204148644Y-148366248D01*
X204161901Y-148396747D01*
X204149710Y-148427686D01*
X204148644Y-148428752D01*
X201390347Y-151093016D01*
X201390347Y-151093018D01*
X204202615Y-153553751D01*
X204217357Y-153583560D01*
X204206702Y-153615062D01*
X204176893Y-153629804D01*
X204174003Y-153629900D01*
X200860961Y-153629900D01*
X200832349Y-153619149D01*
X200791676Y-153583560D01*
X197988294Y-151130601D01*
X197973553Y-151100793D01*
X197984208Y-151069291D01*
X197986712Y-151066660D01*
X200750078Y-148397500D01*
X197988432Y-145730001D01*
X197975176Y-145699503D01*
X197987367Y-145668564D01*
X197988433Y-145667498D01*
X200750078Y-143000000D01*
X200750078Y-142999999D01*
X197988433Y-140332501D01*
X197975176Y-140302002D01*
X197987367Y-140271063D01*
X197988403Y-140270026D01*
X200750078Y-137602500D01*
X197986721Y-134933348D01*
X197973464Y-134902849D01*
X197985655Y-134871910D01*
X197988275Y-134869415D01*
X200832349Y-132380850D01*
X200860961Y-132370100D01*
X204174003Y-132370100D01*
X204204727Y-132382826D01*
G37*
%TD.AperFunction*%
%TD*%
%TA.AperFunction,Conductor*%
%TO.N,/Capacitive_Touch_Sensor/SENSE22*%
G36*
X192393727Y-132382826D02*
G01*
X192406453Y-132413550D01*
X192393727Y-132444274D01*
X192391615Y-132446249D01*
X189579347Y-134906981D01*
X189579347Y-134906983D01*
X192337644Y-137571247D01*
X192350901Y-137601746D01*
X192338710Y-137632685D01*
X192337644Y-137633751D01*
X189576000Y-140301249D01*
X189576000Y-140301250D01*
X192337644Y-142968748D01*
X192350901Y-142999247D01*
X192338710Y-143030186D01*
X192337644Y-143031252D01*
X189576000Y-145698749D01*
X189576000Y-145698750D01*
X192337644Y-148366248D01*
X192350901Y-148396747D01*
X192338710Y-148427686D01*
X192337644Y-148428752D01*
X189579347Y-151093016D01*
X189579347Y-151093018D01*
X192391615Y-153553751D01*
X192406357Y-153583560D01*
X192395702Y-153615062D01*
X192365893Y-153629804D01*
X192363003Y-153629900D01*
X189049961Y-153629900D01*
X189021349Y-153619149D01*
X188980676Y-153583560D01*
X186177294Y-151130601D01*
X186162553Y-151100793D01*
X186173208Y-151069291D01*
X186175712Y-151066660D01*
X188939078Y-148397500D01*
X186177432Y-145730001D01*
X186164176Y-145699503D01*
X186176367Y-145668564D01*
X186177433Y-145667498D01*
X188939078Y-143000000D01*
X188939078Y-142999999D01*
X186177433Y-140332502D01*
X186164176Y-140302003D01*
X186176367Y-140271064D01*
X186177433Y-140269998D01*
X188939078Y-137602503D01*
X188939078Y-137602496D01*
X186175721Y-134933348D01*
X186162464Y-134902849D01*
X186174655Y-134871910D01*
X186177275Y-134869415D01*
X189021349Y-132380850D01*
X189049961Y-132370100D01*
X192363003Y-132370100D01*
X192393727Y-132382826D01*
G37*
%TD.AperFunction*%
%TD*%
%TA.AperFunction,Conductor*%
%TO.N,/Capacitive_Touch_Sensor/SENSE20*%
G36*
X184519727Y-132382826D02*
G01*
X184532453Y-132413550D01*
X184519727Y-132444274D01*
X184517615Y-132446249D01*
X181705347Y-134906981D01*
X181705347Y-134906983D01*
X184463644Y-137571247D01*
X184476901Y-137601746D01*
X184464710Y-137632685D01*
X184463644Y-137633751D01*
X181702000Y-140301249D01*
X181702000Y-140301250D01*
X184463644Y-142968748D01*
X184476901Y-142999247D01*
X184464710Y-143030186D01*
X184463644Y-143031252D01*
X181702000Y-145698749D01*
X181702000Y-145698750D01*
X184463644Y-148366248D01*
X184476901Y-148396747D01*
X184464710Y-148427686D01*
X184463644Y-148428752D01*
X181705347Y-151093016D01*
X181705347Y-151093018D01*
X184517615Y-153553751D01*
X184532357Y-153583560D01*
X184521702Y-153615062D01*
X184491893Y-153629804D01*
X184489003Y-153629900D01*
X181175961Y-153629900D01*
X181147349Y-153619149D01*
X181106676Y-153583560D01*
X178303294Y-151130601D01*
X178288553Y-151100793D01*
X178299208Y-151069291D01*
X178301712Y-151066660D01*
X181065078Y-148397500D01*
X178303432Y-145730001D01*
X178290176Y-145699503D01*
X178302367Y-145668564D01*
X178303433Y-145667498D01*
X181065078Y-143000000D01*
X181065078Y-142999999D01*
X178303433Y-140332501D01*
X178290176Y-140302002D01*
X178302367Y-140271063D01*
X178303403Y-140270026D01*
X181065078Y-137602500D01*
X178301721Y-134933348D01*
X178288464Y-134902849D01*
X178300655Y-134871910D01*
X178303275Y-134869415D01*
X181147349Y-132380850D01*
X181175961Y-132370100D01*
X184489003Y-132370100D01*
X184519727Y-132382826D01*
G37*
%TD.AperFunction*%
%TD*%
%TA.AperFunction,Conductor*%
%TO.N,/Capacitive_Touch_Sensor/SENSE8*%
G36*
X137275727Y-132382826D02*
G01*
X137288453Y-132413550D01*
X137275727Y-132444274D01*
X137273615Y-132446249D01*
X134461347Y-134906981D01*
X134461347Y-134906983D01*
X137219644Y-137571247D01*
X137232901Y-137601746D01*
X137220710Y-137632685D01*
X137219644Y-137633751D01*
X134458000Y-140301249D01*
X134458000Y-140301250D01*
X137219644Y-142968748D01*
X137232901Y-142999247D01*
X137220710Y-143030186D01*
X137219644Y-143031252D01*
X134458000Y-145698749D01*
X134458000Y-145698750D01*
X137219644Y-148366248D01*
X137232901Y-148396747D01*
X137220710Y-148427686D01*
X137219644Y-148428752D01*
X134461347Y-151093016D01*
X134461347Y-151093018D01*
X137273615Y-153553751D01*
X137288357Y-153583560D01*
X137277702Y-153615062D01*
X137247893Y-153629804D01*
X137245003Y-153629900D01*
X133931961Y-153629900D01*
X133903349Y-153619149D01*
X133862676Y-153583560D01*
X131059294Y-151130601D01*
X131044553Y-151100793D01*
X131055208Y-151069291D01*
X131057712Y-151066660D01*
X133821078Y-148397500D01*
X131059432Y-145730001D01*
X131046176Y-145699503D01*
X131058367Y-145668564D01*
X131059433Y-145667498D01*
X133821078Y-143000000D01*
X133821078Y-142999999D01*
X131059433Y-140332502D01*
X131046176Y-140302003D01*
X131058367Y-140271064D01*
X131059433Y-140269998D01*
X133821078Y-137602501D01*
X133821078Y-137602498D01*
X131057721Y-134933348D01*
X131044464Y-134902849D01*
X131056655Y-134871910D01*
X131059275Y-134869415D01*
X133903349Y-132380850D01*
X133931961Y-132370100D01*
X137245003Y-132370100D01*
X137275727Y-132382826D01*
G37*
%TD.AperFunction*%
%TD*%
%TA.AperFunction,Conductor*%
%TO.N,/Capacitive_Touch_Sensor/SENSE23*%
G36*
X196330727Y-132382826D02*
G01*
X196343453Y-132413550D01*
X196330727Y-132444274D01*
X196328615Y-132446249D01*
X193516347Y-134906981D01*
X193516347Y-134906983D01*
X196274644Y-137571247D01*
X196287901Y-137601746D01*
X196275710Y-137632685D01*
X196274644Y-137633751D01*
X193513000Y-140301249D01*
X193513000Y-140301250D01*
X196274644Y-142968748D01*
X196287901Y-142999247D01*
X196275710Y-143030186D01*
X196274644Y-143031252D01*
X193513000Y-145698749D01*
X193513000Y-145698750D01*
X196274644Y-148366248D01*
X196287901Y-148396747D01*
X196275710Y-148427686D01*
X196274644Y-148428752D01*
X193516347Y-151093016D01*
X193516347Y-151093018D01*
X196328615Y-153553751D01*
X196343357Y-153583560D01*
X196332702Y-153615062D01*
X196302893Y-153629804D01*
X196300003Y-153629900D01*
X192986961Y-153629900D01*
X192958349Y-153619149D01*
X192917676Y-153583560D01*
X190114294Y-151130601D01*
X190099553Y-151100793D01*
X190110208Y-151069291D01*
X190112712Y-151066660D01*
X192876078Y-148397500D01*
X190114432Y-145730001D01*
X190101176Y-145699503D01*
X190113367Y-145668564D01*
X190114433Y-145667498D01*
X192876078Y-143000000D01*
X192876078Y-142999999D01*
X190114433Y-140332502D01*
X190101176Y-140302003D01*
X190113367Y-140271064D01*
X190114433Y-140269998D01*
X192876078Y-137602503D01*
X192876078Y-137602496D01*
X190112721Y-134933348D01*
X190099464Y-134902849D01*
X190111655Y-134871910D01*
X190114275Y-134869415D01*
X192958349Y-132380850D01*
X192986961Y-132370100D01*
X196300003Y-132370100D01*
X196330727Y-132382826D01*
G37*
%TD.AperFunction*%
%TD*%
%TA.AperFunction,Conductor*%
%TO.N,/Capacitive_Touch_Sensor/SENSE26*%
G36*
X204693142Y-132493316D02*
G01*
X205226230Y-132685988D01*
X205234575Y-132690060D01*
X205468655Y-132837147D01*
X205473642Y-132840802D01*
X205683156Y-133018645D01*
X205687580Y-133022979D01*
X205869651Y-133228828D01*
X205873416Y-133233753D01*
X206024331Y-133463407D01*
X206027358Y-133468818D01*
X206144059Y-133717622D01*
X206146284Y-133723408D01*
X206226384Y-133986275D01*
X206227764Y-133992319D01*
X206269642Y-134263923D01*
X206270147Y-134270102D01*
X206272945Y-134544900D01*
X206272565Y-134551087D01*
X206237439Y-134814396D01*
X206237439Y-151185603D01*
X206272565Y-151448912D01*
X206272945Y-151455099D01*
X206270147Y-151729897D01*
X206269642Y-151736076D01*
X206227764Y-152007680D01*
X206226384Y-152013724D01*
X206146284Y-152276591D01*
X206144059Y-152282377D01*
X206027358Y-152531181D01*
X206024331Y-152536592D01*
X205873416Y-152766246D01*
X205869651Y-152771171D01*
X205687580Y-152977020D01*
X205683152Y-152981358D01*
X205473649Y-153159192D01*
X205468648Y-153162857D01*
X205235959Y-153309070D01*
X205230488Y-153311985D01*
X204979367Y-153423592D01*
X204973537Y-153425699D01*
X204688579Y-153506228D01*
X204655552Y-153502337D01*
X204648262Y-153497212D01*
X203810143Y-152768847D01*
X201925285Y-151130815D01*
X201910442Y-151101056D01*
X201920990Y-151069518D01*
X201923591Y-151066775D01*
X204687078Y-148397500D01*
X201925432Y-145730001D01*
X201912176Y-145699503D01*
X201924367Y-145668564D01*
X201925433Y-145667498D01*
X204687078Y-143000000D01*
X204687078Y-142999999D01*
X201925433Y-140332501D01*
X201912176Y-140302002D01*
X201924367Y-140271063D01*
X201925403Y-140270026D01*
X204687078Y-137602500D01*
X201923600Y-134933232D01*
X201910343Y-134902733D01*
X201922534Y-134871794D01*
X201925273Y-134869194D01*
X204649878Y-132501383D01*
X204681415Y-132490836D01*
X204693142Y-132493316D01*
G37*
%TD.AperFunction*%
%TD*%
%TA.AperFunction,Conductor*%
%TO.N,/Capacitive_Touch_Sensor/SENSE17*%
G36*
X172708727Y-132382826D02*
G01*
X172721453Y-132413550D01*
X172708727Y-132444274D01*
X172706615Y-132446249D01*
X169894347Y-134906981D01*
X169894347Y-134906983D01*
X172652644Y-137571247D01*
X172665901Y-137601746D01*
X172653710Y-137632685D01*
X172652644Y-137633751D01*
X169891000Y-140301249D01*
X169891000Y-140301250D01*
X172652644Y-142968748D01*
X172665901Y-142999247D01*
X172653710Y-143030186D01*
X172652644Y-143031252D01*
X169891000Y-145698749D01*
X169891000Y-145698750D01*
X172652644Y-148366248D01*
X172665901Y-148396747D01*
X172653710Y-148427686D01*
X172652644Y-148428752D01*
X169894347Y-151093016D01*
X169894347Y-151093018D01*
X172706615Y-153553751D01*
X172721357Y-153583560D01*
X172710702Y-153615062D01*
X172680893Y-153629804D01*
X172678003Y-153629900D01*
X169364961Y-153629900D01*
X169336349Y-153619149D01*
X169295676Y-153583560D01*
X166492294Y-151130601D01*
X166477553Y-151100793D01*
X166488208Y-151069291D01*
X166490712Y-151066660D01*
X167673894Y-149923813D01*
X169254078Y-148397501D01*
X169254078Y-148397498D01*
X166492433Y-145730001D01*
X166479176Y-145699502D01*
X166491367Y-145668563D01*
X166492403Y-145667526D01*
X169254078Y-143000000D01*
X169254078Y-142999999D01*
X166492433Y-140332502D01*
X166479176Y-140302003D01*
X166491367Y-140271064D01*
X166492433Y-140269998D01*
X169254078Y-137602501D01*
X169254078Y-137602498D01*
X166490721Y-134933348D01*
X166477464Y-134902849D01*
X166489655Y-134871910D01*
X166492275Y-134869415D01*
X169336349Y-132380850D01*
X169364961Y-132370100D01*
X172678003Y-132370100D01*
X172708727Y-132382826D01*
G37*
%TD.AperFunction*%
%TD*%
%TA.AperFunction,Conductor*%
%TO.N,/Capacitive_Touch_Sensor/SENSE5*%
G36*
X125464727Y-132382826D02*
G01*
X125477453Y-132413550D01*
X125464727Y-132444274D01*
X125462615Y-132446249D01*
X122650347Y-134906981D01*
X122650347Y-134906983D01*
X125408644Y-137571247D01*
X125421901Y-137601746D01*
X125409710Y-137632685D01*
X125408644Y-137633751D01*
X122647000Y-140301249D01*
X122647000Y-140301250D01*
X125408644Y-142968748D01*
X125421901Y-142999247D01*
X125409710Y-143030186D01*
X125408644Y-143031252D01*
X122647000Y-145698749D01*
X122647000Y-145698750D01*
X125408644Y-148366248D01*
X125421901Y-148396747D01*
X125409710Y-148427686D01*
X125408644Y-148428752D01*
X122650347Y-151093016D01*
X122650347Y-151093018D01*
X125462615Y-153553751D01*
X125477357Y-153583560D01*
X125466702Y-153615062D01*
X125436893Y-153629804D01*
X125434003Y-153629900D01*
X122120961Y-153629900D01*
X122092349Y-153619149D01*
X122051676Y-153583560D01*
X119248294Y-151130601D01*
X119233553Y-151100793D01*
X119244208Y-151069291D01*
X119246712Y-151066660D01*
X120429894Y-149923813D01*
X122010078Y-148397501D01*
X122010078Y-148397498D01*
X119248433Y-145730001D01*
X119235176Y-145699502D01*
X119247367Y-145668563D01*
X119248403Y-145667526D01*
X122010078Y-143000000D01*
X122010078Y-142999999D01*
X119248433Y-140332501D01*
X119235176Y-140302002D01*
X119247367Y-140271063D01*
X119248403Y-140270026D01*
X122010078Y-137602500D01*
X119246721Y-134933348D01*
X119233464Y-134902849D01*
X119245655Y-134871910D01*
X119248275Y-134869415D01*
X122092349Y-132380850D01*
X122120961Y-132370100D01*
X125434003Y-132370100D01*
X125464727Y-132382826D01*
G37*
%TD.AperFunction*%
%TD*%
%TA.AperFunction,Conductor*%
%TO.N,/Capacitive_Touch_Sensor/SENSE3*%
G36*
X117590727Y-132382826D02*
G01*
X117603453Y-132413550D01*
X117590727Y-132444274D01*
X117588615Y-132446249D01*
X114776347Y-134906981D01*
X114776347Y-134906983D01*
X117534644Y-137571247D01*
X117547901Y-137601746D01*
X117535710Y-137632685D01*
X117534644Y-137633751D01*
X114773000Y-140301249D01*
X114773000Y-140301250D01*
X117534644Y-142968748D01*
X117547901Y-142999247D01*
X117535710Y-143030186D01*
X117534644Y-143031252D01*
X114773000Y-145698749D01*
X114773000Y-145698750D01*
X117534644Y-148366248D01*
X117547901Y-148396747D01*
X117535710Y-148427686D01*
X117534644Y-148428752D01*
X114776347Y-151093016D01*
X114776347Y-151093018D01*
X117588615Y-153553751D01*
X117603357Y-153583560D01*
X117592702Y-153615062D01*
X117562893Y-153629804D01*
X117560003Y-153629900D01*
X114246961Y-153629900D01*
X114218349Y-153619149D01*
X114177676Y-153583560D01*
X111374294Y-151130601D01*
X111359553Y-151100793D01*
X111370208Y-151069291D01*
X111372712Y-151066660D01*
X114136078Y-148397500D01*
X111374432Y-145730001D01*
X111361176Y-145699503D01*
X111373367Y-145668564D01*
X111374433Y-145667498D01*
X114136078Y-143000000D01*
X114136078Y-142999999D01*
X111374433Y-140332501D01*
X111361176Y-140302002D01*
X111373367Y-140271063D01*
X111374403Y-140270026D01*
X114136078Y-137602500D01*
X111372721Y-134933348D01*
X111359464Y-134902849D01*
X111371655Y-134871910D01*
X111374275Y-134869415D01*
X114218349Y-132380850D01*
X114246961Y-132370100D01*
X117560003Y-132370100D01*
X117590727Y-132382826D01*
G37*
%TD.AperFunction*%
%TD*%
%TA.AperFunction,Conductor*%
%TO.N,/Capacitive_Touch_Sensor/SENSE10*%
G36*
X145149727Y-132382826D02*
G01*
X145162453Y-132413550D01*
X145149727Y-132444274D01*
X145147615Y-132446249D01*
X142335347Y-134906981D01*
X142335347Y-134906983D01*
X145093644Y-137571247D01*
X145106901Y-137601746D01*
X145094710Y-137632685D01*
X145093644Y-137633751D01*
X142332000Y-140301249D01*
X142332000Y-140301250D01*
X145093644Y-142968748D01*
X145106901Y-142999247D01*
X145094710Y-143030186D01*
X145093644Y-143031252D01*
X142332000Y-145698749D01*
X142332000Y-145698750D01*
X145093644Y-148366248D01*
X145106901Y-148396747D01*
X145094710Y-148427686D01*
X145093644Y-148428752D01*
X142335347Y-151093016D01*
X142335347Y-151093018D01*
X145147615Y-153553751D01*
X145162357Y-153583560D01*
X145151702Y-153615062D01*
X145121893Y-153629804D01*
X145119003Y-153629900D01*
X141805961Y-153629900D01*
X141777349Y-153619149D01*
X141736676Y-153583560D01*
X138933294Y-151130601D01*
X138918553Y-151100793D01*
X138929208Y-151069291D01*
X138931712Y-151066660D01*
X140114894Y-149923813D01*
X141695078Y-148397501D01*
X141695078Y-148397498D01*
X138933433Y-145730001D01*
X138920176Y-145699502D01*
X138932367Y-145668563D01*
X138933403Y-145667526D01*
X141695078Y-143000000D01*
X141695078Y-142999999D01*
X138933433Y-140332501D01*
X138920176Y-140302002D01*
X138932367Y-140271063D01*
X138933403Y-140270026D01*
X141695078Y-137602500D01*
X138931721Y-134933348D01*
X138918464Y-134902849D01*
X138930655Y-134871910D01*
X138933275Y-134869415D01*
X141777349Y-132380850D01*
X141805961Y-132370100D01*
X145119003Y-132370100D01*
X145149727Y-132382826D01*
G37*
%TD.AperFunction*%
%TD*%
%TA.AperFunction,Conductor*%
%TO.N,/Capacitive_Touch_Sensor/SENSE4*%
G36*
X121527727Y-132382826D02*
G01*
X121540453Y-132413550D01*
X121527727Y-132444274D01*
X121525615Y-132446249D01*
X118713347Y-134906981D01*
X118713347Y-134906983D01*
X121471644Y-137571247D01*
X121484901Y-137601746D01*
X121472710Y-137632685D01*
X121471644Y-137633751D01*
X118710000Y-140301249D01*
X118710000Y-140301250D01*
X121471644Y-142968748D01*
X121484901Y-142999247D01*
X121472710Y-143030186D01*
X121471644Y-143031252D01*
X118710000Y-145698749D01*
X118710000Y-145698750D01*
X121471644Y-148366248D01*
X121484901Y-148396747D01*
X121472710Y-148427686D01*
X121471644Y-148428752D01*
X118713347Y-151093016D01*
X118713347Y-151093018D01*
X121525615Y-153553751D01*
X121540357Y-153583560D01*
X121529702Y-153615062D01*
X121499893Y-153629804D01*
X121497003Y-153629900D01*
X118183961Y-153629900D01*
X118155349Y-153619149D01*
X118114676Y-153583560D01*
X115311294Y-151130601D01*
X115296553Y-151100793D01*
X115307208Y-151069291D01*
X115309712Y-151066660D01*
X116492894Y-149923813D01*
X118073078Y-148397501D01*
X118073078Y-148397498D01*
X115311433Y-145730001D01*
X115298176Y-145699502D01*
X115310367Y-145668563D01*
X115311403Y-145667526D01*
X118073078Y-143000000D01*
X118073078Y-142999999D01*
X115311433Y-140332501D01*
X115298176Y-140302002D01*
X115310367Y-140271063D01*
X115311403Y-140270026D01*
X118073078Y-137602500D01*
X115309721Y-134933348D01*
X115296464Y-134902849D01*
X115308655Y-134871910D01*
X115311275Y-134869415D01*
X118155349Y-132380850D01*
X118183961Y-132370100D01*
X121497003Y-132370100D01*
X121527727Y-132382826D01*
G37*
%TD.AperFunction*%
%TD*%
%TA.AperFunction,Conductor*%
%TO.N,/Capacitive_Touch_Sensor/SENSE9*%
G36*
X141212727Y-132382826D02*
G01*
X141225453Y-132413550D01*
X141212727Y-132444274D01*
X141210615Y-132446249D01*
X138398347Y-134906981D01*
X138398347Y-134906983D01*
X141156644Y-137571247D01*
X141169901Y-137601746D01*
X141157710Y-137632685D01*
X141156644Y-137633751D01*
X138395000Y-140301249D01*
X138395000Y-140301250D01*
X141156644Y-142968748D01*
X141169901Y-142999247D01*
X141157710Y-143030186D01*
X141156644Y-143031252D01*
X138395000Y-145698749D01*
X138395000Y-145698750D01*
X141156644Y-148366248D01*
X141169901Y-148396747D01*
X141157710Y-148427686D01*
X141156644Y-148428752D01*
X138398347Y-151093016D01*
X138398347Y-151093018D01*
X141210615Y-153553751D01*
X141225357Y-153583560D01*
X141214702Y-153615062D01*
X141184893Y-153629804D01*
X141182003Y-153629900D01*
X137868961Y-153629900D01*
X137840349Y-153619149D01*
X137799676Y-153583560D01*
X134996294Y-151130601D01*
X134981553Y-151100793D01*
X134992208Y-151069291D01*
X134994712Y-151066660D01*
X136177894Y-149923813D01*
X137758078Y-148397501D01*
X137758078Y-148397498D01*
X134996433Y-145730001D01*
X134983176Y-145699502D01*
X134995367Y-145668563D01*
X134996403Y-145667526D01*
X137758078Y-143000000D01*
X137758078Y-142999999D01*
X134996433Y-140332502D01*
X134983176Y-140302003D01*
X134995367Y-140271064D01*
X134996433Y-140269998D01*
X137758078Y-137602501D01*
X137758078Y-137602498D01*
X134994721Y-134933348D01*
X134981464Y-134902849D01*
X134993655Y-134871910D01*
X134996275Y-134869415D01*
X137840349Y-132380850D01*
X137868961Y-132370100D01*
X141182003Y-132370100D01*
X141212727Y-132382826D01*
G37*
%TD.AperFunction*%
%TD*%
%TA.AperFunction,Conductor*%
%TO.N,/Capacitive_Touch_Sensor/SENSE7*%
G36*
X133338727Y-132382826D02*
G01*
X133351453Y-132413550D01*
X133338727Y-132444274D01*
X133336615Y-132446249D01*
X130524347Y-134906981D01*
X130524347Y-134906983D01*
X133282644Y-137571247D01*
X133295901Y-137601746D01*
X133283710Y-137632685D01*
X133282644Y-137633751D01*
X130521000Y-140301249D01*
X130521000Y-140301250D01*
X133282644Y-142968748D01*
X133295901Y-142999247D01*
X133283710Y-143030186D01*
X133282644Y-143031252D01*
X130521000Y-145698749D01*
X130521000Y-145698750D01*
X133282644Y-148366248D01*
X133295901Y-148396747D01*
X133283710Y-148427686D01*
X133282644Y-148428752D01*
X130524347Y-151093016D01*
X130524347Y-151093018D01*
X133336615Y-153553751D01*
X133351357Y-153583560D01*
X133340702Y-153615062D01*
X133310893Y-153629804D01*
X133308003Y-153629900D01*
X129994961Y-153629900D01*
X129966349Y-153619149D01*
X129925676Y-153583560D01*
X127122294Y-151130601D01*
X127107553Y-151100793D01*
X127118208Y-151069291D01*
X127120712Y-151066660D01*
X128303894Y-149923813D01*
X129884078Y-148397501D01*
X129884078Y-148397498D01*
X127122433Y-145730001D01*
X127109176Y-145699502D01*
X127121367Y-145668563D01*
X127122403Y-145667526D01*
X129884078Y-143000000D01*
X129884078Y-142999999D01*
X127122433Y-140332501D01*
X127109176Y-140302002D01*
X127121367Y-140271063D01*
X127122403Y-140270026D01*
X129884078Y-137602500D01*
X127120721Y-134933348D01*
X127107464Y-134902849D01*
X127119655Y-134871910D01*
X127122275Y-134869415D01*
X129966349Y-132380850D01*
X129994961Y-132370100D01*
X133308003Y-132370100D01*
X133338727Y-132382826D01*
G37*
%TD.AperFunction*%
%TD*%
%TA.AperFunction,Conductor*%
%TO.N,/Capacitive_Touch_Sensor/SENSE18*%
G36*
X176645727Y-132382826D02*
G01*
X176658453Y-132413550D01*
X176645727Y-132444274D01*
X176643615Y-132446249D01*
X173831347Y-134906981D01*
X173831347Y-134906983D01*
X176589644Y-137571247D01*
X176602901Y-137601746D01*
X176590710Y-137632685D01*
X176589644Y-137633751D01*
X173828000Y-140301249D01*
X173828000Y-140301250D01*
X176589644Y-142968748D01*
X176602901Y-142999247D01*
X176590710Y-143030186D01*
X176589644Y-143031252D01*
X173828000Y-145698749D01*
X173828000Y-145698750D01*
X176589644Y-148366248D01*
X176602901Y-148396747D01*
X176590710Y-148427686D01*
X176589644Y-148428752D01*
X173831347Y-151093016D01*
X173831347Y-151093018D01*
X176643615Y-153553751D01*
X176658357Y-153583560D01*
X176647702Y-153615062D01*
X176617893Y-153629804D01*
X176615003Y-153629900D01*
X173301961Y-153629900D01*
X173273349Y-153619149D01*
X173232676Y-153583560D01*
X170429294Y-151130601D01*
X170414553Y-151100793D01*
X170425208Y-151069291D01*
X170427712Y-151066660D01*
X173191078Y-148397500D01*
X170429432Y-145730001D01*
X170416176Y-145699503D01*
X170428367Y-145668564D01*
X170429433Y-145667498D01*
X173191078Y-143000000D01*
X173191078Y-142999999D01*
X170429433Y-140332501D01*
X170416176Y-140302002D01*
X170428367Y-140271063D01*
X170429403Y-140270026D01*
X173191078Y-137602500D01*
X170427721Y-134933348D01*
X170414464Y-134902849D01*
X170426655Y-134871910D01*
X170429275Y-134869415D01*
X173273349Y-132380850D01*
X173301961Y-132370100D01*
X176615003Y-132370100D01*
X176645727Y-132382826D01*
G37*
%TD.AperFunction*%
%TD*%
%TA.AperFunction,Conductor*%
%TO.N,/Capacitive_Touch_Sensor/SENSE11*%
G36*
X149086727Y-132382826D02*
G01*
X149099453Y-132413550D01*
X149086727Y-132444274D01*
X149084615Y-132446249D01*
X146272347Y-134906981D01*
X146272347Y-134906983D01*
X149030644Y-137571247D01*
X149043901Y-137601746D01*
X149031710Y-137632685D01*
X149030644Y-137633751D01*
X146269000Y-140301249D01*
X146269000Y-140301250D01*
X149030644Y-142968748D01*
X149043901Y-142999247D01*
X149031710Y-143030186D01*
X149030644Y-143031252D01*
X146269000Y-145698749D01*
X146269000Y-145698750D01*
X149030644Y-148366248D01*
X149043901Y-148396747D01*
X149031710Y-148427686D01*
X149030644Y-148428752D01*
X146272347Y-151093016D01*
X146272347Y-151093018D01*
X149084615Y-153553751D01*
X149099357Y-153583560D01*
X149088702Y-153615062D01*
X149058893Y-153629804D01*
X149056003Y-153629900D01*
X145742961Y-153629900D01*
X145714349Y-153619149D01*
X145673676Y-153583560D01*
X142870294Y-151130601D01*
X142855553Y-151100793D01*
X142866208Y-151069291D01*
X142868712Y-151066660D01*
X145632078Y-148397500D01*
X142870432Y-145730001D01*
X142857176Y-145699503D01*
X142869367Y-145668564D01*
X142870433Y-145667498D01*
X145632078Y-143000000D01*
X145632078Y-142999999D01*
X142870433Y-140332502D01*
X142857176Y-140302003D01*
X142869367Y-140271064D01*
X142870433Y-140269998D01*
X145632078Y-137602501D01*
X145632078Y-137602498D01*
X142868721Y-134933348D01*
X142855464Y-134902849D01*
X142867655Y-134871910D01*
X142870275Y-134869415D01*
X145714349Y-132380850D01*
X145742961Y-132370100D01*
X149056003Y-132370100D01*
X149086727Y-132382826D01*
G37*
%TD.AperFunction*%
%TD*%
%TA.AperFunction,Conductor*%
%TO.N,/Capacitive_Touch_Sensor/SENSE13*%
G36*
X156960727Y-132382826D02*
G01*
X156973453Y-132413550D01*
X156960727Y-132444274D01*
X156958615Y-132446249D01*
X154146347Y-134906981D01*
X154146347Y-134906983D01*
X156904644Y-137571247D01*
X156917901Y-137601746D01*
X156905710Y-137632685D01*
X156904644Y-137633751D01*
X154143000Y-140301249D01*
X154143000Y-140301250D01*
X156904644Y-142968748D01*
X156917901Y-142999247D01*
X156905710Y-143030186D01*
X156904644Y-143031252D01*
X154143000Y-145698749D01*
X154143000Y-145698750D01*
X156904644Y-148366248D01*
X156917901Y-148396747D01*
X156905710Y-148427686D01*
X156904644Y-148428752D01*
X154146347Y-151093016D01*
X154146347Y-151093018D01*
X156958615Y-153553751D01*
X156973357Y-153583560D01*
X156962702Y-153615062D01*
X156932893Y-153629804D01*
X156930003Y-153629900D01*
X153616961Y-153629900D01*
X153588349Y-153619149D01*
X153547676Y-153583560D01*
X150744294Y-151130601D01*
X150729553Y-151100793D01*
X150740208Y-151069291D01*
X150742712Y-151066660D01*
X151925894Y-149923813D01*
X153506078Y-148397501D01*
X153506078Y-148397498D01*
X150744433Y-145730001D01*
X150731176Y-145699502D01*
X150743367Y-145668563D01*
X150744403Y-145667526D01*
X153506078Y-143000000D01*
X153506078Y-142999999D01*
X150744433Y-140332502D01*
X150731176Y-140302003D01*
X150743367Y-140271064D01*
X150744433Y-140269998D01*
X153506078Y-137602501D01*
X153506078Y-137602498D01*
X150742721Y-134933348D01*
X150729464Y-134902849D01*
X150741655Y-134871910D01*
X150744275Y-134869415D01*
X153588349Y-132380850D01*
X153616961Y-132370100D01*
X156930003Y-132370100D01*
X156960727Y-132382826D01*
G37*
%TD.AperFunction*%
%TD*%
%TA.AperFunction,Conductor*%
%TO.N,/Capacitive_Touch_Sensor/SENSE12*%
G36*
X153023727Y-132382826D02*
G01*
X153036453Y-132413550D01*
X153023727Y-132444274D01*
X153021615Y-132446249D01*
X150209347Y-134906981D01*
X150209347Y-134906983D01*
X152967644Y-137571247D01*
X152980901Y-137601746D01*
X152968710Y-137632685D01*
X152967644Y-137633751D01*
X150206000Y-140301249D01*
X150206000Y-140301250D01*
X152967644Y-142968748D01*
X152980901Y-142999247D01*
X152968710Y-143030186D01*
X152967644Y-143031252D01*
X150206000Y-145698749D01*
X150206000Y-145698750D01*
X152967644Y-148366248D01*
X152980901Y-148396747D01*
X152968710Y-148427686D01*
X152967644Y-148428752D01*
X150209347Y-151093016D01*
X150209347Y-151093018D01*
X153021615Y-153553751D01*
X153036357Y-153583560D01*
X153025702Y-153615062D01*
X152995893Y-153629804D01*
X152993003Y-153629900D01*
X149679961Y-153629900D01*
X149651349Y-153619149D01*
X149610676Y-153583560D01*
X146807294Y-151130601D01*
X146792553Y-151100793D01*
X146803208Y-151069291D01*
X146805712Y-151066660D01*
X149569078Y-148397500D01*
X146807432Y-145730001D01*
X146794176Y-145699503D01*
X146806367Y-145668564D01*
X146807433Y-145667498D01*
X149569078Y-143000000D01*
X149569078Y-142999999D01*
X146807433Y-140332502D01*
X146794176Y-140302003D01*
X146806367Y-140271064D01*
X146807433Y-140269998D01*
X149569078Y-137602501D01*
X149569078Y-137602498D01*
X146805721Y-134933348D01*
X146792464Y-134902849D01*
X146804655Y-134871910D01*
X146807275Y-134869415D01*
X149651349Y-132380850D01*
X149679961Y-132370100D01*
X152993003Y-132370100D01*
X153023727Y-132382826D01*
G37*
%TD.AperFunction*%
%TD*%
%TA.AperFunction,Conductor*%
%TO.N,/Capacitive_Touch_Sensor/SENSE2*%
G36*
X113653727Y-132382826D02*
G01*
X113666453Y-132413550D01*
X113653727Y-132444274D01*
X113651615Y-132446249D01*
X110839347Y-134906981D01*
X110839347Y-134906983D01*
X113597644Y-137571247D01*
X113610901Y-137601746D01*
X113598710Y-137632685D01*
X113597644Y-137633751D01*
X110836000Y-140301249D01*
X110836000Y-140301250D01*
X113597644Y-142968748D01*
X113610901Y-142999247D01*
X113598710Y-143030186D01*
X113597644Y-143031252D01*
X110836000Y-145698749D01*
X110836000Y-145698750D01*
X113597644Y-148366248D01*
X113610901Y-148396747D01*
X113598710Y-148427686D01*
X113597644Y-148428752D01*
X110839347Y-151093016D01*
X110839347Y-151093018D01*
X113651615Y-153553751D01*
X113666357Y-153583560D01*
X113655702Y-153615062D01*
X113625893Y-153629804D01*
X113623003Y-153629900D01*
X110309961Y-153629900D01*
X110281349Y-153619149D01*
X110240676Y-153583560D01*
X107437294Y-151130601D01*
X107422553Y-151100793D01*
X107433208Y-151069291D01*
X107435712Y-151066660D01*
X110199078Y-148397500D01*
X107437432Y-145730001D01*
X107424176Y-145699503D01*
X107436367Y-145668564D01*
X107437433Y-145667498D01*
X110199078Y-143000000D01*
X110199078Y-142999999D01*
X107437433Y-140332501D01*
X107424176Y-140302002D01*
X107436367Y-140271063D01*
X107437403Y-140270026D01*
X110199078Y-137602500D01*
X107435721Y-134933348D01*
X107422464Y-134902849D01*
X107434655Y-134871910D01*
X107437275Y-134869415D01*
X110281349Y-132380850D01*
X110309961Y-132370100D01*
X113623003Y-132370100D01*
X113653727Y-132382826D01*
G37*
%TD.AperFunction*%
%TD*%
%TA.AperFunction,Conductor*%
%TO.N,/Capacitive_Touch_Sensor/SENSE19*%
G36*
X180582727Y-132382826D02*
G01*
X180595453Y-132413550D01*
X180582727Y-132444274D01*
X180580615Y-132446249D01*
X177768347Y-134906981D01*
X177768347Y-134906983D01*
X180526644Y-137571247D01*
X180539901Y-137601746D01*
X180527710Y-137632685D01*
X180526644Y-137633751D01*
X177765000Y-140301249D01*
X177765000Y-140301250D01*
X180526644Y-142968748D01*
X180539901Y-142999247D01*
X180527710Y-143030186D01*
X180526644Y-143031252D01*
X177765000Y-145698749D01*
X177765000Y-145698750D01*
X180526644Y-148366248D01*
X180539901Y-148396747D01*
X180527710Y-148427686D01*
X180526644Y-148428752D01*
X177768347Y-151093016D01*
X177768347Y-151093018D01*
X180580615Y-153553751D01*
X180595357Y-153583560D01*
X180584702Y-153615062D01*
X180554893Y-153629804D01*
X180552003Y-153629900D01*
X177238961Y-153629900D01*
X177210349Y-153619149D01*
X177169676Y-153583560D01*
X174366294Y-151130601D01*
X174351553Y-151100793D01*
X174362208Y-151069291D01*
X174364712Y-151066660D01*
X177128078Y-148397500D01*
X174366432Y-145730001D01*
X174353176Y-145699503D01*
X174365367Y-145668564D01*
X174366433Y-145667498D01*
X177128078Y-143000000D01*
X177128078Y-142999999D01*
X174366433Y-140332501D01*
X174353176Y-140302002D01*
X174365367Y-140271063D01*
X174366403Y-140270026D01*
X177128078Y-137602500D01*
X174364721Y-134933348D01*
X174351464Y-134902849D01*
X174363655Y-134871910D01*
X174366275Y-134869415D01*
X177210349Y-132380850D01*
X177238961Y-132370100D01*
X180552003Y-132370100D01*
X180582727Y-132382826D01*
G37*
%TD.AperFunction*%
%TD*%
%TA.AperFunction,Conductor*%
%TO.N,/Capacitive_Touch_Sensor/SENSE24*%
G36*
X200267727Y-132382826D02*
G01*
X200280453Y-132413550D01*
X200267727Y-132444274D01*
X200265615Y-132446249D01*
X197453347Y-134906981D01*
X197453347Y-134906983D01*
X200211644Y-137571247D01*
X200224901Y-137601746D01*
X200212710Y-137632685D01*
X200211644Y-137633751D01*
X197450000Y-140301249D01*
X197450000Y-140301250D01*
X200211644Y-142968748D01*
X200224901Y-142999247D01*
X200212710Y-143030186D01*
X200211644Y-143031252D01*
X197450000Y-145698749D01*
X197450000Y-145698750D01*
X200211644Y-148366248D01*
X200224901Y-148396747D01*
X200212710Y-148427686D01*
X200211644Y-148428752D01*
X197453347Y-151093016D01*
X197453347Y-151093018D01*
X200265615Y-153553751D01*
X200280357Y-153583560D01*
X200269702Y-153615062D01*
X200239893Y-153629804D01*
X200237003Y-153629900D01*
X196923961Y-153629900D01*
X196895349Y-153619149D01*
X196854676Y-153583560D01*
X194051294Y-151130601D01*
X194036553Y-151100793D01*
X194047208Y-151069291D01*
X194049712Y-151066660D01*
X196813078Y-148397500D01*
X194051432Y-145730001D01*
X194038176Y-145699503D01*
X194050367Y-145668564D01*
X194051433Y-145667498D01*
X196813078Y-143000000D01*
X196813078Y-142999999D01*
X194051433Y-140332501D01*
X194038176Y-140302002D01*
X194050367Y-140271063D01*
X194051403Y-140270026D01*
X196813078Y-137602500D01*
X194049721Y-134933348D01*
X194036464Y-134902849D01*
X194048655Y-134871910D01*
X194051275Y-134869415D01*
X196895349Y-132380850D01*
X196923961Y-132370100D01*
X200237003Y-132370100D01*
X200267727Y-132382826D01*
G37*
%TD.AperFunction*%
%TD*%
%TA.AperFunction,Conductor*%
%TO.N,/Capacitive_Touch_Sensor/SENSE15*%
G36*
X164834727Y-132382826D02*
G01*
X164847453Y-132413550D01*
X164834727Y-132444274D01*
X164832615Y-132446249D01*
X162020347Y-134906981D01*
X162020347Y-134906983D01*
X164778644Y-137571247D01*
X164791901Y-137601746D01*
X164779710Y-137632685D01*
X164778644Y-137633751D01*
X162017000Y-140301249D01*
X162017000Y-140301250D01*
X164778644Y-142968748D01*
X164791901Y-142999247D01*
X164779710Y-143030186D01*
X164778644Y-143031252D01*
X162017000Y-145698749D01*
X162017000Y-145698750D01*
X164778644Y-148366248D01*
X164791901Y-148396747D01*
X164779710Y-148427686D01*
X164778644Y-148428752D01*
X162020347Y-151093016D01*
X162020347Y-151093018D01*
X164832615Y-153553751D01*
X164847357Y-153583560D01*
X164836702Y-153615062D01*
X164806893Y-153629804D01*
X164804003Y-153629900D01*
X161490961Y-153629900D01*
X161462349Y-153619149D01*
X161421676Y-153583560D01*
X158618294Y-151130601D01*
X158603553Y-151100793D01*
X158614208Y-151069291D01*
X158616712Y-151066660D01*
X161380078Y-148397500D01*
X158618432Y-145730001D01*
X158605176Y-145699503D01*
X158617367Y-145668564D01*
X158618433Y-145667498D01*
X161380078Y-143000000D01*
X161380078Y-142999999D01*
X158618433Y-140332501D01*
X158605176Y-140302002D01*
X158617367Y-140271063D01*
X158618403Y-140270026D01*
X161380078Y-137602500D01*
X158616721Y-134933348D01*
X158603464Y-134902849D01*
X158615655Y-134871910D01*
X158618275Y-134869415D01*
X161462349Y-132380850D01*
X161490961Y-132370100D01*
X164804003Y-132370100D01*
X164834727Y-132382826D01*
G37*
%TD.AperFunction*%
%TD*%
%TA.AperFunction,Conductor*%
%TO.N,/Capacitive_Touch_Sensor/SENSE16*%
G36*
X168771727Y-132382826D02*
G01*
X168784453Y-132413550D01*
X168771727Y-132444274D01*
X168769615Y-132446249D01*
X165957347Y-134906981D01*
X165957347Y-134906983D01*
X168715644Y-137571247D01*
X168728901Y-137601746D01*
X168716710Y-137632685D01*
X168715644Y-137633751D01*
X165954000Y-140301249D01*
X165954000Y-140301250D01*
X168715644Y-142968748D01*
X168728901Y-142999247D01*
X168716710Y-143030186D01*
X168715644Y-143031252D01*
X165954000Y-145698749D01*
X165954000Y-145698750D01*
X168715644Y-148366248D01*
X168728901Y-148396747D01*
X168716710Y-148427686D01*
X168715644Y-148428752D01*
X165957347Y-151093016D01*
X165957347Y-151093018D01*
X168769615Y-153553751D01*
X168784357Y-153583560D01*
X168773702Y-153615062D01*
X168743893Y-153629804D01*
X168741003Y-153629900D01*
X165427961Y-153629900D01*
X165399349Y-153619149D01*
X165358676Y-153583560D01*
X162555294Y-151130601D01*
X162540553Y-151100793D01*
X162551208Y-151069291D01*
X162553712Y-151066660D01*
X165317078Y-148397500D01*
X162555432Y-145730001D01*
X162542176Y-145699503D01*
X162554367Y-145668564D01*
X162555433Y-145667498D01*
X165317078Y-143000000D01*
X165317078Y-142999999D01*
X162555433Y-140332501D01*
X162542176Y-140302002D01*
X162554367Y-140271063D01*
X162555403Y-140270026D01*
X165317078Y-137602500D01*
X162553721Y-134933348D01*
X162540464Y-134902849D01*
X162552655Y-134871910D01*
X162555275Y-134869415D01*
X165399349Y-132380850D01*
X165427961Y-132370100D01*
X168741003Y-132370100D01*
X168771727Y-132382826D01*
G37*
%TD.AperFunction*%
%TD*%
M02*
