M48
; DRILL file {KiCad 9.0.0-9.0.0-2~ubuntu24.04.1} date 2025-04-10T08:36:25-0400
; FORMAT={-:-/ absolute / inch / decimal}
; #@! TF.CreationDate,2025-04-10T08:36:25-04:00
; #@! TF.GenerationSoftware,Kicad,Pcbnew,9.0.0-9.0.0-2~ubuntu24.04.1
; #@! TF.FileFunction,Plated,1,2,PTH
FMAT,2
INCH
; #@! TA.AperFunction,Plated,PTH,ViaDrill
T1C0.0118
%
G90
G05
T1
X4.2323Y-5.8465
X4.3898Y-5.8465
X4.5472Y-5.8465
X4.7047Y-5.8465
X4.8622Y-5.8465
X5.0197Y-5.8465
X5.1772Y-5.8465
X5.3346Y-5.8465
X5.4724Y-5.8465
X5.6299Y-5.8465
X5.7874Y-5.8465
X5.9252Y-5.8465
X6.0827Y-5.8465
X6.2402Y-5.8465
X6.3976Y-5.8465
X6.5551Y-5.8465
X6.7126Y-5.8465
X6.7913Y-5.315
X6.9488Y-5.315
X7.1063Y-5.315
X7.2638Y-5.315
X7.4213Y-5.315
X7.5787Y-5.315
X7.7362Y-5.315
X7.8937Y-5.315
X8.0709Y-5.3189
X8.1417Y-5.4331
X8.1772Y-5.4331
X8.2087Y-5.5709
X8.2087Y-5.6299
X8.2087Y-5.689
X8.2126Y-5.4331
X8.2283Y-5.3937
X8.2283Y-6.0236
X8.2544Y-5.4709
X8.2559Y-5.7874
X8.2677Y-5.5709
X8.2677Y-5.6299
X8.2677Y-5.689
X8.2913Y-5.4724
X8.3061Y-5.4242
X8.3071Y-5.9449
X8.3268Y-5.5709
X8.3268Y-5.6299
X8.3268Y-5.689
X8.3858Y-6.0236
X8.4055Y-5.2165
X8.4646Y-5.689
X8.4646Y-5.7283
X8.4646Y-5.9449
X8.5Y-5.2756
X8.5039Y-5.1969
X8.5039Y-5.689
X8.5039Y-5.7283
X8.5236Y-5.6457
X8.5433Y-5.8661
X8.5433Y-6.0236
X8.5472Y-5.3937
X8.5472Y-5.7874
X8.5827Y-5.7283
X8.6024Y-5.2165
X8.6024Y-5.2756
X8.6024Y-5.3622
X8.622Y-5.9449
X8.7008Y-5.1969
X8.7008Y-5.8661
X8.7008Y-6.0236
M30
