%TF.GenerationSoftware,KiCad,Pcbnew,9.0.0-9.0.0-2~ubuntu24.04.1*%
%TF.CreationDate,2025-04-09T05:26:43-04:00*%
%TF.ProjectId,ECE2799_LED-Lamp,45434532-3739-4395-9f4c-45442d4c616d,rev?*%
%TF.SameCoordinates,Original*%
%TF.FileFunction,Profile,NP*%
%FSLAX46Y46*%
G04 Gerber Fmt 4.6, Leading zero omitted, Abs format (unit mm)*
G04 Created by KiCad (PCBNEW 9.0.0-9.0.0-2~ubuntu24.04.1) date 2025-04-09 05:26:43*
%MOMM*%
%LPD*%
G01*
G04 APERTURE LIST*
%TA.AperFunction,Profile*%
%ADD10C,0.050000*%
%TD*%
G04 APERTURE END LIST*
D10*
X180500000Y-130500000D02*
G75*
G02*
X179500000Y-130500000I-500000J0D01*
G01*
X179500000Y-130500000D02*
G75*
G02*
X180500000Y-130500000I500000J0D01*
G01*
X140500000Y-130000000D02*
G75*
G02*
X140500000Y-131000000I0J-500000D01*
G01*
X140500000Y-130000000D02*
X129000000Y-130000000D01*
X94000000Y-131000000D02*
X105500000Y-131000000D01*
X193000000Y-130000000D02*
G75*
G02*
X193000000Y-131000000I0J-500000D01*
G01*
X193000000Y-130000000D02*
X181500000Y-130000000D01*
X142500000Y-130500000D02*
G75*
G02*
X141500000Y-130500000I-500000J0D01*
G01*
X141500000Y-130500000D02*
G75*
G02*
X142500000Y-130500000I500000J0D01*
G01*
X105500000Y-130000000D02*
X94000000Y-130000000D01*
X164000000Y-131000000D02*
X175500000Y-131000000D01*
X94000000Y-84000000D02*
X200000000Y-84000000D01*
X181500000Y-131000000D02*
G75*
G02*
X181500000Y-130000000I0J500000D01*
G01*
X128000000Y-130500000D02*
G75*
G02*
X127000000Y-130500000I-500000J0D01*
G01*
X127000000Y-130500000D02*
G75*
G02*
X128000000Y-130500000I500000J0D01*
G01*
X146500000Y-131000000D02*
G75*
G02*
X146500000Y-130000000I0J500000D01*
G01*
X175500000Y-130000000D02*
X164000000Y-130000000D01*
X94000000Y-131000000D02*
X94000000Y-155000000D01*
X110500000Y-130500000D02*
G75*
G02*
X109500000Y-130500000I-500000J0D01*
G01*
X109500000Y-130500000D02*
G75*
G02*
X110500000Y-130500000I500000J0D01*
G01*
X213000000Y-155000000D02*
X213000000Y-131000000D01*
X125000000Y-130500000D02*
G75*
G02*
X124000000Y-130500000I-500000J0D01*
G01*
X124000000Y-130500000D02*
G75*
G02*
X125000000Y-130500000I500000J0D01*
G01*
X107500000Y-130500000D02*
G75*
G02*
X106500000Y-130500000I-500000J0D01*
G01*
X106500000Y-130500000D02*
G75*
G02*
X107500000Y-130500000I500000J0D01*
G01*
X163000000Y-130500000D02*
G75*
G02*
X162000000Y-130500000I-500000J0D01*
G01*
X162000000Y-130500000D02*
G75*
G02*
X163000000Y-130500000I500000J0D01*
G01*
X161500000Y-130500000D02*
G75*
G02*
X160500000Y-130500000I-500000J0D01*
G01*
X160500000Y-130500000D02*
G75*
G02*
X161500000Y-130500000I500000J0D01*
G01*
X175500000Y-130000000D02*
G75*
G02*
X175500000Y-131000000I0J-500000D01*
G01*
X160000000Y-130500000D02*
G75*
G02*
X159000000Y-130500000I-500000J0D01*
G01*
X159000000Y-130500000D02*
G75*
G02*
X160000000Y-130500000I500000J0D01*
G01*
X94000000Y-130000000D02*
X94000000Y-84000000D01*
X195000000Y-130500000D02*
G75*
G02*
X194000000Y-130500000I-500000J0D01*
G01*
X194000000Y-130500000D02*
G75*
G02*
X195000000Y-130500000I500000J0D01*
G01*
X196500000Y-130500000D02*
G75*
G02*
X195500000Y-130500000I-500000J0D01*
G01*
X195500000Y-130500000D02*
G75*
G02*
X196500000Y-130500000I500000J0D01*
G01*
X105500000Y-130000000D02*
G75*
G02*
X105500000Y-131000000I0J-500000D01*
G01*
X123000000Y-130000000D02*
G75*
G02*
X123000000Y-131000000I0J-500000D01*
G01*
X146500000Y-131000000D02*
X158000000Y-131000000D01*
X179000000Y-130500000D02*
G75*
G02*
X178000000Y-130500000I-500000J0D01*
G01*
X178000000Y-130500000D02*
G75*
G02*
X179000000Y-130500000I500000J0D01*
G01*
X145500000Y-130500000D02*
G75*
G02*
X144500000Y-130500000I-500000J0D01*
G01*
X144500000Y-130500000D02*
G75*
G02*
X145500000Y-130500000I500000J0D01*
G01*
X94000000Y-155000000D02*
X213000000Y-155000000D01*
X144000000Y-130500000D02*
G75*
G02*
X143000000Y-130500000I-500000J0D01*
G01*
X143000000Y-130500000D02*
G75*
G02*
X144000000Y-130500000I500000J0D01*
G01*
X164000000Y-131000000D02*
G75*
G02*
X164000000Y-130000000I0J500000D01*
G01*
X129000000Y-131000000D02*
X140500000Y-131000000D01*
X158000000Y-130000000D02*
G75*
G02*
X158000000Y-131000000I0J-500000D01*
G01*
X199000000Y-131000000D02*
G75*
G02*
X199000000Y-130000000I0J500000D01*
G01*
X111500000Y-131000000D02*
G75*
G02*
X111500000Y-130000000I0J500000D01*
G01*
X123000000Y-130000000D02*
X111500000Y-130000000D01*
X199000000Y-130000000D02*
X200000000Y-130000000D01*
X200000000Y-84000000D02*
X200000000Y-130000000D01*
X199000000Y-131000000D02*
X213000000Y-131000000D01*
X177500000Y-130500000D02*
G75*
G02*
X176500000Y-130500000I-500000J0D01*
G01*
X176500000Y-130500000D02*
G75*
G02*
X177500000Y-130500000I500000J0D01*
G01*
X158000000Y-130000000D02*
X146500000Y-130000000D01*
X181500000Y-131000000D02*
X193000000Y-131000000D01*
X129000000Y-131000000D02*
G75*
G02*
X129000000Y-130000000I0J500000D01*
G01*
X126500000Y-130500000D02*
G75*
G02*
X125500000Y-130500000I-500000J0D01*
G01*
X125500000Y-130500000D02*
G75*
G02*
X126500000Y-130500000I500000J0D01*
G01*
X109000000Y-130500000D02*
G75*
G02*
X108000000Y-130500000I-500000J0D01*
G01*
X108000000Y-130500000D02*
G75*
G02*
X109000000Y-130500000I500000J0D01*
G01*
X111500000Y-131000000D02*
X123000000Y-131000000D01*
X198000000Y-130500000D02*
G75*
G02*
X197000000Y-130500000I-500000J0D01*
G01*
X197000000Y-130500000D02*
G75*
G02*
X198000000Y-130500000I500000J0D01*
G01*
M02*
