%TF.GenerationSoftware,KiCad,Pcbnew,9.0.0-9.0.0-2~ubuntu24.04.1*%
%TF.CreationDate,2025-04-10T08:36:32-04:00*%
%TF.ProjectId,ECE2799_LED-Lamp,45434532-3739-4395-9f4c-45442d4c616d,0*%
%TF.SameCoordinates,Original*%
%TF.FileFunction,Legend,Bot*%
%TF.FilePolarity,Positive*%
%FSLAX46Y46*%
G04 Gerber Fmt 4.6, Leading zero omitted, Abs format (unit mm)*
G04 Created by KiCad (PCBNEW 9.0.0-9.0.0-2~ubuntu24.04.1) date 2025-04-10 08:36:32*
%MOMM*%
%LPD*%
G01*
G04 APERTURE LIST*
%ADD10C,0.150000*%
%ADD11C,0.508000*%
%ADD12C,0.120000*%
%ADD13C,0.152400*%
%ADD14C,0.000000*%
G04 APERTURE END LIST*
D10*
X221829887Y-150626121D02*
X221687030Y-150673740D01*
X221687030Y-150673740D02*
X221639411Y-150721359D01*
X221639411Y-150721359D02*
X221591792Y-150816597D01*
X221591792Y-150816597D02*
X221591792Y-150959454D01*
X221591792Y-150959454D02*
X221639411Y-151054692D01*
X221639411Y-151054692D02*
X221687030Y-151102312D01*
X221687030Y-151102312D02*
X221782268Y-151149931D01*
X221782268Y-151149931D02*
X222163220Y-151149931D01*
X222163220Y-151149931D02*
X222163220Y-150149931D01*
X222163220Y-150149931D02*
X221829887Y-150149931D01*
X221829887Y-150149931D02*
X221734649Y-150197550D01*
X221734649Y-150197550D02*
X221687030Y-150245169D01*
X221687030Y-150245169D02*
X221639411Y-150340407D01*
X221639411Y-150340407D02*
X221639411Y-150435645D01*
X221639411Y-150435645D02*
X221687030Y-150530883D01*
X221687030Y-150530883D02*
X221734649Y-150578502D01*
X221734649Y-150578502D02*
X221829887Y-150626121D01*
X221829887Y-150626121D02*
X222163220Y-150626121D01*
X221163220Y-151149931D02*
X221163220Y-150483264D01*
X221163220Y-150673740D02*
X221115601Y-150578502D01*
X221115601Y-150578502D02*
X221067982Y-150530883D01*
X221067982Y-150530883D02*
X220972744Y-150483264D01*
X220972744Y-150483264D02*
X220877506Y-150483264D01*
X220639410Y-150483264D02*
X220401315Y-151149931D01*
X220163220Y-150483264D02*
X220401315Y-151149931D01*
X220401315Y-151149931D02*
X220496553Y-151388026D01*
X220496553Y-151388026D02*
X220544172Y-151435645D01*
X220544172Y-151435645D02*
X220639410Y-151483264D01*
X219353696Y-151149931D02*
X219353696Y-150626121D01*
X219353696Y-150626121D02*
X219401315Y-150530883D01*
X219401315Y-150530883D02*
X219496553Y-150483264D01*
X219496553Y-150483264D02*
X219687029Y-150483264D01*
X219687029Y-150483264D02*
X219782267Y-150530883D01*
X219353696Y-151102312D02*
X219448934Y-151149931D01*
X219448934Y-151149931D02*
X219687029Y-151149931D01*
X219687029Y-151149931D02*
X219782267Y-151102312D01*
X219782267Y-151102312D02*
X219829886Y-151007073D01*
X219829886Y-151007073D02*
X219829886Y-150911835D01*
X219829886Y-150911835D02*
X219782267Y-150816597D01*
X219782267Y-150816597D02*
X219687029Y-150768978D01*
X219687029Y-150768978D02*
X219448934Y-150768978D01*
X219448934Y-150768978D02*
X219353696Y-150721359D01*
X218877505Y-150483264D02*
X218877505Y-151149931D01*
X218877505Y-150578502D02*
X218829886Y-150530883D01*
X218829886Y-150530883D02*
X218734648Y-150483264D01*
X218734648Y-150483264D02*
X218591791Y-150483264D01*
X218591791Y-150483264D02*
X218496553Y-150530883D01*
X218496553Y-150530883D02*
X218448934Y-150626121D01*
X218448934Y-150626121D02*
X218448934Y-151149931D01*
X217925124Y-151102312D02*
X217925124Y-151149931D01*
X217925124Y-151149931D02*
X217972743Y-151245169D01*
X217972743Y-151245169D02*
X218020362Y-151292788D01*
X216877505Y-150149931D02*
X216306077Y-150149931D01*
X216591791Y-151149931D02*
X216591791Y-150149931D01*
X215544172Y-151149931D02*
X215544172Y-150626121D01*
X215544172Y-150626121D02*
X215591791Y-150530883D01*
X215591791Y-150530883D02*
X215687029Y-150483264D01*
X215687029Y-150483264D02*
X215877505Y-150483264D01*
X215877505Y-150483264D02*
X215972743Y-150530883D01*
X215544172Y-151102312D02*
X215639410Y-151149931D01*
X215639410Y-151149931D02*
X215877505Y-151149931D01*
X215877505Y-151149931D02*
X215972743Y-151102312D01*
X215972743Y-151102312D02*
X216020362Y-151007073D01*
X216020362Y-151007073D02*
X216020362Y-150911835D01*
X216020362Y-150911835D02*
X215972743Y-150816597D01*
X215972743Y-150816597D02*
X215877505Y-150768978D01*
X215877505Y-150768978D02*
X215639410Y-150768978D01*
X215639410Y-150768978D02*
X215544172Y-150721359D01*
X215067981Y-151149931D02*
X215067981Y-150149931D01*
X214639410Y-151149931D02*
X214639410Y-150626121D01*
X214639410Y-150626121D02*
X214687029Y-150530883D01*
X214687029Y-150530883D02*
X214782267Y-150483264D01*
X214782267Y-150483264D02*
X214925124Y-150483264D01*
X214925124Y-150483264D02*
X215020362Y-150530883D01*
X215020362Y-150530883D02*
X215067981Y-150578502D01*
X214163219Y-150483264D02*
X214163219Y-151340407D01*
X214163219Y-151340407D02*
X214210838Y-151435645D01*
X214210838Y-151435645D02*
X214306076Y-151483264D01*
X214306076Y-151483264D02*
X214353695Y-151483264D01*
X214163219Y-150149931D02*
X214210838Y-150197550D01*
X214210838Y-150197550D02*
X214163219Y-150245169D01*
X214163219Y-150245169D02*
X214115600Y-150197550D01*
X214115600Y-150197550D02*
X214163219Y-150149931D01*
X214163219Y-150149931D02*
X214163219Y-150245169D01*
X213306077Y-151102312D02*
X213401315Y-151149931D01*
X213401315Y-151149931D02*
X213591791Y-151149931D01*
X213591791Y-151149931D02*
X213687029Y-151102312D01*
X213687029Y-151102312D02*
X213734648Y-151007073D01*
X213734648Y-151007073D02*
X213734648Y-150626121D01*
X213734648Y-150626121D02*
X213687029Y-150530883D01*
X213687029Y-150530883D02*
X213591791Y-150483264D01*
X213591791Y-150483264D02*
X213401315Y-150483264D01*
X213401315Y-150483264D02*
X213306077Y-150530883D01*
X213306077Y-150530883D02*
X213258458Y-150626121D01*
X213258458Y-150626121D02*
X213258458Y-150721359D01*
X213258458Y-150721359D02*
X213734648Y-150816597D01*
X222163220Y-152759875D02*
X222163220Y-151759875D01*
X222163220Y-152236065D02*
X221591792Y-152236065D01*
X221591792Y-152759875D02*
X221591792Y-151759875D01*
X220972744Y-152759875D02*
X221067982Y-152712256D01*
X221067982Y-152712256D02*
X221115601Y-152664636D01*
X221115601Y-152664636D02*
X221163220Y-152569398D01*
X221163220Y-152569398D02*
X221163220Y-152283684D01*
X221163220Y-152283684D02*
X221115601Y-152188446D01*
X221115601Y-152188446D02*
X221067982Y-152140827D01*
X221067982Y-152140827D02*
X220972744Y-152093208D01*
X220972744Y-152093208D02*
X220829887Y-152093208D01*
X220829887Y-152093208D02*
X220734649Y-152140827D01*
X220734649Y-152140827D02*
X220687030Y-152188446D01*
X220687030Y-152188446D02*
X220639411Y-152283684D01*
X220639411Y-152283684D02*
X220639411Y-152569398D01*
X220639411Y-152569398D02*
X220687030Y-152664636D01*
X220687030Y-152664636D02*
X220734649Y-152712256D01*
X220734649Y-152712256D02*
X220829887Y-152759875D01*
X220829887Y-152759875D02*
X220972744Y-152759875D01*
X219782268Y-152093208D02*
X219782268Y-152902732D01*
X219782268Y-152902732D02*
X219829887Y-152997970D01*
X219829887Y-152997970D02*
X219877506Y-153045589D01*
X219877506Y-153045589D02*
X219972744Y-153093208D01*
X219972744Y-153093208D02*
X220115601Y-153093208D01*
X220115601Y-153093208D02*
X220210839Y-153045589D01*
X219782268Y-152712256D02*
X219877506Y-152759875D01*
X219877506Y-152759875D02*
X220067982Y-152759875D01*
X220067982Y-152759875D02*
X220163220Y-152712256D01*
X220163220Y-152712256D02*
X220210839Y-152664636D01*
X220210839Y-152664636D02*
X220258458Y-152569398D01*
X220258458Y-152569398D02*
X220258458Y-152283684D01*
X220258458Y-152283684D02*
X220210839Y-152188446D01*
X220210839Y-152188446D02*
X220163220Y-152140827D01*
X220163220Y-152140827D02*
X220067982Y-152093208D01*
X220067982Y-152093208D02*
X219877506Y-152093208D01*
X219877506Y-152093208D02*
X219782268Y-152140827D01*
X218877506Y-152759875D02*
X218877506Y-152236065D01*
X218877506Y-152236065D02*
X218925125Y-152140827D01*
X218925125Y-152140827D02*
X219020363Y-152093208D01*
X219020363Y-152093208D02*
X219210839Y-152093208D01*
X219210839Y-152093208D02*
X219306077Y-152140827D01*
X218877506Y-152712256D02*
X218972744Y-152759875D01*
X218972744Y-152759875D02*
X219210839Y-152759875D01*
X219210839Y-152759875D02*
X219306077Y-152712256D01*
X219306077Y-152712256D02*
X219353696Y-152617017D01*
X219353696Y-152617017D02*
X219353696Y-152521779D01*
X219353696Y-152521779D02*
X219306077Y-152426541D01*
X219306077Y-152426541D02*
X219210839Y-152378922D01*
X219210839Y-152378922D02*
X218972744Y-152378922D01*
X218972744Y-152378922D02*
X218877506Y-152331303D01*
X218401315Y-152093208D02*
X218401315Y-152759875D01*
X218401315Y-152188446D02*
X218353696Y-152140827D01*
X218353696Y-152140827D02*
X218258458Y-152093208D01*
X218258458Y-152093208D02*
X218115601Y-152093208D01*
X218115601Y-152093208D02*
X218020363Y-152140827D01*
X218020363Y-152140827D02*
X217972744Y-152236065D01*
X217972744Y-152236065D02*
X217972744Y-152759875D01*
X217448934Y-152712256D02*
X217448934Y-152759875D01*
X217448934Y-152759875D02*
X217496553Y-152855113D01*
X217496553Y-152855113D02*
X217544172Y-152902732D01*
X215687030Y-152759875D02*
X216020363Y-152283684D01*
X216258458Y-152759875D02*
X216258458Y-151759875D01*
X216258458Y-151759875D02*
X215877506Y-151759875D01*
X215877506Y-151759875D02*
X215782268Y-151807494D01*
X215782268Y-151807494D02*
X215734649Y-151855113D01*
X215734649Y-151855113D02*
X215687030Y-151950351D01*
X215687030Y-151950351D02*
X215687030Y-152093208D01*
X215687030Y-152093208D02*
X215734649Y-152188446D01*
X215734649Y-152188446D02*
X215782268Y-152236065D01*
X215782268Y-152236065D02*
X215877506Y-152283684D01*
X215877506Y-152283684D02*
X216258458Y-152283684D01*
X215353696Y-152093208D02*
X215115601Y-152759875D01*
X214877506Y-152093208D02*
X215115601Y-152759875D01*
X215115601Y-152759875D02*
X215210839Y-152997970D01*
X215210839Y-152997970D02*
X215258458Y-153045589D01*
X215258458Y-153045589D02*
X215353696Y-153093208D01*
X214115601Y-152712256D02*
X214210839Y-152759875D01*
X214210839Y-152759875D02*
X214401315Y-152759875D01*
X214401315Y-152759875D02*
X214496553Y-152712256D01*
X214496553Y-152712256D02*
X214544172Y-152617017D01*
X214544172Y-152617017D02*
X214544172Y-152236065D01*
X214544172Y-152236065D02*
X214496553Y-152140827D01*
X214496553Y-152140827D02*
X214401315Y-152093208D01*
X214401315Y-152093208D02*
X214210839Y-152093208D01*
X214210839Y-152093208D02*
X214115601Y-152140827D01*
X214115601Y-152140827D02*
X214067982Y-152236065D01*
X214067982Y-152236065D02*
X214067982Y-152331303D01*
X214067982Y-152331303D02*
X214544172Y-152426541D01*
X221591792Y-154369819D02*
X221925125Y-153893628D01*
X222163220Y-154369819D02*
X222163220Y-153369819D01*
X222163220Y-153369819D02*
X221782268Y-153369819D01*
X221782268Y-153369819D02*
X221687030Y-153417438D01*
X221687030Y-153417438D02*
X221639411Y-153465057D01*
X221639411Y-153465057D02*
X221591792Y-153560295D01*
X221591792Y-153560295D02*
X221591792Y-153703152D01*
X221591792Y-153703152D02*
X221639411Y-153798390D01*
X221639411Y-153798390D02*
X221687030Y-153846009D01*
X221687030Y-153846009D02*
X221782268Y-153893628D01*
X221782268Y-153893628D02*
X222163220Y-153893628D01*
X220734649Y-154369819D02*
X220734649Y-153846009D01*
X220734649Y-153846009D02*
X220782268Y-153750771D01*
X220782268Y-153750771D02*
X220877506Y-153703152D01*
X220877506Y-153703152D02*
X221067982Y-153703152D01*
X221067982Y-153703152D02*
X221163220Y-153750771D01*
X220734649Y-154322200D02*
X220829887Y-154369819D01*
X220829887Y-154369819D02*
X221067982Y-154369819D01*
X221067982Y-154369819D02*
X221163220Y-154322200D01*
X221163220Y-154322200D02*
X221210839Y-154226961D01*
X221210839Y-154226961D02*
X221210839Y-154131723D01*
X221210839Y-154131723D02*
X221163220Y-154036485D01*
X221163220Y-154036485D02*
X221067982Y-153988866D01*
X221067982Y-153988866D02*
X220829887Y-153988866D01*
X220829887Y-153988866D02*
X220734649Y-153941247D01*
X220353696Y-153703152D02*
X220115601Y-154369819D01*
X219877506Y-153703152D02*
X220115601Y-154369819D01*
X220115601Y-154369819D02*
X220210839Y-154607914D01*
X220210839Y-154607914D02*
X220258458Y-154655533D01*
X220258458Y-154655533D02*
X220353696Y-154703152D01*
X219496553Y-154369819D02*
X219496553Y-153703152D01*
X219496553Y-153798390D02*
X219448934Y-153750771D01*
X219448934Y-153750771D02*
X219353696Y-153703152D01*
X219353696Y-153703152D02*
X219210839Y-153703152D01*
X219210839Y-153703152D02*
X219115601Y-153750771D01*
X219115601Y-153750771D02*
X219067982Y-153846009D01*
X219067982Y-153846009D02*
X219067982Y-154369819D01*
X219067982Y-153846009D02*
X219020363Y-153750771D01*
X219020363Y-153750771D02*
X218925125Y-153703152D01*
X218925125Y-153703152D02*
X218782268Y-153703152D01*
X218782268Y-153703152D02*
X218687029Y-153750771D01*
X218687029Y-153750771D02*
X218639410Y-153846009D01*
X218639410Y-153846009D02*
X218639410Y-154369819D01*
X218020363Y-154369819D02*
X218115601Y-154322200D01*
X218115601Y-154322200D02*
X218163220Y-154274580D01*
X218163220Y-154274580D02*
X218210839Y-154179342D01*
X218210839Y-154179342D02*
X218210839Y-153893628D01*
X218210839Y-153893628D02*
X218163220Y-153798390D01*
X218163220Y-153798390D02*
X218115601Y-153750771D01*
X218115601Y-153750771D02*
X218020363Y-153703152D01*
X218020363Y-153703152D02*
X217877506Y-153703152D01*
X217877506Y-153703152D02*
X217782268Y-153750771D01*
X217782268Y-153750771D02*
X217734649Y-153798390D01*
X217734649Y-153798390D02*
X217687030Y-153893628D01*
X217687030Y-153893628D02*
X217687030Y-154179342D01*
X217687030Y-154179342D02*
X217734649Y-154274580D01*
X217734649Y-154274580D02*
X217782268Y-154322200D01*
X217782268Y-154322200D02*
X217877506Y-154369819D01*
X217877506Y-154369819D02*
X218020363Y-154369819D01*
X217258458Y-153703152D02*
X217258458Y-154369819D01*
X217258458Y-153798390D02*
X217210839Y-153750771D01*
X217210839Y-153750771D02*
X217115601Y-153703152D01*
X217115601Y-153703152D02*
X216972744Y-153703152D01*
X216972744Y-153703152D02*
X216877506Y-153750771D01*
X216877506Y-153750771D02*
X216829887Y-153846009D01*
X216829887Y-153846009D02*
X216829887Y-154369819D01*
X215925125Y-154369819D02*
X215925125Y-153369819D01*
X215925125Y-154322200D02*
X216020363Y-154369819D01*
X216020363Y-154369819D02*
X216210839Y-154369819D01*
X216210839Y-154369819D02*
X216306077Y-154322200D01*
X216306077Y-154322200D02*
X216353696Y-154274580D01*
X216353696Y-154274580D02*
X216401315Y-154179342D01*
X216401315Y-154179342D02*
X216401315Y-153893628D01*
X216401315Y-153893628D02*
X216353696Y-153798390D01*
X216353696Y-153798390D02*
X216306077Y-153750771D01*
X216306077Y-153750771D02*
X216210839Y-153703152D01*
X216210839Y-153703152D02*
X216020363Y-153703152D01*
X216020363Y-153703152D02*
X215925125Y-153750771D01*
X215401315Y-154322200D02*
X215401315Y-154369819D01*
X215401315Y-154369819D02*
X215448934Y-154465057D01*
X215448934Y-154465057D02*
X215496553Y-154512676D01*
X214210839Y-154369819D02*
X214210839Y-153369819D01*
X214210839Y-153369819D02*
X213972744Y-153369819D01*
X213972744Y-153369819D02*
X213829887Y-153417438D01*
X213829887Y-153417438D02*
X213734649Y-153512676D01*
X213734649Y-153512676D02*
X213687030Y-153607914D01*
X213687030Y-153607914D02*
X213639411Y-153798390D01*
X213639411Y-153798390D02*
X213639411Y-153941247D01*
X213639411Y-153941247D02*
X213687030Y-154131723D01*
X213687030Y-154131723D02*
X213734649Y-154226961D01*
X213734649Y-154226961D02*
X213829887Y-154322200D01*
X213829887Y-154322200D02*
X213972744Y-154369819D01*
X213972744Y-154369819D02*
X214210839Y-154369819D01*
X212782268Y-154369819D02*
X212782268Y-153846009D01*
X212782268Y-153846009D02*
X212829887Y-153750771D01*
X212829887Y-153750771D02*
X212925125Y-153703152D01*
X212925125Y-153703152D02*
X213115601Y-153703152D01*
X213115601Y-153703152D02*
X213210839Y-153750771D01*
X212782268Y-154322200D02*
X212877506Y-154369819D01*
X212877506Y-154369819D02*
X213115601Y-154369819D01*
X213115601Y-154369819D02*
X213210839Y-154322200D01*
X213210839Y-154322200D02*
X213258458Y-154226961D01*
X213258458Y-154226961D02*
X213258458Y-154131723D01*
X213258458Y-154131723D02*
X213210839Y-154036485D01*
X213210839Y-154036485D02*
X213115601Y-153988866D01*
X213115601Y-153988866D02*
X212877506Y-153988866D01*
X212877506Y-153988866D02*
X212782268Y-153941247D01*
X212306077Y-153703152D02*
X212306077Y-154369819D01*
X212306077Y-153798390D02*
X212258458Y-153750771D01*
X212258458Y-153750771D02*
X212163220Y-153703152D01*
X212163220Y-153703152D02*
X212020363Y-153703152D01*
X212020363Y-153703152D02*
X211925125Y-153750771D01*
X211925125Y-153750771D02*
X211877506Y-153846009D01*
X211877506Y-153846009D02*
X211877506Y-154369819D01*
X211401315Y-154369819D02*
X211401315Y-153703152D01*
X211401315Y-153369819D02*
X211448934Y-153417438D01*
X211448934Y-153417438D02*
X211401315Y-153465057D01*
X211401315Y-153465057D02*
X211353696Y-153417438D01*
X211353696Y-153417438D02*
X211401315Y-153369819D01*
X211401315Y-153369819D02*
X211401315Y-153465057D01*
X210544173Y-154322200D02*
X210639411Y-154369819D01*
X210639411Y-154369819D02*
X210829887Y-154369819D01*
X210829887Y-154369819D02*
X210925125Y-154322200D01*
X210925125Y-154322200D02*
X210972744Y-154226961D01*
X210972744Y-154226961D02*
X210972744Y-153846009D01*
X210972744Y-153846009D02*
X210925125Y-153750771D01*
X210925125Y-153750771D02*
X210829887Y-153703152D01*
X210829887Y-153703152D02*
X210639411Y-153703152D01*
X210639411Y-153703152D02*
X210544173Y-153750771D01*
X210544173Y-153750771D02*
X210496554Y-153846009D01*
X210496554Y-153846009D02*
X210496554Y-153941247D01*
X210496554Y-153941247D02*
X210972744Y-154036485D01*
X209925125Y-154369819D02*
X210020363Y-154322200D01*
X210020363Y-154322200D02*
X210067982Y-154226961D01*
X210067982Y-154226961D02*
X210067982Y-153369819D01*
X198329887Y-117126121D02*
X198187030Y-117173740D01*
X198187030Y-117173740D02*
X198139411Y-117221359D01*
X198139411Y-117221359D02*
X198091792Y-117316597D01*
X198091792Y-117316597D02*
X198091792Y-117459454D01*
X198091792Y-117459454D02*
X198139411Y-117554692D01*
X198139411Y-117554692D02*
X198187030Y-117602312D01*
X198187030Y-117602312D02*
X198282268Y-117649931D01*
X198282268Y-117649931D02*
X198663220Y-117649931D01*
X198663220Y-117649931D02*
X198663220Y-116649931D01*
X198663220Y-116649931D02*
X198329887Y-116649931D01*
X198329887Y-116649931D02*
X198234649Y-116697550D01*
X198234649Y-116697550D02*
X198187030Y-116745169D01*
X198187030Y-116745169D02*
X198139411Y-116840407D01*
X198139411Y-116840407D02*
X198139411Y-116935645D01*
X198139411Y-116935645D02*
X198187030Y-117030883D01*
X198187030Y-117030883D02*
X198234649Y-117078502D01*
X198234649Y-117078502D02*
X198329887Y-117126121D01*
X198329887Y-117126121D02*
X198663220Y-117126121D01*
X197663220Y-117649931D02*
X197663220Y-116983264D01*
X197663220Y-117173740D02*
X197615601Y-117078502D01*
X197615601Y-117078502D02*
X197567982Y-117030883D01*
X197567982Y-117030883D02*
X197472744Y-116983264D01*
X197472744Y-116983264D02*
X197377506Y-116983264D01*
X197139410Y-116983264D02*
X196901315Y-117649931D01*
X196663220Y-116983264D02*
X196901315Y-117649931D01*
X196901315Y-117649931D02*
X196996553Y-117888026D01*
X196996553Y-117888026D02*
X197044172Y-117935645D01*
X197044172Y-117935645D02*
X197139410Y-117983264D01*
X195853696Y-117649931D02*
X195853696Y-117126121D01*
X195853696Y-117126121D02*
X195901315Y-117030883D01*
X195901315Y-117030883D02*
X195996553Y-116983264D01*
X195996553Y-116983264D02*
X196187029Y-116983264D01*
X196187029Y-116983264D02*
X196282267Y-117030883D01*
X195853696Y-117602312D02*
X195948934Y-117649931D01*
X195948934Y-117649931D02*
X196187029Y-117649931D01*
X196187029Y-117649931D02*
X196282267Y-117602312D01*
X196282267Y-117602312D02*
X196329886Y-117507073D01*
X196329886Y-117507073D02*
X196329886Y-117411835D01*
X196329886Y-117411835D02*
X196282267Y-117316597D01*
X196282267Y-117316597D02*
X196187029Y-117268978D01*
X196187029Y-117268978D02*
X195948934Y-117268978D01*
X195948934Y-117268978D02*
X195853696Y-117221359D01*
X195377505Y-116983264D02*
X195377505Y-117649931D01*
X195377505Y-117078502D02*
X195329886Y-117030883D01*
X195329886Y-117030883D02*
X195234648Y-116983264D01*
X195234648Y-116983264D02*
X195091791Y-116983264D01*
X195091791Y-116983264D02*
X194996553Y-117030883D01*
X194996553Y-117030883D02*
X194948934Y-117126121D01*
X194948934Y-117126121D02*
X194948934Y-117649931D01*
X194425124Y-117602312D02*
X194425124Y-117649931D01*
X194425124Y-117649931D02*
X194472743Y-117745169D01*
X194472743Y-117745169D02*
X194520362Y-117792788D01*
X193377505Y-116649931D02*
X192806077Y-116649931D01*
X193091791Y-117649931D02*
X193091791Y-116649931D01*
X192044172Y-117649931D02*
X192044172Y-117126121D01*
X192044172Y-117126121D02*
X192091791Y-117030883D01*
X192091791Y-117030883D02*
X192187029Y-116983264D01*
X192187029Y-116983264D02*
X192377505Y-116983264D01*
X192377505Y-116983264D02*
X192472743Y-117030883D01*
X192044172Y-117602312D02*
X192139410Y-117649931D01*
X192139410Y-117649931D02*
X192377505Y-117649931D01*
X192377505Y-117649931D02*
X192472743Y-117602312D01*
X192472743Y-117602312D02*
X192520362Y-117507073D01*
X192520362Y-117507073D02*
X192520362Y-117411835D01*
X192520362Y-117411835D02*
X192472743Y-117316597D01*
X192472743Y-117316597D02*
X192377505Y-117268978D01*
X192377505Y-117268978D02*
X192139410Y-117268978D01*
X192139410Y-117268978D02*
X192044172Y-117221359D01*
X191567981Y-117649931D02*
X191567981Y-116649931D01*
X191139410Y-117649931D02*
X191139410Y-117126121D01*
X191139410Y-117126121D02*
X191187029Y-117030883D01*
X191187029Y-117030883D02*
X191282267Y-116983264D01*
X191282267Y-116983264D02*
X191425124Y-116983264D01*
X191425124Y-116983264D02*
X191520362Y-117030883D01*
X191520362Y-117030883D02*
X191567981Y-117078502D01*
X190663219Y-116983264D02*
X190663219Y-117840407D01*
X190663219Y-117840407D02*
X190710838Y-117935645D01*
X190710838Y-117935645D02*
X190806076Y-117983264D01*
X190806076Y-117983264D02*
X190853695Y-117983264D01*
X190663219Y-116649931D02*
X190710838Y-116697550D01*
X190710838Y-116697550D02*
X190663219Y-116745169D01*
X190663219Y-116745169D02*
X190615600Y-116697550D01*
X190615600Y-116697550D02*
X190663219Y-116649931D01*
X190663219Y-116649931D02*
X190663219Y-116745169D01*
X189806077Y-117602312D02*
X189901315Y-117649931D01*
X189901315Y-117649931D02*
X190091791Y-117649931D01*
X190091791Y-117649931D02*
X190187029Y-117602312D01*
X190187029Y-117602312D02*
X190234648Y-117507073D01*
X190234648Y-117507073D02*
X190234648Y-117126121D01*
X190234648Y-117126121D02*
X190187029Y-117030883D01*
X190187029Y-117030883D02*
X190091791Y-116983264D01*
X190091791Y-116983264D02*
X189901315Y-116983264D01*
X189901315Y-116983264D02*
X189806077Y-117030883D01*
X189806077Y-117030883D02*
X189758458Y-117126121D01*
X189758458Y-117126121D02*
X189758458Y-117221359D01*
X189758458Y-117221359D02*
X190234648Y-117316597D01*
X198663220Y-119259875D02*
X198663220Y-118259875D01*
X198663220Y-118736065D02*
X198091792Y-118736065D01*
X198091792Y-119259875D02*
X198091792Y-118259875D01*
X197472744Y-119259875D02*
X197567982Y-119212256D01*
X197567982Y-119212256D02*
X197615601Y-119164636D01*
X197615601Y-119164636D02*
X197663220Y-119069398D01*
X197663220Y-119069398D02*
X197663220Y-118783684D01*
X197663220Y-118783684D02*
X197615601Y-118688446D01*
X197615601Y-118688446D02*
X197567982Y-118640827D01*
X197567982Y-118640827D02*
X197472744Y-118593208D01*
X197472744Y-118593208D02*
X197329887Y-118593208D01*
X197329887Y-118593208D02*
X197234649Y-118640827D01*
X197234649Y-118640827D02*
X197187030Y-118688446D01*
X197187030Y-118688446D02*
X197139411Y-118783684D01*
X197139411Y-118783684D02*
X197139411Y-119069398D01*
X197139411Y-119069398D02*
X197187030Y-119164636D01*
X197187030Y-119164636D02*
X197234649Y-119212256D01*
X197234649Y-119212256D02*
X197329887Y-119259875D01*
X197329887Y-119259875D02*
X197472744Y-119259875D01*
X196282268Y-118593208D02*
X196282268Y-119402732D01*
X196282268Y-119402732D02*
X196329887Y-119497970D01*
X196329887Y-119497970D02*
X196377506Y-119545589D01*
X196377506Y-119545589D02*
X196472744Y-119593208D01*
X196472744Y-119593208D02*
X196615601Y-119593208D01*
X196615601Y-119593208D02*
X196710839Y-119545589D01*
X196282268Y-119212256D02*
X196377506Y-119259875D01*
X196377506Y-119259875D02*
X196567982Y-119259875D01*
X196567982Y-119259875D02*
X196663220Y-119212256D01*
X196663220Y-119212256D02*
X196710839Y-119164636D01*
X196710839Y-119164636D02*
X196758458Y-119069398D01*
X196758458Y-119069398D02*
X196758458Y-118783684D01*
X196758458Y-118783684D02*
X196710839Y-118688446D01*
X196710839Y-118688446D02*
X196663220Y-118640827D01*
X196663220Y-118640827D02*
X196567982Y-118593208D01*
X196567982Y-118593208D02*
X196377506Y-118593208D01*
X196377506Y-118593208D02*
X196282268Y-118640827D01*
X195377506Y-119259875D02*
X195377506Y-118736065D01*
X195377506Y-118736065D02*
X195425125Y-118640827D01*
X195425125Y-118640827D02*
X195520363Y-118593208D01*
X195520363Y-118593208D02*
X195710839Y-118593208D01*
X195710839Y-118593208D02*
X195806077Y-118640827D01*
X195377506Y-119212256D02*
X195472744Y-119259875D01*
X195472744Y-119259875D02*
X195710839Y-119259875D01*
X195710839Y-119259875D02*
X195806077Y-119212256D01*
X195806077Y-119212256D02*
X195853696Y-119117017D01*
X195853696Y-119117017D02*
X195853696Y-119021779D01*
X195853696Y-119021779D02*
X195806077Y-118926541D01*
X195806077Y-118926541D02*
X195710839Y-118878922D01*
X195710839Y-118878922D02*
X195472744Y-118878922D01*
X195472744Y-118878922D02*
X195377506Y-118831303D01*
X194901315Y-118593208D02*
X194901315Y-119259875D01*
X194901315Y-118688446D02*
X194853696Y-118640827D01*
X194853696Y-118640827D02*
X194758458Y-118593208D01*
X194758458Y-118593208D02*
X194615601Y-118593208D01*
X194615601Y-118593208D02*
X194520363Y-118640827D01*
X194520363Y-118640827D02*
X194472744Y-118736065D01*
X194472744Y-118736065D02*
X194472744Y-119259875D01*
X193948934Y-119212256D02*
X193948934Y-119259875D01*
X193948934Y-119259875D02*
X193996553Y-119355113D01*
X193996553Y-119355113D02*
X194044172Y-119402732D01*
X192187030Y-119259875D02*
X192520363Y-118783684D01*
X192758458Y-119259875D02*
X192758458Y-118259875D01*
X192758458Y-118259875D02*
X192377506Y-118259875D01*
X192377506Y-118259875D02*
X192282268Y-118307494D01*
X192282268Y-118307494D02*
X192234649Y-118355113D01*
X192234649Y-118355113D02*
X192187030Y-118450351D01*
X192187030Y-118450351D02*
X192187030Y-118593208D01*
X192187030Y-118593208D02*
X192234649Y-118688446D01*
X192234649Y-118688446D02*
X192282268Y-118736065D01*
X192282268Y-118736065D02*
X192377506Y-118783684D01*
X192377506Y-118783684D02*
X192758458Y-118783684D01*
X191853696Y-118593208D02*
X191615601Y-119259875D01*
X191377506Y-118593208D02*
X191615601Y-119259875D01*
X191615601Y-119259875D02*
X191710839Y-119497970D01*
X191710839Y-119497970D02*
X191758458Y-119545589D01*
X191758458Y-119545589D02*
X191853696Y-119593208D01*
X190615601Y-119212256D02*
X190710839Y-119259875D01*
X190710839Y-119259875D02*
X190901315Y-119259875D01*
X190901315Y-119259875D02*
X190996553Y-119212256D01*
X190996553Y-119212256D02*
X191044172Y-119117017D01*
X191044172Y-119117017D02*
X191044172Y-118736065D01*
X191044172Y-118736065D02*
X190996553Y-118640827D01*
X190996553Y-118640827D02*
X190901315Y-118593208D01*
X190901315Y-118593208D02*
X190710839Y-118593208D01*
X190710839Y-118593208D02*
X190615601Y-118640827D01*
X190615601Y-118640827D02*
X190567982Y-118736065D01*
X190567982Y-118736065D02*
X190567982Y-118831303D01*
X190567982Y-118831303D02*
X191044172Y-118926541D01*
X198091792Y-120869819D02*
X198425125Y-120393628D01*
X198663220Y-120869819D02*
X198663220Y-119869819D01*
X198663220Y-119869819D02*
X198282268Y-119869819D01*
X198282268Y-119869819D02*
X198187030Y-119917438D01*
X198187030Y-119917438D02*
X198139411Y-119965057D01*
X198139411Y-119965057D02*
X198091792Y-120060295D01*
X198091792Y-120060295D02*
X198091792Y-120203152D01*
X198091792Y-120203152D02*
X198139411Y-120298390D01*
X198139411Y-120298390D02*
X198187030Y-120346009D01*
X198187030Y-120346009D02*
X198282268Y-120393628D01*
X198282268Y-120393628D02*
X198663220Y-120393628D01*
X197234649Y-120869819D02*
X197234649Y-120346009D01*
X197234649Y-120346009D02*
X197282268Y-120250771D01*
X197282268Y-120250771D02*
X197377506Y-120203152D01*
X197377506Y-120203152D02*
X197567982Y-120203152D01*
X197567982Y-120203152D02*
X197663220Y-120250771D01*
X197234649Y-120822200D02*
X197329887Y-120869819D01*
X197329887Y-120869819D02*
X197567982Y-120869819D01*
X197567982Y-120869819D02*
X197663220Y-120822200D01*
X197663220Y-120822200D02*
X197710839Y-120726961D01*
X197710839Y-120726961D02*
X197710839Y-120631723D01*
X197710839Y-120631723D02*
X197663220Y-120536485D01*
X197663220Y-120536485D02*
X197567982Y-120488866D01*
X197567982Y-120488866D02*
X197329887Y-120488866D01*
X197329887Y-120488866D02*
X197234649Y-120441247D01*
X196853696Y-120203152D02*
X196615601Y-120869819D01*
X196377506Y-120203152D02*
X196615601Y-120869819D01*
X196615601Y-120869819D02*
X196710839Y-121107914D01*
X196710839Y-121107914D02*
X196758458Y-121155533D01*
X196758458Y-121155533D02*
X196853696Y-121203152D01*
X195996553Y-120869819D02*
X195996553Y-120203152D01*
X195996553Y-120298390D02*
X195948934Y-120250771D01*
X195948934Y-120250771D02*
X195853696Y-120203152D01*
X195853696Y-120203152D02*
X195710839Y-120203152D01*
X195710839Y-120203152D02*
X195615601Y-120250771D01*
X195615601Y-120250771D02*
X195567982Y-120346009D01*
X195567982Y-120346009D02*
X195567982Y-120869819D01*
X195567982Y-120346009D02*
X195520363Y-120250771D01*
X195520363Y-120250771D02*
X195425125Y-120203152D01*
X195425125Y-120203152D02*
X195282268Y-120203152D01*
X195282268Y-120203152D02*
X195187029Y-120250771D01*
X195187029Y-120250771D02*
X195139410Y-120346009D01*
X195139410Y-120346009D02*
X195139410Y-120869819D01*
X194520363Y-120869819D02*
X194615601Y-120822200D01*
X194615601Y-120822200D02*
X194663220Y-120774580D01*
X194663220Y-120774580D02*
X194710839Y-120679342D01*
X194710839Y-120679342D02*
X194710839Y-120393628D01*
X194710839Y-120393628D02*
X194663220Y-120298390D01*
X194663220Y-120298390D02*
X194615601Y-120250771D01*
X194615601Y-120250771D02*
X194520363Y-120203152D01*
X194520363Y-120203152D02*
X194377506Y-120203152D01*
X194377506Y-120203152D02*
X194282268Y-120250771D01*
X194282268Y-120250771D02*
X194234649Y-120298390D01*
X194234649Y-120298390D02*
X194187030Y-120393628D01*
X194187030Y-120393628D02*
X194187030Y-120679342D01*
X194187030Y-120679342D02*
X194234649Y-120774580D01*
X194234649Y-120774580D02*
X194282268Y-120822200D01*
X194282268Y-120822200D02*
X194377506Y-120869819D01*
X194377506Y-120869819D02*
X194520363Y-120869819D01*
X193758458Y-120203152D02*
X193758458Y-120869819D01*
X193758458Y-120298390D02*
X193710839Y-120250771D01*
X193710839Y-120250771D02*
X193615601Y-120203152D01*
X193615601Y-120203152D02*
X193472744Y-120203152D01*
X193472744Y-120203152D02*
X193377506Y-120250771D01*
X193377506Y-120250771D02*
X193329887Y-120346009D01*
X193329887Y-120346009D02*
X193329887Y-120869819D01*
X192425125Y-120869819D02*
X192425125Y-119869819D01*
X192425125Y-120822200D02*
X192520363Y-120869819D01*
X192520363Y-120869819D02*
X192710839Y-120869819D01*
X192710839Y-120869819D02*
X192806077Y-120822200D01*
X192806077Y-120822200D02*
X192853696Y-120774580D01*
X192853696Y-120774580D02*
X192901315Y-120679342D01*
X192901315Y-120679342D02*
X192901315Y-120393628D01*
X192901315Y-120393628D02*
X192853696Y-120298390D01*
X192853696Y-120298390D02*
X192806077Y-120250771D01*
X192806077Y-120250771D02*
X192710839Y-120203152D01*
X192710839Y-120203152D02*
X192520363Y-120203152D01*
X192520363Y-120203152D02*
X192425125Y-120250771D01*
X191901315Y-120822200D02*
X191901315Y-120869819D01*
X191901315Y-120869819D02*
X191948934Y-120965057D01*
X191948934Y-120965057D02*
X191996553Y-121012676D01*
X190710839Y-120869819D02*
X190710839Y-119869819D01*
X190710839Y-119869819D02*
X190472744Y-119869819D01*
X190472744Y-119869819D02*
X190329887Y-119917438D01*
X190329887Y-119917438D02*
X190234649Y-120012676D01*
X190234649Y-120012676D02*
X190187030Y-120107914D01*
X190187030Y-120107914D02*
X190139411Y-120298390D01*
X190139411Y-120298390D02*
X190139411Y-120441247D01*
X190139411Y-120441247D02*
X190187030Y-120631723D01*
X190187030Y-120631723D02*
X190234649Y-120726961D01*
X190234649Y-120726961D02*
X190329887Y-120822200D01*
X190329887Y-120822200D02*
X190472744Y-120869819D01*
X190472744Y-120869819D02*
X190710839Y-120869819D01*
X189282268Y-120869819D02*
X189282268Y-120346009D01*
X189282268Y-120346009D02*
X189329887Y-120250771D01*
X189329887Y-120250771D02*
X189425125Y-120203152D01*
X189425125Y-120203152D02*
X189615601Y-120203152D01*
X189615601Y-120203152D02*
X189710839Y-120250771D01*
X189282268Y-120822200D02*
X189377506Y-120869819D01*
X189377506Y-120869819D02*
X189615601Y-120869819D01*
X189615601Y-120869819D02*
X189710839Y-120822200D01*
X189710839Y-120822200D02*
X189758458Y-120726961D01*
X189758458Y-120726961D02*
X189758458Y-120631723D01*
X189758458Y-120631723D02*
X189710839Y-120536485D01*
X189710839Y-120536485D02*
X189615601Y-120488866D01*
X189615601Y-120488866D02*
X189377506Y-120488866D01*
X189377506Y-120488866D02*
X189282268Y-120441247D01*
X188806077Y-120203152D02*
X188806077Y-120869819D01*
X188806077Y-120298390D02*
X188758458Y-120250771D01*
X188758458Y-120250771D02*
X188663220Y-120203152D01*
X188663220Y-120203152D02*
X188520363Y-120203152D01*
X188520363Y-120203152D02*
X188425125Y-120250771D01*
X188425125Y-120250771D02*
X188377506Y-120346009D01*
X188377506Y-120346009D02*
X188377506Y-120869819D01*
X187901315Y-120869819D02*
X187901315Y-120203152D01*
X187901315Y-119869819D02*
X187948934Y-119917438D01*
X187948934Y-119917438D02*
X187901315Y-119965057D01*
X187901315Y-119965057D02*
X187853696Y-119917438D01*
X187853696Y-119917438D02*
X187901315Y-119869819D01*
X187901315Y-119869819D02*
X187901315Y-119965057D01*
X187044173Y-120822200D02*
X187139411Y-120869819D01*
X187139411Y-120869819D02*
X187329887Y-120869819D01*
X187329887Y-120869819D02*
X187425125Y-120822200D01*
X187425125Y-120822200D02*
X187472744Y-120726961D01*
X187472744Y-120726961D02*
X187472744Y-120346009D01*
X187472744Y-120346009D02*
X187425125Y-120250771D01*
X187425125Y-120250771D02*
X187329887Y-120203152D01*
X187329887Y-120203152D02*
X187139411Y-120203152D01*
X187139411Y-120203152D02*
X187044173Y-120250771D01*
X187044173Y-120250771D02*
X186996554Y-120346009D01*
X186996554Y-120346009D02*
X186996554Y-120441247D01*
X186996554Y-120441247D02*
X187472744Y-120536485D01*
X186425125Y-120869819D02*
X186520363Y-120822200D01*
X186520363Y-120822200D02*
X186567982Y-120726961D01*
X186567982Y-120726961D02*
X186567982Y-119869819D01*
X180642857Y-95454819D02*
X180976190Y-94978628D01*
X181214285Y-95454819D02*
X181214285Y-94454819D01*
X181214285Y-94454819D02*
X180833333Y-94454819D01*
X180833333Y-94454819D02*
X180738095Y-94502438D01*
X180738095Y-94502438D02*
X180690476Y-94550057D01*
X180690476Y-94550057D02*
X180642857Y-94645295D01*
X180642857Y-94645295D02*
X180642857Y-94788152D01*
X180642857Y-94788152D02*
X180690476Y-94883390D01*
X180690476Y-94883390D02*
X180738095Y-94931009D01*
X180738095Y-94931009D02*
X180833333Y-94978628D01*
X180833333Y-94978628D02*
X181214285Y-94978628D01*
X180261904Y-94550057D02*
X180214285Y-94502438D01*
X180214285Y-94502438D02*
X180119047Y-94454819D01*
X180119047Y-94454819D02*
X179880952Y-94454819D01*
X179880952Y-94454819D02*
X179785714Y-94502438D01*
X179785714Y-94502438D02*
X179738095Y-94550057D01*
X179738095Y-94550057D02*
X179690476Y-94645295D01*
X179690476Y-94645295D02*
X179690476Y-94740533D01*
X179690476Y-94740533D02*
X179738095Y-94883390D01*
X179738095Y-94883390D02*
X180309523Y-95454819D01*
X180309523Y-95454819D02*
X179690476Y-95454819D01*
X179357142Y-94454819D02*
X178690476Y-94454819D01*
X178690476Y-94454819D02*
X179119047Y-95454819D01*
X152142857Y-120954819D02*
X152476190Y-120478628D01*
X152714285Y-120954819D02*
X152714285Y-119954819D01*
X152714285Y-119954819D02*
X152333333Y-119954819D01*
X152333333Y-119954819D02*
X152238095Y-120002438D01*
X152238095Y-120002438D02*
X152190476Y-120050057D01*
X152190476Y-120050057D02*
X152142857Y-120145295D01*
X152142857Y-120145295D02*
X152142857Y-120288152D01*
X152142857Y-120288152D02*
X152190476Y-120383390D01*
X152190476Y-120383390D02*
X152238095Y-120431009D01*
X152238095Y-120431009D02*
X152333333Y-120478628D01*
X152333333Y-120478628D02*
X152714285Y-120478628D01*
X151761904Y-120050057D02*
X151714285Y-120002438D01*
X151714285Y-120002438D02*
X151619047Y-119954819D01*
X151619047Y-119954819D02*
X151380952Y-119954819D01*
X151380952Y-119954819D02*
X151285714Y-120002438D01*
X151285714Y-120002438D02*
X151238095Y-120050057D01*
X151238095Y-120050057D02*
X151190476Y-120145295D01*
X151190476Y-120145295D02*
X151190476Y-120240533D01*
X151190476Y-120240533D02*
X151238095Y-120383390D01*
X151238095Y-120383390D02*
X151809523Y-120954819D01*
X151809523Y-120954819D02*
X151190476Y-120954819D01*
X150619047Y-120383390D02*
X150714285Y-120335771D01*
X150714285Y-120335771D02*
X150761904Y-120288152D01*
X150761904Y-120288152D02*
X150809523Y-120192914D01*
X150809523Y-120192914D02*
X150809523Y-120145295D01*
X150809523Y-120145295D02*
X150761904Y-120050057D01*
X150761904Y-120050057D02*
X150714285Y-120002438D01*
X150714285Y-120002438D02*
X150619047Y-119954819D01*
X150619047Y-119954819D02*
X150428571Y-119954819D01*
X150428571Y-119954819D02*
X150333333Y-120002438D01*
X150333333Y-120002438D02*
X150285714Y-120050057D01*
X150285714Y-120050057D02*
X150238095Y-120145295D01*
X150238095Y-120145295D02*
X150238095Y-120192914D01*
X150238095Y-120192914D02*
X150285714Y-120288152D01*
X150285714Y-120288152D02*
X150333333Y-120335771D01*
X150333333Y-120335771D02*
X150428571Y-120383390D01*
X150428571Y-120383390D02*
X150619047Y-120383390D01*
X150619047Y-120383390D02*
X150714285Y-120431009D01*
X150714285Y-120431009D02*
X150761904Y-120478628D01*
X150761904Y-120478628D02*
X150809523Y-120573866D01*
X150809523Y-120573866D02*
X150809523Y-120764342D01*
X150809523Y-120764342D02*
X150761904Y-120859580D01*
X150761904Y-120859580D02*
X150714285Y-120907200D01*
X150714285Y-120907200D02*
X150619047Y-120954819D01*
X150619047Y-120954819D02*
X150428571Y-120954819D01*
X150428571Y-120954819D02*
X150333333Y-120907200D01*
X150333333Y-120907200D02*
X150285714Y-120859580D01*
X150285714Y-120859580D02*
X150238095Y-120764342D01*
X150238095Y-120764342D02*
X150238095Y-120573866D01*
X150238095Y-120573866D02*
X150285714Y-120478628D01*
X150285714Y-120478628D02*
X150333333Y-120431009D01*
X150333333Y-120431009D02*
X150428571Y-120383390D01*
X180642857Y-103359580D02*
X180690476Y-103407200D01*
X180690476Y-103407200D02*
X180833333Y-103454819D01*
X180833333Y-103454819D02*
X180928571Y-103454819D01*
X180928571Y-103454819D02*
X181071428Y-103407200D01*
X181071428Y-103407200D02*
X181166666Y-103311961D01*
X181166666Y-103311961D02*
X181214285Y-103216723D01*
X181214285Y-103216723D02*
X181261904Y-103026247D01*
X181261904Y-103026247D02*
X181261904Y-102883390D01*
X181261904Y-102883390D02*
X181214285Y-102692914D01*
X181214285Y-102692914D02*
X181166666Y-102597676D01*
X181166666Y-102597676D02*
X181071428Y-102502438D01*
X181071428Y-102502438D02*
X180928571Y-102454819D01*
X180928571Y-102454819D02*
X180833333Y-102454819D01*
X180833333Y-102454819D02*
X180690476Y-102502438D01*
X180690476Y-102502438D02*
X180642857Y-102550057D01*
X180261904Y-102550057D02*
X180214285Y-102502438D01*
X180214285Y-102502438D02*
X180119047Y-102454819D01*
X180119047Y-102454819D02*
X179880952Y-102454819D01*
X179880952Y-102454819D02*
X179785714Y-102502438D01*
X179785714Y-102502438D02*
X179738095Y-102550057D01*
X179738095Y-102550057D02*
X179690476Y-102645295D01*
X179690476Y-102645295D02*
X179690476Y-102740533D01*
X179690476Y-102740533D02*
X179738095Y-102883390D01*
X179738095Y-102883390D02*
X180309523Y-103454819D01*
X180309523Y-103454819D02*
X179690476Y-103454819D01*
X179357142Y-102454819D02*
X178738095Y-102454819D01*
X178738095Y-102454819D02*
X179071428Y-102835771D01*
X179071428Y-102835771D02*
X178928571Y-102835771D01*
X178928571Y-102835771D02*
X178833333Y-102883390D01*
X178833333Y-102883390D02*
X178785714Y-102931009D01*
X178785714Y-102931009D02*
X178738095Y-103026247D01*
X178738095Y-103026247D02*
X178738095Y-103264342D01*
X178738095Y-103264342D02*
X178785714Y-103359580D01*
X178785714Y-103359580D02*
X178833333Y-103407200D01*
X178833333Y-103407200D02*
X178928571Y-103454819D01*
X178928571Y-103454819D02*
X179214285Y-103454819D01*
X179214285Y-103454819D02*
X179309523Y-103407200D01*
X179309523Y-103407200D02*
X179357142Y-103359580D01*
X131238094Y-98954819D02*
X131238094Y-97954819D01*
X131238094Y-97954819D02*
X130999999Y-97954819D01*
X130999999Y-97954819D02*
X130857142Y-98002438D01*
X130857142Y-98002438D02*
X130761904Y-98097676D01*
X130761904Y-98097676D02*
X130714285Y-98192914D01*
X130714285Y-98192914D02*
X130666666Y-98383390D01*
X130666666Y-98383390D02*
X130666666Y-98526247D01*
X130666666Y-98526247D02*
X130714285Y-98716723D01*
X130714285Y-98716723D02*
X130761904Y-98811961D01*
X130761904Y-98811961D02*
X130857142Y-98907200D01*
X130857142Y-98907200D02*
X130999999Y-98954819D01*
X130999999Y-98954819D02*
X131238094Y-98954819D01*
X129714285Y-98954819D02*
X130285713Y-98954819D01*
X129999999Y-98954819D02*
X129999999Y-97954819D01*
X129999999Y-97954819D02*
X130095237Y-98097676D01*
X130095237Y-98097676D02*
X130190475Y-98192914D01*
X130190475Y-98192914D02*
X130285713Y-98240533D01*
X132666666Y-110359580D02*
X132714285Y-110407200D01*
X132714285Y-110407200D02*
X132857142Y-110454819D01*
X132857142Y-110454819D02*
X132952380Y-110454819D01*
X132952380Y-110454819D02*
X133095237Y-110407200D01*
X133095237Y-110407200D02*
X133190475Y-110311961D01*
X133190475Y-110311961D02*
X133238094Y-110216723D01*
X133238094Y-110216723D02*
X133285713Y-110026247D01*
X133285713Y-110026247D02*
X133285713Y-109883390D01*
X133285713Y-109883390D02*
X133238094Y-109692914D01*
X133238094Y-109692914D02*
X133190475Y-109597676D01*
X133190475Y-109597676D02*
X133095237Y-109502438D01*
X133095237Y-109502438D02*
X132952380Y-109454819D01*
X132952380Y-109454819D02*
X132857142Y-109454819D01*
X132857142Y-109454819D02*
X132714285Y-109502438D01*
X132714285Y-109502438D02*
X132666666Y-109550057D01*
X131809523Y-109454819D02*
X131999999Y-109454819D01*
X131999999Y-109454819D02*
X132095237Y-109502438D01*
X132095237Y-109502438D02*
X132142856Y-109550057D01*
X132142856Y-109550057D02*
X132238094Y-109692914D01*
X132238094Y-109692914D02*
X132285713Y-109883390D01*
X132285713Y-109883390D02*
X132285713Y-110264342D01*
X132285713Y-110264342D02*
X132238094Y-110359580D01*
X132238094Y-110359580D02*
X132190475Y-110407200D01*
X132190475Y-110407200D02*
X132095237Y-110454819D01*
X132095237Y-110454819D02*
X131904761Y-110454819D01*
X131904761Y-110454819D02*
X131809523Y-110407200D01*
X131809523Y-110407200D02*
X131761904Y-110359580D01*
X131761904Y-110359580D02*
X131714285Y-110264342D01*
X131714285Y-110264342D02*
X131714285Y-110026247D01*
X131714285Y-110026247D02*
X131761904Y-109931009D01*
X131761904Y-109931009D02*
X131809523Y-109883390D01*
X131809523Y-109883390D02*
X131904761Y-109835771D01*
X131904761Y-109835771D02*
X132095237Y-109835771D01*
X132095237Y-109835771D02*
X132190475Y-109883390D01*
X132190475Y-109883390D02*
X132238094Y-109931009D01*
X132238094Y-109931009D02*
X132285713Y-110026247D01*
X145166666Y-104454819D02*
X145499999Y-103978628D01*
X145738094Y-104454819D02*
X145738094Y-103454819D01*
X145738094Y-103454819D02*
X145357142Y-103454819D01*
X145357142Y-103454819D02*
X145261904Y-103502438D01*
X145261904Y-103502438D02*
X145214285Y-103550057D01*
X145214285Y-103550057D02*
X145166666Y-103645295D01*
X145166666Y-103645295D02*
X145166666Y-103788152D01*
X145166666Y-103788152D02*
X145214285Y-103883390D01*
X145214285Y-103883390D02*
X145261904Y-103931009D01*
X145261904Y-103931009D02*
X145357142Y-103978628D01*
X145357142Y-103978628D02*
X145738094Y-103978628D01*
X144261904Y-103454819D02*
X144738094Y-103454819D01*
X144738094Y-103454819D02*
X144785713Y-103931009D01*
X144785713Y-103931009D02*
X144738094Y-103883390D01*
X144738094Y-103883390D02*
X144642856Y-103835771D01*
X144642856Y-103835771D02*
X144404761Y-103835771D01*
X144404761Y-103835771D02*
X144309523Y-103883390D01*
X144309523Y-103883390D02*
X144261904Y-103931009D01*
X144261904Y-103931009D02*
X144214285Y-104026247D01*
X144214285Y-104026247D02*
X144214285Y-104264342D01*
X144214285Y-104264342D02*
X144261904Y-104359580D01*
X144261904Y-104359580D02*
X144309523Y-104407200D01*
X144309523Y-104407200D02*
X144404761Y-104454819D01*
X144404761Y-104454819D02*
X144642856Y-104454819D01*
X144642856Y-104454819D02*
X144738094Y-104407200D01*
X144738094Y-104407200D02*
X144785713Y-104359580D01*
X133261904Y-120954819D02*
X133261904Y-121764342D01*
X133261904Y-121764342D02*
X133214285Y-121859580D01*
X133214285Y-121859580D02*
X133166666Y-121907200D01*
X133166666Y-121907200D02*
X133071428Y-121954819D01*
X133071428Y-121954819D02*
X132880952Y-121954819D01*
X132880952Y-121954819D02*
X132785714Y-121907200D01*
X132785714Y-121907200D02*
X132738095Y-121859580D01*
X132738095Y-121859580D02*
X132690476Y-121764342D01*
X132690476Y-121764342D02*
X132690476Y-120954819D01*
X132166666Y-121954819D02*
X131976190Y-121954819D01*
X131976190Y-121954819D02*
X131880952Y-121907200D01*
X131880952Y-121907200D02*
X131833333Y-121859580D01*
X131833333Y-121859580D02*
X131738095Y-121716723D01*
X131738095Y-121716723D02*
X131690476Y-121526247D01*
X131690476Y-121526247D02*
X131690476Y-121145295D01*
X131690476Y-121145295D02*
X131738095Y-121050057D01*
X131738095Y-121050057D02*
X131785714Y-121002438D01*
X131785714Y-121002438D02*
X131880952Y-120954819D01*
X131880952Y-120954819D02*
X132071428Y-120954819D01*
X132071428Y-120954819D02*
X132166666Y-121002438D01*
X132166666Y-121002438D02*
X132214285Y-121050057D01*
X132214285Y-121050057D02*
X132261904Y-121145295D01*
X132261904Y-121145295D02*
X132261904Y-121383390D01*
X132261904Y-121383390D02*
X132214285Y-121478628D01*
X132214285Y-121478628D02*
X132166666Y-121526247D01*
X132166666Y-121526247D02*
X132071428Y-121573866D01*
X132071428Y-121573866D02*
X131880952Y-121573866D01*
X131880952Y-121573866D02*
X131785714Y-121526247D01*
X131785714Y-121526247D02*
X131738095Y-121478628D01*
X131738095Y-121478628D02*
X131690476Y-121383390D01*
X136454819Y-92857142D02*
X135978628Y-92523809D01*
X136454819Y-92285714D02*
X135454819Y-92285714D01*
X135454819Y-92285714D02*
X135454819Y-92666666D01*
X135454819Y-92666666D02*
X135502438Y-92761904D01*
X135502438Y-92761904D02*
X135550057Y-92809523D01*
X135550057Y-92809523D02*
X135645295Y-92857142D01*
X135645295Y-92857142D02*
X135788152Y-92857142D01*
X135788152Y-92857142D02*
X135883390Y-92809523D01*
X135883390Y-92809523D02*
X135931009Y-92761904D01*
X135931009Y-92761904D02*
X135978628Y-92666666D01*
X135978628Y-92666666D02*
X135978628Y-92285714D01*
X136454819Y-93809523D02*
X136454819Y-93238095D01*
X136454819Y-93523809D02*
X135454819Y-93523809D01*
X135454819Y-93523809D02*
X135597676Y-93428571D01*
X135597676Y-93428571D02*
X135692914Y-93333333D01*
X135692914Y-93333333D02*
X135740533Y-93238095D01*
X135454819Y-94428571D02*
X135454819Y-94523809D01*
X135454819Y-94523809D02*
X135502438Y-94619047D01*
X135502438Y-94619047D02*
X135550057Y-94666666D01*
X135550057Y-94666666D02*
X135645295Y-94714285D01*
X135645295Y-94714285D02*
X135835771Y-94761904D01*
X135835771Y-94761904D02*
X136073866Y-94761904D01*
X136073866Y-94761904D02*
X136264342Y-94714285D01*
X136264342Y-94714285D02*
X136359580Y-94666666D01*
X136359580Y-94666666D02*
X136407200Y-94619047D01*
X136407200Y-94619047D02*
X136454819Y-94523809D01*
X136454819Y-94523809D02*
X136454819Y-94428571D01*
X136454819Y-94428571D02*
X136407200Y-94333333D01*
X136407200Y-94333333D02*
X136359580Y-94285714D01*
X136359580Y-94285714D02*
X136264342Y-94238095D01*
X136264342Y-94238095D02*
X136073866Y-94190476D01*
X136073866Y-94190476D02*
X135835771Y-94190476D01*
X135835771Y-94190476D02*
X135645295Y-94238095D01*
X135645295Y-94238095D02*
X135550057Y-94285714D01*
X135550057Y-94285714D02*
X135502438Y-94333333D01*
X135502438Y-94333333D02*
X135454819Y-94428571D01*
X190642857Y-95454819D02*
X190976190Y-94978628D01*
X191214285Y-95454819D02*
X191214285Y-94454819D01*
X191214285Y-94454819D02*
X190833333Y-94454819D01*
X190833333Y-94454819D02*
X190738095Y-94502438D01*
X190738095Y-94502438D02*
X190690476Y-94550057D01*
X190690476Y-94550057D02*
X190642857Y-94645295D01*
X190642857Y-94645295D02*
X190642857Y-94788152D01*
X190642857Y-94788152D02*
X190690476Y-94883390D01*
X190690476Y-94883390D02*
X190738095Y-94931009D01*
X190738095Y-94931009D02*
X190833333Y-94978628D01*
X190833333Y-94978628D02*
X191214285Y-94978628D01*
X189690476Y-95454819D02*
X190261904Y-95454819D01*
X189976190Y-95454819D02*
X189976190Y-94454819D01*
X189976190Y-94454819D02*
X190071428Y-94597676D01*
X190071428Y-94597676D02*
X190166666Y-94692914D01*
X190166666Y-94692914D02*
X190261904Y-94740533D01*
X189309523Y-94550057D02*
X189261904Y-94502438D01*
X189261904Y-94502438D02*
X189166666Y-94454819D01*
X189166666Y-94454819D02*
X188928571Y-94454819D01*
X188928571Y-94454819D02*
X188833333Y-94502438D01*
X188833333Y-94502438D02*
X188785714Y-94550057D01*
X188785714Y-94550057D02*
X188738095Y-94645295D01*
X188738095Y-94645295D02*
X188738095Y-94740533D01*
X188738095Y-94740533D02*
X188785714Y-94883390D01*
X188785714Y-94883390D02*
X189357142Y-95454819D01*
X189357142Y-95454819D02*
X188738095Y-95454819D01*
X155454819Y-111833333D02*
X154978628Y-111500000D01*
X155454819Y-111261905D02*
X154454819Y-111261905D01*
X154454819Y-111261905D02*
X154454819Y-111642857D01*
X154454819Y-111642857D02*
X154502438Y-111738095D01*
X154502438Y-111738095D02*
X154550057Y-111785714D01*
X154550057Y-111785714D02*
X154645295Y-111833333D01*
X154645295Y-111833333D02*
X154788152Y-111833333D01*
X154788152Y-111833333D02*
X154883390Y-111785714D01*
X154883390Y-111785714D02*
X154931009Y-111738095D01*
X154931009Y-111738095D02*
X154978628Y-111642857D01*
X154978628Y-111642857D02*
X154978628Y-111261905D01*
X154883390Y-112404762D02*
X154835771Y-112309524D01*
X154835771Y-112309524D02*
X154788152Y-112261905D01*
X154788152Y-112261905D02*
X154692914Y-112214286D01*
X154692914Y-112214286D02*
X154645295Y-112214286D01*
X154645295Y-112214286D02*
X154550057Y-112261905D01*
X154550057Y-112261905D02*
X154502438Y-112309524D01*
X154502438Y-112309524D02*
X154454819Y-112404762D01*
X154454819Y-112404762D02*
X154454819Y-112595238D01*
X154454819Y-112595238D02*
X154502438Y-112690476D01*
X154502438Y-112690476D02*
X154550057Y-112738095D01*
X154550057Y-112738095D02*
X154645295Y-112785714D01*
X154645295Y-112785714D02*
X154692914Y-112785714D01*
X154692914Y-112785714D02*
X154788152Y-112738095D01*
X154788152Y-112738095D02*
X154835771Y-112690476D01*
X154835771Y-112690476D02*
X154883390Y-112595238D01*
X154883390Y-112595238D02*
X154883390Y-112404762D01*
X154883390Y-112404762D02*
X154931009Y-112309524D01*
X154931009Y-112309524D02*
X154978628Y-112261905D01*
X154978628Y-112261905D02*
X155073866Y-112214286D01*
X155073866Y-112214286D02*
X155264342Y-112214286D01*
X155264342Y-112214286D02*
X155359580Y-112261905D01*
X155359580Y-112261905D02*
X155407200Y-112309524D01*
X155407200Y-112309524D02*
X155454819Y-112404762D01*
X155454819Y-112404762D02*
X155454819Y-112595238D01*
X155454819Y-112595238D02*
X155407200Y-112690476D01*
X155407200Y-112690476D02*
X155359580Y-112738095D01*
X155359580Y-112738095D02*
X155264342Y-112785714D01*
X155264342Y-112785714D02*
X155073866Y-112785714D01*
X155073866Y-112785714D02*
X154978628Y-112738095D01*
X154978628Y-112738095D02*
X154931009Y-112690476D01*
X154931009Y-112690476D02*
X154883390Y-112595238D01*
X145454819Y-99739405D02*
X144454819Y-99739405D01*
X144454819Y-99739405D02*
X144454819Y-99977500D01*
X144454819Y-99977500D02*
X144502438Y-100120357D01*
X144502438Y-100120357D02*
X144597676Y-100215595D01*
X144597676Y-100215595D02*
X144692914Y-100263214D01*
X144692914Y-100263214D02*
X144883390Y-100310833D01*
X144883390Y-100310833D02*
X145026247Y-100310833D01*
X145026247Y-100310833D02*
X145216723Y-100263214D01*
X145216723Y-100263214D02*
X145311961Y-100215595D01*
X145311961Y-100215595D02*
X145407200Y-100120357D01*
X145407200Y-100120357D02*
X145454819Y-99977500D01*
X145454819Y-99977500D02*
X145454819Y-99739405D01*
X144454819Y-101215595D02*
X144454819Y-100739405D01*
X144454819Y-100739405D02*
X144931009Y-100691786D01*
X144931009Y-100691786D02*
X144883390Y-100739405D01*
X144883390Y-100739405D02*
X144835771Y-100834643D01*
X144835771Y-100834643D02*
X144835771Y-101072738D01*
X144835771Y-101072738D02*
X144883390Y-101167976D01*
X144883390Y-101167976D02*
X144931009Y-101215595D01*
X144931009Y-101215595D02*
X145026247Y-101263214D01*
X145026247Y-101263214D02*
X145264342Y-101263214D01*
X145264342Y-101263214D02*
X145359580Y-101215595D01*
X145359580Y-101215595D02*
X145407200Y-101167976D01*
X145407200Y-101167976D02*
X145454819Y-101072738D01*
X145454819Y-101072738D02*
X145454819Y-100834643D01*
X145454819Y-100834643D02*
X145407200Y-100739405D01*
X145407200Y-100739405D02*
X145359580Y-100691786D01*
X136166666Y-108359580D02*
X136214285Y-108407200D01*
X136214285Y-108407200D02*
X136357142Y-108454819D01*
X136357142Y-108454819D02*
X136452380Y-108454819D01*
X136452380Y-108454819D02*
X136595237Y-108407200D01*
X136595237Y-108407200D02*
X136690475Y-108311961D01*
X136690475Y-108311961D02*
X136738094Y-108216723D01*
X136738094Y-108216723D02*
X136785713Y-108026247D01*
X136785713Y-108026247D02*
X136785713Y-107883390D01*
X136785713Y-107883390D02*
X136738094Y-107692914D01*
X136738094Y-107692914D02*
X136690475Y-107597676D01*
X136690475Y-107597676D02*
X136595237Y-107502438D01*
X136595237Y-107502438D02*
X136452380Y-107454819D01*
X136452380Y-107454819D02*
X136357142Y-107454819D01*
X136357142Y-107454819D02*
X136214285Y-107502438D01*
X136214285Y-107502438D02*
X136166666Y-107550057D01*
X135690475Y-108454819D02*
X135499999Y-108454819D01*
X135499999Y-108454819D02*
X135404761Y-108407200D01*
X135404761Y-108407200D02*
X135357142Y-108359580D01*
X135357142Y-108359580D02*
X135261904Y-108216723D01*
X135261904Y-108216723D02*
X135214285Y-108026247D01*
X135214285Y-108026247D02*
X135214285Y-107645295D01*
X135214285Y-107645295D02*
X135261904Y-107550057D01*
X135261904Y-107550057D02*
X135309523Y-107502438D01*
X135309523Y-107502438D02*
X135404761Y-107454819D01*
X135404761Y-107454819D02*
X135595237Y-107454819D01*
X135595237Y-107454819D02*
X135690475Y-107502438D01*
X135690475Y-107502438D02*
X135738094Y-107550057D01*
X135738094Y-107550057D02*
X135785713Y-107645295D01*
X135785713Y-107645295D02*
X135785713Y-107883390D01*
X135785713Y-107883390D02*
X135738094Y-107978628D01*
X135738094Y-107978628D02*
X135690475Y-108026247D01*
X135690475Y-108026247D02*
X135595237Y-108073866D01*
X135595237Y-108073866D02*
X135404761Y-108073866D01*
X135404761Y-108073866D02*
X135309523Y-108026247D01*
X135309523Y-108026247D02*
X135261904Y-107978628D01*
X135261904Y-107978628D02*
X135214285Y-107883390D01*
X155954819Y-96239405D02*
X154954819Y-96239405D01*
X154954819Y-96239405D02*
X154954819Y-96477500D01*
X154954819Y-96477500D02*
X155002438Y-96620357D01*
X155002438Y-96620357D02*
X155097676Y-96715595D01*
X155097676Y-96715595D02*
X155192914Y-96763214D01*
X155192914Y-96763214D02*
X155383390Y-96810833D01*
X155383390Y-96810833D02*
X155526247Y-96810833D01*
X155526247Y-96810833D02*
X155716723Y-96763214D01*
X155716723Y-96763214D02*
X155811961Y-96715595D01*
X155811961Y-96715595D02*
X155907200Y-96620357D01*
X155907200Y-96620357D02*
X155954819Y-96477500D01*
X155954819Y-96477500D02*
X155954819Y-96239405D01*
X155288152Y-97667976D02*
X155954819Y-97667976D01*
X154907200Y-97429881D02*
X155621485Y-97191786D01*
X155621485Y-97191786D02*
X155621485Y-97810833D01*
X146142857Y-106359580D02*
X146190476Y-106407200D01*
X146190476Y-106407200D02*
X146333333Y-106454819D01*
X146333333Y-106454819D02*
X146428571Y-106454819D01*
X146428571Y-106454819D02*
X146571428Y-106407200D01*
X146571428Y-106407200D02*
X146666666Y-106311961D01*
X146666666Y-106311961D02*
X146714285Y-106216723D01*
X146714285Y-106216723D02*
X146761904Y-106026247D01*
X146761904Y-106026247D02*
X146761904Y-105883390D01*
X146761904Y-105883390D02*
X146714285Y-105692914D01*
X146714285Y-105692914D02*
X146666666Y-105597676D01*
X146666666Y-105597676D02*
X146571428Y-105502438D01*
X146571428Y-105502438D02*
X146428571Y-105454819D01*
X146428571Y-105454819D02*
X146333333Y-105454819D01*
X146333333Y-105454819D02*
X146190476Y-105502438D01*
X146190476Y-105502438D02*
X146142857Y-105550057D01*
X145761904Y-105550057D02*
X145714285Y-105502438D01*
X145714285Y-105502438D02*
X145619047Y-105454819D01*
X145619047Y-105454819D02*
X145380952Y-105454819D01*
X145380952Y-105454819D02*
X145285714Y-105502438D01*
X145285714Y-105502438D02*
X145238095Y-105550057D01*
X145238095Y-105550057D02*
X145190476Y-105645295D01*
X145190476Y-105645295D02*
X145190476Y-105740533D01*
X145190476Y-105740533D02*
X145238095Y-105883390D01*
X145238095Y-105883390D02*
X145809523Y-106454819D01*
X145809523Y-106454819D02*
X145190476Y-106454819D01*
X144238095Y-106454819D02*
X144809523Y-106454819D01*
X144523809Y-106454819D02*
X144523809Y-105454819D01*
X144523809Y-105454819D02*
X144619047Y-105597676D01*
X144619047Y-105597676D02*
X144714285Y-105692914D01*
X144714285Y-105692914D02*
X144809523Y-105740533D01*
X181166666Y-89454819D02*
X181499999Y-88978628D01*
X181738094Y-89454819D02*
X181738094Y-88454819D01*
X181738094Y-88454819D02*
X181357142Y-88454819D01*
X181357142Y-88454819D02*
X181261904Y-88502438D01*
X181261904Y-88502438D02*
X181214285Y-88550057D01*
X181214285Y-88550057D02*
X181166666Y-88645295D01*
X181166666Y-88645295D02*
X181166666Y-88788152D01*
X181166666Y-88788152D02*
X181214285Y-88883390D01*
X181214285Y-88883390D02*
X181261904Y-88931009D01*
X181261904Y-88931009D02*
X181357142Y-88978628D01*
X181357142Y-88978628D02*
X181738094Y-88978628D01*
X180785713Y-88550057D02*
X180738094Y-88502438D01*
X180738094Y-88502438D02*
X180642856Y-88454819D01*
X180642856Y-88454819D02*
X180404761Y-88454819D01*
X180404761Y-88454819D02*
X180309523Y-88502438D01*
X180309523Y-88502438D02*
X180261904Y-88550057D01*
X180261904Y-88550057D02*
X180214285Y-88645295D01*
X180214285Y-88645295D02*
X180214285Y-88740533D01*
X180214285Y-88740533D02*
X180261904Y-88883390D01*
X180261904Y-88883390D02*
X180833332Y-89454819D01*
X180833332Y-89454819D02*
X180214285Y-89454819D01*
X136166666Y-104454819D02*
X136499999Y-103978628D01*
X136738094Y-104454819D02*
X136738094Y-103454819D01*
X136738094Y-103454819D02*
X136357142Y-103454819D01*
X136357142Y-103454819D02*
X136261904Y-103502438D01*
X136261904Y-103502438D02*
X136214285Y-103550057D01*
X136214285Y-103550057D02*
X136166666Y-103645295D01*
X136166666Y-103645295D02*
X136166666Y-103788152D01*
X136166666Y-103788152D02*
X136214285Y-103883390D01*
X136214285Y-103883390D02*
X136261904Y-103931009D01*
X136261904Y-103931009D02*
X136357142Y-103978628D01*
X136357142Y-103978628D02*
X136738094Y-103978628D01*
X135833332Y-103454819D02*
X135166666Y-103454819D01*
X135166666Y-103454819D02*
X135595237Y-104454819D01*
X148454819Y-88784405D02*
X147454819Y-88784405D01*
X147454819Y-88784405D02*
X147454819Y-89022500D01*
X147454819Y-89022500D02*
X147502438Y-89165357D01*
X147502438Y-89165357D02*
X147597676Y-89260595D01*
X147597676Y-89260595D02*
X147692914Y-89308214D01*
X147692914Y-89308214D02*
X147883390Y-89355833D01*
X147883390Y-89355833D02*
X148026247Y-89355833D01*
X148026247Y-89355833D02*
X148216723Y-89308214D01*
X148216723Y-89308214D02*
X148311961Y-89260595D01*
X148311961Y-89260595D02*
X148407200Y-89165357D01*
X148407200Y-89165357D02*
X148454819Y-89022500D01*
X148454819Y-89022500D02*
X148454819Y-88784405D01*
X147454819Y-89689167D02*
X147454819Y-90308214D01*
X147454819Y-90308214D02*
X147835771Y-89974881D01*
X147835771Y-89974881D02*
X147835771Y-90117738D01*
X147835771Y-90117738D02*
X147883390Y-90212976D01*
X147883390Y-90212976D02*
X147931009Y-90260595D01*
X147931009Y-90260595D02*
X148026247Y-90308214D01*
X148026247Y-90308214D02*
X148264342Y-90308214D01*
X148264342Y-90308214D02*
X148359580Y-90260595D01*
X148359580Y-90260595D02*
X148407200Y-90212976D01*
X148407200Y-90212976D02*
X148454819Y-90117738D01*
X148454819Y-90117738D02*
X148454819Y-89832024D01*
X148454819Y-89832024D02*
X148407200Y-89736786D01*
X148407200Y-89736786D02*
X148359580Y-89689167D01*
X132642857Y-118954819D02*
X132976190Y-118478628D01*
X133214285Y-118954819D02*
X133214285Y-117954819D01*
X133214285Y-117954819D02*
X132833333Y-117954819D01*
X132833333Y-117954819D02*
X132738095Y-118002438D01*
X132738095Y-118002438D02*
X132690476Y-118050057D01*
X132690476Y-118050057D02*
X132642857Y-118145295D01*
X132642857Y-118145295D02*
X132642857Y-118288152D01*
X132642857Y-118288152D02*
X132690476Y-118383390D01*
X132690476Y-118383390D02*
X132738095Y-118431009D01*
X132738095Y-118431009D02*
X132833333Y-118478628D01*
X132833333Y-118478628D02*
X133214285Y-118478628D01*
X132261904Y-118050057D02*
X132214285Y-118002438D01*
X132214285Y-118002438D02*
X132119047Y-117954819D01*
X132119047Y-117954819D02*
X131880952Y-117954819D01*
X131880952Y-117954819D02*
X131785714Y-118002438D01*
X131785714Y-118002438D02*
X131738095Y-118050057D01*
X131738095Y-118050057D02*
X131690476Y-118145295D01*
X131690476Y-118145295D02*
X131690476Y-118240533D01*
X131690476Y-118240533D02*
X131738095Y-118383390D01*
X131738095Y-118383390D02*
X132309523Y-118954819D01*
X132309523Y-118954819D02*
X131690476Y-118954819D01*
X130833333Y-117954819D02*
X131023809Y-117954819D01*
X131023809Y-117954819D02*
X131119047Y-118002438D01*
X131119047Y-118002438D02*
X131166666Y-118050057D01*
X131166666Y-118050057D02*
X131261904Y-118192914D01*
X131261904Y-118192914D02*
X131309523Y-118383390D01*
X131309523Y-118383390D02*
X131309523Y-118764342D01*
X131309523Y-118764342D02*
X131261904Y-118859580D01*
X131261904Y-118859580D02*
X131214285Y-118907200D01*
X131214285Y-118907200D02*
X131119047Y-118954819D01*
X131119047Y-118954819D02*
X130928571Y-118954819D01*
X130928571Y-118954819D02*
X130833333Y-118907200D01*
X130833333Y-118907200D02*
X130785714Y-118859580D01*
X130785714Y-118859580D02*
X130738095Y-118764342D01*
X130738095Y-118764342D02*
X130738095Y-118526247D01*
X130738095Y-118526247D02*
X130785714Y-118431009D01*
X130785714Y-118431009D02*
X130833333Y-118383390D01*
X130833333Y-118383390D02*
X130928571Y-118335771D01*
X130928571Y-118335771D02*
X131119047Y-118335771D01*
X131119047Y-118335771D02*
X131214285Y-118383390D01*
X131214285Y-118383390D02*
X131261904Y-118431009D01*
X131261904Y-118431009D02*
X131309523Y-118526247D01*
X128761904Y-124454819D02*
X128190476Y-124454819D01*
X128476190Y-125454819D02*
X128476190Y-124454819D01*
X127857142Y-125454819D02*
X127857142Y-124454819D01*
X127857142Y-124454819D02*
X127476190Y-124454819D01*
X127476190Y-124454819D02*
X127380952Y-124502438D01*
X127380952Y-124502438D02*
X127333333Y-124550057D01*
X127333333Y-124550057D02*
X127285714Y-124645295D01*
X127285714Y-124645295D02*
X127285714Y-124788152D01*
X127285714Y-124788152D02*
X127333333Y-124883390D01*
X127333333Y-124883390D02*
X127380952Y-124931009D01*
X127380952Y-124931009D02*
X127476190Y-124978628D01*
X127476190Y-124978628D02*
X127857142Y-124978628D01*
X126333333Y-125454819D02*
X126904761Y-125454819D01*
X126619047Y-125454819D02*
X126619047Y-124454819D01*
X126619047Y-124454819D02*
X126714285Y-124597676D01*
X126714285Y-124597676D02*
X126809523Y-124692914D01*
X126809523Y-124692914D02*
X126904761Y-124740533D01*
X190666666Y-105454819D02*
X190999999Y-104978628D01*
X191238094Y-105454819D02*
X191238094Y-104454819D01*
X191238094Y-104454819D02*
X190857142Y-104454819D01*
X190857142Y-104454819D02*
X190761904Y-104502438D01*
X190761904Y-104502438D02*
X190714285Y-104550057D01*
X190714285Y-104550057D02*
X190666666Y-104645295D01*
X190666666Y-104645295D02*
X190666666Y-104788152D01*
X190666666Y-104788152D02*
X190714285Y-104883390D01*
X190714285Y-104883390D02*
X190761904Y-104931009D01*
X190761904Y-104931009D02*
X190857142Y-104978628D01*
X190857142Y-104978628D02*
X191238094Y-104978628D01*
X189809523Y-104454819D02*
X189999999Y-104454819D01*
X189999999Y-104454819D02*
X190095237Y-104502438D01*
X190095237Y-104502438D02*
X190142856Y-104550057D01*
X190142856Y-104550057D02*
X190238094Y-104692914D01*
X190238094Y-104692914D02*
X190285713Y-104883390D01*
X190285713Y-104883390D02*
X190285713Y-105264342D01*
X190285713Y-105264342D02*
X190238094Y-105359580D01*
X190238094Y-105359580D02*
X190190475Y-105407200D01*
X190190475Y-105407200D02*
X190095237Y-105454819D01*
X190095237Y-105454819D02*
X189904761Y-105454819D01*
X189904761Y-105454819D02*
X189809523Y-105407200D01*
X189809523Y-105407200D02*
X189761904Y-105359580D01*
X189761904Y-105359580D02*
X189714285Y-105264342D01*
X189714285Y-105264342D02*
X189714285Y-105026247D01*
X189714285Y-105026247D02*
X189761904Y-104931009D01*
X189761904Y-104931009D02*
X189809523Y-104883390D01*
X189809523Y-104883390D02*
X189904761Y-104835771D01*
X189904761Y-104835771D02*
X190095237Y-104835771D01*
X190095237Y-104835771D02*
X190190475Y-104883390D01*
X190190475Y-104883390D02*
X190238094Y-104931009D01*
X190238094Y-104931009D02*
X190285713Y-105026247D01*
X157150057Y-105754761D02*
X157102438Y-105659523D01*
X157102438Y-105659523D02*
X157007200Y-105564285D01*
X157007200Y-105564285D02*
X156864342Y-105421428D01*
X156864342Y-105421428D02*
X156816723Y-105326190D01*
X156816723Y-105326190D02*
X156816723Y-105230952D01*
X157054819Y-105278571D02*
X157007200Y-105183333D01*
X157007200Y-105183333D02*
X156911961Y-105088095D01*
X156911961Y-105088095D02*
X156721485Y-105040476D01*
X156721485Y-105040476D02*
X156388152Y-105040476D01*
X156388152Y-105040476D02*
X156197676Y-105088095D01*
X156197676Y-105088095D02*
X156102438Y-105183333D01*
X156102438Y-105183333D02*
X156054819Y-105278571D01*
X156054819Y-105278571D02*
X156054819Y-105469047D01*
X156054819Y-105469047D02*
X156102438Y-105564285D01*
X156102438Y-105564285D02*
X156197676Y-105659523D01*
X156197676Y-105659523D02*
X156388152Y-105707142D01*
X156388152Y-105707142D02*
X156721485Y-105707142D01*
X156721485Y-105707142D02*
X156911961Y-105659523D01*
X156911961Y-105659523D02*
X157007200Y-105564285D01*
X157007200Y-105564285D02*
X157054819Y-105469047D01*
X157054819Y-105469047D02*
X157054819Y-105278571D01*
X157054819Y-106659523D02*
X157054819Y-106088095D01*
X157054819Y-106373809D02*
X156054819Y-106373809D01*
X156054819Y-106373809D02*
X156197676Y-106278571D01*
X156197676Y-106278571D02*
X156292914Y-106183333D01*
X156292914Y-106183333D02*
X156340533Y-106088095D01*
X132666666Y-112359580D02*
X132714285Y-112407200D01*
X132714285Y-112407200D02*
X132857142Y-112454819D01*
X132857142Y-112454819D02*
X132952380Y-112454819D01*
X132952380Y-112454819D02*
X133095237Y-112407200D01*
X133095237Y-112407200D02*
X133190475Y-112311961D01*
X133190475Y-112311961D02*
X133238094Y-112216723D01*
X133238094Y-112216723D02*
X133285713Y-112026247D01*
X133285713Y-112026247D02*
X133285713Y-111883390D01*
X133285713Y-111883390D02*
X133238094Y-111692914D01*
X133238094Y-111692914D02*
X133190475Y-111597676D01*
X133190475Y-111597676D02*
X133095237Y-111502438D01*
X133095237Y-111502438D02*
X132952380Y-111454819D01*
X132952380Y-111454819D02*
X132857142Y-111454819D01*
X132857142Y-111454819D02*
X132714285Y-111502438D01*
X132714285Y-111502438D02*
X132666666Y-111550057D01*
X132333332Y-111454819D02*
X131666666Y-111454819D01*
X131666666Y-111454819D02*
X132095237Y-112454819D01*
X174666666Y-90859580D02*
X174714285Y-90907200D01*
X174714285Y-90907200D02*
X174857142Y-90954819D01*
X174857142Y-90954819D02*
X174952380Y-90954819D01*
X174952380Y-90954819D02*
X175095237Y-90907200D01*
X175095237Y-90907200D02*
X175190475Y-90811961D01*
X175190475Y-90811961D02*
X175238094Y-90716723D01*
X175238094Y-90716723D02*
X175285713Y-90526247D01*
X175285713Y-90526247D02*
X175285713Y-90383390D01*
X175285713Y-90383390D02*
X175238094Y-90192914D01*
X175238094Y-90192914D02*
X175190475Y-90097676D01*
X175190475Y-90097676D02*
X175095237Y-90002438D01*
X175095237Y-90002438D02*
X174952380Y-89954819D01*
X174952380Y-89954819D02*
X174857142Y-89954819D01*
X174857142Y-89954819D02*
X174714285Y-90002438D01*
X174714285Y-90002438D02*
X174666666Y-90050057D01*
X173809523Y-90288152D02*
X173809523Y-90954819D01*
X174047618Y-89907200D02*
X174285713Y-90621485D01*
X174285713Y-90621485D02*
X173666666Y-90621485D01*
X132833333Y-115891317D02*
X132833333Y-116605602D01*
X132833333Y-116605602D02*
X132880952Y-116748459D01*
X132880952Y-116748459D02*
X132976190Y-116843698D01*
X132976190Y-116843698D02*
X133119047Y-116891317D01*
X133119047Y-116891317D02*
X133214285Y-116891317D01*
X132357142Y-116891317D02*
X132357142Y-115891317D01*
X132357142Y-115891317D02*
X131976190Y-115891317D01*
X131976190Y-115891317D02*
X131880952Y-115938936D01*
X131880952Y-115938936D02*
X131833333Y-115986555D01*
X131833333Y-115986555D02*
X131785714Y-116081793D01*
X131785714Y-116081793D02*
X131785714Y-116224650D01*
X131785714Y-116224650D02*
X131833333Y-116319888D01*
X131833333Y-116319888D02*
X131880952Y-116367507D01*
X131880952Y-116367507D02*
X131976190Y-116415126D01*
X131976190Y-116415126D02*
X132357142Y-116415126D01*
X131404761Y-115986555D02*
X131357142Y-115938936D01*
X131357142Y-115938936D02*
X131261904Y-115891317D01*
X131261904Y-115891317D02*
X131023809Y-115891317D01*
X131023809Y-115891317D02*
X130928571Y-115938936D01*
X130928571Y-115938936D02*
X130880952Y-115986555D01*
X130880952Y-115986555D02*
X130833333Y-116081793D01*
X130833333Y-116081793D02*
X130833333Y-116177031D01*
X130833333Y-116177031D02*
X130880952Y-116319888D01*
X130880952Y-116319888D02*
X131452380Y-116891317D01*
X131452380Y-116891317D02*
X130833333Y-116891317D01*
X154976190Y-127978628D02*
X154976190Y-128454819D01*
X155309523Y-127454819D02*
X154976190Y-127978628D01*
X154976190Y-127978628D02*
X154642857Y-127454819D01*
X153785714Y-128454819D02*
X154357142Y-128454819D01*
X154071428Y-128454819D02*
X154071428Y-127454819D01*
X154071428Y-127454819D02*
X154166666Y-127597676D01*
X154166666Y-127597676D02*
X154261904Y-127692914D01*
X154261904Y-127692914D02*
X154357142Y-127740533D01*
X145454819Y-94761905D02*
X144454819Y-94761905D01*
X144454819Y-94761905D02*
X144454819Y-95000000D01*
X144454819Y-95000000D02*
X144502438Y-95142857D01*
X144502438Y-95142857D02*
X144597676Y-95238095D01*
X144597676Y-95238095D02*
X144692914Y-95285714D01*
X144692914Y-95285714D02*
X144883390Y-95333333D01*
X144883390Y-95333333D02*
X145026247Y-95333333D01*
X145026247Y-95333333D02*
X145216723Y-95285714D01*
X145216723Y-95285714D02*
X145311961Y-95238095D01*
X145311961Y-95238095D02*
X145407200Y-95142857D01*
X145407200Y-95142857D02*
X145454819Y-95000000D01*
X145454819Y-95000000D02*
X145454819Y-94761905D01*
X144883390Y-95904762D02*
X144835771Y-95809524D01*
X144835771Y-95809524D02*
X144788152Y-95761905D01*
X144788152Y-95761905D02*
X144692914Y-95714286D01*
X144692914Y-95714286D02*
X144645295Y-95714286D01*
X144645295Y-95714286D02*
X144550057Y-95761905D01*
X144550057Y-95761905D02*
X144502438Y-95809524D01*
X144502438Y-95809524D02*
X144454819Y-95904762D01*
X144454819Y-95904762D02*
X144454819Y-96095238D01*
X144454819Y-96095238D02*
X144502438Y-96190476D01*
X144502438Y-96190476D02*
X144550057Y-96238095D01*
X144550057Y-96238095D02*
X144645295Y-96285714D01*
X144645295Y-96285714D02*
X144692914Y-96285714D01*
X144692914Y-96285714D02*
X144788152Y-96238095D01*
X144788152Y-96238095D02*
X144835771Y-96190476D01*
X144835771Y-96190476D02*
X144883390Y-96095238D01*
X144883390Y-96095238D02*
X144883390Y-95904762D01*
X144883390Y-95904762D02*
X144931009Y-95809524D01*
X144931009Y-95809524D02*
X144978628Y-95761905D01*
X144978628Y-95761905D02*
X145073866Y-95714286D01*
X145073866Y-95714286D02*
X145264342Y-95714286D01*
X145264342Y-95714286D02*
X145359580Y-95761905D01*
X145359580Y-95761905D02*
X145407200Y-95809524D01*
X145407200Y-95809524D02*
X145454819Y-95904762D01*
X145454819Y-95904762D02*
X145454819Y-96095238D01*
X145454819Y-96095238D02*
X145407200Y-96190476D01*
X145407200Y-96190476D02*
X145359580Y-96238095D01*
X145359580Y-96238095D02*
X145264342Y-96285714D01*
X145264342Y-96285714D02*
X145073866Y-96285714D01*
X145073866Y-96285714D02*
X144978628Y-96238095D01*
X144978628Y-96238095D02*
X144931009Y-96190476D01*
X144931009Y-96190476D02*
X144883390Y-96095238D01*
X136166666Y-106454819D02*
X136499999Y-105978628D01*
X136738094Y-106454819D02*
X136738094Y-105454819D01*
X136738094Y-105454819D02*
X136357142Y-105454819D01*
X136357142Y-105454819D02*
X136261904Y-105502438D01*
X136261904Y-105502438D02*
X136214285Y-105550057D01*
X136214285Y-105550057D02*
X136166666Y-105645295D01*
X136166666Y-105645295D02*
X136166666Y-105788152D01*
X136166666Y-105788152D02*
X136214285Y-105883390D01*
X136214285Y-105883390D02*
X136261904Y-105931009D01*
X136261904Y-105931009D02*
X136357142Y-105978628D01*
X136357142Y-105978628D02*
X136738094Y-105978628D01*
X135309523Y-105788152D02*
X135309523Y-106454819D01*
X135547618Y-105407200D02*
X135785713Y-106121485D01*
X135785713Y-106121485D02*
X135166666Y-106121485D01*
X145166666Y-108454819D02*
X145499999Y-107978628D01*
X145738094Y-108454819D02*
X145738094Y-107454819D01*
X145738094Y-107454819D02*
X145357142Y-107454819D01*
X145357142Y-107454819D02*
X145261904Y-107502438D01*
X145261904Y-107502438D02*
X145214285Y-107550057D01*
X145214285Y-107550057D02*
X145166666Y-107645295D01*
X145166666Y-107645295D02*
X145166666Y-107788152D01*
X145166666Y-107788152D02*
X145214285Y-107883390D01*
X145214285Y-107883390D02*
X145261904Y-107931009D01*
X145261904Y-107931009D02*
X145357142Y-107978628D01*
X145357142Y-107978628D02*
X145738094Y-107978628D01*
X144833332Y-107454819D02*
X144214285Y-107454819D01*
X144214285Y-107454819D02*
X144547618Y-107835771D01*
X144547618Y-107835771D02*
X144404761Y-107835771D01*
X144404761Y-107835771D02*
X144309523Y-107883390D01*
X144309523Y-107883390D02*
X144261904Y-107931009D01*
X144261904Y-107931009D02*
X144214285Y-108026247D01*
X144214285Y-108026247D02*
X144214285Y-108264342D01*
X144214285Y-108264342D02*
X144261904Y-108359580D01*
X144261904Y-108359580D02*
X144309523Y-108407200D01*
X144309523Y-108407200D02*
X144404761Y-108454819D01*
X144404761Y-108454819D02*
X144690475Y-108454819D01*
X144690475Y-108454819D02*
X144785713Y-108407200D01*
X144785713Y-108407200D02*
X144833332Y-108359580D01*
X173761904Y-84954819D02*
X173761904Y-85764342D01*
X173761904Y-85764342D02*
X173714285Y-85859580D01*
X173714285Y-85859580D02*
X173666666Y-85907200D01*
X173666666Y-85907200D02*
X173571428Y-85954819D01*
X173571428Y-85954819D02*
X173380952Y-85954819D01*
X173380952Y-85954819D02*
X173285714Y-85907200D01*
X173285714Y-85907200D02*
X173238095Y-85859580D01*
X173238095Y-85859580D02*
X173190476Y-85764342D01*
X173190476Y-85764342D02*
X173190476Y-84954819D01*
X172761904Y-85050057D02*
X172714285Y-85002438D01*
X172714285Y-85002438D02*
X172619047Y-84954819D01*
X172619047Y-84954819D02*
X172380952Y-84954819D01*
X172380952Y-84954819D02*
X172285714Y-85002438D01*
X172285714Y-85002438D02*
X172238095Y-85050057D01*
X172238095Y-85050057D02*
X172190476Y-85145295D01*
X172190476Y-85145295D02*
X172190476Y-85240533D01*
X172190476Y-85240533D02*
X172238095Y-85383390D01*
X172238095Y-85383390D02*
X172809523Y-85954819D01*
X172809523Y-85954819D02*
X172190476Y-85954819D01*
X146454819Y-89333333D02*
X145978628Y-89000000D01*
X146454819Y-88761905D02*
X145454819Y-88761905D01*
X145454819Y-88761905D02*
X145454819Y-89142857D01*
X145454819Y-89142857D02*
X145502438Y-89238095D01*
X145502438Y-89238095D02*
X145550057Y-89285714D01*
X145550057Y-89285714D02*
X145645295Y-89333333D01*
X145645295Y-89333333D02*
X145788152Y-89333333D01*
X145788152Y-89333333D02*
X145883390Y-89285714D01*
X145883390Y-89285714D02*
X145931009Y-89238095D01*
X145931009Y-89238095D02*
X145978628Y-89142857D01*
X145978628Y-89142857D02*
X145978628Y-88761905D01*
X146454819Y-90285714D02*
X146454819Y-89714286D01*
X146454819Y-90000000D02*
X145454819Y-90000000D01*
X145454819Y-90000000D02*
X145597676Y-89904762D01*
X145597676Y-89904762D02*
X145692914Y-89809524D01*
X145692914Y-89809524D02*
X145740533Y-89714286D01*
X133261904Y-124454819D02*
X132690476Y-124454819D01*
X132976190Y-125454819D02*
X132976190Y-124454819D01*
X132357142Y-125454819D02*
X132357142Y-124454819D01*
X132357142Y-124454819D02*
X131976190Y-124454819D01*
X131976190Y-124454819D02*
X131880952Y-124502438D01*
X131880952Y-124502438D02*
X131833333Y-124550057D01*
X131833333Y-124550057D02*
X131785714Y-124645295D01*
X131785714Y-124645295D02*
X131785714Y-124788152D01*
X131785714Y-124788152D02*
X131833333Y-124883390D01*
X131833333Y-124883390D02*
X131880952Y-124931009D01*
X131880952Y-124931009D02*
X131976190Y-124978628D01*
X131976190Y-124978628D02*
X132357142Y-124978628D01*
X131404761Y-124550057D02*
X131357142Y-124502438D01*
X131357142Y-124502438D02*
X131261904Y-124454819D01*
X131261904Y-124454819D02*
X131023809Y-124454819D01*
X131023809Y-124454819D02*
X130928571Y-124502438D01*
X130928571Y-124502438D02*
X130880952Y-124550057D01*
X130880952Y-124550057D02*
X130833333Y-124645295D01*
X130833333Y-124645295D02*
X130833333Y-124740533D01*
X130833333Y-124740533D02*
X130880952Y-124883390D01*
X130880952Y-124883390D02*
X131452380Y-125454819D01*
X131452380Y-125454819D02*
X130833333Y-125454819D01*
X132642857Y-114891317D02*
X132976190Y-114415126D01*
X133214285Y-114891317D02*
X133214285Y-113891317D01*
X133214285Y-113891317D02*
X132833333Y-113891317D01*
X132833333Y-113891317D02*
X132738095Y-113938936D01*
X132738095Y-113938936D02*
X132690476Y-113986555D01*
X132690476Y-113986555D02*
X132642857Y-114081793D01*
X132642857Y-114081793D02*
X132642857Y-114224650D01*
X132642857Y-114224650D02*
X132690476Y-114319888D01*
X132690476Y-114319888D02*
X132738095Y-114367507D01*
X132738095Y-114367507D02*
X132833333Y-114415126D01*
X132833333Y-114415126D02*
X133214285Y-114415126D01*
X131690476Y-114891317D02*
X132261904Y-114891317D01*
X131976190Y-114891317D02*
X131976190Y-113891317D01*
X131976190Y-113891317D02*
X132071428Y-114034174D01*
X132071428Y-114034174D02*
X132166666Y-114129412D01*
X132166666Y-114129412D02*
X132261904Y-114177031D01*
X131119047Y-114319888D02*
X131214285Y-114272269D01*
X131214285Y-114272269D02*
X131261904Y-114224650D01*
X131261904Y-114224650D02*
X131309523Y-114129412D01*
X131309523Y-114129412D02*
X131309523Y-114081793D01*
X131309523Y-114081793D02*
X131261904Y-113986555D01*
X131261904Y-113986555D02*
X131214285Y-113938936D01*
X131214285Y-113938936D02*
X131119047Y-113891317D01*
X131119047Y-113891317D02*
X130928571Y-113891317D01*
X130928571Y-113891317D02*
X130833333Y-113938936D01*
X130833333Y-113938936D02*
X130785714Y-113986555D01*
X130785714Y-113986555D02*
X130738095Y-114081793D01*
X130738095Y-114081793D02*
X130738095Y-114129412D01*
X130738095Y-114129412D02*
X130785714Y-114224650D01*
X130785714Y-114224650D02*
X130833333Y-114272269D01*
X130833333Y-114272269D02*
X130928571Y-114319888D01*
X130928571Y-114319888D02*
X131119047Y-114319888D01*
X131119047Y-114319888D02*
X131214285Y-114367507D01*
X131214285Y-114367507D02*
X131261904Y-114415126D01*
X131261904Y-114415126D02*
X131309523Y-114510364D01*
X131309523Y-114510364D02*
X131309523Y-114700840D01*
X131309523Y-114700840D02*
X131261904Y-114796078D01*
X131261904Y-114796078D02*
X131214285Y-114843698D01*
X131214285Y-114843698D02*
X131119047Y-114891317D01*
X131119047Y-114891317D02*
X130928571Y-114891317D01*
X130928571Y-114891317D02*
X130833333Y-114843698D01*
X130833333Y-114843698D02*
X130785714Y-114796078D01*
X130785714Y-114796078D02*
X130738095Y-114700840D01*
X130738095Y-114700840D02*
X130738095Y-114510364D01*
X130738095Y-114510364D02*
X130785714Y-114415126D01*
X130785714Y-114415126D02*
X130833333Y-114367507D01*
X130833333Y-114367507D02*
X130928571Y-114319888D01*
X140166666Y-117289580D02*
X140214285Y-117337200D01*
X140214285Y-117337200D02*
X140357142Y-117384819D01*
X140357142Y-117384819D02*
X140452380Y-117384819D01*
X140452380Y-117384819D02*
X140595237Y-117337200D01*
X140595237Y-117337200D02*
X140690475Y-117241961D01*
X140690475Y-117241961D02*
X140738094Y-117146723D01*
X140738094Y-117146723D02*
X140785713Y-116956247D01*
X140785713Y-116956247D02*
X140785713Y-116813390D01*
X140785713Y-116813390D02*
X140738094Y-116622914D01*
X140738094Y-116622914D02*
X140690475Y-116527676D01*
X140690475Y-116527676D02*
X140595237Y-116432438D01*
X140595237Y-116432438D02*
X140452380Y-116384819D01*
X140452380Y-116384819D02*
X140357142Y-116384819D01*
X140357142Y-116384819D02*
X140214285Y-116432438D01*
X140214285Y-116432438D02*
X140166666Y-116480057D01*
X139595237Y-116813390D02*
X139690475Y-116765771D01*
X139690475Y-116765771D02*
X139738094Y-116718152D01*
X139738094Y-116718152D02*
X139785713Y-116622914D01*
X139785713Y-116622914D02*
X139785713Y-116575295D01*
X139785713Y-116575295D02*
X139738094Y-116480057D01*
X139738094Y-116480057D02*
X139690475Y-116432438D01*
X139690475Y-116432438D02*
X139595237Y-116384819D01*
X139595237Y-116384819D02*
X139404761Y-116384819D01*
X139404761Y-116384819D02*
X139309523Y-116432438D01*
X139309523Y-116432438D02*
X139261904Y-116480057D01*
X139261904Y-116480057D02*
X139214285Y-116575295D01*
X139214285Y-116575295D02*
X139214285Y-116622914D01*
X139214285Y-116622914D02*
X139261904Y-116718152D01*
X139261904Y-116718152D02*
X139309523Y-116765771D01*
X139309523Y-116765771D02*
X139404761Y-116813390D01*
X139404761Y-116813390D02*
X139595237Y-116813390D01*
X139595237Y-116813390D02*
X139690475Y-116861009D01*
X139690475Y-116861009D02*
X139738094Y-116908628D01*
X139738094Y-116908628D02*
X139785713Y-117003866D01*
X139785713Y-117003866D02*
X139785713Y-117194342D01*
X139785713Y-117194342D02*
X139738094Y-117289580D01*
X139738094Y-117289580D02*
X139690475Y-117337200D01*
X139690475Y-117337200D02*
X139595237Y-117384819D01*
X139595237Y-117384819D02*
X139404761Y-117384819D01*
X139404761Y-117384819D02*
X139309523Y-117337200D01*
X139309523Y-117337200D02*
X139261904Y-117289580D01*
X139261904Y-117289580D02*
X139214285Y-117194342D01*
X139214285Y-117194342D02*
X139214285Y-117003866D01*
X139214285Y-117003866D02*
X139261904Y-116908628D01*
X139261904Y-116908628D02*
X139309523Y-116861009D01*
X139309523Y-116861009D02*
X139404761Y-116813390D01*
X180238094Y-99454819D02*
X180238094Y-98454819D01*
X180238094Y-98454819D02*
X179999999Y-98454819D01*
X179999999Y-98454819D02*
X179857142Y-98502438D01*
X179857142Y-98502438D02*
X179761904Y-98597676D01*
X179761904Y-98597676D02*
X179714285Y-98692914D01*
X179714285Y-98692914D02*
X179666666Y-98883390D01*
X179666666Y-98883390D02*
X179666666Y-99026247D01*
X179666666Y-99026247D02*
X179714285Y-99216723D01*
X179714285Y-99216723D02*
X179761904Y-99311961D01*
X179761904Y-99311961D02*
X179857142Y-99407200D01*
X179857142Y-99407200D02*
X179999999Y-99454819D01*
X179999999Y-99454819D02*
X180238094Y-99454819D01*
X179190475Y-99454819D02*
X178999999Y-99454819D01*
X178999999Y-99454819D02*
X178904761Y-99407200D01*
X178904761Y-99407200D02*
X178857142Y-99359580D01*
X178857142Y-99359580D02*
X178761904Y-99216723D01*
X178761904Y-99216723D02*
X178714285Y-99026247D01*
X178714285Y-99026247D02*
X178714285Y-98645295D01*
X178714285Y-98645295D02*
X178761904Y-98550057D01*
X178761904Y-98550057D02*
X178809523Y-98502438D01*
X178809523Y-98502438D02*
X178904761Y-98454819D01*
X178904761Y-98454819D02*
X179095237Y-98454819D01*
X179095237Y-98454819D02*
X179190475Y-98502438D01*
X179190475Y-98502438D02*
X179238094Y-98550057D01*
X179238094Y-98550057D02*
X179285713Y-98645295D01*
X179285713Y-98645295D02*
X179285713Y-98883390D01*
X179285713Y-98883390D02*
X179238094Y-98978628D01*
X179238094Y-98978628D02*
X179190475Y-99026247D01*
X179190475Y-99026247D02*
X179095237Y-99073866D01*
X179095237Y-99073866D02*
X178904761Y-99073866D01*
X178904761Y-99073866D02*
X178809523Y-99026247D01*
X178809523Y-99026247D02*
X178761904Y-98978628D01*
X178761904Y-98978628D02*
X178714285Y-98883390D01*
X143261904Y-114454819D02*
X143261904Y-115264342D01*
X143261904Y-115264342D02*
X143214285Y-115359580D01*
X143214285Y-115359580D02*
X143166666Y-115407200D01*
X143166666Y-115407200D02*
X143071428Y-115454819D01*
X143071428Y-115454819D02*
X142880952Y-115454819D01*
X142880952Y-115454819D02*
X142785714Y-115407200D01*
X142785714Y-115407200D02*
X142738095Y-115359580D01*
X142738095Y-115359580D02*
X142690476Y-115264342D01*
X142690476Y-115264342D02*
X142690476Y-114454819D01*
X141690476Y-115454819D02*
X142261904Y-115454819D01*
X141976190Y-115454819D02*
X141976190Y-114454819D01*
X141976190Y-114454819D02*
X142071428Y-114597676D01*
X142071428Y-114597676D02*
X142166666Y-114692914D01*
X142166666Y-114692914D02*
X142261904Y-114740533D01*
X138029849Y-114628549D02*
X138029849Y-114866644D01*
X138267944Y-114771406D02*
X138029849Y-114866644D01*
X138029849Y-114866644D02*
X137791754Y-114771406D01*
X138172706Y-115057120D02*
X138029849Y-114866644D01*
X138029849Y-114866644D02*
X137886992Y-115057120D01*
X158454819Y-89357142D02*
X157978628Y-89023809D01*
X158454819Y-88785714D02*
X157454819Y-88785714D01*
X157454819Y-88785714D02*
X157454819Y-89166666D01*
X157454819Y-89166666D02*
X157502438Y-89261904D01*
X157502438Y-89261904D02*
X157550057Y-89309523D01*
X157550057Y-89309523D02*
X157645295Y-89357142D01*
X157645295Y-89357142D02*
X157788152Y-89357142D01*
X157788152Y-89357142D02*
X157883390Y-89309523D01*
X157883390Y-89309523D02*
X157931009Y-89261904D01*
X157931009Y-89261904D02*
X157978628Y-89166666D01*
X157978628Y-89166666D02*
X157978628Y-88785714D01*
X157454819Y-89690476D02*
X157454819Y-90309523D01*
X157454819Y-90309523D02*
X157835771Y-89976190D01*
X157835771Y-89976190D02*
X157835771Y-90119047D01*
X157835771Y-90119047D02*
X157883390Y-90214285D01*
X157883390Y-90214285D02*
X157931009Y-90261904D01*
X157931009Y-90261904D02*
X158026247Y-90309523D01*
X158026247Y-90309523D02*
X158264342Y-90309523D01*
X158264342Y-90309523D02*
X158359580Y-90261904D01*
X158359580Y-90261904D02*
X158407200Y-90214285D01*
X158407200Y-90214285D02*
X158454819Y-90119047D01*
X158454819Y-90119047D02*
X158454819Y-89833333D01*
X158454819Y-89833333D02*
X158407200Y-89738095D01*
X158407200Y-89738095D02*
X158359580Y-89690476D01*
X157550057Y-90690476D02*
X157502438Y-90738095D01*
X157502438Y-90738095D02*
X157454819Y-90833333D01*
X157454819Y-90833333D02*
X157454819Y-91071428D01*
X157454819Y-91071428D02*
X157502438Y-91166666D01*
X157502438Y-91166666D02*
X157550057Y-91214285D01*
X157550057Y-91214285D02*
X157645295Y-91261904D01*
X157645295Y-91261904D02*
X157740533Y-91261904D01*
X157740533Y-91261904D02*
X157883390Y-91214285D01*
X157883390Y-91214285D02*
X158454819Y-90642857D01*
X158454819Y-90642857D02*
X158454819Y-91261904D01*
X148142857Y-110454819D02*
X148476190Y-109978628D01*
X148714285Y-110454819D02*
X148714285Y-109454819D01*
X148714285Y-109454819D02*
X148333333Y-109454819D01*
X148333333Y-109454819D02*
X148238095Y-109502438D01*
X148238095Y-109502438D02*
X148190476Y-109550057D01*
X148190476Y-109550057D02*
X148142857Y-109645295D01*
X148142857Y-109645295D02*
X148142857Y-109788152D01*
X148142857Y-109788152D02*
X148190476Y-109883390D01*
X148190476Y-109883390D02*
X148238095Y-109931009D01*
X148238095Y-109931009D02*
X148333333Y-109978628D01*
X148333333Y-109978628D02*
X148714285Y-109978628D01*
X147761904Y-109550057D02*
X147714285Y-109502438D01*
X147714285Y-109502438D02*
X147619047Y-109454819D01*
X147619047Y-109454819D02*
X147380952Y-109454819D01*
X147380952Y-109454819D02*
X147285714Y-109502438D01*
X147285714Y-109502438D02*
X147238095Y-109550057D01*
X147238095Y-109550057D02*
X147190476Y-109645295D01*
X147190476Y-109645295D02*
X147190476Y-109740533D01*
X147190476Y-109740533D02*
X147238095Y-109883390D01*
X147238095Y-109883390D02*
X147809523Y-110454819D01*
X147809523Y-110454819D02*
X147190476Y-110454819D01*
X146285714Y-109454819D02*
X146761904Y-109454819D01*
X146761904Y-109454819D02*
X146809523Y-109931009D01*
X146809523Y-109931009D02*
X146761904Y-109883390D01*
X146761904Y-109883390D02*
X146666666Y-109835771D01*
X146666666Y-109835771D02*
X146428571Y-109835771D01*
X146428571Y-109835771D02*
X146333333Y-109883390D01*
X146333333Y-109883390D02*
X146285714Y-109931009D01*
X146285714Y-109931009D02*
X146238095Y-110026247D01*
X146238095Y-110026247D02*
X146238095Y-110264342D01*
X146238095Y-110264342D02*
X146285714Y-110359580D01*
X146285714Y-110359580D02*
X146333333Y-110407200D01*
X146333333Y-110407200D02*
X146428571Y-110454819D01*
X146428571Y-110454819D02*
X146666666Y-110454819D01*
X146666666Y-110454819D02*
X146761904Y-110407200D01*
X146761904Y-110407200D02*
X146809523Y-110359580D01*
X136142857Y-102454819D02*
X136476190Y-101978628D01*
X136714285Y-102454819D02*
X136714285Y-101454819D01*
X136714285Y-101454819D02*
X136333333Y-101454819D01*
X136333333Y-101454819D02*
X136238095Y-101502438D01*
X136238095Y-101502438D02*
X136190476Y-101550057D01*
X136190476Y-101550057D02*
X136142857Y-101645295D01*
X136142857Y-101645295D02*
X136142857Y-101788152D01*
X136142857Y-101788152D02*
X136190476Y-101883390D01*
X136190476Y-101883390D02*
X136238095Y-101931009D01*
X136238095Y-101931009D02*
X136333333Y-101978628D01*
X136333333Y-101978628D02*
X136714285Y-101978628D01*
X135761904Y-101550057D02*
X135714285Y-101502438D01*
X135714285Y-101502438D02*
X135619047Y-101454819D01*
X135619047Y-101454819D02*
X135380952Y-101454819D01*
X135380952Y-101454819D02*
X135285714Y-101502438D01*
X135285714Y-101502438D02*
X135238095Y-101550057D01*
X135238095Y-101550057D02*
X135190476Y-101645295D01*
X135190476Y-101645295D02*
X135190476Y-101740533D01*
X135190476Y-101740533D02*
X135238095Y-101883390D01*
X135238095Y-101883390D02*
X135809523Y-102454819D01*
X135809523Y-102454819D02*
X135190476Y-102454819D01*
X134857142Y-101454819D02*
X134238095Y-101454819D01*
X134238095Y-101454819D02*
X134571428Y-101835771D01*
X134571428Y-101835771D02*
X134428571Y-101835771D01*
X134428571Y-101835771D02*
X134333333Y-101883390D01*
X134333333Y-101883390D02*
X134285714Y-101931009D01*
X134285714Y-101931009D02*
X134238095Y-102026247D01*
X134238095Y-102026247D02*
X134238095Y-102264342D01*
X134238095Y-102264342D02*
X134285714Y-102359580D01*
X134285714Y-102359580D02*
X134333333Y-102407200D01*
X134333333Y-102407200D02*
X134428571Y-102454819D01*
X134428571Y-102454819D02*
X134714285Y-102454819D01*
X134714285Y-102454819D02*
X134809523Y-102407200D01*
X134809523Y-102407200D02*
X134857142Y-102359580D01*
X140761904Y-120454819D02*
X140761904Y-121264342D01*
X140761904Y-121264342D02*
X140714285Y-121359580D01*
X140714285Y-121359580D02*
X140666666Y-121407200D01*
X140666666Y-121407200D02*
X140571428Y-121454819D01*
X140571428Y-121454819D02*
X140380952Y-121454819D01*
X140380952Y-121454819D02*
X140285714Y-121407200D01*
X140285714Y-121407200D02*
X140238095Y-121359580D01*
X140238095Y-121359580D02*
X140190476Y-121264342D01*
X140190476Y-121264342D02*
X140190476Y-120454819D01*
X139809523Y-120454819D02*
X139142857Y-120454819D01*
X139142857Y-120454819D02*
X139571428Y-121454819D01*
D11*
%TO.C,FL1*%
X128881000Y-119500000D02*
G75*
G02*
X128119000Y-119500000I-381000J0D01*
G01*
X128119000Y-119500000D02*
G75*
G02*
X128881000Y-119500000I381000J0D01*
G01*
D12*
%TO.C,R27*%
X184727064Y-94090000D02*
X183272936Y-94090000D01*
X184727064Y-95910000D02*
X183272936Y-95910000D01*
%TO.C,C35*%
X155978368Y-125589418D02*
X155978368Y-125308258D01*
X156998368Y-125589418D02*
X156998368Y-125308258D01*
%TO.C,R28*%
X151262742Y-118477500D02*
X151737258Y-118477500D01*
X151262742Y-119522500D02*
X151737258Y-119522500D01*
%TO.C,C23*%
X184711252Y-102090000D02*
X183288748Y-102090000D01*
X184711252Y-103910000D02*
X183288748Y-103910000D01*
%TO.C,C36*%
X147359420Y-118990000D02*
X147640580Y-118990000D01*
X147359420Y-120010000D02*
X147640580Y-120010000D01*
%TO.C,D1*%
X126340000Y-85640000D02*
X126340000Y-96360000D01*
X130570000Y-85640000D02*
X129370000Y-85640000D01*
X131640000Y-96360000D02*
X129370000Y-96360000D01*
X134660000Y-91000000D02*
X134660000Y-96360000D01*
X135090000Y-85390000D02*
X134810000Y-85390000D01*
X134810000Y-85110000D01*
X135090000Y-85390000D01*
G36*
X135090000Y-85390000D02*
G01*
X134810000Y-85390000D01*
X134810000Y-85110000D01*
X135090000Y-85390000D01*
G37*
%TO.C,C6*%
X135140580Y-109490000D02*
X134859420Y-109490000D01*
X135140580Y-110510000D02*
X134859420Y-110510000D01*
%TO.C,R5*%
X142262742Y-103477500D02*
X142737258Y-103477500D01*
X142262742Y-104522500D02*
X142737258Y-104522500D01*
%TO.C,U9*%
X133940000Y-124500000D02*
X133940000Y-122550000D01*
X133940000Y-124500000D02*
X133940000Y-126450000D01*
X139060000Y-124500000D02*
X139060000Y-122550000D01*
X139060000Y-124500000D02*
X139060000Y-126450000D01*
X134035000Y-121800000D02*
X133705000Y-122040000D01*
X133705000Y-121560000D01*
X134035000Y-121800000D01*
G36*
X134035000Y-121800000D02*
G01*
X133705000Y-122040000D01*
X133705000Y-121560000D01*
X134035000Y-121800000D01*
G37*
%TO.C,R10*%
X136790000Y-92113748D02*
X136790000Y-94886252D01*
X140210000Y-92113748D02*
X140210000Y-94886252D01*
%TO.C,R12*%
X193237258Y-94477500D02*
X192762742Y-94477500D01*
X193237258Y-95522500D02*
X192762742Y-95522500D01*
%TO.C,R8*%
X152090000Y-111272936D02*
X152090000Y-112727064D01*
X153910000Y-111272936D02*
X153910000Y-112727064D01*
%TO.C,D5*%
X142000000Y-98140000D02*
X142000000Y-102150000D01*
X142000000Y-98140000D02*
X144000000Y-98140000D01*
X144000000Y-98140000D02*
X144000000Y-102150000D01*
%TO.C,C9*%
X138359420Y-107490000D02*
X138640580Y-107490000D01*
X138359420Y-108510000D02*
X138640580Y-108510000D01*
%TO.C,D4*%
X151350000Y-93490000D02*
X151350000Y-99000000D01*
X151350000Y-93490000D02*
X154650000Y-93490000D01*
X154650000Y-93490000D02*
X154650000Y-99000000D01*
%TO.C,C21*%
X142359420Y-105490000D02*
X142640580Y-105490000D01*
X142359420Y-106510000D02*
X142640580Y-106510000D01*
%TO.C,R38*%
X124522500Y-127762742D02*
X124522500Y-128237258D01*
X125567500Y-127762742D02*
X125567500Y-128237258D01*
%TO.C,R2*%
X180477500Y-86762742D02*
X180477500Y-87237258D01*
X181522500Y-86762742D02*
X181522500Y-87237258D01*
%TO.C,R7*%
X138262742Y-103477500D02*
X138737258Y-103477500D01*
X138262742Y-104522500D02*
X138737258Y-104522500D01*
%TO.C,D3*%
X148850000Y-93160000D02*
X148850000Y-87350000D01*
X153150000Y-93160000D02*
X148850000Y-93160000D01*
X153150000Y-93160000D02*
X153150000Y-87350000D01*
%TO.C,R26*%
X134762742Y-117977500D02*
X135237258Y-117977500D01*
X134762742Y-119022500D02*
X135237258Y-119022500D01*
%TO.C,TP1*%
X128700000Y-127000000D02*
G75*
G02*
X126300000Y-127000000I-1200000J0D01*
G01*
X126300000Y-127000000D02*
G75*
G02*
X128700000Y-127000000I1200000J0D01*
G01*
%TO.C,R6*%
X193237258Y-104477500D02*
X192762742Y-104477500D01*
X193237258Y-105522500D02*
X192762742Y-105522500D01*
%TO.C,Q1*%
X150390000Y-102850000D02*
X150390000Y-108850000D01*
X155610000Y-102850000D02*
X155610000Y-108850000D01*
X155140000Y-109701838D02*
X154660000Y-109701838D01*
X154900000Y-109371838D01*
X155140000Y-109701838D01*
G36*
X155140000Y-109701838D02*
G01*
X154660000Y-109701838D01*
X154900000Y-109371838D01*
X155140000Y-109701838D01*
G37*
%TO.C,C7*%
X135140580Y-111490000D02*
X134859420Y-111490000D01*
X135140580Y-112510000D02*
X134859420Y-112510000D01*
%TO.C,R29*%
X151237258Y-127477500D02*
X150762742Y-127477500D01*
X151237258Y-128522500D02*
X150762742Y-128522500D01*
%TO.C,C4*%
X176859420Y-89990000D02*
X177140580Y-89990000D01*
X176859420Y-91010000D02*
X177140580Y-91010000D01*
%TO.C,JP2*%
X133521168Y-116136498D02*
X133521168Y-116736498D01*
X134221168Y-117436498D02*
X135621168Y-117436498D01*
X135621168Y-115436498D02*
X134221168Y-115436498D01*
X136321168Y-116736498D02*
X136321168Y-116136498D01*
X133521168Y-116136498D02*
G75*
G02*
X134221168Y-115436498I700000J0D01*
G01*
X134221168Y-117436498D02*
G75*
G02*
X133521168Y-116736498I0J700000D01*
G01*
X135621168Y-115436498D02*
G75*
G02*
X136321168Y-116136498I1J-699999D01*
G01*
X136321168Y-116736498D02*
G75*
G02*
X135621168Y-117436498I-699999J-1D01*
G01*
%TO.C,Y1*%
X151600000Y-123798838D02*
X155600000Y-123798838D01*
X151600000Y-127098838D02*
X151600000Y-123798838D01*
%TO.C,D8*%
X142000000Y-97860000D02*
X142000000Y-93850000D01*
X144000000Y-97860000D02*
X142000000Y-97860000D01*
X144000000Y-97860000D02*
X144000000Y-93850000D01*
%TO.C,R4*%
X138262742Y-105477500D02*
X138737258Y-105477500D01*
X138262742Y-106522500D02*
X138737258Y-106522500D01*
%TO.C,R3*%
X142262742Y-107477500D02*
X142737258Y-107477500D01*
X142262742Y-108522500D02*
X142737258Y-108522500D01*
D13*
%TO.C,U2*%
X174320300Y-84828300D02*
X174533660Y-84828300D01*
X174320300Y-89171700D02*
X174320300Y-84828300D01*
X174533660Y-89171700D02*
X174320300Y-89171700D01*
X179466340Y-84828300D02*
X179679700Y-84828300D01*
X179679700Y-84828300D02*
X179679700Y-89171700D01*
X179679700Y-89171700D02*
X179466340Y-89171700D01*
D12*
%TO.C,R1*%
X142140000Y-87972936D02*
X142140000Y-91027064D01*
X144860000Y-87972936D02*
X144860000Y-91027064D01*
%TO.C,TP2*%
X133200000Y-127000000D02*
G75*
G02*
X130800000Y-127000000I-1200000J0D01*
G01*
X130800000Y-127000000D02*
G75*
G02*
X133200000Y-127000000I1200000J0D01*
G01*
%TO.C,R18*%
X134683910Y-113913998D02*
X135158426Y-113913998D01*
X134683910Y-114958998D02*
X135158426Y-114958998D01*
%TO.C,C8*%
X139859420Y-114990000D02*
X140140580Y-114990000D01*
X139859420Y-116010000D02*
X140140580Y-116010000D01*
%TO.C,C37*%
X147359420Y-117490000D02*
X147640580Y-117490000D01*
X147359420Y-118510000D02*
X147640580Y-118510000D01*
%TO.C,R37*%
X144262742Y-117477500D02*
X144737258Y-117477500D01*
X144262742Y-118522500D02*
X144737258Y-118522500D01*
%TO.C,R36*%
X144262742Y-118977500D02*
X144737258Y-118977500D01*
X144262742Y-120022500D02*
X144737258Y-120022500D01*
%TO.C,D9*%
X187660000Y-96850000D02*
X181850000Y-96850000D01*
X187660000Y-96850000D02*
X187660000Y-101150000D01*
X187660000Y-101150000D02*
X181850000Y-101150000D01*
D13*
%TO.C,U1*%
X139081126Y-109802900D02*
X141918874Y-109802900D01*
X141918874Y-114197100D02*
X139081126Y-114197100D01*
D14*
G36*
X143890900Y-110939550D02*
G01*
X143636900Y-110939550D01*
X143636900Y-110558550D01*
X143890900Y-110558550D01*
X143890900Y-110939550D01*
G37*
D12*
%TO.C,R32*%
X154140000Y-88472936D02*
X154140000Y-91527064D01*
X156860000Y-88472936D02*
X156860000Y-91527064D01*
%TO.C,R25*%
X144477500Y-111237258D02*
X144477500Y-110762742D01*
X145522500Y-111237258D02*
X145522500Y-110762742D01*
%TO.C,R23*%
X138737258Y-101477500D02*
X138262742Y-101477500D01*
X138737258Y-102522500D02*
X138262742Y-102522500D01*
%TO.C,U7*%
X141390000Y-121539999D02*
X141390000Y-121190000D01*
X141390000Y-127460001D02*
X141390000Y-128110000D01*
X141390000Y-128110000D02*
X142039999Y-128110000D01*
X142039999Y-120890000D02*
X141630000Y-120890000D01*
X148610000Y-120890000D02*
X147960001Y-120890000D01*
X148610000Y-121539999D02*
X148610000Y-120890000D01*
X148610000Y-127460001D02*
X148610000Y-128110000D01*
X148610000Y-128110000D02*
X147960001Y-128110000D01*
X141390000Y-120890000D02*
X141060000Y-121130000D01*
X141060000Y-120650000D01*
X141390000Y-120890000D01*
G36*
X141390000Y-120890000D02*
G01*
X141060000Y-121130000D01*
X141060000Y-120650000D01*
X141390000Y-120890000D01*
G37*
%TO.C,C26*%
X150190000Y-125308258D02*
X150190000Y-125589418D01*
X151210000Y-125308258D02*
X151210000Y-125589418D01*
%TD*%
M02*
