M48
; DRILL file {KiCad 9.0.0-9.0.0-2~ubuntu24.04.1} date 2025-04-10T08:36:34-0400
; FORMAT={-:-/ absolute / inch / decimal}
; #@! TF.CreationDate,2025-04-10T08:36:34-04:00
; #@! TF.GenerationSoftware,Kicad,Pcbnew,9.0.0-9.0.0-2~ubuntu24.04.1
; #@! TF.FileFunction,Plated,1,2,PTH
FMAT,2
INCH
; #@! TA.AperFunction,Plated,PTH,ViaDrill
T1C0.0100
; #@! TA.AperFunction,Plated,PTH,ViaDrill
T2C0.0118
; #@! TA.AperFunction,Plated,PTH,ComponentDrill
T3C0.0315
; #@! TA.AperFunction,Plated,PTH,ComponentDrill
T4C0.0340
; #@! TA.AperFunction,Plated,PTH,ComponentDrill
T5C0.0394
; #@! TA.AperFunction,Plated,PTH,ComponentDrill
T6C0.0472
; #@! TA.AperFunction,Plated,PTH,ComponentDrill
T7C0.0610
; #@! TA.AperFunction,Plated,PTH,ComponentDrill
T8C0.0630
; #@! TA.AperFunction,Plated,PTH,ComponentDrill
T9C0.0709
; #@! TA.AperFunction,Plated,PTH,ComponentDrill
T10C0.1260
%
G90
G05
T1
X5.2677Y-4.3819
X5.2677Y-4.4094
X5.2677Y-4.437
X5.3543Y-4.2126
X5.3937Y-4.2126
X5.4331Y-4.2126
X5.4331Y-4.2913
X5.5236Y-4.4789
X5.5433Y-4.2913
X5.5512Y-3.7795
X5.5512Y-4.0157
X5.5512Y-4.4789
X5.6102Y-3.9567
X5.6285Y-4.2878
X5.6299Y-3.935
X5.6299Y-3.9764
X5.6417Y-4.5079
X5.6417Y-4.5354
X5.6417Y-4.563
X5.6496Y-3.9567
X5.6693Y-3.937
X5.6693Y-3.9764
X5.6693Y-4.4805
X5.689Y-3.9173
X5.689Y-3.9567
X5.689Y-3.9953
X5.689Y-4.0354
X5.689Y-4.0748
X5.689Y-4.1142
X5.689Y-4.1535
X5.7087Y-3.937
X5.7087Y-3.9764
X5.7087Y-4.0157
X5.7087Y-4.0551
X5.7087Y-4.0945
X5.7087Y-4.1339
X5.7087Y-4.1732
X5.7283Y-4.1535
X5.7283Y-4.1929
X5.748Y-4.1732
X5.9685Y-4.4291
X5.9685Y-4.4567
X5.9685Y-4.4843
X5.9685Y-4.5118
X5.9961Y-4.4291
X5.9961Y-4.5118
X6.0236Y-4.4291
X6.0236Y-4.5118
X6.0512Y-4.4291
X6.0512Y-4.5118
X6.0787Y-4.4291
X6.0787Y-4.4567
X6.0787Y-4.4843
X6.0787Y-4.5118
X7.4803Y-3.8189
X7.4844Y-4.1773
X7.5197Y-3.7092
X7.5197Y-4.1649
X7.5512Y-3.7795
X7.5512Y-3.8189
X7.5512Y-4.0551
X7.5512Y-4.0945
X7.5591Y-4.2126
X7.6772Y-3.7092
X7.6772Y-3.7795
X7.6772Y-3.8189
X7.6772Y-4.0945
X7.6772Y-4.1649
T2
X3.7402Y-3.3465
X3.7402Y-3.7402
X3.7402Y-4.1339
X3.7402Y-4.5276
X3.7402Y-4.9213
X3.937Y-3.5433
X3.937Y-3.937
X3.937Y-4.3307
X4.1339Y-3.3465
X4.1339Y-3.7402
X4.1339Y-4.1339
X4.2323Y-5.8465
X4.3307Y-3.5433
X4.3307Y-4.3307
X4.3898Y-5.8465
X4.5276Y-3.3465
X4.5276Y-3.7402
X4.5472Y-5.8465
X4.7047Y-5.8465
X4.7244Y-3.5433
X4.7244Y-3.937
X4.7244Y-4.3307
X4.7244Y-4.7244
X4.8622Y-5.8465
X4.9213Y-3.3465
X4.9606Y-4.9606
X5.0Y-4.9213
X5.0197Y-5.8465
X5.0787Y-5.0
X5.1181Y-5.0
X5.1181Y-5.0394
X5.1205Y-4.8584
X5.1772Y-5.8465
X5.1969Y-4.8819
X5.2362Y-4.8425
X5.2362Y-4.8819
X5.2451Y-5.0116
X5.248Y-4.9488
X5.2707Y-5.0679
X5.2756Y-4.8819
X5.3003Y-5.0569
X5.3346Y-4.8622
X5.3346Y-5.8465
X5.3543Y-4.9016
X5.3543Y-4.9409
X5.3829Y-4.323
X5.3937Y-4.6849
X5.3937Y-4.9016
X5.3937Y-4.9409
X5.4724Y-5.8465
X5.4882Y-4.8189
X5.5083Y-4.9803
X5.5083Y-5.0394
X5.5344Y-4.9179
X5.5975Y-5.0606
X5.6063Y-4.9961
X5.614Y-4.6713
X5.6191Y-4.8622
X5.6191Y-4.9213
X5.6231Y-4.8153
X5.6299Y-5.8465
X5.6651Y-4.8118
X5.6693Y-4.8622
X5.6693Y-4.9016
X5.6693Y-4.9409
X5.6971Y-4.8118
X5.7087Y-4.8622
X5.7087Y-4.9016
X5.7087Y-4.9409
X5.7087Y-5.0787
X5.7372Y-4.8118
X5.748Y-4.8622
X5.748Y-4.9016
X5.748Y-4.9409
X5.748Y-5.0787
X5.7874Y-5.0787
X5.7874Y-5.8465
X5.7982Y-4.8622
X5.7982Y-4.9213
X5.7982Y-4.9961
X5.8268Y-5.0787
X5.8465Y-4.7638
X5.8661Y-5.0787
X5.8789Y-4.9398
X5.8806Y-4.978
X5.8858Y-4.685
X5.9055Y-5.0787
X5.9252Y-4.6457
X5.9252Y-4.7244
X5.9252Y-5.8465
X5.9449Y-5.0787
X6.0039Y-4.6457
X6.0039Y-4.7244
X6.0236Y-4.8622
X6.0433Y-4.685
X6.0827Y-5.8465
X6.0868Y-4.9055
X6.2402Y-5.8465
X6.3976Y-5.8465
X6.5551Y-5.8465
X6.7126Y-5.8465
X6.7913Y-5.315
X6.9488Y-5.315
X7.1063Y-5.315
X7.2638Y-5.315
X7.4213Y-5.315
X7.5787Y-5.315
X7.7362Y-5.315
X7.8937Y-5.315
X8.0709Y-5.3189
X8.1417Y-5.4331
X8.1772Y-5.4331
X8.2087Y-5.5709
X8.2087Y-5.6299
X8.2087Y-5.689
X8.2126Y-5.4331
X8.2283Y-5.3937
X8.2283Y-6.0236
X8.2544Y-5.4709
X8.2559Y-5.7874
X8.2677Y-5.5709
X8.2677Y-5.6299
X8.2677Y-5.689
X8.2913Y-5.4724
X8.3061Y-5.4242
X8.3071Y-5.9449
X8.3268Y-5.5709
X8.3268Y-5.6299
X8.3268Y-5.689
X8.3858Y-6.0236
X8.4055Y-5.2165
X8.4646Y-5.689
X8.4646Y-5.7283
X8.4646Y-5.9449
X8.5Y-5.2756
X8.5039Y-5.1969
X8.5039Y-5.689
X8.5039Y-5.7283
X8.5236Y-5.6457
X8.5433Y-5.8661
X8.5433Y-6.0236
X8.5472Y-5.3937
X8.5472Y-5.7874
X8.5827Y-5.7283
X8.6024Y-5.2165
X8.6024Y-5.2756
X8.6024Y-5.3622
X8.622Y-5.9449
X8.7008Y-5.1969
X8.7008Y-5.8661
X8.7008Y-6.0236
T3
X3.9075Y-4.7441
X4.2028Y-4.9016
X5.451Y-3.8583
X5.5297Y-3.8583
T4
X4.5669Y-4.252
X4.5669Y-4.6457
X5.0591Y-4.252
X5.0591Y-4.6457
T5
X4.4685Y-3.937
X4.753Y-5.0394
X4.853Y-5.0394
X4.8622Y-3.937
X6.1024Y-4.685
X6.4961Y-4.685
T6
X4.9016Y-3.5039
X5.0591Y-3.9173
X5.2559Y-3.9173
X5.4921Y-3.5039
X7.1387Y-3.5827
X7.1387Y-4.2913
X7.3356Y-3.5827
X7.3356Y-4.2913
T7
X7.7953Y-3.8425
X7.7953Y-4.0315
T8
X5.8071Y-3.4449
X5.8071Y-3.6417
X5.8071Y-3.8386
X5.8071Y-4.0354
X5.8071Y-4.2323
X5.8071Y-4.4291
X6.7913Y-3.4449
X6.7913Y-3.6417
X6.7913Y-3.8386
X6.7913Y-4.0354
X6.7913Y-4.2323
X6.7913Y-4.4291
T9
X4.2717Y-3.9429
X4.2717Y-4.2126
X4.2717Y-4.4823
T10
X4.1339Y-3.5433
M30
